<svg width="26" height="26" viewBox="0 0 26 26" fill="none" xmlns="http://www.w3.org/2000/svg">
<circle cx="13" cy="13" r="12.5" fill="white" stroke="url(#paint0_linear_106_175)"/>
<g clip-path="url(#clip0_106_175)">
<path d="M17.2137 18.9997C16.9777 18.9491 16.6575 18.8816 16.3373 18.7972C14.4496 18.3077 12.7979 17.3626 11.3316 16.0799C9.83165 14.7634 8.63502 13.2276 7.80918 11.3879C7.43839 10.5609 7.16873 9.70013 7.01704 8.80562C6.96648 8.5187 7.05075 8.29929 7.2867 8.11364C7.80918 7.70857 8.36536 7.35414 8.95524 7.05035C9.17434 6.9322 9.37659 6.94908 9.59569 7.06722C10.6743 7.62419 11.3654 8.48495 11.7193 9.63262C11.7361 9.71701 11.7698 9.78452 11.7867 9.86891C11.8541 10.1221 11.8036 10.3415 11.635 10.544C11.3485 10.8984 11.062 11.236 10.7755 11.5904C10.5395 11.8774 10.5227 12.1474 10.7249 12.4681C11.4496 13.6157 12.3766 14.5609 13.5395 15.2698C13.826 15.4554 14.1125 15.4385 14.3822 15.2191C14.7361 14.9322 15.1069 14.6284 15.4609 14.3415C15.6463 14.1896 15.8654 14.139 16.1013 14.2065C17.0114 14.4428 17.8204 14.8816 18.4103 15.6411C18.6125 15.8942 18.7642 16.1811 18.9159 16.4512C19.0339 16.6537 19.017 16.8563 18.9159 17.0588C18.6125 17.6326 18.2586 18.1896 17.8541 18.7297C17.7193 18.9153 17.5339 18.9997 17.2137 18.9997Z" fill="#012E4B"/>
</g>
<defs>
<linearGradient id="paint0_linear_106_175" x1="1.77273" y1="1.77273" x2="20.6818" y2="26" gradientUnits="userSpaceOnUse">
<stop stop-color="#009DB8"/>
<stop offset="1" stop-color="#03C587"/>
</linearGradient>
<clipPath id="clip0_106_175">
<rect width="12" height="12" fill="white" transform="translate(7 7)"/>
</clipPath>
</defs>
</svg>
