<svg width="25" height="25" viewBox="0 0 25 25" fill="none" xmlns="http://www.w3.org/2000/svg">
<g clip-path="url(#clip0_618_473)">
<path d="M22.0768 25.0003C15.6816 25.0003 9.28641 25.0003 2.88469 25.0003C2.82595 24.909 2.72807 24.9351 2.64323 24.9155C1.10969 24.5566 0.00684741 23.2123 0.00684741 21.6461C0.000321697 15.5511 0.000321697 9.45608 0.00684741 3.36759C0.00684741 1.52081 1.52081 0.00684741 3.36759 0.00684741C9.45608 0.000321697 15.5511 0.000321697 21.6396 0.00684741C23.2123 0.00684741 24.5566 1.10969 24.9155 2.64323C24.9351 2.74112 24.9155 2.85206 25.0003 2.93037C25.0003 9.32556 25.0003 15.7208 25.0003 22.1225C24.9155 22.1682 24.9351 22.266 24.9155 22.3378C24.5566 23.7409 23.6625 24.6023 22.2595 24.9416C22.2008 24.9546 22.116 24.9155 22.0768 25.0003ZM13.3193 11.0614C13.3193 10.8526 13.3193 10.6438 13.3193 10.4415C13.3128 10.0303 13.1431 9.86067 12.745 9.85415C12.0272 9.85415 11.3159 9.85415 10.5981 9.85415C10.187 9.85415 10.0173 10.0238 10.0173 10.4349C10.0173 13.5346 10.0173 16.6344 10.0173 19.7341C10.0173 20.1517 10.1935 20.3214 10.6177 20.3214C11.2833 20.3214 11.9489 20.3214 12.621 20.3214C13.1692 20.3214 13.3128 20.1778 13.3128 19.6297C13.3128 18.057 13.3128 16.4908 13.3128 14.9181C13.3128 14.3243 13.4498 13.7565 13.7826 13.254C14.1872 12.6406 14.7876 12.4579 15.4858 12.5558C16.1123 12.6471 16.4973 13.0322 16.6996 13.6195C16.8758 14.135 16.8889 14.6701 16.8889 15.2118C16.8889 16.7192 16.8823 18.2201 16.8889 19.7275C16.8889 20.1648 17.0585 20.3214 17.5023 20.3214C18.2201 20.3214 18.9314 20.3214 19.6492 20.3214C20.106 20.3214 20.2692 20.1582 20.2692 19.708C20.2692 18.0374 20.2692 16.3733 20.2627 14.7027C20.2627 14.1024 20.2235 13.502 20.1191 12.9082C19.9625 12.0403 19.6819 11.2245 19.0228 10.5916C18.3245 9.9194 17.4435 9.71058 16.5104 9.69753C15.264 9.67143 14.135 9.95203 13.3193 11.0614ZM5.22742 15.0682C5.22742 16.6148 5.22742 18.1614 5.22742 19.708C5.22742 20.1256 5.42319 20.3214 5.84083 20.3214C6.52603 20.3214 7.20471 20.3214 7.88991 20.3214C8.3206 20.3214 8.5229 20.1321 8.5229 19.7014C8.5229 16.6278 8.5229 13.5542 8.5229 10.4741C8.5229 10.0434 8.32713 9.85415 7.88991 9.84762C7.21776 9.84109 6.53908 9.84109 5.86694 9.84762C5.40361 9.84762 5.22089 10.0369 5.22089 10.5067C5.22742 12.0207 5.22742 13.5412 5.22742 15.0682ZM9.0058 6.83927C9.01233 5.64506 8.0661 4.69231 6.87842 4.69231C5.71032 4.69231 4.75104 5.65159 4.74451 6.81969C4.74451 7.99432 5.69074 8.94055 6.86537 8.9536C8.04652 8.9536 8.99928 8.00737 9.0058 6.83927Z" fill="#0077B4"/>
</g>
<defs>
<clipPath id="clip0_618_473">
<rect width="25" height="25" fill="white"/>
</clipPath>
</defs>
</svg>
