<svg width="105" height="80" viewBox="0 0 105 80" fill="none" xmlns="http://www.w3.org/2000/svg">
<g clip-path="url(#clip0_329_247)">
<path fill-rule="evenodd" clip-rule="evenodd" d="M83.9453 0.903762C88.4656 0.903762 92.1314 4.56144 92.1314 9.07173C92.1314 13.582 88.4656 17.2397 83.9453 17.2397C82.3303 17.2397 80.8179 16.7708 79.5447 15.9608C79.4934 16.029 79.4336 16.0972 79.3652 16.1569L73.2898 21.9972C77.3401 26.516 79.9121 32.382 80.2368 38.8362H88.7305C89.3713 34.9654 92.7466 32.0153 96.8054 32.0153C101.326 32.0153 104.991 35.673 104.991 40.1833C104.991 44.6936 101.326 48.3513 96.8054 48.3513C92.9688 48.3513 89.7473 45.7167 88.8587 42.1528C88.8159 42.1528 88.7732 42.1614 88.7305 42.1614H80.1941C79.7412 48.5303 77.1094 54.2939 73.0335 58.7104L79.4678 64.6787C79.5276 64.7384 79.5874 64.798 79.6387 64.8662C80.8862 64.0989 82.356 63.6555 83.9368 63.6555C88.457 63.6555 92.1228 67.3132 92.1228 71.8235C92.1228 76.3338 88.457 79.9915 83.9368 79.9915C79.4165 79.9915 75.7507 76.3338 75.7507 71.8235C75.7507 70.0842 76.2976 68.4728 77.229 67.1427L77.2034 67.1171L70.6323 61.0295C65.8557 65.0879 59.6606 67.5349 52.9016 67.5349C45.9119 67.5349 39.5374 64.9259 34.7009 60.6288L28.0701 67.0745L28.0615 67.083C28.9673 68.396 29.4885 69.9819 29.4885 71.6956C29.4885 76.2059 25.8228 79.8636 21.3025 79.8636C16.7822 79.8636 13.1165 76.2059 13.1165 71.6956C13.1165 67.1853 16.7822 63.5277 21.3025 63.5277C22.9004 63.5277 24.3958 63.9881 25.6604 64.781C25.686 64.7469 25.7117 64.7213 25.7459 64.6957L32.3511 58.2756C28.4631 53.8676 25.9766 48.2063 25.5835 41.9653L16.2695 42.059H16.2183C15.4663 45.802 12.1594 48.6241 8.18604 48.6241C3.66577 48.6241 0 44.9664 0 40.4561C0 35.9459 3.66577 32.2882 8.18604 32.2882C12.1167 32.2882 15.4065 35.0506 16.1926 38.7424H16.2354L25.5664 38.6486C25.9253 32.3479 28.429 26.6269 32.3511 22.1763L25.4041 15.5515C25.3528 15.5004 25.3015 15.4492 25.2588 15.3895C24.1223 15.9949 22.8149 16.3274 21.4392 16.3274C16.9189 16.3274 13.2532 12.6697 13.2532 8.15944C13.2532 3.65768 16.9189 0 21.4392 0C25.9595 0 29.6252 3.65768 29.6252 8.16796C29.6252 10.0949 28.9587 11.8683 27.8308 13.2665L34.7009 19.8146C39.5374 15.5174 45.9119 12.9085 52.8931 12.9085C59.7974 12.9085 66.1035 15.4577 70.9229 19.6696L77.0581 13.7696C77.0923 13.7355 77.135 13.7014 77.1777 13.6673C76.2805 12.3543 75.7593 10.7769 75.7593 9.07173C75.7593 4.56144 79.425 0.903762 83.9453 0.903762ZM49.0564 43.0395L51.3379 49.7325L52.4829 45.7593L51.9189 45.1455C51.6626 44.7789 51.6113 44.4549 51.7481 44.1735C52.0557 43.5682 52.6794 43.6875 53.269 43.6875C53.8843 43.6875 54.6448 43.5682 54.8413 44.344C54.9097 44.5998 54.8242 44.8726 54.6448 45.1455L54.0808 45.7593L55.2258 49.7325L57.2937 43.0395C58.7805 44.3781 63.1982 44.6424 64.8389 45.5633C65.3601 45.8531 65.8301 46.2198 66.2061 46.7143C66.7786 47.4646 67.1289 48.4536 67.2229 49.6984L67.5647 53.015C67.4793 53.9017 66.9751 54.4133 65.9924 54.4815H53.2947H40.3662C39.375 54.4048 38.8709 53.8932 38.7939 53.015L39.1357 49.6984C39.2297 48.4451 39.5801 47.4646 40.1526 46.7143C40.5286 46.2198 40.9985 45.8531 41.5198 45.5633C43.1604 44.6424 47.5696 44.3781 49.0564 43.0395ZM48.4412 32.9191C48.4668 32.9703 48.4753 33.0214 48.4753 33.0811C48.4753 33.1067 48.4753 33.1323 48.4668 33.1664L48.5095 33.4818C48.3984 33.5074 48.2959 33.5074 48.1934 33.5074C48.1506 33.5245 48.0994 33.533 48.0566 33.533C47.7747 33.5415 47.5696 33.5927 47.4329 33.6865C47.3645 33.7376 47.3047 33.7973 47.2791 33.8655C47.2363 33.9508 47.2192 34.0531 47.2278 34.1724C47.2363 34.5476 47.4414 35.0336 47.8259 35.6048L47.8345 35.6133L49.1077 37.634C49.6204 38.444 50.1502 39.2625 50.8081 39.8678C51.4319 40.4391 52.2009 40.8313 53.2007 40.8313C54.2944 40.8313 55.0891 40.4306 55.7385 39.8252C56.4221 39.1943 56.9605 38.3161 57.4902 37.4379L58.9258 35.0847C59.2163 34.4282 59.3018 34.0275 59.2078 33.8399C59.148 33.712 58.8916 33.6865 58.4644 33.7206C58.3362 33.7291 58.208 33.6865 58.1226 33.6012C58.0884 33.6012 58.0542 33.6012 58.02 33.5927L58.0371 33.4904C58.0115 33.4392 57.9944 33.388 57.9858 33.3284C57.9688 33.1834 58.0371 33.047 58.1397 32.9532L58.4387 31.4441C55.8154 31.41 54.021 30.9581 51.8933 29.6025C51.1926 29.1591 50.9876 28.6476 50.2869 28.6987C49.7571 28.801 49.3127 29.0398 48.9624 29.4149C48.6206 29.7815 48.3728 30.276 48.2019 30.907L48.4412 32.9191ZM59.3018 32.9276C59.6094 33.0214 59.8315 33.1919 59.9683 33.4648C60.1819 33.8996 60.0964 34.5476 59.6948 35.4684C59.6863 35.4855 59.6777 35.5025 59.6692 35.5196L58.2166 37.9069C57.6526 38.8277 57.0801 39.757 56.3196 40.4732C55.5249 41.2235 54.5337 41.718 53.1921 41.7095C51.936 41.7095 50.9876 41.2235 50.21 40.5158C49.4666 39.8337 48.894 38.9641 48.3557 38.1115L47.0825 36.0908C46.604 35.3831 46.3647 34.7352 46.3477 34.2065C46.3391 33.9508 46.3818 33.712 46.4758 33.5074C46.5784 33.2943 46.7322 33.1067 46.9373 32.9703C47.0398 32.9021 47.1509 32.8424 47.2791 32.7997C47.2022 31.7169 47.1765 30.3698 47.2278 29.2444C47.2534 28.9715 47.3047 28.6987 47.3816 28.4174C47.7063 27.2578 48.5266 26.3199 49.5349 25.6805C49.8938 25.4503 50.2783 25.2627 50.697 25.1178C53.1494 24.2311 56.3879 24.717 58.1311 26.5928C58.8403 27.3601 59.2847 28.3662 59.3787 29.7133L59.3018 32.9276ZM69.8804 23.2506C69.8291 23.2079 69.7864 23.1653 69.7437 23.1227C69.718 23.0971 69.7009 23.0715 69.6753 23.0459C65.343 18.8341 59.4299 16.2421 52.9102 16.2421C46.3733 16.2421 40.4517 18.8426 36.1194 23.063C36.0681 23.1397 36.0083 23.2079 35.9485 23.2761C35.863 23.3614 35.7776 23.4381 35.6751 23.5063C31.4709 27.8291 28.8733 33.7206 28.8733 40.2174C28.8733 46.8422 31.5649 52.836 35.9143 57.1757C40.2637 61.5155 46.2708 64.2012 52.9102 64.2012C59.5496 64.2012 65.5566 61.5155 69.906 57.1757C74.2554 52.836 76.947 46.8422 76.947 40.2174C76.947 33.5927 74.2554 27.5988 69.906 23.2591L69.8804 23.2506Z" fill="white"/>
</g>
<defs>
<clipPath id="clip0_329_247">
<rect width="105" height="80" fill="white"/>
</clipPath>
</defs>
</svg>
