<svg width="76" height="100" viewBox="0 0 76 100" fill="none" xmlns="http://www.w3.org/2000/svg">
<g clip-path="url(#clip0_475_2)">
<path d="M24.2065 16.4292C23.0253 15.4402 22.1945 14.1004 21.8361 12.6068C21.4778 11.1133 21.6108 9.54479 22.2157 8.13203C22.8206 6.71927 23.8653 5.5368 25.1964 4.75852C26.5274 3.98024 28.0745 3.64723 29.6101 3.80846C31.1456 3.96969 32.5886 4.61665 33.7269 5.6542C34.8651 6.69175 35.6385 8.06513 35.9334 9.57236C36.2282 11.0796 36.0289 12.6411 35.3648 14.0273C34.7006 15.4135 33.6067 16.5512 32.2439 17.2731C32.3737 18.475 32.7458 21.4332 33.3122 21.9641C34.0265 22.6338 24.0507 23.9634 24.0507 23.9634C24.0507 23.9634 24.2548 19.4022 24.2065 16.4292Z" fill="#ED9DA0"/>
<path d="M32.3048 2.1086C33.9197 2.67251 34.8438 2.99693 35.6894 3.80684C37.1186 5.17661 37.3552 7.00702 37.5742 8.7079C37.7458 10.0384 37.9676 11.759 37.1831 13.7242C36.9152 14.3949 35.6186 17.3834 33.136 17.7597C32.6485 17.8339 31.5038 17.8534 31.8339 17.6109C34.8874 15.3692 35.7961 14.0749 35.6894 10.6201C35.6225 8.47318 32.7187 6.09736 30.7602 5.68007C30.2897 5.58449 29.8039 5.59108 29.3362 5.69938C28.8684 5.80768 28.4297 6.01515 28.05 6.3076C26.4039 7.65146 26.4739 13.2089 24.7381 14.3704C24.0234 14.8483 24.4998 11.4851 23.9969 12.0304C23.0045 13.1064 23.6409 14.7533 23.8197 15.3817C24.6657 18.3599 25.5512 16.1571 26.3775 18.6996C26.7851 19.9538 25.5446 21.7761 23.8197 22.647C21.8695 23.6308 19.3233 23.5725 19.1789 23.9054C18.7157 24.9713 25.332 30.0298 23.5159 30.907C21.2108 32.0209 19.3937 30.5701 18.3221 31.8147C17.723 32.5099 18.0473 33.246 16.965 35.4087C16.6117 36.1147 16.4334 36.4677 16.2787 36.455C15.5389 36.3959 14.3409 30.507 16.2787 25.0214C17.0919 22.7196 17.8885 20.4638 20.0226 18.7007C21.1518 17.768 22.0983 17.4328 22.3676 16.3446C22.7527 14.7888 21.1539 14.1251 20.8333 11.6714C20.6143 9.99308 20.4612 7.59242 21.0566 6.05278C21.6198 4.59966 22.108 3.33898 23.3871 2.19495C23.6953 1.91987 26.1733 0.0526289 28.8028 0.000996088C30.0127 -0.0231462 30.902 1.61747 32.3051 2.1079L32.3048 2.1086Z" fill="#090814"/>
<path d="M35.98 51.9509L44.1368 69.2311L12.7588 66.0709L19.3086 49.4822L35.98 51.9509Z" fill="#ED9DA0"/>
<path d="M52.3541 86.5968C46.8978 88.4028 41.1478 89.1687 35.4059 88.8542L32.909 84.8275C32.909 84.8275 32.8045 86.3272 32.6485 88.6198C29.9152 88.3048 27.2176 87.7361 24.5908 86.921C19.6095 85.372 22.2978 85.6649 17.5645 83.4516C16.6058 77.7685 12.2642 66.2172 17.5645 61.1161L42.7175 66.4089C42.7175 66.4089 47.2948 69.8135 46.0703 71.0329C44.8458 72.2524 44.6562 72.0621 45.4607 72.8621C46.2652 73.6621 48.0037 74.7318 48.0214 75.4314C48.0283 75.7047 49.9795 80.6581 52.3541 86.5968Z" fill="#2F2E41"/>
<path d="M19.5509 22.9168C16.6483 23.4315 13.131 26.7027 13.3045 29.6297C13.6254 35.0367 14.344 43.1156 15.8459 45.7363C18.1746 49.8005 14.6483 56.6892 14.6483 56.6892L13.8188 57.5141L14.6986 57.8727L42.733 61.5C42.733 61.5 40.309 50.6624 41.825 47.9997C43.341 45.337 47.0172 37.2895 43.7362 34.1406L40.5287 22.9164L35.0115 21.2983L19.5509 22.9168Z" fill="#03C587"/>
<path d="M35.5798 22.3867L33.6689 23.1395L43.8623 42.9369L64.9642 57.2406L68.0058 52.1279L51.9429 38.3297L45.512 26.0648C44.607 24.3387 43.0909 23.0073 41.2565 22.3279C39.4221 21.6484 37.3996 21.6689 35.5796 22.3856L35.5798 22.3867Z" fill="#03C587"/>
<path d="M72.7218 63.041C72.2605 63.0265 71.8079 62.9125 71.3954 62.7069C70.9828 62.5013 70.62 62.209 70.3322 61.8503C70.0443 61.4916 69.8383 61.075 69.7283 60.6293C69.6183 60.1836 69.6069 59.7195 69.695 59.269L56.5449 50.4129L58.1139 46.1936L73.6551 56.8257C74.4065 57.0297 75.0566 57.5007 75.4821 58.1494C75.9077 58.7981 76.0792 59.5795 75.9642 60.3456C75.8491 61.1116 75.4555 61.8091 74.858 62.3059C74.2604 62.8027 73.5003 63.0642 72.7218 63.041Z" fill="#ED9DA0"/>
<path d="M14.1598 68.8866C18.0458 53.1276 25.7457 39.5824 38.4978 28.97C38.9913 28.1627 39.7867 27.583 40.7095 27.3581C41.6323 27.1332 42.6071 27.2814 43.4201 27.7703L73.7349 46.0483C74.5467 46.5391 75.1296 47.3301 75.3558 48.2477C75.5819 49.1654 75.4328 50.1348 74.9411 50.9432C70.0739 67.1136 62.7846 81.1454 50.6031 90.8598C50.1096 91.6671 49.3142 92.2469 48.3914 92.4718C47.4686 92.6967 46.4938 92.5484 45.6808 92.0595L15.3662 73.7809C14.5544 73.2902 13.9714 72.4992 13.7452 71.5816C13.5191 70.6639 13.6682 69.6945 14.1598 68.886V68.8866Z" fill="#E6E6E6"/>
<path opacity="0.2" d="M16.7618 72.8609C15.0714 71.8388 15.7381 70.1208 16.7618 68.4377C20.6478 52.6786 27.812 39.5821 40.564 28.9695C40.8907 28.4408 42.4835 27.8221 43.0326 27.528C41.34 26.51 39.5253 27.2885 38.4977 28.9695C25.7458 39.581 18.0459 53.1269 14.1599 68.8866C13.6682 69.695 13.5191 70.6644 13.7452 71.5821C13.9714 72.4998 14.5544 73.2907 15.3663 73.7815L45.681 92.0596C46.2206 92.3825 46.8364 92.5578 47.466 92.5677C48.0957 92.5776 48.7168 92.4218 49.2663 92.116L16.7618 72.8609Z" fill="black"/>
<path d="M55.0992 65.3924L34.7506 53.1998C34.5877 53.1051 34.4452 52.9791 34.3316 52.8292C34.218 52.6793 34.1354 52.5084 34.0887 52.3265C34.042 52.1446 34.0321 51.9553 34.0596 51.7696C34.0871 51.5839 34.1514 51.4054 34.2488 51.2446C34.3462 51.0838 34.4748 50.9438 34.627 50.8328C34.7793 50.7218 34.9522 50.642 35.1357 50.598C35.3192 50.554 35.5097 50.5466 35.6961 50.5764C35.8825 50.6062 36.0611 50.6725 36.2215 50.7715L56.57 62.9641C56.7337 63.0584 56.8768 63.1843 56.9911 63.3342C57.1054 63.4842 57.1885 63.6552 57.2356 63.8375C57.2827 64.0197 57.2929 64.2094 57.2655 64.3956C57.2381 64.5818 57.1738 64.7607 57.0761 64.9218C56.9785 65.083 56.8496 65.2233 56.6969 65.3344C56.5442 65.4455 56.3708 65.5253 56.1868 65.569C56.0028 65.6128 55.8118 65.6197 55.6251 65.5894C55.4384 65.559 55.2596 65.4922 55.0992 65.3924Z" fill="#090814"/>
<path d="M43.2617 49.224L38.785 46.5417C38.6233 46.4466 38.4821 46.3208 38.3695 46.1713C38.2569 46.0218 38.1752 45.8517 38.1289 45.6706C38.0826 45.4896 38.0728 45.3013 38.0999 45.1165C38.1271 44.9317 38.1907 44.754 38.2871 44.5937C38.3836 44.4335 38.5109 44.2937 38.6618 44.1825C38.8127 44.0713 38.9842 43.9909 39.1665 43.9458C39.3488 43.9007 39.5382 43.8919 39.7239 43.9199C39.9096 43.9479 40.0879 44.0121 40.2486 44.1088L40.2562 44.1134L44.7325 46.7956C45.0495 46.9928 45.2759 47.306 45.3629 47.6676C45.4499 48.0292 45.3906 48.4103 45.1976 48.7289C45.0047 49.0474 44.6936 49.2777 44.3315 49.3703C43.9694 49.4629 43.5851 49.4103 43.2617 49.2238V49.224Z" fill="#090814"/>
<path d="M51.8653 70.7299L31.5166 58.5374C31.1937 58.3432 30.9613 58.0296 30.8705 57.6653C30.7797 57.3011 30.8378 56.9159 31.0322 56.5942C31.2266 56.2725 31.5413 56.0406 31.9074 55.9493C32.2735 55.858 32.661 55.9148 32.985 56.1073L32.9878 56.109L53.3365 68.3016C53.5002 68.396 53.6434 68.5218 53.7577 68.6717C53.8719 68.8217 53.9551 68.9928 54.0022 69.175C54.0493 69.3572 54.0594 69.547 54.032 69.7331C54.0047 69.9193 53.9403 70.0982 53.8427 70.2594C53.745 70.4205 53.6161 70.5608 53.4634 70.6719C53.3107 70.783 53.1373 70.8628 52.9533 70.9066C52.7693 70.9503 52.5783 70.9572 52.3916 70.9269C52.2049 70.8965 52.0261 70.8295 51.8657 70.7297L51.8653 70.7299Z" fill="#090814"/>
<path d="M62.4883 55.9047C65.7708 55.9047 68.4317 53.2585 68.4317 49.9944C68.4317 46.7302 65.7708 44.0841 62.4883 44.0841C59.2059 44.0841 56.5449 46.7302 56.5449 49.9944C56.5449 53.2585 59.2059 55.9047 62.4883 55.9047Z" fill="#03C587"/>
<path d="M47.4386 99.8238C54.4543 99.8238 60.1418 94.1681 60.1418 87.1914C60.1418 80.2147 54.4543 74.559 47.4386 74.559C40.4228 74.559 34.7354 80.2147 34.7354 87.1914C34.7354 94.1681 40.4228 99.8238 47.4386 99.8238Z" fill="#03C587"/>
<path d="M47.4385 100C44.891 100 42.4007 99.2487 40.2825 97.8413C38.1644 96.4339 36.5135 94.4335 35.5386 92.093C34.5637 89.7525 34.3086 87.1771 34.8056 84.6925C35.3026 82.2079 36.5293 79.9256 38.3307 78.1343C40.1321 76.3429 42.4271 75.123 44.9257 74.6288C47.4242 74.1346 50.0141 74.3882 52.3676 75.3577C54.7212 76.3272 56.7329 77.9689 58.1482 80.0752C59.5635 82.1816 60.3189 84.658 60.3189 87.1913C60.3189 90.5884 58.9619 93.8463 56.5464 96.2484C54.1308 98.6505 50.8546 100 47.4385 100ZM47.4385 74.7351C44.9611 74.7351 42.5393 75.4657 40.4795 76.8344C38.4196 78.2031 36.8141 80.1485 35.866 82.4245C34.918 84.7006 34.6699 87.2051 35.1532 89.6214C35.6365 92.0377 36.8295 94.2572 38.5813 95.9992C40.3331 97.7412 42.565 98.9275 44.9948 99.4082C47.4246 99.8888 49.9432 99.6421 52.232 98.6993C54.5208 97.7566 56.4771 96.16 57.8535 94.1116C59.2299 92.0632 59.9645 89.6549 59.9645 87.1913C59.9645 83.8877 58.6448 80.7195 56.2957 78.3835C53.9467 76.0475 50.7606 74.7351 47.4385 74.7351Z" fill="#3F3D56"/>
<path d="M45.7056 93.7659C45.4862 93.7659 45.2698 93.7151 45.0736 93.6176C44.8774 93.52 44.7068 93.3783 44.5752 93.2038L41.1095 88.6086C40.996 88.4612 40.9129 88.2928 40.8652 88.1132C40.8175 87.9337 40.8061 87.7465 40.8316 87.5625C40.8571 87.3786 40.919 87.2014 41.0137 87.0414C41.1085 86.8814 41.2342 86.7416 41.3836 86.6302C41.533 86.5187 41.7032 86.4379 41.8842 86.3922C42.0652 86.3466 42.2535 86.3371 42.4383 86.3643C42.623 86.3915 42.8005 86.4548 42.9605 86.5506C43.1205 86.6465 43.2598 86.7729 43.3703 86.9225L45.6377 89.9285L51.4611 81.2422C51.5641 81.0887 51.6964 80.9568 51.8506 80.8541C52.0048 80.7514 52.1778 80.6799 52.3597 80.6438C52.5417 80.6076 52.7291 80.6074 52.9111 80.6432C53.0931 80.679 53.2663 80.7501 53.4207 80.8524C53.5751 80.9548 53.7077 81.0864 53.811 81.2397C53.9143 81.393 53.9862 81.5651 54.0226 81.746C54.059 81.927 54.0592 82.1133 54.0231 82.2943C53.9871 82.4753 53.9156 82.6475 53.8127 82.8011L46.8815 93.14C46.7561 93.327 46.5875 93.4813 46.3897 93.5901C46.192 93.6989 45.9708 93.7589 45.7449 93.7652L45.7056 93.7659Z" fill="white"/>
<path d="M16.0496 69.0528C15.5967 68.8683 15.1894 68.5881 14.8561 68.2316C14.5227 67.8751 14.2712 67.4509 14.1189 66.9883C13.9667 66.5256 13.9173 66.0356 13.9742 65.5522C14.0311 65.0687 14.193 64.6032 14.4485 64.1881L4.68311 50.538L7.8158 46.9237L19.2948 63.2206C19.9661 63.7002 20.437 64.4081 20.6184 65.21C20.7998 66.0119 20.6789 66.8521 20.2787 67.5713C19.8786 68.2905 19.227 68.8386 18.4474 69.1118C17.6679 69.3851 16.8146 69.3643 16.0494 69.0535L16.0496 69.0528Z" fill="#ED9DA0"/>
<path d="M16.2743 25.7958C15.7803 25.5067 15.1988 25.4022 14.6343 25.501C14.0698 25.5999 13.5591 25.8955 13.1941 26.335L0 44.6847L12.2274 61.9544L17.012 56.844L9.56927 45.2134L19.4607 35.8481C20.2735 34.0773 20.3977 32.0698 19.8092 30.2133C19.2207 28.3568 17.9612 26.7831 16.2741 25.7959L16.2743 25.7958Z" fill="#03C587"/>
</g>
<defs>
<clipPath id="clip0_475_2">
<rect width="76" height="100" fill="white"/>
</clipPath>
</defs>
</svg>
