<svg width="47" height="47" viewBox="0 0 47 47" fill="none" xmlns="http://www.w3.org/2000/svg">
<circle cx="23.5" cy="23.5" r="23.5" fill="url(#paint0_linear_238_1206)"/>
<path d="M23.0877 30.5088H23.0987M20.0093 33.8071H26.1661C27.3975 33.8071 28.0133 33.8071 28.4836 33.5674C28.8973 33.3566 29.2338 33.0202 29.4445 32.6065C29.6842 32.1362 29.6842 31.5204 29.6842 30.2889V17.5357C29.6842 16.3043 29.6842 15.6885 29.4445 15.2182C29.2338 14.8044 28.8973 14.468 28.4836 14.2572C28.0133 14.0176 27.3975 14.0176 26.1661 14.0176H20.0093C18.7779 14.0176 18.1621 14.0176 17.6918 14.2572C17.2781 14.468 16.9417 14.8044 16.7309 15.2182C16.4912 15.6885 16.4912 16.3042 16.4912 17.5357V30.2889C16.4912 31.5204 16.4912 32.1362 16.7309 32.6065C16.9417 33.0202 17.2781 33.3566 17.6918 33.5674C18.1621 33.8071 18.7779 33.8071 20.0093 33.8071Z" stroke="white" stroke-width="2" stroke-linecap="round" stroke-linejoin="round"/>
<defs>
<linearGradient id="paint0_linear_238_1206" x1="23.5" y1="0" x2="23.5" y2="47" gradientUnits="userSpaceOnUse">
<stop stop-color="#009DB8"/>
<stop offset="1" stop-color="#03C587"/>
</linearGradient>
</defs>
</svg>
