<svg width="31" height="32" viewBox="0 0 31 32" fill="none" xmlns="http://www.w3.org/2000/svg">
<ellipse cx="15.5" cy="16" rx="15.5" ry="16" fill="white"/>
<path d="M19.7857 9H11.2143C9.43908 9 8 10.4391 8 12.2143V20.7857C8 22.5609 9.43908 24 11.2143 24H19.7857C21.5609 24 23 22.5609 23 20.7857V12.2143C23 10.4391 21.5609 9 19.7857 9Z" fill="url(#paint0_radial_3001_3)"/>
<path d="M19.7857 9H11.2143C9.43908 9 8 10.4391 8 12.2143V20.7857C8 22.5609 9.43908 24 11.2143 24H19.7857C21.5609 24 23 22.5609 23 20.7857V12.2143C23 10.4391 21.5609 9 19.7857 9Z" fill="url(#paint1_radial_3001_3)"/>
<path d="M19.7857 9H11.2143C9.43908 9 8 10.4391 8 12.2143V20.7857C8 22.5609 9.43908 24 11.2143 24H19.7857C21.5609 24 23 22.5609 23 20.7857V12.2143C23 10.4391 21.5609 9 19.7857 9Z" fill="url(#paint2_radial_3001_3)"/>
<path d="M19.2502 13.5536C19.2502 13.9974 18.8904 14.3571 18.4466 14.3571C18.0029 14.3571 17.6431 13.9974 17.6431 13.5536C17.6431 13.1098 18.0029 12.75 18.4466 12.75C18.8904 12.75 19.2502 13.1098 19.2502 13.5536Z" fill="white"/>
<path fill-rule="evenodd" clip-rule="evenodd" d="M15.4999 19.1784C16.9792 19.1784 18.1784 17.9792 18.1784 16.4999C18.1784 15.0205 16.9792 13.8213 15.4999 13.8213C14.0205 13.8213 12.8213 15.0205 12.8213 16.4999C12.8213 17.9792 14.0205 19.1784 15.4999 19.1784ZM15.4999 18.107C16.3875 18.107 17.107 17.3875 17.107 16.4999C17.107 15.6122 16.3875 14.8927 15.4999 14.8927C14.6122 14.8927 13.8927 15.6122 13.8927 16.4999C13.8927 17.3875 14.6122 18.107 15.4999 18.107Z" fill="white"/>
<path fill-rule="evenodd" clip-rule="evenodd" d="M10.1431 16.2857C10.1431 14.4855 10.1431 13.5854 10.4934 12.8979C10.8016 12.293 11.2933 11.8013 11.8981 11.4932C12.5857 11.1428 13.4858 11.1428 15.2859 11.1428H15.7145C17.5147 11.1428 18.4148 11.1428 19.1023 11.4932C19.7071 11.8013 20.1989 12.293 20.507 12.8979C20.8574 13.5854 20.8574 14.4855 20.8574 16.2857V16.7143C20.8574 18.5144 20.8574 19.4145 20.507 20.1021C20.1989 20.7069 19.7071 21.1986 19.1023 21.5068C18.4148 21.8571 17.5147 21.8571 15.7145 21.8571H15.2859C13.4858 21.8571 12.5857 21.8571 11.8981 21.5068C11.2933 21.1986 10.8016 20.7069 10.4934 20.1021C10.1431 19.4145 10.1431 18.5144 10.1431 16.7143V16.2857ZM15.2859 12.2143H15.7145C16.6323 12.2143 17.2561 12.2151 17.7384 12.2545C18.2081 12.2929 18.4484 12.3624 18.6159 12.4478C19.0191 12.6533 19.3469 12.9811 19.5524 13.3843C19.6377 13.5518 19.7073 13.792 19.7457 14.2618C19.7851 14.7441 19.7859 15.3679 19.7859 16.2857V16.7143C19.7859 17.632 19.7851 18.2559 19.7457 18.7381C19.7073 19.2079 19.6377 19.4481 19.5524 19.6157C19.3469 20.0189 19.0191 20.3467 18.6159 20.5521C18.4484 20.6375 18.2081 20.7071 17.7384 20.7454C17.2561 20.7848 16.6323 20.7857 15.7145 20.7857H15.2859C14.3681 20.7857 13.7443 20.7848 13.262 20.7454C12.7923 20.7071 12.5521 20.6375 12.3845 20.5521C11.9813 20.3467 11.6535 20.0189 11.4481 19.6157C11.3627 19.4481 11.2931 19.2079 11.2547 18.7381C11.2153 18.2559 11.2145 17.632 11.2145 16.7143V16.2857C11.2145 15.3679 11.2153 14.7441 11.2547 14.2618C11.2931 13.792 11.3627 13.5518 11.4481 13.3843C11.6535 12.9811 11.9813 12.6533 12.3845 12.4478C12.5521 12.3624 12.7923 12.2929 13.262 12.2545C13.7443 12.2151 14.3681 12.2143 15.2859 12.2143Z" fill="white"/>
<defs>
<radialGradient id="paint0_radial_3001_3" cx="0" cy="0" r="1" gradientUnits="userSpaceOnUse" gradientTransform="translate(13.3571 20.25) rotate(-55.3758) scale(13.6712)">
<stop stop-color="#B13589"/>
<stop offset="0.79309" stop-color="#C62F94"/>
<stop offset="1" stop-color="#8A3AC8"/>
</radialGradient>
<radialGradient id="paint1_radial_3001_3" cx="0" cy="0" r="1" gradientUnits="userSpaceOnUse" gradientTransform="translate(12.8214 24.5357) rotate(-65.1363) scale(12.104)">
<stop stop-color="#E0E8B7"/>
<stop offset="0.444662" stop-color="#FB8A2E"/>
<stop offset="0.71474" stop-color="#E2425C"/>
<stop offset="1" stop-color="#E2425C" stop-opacity="0"/>
</radialGradient>
<radialGradient id="paint2_radial_3001_3" cx="0" cy="0" r="1" gradientUnits="userSpaceOnUse" gradientTransform="translate(7.19643 9.53571) rotate(-8.1301) scale(20.8344 4.45626)">
<stop offset="0.156701" stop-color="#406ADC"/>
<stop offset="0.467799" stop-color="#6A45BE"/>
<stop offset="1" stop-color="#6A45BE" stop-opacity="0"/>
</radialGradient>
</defs>
</svg>
