<svg width="42" height="30" viewBox="0 0 42 30" fill="none" xmlns="http://www.w3.org/2000/svg">
<g clip-path="url(#clip0_529_2)">
<path fill-rule="evenodd" clip-rule="evenodd" d="M28.2461 26.5376C28.2461 28.2449 25.604 29.6107 22.3501 29.6107C19.0962 29.6107 16.4541 28.2278 16.4541 26.5376C16.4578 26.2093 16.5511 25.8881 16.7241 25.6089C17.4727 26.8654 19.708 27.7737 22.3501 27.7737C24.0933 27.7737 26.9951 27.2581 27.9761 25.6089C28.148 25.8873 28.2413 26.2071 28.2461 26.5342V26.5376ZM14.4512 26.2167C14.4512 28.3029 11.2144 30 7.22559 30C3.23682 30 0 28.3029 0 26.2167C0.00716923 25.8145 0.125457 25.4222 0.341797 25.083C1.26123 26.6196 3.99902 27.7361 7.23584 27.7361C9.37207 27.7361 12.9268 27.1044 14.1299 25.083C14.3457 25.4224 14.464 25.8146 14.4717 26.2167H14.4512ZM14.4922 22.2763C14.4922 24.3626 11.2554 26.0596 7.2666 26.0596C3.27783 26.0596 0.0410156 24.3626 0.0410156 22.2763C0.049237 21.8743 0.167441 21.4823 0.382813 21.1427C1.30225 22.6792 4.04004 23.7958 7.27686 23.7958C9.41309 23.7958 12.9678 23.1641 14.1709 21.1427C14.3853 21.4827 14.5034 21.8745 14.5127 22.2763H14.4922ZM9.87451 12.4527L9.78906 13.3917L6.24463 13.0844C6.53989 13.4584 6.74776 13.8935 6.85303 14.358L5.99854 14.2829C5.91918 13.9844 5.78974 13.7016 5.61572 13.4463C5.43871 13.1599 5.18223 12.9309 4.87744 12.7873L4.9458 12.0259L9.87451 12.4527ZM7.37598 10.9811C10.6025 10.9811 13.2036 12.0396 13.2036 13.3098C13.2036 14.58 10.5444 15.6351 7.2666 15.6351C3.98877 15.6351 1.32959 14.5902 1.32959 13.3166C1.32959 12.043 3.90332 11.0118 7.10938 10.9879L7.37598 10.9811ZM7.35205 10.2094C11.2998 10.2094 14.4922 11.9166 14.4922 13.9927C14.4922 16.0687 11.2554 17.7794 7.2666 17.7794C3.27783 17.7794 0.0410156 16.0824 0.0410156 13.9995C0.0410156 11.9166 3.2334 10.223 7.17773 10.2094H7.35205ZM14.4922 18.2096C14.4922 20.2959 11.2554 21.9929 7.2666 21.9929C3.27783 21.9929 0.0410156 20.2959 0.0410156 18.2096C0.0422723 17.8273 0.146141 17.4523 0.341797 17.1238C1.23389 18.6808 3.99219 19.8213 7.26318 19.8213C9.40283 19.8213 13.0054 19.1793 14.1812 17.1238C14.3777 17.4523 14.4838 17.8269 14.4888 18.2096H14.4922ZM15.0391 -4.97429e-05C15.3679 -0.0295768 15.6952 0.0705025 15.9511 0.278811C16.207 0.48712 16.3713 0.787144 16.4088 1.1148C16.4462 1.44245 16.354 1.77176 16.1517 2.03238C15.9494 2.29301 15.6532 2.46428 15.3262 2.50962L13.0601 2.77596L21.3521 8.76845L24.8828 5.6066C25.0828 5.42584 25.3357 5.31428 25.6042 5.28844C25.8726 5.26261 26.1422 5.32389 26.3731 5.46319L38.5308 12.8488C38.8163 13.0213 39.0216 13.3001 39.1014 13.6238C39.1812 13.9475 39.129 14.2896 38.9563 14.5748C38.7836 14.8601 38.5046 15.0651 38.1805 15.1449C37.8565 15.2246 37.5141 15.1725 37.2285 15L25.8672 8.10261L22.2749 11.3225C22.0607 11.5131 21.7879 11.6251 21.5015 11.64C21.215 11.6549 20.932 11.5718 20.6992 11.4045L11.3442 4.65395L11.6416 7.17045C11.6797 7.5028 11.584 7.83665 11.3757 8.09855C11.1674 8.36045 10.8634 8.52895 10.5308 8.56699C10.1981 8.60502 9.86389 8.50947 9.60173 8.30136C9.33956 8.09325 9.17089 7.78962 9.13281 7.45727L8.50049 2.10671V2.04184C8.46288 1.71064 8.55781 1.37802 8.7646 1.11644C8.97139 0.854858 9.27328 0.685511 9.60449 0.645295L15.0391 -4.97429e-05ZM38.2368 21.7163L38.1685 22.4812L35.2734 22.2319C35.512 22.5328 35.6812 22.8826 35.769 23.2563L35.0855 23.1948C35.0198 22.9511 34.9135 22.7203 34.771 22.5119C34.6261 22.2792 34.4173 22.0931 34.1694 21.9758L34.2241 21.3544L38.2471 21.6958L38.2368 21.7163ZM36.4287 20.5212C38.9546 20.5861 40.9541 21.409 40.9541 22.4163C40.9541 23.4236 38.7837 24.3148 36.1074 24.3148C33.4312 24.3148 31.2607 23.4611 31.2607 22.4163C31.2607 21.3715 33.3115 20.5656 35.8716 20.5178C36.0596 20.5178 36.2441 20.5178 36.4287 20.5178V20.5212ZM36.4287 19.8895C39.5425 19.9715 42.0205 21.3236 42.0205 22.9626C42.0205 24.6699 39.3784 26.0357 36.1245 26.0357C32.8706 26.0357 30.2285 24.6494 30.2285 22.9626C30.2285 21.2758 32.7236 19.9544 35.8545 19.8895C36.0459 19.8895 36.2339 19.8895 36.4287 19.8895ZM41.771 25.6601C41.9307 25.929 42.0167 26.2352 42.0205 26.5479C42.0205 28.2551 39.3784 29.6209 36.1245 29.6209C32.8706 29.6209 30.2285 28.2551 30.2285 26.5479C30.2302 26.2349 30.3164 25.9282 30.478 25.6601C31.2061 26.9337 33.4551 27.8625 36.1245 27.8625C37.8882 27.8625 40.8174 27.3298 41.771 25.6601ZM24.4795 18.2574L24.4111 19.0223L21.5332 18.7798C21.7646 19.0829 21.9278 19.4323 22.0117 19.8042L21.3281 19.7427C21.2624 19.4991 21.1561 19.2682 21.0137 19.0598C20.8712 18.8256 20.6633 18.6381 20.4155 18.5203L20.4702 17.9023L24.4932 18.2437L24.4795 18.2574ZM22.6646 17.0726C25.1938 17.1374 27.1934 17.9638 27.1934 18.9676C27.1934 19.9715 25.023 20.8661 22.3501 20.8661C19.6772 20.8661 17.5034 20.0125 17.5034 18.9676C17.5034 17.9228 19.5371 17.1238 22.0903 17.0726H22.6646ZM22.6406 16.4443C25.7578 16.5228 28.2461 17.875 28.2461 19.5174C28.2461 21.2246 25.604 22.5904 22.3501 22.5904C19.0962 22.5904 16.4541 21.2246 16.4541 19.5174C16.4541 17.8101 18.9595 16.4989 22.0972 16.4443C22.2783 16.4443 22.439 16.4443 22.6406 16.4443ZM28.2461 23.0992C28.2461 24.8065 25.604 26.1723 22.3501 26.1723C19.0962 26.1723 16.4541 24.786 16.4541 23.0992C16.451 22.7802 16.5375 22.4668 16.7036 22.1943C17.4282 23.4646 19.6807 24.3967 22.3501 24.3967C24.0967 24.3967 27.0396 23.8709 27.9966 22.1943C28.1554 22.4624 28.2414 22.7673 28.2461 23.0787V23.0992Z" fill="#03C587"/>
</g>
<defs>
<clipPath id="clip0_529_2">
<rect width="42" height="30" fill="white"/>
</clipPath>
</defs>
</svg>
