<svg width="40" height="30" viewBox="0 0 40 30" fill="none" xmlns="http://www.w3.org/2000/svg">
<path d="M35.65 0.196651L13.4768 9.06807C13.2773 8.56707 12.7925 8.21134 12.2196 8.21134H5.43093C4.68146 8.21134 4.0732 8.81961 4.0732 9.56907H2.71546C1.21517 9.56907 0 10.7842 0 12.2845V17.7155C0 19.2158 1.21517 20.4309 2.71546 20.4309H4.0732C4.0732 21.1804 4.68146 21.7887 5.43093 21.7887V24.5041C5.43093 26.7539 7.25436 28.5773 9.50412 28.5773H14.9351C17.1848 28.5773 19.0082 26.7539 19.0082 24.5041V23.1464L35.65 29.8034C37.434 30.5162 39.3742 29.2032 39.3742 27.282V2.71796C39.3742 0.796768 37.434 -0.516158 35.65 0.196651ZM4.0732 19.0732H2.71546C1.966 19.0732 1.35773 18.4649 1.35773 17.7155V12.2845C1.35773 11.5351 1.966 10.9268 2.71546 10.9268H4.0732V19.0732ZM13.4755 20.9346L14.9351 21.5171V24.5041H9.50412V21.7887H12.2196C12.7912 21.7887 13.2745 21.4343 13.4755 20.9346ZM5.43093 9.56907H12.2196V20.4309H5.43093V9.56907ZM14.9351 27.2196H9.50412C8.00383 27.2196 6.78866 26.0044 6.78866 24.5041V21.7887H8.14639V24.5041C8.14639 25.2536 8.75465 25.8619 9.50412 25.8619H14.9351C15.6845 25.8619 16.2928 25.2536 16.2928 24.5041V22.0602L17.6505 22.6033V24.5041C17.6505 26.0044 16.434 27.2196 14.9351 27.2196ZM36.155 28.542L13.5773 19.5117V10.4883L36.155 1.45798C37.0457 1.1009 38.0165 1.75804 38.0165 2.71796V27.282C38.0165 28.242 37.0457 28.8991 36.155 28.542Z" fill="#03C587"/>
</svg>
