<svg width="30" height="20" viewBox="0 0 30 20" fill="none" xmlns="http://www.w3.org/2000/svg">
<path d="M28.1826 0H28.1279C27.4482 0 2.85475 0 1.87207 0C0.839824 0 0 0.839824 0 1.87207V17.7398C0 18.772 0.839824 19.6119 1.87207 19.6119C2.879 19.6119 27.4737 19.6119 28.1279 19.6119H28.1826C29.1847 19.6119 30 18.7965 30 17.7945V17.7398V1.87207V1.8174C30 0.815332 29.1847 0 28.1826 0ZM17.8178 5.62811L18.4942 6.30451L17.8178 6.98098C17.2185 7.58027 17.2184 8.55545 17.8178 9.15492L18.4942 9.83133L17.8178 10.5077C17.2185 11.107 17.2184 12.0822 17.8178 12.6817L18.4942 13.3581L17.8178 14.0347C17.2185 14.634 17.2184 15.6091 17.8178 16.2086L18.4942 16.885C17.7534 17.6256 17.7896 17.5863 17.7247 17.6638H1.94807V1.94807H17.6843C17.7698 2.05986 17.7555 2.039 18.4942 2.77775L17.8178 3.45422C17.2184 4.05357 17.2184 5.02887 17.8178 5.62811ZM28.0519 17.6639H20.4007C20.7466 17.0749 20.6671 16.3031 20.1622 15.798L19.4858 15.1216L20.1622 14.4452C20.7615 13.8459 20.7616 12.8707 20.1622 12.2713L19.4858 11.5949L20.1622 10.9185C20.7615 10.3192 20.7616 9.34394 20.1622 8.74453L19.4858 8.06813L20.1622 7.39172C20.4526 7.10139 20.6125 6.71537 20.6125 6.30469C20.6125 5.89412 20.4526 5.50805 20.1622 5.21772L19.4858 4.54131L20.1623 3.86484C20.6818 3.34518 20.7509 2.54303 20.3695 1.94824H28.0519V17.6639Z" fill="#03C587"/>
<path d="M12.0142 9.10559C10.9049 9.10559 10.0566 9.57539 10.0566 10.8673V12.7205C10.0566 14.0125 10.9049 14.4823 12.0142 14.4823C13.1104 14.4823 13.9718 14.0125 13.9718 12.7205V10.8673C13.9717 9.57539 13.1104 9.10559 12.0142 9.10559ZM12.0142 13.3469C11.6097 13.3469 11.3747 13.1511 11.3747 12.7205V10.8673C11.3747 10.4367 11.6096 10.241 12.0142 10.241C12.4187 10.241 12.6668 10.4367 12.6668 10.8673V12.7205C12.6667 13.1512 12.4187 13.3469 12.0142 13.3469Z" fill="#03C587"/>
<path d="M11.2564 4.36841C11.0216 4.36841 10.8127 4.47276 10.7083 4.69466L6.12777 14.1039C6.08863 14.1822 6.0625 14.2735 6.0625 14.3518C6.0625 14.678 6.34955 15.0434 6.79328 15.0434C7.04125 15.0434 7.28922 14.9129 7.38057 14.7172L11.9743 5.30796C12.0134 5.22974 12.0264 5.13833 12.0264 5.06005C12.0263 4.64245 11.6218 4.36841 11.2564 4.36841Z" fill="#03C587"/>
<path d="M6.02397 4.90344C4.91467 4.90344 4.06641 5.37325 4.06641 6.66518V8.51833C4.06641 9.81026 4.91467 10.2801 6.02397 10.2801C7.1202 10.2801 7.98152 9.81026 7.98152 8.51833V6.66518C7.98152 5.37325 7.1202 4.90344 6.02397 4.90344ZM6.67652 8.51833C6.67652 8.94899 6.42861 9.14475 6.02397 9.14475C5.61943 9.14475 5.38447 8.94899 5.38447 8.51833V6.66518C5.38447 6.23452 5.61943 6.03881 6.02397 6.03881C6.4285 6.03881 6.67652 6.23458 6.67652 6.66518V8.51833Z" fill="#03C587"/>
</svg>
