<svg width="98" height="29" viewBox="0 0 98 29" fill="none" xmlns="http://www.w3.org/2000/svg">
<g clip-path="url(#clip0_339_408)">
<path fill-rule="evenodd" clip-rule="evenodd" d="M0 18.9926C0.229781 17.7011 0.879508 16.9087 2.15519 16.8612C2.04426 15.5142 2.29781 14.3811 2.88415 13.4462C3.16148 13.0104 3.51011 12.6221 3.93798 12.2814C5.41967 11.077 7.09945 10.9503 8.92978 10.6175C10.7046 10.2926 12.4795 10.0232 14.2464 9.81721C16.3858 9.56366 18.5331 9.39727 20.6803 9.33388C21.6708 9.30219 21.4331 9.35765 22.2254 8.75546C26.0842 5.77623 30.2836 3.32787 34.6811 1.2123C36.2104 0.435792 38.1754 0.063388 40.4811 0C45.0926 0 63.388 0 67.9995 0C71.05 0.015847 73.6489 0.713115 75.8279 2.02842L84.2109 8.47814C87.0079 8.66038 89.797 8.84262 92.594 9.03279C94.3055 8.98525 95.6128 9.57158 96.112 11.4257V17.091C98.4812 17.7011 96.9361 23.1604 95.8743 24.3568C94.9393 25.4107 94.0836 25.2918 92.8317 25.2918H85.3598C86.794 14.4921 75.7883 12.1863 71.256 18.0656C69.7585 20.0068 69.5287 22.6533 70.1546 25.7672H22.5424C24.2776 17.7645 19.1115 14.5079 14.3574 14.9754C8.24044 15.5776 6.63197 20.4822 7.68579 25.8623H2.38497C0.879508 25.9257 0.174317 24.7213 0 22.685V18.9926ZM15.8787 20.0227V22.2096H18.0656C17.8041 21.1399 16.9563 20.2921 15.8787 20.0227ZM18.0656 23.6358H15.8787V25.8227C16.9563 25.5612 17.8041 24.7134 18.0656 23.6358ZM15.1735 25.9098H15.1576H15.1656H15.1735ZM14.4525 25.8227V23.6358H12.2656C12.527 24.7134 13.3749 25.5612 14.4525 25.8227ZM12.2656 22.2096H14.4525V20.0227C13.3749 20.2921 12.527 21.132 12.2656 22.2096ZM78.2842 20.0227V22.2096H80.471C80.2096 21.1399 79.3618 20.2921 78.2842 20.0227ZM80.5582 22.9148V22.9306V22.9227V22.9148ZM80.479 23.6358H78.2842V25.8227C79.3618 25.5612 80.2096 24.7134 80.479 23.6358ZM77.5869 25.9098H77.571H77.579H77.5869ZM76.8659 25.8227V23.6358H74.679C74.9404 24.7134 75.7883 25.5612 76.8659 25.8227ZM74.671 22.2096H76.8579V20.0227C75.7883 20.2921 74.9404 21.132 74.671 22.2096ZM26.203 8.47814V11.0929H42.1213L43.3574 1.99672H39.7284C36.8363 2.33743 36.3689 2.43251 33.7462 3.82705C31.5831 4.97596 29.6101 6.23579 27.5104 7.60656C27.0746 7.8918 26.6309 8.18497 26.203 8.47814ZM61.4388 1.89372L60.068 11.1008H69.2038L71.0817 9.06448L72.1038 7.95519C72.0087 2.57514 71.3669 1.97295 66.597 1.94918L61.4388 1.89372ZM46.0197 1.89372L44.6489 11.1008H56.8273L58.0317 1.96503L46.0197 1.89372ZM15.1656 16.8533C18.5172 16.8533 21.2429 19.571 21.2429 22.9306C21.2429 26.2822 18.5251 29.0079 15.1656 29.0079C11.8139 29.0079 9.08825 26.2902 9.08825 22.9306C9.08825 19.571 11.806 16.8533 15.1656 16.8533ZM77.571 16.8533C80.9227 16.8533 83.6484 19.571 83.6484 22.9306C83.6484 26.2822 80.9306 29.0079 77.571 29.0079C74.2194 29.0079 71.4937 26.2902 71.4937 22.9306C71.5016 19.571 74.2194 16.8533 77.571 16.8533Z" fill="white"/>
</g>
<defs>
<clipPath id="clip0_339_408">
<rect width="97.3639" height="29" fill="white"/>
</clipPath>
</defs>
</svg>
