<svg width="34" height="30" viewBox="0 0 34 30" fill="none" xmlns="http://www.w3.org/2000/svg">
<path d="M22.8547 29.9999C21.9518 29.9966 21.0735 29.7059 20.3469 29.17L17.7675 27.2832C17.4475 27.0475 17.0604 26.9204 16.6629 26.9204C16.2654 26.9204 15.8784 27.0475 15.5583 27.2832L12.9789 29.17C12.3119 29.6571 11.5177 29.94 10.6929 29.9842C9.86814 30.0284 9.04827 29.8321 8.33296 29.4191C7.61765 29.0062 7.03772 28.3943 6.66366 27.6579C6.28959 26.9214 6.13751 26.0922 6.22588 25.271L6.57219 22.0945C6.61665 21.6998 6.53336 21.3012 6.33454 20.9573C6.13572 20.6134 5.83186 20.3423 5.46758 20.1838L2.54784 18.8941C1.7903 18.562 1.14591 18.0164 0.693435 17.324C0.240961 16.6316 0 15.8223 0 14.9952C0 14.168 0.240961 13.3588 0.693435 12.6664C1.14591 11.9739 1.7903 11.4283 2.54784 11.0962L5.46758 9.8065C5.83186 9.64806 6.13572 9.37697 6.33454 9.03307C6.53336 8.68917 6.61665 8.29057 6.57219 7.89583L6.22588 4.71934C6.13751 3.89811 6.28959 3.06889 6.66366 2.33248C7.03772 1.59607 7.61765 0.984177 8.33296 0.571184C9.04827 0.158191 9.86814 -0.0381177 10.6929 0.00612046C11.5177 0.0503587 12.3119 0.333239 12.9789 0.820374L15.5583 2.70716C15.8784 2.94285 16.2654 3.06998 16.6629 3.06998C17.0604 3.06998 17.4475 2.94285 17.7675 2.70716L20.3469 0.820374C20.8063 0.480396 21.3304 0.238225 21.8871 0.108826C22.4437 -0.0205736 23.0209 -0.0344522 23.5831 0.0680476C24.1575 0.172257 24.7048 0.391538 25.1922 0.712705C25.6796 1.03387 26.097 1.45029 26.4193 1.93692C26.5086 2.06781 26.5711 2.21518 26.6029 2.37044C26.6347 2.5257 26.6353 2.68574 26.6047 2.84124C26.574 2.99673 26.5127 3.14457 26.4243 3.27613C26.336 3.40769 26.2223 3.52034 26.0899 3.60752C25.9576 3.6947 25.8092 3.75466 25.6534 3.78391C25.4977 3.81316 25.3376 3.81111 25.1827 3.77788C25.0277 3.74465 24.8809 3.68091 24.7508 3.59036C24.6207 3.49982 24.51 3.38429 24.425 3.25051C24.2809 3.03395 24.0945 2.84879 23.8769 2.70616C23.6594 2.56353 23.4153 2.46638 23.1592 2.42056C22.9126 2.3751 22.6593 2.3819 22.4155 2.44053C22.1718 2.49915 21.943 2.6083 21.7441 2.7609L19.1647 4.64769C18.4347 5.18276 17.5531 5.47124 16.648 5.47124C15.7429 5.47124 14.8613 5.18276 14.1313 4.64769L11.5578 2.7609C11.2654 2.53883 10.914 2.40785 10.5475 2.3843C10.1811 2.36075 9.8158 2.44568 9.49732 2.62849C9.17884 2.81129 8.92128 3.08387 8.75679 3.41219C8.5923 3.7405 8.52817 4.10999 8.57242 4.47453L8.91873 7.64505C9.02283 8.54218 8.8381 9.44913 8.3914 10.2341C7.94471 11.019 7.25932 11.641 6.43486 12.0097L3.50915 13.2994C3.17752 13.4466 2.89573 13.6869 2.69795 13.9911C2.50017 14.2952 2.3949 14.6503 2.3949 15.0131C2.3949 15.3759 2.50017 15.7309 2.69795 16.0351C2.89573 16.3393 3.17752 16.5795 3.50915 16.7267L6.43486 17.9806C7.26381 18.3442 7.95483 18.9633 8.40706 19.7474C8.85928 20.5315 9.04902 21.4397 8.94859 22.3393L8.60228 25.5098C8.55803 25.8744 8.62215 26.2439 8.78664 26.5722C8.95113 26.9005 9.2087 27.1731 9.52717 27.3559C9.84565 27.5387 10.2109 27.6236 10.5774 27.6001C10.9438 27.5765 11.2952 27.4455 11.5877 27.2235L14.1611 25.3367C14.8912 24.8016 15.7727 24.5131 16.6778 24.5131C17.583 24.5131 18.4645 24.8016 19.1946 25.3367L21.774 27.2235C22.0664 27.4455 22.4178 27.5765 22.7843 27.6001C23.1507 27.6236 23.516 27.5387 23.8345 27.3559C24.153 27.1731 24.4105 26.9005 24.575 26.5722C24.7395 26.2439 24.8036 25.8744 24.7594 25.5098L24.4131 22.3393C24.3089 21.4437 24.493 20.5382 24.9386 19.7544C25.3842 18.9705 26.0681 18.3492 26.891 17.9806L29.8167 16.6909C30.1483 16.5437 30.4301 16.3034 30.6279 15.9993C30.8257 15.6951 30.9309 15.3401 30.9309 14.9773C30.9309 14.6144 30.8257 14.2594 30.6279 13.9552C30.4301 13.6511 30.1483 13.4108 29.8167 13.2636L28.2285 12.6068C28.0806 12.5466 27.9464 12.4574 27.8336 12.3445C27.7209 12.2315 27.6319 12.0971 27.572 11.9491C27.5121 11.8012 27.4824 11.6428 27.4848 11.4832C27.4871 11.3236 27.5214 11.1661 27.5857 11.02C27.65 10.8739 27.7429 10.7422 27.8589 10.6326C27.975 10.523 28.1118 10.4378 28.2613 10.382C28.4109 10.3262 28.5701 10.301 28.7296 10.3077C28.889 10.3145 29.0455 10.3532 29.1898 10.4215L30.778 11.1201C31.5355 11.4522 32.1799 11.9978 32.6324 12.6902C33.0849 13.3827 33.3258 14.1919 33.3258 15.019C33.3258 15.8462 33.0849 16.6554 32.6324 17.3479C32.1799 18.0403 31.5355 18.5859 30.778 18.918L27.8583 20.2077C27.494 20.3667 27.19 20.6377 26.9903 20.9813C26.7906 21.3249 26.7056 21.7232 26.7477 22.1184L27.094 25.2949C27.1942 26.117 27.0479 26.9503 26.6738 27.6891C26.2996 28.428 25.7143 29.039 24.9923 29.4446C24.3406 29.8135 23.6035 30.0049 22.8547 29.9999Z" fill="#03C587"/>
<path d="M16.7996 19.1748C16.642 19.1749 16.4859 19.1439 16.3404 19.0834C16.1949 19.0229 16.0628 18.9343 15.9517 18.8225L10.8108 13.6816C10.6827 13.5751 10.5782 13.443 10.5042 13.2937C10.4302 13.1445 10.3882 12.9814 10.381 12.8149C10.3738 12.6485 10.4015 12.4824 10.4623 12.3273C10.5231 12.1722 10.6157 12.0315 10.7342 11.9143C10.8526 11.7971 10.9942 11.706 11.15 11.6469C11.3057 11.5877 11.4721 11.5618 11.6385 11.5708C11.8049 11.5798 11.9675 11.6235 12.116 11.6991C12.2644 11.7747 12.3954 11.8805 12.5005 12.0098L16.7996 16.3088L31.9894 1.09507C32.2169 0.889636 32.5147 0.779564 32.8212 0.787647C33.1276 0.79573 33.4192 0.921348 33.6356 1.13849C33.852 1.35564 33.9765 1.64767 33.9835 1.95414C33.9905 2.26061 33.8794 2.55803 33.6732 2.78482L17.6414 18.8165C17.5316 18.9287 17.4006 19.018 17.2562 19.0795C17.1117 19.141 16.9565 19.1734 16.7996 19.1748Z" fill="#03C587"/>
</svg>
