<svg width="84" height="70" viewBox="0 0 84 70" fill="none" xmlns="http://www.w3.org/2000/svg">
<g clip-path="url(#clip0_329_244)">
<path d="M14.7691 59.2974C15.4281 60.0697 15.3378 61.2319 14.5674 61.8925C13.797 62.5537 12.6376 62.4633 11.9786 61.691C4.00376 52.3612 -0.0910041 41.8068 0.00128181 31.1161C0.0908333 20.6905 4.16098 10.1889 12.4961 0.627477C13.164 -0.136588 14.3227 -0.214708 15.0856 0.454106C15.8478 1.1236 15.9257 2.28512 15.2579 3.04987C7.52634 11.9199 3.75082 21.5937 3.66879 31.1448C3.58471 40.9345 7.37937 50.6528 14.7691 59.2974ZM24.3894 50.3232C25.0607 51.0832 24.9903 52.2461 24.2315 52.9183C23.4733 53.5912 22.314 53.5206 21.6427 52.7607C15.5115 45.8142 12.3778 38.4545 12.5029 30.9989C12.6253 23.7372 15.8307 16.481 22.3625 9.53106C23.0577 8.79029 24.2198 8.75466 24.9588 9.45157C25.6978 10.1485 25.7333 11.3134 25.0381 12.0542C19.1605 18.3086 16.2771 24.7274 16.1705 31.0564C16.0611 37.563 18.8789 44.0798 24.3894 50.3232ZM32.9125 41.7801C33.5517 42.5681 33.4327 43.7276 32.6459 44.3683C31.8591 45.009 30.7031 44.8898 30.0639 44.1011C26.7608 40.0238 25.0415 35.6066 25.0285 31.1215C25.0149 26.74 26.6329 22.3584 29.9949 18.2311C30.6347 17.4431 31.79 17.3232 32.5762 17.9639C33.3623 18.6046 33.4819 19.764 32.8428 20.5514C30.0366 23.9969 28.6858 27.5877 28.6967 31.1209C28.7063 34.7384 30.146 38.3654 32.9125 41.7801ZM72.0205 61.691C71.3615 62.4633 70.2021 62.5537 69.4317 61.8925C68.6613 61.2319 68.5711 60.0697 69.2301 59.2974C76.6205 50.6528 80.4144 40.9345 80.3304 31.1448C80.2483 21.5937 76.4728 11.9192 68.7413 3.04987C68.0734 2.28512 68.1513 1.12292 68.9136 0.454106C69.6758 -0.214708 70.8358 -0.136588 71.503 0.627477C79.8375 10.1889 83.9083 20.6905 83.9979 31.1161C84.0908 41.8068 79.9954 52.3612 72.0205 61.691ZM62.3578 52.76C61.6865 53.52 60.5272 53.5912 59.769 52.9176C59.0103 52.2454 58.9392 51.0825 59.6111 50.3225C65.1216 44.0798 67.9394 37.563 67.83 31.0558C67.7241 24.7267 64.8407 18.3072 58.9624 12.0535C58.2672 11.3127 58.3027 10.1478 59.0417 9.45088C59.78 8.75397 60.9428 8.78961 61.638 9.53038C68.1691 16.481 71.3752 23.7365 71.4976 30.9982C71.622 38.4538 68.4884 45.8135 62.3578 52.76ZM53.9359 44.1011C53.296 44.8891 52.1401 45.009 51.3539 44.3683C50.5678 43.7276 50.4489 42.5681 51.088 41.7801C53.8539 38.3661 55.2928 34.739 55.3038 31.1215C55.3147 27.5883 53.9639 23.9976 51.1577 20.5521C50.5179 19.7647 50.6375 18.6053 51.4244 17.9646C52.2112 17.3238 53.3665 17.4431 54.0056 18.2318C57.3676 22.3584 58.985 26.7407 58.972 31.1222C58.9583 35.6073 57.239 40.0238 53.9359 44.1011ZM43.8412 37.846V68.1544C43.8412 69.1734 43.0168 69.9998 42.0003 69.9998C40.9837 69.9998 40.16 69.1734 40.16 68.1544V37.8446C38.9924 37.5212 37.9492 36.899 37.1166 36.065C35.8663 34.811 35.0925 33.0793 35.0925 31.1668C35.0925 29.2542 35.8663 27.5226 37.1166 26.2692C38.3676 25.0159 40.0951 24.2402 42.0023 24.2402C43.9109 24.2402 45.6377 25.0159 46.8887 26.2692C48.139 27.5226 48.9128 29.2542 48.9128 31.1668C48.9128 33.0793 48.139 34.811 46.8887 36.065C46.0547 36.9003 45.0101 37.5232 43.8412 37.846Z" fill="white"/>
</g>
<defs>
<clipPath id="clip0_329_244">
<rect width="84" height="70" fill="white"/>
</clipPath>
</defs>
</svg>
