<svg width="53" height="80" viewBox="0 0 53 80" fill="none" xmlns="http://www.w3.org/2000/svg">
<g clip-path="url(#clip0_317_323)">
<path fill-rule="evenodd" clip-rule="evenodd" d="M19.5865 2.17449C24.564 -1.20441 30.1749 -0.455715 34.8291 3.1185C36.0725 4.07768 37.1233 5.26635 37.9255 6.62111C38.6301 7.81902 39.8647 10.2604 37.557 10.638C36.6456 10.7813 35.0554 9.53778 33.8272 9.13413C32.2639 8.63496 30.6549 8.29472 29.0243 8.1185C26.1793 7.81374 23.3031 8.03437 20.5368 8.76955C19.1692 9.14379 17.8333 9.62709 16.5419 10.2149C15.9472 10.4948 14.719 11.3086 14.3893 10.2604C13.6136 7.81251 17.8089 3.38543 19.5865 2.17449ZM43.6463 64.2448L43.5881 64.362C44.5228 64.8646 45.2291 65.7108 45.5602 66.7245C45.8913 67.7382 45.8217 68.8414 45.3658 69.8047L45.4886 69.8633C45.9876 68.9219 46.8278 68.2105 47.8343 67.8771C48.8408 67.5436 49.9362 67.6138 50.8927 68.0729L50.9508 67.9557C50.0153 67.4506 49.3083 66.6025 48.9762 65.587C48.6441 64.5715 48.7123 63.4663 49.1667 62.5L49.0504 62.4414C48.5536 63.3851 47.714 64.0989 46.7069 64.4338C45.6999 64.7686 44.6033 64.6986 43.6463 64.2383V64.2448ZM32.9286 75.0065V75.0716C33.4406 75.3454 33.8279 75.8076 34.0097 76.3619C34.1916 76.9162 34.154 77.5198 33.9047 78.0469L33.9694 78.0794C34.2412 77.5638 34.7001 77.1738 35.2505 76.9906C35.8009 76.8075 36.4002 76.8454 36.9235 77.0964V77.0313C36.4116 76.7575 36.0243 76.2953 35.8424 75.741C35.6606 75.1867 35.6982 74.5831 35.9474 74.056H35.8828C35.611 74.5716 35.152 74.9617 34.6017 75.1448C34.0513 75.328 33.452 75.2901 32.9286 75.0391V75.0065ZM12.2044 73.3594L12.2755 73.5026C11.1461 74.0728 10.2781 75.0592 9.85196 76.2571C9.42582 77.4549 9.47425 78.7721 9.98719 79.9349L9.84498 80C9.5795 79.4262 9.19981 78.9134 8.72945 78.4934C8.25909 78.0735 7.7081 77.7553 7.11062 77.5586C6.5254 77.3306 5.90002 77.2256 5.273 77.2503C4.64598 77.2749 4.03061 77.4286 3.46481 77.7018L3.3937 77.5586C3.96303 77.2906 4.47183 76.908 4.88874 76.4343C5.30564 75.9607 5.62182 75.4061 5.81778 74.8047C6.045 74.2146 6.15016 73.5839 6.12682 72.9514C6.10348 72.3189 5.95212 71.6978 5.68203 71.1263L5.82424 71.0612C6.08881 71.6349 6.46828 72.1474 6.93882 72.5664C7.40937 72.9854 7.96083 73.3019 8.5586 73.4961C9.14304 73.7267 9.76838 73.8336 10.3956 73.81C11.0229 73.7865 11.6386 73.6331 12.2044 73.3594ZM8.2871 62.3958L8.33882 62.513C7.38693 62.9872 6.65374 63.8134 6.29237 64.8191C5.93101 65.8249 5.96941 66.9323 6.39956 67.9102L6.2832 67.9688C6.05855 67.4871 5.73855 67.0567 5.34282 66.7041C4.9471 66.3514 4.484 66.0839 3.98195 65.918C3.49104 65.7277 2.96683 65.6399 2.4412 65.6601C1.91557 65.6802 1.3995 65.8078 0.924377 66.0352L0.8662 65.918C1.34742 65.6946 1.77809 65.3743 2.13164 64.9768C2.48518 64.5793 2.75411 64.113 2.92182 63.6068C3.11141 63.1159 3.19891 62.591 3.1789 62.0647C3.15888 61.5383 3.03178 61.0217 2.80546 60.5469L2.92828 60.4883C3.15641 60.9621 3.4773 61.3845 3.87165 61.7302C4.26601 62.0759 4.72569 62.3378 5.22307 62.5C5.71489 62.6912 6.24026 62.7795 6.76708 62.7593C7.29389 62.7392 7.8111 62.6111 8.2871 62.3828V62.3958ZM18.7462 73.4245L18.7785 73.4896C18.5183 73.6139 18.2857 73.7899 18.0947 74.0069C17.9036 74.2239 17.7581 74.4776 17.6667 74.7526C17.5628 75.0233 17.5149 75.3125 17.526 75.6024C17.5371 75.8924 17.607 76.177 17.7313 76.4388H17.6667C17.5432 76.1768 17.3685 75.9425 17.153 75.7501C16.9375 75.5577 16.6857 75.4111 16.4126 75.319C16.1439 75.2144 15.8567 75.1662 15.5688 75.1774C15.2809 75.1886 14.9983 75.2589 14.7384 75.3841L14.7061 75.319C15.2241 75.0578 15.6221 74.6054 15.8172 74.056C16.0122 73.5066 15.9893 72.9026 15.7533 72.3698H15.8179C16.0772 72.8915 16.5265 73.2924 17.0719 73.4889C17.6174 73.6853 18.2172 73.6623 18.7462 73.4245ZM23.3358 59.9609C23.4828 59.9127 23.6412 59.9127 23.7883 59.9609C23.9066 59.9935 24.0153 60.0542 24.1054 60.1381C24.1954 60.222 24.264 60.3265 24.3054 60.4427C24.7256 61.2695 27.9771 61.3346 28.5847 60.4037C28.6712 60.2313 28.8195 60.0985 28.9995 60.0321C29.1795 59.9656 29.3779 59.9705 29.5545 60.0458C29.7311 60.1211 29.8727 60.2611 29.9506 60.4375C30.0286 60.6139 30.0371 60.8136 29.9745 60.9961C28.8821 63.1576 23.7818 63.1055 22.8639 60.9505C22.7975 60.7606 22.8086 60.5519 22.8946 60.3701C22.9806 60.1883 23.1346 60.0482 23.3228 59.9805L23.3358 59.9609ZM34.3443 47.5261L33.4716 48.6133C33.4105 48.6921 33.3344 48.7578 33.2478 48.8067C33.1612 48.8557 33.0659 48.8868 32.9672 48.8983C32.8686 48.9098 32.7687 48.9015 32.6733 48.8738C32.5779 48.8461 32.4889 48.7996 32.4115 48.737C32.3343 48.6718 32.2707 48.5919 32.2243 48.5019C32.178 48.4118 32.1498 48.3134 32.1413 48.2124C32.1329 48.1113 32.1445 48.0095 32.1753 47.913C32.2061 47.8164 32.2557 47.7269 32.321 47.6498L32.9028 46.875C32.7436 46.7597 32.635 46.5867 32.6 46.3923C32.565 46.198 32.6064 45.9976 32.7153 45.8333C32.77 45.7497 32.8407 45.678 32.9234 45.6224C33.0061 45.5667 33.0989 45.5284 33.1966 45.5096C33.2942 45.4908 33.3946 45.4919 33.4918 45.5128C33.589 45.5337 33.6811 45.5741 33.7625 45.6315C34.5554 46.0591 35.4503 46.2574 36.3482 46.2044C37.281 46.2166 38.2003 45.9784 39.0115 45.5143C39.0945 45.46 39.1874 45.4229 39.2848 45.4049C39.3822 45.387 39.4822 45.3887 39.579 45.4098C39.6757 45.431 39.7674 45.4713 39.8486 45.5284C39.9298 45.5854 39.999 45.6581 40.0522 45.7422C40.106 45.8268 40.1426 45.9212 40.16 46.02C40.1774 46.1189 40.1753 46.2203 40.1536 46.3183C40.132 46.4163 40.0914 46.509 40.034 46.5912C39.9767 46.6733 39.9038 46.7432 39.8195 46.7969L39.7484 46.8425L40.4271 47.5977C40.5617 47.7479 40.6315 47.9458 40.6212 48.1479C40.6109 48.3499 40.5213 48.5396 40.3722 48.6751C40.223 48.8107 40.0265 48.881 39.8259 48.8706C39.6253 48.8602 39.4369 48.77 39.3023 48.6198L38.2616 47.461C37.9048 47.5554 37.5419 47.6251 37.1756 47.6693V48.737C37.1854 48.8434 37.173 48.9506 37.1393 49.0519C37.1055 49.1532 37.0512 49.2463 36.9797 49.3253C36.9082 49.4042 36.8212 49.4673 36.7241 49.5104C36.6271 49.5536 36.5222 49.5759 36.4161 49.5759C36.31 49.5759 36.2051 49.5536 36.108 49.5104C36.011 49.4673 35.9239 49.4042 35.8525 49.3253C35.781 49.2463 35.7266 49.1532 35.6929 49.0519C35.6592 48.9506 35.6468 48.8434 35.6565 48.737V47.6953C35.2204 47.668 34.7876 47.6005 34.3637 47.4935L34.3443 47.5261ZM14.454 47.5261L13.5748 48.5938C13.5126 48.6723 13.4356 48.7376 13.3482 48.786C13.2609 48.8344 13.1649 48.8649 13.0657 48.8758C12.9666 48.8867 12.8663 48.8778 12.7706 48.8495C12.675 48.8212 12.5858 48.7741 12.5082 48.711C12.4305 48.6489 12.3658 48.5719 12.3178 48.4845C12.2698 48.397 12.2395 48.3009 12.2287 48.2016C12.2179 48.1023 12.2267 48.0018 12.2547 47.9059C12.2828 47.8101 12.3294 47.7208 12.3919 47.6432L12.9737 46.9141C12.8022 46.8018 12.6821 46.6256 12.6396 46.4242C12.5972 46.2227 12.636 46.0125 12.7474 45.8399C12.8588 45.6672 13.0338 45.5462 13.2338 45.5034C13.4339 45.4607 13.6426 45.4998 13.814 45.612C14.5884 46.0484 15.4677 46.2603 16.3544 46.224C16.421 46.2169 16.4882 46.2169 16.5548 46.224H16.7164C17.5969 46.217 18.4623 45.9935 19.2375 45.5729C19.4046 45.5137 19.587 45.5149 19.7533 45.5764C19.9197 45.6378 20.0596 45.7557 20.149 45.9097C20.2385 46.0637 20.2719 46.2443 20.2436 46.4204C20.2153 46.5966 20.1269 46.7573 19.9938 46.875H19.9485L20.5626 47.5261C20.6773 47.6791 20.7311 47.8697 20.7133 48.0606C20.6955 48.2515 20.6075 48.4288 20.4666 48.5577C20.3257 48.6865 20.142 48.7577 19.9517 48.7571C19.7613 48.7566 19.578 48.6844 19.4379 48.5547L18.4359 47.5261C18.0613 47.6192 17.6814 47.6888 17.2982 47.7344V48.763C17.2807 48.9537 17.1931 49.131 17.0526 49.26C16.9121 49.3891 16.7288 49.4606 16.5387 49.4606C16.3485 49.4606 16.1652 49.3891 16.0247 49.26C15.8842 49.131 15.7966 48.9537 15.7791 48.763V47.7279C15.3311 47.7182 14.886 47.6526 14.454 47.5326V47.5261ZM33.6139 42.487C33.4506 42.6051 33.2477 42.6536 33.0492 42.6219C32.8507 42.5902 32.6726 42.4809 32.5537 42.3177C32.4966 42.2366 32.456 42.1449 32.4342 42.0479C32.4124 41.9509 32.4099 41.8505 32.4267 41.7525C32.4435 41.6545 32.4794 41.5608 32.5322 41.4768C32.5851 41.3928 32.6539 41.3202 32.7347 41.263C33.9947 40.2993 35.5229 39.7574 37.1045 39.7136C38.7158 39.746 40.277 40.283 41.5713 41.25C41.7051 41.3741 41.79 41.5426 41.8104 41.7247C41.8309 41.9067 41.7855 42.0901 41.6826 42.2411C41.5797 42.3922 41.4262 42.5009 41.2503 42.5472C41.0743 42.5936 40.8876 42.5745 40.7245 42.4935C39.6846 41.7044 38.4256 41.2627 37.1239 41.2305C35.85 41.2572 34.6187 41.6979 33.6139 42.487ZM12.3272 42.487C12.164 42.6051 11.9611 42.6536 11.7626 42.6219C11.5641 42.5902 11.386 42.4809 11.2671 42.3177C11.21 42.2366 11.1694 42.1449 11.1476 42.0479C11.1258 41.9509 11.1232 41.8505 11.1401 41.7525C11.1569 41.6545 11.1927 41.5608 11.2456 41.4768C11.2985 41.3928 11.3673 41.3202 11.4481 41.263C12.7085 40.3001 14.2365 39.7583 15.8179 39.7136C17.4291 39.746 18.9904 40.283 20.2847 41.25C20.3709 41.3046 20.4452 41.3761 20.5033 41.4603C20.5615 41.5444 20.6021 41.6396 20.6228 41.7399C20.6435 41.8403 20.6439 41.9439 20.624 42.0444C20.604 42.145 20.5641 42.2404 20.5066 42.325C20.4491 42.4096 20.3753 42.4817 20.2895 42.5369C20.2037 42.5921 20.1077 42.6293 20.0074 42.6463C19.907 42.6632 19.8042 42.6596 19.7052 42.6355C19.6063 42.6115 19.5131 42.5677 19.4314 42.5065C18.3907 41.7189 17.1322 41.2775 15.8308 41.2435C14.5577 41.2748 13.3279 41.715 12.3208 42.5L12.3272 42.487ZM2.76021 38.711C2.96591 38.5788 3.20853 38.5171 3.45188 38.5352C3.10976 36.3174 3.02083 34.0675 3.18685 31.8294C3.41956 25.4427 5.02268 20.3386 10.026 15.9115C17.5568 9.23178 32.4891 8.64585 40.7956 14.4011C42.0515 15.2738 43.1957 16.2994 44.2022 17.4544C47.5701 21.3607 50.5759 29.8958 50.5113 35.1693C50.4865 36.4366 50.2685 37.6926 49.8649 38.8932C49.8649 39.0169 49.8196 39.1537 49.7808 39.3034C50.6385 39.8369 51.3726 40.5496 51.9334 41.3932C52.719 42.5798 53.096 43.9934 53.0065 45.4167C52.8905 46.938 52.4091 48.4082 51.6037 49.7005C50.4301 51.5681 48.8742 53.1617 47.04 54.375C45.2643 58.6504 42.8128 62.6079 39.7807 66.0938C37.4539 68.8336 34.5076 70.9704 31.1898 72.3242C27.8443 73.6107 24.1317 73.5266 20.8471 72.0899C18.7539 71.173 16.8304 69.905 15.1586 68.3399C13.298 66.6219 11.6779 64.6573 10.3427 62.5C8.93756 60.2211 7.72865 57.8252 6.72923 55.3386C6.26179 55.1984 5.80578 55.0221 5.36528 54.8112C4.76589 54.5367 4.19979 54.1937 3.67813 53.7891C2.24101 52.6283 1.18452 51.0583 0.646417 49.2839C0.0281378 47.3364 -0.148578 45.2741 0.12928 43.2487C0.237998 42.3202 0.520983 41.421 0.963163 40.599C1.40174 39.8325 2.01839 39.1846 2.76021 38.711ZM4.0078 40.6641C3.58366 40.9342 3.23448 41.3083 2.99292 41.7513C2.69016 42.3096 2.49909 42.9223 2.43054 43.5547C2.18735 45.2326 2.32437 46.9442 2.83132 48.5612C3.23709 49.8877 4.03272 51.059 5.11318 51.9206C5.51781 52.2191 5.95089 52.4765 6.40602 52.6888C6.88941 52.9163 7.39391 53.0951 7.91218 53.2227C8.08955 53.2659 8.25416 53.3511 8.39241 53.4711C8.53066 53.5911 8.63859 53.7425 8.70728 53.9128C9.67977 56.4628 10.8761 58.9205 12.282 61.2565C13.4916 63.2351 14.9616 65.0396 16.6518 66.6211C18.1351 68.0107 19.8394 69.1397 21.6939 69.961C24.4466 71.1661 27.5588 71.2363 30.3624 70.1563C33.3337 68.933 35.9681 67.0056 38.0418 64.5378C40.9817 61.1682 43.3433 57.3287 45.0296 53.1771C45.1234 52.9554 45.281 52.7672 45.4821 52.6367C47.1454 51.5863 48.558 50.1792 49.6192 48.5156C50.2298 47.5462 50.6001 46.4432 50.6987 45.2995C50.7658 44.3841 50.5392 43.4712 50.0523 42.6953C49.7701 42.2678 49.4183 41.8915 49.0116 41.582C43.2908 54.6745 44.8292 43.8542 44.8292 36.9271C39.4316 34.3945 35.9216 28.8737 34.131 20.586C31.9913 36.3672 12.7474 35.6836 7.91218 38.5612C7.91218 43.6068 9.54762 51.2305 5.43639 43.8086C4.86741 42.799 4.3893 41.7401 4.0078 40.6445V40.6641Z" fill="#009DB8"/>
</g>
<defs>
<clipPath id="clip0_317_323">
<rect width="53" height="80" fill="white"/>
</clipPath>
</defs>
</svg>
