<svg width="93" height="100" viewBox="0 0 93 100" fill="none" xmlns="http://www.w3.org/2000/svg">
<g clip-path="url(#clip0_218_76)">
<path d="M87.0414 96.0468V47.6929H63.4292L63.3138 40.526L57.0085 32.8368C57.1574 31.6437 57.2568 30.4301 57.2985 29.2042C57.7879 14.7419 49.7786 2.07438 47.0571 0.23043L47.0499 0.225821L47.0283 0.210972L47.0272 0.210459H47.0267L47.0185 0.204827L46.9969 0.191001L46.9865 0.184344L46.9665 0.172054L46.9551 0.164886L46.9361 0.15362L46.9268 0.147987L46.9206 0.144403L46.9175 0.142355L46.8985 0.131601L46.8928 0.128529L46.882 0.122384L46.8789 0.120848L46.8629 0.112655L46.8495 0.105486L46.8377 0.099341L46.832 0.0962686L46.8207 0.0906358L46.8063 0.083979L46.7954 0.0788583L46.7929 0.0778342L46.7784 0.0711773L46.7743 0.069129L46.7656 0.0655446L46.7501 0.0588877L46.7408 0.0553032L46.7331 0.0522308L46.7238 0.0486463L46.7182 0.0465981L46.7053 0.0419895L46.6976 0.0394291L46.6909 0.0368688L46.677 0.0322602L46.6728 0.030724L46.6677 0.0291878L46.6548 0.0250913L46.6476 0.023043L46.6435 0.0220189L46.628 0.0179223L46.6229 0.0168982L46.6162 0.015362L46.6074 0.0133137L46.6002 0.0117775L46.5966 0.0112655L46.5935 0.0107534L46.5878 0.00972927L46.5806 0.00819307L46.5734 0.00716894L46.5677 0.0061448L46.5621 0.00512067H46.5595L46.543 0.0030724L46.5379 0.00256033L46.5255 0.0015362H46.5219L46.5183 0.00102413L46.4997 0L46.4786 0.000512067L46.4714 0.00102413L46.4565 0.00204827L46.4482 0.0030724L46.4338 0.00512067L46.425 0.00665687L46.4106 0.0092172L46.4008 0.0112655L46.3864 0.0143379L46.3766 0.0168982L46.3612 0.0209947L46.3519 0.0235551L46.3344 0.0286757L46.3267 0.0312361L46.3014 0.0399412L46.2911 0.0435257L46.2777 0.0481343L46.2751 0.0491584L46.2612 0.0542791L46.2489 0.0593998L46.2334 0.0660566L46.2267 0.068617L46.2216 0.0711773L46.2061 0.0783462L46.1932 0.084491L46.1788 0.0911479L46.1644 0.0983168L46.15 0.105486L46.1366 0.112655L46.1206 0.120848L46.118 0.122384L46.0696 0.149524L46.0634 0.153108L46.0423 0.16591L46.033 0.171542L46.0119 0.184856L46.0026 0.190489L45.981 0.204315L45.9769 0.207387L45.9717 0.210972L45.9501 0.225309L45.9424 0.23043C45.7296 0.374833 45.4839 0.585292 45.2129 0.857712L45.1686 0.902262C45.0357 1.03796 44.8961 1.18851 44.7519 1.35288L44.7035 1.40818C44.5742 1.5572 44.4402 1.71747 44.3032 1.88799C44.2687 1.931 44.2342 1.97402 44.1997 2.01806C44.1476 2.08411 44.0951 2.1517 44.042 2.22083C44.007 2.26692 43.9715 2.31352 43.9354 2.36114C43.8102 2.52705 43.683 2.70064 43.5537 2.88191C43.5351 2.90752 43.5166 2.93363 43.4981 2.96026C43.461 3.01249 43.4239 3.06574 43.3863 3.11951C43.3677 3.14614 43.3487 3.17328 43.3301 3.20042C43.2549 3.30898 43.1792 3.42061 43.1029 3.53377C43.0267 3.64745 42.9499 3.76318 42.8727 3.88198C42.2931 4.77041 41.6884 5.79455 41.0862 6.93492C41.0259 7.04911 40.9656 7.16433 40.9054 7.28057C40.3841 8.28934 39.8669 9.38363 39.3723 10.5527C39.3342 10.6428 39.2961 10.7329 39.2585 10.8236C38.8994 11.6864 38.5533 12.5881 38.2272 13.5242C38.2102 13.5734 38.1932 13.623 38.1757 13.6722C37.9706 14.2657 37.7744 14.873 37.5874 15.4931C37.5719 15.5448 37.5565 15.5965 37.541 15.6483C36.4299 19.3792 35.6798 23.5556 35.6793 27.9235C35.6793 28.348 35.6865 28.7746 35.701 29.2027C35.7411 30.3866 35.8349 31.5592 35.9755 32.7129C35.9807 32.7538 35.9858 32.7948 35.9905 32.8358L29.6852 40.525L29.5698 47.6919H5.95857V96.0458H0V96.9425C0 98.6302 1.71746 99.9985 3.8357 99.9985H89.1638C91.2825 99.9985 92.9995 98.6302 92.9995 96.9425V96.0458H87.0414V96.0468ZM32.0888 47.6929L32.5133 44.6968L37.967 41.4851C38.0871 41.8451 38.2107 42.1994 38.3369 42.5492C38.4147 42.7648 38.494 42.9783 38.5739 43.1893C39.1956 44.8304 39.8792 46.3441 40.5844 47.6929H32.0888ZM52.415 47.6929L52.43 47.6642L52.4521 47.6212C52.4686 47.5894 52.4851 47.5577 52.5016 47.5254L52.5304 47.4691C52.5449 47.4415 52.5588 47.4138 52.5732 47.3856L52.6031 47.3268C52.618 47.2981 52.6324 47.2689 52.6474 47.2397L52.6747 47.1859C52.6906 47.1542 52.7066 47.1224 52.7226 47.0902L52.7478 47.04C52.7653 47.0052 52.7823 46.9704 52.7999 46.9355L52.8194 46.8966C52.8679 46.7988 52.9163 46.7 52.9642 46.6001L52.9812 46.5643C52.9997 46.5264 53.0178 46.4885 53.0358 46.4501L53.0585 46.4025C53.0739 46.3697 53.0894 46.3369 53.1053 46.3042L53.1331 46.2448C53.1486 46.2125 53.1635 46.1797 53.179 46.147L53.2022 46.0968C53.2176 46.0635 53.2331 46.0297 53.2491 45.9959L53.2758 45.938C53.2903 45.9073 53.3042 45.8766 53.3181 45.8459L53.3469 45.7829C53.3619 45.7496 53.3768 45.7163 53.3917 45.6835L53.4154 45.6308C53.9929 44.3491 54.5395 42.9593 55.0314 41.4861L60.4857 44.6978L60.9101 47.6939H52.415V47.6929Z" fill="#E2F3FE"/>
<path d="M83.1635 65.9619C80.0356 65.9619 77.2961 67.6108 75.7734 70.081C74.6849 69.4936 73.4857 69.0814 72.2154 68.8843C72.0551 68.8597 71.8939 68.8382 71.7322 68.8203C71.3288 68.7757 70.9188 68.7527 70.5041 68.7527C68.7959 68.7527 67.1794 69.1377 65.736 69.8255C65.6937 69.8454 65.653 69.8685 65.6113 69.8905L65.6108 69.8971C65.6525 69.8756 65.6937 69.8521 65.7365 69.8316C63.8032 70.7533 62.1821 72.2158 61.0709 74.0244L61.0678 74.0224L61.0668 74.0239C60.9128 74.2743 60.7685 74.5314 60.6351 74.794C60.0844 74.6471 59.5039 74.5677 58.9053 74.5677C57.1991 74.5677 55.644 75.2073 54.4689 76.2591L54.4174 76.3098V76.3108L54.4684 76.2601C53.8209 76.8397 53.2888 77.5444 52.9106 78.336C53.3691 81.3331 53.9043 83.7624 54.4684 85.7297V85.7313C55.1314 88.0443 55.8346 89.7203 56.5001 90.9349C56.9019 88.201 58.6549 85.9023 61.0663 84.7384C61.8663 84.3523 62.7384 84.0911 63.6579 83.98L63.6615 83.9795C63.6914 83.9759 63.7208 83.9723 63.7506 83.9693C63.7239 83.7219 63.7089 83.4715 63.7089 83.2186C63.7089 83.1587 63.7099 83.0987 63.7115 83.0393L63.712 83.0148L63.7141 82.9497C63.7151 82.9226 63.7161 82.8955 63.7177 82.8683V82.8627C63.7223 82.7777 63.728 82.6927 63.7352 82.6082L63.7362 82.5985C63.7383 82.5729 63.7409 82.5472 63.7434 82.5216L63.7445 82.5114C63.747 82.4848 63.7501 82.4587 63.7532 82.432L63.7542 82.4243C63.7573 82.3972 63.7604 82.3706 63.764 82.344L63.7645 82.3378C63.9624 80.7791 64.6784 79.3811 65.736 78.3191C67.0063 77.0435 68.7686 76.2529 70.7173 76.2529C72.6244 76.2529 74.3537 77.0113 75.6168 78.2408H76.7434C78.6489 76.8469 81.0005 76.0204 83.5488 76.0204C84.049 76.0204 84.5441 76.0527 85.0268 76.1147V66.1626C84.4282 66.0295 83.8033 65.9619 83.1635 65.9619Z" fill="#C5DDF1"/>
<path d="M85.0265 76.1151V94.21L63.6932 92.9529L61.0665 92.81L54.4692 92.4496L49.7995 92.194L43.1996 91.8315L38.5299 91.5785L31.9325 91.216L27.2628 90.963L20.6655 90.6005L15.9958 90.345L12.1281 90.1355L10.1104 71.9356V71.9305C12.295 72.9475 14.1042 74.6286 15.2761 76.7132C15.51 76.6236 15.7516 76.5473 15.9958 76.4833V76.4859L16.0138 76.4833L16.0112 76.4782C16.1349 76.4475 16.258 76.4193 16.3842 76.3911C16.5253 76.363 16.6696 76.3404 16.8133 76.32C16.9395 76.302 17.0678 76.2867 17.196 76.2764C17.3501 76.2636 17.5046 76.256 17.6612 76.2534H17.9002L17.9693 76.256H17.995C18.0182 76.256 18.0414 76.2585 18.0671 76.2585H18.0852C18.1109 76.2611 18.1367 76.2611 18.1624 76.2636H18.1727C18.4066 76.2764 18.6353 76.2995 18.8615 76.3353C19.0644 76.366 19.2648 76.407 19.4626 76.4551C19.8222 76.5448 20.1694 76.66 20.5063 76.8028C20.5372 76.8131 20.5707 76.8284 20.6016 76.8412C20.6171 76.8489 20.6377 76.8566 20.666 76.8694C23.0974 77.9606 24.7881 80.3924 24.7881 83.2206C24.7881 83.6753 24.7443 84.1198 24.6598 84.554C25.6391 84.9601 26.5205 85.5505 27.2633 86.2786V86.2812L27.2865 86.3042L27.2968 86.3145C27.3715 86.3882 27.4436 86.4625 27.5178 86.5393C27.7002 86.7359 27.8748 86.9402 28.0345 87.1522C28.086 87.2162 28.1319 87.2797 28.1782 87.3437C28.204 87.377 28.2271 87.4103 28.2503 87.4436C28.2967 87.5076 28.3405 87.5737 28.3843 87.6402C28.3997 87.6658 28.4178 87.6889 28.4332 87.7145C28.4744 87.781 28.5156 87.8445 28.5543 87.9111C28.5877 87.9649 28.6212 88.0207 28.6521 88.077C28.7603 88.2634 28.8577 88.4524 28.9504 88.6469L28.953 88.6495C28.9684 88.6802 28.9813 88.711 28.9968 88.7417V88.7442C29.0096 88.7724 29.0225 88.798 29.0328 88.8257L29.0406 88.8436L29.074 88.9153L29.0818 88.9383C29.0972 88.9716 29.1101 89.0023 29.123 89.0356C29.9096 88.479 30.8652 88.1467 31.9011 88.1467H31.9346C33.9544 88.1595 35.6714 89.4186 36.3627 91.1842C37.0695 89.9527 37.8252 88.2081 38.5319 85.7348V85.7323C38.8482 84.6364 39.1537 83.3972 39.4416 81.9972C39.6086 81.1749 39.7734 80.2956 39.9274 79.3581C40.084 78.4205 40.2308 77.424 40.3694 76.364C40.4338 75.8862 40.4925 75.3906 40.5518 74.8872V74.8846C40.5569 74.8565 40.5595 74.8257 40.5621 74.7976L40.5646 74.7899C41.1632 69.5909 41.5465 62.995 41.5465 54.6283C41.6516 57.735 42.7133 61.7327 46.4836 65.5138C46.4836 65.5138 51.2532 61.5489 51.4562 54.6462C51.4562 59.5411 51.5875 63.8281 51.8162 67.5836L51.8188 67.5861C51.8214 67.6578 51.8265 67.7295 51.8317 67.8007V67.8084C51.8626 68.3066 51.8961 68.7946 51.9296 69.2775V69.2801C52.0506 70.9535 52.1918 72.5143 52.3484 73.968C52.5178 75.5442 52.7079 76.9979 52.9114 78.3365C53.3714 81.3357 53.9061 83.7628 54.4712 85.7297V85.7323C55.1342 88.0468 55.8358 89.7228 56.5014 90.9364C56.9047 88.203 58.6577 85.9038 61.0686 84.7383V84.7409L61.0892 84.7281H61.0918L61.1046 84.7204L61.1175 84.7179L61.1201 84.7153C61.9041 84.3425 62.7598 84.0896 63.6592 83.982L63.6644 83.9795C63.6927 83.9769 63.7236 83.9743 63.7519 83.9692C63.7262 83.7239 63.7107 83.4735 63.7107 83.2206C63.7107 83.1591 63.7133 83.1008 63.7133 83.0393V83.0163C63.7159 82.9932 63.7159 82.9727 63.7159 82.9497C63.7184 82.9241 63.7184 82.8959 63.721 82.8683V82.8631C63.7236 82.7787 63.7313 82.6947 63.739 82.6102V82.5999C63.7416 82.5743 63.7442 82.5487 63.7468 82.5231V82.5103C63.7493 82.4847 63.7519 82.4591 63.7545 82.4315L63.7571 82.4238C63.7597 82.3982 63.7622 82.37 63.7674 82.3449V82.3373C63.9652 80.7785 64.6797 79.3837 65.7388 78.3211V78.3186C67.0086 77.044 68.7714 76.2544 70.7196 76.2544C72.6267 76.2544 74.3534 77.0107 75.6181 78.2423H75.6206C75.7876 78.403 75.9441 78.5741 76.0961 78.7533C76.1219 78.7303 76.551 78.3856 76.7462 78.2423H76.7488C78.6533 76.8474 81.0023 76.0224 83.5517 76.0224C84.0498 76.0209 84.5433 76.0511 85.0265 76.1151Z" fill="white"/>
<path d="M40.5508 74.8847L40.4962 74.8171C39.28 73.3413 37.4327 72.3986 35.3629 72.3986C35.1208 72.3986 34.8817 72.4114 34.6463 72.437C34.4248 72.4606 34.2069 72.4954 33.9926 72.5399C33.1298 72.7207 32.3282 73.0679 31.6251 73.5466C30.994 72.629 30.2265 71.8113 29.3518 71.1225C29.1869 70.9925 29.0185 70.8675 28.8459 70.7467C27.0496 69.4906 24.8603 68.7532 22.4958 68.7532C20.3333 68.7532 18.3165 69.3743 16.6135 70.443C15.9876 66.7157 12.955 63.801 9.15742 63.3309L9.15793 63.3325C8.80403 63.2889 8.44344 63.2643 8.07718 63.2643C8.04163 63.2643 8.00609 63.2643 7.97363 63.2674V71.1819C8.71749 71.3622 9.43198 71.6167 10.1114 71.9326V71.9301C12.2961 72.9475 14.1053 74.6286 15.2783 76.7112C15.5116 76.6226 15.7522 76.5458 15.9974 76.4818C16.5295 76.3425 17.0874 76.2632 17.6613 76.2534H17.6752C17.7112 76.2529 17.7478 76.2524 17.7839 76.2524C17.8153 76.2524 17.8467 76.2529 17.8776 76.2529L17.9018 76.2534C17.925 76.2534 17.9487 76.2539 17.9719 76.255L17.9966 76.256C18.0203 76.2565 18.044 76.257 18.0672 76.258L18.0852 76.2586C18.1115 76.2596 18.1378 76.2611 18.1635 76.2621L18.1733 76.2627C19.0578 76.3108 19.899 76.5223 20.6661 76.8674C23.097 77.9602 24.7882 80.3925 24.7882 83.2186C24.7882 83.6748 24.7434 84.1193 24.6604 84.5525C25.6381 84.9601 26.5195 85.5495 27.2634 86.2782C27.9568 86.9577 28.5301 87.7586 28.95 88.6455L28.9515 88.6485C28.9659 88.6787 28.9798 88.7089 28.9937 88.7397L28.9958 88.7438C29.0077 88.7704 29.02 88.797 29.0313 88.8237L29.0396 88.8416C29.0504 88.8656 29.0607 88.8902 29.0715 88.9148L29.0813 88.9373C29.0947 88.9691 29.1081 89.0013 29.1215 89.0336C29.9066 88.477 30.8632 88.1441 31.8996 88.1441L31.9331 88.1447C33.9524 88.1585 35.6704 89.4161 36.3612 91.1827C37.0669 89.9517 37.8216 88.2066 38.531 85.7323V85.7308V81.9947H39.4386C39.7766 80.3505 40.0913 78.4835 40.3685 76.3635V76.363C40.4313 75.8837 40.4916 75.3901 40.5503 74.8847H40.5508Z" fill="#C5DDF1"/>
<path d="M65.7361 62.2238H61.0664V92.8091V92.9529H63.6936H65.7361V62.2238Z" fill="#ECB8D6"/>
<path d="M51.3379 52.2139C51.2663 51.6389 51.1622 51.048 51.0216 50.4412H49.8239H47.6119L47.2693 52.6497H45.7301L45.3875 50.4412H43.2044H41.9696C41.8532 50.9266 41.7352 51.5252 41.6523 52.2139C41.5673 52.9211 41.5184 53.724 41.5457 54.5971C41.642 57.7094 42.6996 61.7199 46.4822 65.5139C46.4822 65.5139 51.2524 61.5474 51.4553 54.6463C51.478 53.872 51.443 53.0604 51.3379 52.2139Z" fill="#EAE325"/>
<path d="M20.6663 73.3674H15.9966V90.346V92.953H20.6663V90.6015V73.3674Z" fill="#73A4D8"/>
<path d="M31.9339 77.0527H27.2642V86.2781C27.9575 86.9576 28.5309 87.7585 28.9502 88.6454C28.5309 87.759 27.957 86.9597 27.2642 86.2807V90.962V92.9529H31.9339V91.217V88.1456L31.9004 88.1446L31.9339 88.1451V77.0527Z" fill="#73A4D8"/>
<path d="M41.2676 81.9947H39.4394H38.5317V85.7307V85.7328V91.5775V92.9529H41.6092H43.2009V91.833V81.9947H41.2676Z" fill="#ECB8D6"/>
<path d="M54.4685 73.9675H52.3461H49.7993V92.1935V92.7445V92.9529H49.9126H54.4685V92.4485V73.9675Z" fill="#73A4D8"/>
<path d="M76.845 78.2402H76.7471H76.7435H75.6169H75.6159H75.3079H72.334V92.9529H77.0032V78.2402H76.845Z" fill="#73A4D8"/>
<path d="M63.5016 52.2139L63.4599 49.6208L63.429 47.6929L63.3136 40.526L57.0083 32.8368C56.741 34.9818 56.3139 37.0603 55.7777 39.0256C55.5479 39.8675 55.2981 40.6888 55.0317 41.4856L60.486 44.6973L60.9105 47.6934L61.184 49.6213L61.4776 51.6926L62.5841 52.2144L63.5083 52.6502L63.5016 52.2139Z" fill="#D34734"/>
<path d="M37.6159 40.3867C37.5809 40.2725 37.5464 40.1583 37.5124 40.0436C37.4125 39.7082 37.3156 39.3687 37.2219 39.0257C37.1394 38.7235 37.0596 38.4189 36.9823 38.1116C36.9524 37.9923 36.9231 37.8725 36.8937 37.7527C36.8499 37.5724 36.8072 37.3916 36.766 37.2099C36.7381 37.0885 36.7108 36.9671 36.684 36.8453C36.6707 36.7843 36.6573 36.7234 36.6444 36.6625C36.6181 36.5401 36.5918 36.4177 36.5666 36.2948C36.5156 36.049 36.4667 35.8022 36.4193 35.5538C36.3605 35.2435 36.3044 34.9317 36.2518 34.6173C36.2204 34.4288 36.19 34.2399 36.1607 34.0504C36.1313 33.861 36.1035 33.6705 36.0767 33.4795C36.0587 33.3525 36.0417 33.225 36.0247 33.0975C36.0133 33.0104 36.0025 32.9234 35.9912 32.8363L29.6859 40.5255L29.5705 47.6924L29.5396 49.6203L29.4979 52.2134L29.4912 52.6492L30.4154 52.2134L31.5219 51.6916L31.8155 49.6203L32.089 47.6924L32.5135 44.6963L37.9673 41.4846C37.8467 41.1241 37.7293 40.7575 37.6159 40.3867Z" fill="#D34734"/>
<path d="M47.1202 0.274454L47.1182 0.272918L47.1058 0.264213L47.1002 0.260116L47.095 0.256532L47.0754 0.242706L47.0713 0.240146L47.0085 0.198156L47.0043 0.195596L46.9843 0.182794L46.9827 0.18177L46.923 0.145926L46.9163 0.141829L46.8998 0.132612L46.8931 0.129027L46.8416 0.101376L46.8385 0.0998396L46.8328 0.0967672L46.8179 0.0895982L46.8101 0.0860138L46.7962 0.0793569L46.7937 0.0783328L46.7792 0.0716759L46.7741 0.0691156L46.7653 0.0655311L46.7509 0.0593863L46.7406 0.0552898L46.7308 0.0511932L46.7293 0.0506812L46.7184 0.0460725L46.7056 0.0414639L46.704 0.0409519L46.6989 0.0389036L46.6901 0.0358312L46.6772 0.0312226L46.6674 0.0281502L46.6546 0.0240537L46.6468 0.0214933L46.6448 0.0209813L46.6427 0.0204692L46.6273 0.0163727L46.6216 0.0148365L46.6159 0.0133003L46.6072 0.011252L46.6 0.0097158L46.5964 0.00920374L46.5933 0.00869167L46.5876 0.00766754L46.5804 0.00613134L46.5732 0.0051072L46.5675 0.00408307L46.5618 0.00305894H46.5593L46.5428 0.00101067L46.5376 0.000498603L46.5253 -0.000525531H46.5232L46.5181 -0.0010376L46.4995 -1.3464e-05L46.4784 0.000498603L46.4712 0.00101067L46.4562 0.0020348L46.448 0.00305894L46.4336 0.0051072L46.4248 0.0066434L46.4104 0.00920374L46.4006 0.011252L46.3862 0.0143244L46.3764 0.0168847L46.3609 0.0209813L46.3517 0.0235416L46.3342 0.0286623L46.3264 0.0312226L46.3012 0.0399277L46.2909 0.0435122L46.2775 0.0481208L46.2749 0.0491449L46.261 0.0542656L46.2486 0.0593863L46.2332 0.0660432L46.2265 0.0686035L46.2213 0.0711638L46.2059 0.0783328L46.193 0.0844776L46.1786 0.0911344L46.1642 0.0983034L46.1497 0.105472L46.1363 0.112641L46.1204 0.120834L46.1178 0.122371L46.0926 0.136708L46.0694 0.150022L46.0632 0.153607L46.0421 0.166408L46.0328 0.172041L46.0117 0.185355L46.0024 0.190987L45.9808 0.204813L45.9767 0.207886L45.9715 0.21147L45.9499 0.225296L45.9421 0.230417L45.9169 0.247827C45.835 0.304666 45.7484 0.371235 45.6578 0.447021C45.6351 0.465967 45.6119 0.485426 45.5888 0.505396C45.5537 0.535608 45.5187 0.566845 45.4826 0.599617C45.4584 0.621636 45.4342 0.643655 45.41 0.666698C45.3853 0.689741 45.3605 0.713296 45.3358 0.737363C45.3111 0.76143 45.2853 0.786009 45.2601 0.8111C45.1962 0.874085 45.1313 0.940653 45.0649 1.01081C45.0381 1.03897 45.0113 1.06713 44.9845 1.09632L44.9242 1.16187C44.9036 1.18491 44.8825 1.20744 44.8614 1.231C44.8336 1.26172 44.8057 1.29296 44.7779 1.3247C44.7218 1.3882 44.6646 1.45426 44.6069 1.52236L44.5631 1.57357C44.5343 1.60788 44.5049 1.64321 44.4755 1.67854C44.4462 1.71387 44.4163 1.75023 44.3864 1.78659C44.3648 1.81322 44.3432 1.83984 44.3215 1.86698C44.2983 1.89617 44.2746 1.92536 44.2509 1.95506C44.2206 1.99346 44.1902 2.03187 44.1593 2.0713C44.1289 2.11021 44.098 2.15016 44.067 2.19061C44.0361 2.23055 44.0047 2.27151 43.9738 2.31248C43.9269 2.37444 43.8795 2.43742 43.8321 2.50143C43.8002 2.54393 43.7683 2.58746 43.7363 2.63099C43.7044 2.67451 43.6724 2.71906 43.64 2.76361C43.6142 2.79894 43.5885 2.83479 43.5627 2.87115C43.5395 2.90341 43.5169 2.93567 43.4937 2.96844C43.4772 2.99148 43.4612 3.01504 43.4448 3.03808C43.4051 3.09441 43.3659 3.15125 43.3258 3.20911C43.2995 3.24751 43.2732 3.28541 43.2464 3.32432C43.2129 3.37297 43.18 3.42213 43.1465 3.47129C43.0965 3.54554 43.046 3.62132 42.995 3.69762C42.9106 3.82513 42.8256 3.9557 42.7401 4.08884C42.7231 4.11547 42.7061 4.14209 42.6885 4.16923C42.654 4.223 42.62 4.27728 42.5855 4.33207C42.5577 4.37611 42.5299 4.42066 42.5021 4.46572C42.2368 4.89176 41.9673 5.34494 41.6964 5.8227C41.6789 5.85393 41.6614 5.88517 41.6433 5.91641C41.4672 6.22928 41.2905 6.55239 41.1138 6.88575L41.1364 6.88216C41.1885 6.87295 41.24 6.86424 41.292 6.85554L41.3487 6.84632C41.3904 6.83966 41.4321 6.83249 41.4738 6.82584L41.5331 6.81662C41.5774 6.80945 41.6212 6.80279 41.6655 6.79614L41.7144 6.78846C41.7675 6.78026 41.8211 6.77258 41.8741 6.76439L41.8957 6.76132C42.0235 6.74288 42.1518 6.72496 42.2811 6.70806L42.297 6.70601C42.3568 6.69782 42.4171 6.69014 42.4773 6.68246L42.4928 6.68041C42.5546 6.67273 42.6164 6.66505 42.6782 6.65788L42.6844 6.65737C43.9125 6.51092 45.1895 6.43308 46.5 6.43308C48.3803 6.43308 50.1899 6.59233 51.8868 6.88626C50.0539 3.42725 48.201 1.05024 47.1202 0.274454Z" fill="#D34734"/>
<path d="M52.8704 8.85929C50.866 8.44247 48.7143 8.22382 46.5002 8.22382C44.8528 8.22382 43.2394 8.34466 41.6961 8.57868H41.694C41.6286 8.58892 41.5627 8.59865 41.4972 8.60889C41.3669 8.62937 41.2366 8.65088 41.1073 8.67341L41.1016 8.67443C41.0388 8.68519 40.9759 8.69645 40.9131 8.70772L40.9053 8.70926C40.8482 8.7195 40.791 8.72974 40.7338 8.74049L40.708 8.7451C40.6565 8.75483 40.6055 8.76456 40.554 8.77429L40.5128 8.78197C40.4659 8.79119 40.4196 8.8004 40.3727 8.80962L40.3196 8.82037C40.2558 8.83318 40.1924 8.84598 40.129 8.85929C40.0718 8.98116 40.0152 9.10355 39.9585 9.22695C39.9395 9.26792 39.9204 9.3094 39.9019 9.35087C40.1594 9.29455 40.419 9.24129 40.6818 9.19162L40.7487 9.17933C40.792 9.17114 40.8353 9.16295 40.8791 9.15526C40.9038 9.15066 40.9285 9.14656 40.9527 9.14195C40.9939 9.13478 41.0352 9.1271 41.0764 9.11993C41.1078 9.1143 41.1392 9.10918 41.1701 9.10406C41.2051 9.09791 41.2397 9.09228 41.2742 9.08614C41.3061 9.08102 41.3381 9.0759 41.3695 9.07026C41.4024 9.06514 41.4354 9.05951 41.4684 9.05388C43.0787 8.79477 44.7694 8.66061 46.4992 8.66061C48.8003 8.66061 51.0324 8.89821 53.0971 9.35087C53.0224 9.18548 52.9466 9.02162 52.8704 8.85929Z" fill="#D34734"/>
<path d="M47.3269 25.8704C50.7011 25.4169 53.0666 22.3301 52.6104 18.9759C52.1541 15.6218 49.0489 13.2704 45.6746 13.7239C42.3003 14.1774 39.9348 17.2642 40.3911 20.6184C40.8473 23.9725 43.9526 26.324 47.3269 25.8704Z" fill="white"/>
<path d="M47.8592 24.675L47.8762 24.6704L47.9308 24.6545L47.9344 24.6535C47.9772 24.6412 48.0194 24.6279 48.0617 24.6145L48.0653 24.6135L48.1271 24.5936C50.1408 23.9187 51.5903 22.0261 51.5903 19.797C51.5903 17.0022 49.3109 14.7363 46.4993 14.7363C44.2574 14.7363 42.354 16.1767 41.6745 18.1774L41.673 18.1815L41.6534 18.2403L41.6523 18.2444C41.639 18.2859 41.6261 18.3274 41.6137 18.3699L41.6117 18.3776L41.5962 18.4308L41.5926 18.4436L41.5792 18.4933L41.5756 18.5066L41.5596 18.5676L41.5586 18.5711C41.5452 18.6254 41.5323 18.6802 41.5205 18.7355L41.5184 18.7452C41.5133 18.7703 41.5081 18.7949 41.503 18.8205L41.5014 18.8277C41.4963 18.8553 41.4906 18.883 41.486 18.9106L41.4854 18.9132C41.4808 18.9388 41.4767 18.9644 41.4726 18.9905L41.4705 19.0054C41.4664 19.0305 41.4628 19.0556 41.4592 19.0812L41.4581 19.0868C41.4545 19.1134 41.4509 19.1406 41.4473 19.1672L41.4453 19.1846L41.4381 19.2486L41.436 19.2691C41.4334 19.2957 41.4308 19.3218 41.4283 19.3485L41.4278 19.3572C41.4257 19.3812 41.4236 19.4053 41.4221 19.4299L41.4205 19.4509L41.4164 19.5174L41.4154 19.5328C41.4138 19.5594 41.4128 19.5861 41.4118 19.6127L41.4113 19.6327L41.4097 19.6951L41.4092 19.7187C41.4087 19.7453 41.4087 19.7724 41.4087 19.7991C41.4087 20.8253 41.7162 21.7803 42.2442 22.5781C42.2891 22.6462 42.3359 22.7127 42.3838 22.7783C42.4802 22.9094 42.5822 23.0358 42.6903 23.1567C42.7171 23.1869 42.745 23.2171 42.7728 23.2468C42.8006 23.2765 42.8284 23.3057 42.8573 23.3349C42.8856 23.3636 42.9144 23.3928 42.9438 23.4209C42.9732 23.4491 43.0025 23.4772 43.0319 23.5049C43.0618 23.5326 43.0916 23.5597 43.1225 23.5863C43.1529 23.6135 43.1838 23.6396 43.2148 23.6657C43.2457 23.6918 43.2771 23.7174 43.309 23.743C43.4203 23.8321 43.5352 23.9166 43.6537 23.996C43.6876 24.0185 43.7216 24.041 43.7562 24.0631C43.8597 24.1286 43.9653 24.1911 44.0735 24.2494C44.1456 24.2884 44.2188 24.3257 44.2929 24.3611C44.3671 24.3964 44.4423 24.4302 44.5186 24.4625C44.5948 24.4947 44.6716 24.5249 44.7499 24.5531C44.8276 24.5818 44.907 24.6084 44.9863 24.6325C45.4644 24.7805 45.9733 24.8598 46.5003 24.8598C46.5276 24.8598 46.5544 24.8598 46.5812 24.8593L46.6049 24.8588L46.6682 24.8573L46.6883 24.8568C46.7151 24.8557 46.7419 24.8547 46.7687 24.8532L46.7841 24.8521L46.8511 24.8481L46.8717 24.8465C46.8964 24.845 46.9206 24.8429 46.9454 24.8409L46.9536 24.8399C46.9804 24.8378 47.0072 24.8347 47.0335 24.8322L47.0541 24.8301L47.1185 24.823L47.136 24.8209C47.1628 24.8173 47.1901 24.8137 47.2168 24.8102L47.2215 24.8096C47.2472 24.8061 47.2725 24.802 47.2982 24.7984L47.3132 24.7963C47.3389 24.7922 47.3647 24.7881 47.3904 24.7835L47.3941 24.783C47.4219 24.7784 47.4497 24.7728 47.4775 24.7677L47.4842 24.7666C47.5094 24.7615 47.5347 24.7569 47.5604 24.7513L47.5697 24.7492C47.6253 24.7374 47.6805 24.7246 47.7356 24.7113L47.7382 24.7108L47.7979 24.6955L47.8165 24.6903L47.8592 24.675Z" fill="#356EB5"/>
<path d="M31.8154 49.6208H41.4402L40.4512 47.8726H40.6794C40.6474 47.8132 40.616 47.7533 40.5846 47.6929H32.089L31.8154 49.6208Z" fill="#B4B9D4"/>
<path d="M52.5486 47.8726L51.5596 49.6208H61.1844L60.9108 47.6929H52.4152C52.4023 47.7175 52.3889 47.742 52.3761 47.7671L52.356 47.806L52.3204 47.8726H52.5486Z" fill="#B4B9D4"/>
<path d="M87.0414 47.784H63.4291L63.46 49.7114H85.0266V52.3045V66.2532V76.2052V94.21H59.5671H52.942H50.7207H46.4997H40.8007H36.5297H33.4327H7.97319V71.2735V63.359V52.7403V52.3045V49.7114H29.5393L29.5708 47.784H5.9585V96.138H87.0414V47.784Z" fill="#B4B9D4"/>
<path d="M87.0414 96.0468H5.95857H0V96.9434C0 98.6312 1.71746 99.9995 3.8357 99.9995H89.1638C91.2825 99.9995 92.9995 98.6312 92.9995 96.9434V96.0468H87.0414Z" fill="#8188AC"/>
<path d="M52.3462 73.9675C52.5162 75.5437 52.7058 76.9964 52.9108 78.3355C53.2889 77.5438 53.821 76.8392 54.4686 76.2595V73.9675H52.3462Z" fill="#1654A2"/>
<path d="M61.0664 62.2233V74.0244C62.1786 72.2137 63.8013 70.7482 65.7361 69.8259V62.2233H61.0664Z" fill="#AD4593"/>
<path d="M29.5987 71.1568C29.8995 71.1568 30.1653 71.0093 30.3271 70.7825L33.9918 72.5394C34.2061 72.4943 34.424 72.46 34.6455 72.4365L30.4755 70.4389C30.4863 70.3836 30.4919 70.3262 30.4919 70.2679C30.4919 69.7773 30.0917 69.3794 29.5982 69.3794C29.3983 69.3794 29.2134 69.445 29.0645 69.5551L19.2553 61.7307C19.315 61.6114 19.349 61.4767 19.349 61.3349C19.349 60.8443 18.9488 60.4464 18.4553 60.4464C17.9618 60.4464 17.5615 60.8443 17.5615 61.3349C17.5615 61.8254 17.9618 62.2228 18.4553 62.2228C18.668 62.2228 18.8638 62.1485 19.0173 62.0251L28.8162 69.8362C28.7446 69.9637 28.7034 70.1107 28.7034 70.2673C28.7034 70.4435 28.7549 70.6079 28.844 70.7456C29.0161 70.8659 29.185 70.9914 29.3499 71.1215C29.4297 71.1445 29.5132 71.1568 29.5987 71.1568Z" fill="#1654A2"/>
<path d="M51.8159 67.5851C51.82 67.6568 51.8247 67.7285 51.8293 67.7997L51.8298 67.8063C51.8613 68.3051 51.8942 68.7946 51.9287 69.2755H51.9282L51.9287 69.278C51.9947 69.2934 52.0632 69.3016 52.1343 69.3016C52.6278 69.3016 53.028 68.9037 53.028 68.4131C53.028 68.2165 52.9636 68.0352 52.8549 67.8878L62.9954 55.5726C63.1175 55.6345 63.255 55.6693 63.4018 55.6693C63.5033 55.6693 63.6007 55.6524 63.6919 55.6217L71.7326 68.8202C71.8949 68.8382 72.0561 68.8597 72.2163 68.8842L64.0169 55.4256C64.1884 55.2638 64.2956 55.0349 64.2956 54.7809C64.2956 54.2903 63.8953 53.8925 63.4018 53.8925C62.9083 53.8925 62.5081 54.2903 62.5081 54.7809C62.5081 54.9898 62.5807 55.1818 62.7018 55.3334L52.5778 67.642C52.447 67.5677 52.2955 67.5247 52.1343 67.5247C52.0225 67.5247 51.9153 67.5452 51.8164 67.5826L51.8159 67.5851Z" fill="#1654A2"/>
<path d="M15.9966 73.3674V76.4823C16.5287 76.343 17.0866 76.2636 17.6605 76.2539H17.6744C17.7104 76.2534 17.747 76.2529 17.7831 76.2529C17.8145 76.2529 17.8459 76.2534 17.8768 76.2534L17.901 76.2539C17.9242 76.2539 17.9479 76.2544 17.9711 76.2549L17.9958 76.256C18.0195 76.2565 18.0427 76.257 18.0664 76.258L18.0844 76.2585C18.1107 76.2595 18.137 76.2611 18.1627 76.2621L18.1725 76.2626C19.057 76.3108 19.8982 76.5222 20.6653 76.8674V73.3669H15.9966V73.3674Z" fill="#356EB5"/>
<path d="M27.2642 77.0527V86.2781C27.9575 86.9576 28.5309 87.7585 28.9502 88.6454L28.9517 88.6485C28.9662 88.6787 28.9801 88.7089 28.994 88.7396L28.996 88.7437C29.0079 88.7704 29.0203 88.797 29.0316 88.8236L29.0393 88.8415C29.0501 88.8656 29.0604 88.8902 29.0713 88.9148L29.081 88.9373C29.095 88.969 29.1083 89.0013 29.1212 89.0336C29.9063 88.4775 30.8629 88.1446 31.8993 88.1446L31.9328 88.1451V77.0527H27.2642Z" fill="#356EB5"/>
<path d="M38.5317 85.7307C38.846 84.6344 39.1514 83.3962 39.4394 81.9947H38.5317V85.7307Z" fill="#BF6DAA"/>
<path d="M54.4684 76.2606C53.8209 76.8402 53.2888 77.5448 52.9106 78.3365C53.3691 81.3336 53.9043 83.7628 54.4684 85.7302V76.2606Z" fill="#356EB5"/>
<path d="M63.6616 83.98C63.6915 83.9764 63.7209 83.9728 63.7508 83.9697C63.724 83.7224 63.7095 83.472 63.7095 83.219C63.7095 83.1591 63.7101 83.0992 63.7116 83.0398L63.7126 83.0152L63.7147 82.9502C63.7157 82.9231 63.7168 82.8959 63.7183 82.8688V82.8632C63.7224 82.7776 63.7286 82.6932 63.7358 82.6087L63.7368 82.5989C63.7389 82.5733 63.7415 82.5477 63.7441 82.5221L63.7451 82.5119C63.7477 82.4853 63.7508 82.4591 63.7538 82.4325L63.7549 82.4248C63.758 82.3977 63.7611 82.3711 63.7647 82.3444L63.7652 82.3383C63.963 80.7796 64.679 79.3811 65.7366 78.3196V69.8336C63.8012 70.7564 62.1786 72.2209 61.0669 74.0321V84.7394C61.8669 84.3533 62.739 84.0921 63.6585 83.981L63.6616 83.98Z" fill="#BF6DAA"/>
<path d="M73.8294 71.5327L72.2196 68.8904C72.0589 68.8653 71.8976 68.8428 71.7349 68.8249L73.4997 71.7211L72.9181 72.054L75.4474 74.2533L74.4084 71.2009L73.8294 71.5327Z" fill="#356EB5"/>
<path d="M40.5511 74.8852L40.498 74.8196C40.3667 74.879 40.2508 74.9666 40.1627 75.0787L34.6538 72.4406C34.4318 72.4641 34.2129 72.4979 33.998 72.5425L39.9973 75.4187C39.9813 75.4853 39.9726 75.5544 39.9726 75.6256C39.9726 75.7864 40.0159 75.9375 40.0911 76.068L40.1019 76.0865C40.1694 76.1971 40.2611 76.2918 40.3687 76.364V76.3635C40.4316 75.8842 40.4924 75.3911 40.5511 74.8852Z" fill="#356EB5"/>
<path d="M85.0266 52.214V49.6208H63.46L63.5017 52.214H85.0266Z" fill="#356EB5"/>
<path d="M41.9041 50.4412L41.44 49.6208H31.8152L31.5215 51.6922L30.415 52.214H41.6517C41.7346 51.5252 41.8526 50.9266 41.969 50.4412H41.9041Z" fill="#356EB5"/>
<path d="M29.5393 49.6208H7.97314V52.214H29.4981L29.5393 49.6208Z" fill="#356EB5"/>
<path d="M10.5766 51.6512C10.1686 51.6512 9.83789 51.3224 9.83789 50.9169C9.83789 50.5113 10.1686 50.1826 10.5766 50.1826C10.9846 50.1826 11.3153 50.5113 11.3153 50.9169C11.3153 51.3224 10.9846 51.6512 10.5766 51.6512Z" fill="#E2F3FE"/>
<path d="M14.0888 51.6512C13.6808 51.6512 13.3501 51.3224 13.3501 50.9169C13.3501 50.5113 13.6808 50.1826 14.0888 50.1826C14.4968 50.1826 14.8275 50.5113 14.8275 50.9169C14.8275 51.3224 14.4968 51.6512 14.0888 51.6512Z" fill="#E2F3FE"/>
<path d="M17.601 51.6512C17.193 51.6512 16.8623 51.3224 16.8623 50.9169C16.8623 50.5113 17.193 50.1826 17.601 50.1826C18.009 50.1826 18.3397 50.5113 18.3397 50.9169C18.3397 51.3224 18.009 51.6512 17.601 51.6512Z" fill="#E2F3FE"/>
<path d="M61.1846 49.6208H51.5598L51.0957 50.4412H51.0215C51.1621 51.048 51.2667 51.6394 51.3378 52.214H62.5842L61.4777 51.6922L61.1846 49.6208Z" fill="#356EB5"/>
<path d="M40.551 74.8846V74.8851C40.4923 75.3911 40.4315 75.8842 40.3691 76.3635C40.5113 76.4582 40.6823 76.514 40.8662 76.514C41.3597 76.514 41.76 76.1161 41.76 75.6256C41.76 75.558 41.7523 75.4919 41.7379 75.4289L41.7286 75.3911C41.7219 75.366 41.7136 75.3419 41.7049 75.3178L51.5424 69.0788C51.6506 69.1741 51.783 69.2406 51.9283 69.2749H51.9288C51.8943 68.7941 51.8613 68.3051 51.8299 67.8058L51.8294 67.7992C51.8247 67.728 51.8206 67.6568 51.816 67.5846C51.4796 67.7121 51.24 68.0337 51.24 68.4126C51.24 68.4848 51.2488 68.555 51.2653 68.6226L51.271 68.6446C51.2828 68.6891 51.2988 68.7321 51.3168 68.7731L41.4999 74.9983C41.4746 74.9732 41.4478 74.9497 41.4195 74.9271L41.385 74.901L41.3309 74.8657L41.2933 74.8442C41.2614 74.8268 41.2284 74.8119 41.1949 74.7981L41.1326 74.7766L41.0898 74.7643L41.0682 74.7592L41.0244 74.7499L41.0022 74.7464C40.9579 74.7397 40.9121 74.7361 40.8657 74.7361C40.7581 74.7361 40.6566 74.7602 40.5613 74.795H40.5608C40.5577 74.8257 40.5546 74.8549 40.551 74.8846Z" fill="#73A4D8"/>
<path d="M9.15695 63.333L9.15644 63.3314L7.97266 52.6497V63.2679C8.00511 63.2649 8.04065 63.2649 8.0762 63.2649C8.44246 63.2649 8.80305 63.2894 9.15695 63.333Z" fill="#7ABDE9"/>
<path d="M10.1104 71.9331V71.9305L9.15744 63.3329C8.80354 63.2894 8.44295 63.2648 8.07669 63.2648C8.04114 63.2648 8.0056 63.2648 7.97314 63.2679V71.1824C8.717 71.3627 9.43149 71.6172 10.1104 71.9331Z" fill="#68A7DB"/>
<path d="M15.9966 90.346V92.9529H20.6663V90.6015L15.9966 90.346Z" fill="#387ABE"/>
<path d="M27.2642 90.962V92.953H31.9339V91.217L27.2642 90.962Z" fill="#387ABE"/>
<path d="M38.5317 91.5775V92.9529H41.6092H43.2009V91.833L38.5317 91.5775Z" fill="#D561A0"/>
<path d="M49.7993 92.7445V92.9529H49.9126H54.4685V92.4486L49.7993 92.1935V92.7445Z" fill="#387ABE"/>
<path d="M61.0664 92.9529H63.6936L61.0664 92.809V92.9529Z" fill="#D561A0"/>
<path d="M46.4821 59.0674C46.4821 59.0674 50.238 55.8173 49.8238 50.4406H47.6118L47.2693 52.6492H45.73L45.3875 50.4406H43.2043C43.0256 52.6819 43.4367 56.0134 46.4821 59.0674Z" fill="#DA802E"/>
<path d="M60.9114 47.6929L61.185 49.6208L61.4786 51.6921L62.5851 52.2139L63.5092 52.6497L62.0293 51.1708L61.0381 43.6977L55.7791 39.0256C55.5494 39.8675 55.2995 40.6888 55.0332 41.4856L60.4875 44.6973L60.9114 47.6929Z" fill="#AA3324"/>
<path d="M37.6159 40.3867C37.5809 40.2725 37.5464 40.1583 37.5124 40.0436C37.4125 39.7082 37.3156 39.3687 37.2219 39.0256L31.9628 43.6977L30.9712 51.1708L29.4912 52.6497L30.4154 52.2139L31.5219 51.6921L31.8155 49.6208L32.089 47.6929L32.5135 44.6968L37.9673 41.4851C37.8467 41.1241 37.7293 40.7574 37.6159 40.3867Z" fill="#AA3324"/>
<path d="M52.2299 13.1289C52.4535 13.9753 52.6812 14.8207 52.9011 15.6687C53.3354 17.3406 53.7408 19.0217 54.0272 20.7254C54.6099 24.1926 54.8293 27.7238 54.6269 31.235C54.497 33.5409 54.1947 35.8488 53.848 38.2022C53.8866 37.9411 54.1365 37.6082 54.2467 37.364C54.3822 37.0639 54.5109 36.7608 54.6336 36.4556C54.8705 35.8652 55.0833 35.265 55.2718 34.6577C56.4932 30.7296 56.7075 26.524 56.0749 22.47C55.431 18.3397 53.9325 14.2498 51.519 10.8118C51.9167 11.5568 52.0167 12.3219 52.2299 13.1289Z" fill="#F7FCFF"/>
<path d="M41.4402 49.6208L41.9044 50.4411H41.9698H43.2046H45.3882L44.9895 47.8726H40.6799H40.4512L41.4402 49.6208Z" fill="#605E6F"/>
<path d="M51.021 50.4411H51.0957L51.5593 49.6208L52.5484 47.8726H52.3202H48.01L47.6118 50.4411H49.8238H51.021Z" fill="#605E6F"/>
<path d="M45.9169 0.248339C45.835 0.305178 45.7484 0.371747 45.6578 0.447533C45.6351 0.466479 45.6119 0.485938 45.5888 0.505909C45.5537 0.536121 45.5187 0.567357 45.4826 0.600129C45.4584 0.622148 45.4342 0.644167 45.41 0.66721C45.3853 0.690253 45.3605 0.713808 45.3358 0.737875C45.3111 0.761942 45.2853 0.786521 45.2601 0.811612C45.1962 0.874597 45.1313 0.941165 45.0649 1.01132C45.0381 1.03948 45.0113 1.06765 44.9845 1.09683L44.9242 1.16238C44.9036 1.18542 44.8825 1.20795 44.8614 1.23151C44.8336 1.26223 44.8057 1.29347 44.7779 1.32522C44.7218 1.38871 44.6646 1.45477 44.6069 1.52287L44.5631 1.57408C44.5343 1.60839 44.5049 1.64372 44.4755 1.67905C44.4462 1.71439 44.4163 1.75074 44.3864 1.7871C44.3648 1.81373 44.3432 1.84035 44.3215 1.86749C44.2983 1.89668 44.2746 1.92587 44.2509 1.95557C44.2206 1.99397 44.1902 2.03238 44.1593 2.07181C44.1289 2.11073 44.098 2.15067 44.067 2.19112C44.0361 2.23106 44.0047 2.27203 43.9738 2.31299C43.9269 2.37495 43.8795 2.43794 43.8321 2.50195C43.8002 2.54445 43.7683 2.58797 43.7363 2.6315C43.7044 2.67502 43.6724 2.71957 43.64 2.76412C43.6142 2.79946 43.5885 2.8353 43.5627 2.87166C43.5395 2.90392 43.5169 2.93618 43.4937 2.96895C43.4772 2.99199 43.4612 3.01555 43.4448 3.03859C43.4051 3.09492 43.3659 3.15176 43.3258 3.20962C43.2995 3.24803 43.2732 3.28592 43.2464 3.32484C43.2129 3.37348 43.18 3.42264 43.1465 3.4718C43.0965 3.54605 43.046 3.62183 42.995 3.69813C42.9106 3.82564 42.8256 3.95621 42.7401 4.08935C42.7231 4.11598 42.7061 4.14261 42.6885 4.16975C42.654 4.22351 42.62 4.27779 42.5855 4.33258C42.5577 4.37662 42.5299 4.42117 42.5021 4.46623C42.2368 4.89227 41.9673 5.34545 41.6964 5.82321C41.6789 5.85445 41.6614 5.88568 41.6433 5.91692C41.4672 6.22979 41.2905 6.55291 41.1138 6.88626L41.1364 6.88268C41.1885 6.87346 41.24 6.86475 41.292 6.85605L41.3487 6.84683C41.3904 6.84018 41.4321 6.83301 41.4738 6.82635L41.5331 6.81713C41.5774 6.80996 41.6212 6.80331 41.6655 6.79665L41.7144 6.78897C41.7675 6.78078 41.8211 6.77309 41.8741 6.7649L41.8957 6.76183C42.0235 6.74339 42.1518 6.72547 42.2811 6.70857L42.297 6.70653C42.3568 6.69833 42.4171 6.69065 42.4773 6.68297L42.4928 6.68092C42.5546 6.67324 42.6164 6.66556 42.6782 6.65839L42.6844 6.65788C44.2242 3.84151 45.8437 1.63297 47.1202 0.274966L47.0996 0.260116L47.0945 0.256532L47.0749 0.242706L47.0708 0.240146L47.008 0.198156L47.0038 0.195596L46.9837 0.182794L46.9822 0.18177L46.9224 0.145926L46.9157 0.141829L46.8993 0.132612L46.8926 0.129027L46.841 0.101376L46.838 0.0998396L46.8323 0.0967672L46.8174 0.0895982L46.8096 0.0860138L46.7957 0.0793569L46.7931 0.0783328L46.7787 0.0716759L46.7741 0.0691156L46.7653 0.0655311L46.7509 0.0593863L46.7406 0.0552898L46.7308 0.0511932L46.7293 0.0506812L46.7184 0.0460725L46.7056 0.0414639L46.704 0.0409519L46.6989 0.0389036L46.6901 0.0358312L46.6772 0.0312226L46.6674 0.0281502L46.6546 0.0240537L46.6468 0.0214933L46.6448 0.0209813L46.6427 0.0204692L46.6273 0.0163727L46.6216 0.0148365L46.6159 0.0133003L46.6072 0.011252L46.6 0.0097158L46.5964 0.00920374L46.5933 0.00869167L46.5876 0.00766754L46.5804 0.00613134L46.5732 0.0051072L46.5675 0.00408307L46.5618 0.00305894H46.5593L46.5428 0.00101067L46.5376 0.000498603L46.5253 -0.000525531H46.5232L46.5181 -0.0010376L46.4995 -1.3464e-05L46.4784 0.000498603L46.4712 0.00101067L46.4562 0.0020348L46.448 0.00305894L46.4336 0.0051072L46.4248 0.0066434L46.4104 0.00920374L46.4006 0.011252L46.3862 0.0143244L46.3764 0.0168847L46.3609 0.0209813L46.3517 0.0235416L46.3342 0.0286623L46.3264 0.0312226L46.3012 0.0399277L46.2909 0.0435122L46.2775 0.0481208L46.2749 0.0491449L46.261 0.0542656L46.2486 0.0593863L46.2332 0.0660432L46.2265 0.0686035L46.2213 0.0711638L46.2059 0.0783328L46.193 0.0844776L46.1786 0.0911344L46.1642 0.0983034L46.1497 0.105472L46.1363 0.112641L46.1204 0.120834L46.1178 0.122371L46.0926 0.136708L46.0694 0.150022L46.0632 0.153607L46.0421 0.166408L46.0328 0.172041L46.0117 0.185355L46.0024 0.190987L45.9808 0.204813L45.9767 0.207886L45.9715 0.21147L45.9499 0.225296L45.9421 0.230417L45.9169 0.248339Z" fill="#AA3324"/>
<path d="M41.4694 9.05387C41.5441 8.89411 41.6199 8.73537 41.6956 8.57867H41.6935C41.6281 8.58892 41.5622 8.59864 41.4967 8.60889C41.3664 8.62937 41.2361 8.65088 41.1068 8.67341L41.1011 8.67443C41.0383 8.68518 40.9754 8.69645 40.9126 8.70772L40.9049 8.70925C40.8477 8.71949 40.7905 8.72973 40.7333 8.74049L40.7076 8.7451C40.656 8.75483 40.605 8.76455 40.5535 8.77428L40.5123 8.78196C40.4654 8.79118 40.4191 8.8004 40.3722 8.80962L40.3191 8.82037C40.2553 8.83317 40.1919 8.84597 40.1285 8.85929C40.0714 8.98116 40.0147 9.10354 39.958 9.22695C39.939 9.26792 39.9199 9.30939 39.9014 9.35087C40.1589 9.29454 40.4186 9.24129 40.6813 9.19162L40.7483 9.17933C40.7915 9.17114 40.8348 9.16294 40.8786 9.15526C40.9033 9.15065 40.928 9.14656 40.9522 9.14195C40.9935 9.13478 41.0347 9.1271 41.0759 9.11993C41.1073 9.1143 41.1387 9.10918 41.1696 9.10405C41.2047 9.09791 41.2392 9.09228 41.2737 9.08613C41.3056 9.08101 41.3376 9.07589 41.369 9.07026C41.403 9.06514 41.436 9.05951 41.4694 9.05387Z" fill="#AA3324"/>
<path d="M61.0661 92.9555V92.8116L54.4683 92.4511V92.9555H49.9124H49.7991V92.747V92.1961L43.2012 91.8356V92.9555H41.6095H38.5315V91.5806L31.9337 91.2201V92.956H27.264V90.9651L20.6661 90.6046V92.956H15.9964V90.349L12.1283 90.1376L10.1105 71.9361C9.43152 71.6197 8.71703 71.3652 7.97266 71.1849V94.21H85.0261L63.6928 92.9555H61.0661Z" fill="#C5DDF1"/>
<path d="M52.356 47.8061L52.3761 47.7672C52.3941 47.7329 52.4121 47.6985 52.4302 47.6642L52.4523 47.6212C52.4688 47.5895 52.4853 47.5577 52.5018 47.5255L52.5306 47.4691C52.545 47.4415 52.559 47.4138 52.5734 47.3857L52.6033 47.3268C52.6182 47.2981 52.6326 47.2689 52.6476 47.2397L52.6749 47.186C52.6908 47.1542 52.7068 47.1225 52.7228 47.0902L52.748 47.04C52.7655 47.0052 52.7825 46.9704 52.8 46.9356L52.8196 46.8967C52.868 46.7988 52.9165 46.7 52.9644 46.6002L52.9814 46.5643C52.9999 46.5264 53.0179 46.4885 53.036 46.4501L53.0586 46.4025C53.0741 46.3697 53.0895 46.337 53.1055 46.3042L53.1333 46.2448C53.1488 46.2125 53.1637 46.1798 53.1792 46.147L53.2024 46.0968C53.2178 46.0635 53.2333 46.0297 53.2492 45.9959L53.276 45.9381C53.2904 45.9073 53.3044 45.8766 53.3183 45.8459L53.3471 45.7829C53.3621 45.7496 53.377 45.7163 53.3919 45.6836L53.4156 45.6308C53.4388 45.5796 53.462 45.5279 53.4847 45.4762L48.39 45.4188L48.0093 47.8732H52.3194L52.356 47.8061Z" fill="#C5DDF1"/>
<path d="M43.2944 45.28C40.4663 40.8901 37.665 33.5046 37.6109 25.6515C37.5681 19.455 39.3072 13.664 41.4692 9.05438C41.4363 9.0595 41.4033 9.06514 41.3703 9.07077C41.3384 9.07589 41.3065 9.08101 41.275 9.08664C41.24 9.09227 41.2055 9.09842 41.171 9.10456C41.1396 9.10969 41.1081 9.11532 41.0772 9.12044C41.036 9.12761 40.9948 9.13478 40.9536 9.14246C40.9289 9.14707 40.9041 9.15116 40.8799 9.15577C40.8361 9.16396 40.7929 9.17165 40.7496 9.17984L40.6826 9.19213C40.4209 9.2418 40.1613 9.29454 39.9048 9.35087C39.7255 9.74362 39.5478 10.1425 39.3737 10.5542C39.3356 10.6443 39.2974 10.7345 39.2598 10.8251C38.9008 11.6879 38.5546 12.5897 38.2285 13.5258C38.2115 13.5749 38.1945 13.6246 38.177 13.6737C37.972 14.2672 37.7757 14.8745 37.5887 15.4946C37.5733 15.5464 37.5578 15.5981 37.5424 15.6498C36.4312 19.3807 35.6812 23.5571 35.6807 27.9251C35.6807 28.3496 35.6879 28.7761 35.7023 29.2042C35.709 29.4014 35.7172 29.5985 35.727 29.7951C35.7332 29.9262 35.7404 30.0573 35.7481 30.1879C35.7559 30.3185 35.7641 30.449 35.7734 30.5796C35.8002 30.9708 35.8331 31.3605 35.8707 31.7487C35.9027 32.0718 35.9377 32.3934 35.9769 32.7139C35.982 32.7549 35.9872 32.7959 35.9918 32.8368C36.0026 32.9239 36.014 33.0109 36.0253 33.098C36.0423 33.2255 36.0593 33.353 36.0773 33.48C36.1041 33.671 36.1319 33.8609 36.1613 34.0509C36.1906 34.2404 36.221 34.4293 36.2525 34.6178C36.305 34.9317 36.3612 35.244 36.4199 35.5544C36.4673 35.8027 36.5162 36.0495 36.5672 36.2953C36.5925 36.4182 36.6187 36.5406 36.645 36.663C36.6584 36.7239 36.6713 36.7849 36.6847 36.8458C36.7114 36.9677 36.7388 37.089 36.7666 37.2104C36.8083 37.3922 36.8511 37.5729 36.8943 37.7532C36.9237 37.873 36.953 37.9928 36.9829 38.1121C37.0602 38.4194 37.14 38.7241 37.2225 39.0262C37.3162 39.3687 37.4131 39.7088 37.513 40.0442C37.547 40.1594 37.5815 40.2736 37.6165 40.3872C37.7304 40.758 37.8473 41.1246 37.9684 41.4861C38.0884 41.8461 38.212 42.2005 38.3382 42.5502C38.3774 42.6577 38.4165 42.7653 38.4557 42.8718C38.4954 42.9788 38.535 43.0848 38.5747 43.1903C39.1965 44.8315 39.88 46.3451 40.5853 47.6939C40.6167 47.7538 40.6486 47.8137 40.6801 47.8737H44.9902L44.593 45.3179L43.2944 45.28Z" fill="#C5DDF1"/>
<path d="M40.32 8.82032L40.3731 8.80957C40.4194 8.80035 40.4663 8.79113 40.5132 8.78191L40.5544 8.77423C40.6054 8.7645 40.6569 8.75426 40.7084 8.74505L40.7342 8.74044C40.7913 8.72968 40.8485 8.71944 40.9057 8.7092L40.9134 8.70766C40.9763 8.6964 41.0391 8.68513 41.102 8.67438L41.1076 8.67336C41.2369 8.65083 41.3673 8.62932 41.4976 8.60884C41.563 8.59859 41.6284 8.58835 41.6944 8.57862H41.6964C42.0194 7.91089 42.3501 7.26978 42.685 6.65735L42.6788 6.65786C42.617 6.66503 42.5552 6.67271 42.4934 6.68039L42.4779 6.68244C42.4176 6.69012 42.3574 6.6978 42.2976 6.706L42.2816 6.70804C42.1528 6.72494 42.0246 6.74286 41.8963 6.7613L41.8747 6.76437C41.8211 6.77205 41.768 6.78025 41.715 6.78844L41.666 6.79612C41.6217 6.80278 41.578 6.80994 41.5337 6.8166L41.4744 6.82582C41.4327 6.83248 41.391 6.83964 41.3492 6.8463L41.2926 6.85552C41.2405 6.86422 41.1885 6.87293 41.137 6.88215L41.1149 6.88573L41.0881 6.9354C41.0278 7.04959 40.9675 7.16481 40.9073 7.28105C40.6301 7.81718 40.3545 8.37943 40.0825 8.96267C40.0985 8.92837 40.1145 8.89303 40.1309 8.85872C40.1928 8.84592 40.2561 8.83312 40.32 8.82032Z" fill="#C5DDF1"/>
<path d="M46.4998 14.5509C46.6734 14.5509 46.814 14.4111 46.814 14.2385C46.814 14.0659 46.6734 13.9261 46.4998 13.9261C46.3262 13.9261 46.1855 14.0659 46.1855 14.2385C46.1855 14.4111 46.3267 14.5509 46.4998 14.5509Z" fill="#C5DDF1"/>
<path d="M46.4998 25.6663C46.6734 25.6663 46.814 25.5266 46.814 25.354C46.814 25.1814 46.6734 25.0416 46.4998 25.0416C46.3262 25.0416 46.1855 25.1814 46.1855 25.354C46.1855 25.5266 46.3267 25.6663 46.4998 25.6663Z" fill="#C5DDF1"/>
<path d="M52.0911 20.1089C52.2647 20.1089 52.4053 19.9691 52.4053 19.7965C52.4053 19.6239 52.2647 19.4841 52.0911 19.4841C51.9175 19.4841 51.7769 19.6239 51.7769 19.7965C51.7769 19.9691 51.9175 20.1089 52.0911 20.1089Z" fill="#C5DDF1"/>
<path d="M40.5947 19.7965C40.5947 19.9691 40.7354 20.1089 40.909 20.1089C41.0826 20.1089 41.2232 19.9691 41.2232 19.7965C41.2232 19.6239 41.0826 19.4841 40.909 19.4841C40.7354 19.4841 40.5947 19.6239 40.5947 19.7965Z" fill="#C5DDF1"/>
<path d="M50.6756 16.0876C50.7982 15.9657 50.7982 15.768 50.6756 15.6457C50.553 15.5238 50.3542 15.5238 50.2316 15.6457C50.109 15.7675 50.109 15.9652 50.2316 16.0876C50.3542 16.2095 50.553 16.2095 50.6756 16.0876Z" fill="#C5DDF1"/>
<path d="M42.3244 23.5054C42.2018 23.6273 42.2018 23.8249 42.3244 23.9468C42.447 24.0687 42.6458 24.0687 42.7684 23.9468C42.891 23.8249 42.891 23.6273 42.7684 23.5054C42.6458 23.3835 42.4465 23.3835 42.3244 23.5054Z" fill="#C5DDF1"/>
<path d="M50.6756 23.9473C50.7982 23.8254 50.7982 23.6278 50.6756 23.5059C50.553 23.384 50.3542 23.384 50.2316 23.5059C50.109 23.6278 50.109 23.8254 50.2316 23.9473C50.3542 24.0692 50.553 24.0692 50.6756 23.9473Z" fill="#C5DDF1"/>
<path d="M42.7684 15.6457C42.6458 15.5238 42.447 15.5238 42.3244 15.6457C42.2018 15.7675 42.2018 15.9652 42.3244 16.0876C42.447 16.2095 42.6458 16.2095 42.7684 16.0876C42.891 15.9652 42.891 15.7675 42.7684 15.6457Z" fill="#C5DDF1"/>
<path d="M50.9958 22.1715C50.2834 22.5489 49.47 22.7634 48.6066 22.7634C45.795 22.7634 43.5155 20.4975 43.5155 17.7027C43.5155 16.8439 43.7314 16.0359 44.111 15.3277C42.8557 15.9924 41.9135 17.1635 41.5606 18.5665L41.5596 18.5701C41.5462 18.6244 41.5333 18.6792 41.5215 18.7345L41.5194 18.7442C41.5142 18.7693 41.5091 18.7939 41.5039 18.8195L41.5024 18.8267C41.4972 18.8543 41.4916 18.882 41.4869 18.9096L41.4864 18.9122C41.4818 18.9378 41.4777 18.9634 41.4735 18.9895L41.4715 19.0043C41.4674 19.0294 41.4638 19.0545 41.4602 19.0801L41.4591 19.0858C41.4555 19.1124 41.4519 19.1395 41.4483 19.1662L41.4462 19.1836L41.439 19.2476L41.437 19.2681C41.4344 19.2947 41.4318 19.3208 41.4292 19.3474L41.4287 19.3561C41.4267 19.3802 41.4246 19.4043 41.4231 19.4288L41.4215 19.4498L41.4174 19.5164L41.4164 19.5318C41.4148 19.5584 41.4138 19.585 41.4128 19.6116L41.4122 19.6316L41.4107 19.6941L41.4102 19.7176C41.4097 19.7443 41.4097 19.7714 41.4097 19.798C41.4097 20.8242 41.7172 21.7792 42.2452 22.577C42.29 22.6451 42.3369 22.7117 42.3848 22.7772C42.4811 22.9083 42.5831 23.0348 42.6913 23.1557C42.7181 23.1859 42.7459 23.2161 42.7737 23.2458C42.8016 23.2755 42.8294 23.3047 42.8582 23.3339C42.8866 23.3625 42.9154 23.3917 42.9448 23.4199C42.9741 23.4481 43.0035 23.4762 43.0329 23.5039C43.0627 23.5315 43.0926 23.5587 43.1235 23.5853C43.1539 23.6124 43.1848 23.6385 43.2157 23.6647C43.2466 23.6908 43.2781 23.7164 43.31 23.742C43.4213 23.8311 43.5361 23.9156 43.6546 23.9949C43.6886 24.0175 43.7226 24.04 43.7571 24.062C43.8607 24.1276 43.9663 24.19 44.0745 24.2484C44.1466 24.2873 44.2197 24.3247 44.2939 24.36C44.3681 24.3954 44.4433 24.4292 44.5195 24.4614C44.5958 24.4937 44.6725 24.5239 44.7508 24.5521C44.8286 24.5807 44.908 24.6074 44.9873 24.6314C45.4653 24.7794 45.9743 24.8588 46.5013 24.8588C46.5286 24.8588 46.5554 24.8588 46.5821 24.8583L46.6058 24.8578L46.6692 24.8562L46.6893 24.8557C46.7161 24.8547 46.7429 24.8537 46.7697 24.8521L46.7851 24.8511L46.8521 24.847L46.8727 24.8455C46.8974 24.8439 46.9216 24.8419 46.9463 24.8399L46.9546 24.8388C46.9814 24.8368 47.0082 24.8337 47.0344 24.8311L47.055 24.8291L47.1194 24.8219L47.1369 24.8199C47.1637 24.8163 47.191 24.8127 47.2178 24.8091L47.2225 24.8086C47.2482 24.805 47.2735 24.8009 47.2992 24.7974L47.3142 24.7953C47.3399 24.7912 47.3657 24.7871 47.3914 24.7825L47.395 24.782C47.4228 24.7774 47.4507 24.7717 47.4785 24.7666L47.4852 24.7656C47.5104 24.7605 47.5357 24.7559 47.5614 24.7502L47.5707 24.7482C47.6263 24.7364 47.6814 24.7236 47.7366 24.7103L47.7391 24.7098C49.1491 24.3565 50.3272 23.4194 50.9958 22.1715Z" fill="#24488E"/>
<path d="M48.5801 30.2719H44.4204L43.8501 40.526L44.5934 45.3179L44.9896 47.8726L45.3883 50.4411L45.7309 52.6492H47.2696L47.6121 50.4411L48.0103 47.8726L48.391 45.4183L49.1503 40.526L48.5801 30.2719Z" fill="#AA3324"/>
<path d="M46.0364 52.515H46.9632L48.0949 40.5762L48.4772 30.4788H44.5225L44.9047 40.5762L46.0364 52.515Z" fill="#D34734"/>
<path d="M76.0932 78.7523C76.12 78.7298 76.5486 78.3826 76.7433 78.2402H75.6167C75.7841 78.4031 75.9433 78.5736 76.0932 78.7523Z" fill="#356EB5"/>
</g>
<defs>
<clipPath id="clip0_218_76">
<rect width="93" height="100" fill="white"/>
</clipPath>
</defs>
</svg>
