<svg width="36" height="36" viewBox="0 0 36 36" fill="none" xmlns="http://www.w3.org/2000/svg">
<circle cx="18" cy="18" r="18" fill="url(#paint0_linear_118_1546)"/>
<g clip-path="url(#clip0_118_1546)">
<path d="M18.0927 18.721C18.5111 18.3025 18.9296 17.884 19.2958 17.5178C19.4527 17.3609 19.6096 17.3086 19.8189 17.3086C21.3882 17.3609 22.8005 18.721 22.8005 20.2903C22.8005 21.1272 22.8005 21.9642 22.8005 22.8011C22.8005 22.9581 22.6959 23.115 22.5913 23.2196C21.0743 24.3704 19.3481 24.8412 17.4649 24.6843C16.0526 24.5797 14.7971 24.0566 13.6463 23.2196C13.4894 23.0627 13.3848 22.9058 13.3848 22.6965C13.3848 21.9119 13.3848 21.0749 13.3848 20.2903C13.3848 18.721 14.6925 17.3609 16.3141 17.2563C16.5757 17.2563 16.7849 17.3086 16.9418 17.5178C17.308 17.9363 17.6742 18.3025 18.0927 18.721Z" fill="white"/>
<path d="M18.0932 16.8901C16.5762 16.8901 15.373 15.6347 15.373 14.1177C15.373 12.6007 16.6285 11.3976 18.1455 11.3976C19.6625 11.3976 20.8656 12.653 20.8656 14.17C20.8133 15.687 19.6101 16.8901 18.0932 16.8901Z" fill="white"/>
<path d="M19.9764 27.2998C23.1149 26.5674 25.4166 24.7889 26.7243 21.8595C26.8289 21.6503 26.9336 21.3887 26.9859 21.1795C27.0905 20.8656 27.2997 20.761 27.509 20.8656C27.7182 20.9703 27.8228 21.1795 27.7182 21.4411C26.6197 24.4227 24.6319 26.5151 21.6503 27.6659C21.1795 27.8229 20.7087 27.9275 20.2379 28.0844C20.081 28.1367 20.0287 28.189 19.9764 28.346C19.7671 29.2875 18.9302 29.9676 17.9886 29.9153C17.047 29.863 16.2623 29.1306 16.1577 28.189C16.0531 27.2475 16.6285 26.3582 17.5701 26.0966C18.4594 25.8351 19.4533 26.2536 19.8717 27.1428C19.8717 27.0905 19.924 27.1951 19.9764 27.2998Z" fill="white"/>
<path d="M8.88632 19.9241C9.35711 22.0165 10.351 23.7427 11.9726 25.1551C12.8619 25.9397 13.9081 26.5152 15.0066 26.9336C15.0589 26.9336 15.1112 26.9859 15.1635 26.9859C15.3728 27.0906 15.4774 27.2998 15.3728 27.509C15.3204 27.7183 15.1112 27.8229 14.8497 27.7183C13.9604 27.4044 13.1234 27.0383 12.3388 26.4628C10.1418 24.9459 8.72939 22.8535 8.15398 20.1857C8.10167 20.0287 8.10167 19.9764 7.89243 19.9241C6.95086 19.7149 6.27083 18.8779 6.32314 17.884C6.37545 16.9424 7.10779 16.1578 8.04936 16.0532C8.99094 15.9486 9.88021 16.524 10.1418 17.4655C10.4033 18.4071 9.98483 19.3487 9.09556 19.7672C9.04325 19.8718 8.93863 19.9241 8.88632 19.9241Z" fill="white"/>
<path d="M16.2098 8.88669C14.1174 9.35748 12.3388 10.3514 10.9265 11.973C10.1418 12.8622 9.5664 13.9084 9.20023 15.007C9.09561 15.2685 8.93868 15.4254 8.72944 15.3731C8.46789 15.3208 8.31096 15.0593 8.41558 14.7977C8.67713 13.9608 9.09561 13.1761 9.5664 12.3915C11.1357 10.1421 13.2281 8.72976 15.8959 8.10204C16.0528 8.04973 16.1051 7.99742 16.1575 7.84049C16.3667 6.89891 17.2037 6.21889 18.1975 6.2712C19.1391 6.32351 19.9238 7.05584 20.0284 8.04973C20.133 8.99131 19.5053 9.88058 18.616 10.1421C17.6744 10.4037 16.7329 9.9852 16.3144 9.09593C16.3144 9.04362 16.2621 8.939 16.2098 8.88669Z" fill="white"/>
<path d="M27.2996 16.2101C27.0903 15.0593 26.6195 14.0131 25.9918 13.0192C24.841 11.2407 23.2194 9.9329 21.2316 9.25287C21.1793 9.25287 21.127 9.20056 21.0747 9.20056C20.8654 9.09594 20.7608 8.93901 20.8131 8.72977C20.8654 8.52054 21.0747 8.41592 21.3362 8.46823C22.3301 8.78208 23.2194 9.25287 24.0564 9.88059C26.1487 11.3976 27.4565 13.4377 28.0319 16.0009C28.0842 16.1578 28.1365 16.2101 28.2935 16.2624C29.235 16.4716 29.9151 17.3086 29.8628 18.2502C29.8104 19.1918 29.0781 19.9764 28.0842 20.081C27.1426 20.1856 26.2534 19.5579 25.9918 18.6163C25.7303 17.6748 26.2011 16.7332 27.0903 16.3147C27.1949 16.2624 27.2473 16.2101 27.2996 16.2101Z" fill="white"/>
</g>
<defs>
<linearGradient id="paint0_linear_118_1546" x1="18" y1="0" x2="18" y2="36" gradientUnits="userSpaceOnUse">
<stop stop-color="#009DB8"/>
<stop offset="1" stop-color="#03C587"/>
</linearGradient>
<clipPath id="clip0_118_1546">
<rect width="23.5395" height="23.4872" fill="white" transform="translate(6.32324 6.32349)"/>
</clipPath>
</defs>
</svg>
