<svg width="52" height="30" viewBox="0 0 52 30" fill="none" xmlns="http://www.w3.org/2000/svg">
<path fill-rule="evenodd" clip-rule="evenodd" d="M1.07487 27.8429H6.40267C6.00911 27.7407 5.71289 27.3748 5.71289 26.9494V0.923273C5.71289 0.416962 6.1276 0 6.63119 0H45.1276C45.6312 0 46.0459 0.416962 46.0459 0.923273V26.9451C46.0459 27.3748 45.7539 27.7365 45.3561 27.8386H50.9251C51.5176 27.8386 52 28.3236 52 28.9193C52 29.515 51.5176 30 50.9251 30H1.07487C0.482422 30 0 29.515 0 28.9193C0 28.3279 0.482422 27.8429 1.07487 27.8429ZM19.5085 21.4821C19.6608 21.6608 19.6397 21.9288 19.4619 22.082C19.2842 22.2351 19.0176 22.2139 18.8652 22.0352C17.0371 19.8865 16.0934 17.4528 16.1146 14.9936C16.1357 12.5897 17.071 10.173 18.988 7.96908C19.1403 7.79464 19.4069 7.77762 19.5846 7.92653C19.7581 8.0797 19.7751 8.3435 19.627 8.52645C17.8496 10.5687 16.9821 12.7982 16.9652 14.9979C16.944 17.2529 17.8115 19.4909 19.5085 21.4821ZM21.7174 19.4143C21.874 19.5887 21.8571 19.8568 21.6836 20.0142C21.5101 20.1716 21.2435 20.1546 21.0869 19.9801C19.682 18.3804 18.9583 16.687 18.9837 14.9681C19.0133 13.296 19.7497 11.6196 21.2477 10.0199C21.4085 9.84967 21.6751 9.84116 21.8444 10.0028C22.0137 10.1645 22.0221 10.4326 21.8613 10.6028C20.5114 12.0451 19.847 13.5257 19.8216 14.9809C19.8005 16.4828 20.4479 17.9847 21.709 19.4228L21.7174 19.4143ZM23.6768 17.4443C23.8206 17.623 23.7995 17.8911 23.6133 18.04C23.4355 18.1847 23.1689 18.1634 23.0208 17.9762C22.2633 17.0401 21.8698 16.019 21.8613 14.9851C21.8571 13.9767 22.2337 12.9641 23.0039 12.0153C23.1478 11.8366 23.4144 11.8068 23.5964 11.9515C23.7741 12.0962 23.8037 12.3642 23.6598 12.5472C23.0166 13.3385 22.7035 14.1725 22.7035 14.9809C22.7035 15.8148 23.0378 16.653 23.6683 17.4358L23.6768 17.4443ZM33.1348 22.0309C32.9824 22.2096 32.7158 22.2309 32.5381 22.0777C32.3604 21.9245 32.3392 21.6608 32.4915 21.4778C34.1885 19.4866 35.0602 17.2444 35.0391 14.9936C35.0221 12.7939 34.1546 10.5645 32.3773 8.52219C32.2249 8.34775 32.2461 8.07971 32.4196 7.92228C32.5931 7.76911 32.8597 7.79038 33.0163 7.96483C34.9333 10.173 35.8643 12.5854 35.8896 14.9894C35.9108 17.4528 34.9671 19.8865 33.1348 22.0309ZM30.9173 19.9716C30.7607 20.1461 30.4941 20.1631 30.3206 20.0057C30.1471 19.8482 30.1302 19.5802 30.2868 19.4058C31.5563 17.9677 32.1953 16.4657 32.1742 14.9638C32.153 13.5045 31.4844 12.0238 30.1344 10.5857C29.9736 10.4155 29.9821 10.1475 30.1514 9.98582C30.3206 9.82414 30.5872 9.83265 30.748 10.0028C32.2461 11.6026 32.9824 13.2747 33.012 14.9511C33.0417 16.67 32.3223 18.3634 30.9089 19.9631L30.9173 19.9716ZM28.9834 17.9762C28.8395 18.1549 28.5729 18.1847 28.3909 18.04C28.2132 17.8953 28.1836 17.6273 28.3275 17.4443C28.9622 16.6572 29.2923 15.819 29.2923 14.9894C29.2923 14.1725 28.9834 13.347 28.3359 12.5557C28.1921 12.377 28.2132 12.1089 28.3994 11.96C28.5771 11.8153 28.8438 11.8366 28.9919 12.0238C29.762 12.9726 30.1387 13.9853 30.1344 14.9936C30.1302 16.0318 29.7367 17.0444 28.9749 17.9847L28.9834 17.9762ZM25.9915 16.5679C25.8561 16.5679 25.7165 16.5551 25.5811 16.5338C25.3652 16.4743 25.1621 16.3679 24.9928 16.2275C24.9548 16.1934 24.9167 16.1594 24.8786 16.1254C24.5908 15.8361 24.4173 15.4404 24.4173 14.9979C24.4173 14.5554 24.5951 14.1597 24.8786 13.8704C25.1663 13.5811 25.5599 13.4066 26 13.4066C26.4401 13.4066 26.8337 13.5853 27.1214 13.8704C27.4092 14.1597 27.5827 14.5554 27.5827 14.9979C27.5827 15.2446 27.5277 15.4744 27.4303 15.6786C27.1595 16.27 26.639 16.5679 25.9915 16.5679ZM7.28288 1.4466H44.6029V26.6856H7.28288V1.4466ZM24.4893 28.2471H27.5107C27.7943 28.2471 28.027 28.4811 28.027 28.7661C28.027 29.0512 27.7943 29.2852 27.5107 29.2852H24.4893C24.2057 29.2852 23.973 29.0512 23.973 28.7661C23.973 28.4768 24.2057 28.2471 24.4893 28.2471Z" fill="#03C587"/>
</svg>
