<svg width="81" height="80" viewBox="0 0 81 80" fill="none" xmlns="http://www.w3.org/2000/svg">
<path fill-rule="evenodd" clip-rule="evenodd" d="M43.7652 69.3395H58.2078C59.368 68.1893 60.6402 66.9931 61.9322 65.7772C64.6414 63.2205 67.4693 60.5521 70.3763 57.2133C73.6986 53.3947 74.0545 52.0736 75.0631 48.3339C75.2542 47.6306 75.4652 46.8419 75.742 45.8626L77.4691 39.8094L77.4888 39.7437C78.4117 37.049 78.4842 35.2678 78.1019 34.2425C77.9832 33.927 77.8316 33.7167 77.6536 33.605C77.5152 33.513 77.3306 33.4801 77.1395 33.4998C76.6912 33.5458 76.1837 33.8285 75.7222 34.3345L70.5938 46.5133C70.5477 46.625 70.4818 46.7302 70.4092 46.8222C70.106 47.3677 69.6973 47.9001 69.17 48.4062L60.0733 58.5212C59.5789 59.0733 58.7286 59.1193 58.1815 58.6264C57.6278 58.1334 57.5816 57.2856 58.076 56.7401L67.1793 46.625C67.2188 46.579 67.2584 46.533 67.3045 46.4936C68.2471 45.5997 68.5438 44.6336 68.379 43.9303C68.3262 43.7134 68.234 43.5294 68.1021 43.4045C67.9769 43.2862 67.8121 43.2139 67.6077 43.1942C66.7969 43.1088 65.6038 43.7069 64.147 45.4223C64.1075 45.4683 64.0613 45.5143 64.0152 45.5603L60.4886 48.6625L60.4688 48.6822C56.6522 52.2839 55.0108 53.1383 52.0181 54.696C51.3919 55.0246 50.7064 55.3796 49.856 55.8396C49.5198 56.0237 49.1903 56.2471 48.8673 56.4903C48.5245 56.7532 48.1949 57.0227 47.8851 57.2856C46.303 58.6132 45.4725 59.6911 44.9979 60.8807C44.5035 62.1163 44.3255 63.6214 44.0816 65.6852C43.9827 66.5199 43.9102 67.3414 43.8509 68.163C43.8048 68.5573 43.785 68.9517 43.7652 69.3395ZM40.4891 0L18.4197 21.5511L23.8052 24.3707L40.3441 7.05225L57.1729 24.3707L62.5584 21.5511L40.4891 0ZM25.908 24.9359L40.5154 10.3648L55.0767 24.9359V40.1314H44.6881V29.3986H36.1978V40.1314H25.908V24.9359ZM37.213 69.3329H22.7637C21.6036 68.1827 20.3314 66.9865 19.0394 65.7706C16.3301 63.2139 13.5023 60.5455 10.5953 57.2067C7.27301 53.3881 6.91706 52.067 5.90851 48.3273C5.71735 47.6241 5.50641 46.8354 5.22955 45.8561L3.5025 39.8028L3.48273 39.7371C2.55988 37.0424 2.48737 35.2613 2.86969 34.236C2.98834 33.9205 3.13996 33.7102 3.31793 33.5984C3.45636 33.5064 3.64093 33.4735 3.83209 33.4933C4.28034 33.5393 4.7879 33.8219 5.24933 34.328L10.3777 46.5067C10.4239 46.6185 10.4898 46.7236 10.5623 46.8156C10.8655 47.3612 11.2742 47.8935 11.8016 48.3996L20.8983 58.5146C21.3926 59.0667 22.243 59.1127 22.7901 58.6198C23.3438 58.1268 23.39 57.279 22.8956 56.7335L13.8055 46.6119C13.7659 46.5659 13.7264 46.5199 13.6802 46.4804C12.7376 45.5866 12.441 44.6204 12.6058 43.9172C12.6585 43.7003 12.7508 43.5163 12.8826 43.3914C13.0079 43.2731 13.1727 43.2008 13.377 43.1811C14.1878 43.0956 15.3875 43.6937 16.8377 45.4091C16.8377 45.4091 16.963 45.534 16.9761 45.5472L20.5028 48.6494L20.5225 48.6691C24.3392 52.2708 25.9805 53.1252 28.9732 54.6829C29.5994 55.0115 30.285 55.3664 31.1353 55.8265C31.4715 56.0105 31.8011 56.234 32.1241 56.4772C32.4669 56.7401 32.7965 57.0095 33.1063 57.2724C34.6883 58.6001 35.5189 59.6779 35.9935 60.8676C36.4879 62.1032 36.6658 63.6083 36.9097 65.672C37.0086 66.5067 37.0811 67.3283 37.1404 68.1498C37.1734 68.5573 37.1932 68.9517 37.213 69.3329ZM19.4019 69.7995C19.1976 70.0361 19.0723 70.3451 19.0723 70.6802V78.6592C19.0723 79.4019 19.6788 80 20.4171 80H38.5972C39.3421 80 39.942 79.3953 39.942 78.6592V70.6014C39.942 69.747 39.8892 68.8268 39.8299 67.9724C39.7706 67.0983 39.6915 66.2307 39.5926 65.3697C39.3289 63.1153 39.1312 61.4657 38.4984 59.8817C37.8458 58.2583 36.7977 56.8584 34.8531 55.2218C34.4971 54.9195 34.1346 54.6171 33.7523 54.3345C33.3502 54.0322 32.9151 53.743 32.4273 53.4735C31.6363 53.0463 30.898 52.6586 30.2257 52.3036C27.4571 50.8577 25.941 50.069 22.3748 46.7039C22.3485 46.6776 22.3155 46.6513 22.2891 46.6316L18.8482 43.6017C16.7454 41.1502 14.6888 40.3352 13.1133 40.5061H13.1068C12.3355 40.5849 11.6763 40.8873 11.149 41.3474L7.67511 33.0923H7.66852C7.61579 32.974 7.54987 32.8623 7.46417 32.7571C6.50177 31.607 5.28229 30.9366 4.11554 30.8183C3.31793 30.7394 2.54669 30.9103 1.87433 31.3441C1.23493 31.7581 0.707582 32.4022 0.377992 33.2895C-0.202086 34.834 -0.188903 37.233 0.944887 40.5521L2.65875 46.5659C2.90924 47.4335 3.12677 48.2682 3.33112 49.0043C4.45172 53.1778 4.84723 54.6566 8.58478 58.9418C11.5445 62.3398 14.4383 65.0739 17.22 67.6898C17.9385 68.4062 18.6636 69.0897 19.4019 69.7995ZM21.9727 72.021C22.1507 72.0605 22.3353 72.0605 22.5198 72.021H37.2459V77.3184H21.7618V72.021H21.9727ZM61.5762 69.7995C61.7806 70.0361 61.9058 70.3451 61.9058 70.6802V78.6592C61.9058 79.4019 61.306 80 60.5611 80H42.3875C41.6426 80 41.0428 79.3953 41.0428 78.6592V70.6014C41.0428 70.5554 41.0428 70.5028 41.0494 70.4568C41.0692 69.5958 41.1021 68.7611 41.1549 67.9724C41.2142 67.0983 41.2933 66.2307 41.3922 65.3697C41.6558 63.1153 41.8536 61.4657 42.4864 59.8817C43.139 58.2583 44.1871 56.8584 46.1317 55.2218C46.4876 54.9195 46.8502 54.6171 47.2325 54.3345C47.6346 54.0322 48.0696 53.743 48.5574 53.4735C49.3485 53.0463 50.0867 52.6586 50.7591 52.3036C53.5277 50.8577 55.0438 50.069 58.6099 46.7039C58.6363 46.6776 58.6693 46.6513 58.6956 46.6316L62.1365 43.6017C64.2393 41.1502 66.296 40.3352 67.8714 40.5061H67.878C68.6492 40.5849 69.3084 40.8873 69.8358 41.3474L73.3096 33.0923H73.3162C73.369 32.974 73.4349 32.8623 73.5206 32.7571C74.483 31.607 75.7025 30.9366 76.8692 30.8183C77.6668 30.7394 78.4381 30.9103 79.1104 31.3441C79.7498 31.7581 80.2772 32.4022 80.6068 33.2895C81.1868 34.834 81.1737 37.233 80.0399 40.5521L78.326 46.5659C78.0755 47.4335 77.858 48.2682 77.6536 49.0043C76.533 53.1778 76.1375 54.6566 72.4 58.9418C69.4403 62.3398 66.5465 65.0739 63.7647 67.6898C63.0396 68.4062 62.3145 69.0897 61.5762 69.7995ZM59.0054 72.021C58.8275 72.0605 58.6429 72.0605 58.4583 72.021H43.7322V77.3184H59.2164V72.021H59.0054Z" fill="#009DB8"/>
</svg>
