<svg width="91" height="80" viewBox="0 0 91 80" fill="none" xmlns="http://www.w3.org/2000/svg">
<g clip-path="url(#clip0_319_329)">
<path d="M40.2198 61.0477H50.7802C51.2838 61.0477 51.6911 61.4571 51.6911 61.9633V77.8561C64.0807 77.8561 76.4702 77.8561 88.8672 77.8561V24.9446H66.3023V77.8561H64.1695V2.14385H26.6602V77.8487H24.5273V24.9446H2.13281V77.8561H39.3089V61.9633C39.3089 61.4571 39.7162 61.0477 40.2198 61.0477ZM43.3154 6.76654H47.6772C48.4919 6.76654 49.1584 7.43649 49.1584 8.25533V14.7911H55.6605C56.4751 14.7911 57.1416 15.4611 57.1416 16.2799V20.6644C57.1416 21.4832 56.4751 22.1532 55.6605 22.1532H49.1584V28.6889C49.1584 29.5078 48.4919 30.1777 47.6772 30.1777H43.3154C42.5007 30.1777 41.8342 29.5078 41.8342 28.6889V22.1532H35.3321C34.5175 22.1532 33.851 21.4832 33.851 20.6644V16.2799C33.851 15.4611 34.5175 14.7911 35.3321 14.7911H41.8342V8.25533C41.8342 7.43649 42.5007 6.76654 43.3154 6.76654ZM1.06641 80C0.473958 80 0 79.5161 0 78.9281V24.3715C0 23.5005 0.703532 22.8008 1.56999 22.8008H24.5273V1.88332C24.5273 1.36968 24.7347 0.900716 25.0754 0.558295C25.0754 0.297758 26.1344 0 26.401 0H64.4287C64.9471 0 65.4137 0.20843 65.7543 0.550851C66.1024 0.94538 66.3023 1.33991 66.3023 1.88332V22.7933H89.4226C90.2817 22.7933 90.9926 23.508 90.9926 24.3715V78.9281C90.9926 79.5236 90.5112 80 89.9262 80C60.3112 80 30.6888 80 1.06641 80ZM41.1307 77.8561H49.8693V62.8789H41.1307V77.8561ZM71.9454 52.852H83.7203C83.8166 52.852 83.898 52.9115 83.898 52.9785V56.4772C83.898 56.5442 83.8166 56.6111 83.7203 56.6111H71.9454C71.8491 56.6111 71.7677 56.5516 71.7677 56.4772V52.9785C71.7677 52.9115 71.8491 52.852 71.9454 52.852ZM7.19084 52.852H18.9657C19.062 52.852 19.1435 52.9115 19.1435 52.9785V56.4772C19.1435 56.5442 19.062 56.6111 18.9657 56.6111H7.19084C7.09456 56.6111 7.0131 56.5516 7.0131 56.4772V52.9785C7.0131 52.9115 7.09456 52.852 7.19084 52.852ZM71.9454 45.207H83.7203C83.8166 45.207 83.898 45.2666 83.898 45.341V48.8397C83.898 48.9141 83.8166 48.9662 83.7203 48.9662H71.9454C71.8491 48.9662 71.7677 48.9067 71.7677 48.8397V45.341C71.7677 45.2591 71.8491 45.207 71.9454 45.207ZM71.9454 37.5547H83.7203C83.8166 37.5547 83.898 37.6142 83.898 37.6887V41.1873C83.898 41.2543 83.8166 41.3139 83.7203 41.3139H71.9454C71.8491 41.3139 71.7677 41.2543 71.7677 41.1873V37.6887C71.7677 37.6142 71.8491 37.5547 71.9454 37.5547ZM7.19084 45.207H18.9657C19.062 45.207 19.1435 45.2666 19.1435 45.341V48.8397C19.1435 48.9141 19.062 48.9662 18.9657 48.9662H7.19084C7.09456 48.9662 7.0131 48.9067 7.0131 48.8397V45.341C7.0131 45.2591 7.09456 45.207 7.19084 45.207ZM7.19084 37.5547H18.9657C19.062 37.5547 19.1435 37.6142 19.1435 37.6887V41.1873C19.1435 41.2543 19.062 41.3139 18.9657 41.3139H7.19084C7.09456 41.3139 7.0131 41.2543 7.0131 41.1873V37.6887C7.0131 37.6142 7.09456 37.5547 7.19084 37.5547ZM53.0759 49.3459H59.3633C59.4596 49.3459 59.541 49.4277 59.541 49.5245V55.8444C59.541 55.9412 59.4596 56.0231 59.3633 56.0231H53.0759C52.9797 56.0231 52.8982 55.9412 52.8982 55.8444V49.5245C52.8982 49.4203 52.9797 49.3459 53.0759 49.3459ZM42.2712 49.3459H48.5585C48.6548 49.3459 48.7362 49.4277 48.7362 49.5245V55.8444C48.7362 55.9412 48.6548 56.0231 48.5585 56.0231H42.2712C42.1749 56.0231 42.0934 55.9412 42.0934 55.8444V49.5245C42.0934 49.4203 42.1749 49.3459 42.2712 49.3459ZM31.4664 49.3459H37.7537C37.8574 49.3459 37.9315 49.4277 37.9315 49.5245V55.8444C37.9315 55.9412 37.85 56.0231 37.7537 56.0231H31.4664C31.3701 56.0231 31.2887 55.9412 31.2887 55.8444V49.5245C31.2887 49.4203 31.3701 49.3459 31.4664 49.3459ZM53.0759 37.0783H59.3633C59.4596 37.0783 59.541 37.1601 59.541 37.2569V43.5768C59.541 43.6736 59.4596 43.7555 59.3633 43.7555H53.0759C52.9797 43.7555 52.8982 43.6736 52.8982 43.5768V37.2569C52.8982 37.1601 52.9797 37.0783 53.0759 37.0783ZM42.2712 37.0783H48.5585C48.6548 37.0783 48.7362 37.1601 48.7362 37.2569V43.5768C48.7362 43.6736 48.6548 43.7555 48.5585 43.7555H42.2712C42.1749 43.7555 42.0934 43.6736 42.0934 43.5768V37.2569C42.0934 37.1601 42.1749 37.0783 42.2712 37.0783ZM31.4664 37.0783H37.7537C37.8574 37.0783 37.9315 37.1601 37.9315 37.2569V43.5768C37.9315 43.6736 37.85 43.7555 37.7537 43.7555H31.4664C31.3701 43.7555 31.2887 43.6736 31.2887 43.5768V37.2569C31.2887 37.1601 31.3701 37.0783 31.4664 37.0783Z" fill="#009DB8"/>
</g>
<defs>
<clipPath id="clip0_319_329">
<rect width="91" height="80" fill="white"/>
</clipPath>
</defs>
</svg>
