<svg width="47" height="47" viewBox="0 0 47 47" fill="none" xmlns="http://www.w3.org/2000/svg">
<circle cx="23.5" cy="23.5" r="23.5" fill="url(#paint0_linear_244_22)"/>
<path d="M35 24C35 30.6274 29.6274 36 23 36C16.3726 36 11 30.6274 11 24C11 17.3726 16.3726 12 23 12C29.6274 12 35 17.3726 35 24ZM13.1893 24C13.1893 29.4183 17.5817 33.8108 23 33.8108C28.4183 33.8108 32.8108 29.4183 32.8108 24C32.8108 18.5817 28.4183 14.1893 23 14.1893C17.5817 14.1893 13.1893 18.5817 13.1893 24Z" fill="white"/>
<path d="M23.0001 16.3636C22.3976 16.3636 21.9092 16.8521 21.9092 17.4546V24.5091C21.9092 24.5091 21.9092 24.7935 22.0474 25.0075C22.1399 25.1889 22.2841 25.3465 22.4736 25.4559L27.5134 28.3657C28.0352 28.6669 28.7024 28.4881 29.0036 27.9663C29.3048 27.4446 29.1261 26.7774 28.6043 26.4762L24.091 23.8704V17.4546C24.091 16.8521 23.6026 16.3636 23.0001 16.3636Z" fill="white"/>
<defs>
<linearGradient id="paint0_linear_244_22" x1="23.5" y1="0" x2="23.5" y2="47" gradientUnits="userSpaceOnUse">
<stop stop-color="#009DB8"/>
<stop offset="1" stop-color="#03C587"/>
</linearGradient>
</defs>
</svg>
