<svg width="27" height="35" viewBox="0 0 27 35" fill="none" xmlns="http://www.w3.org/2000/svg">
<path fill-rule="evenodd" clip-rule="evenodd" d="M13.4858 30.8842C14.1135 30.8842 14.6219 31.394 14.6219 32.0235C14.6219 32.653 14.1135 33.1628 13.4858 33.1628C12.8581 33.1628 12.3497 32.653 12.3497 32.0235C12.3497 31.394 12.8581 30.8842 13.4858 30.8842ZM6.14643 19.2204C6.12939 19.1862 6.10951 19.1549 6.08679 19.1235C5.98738 18.9612 5.88797 18.7988 5.78855 18.6137C5.68914 18.4143 5.58973 18.2263 5.50168 18.0526C5.41363 17.8646 5.32842 17.6652 5.25458 17.4658C5.19209 17.2921 5.11824 17.0927 5.04439 16.8563C4.93362 16.5202 4.62119 16.3094 4.28603 16.3094H2.13591C2.06207 16.3094 1.98822 16.298 1.93709 16.2724C1.88881 16.2467 1.82632 16.2097 1.7894 16.1613C1.74111 16.11 1.70135 16.0616 1.67862 16.0132C1.65306 15.9648 1.6417 15.8879 1.6417 15.8138V13.0965C1.6417 13.0225 1.65306 12.9598 1.66726 12.9085C1.69283 12.8573 1.72975 12.7974 1.79224 12.7348C1.84052 12.6864 1.89165 12.6465 1.93993 12.6351C1.99106 12.6095 2.06491 12.5981 2.13875 12.5981H4.11277C4.51041 12.5981 4.83421 12.3104 4.90806 11.9373C4.95634 11.7265 5.00747 11.5271 5.05575 11.3505C5.11824 11.1511 5.18073 10.9631 5.25458 10.7638C5.32842 10.5758 5.40227 10.3764 5.50168 10.1912C5.58973 9.99186 5.68914 9.81812 5.77435 9.64437C5.94761 9.31966 5.88513 8.94653 5.63802 8.69873L4.09857 7.14071C4.08721 7.12931 4.08721 7.12931 4.07301 7.12931C4.02472 7.08089 3.98496 7.02962 3.96223 6.9812C3.93667 6.93278 3.93667 6.88151 3.93667 6.80745C3.93667 6.7334 3.94803 6.67074 3.9736 6.61947C3.99916 6.5568 4.03608 6.50838 4.09857 6.44572L5.99874 4.5516C6.06122 4.48893 6.10951 4.4519 6.172 4.42627C6.22312 4.40064 6.28277 4.38924 6.35946 4.38924C6.43331 4.38924 6.49579 4.40064 6.54692 4.42627C6.59804 4.4519 6.65769 4.48893 6.70882 4.53735H6.72018L8.12329 5.94442C8.39596 6.21786 8.83053 6.25488 9.14296 6.03272C9.30486 5.93302 9.46676 5.83333 9.65138 5.73364C9.8502 5.63395 10.0377 5.53426 10.2109 5.44596C10.3984 5.35767 10.5972 5.27222 10.796 5.19816C10.9693 5.1355 11.1681 5.06144 11.4039 4.98739C11.739 4.8763 11.9492 4.56299 11.9492 4.22689V2.06787C11.9492 1.99382 11.9606 1.91976 11.9861 1.86849C12.0117 1.82007 12.0486 1.7688 12.0855 1.72038C12.1367 1.67196 12.1849 1.63208 12.2332 1.62069C12.2815 1.59505 12.3582 1.58366 12.432 1.58366H14.3407H14.3635H14.5594C14.6333 1.58366 14.7071 1.59505 14.7583 1.62069C14.8065 1.63208 14.8577 1.67196 14.906 1.72038C14.9429 1.7688 14.9798 1.82007 15.0054 1.86849C15.0309 1.91691 15.0423 1.99382 15.0423 2.06787V4.22404C15.0423 4.56014 15.2525 4.87061 15.5876 4.98454C15.8234 5.05859 16.0222 5.13265 16.1955 5.19531C16.3943 5.26937 16.5931 5.35767 16.7806 5.44312C16.9538 5.53141 17.1413 5.6311 17.3401 5.73079C17.5276 5.83049 17.6866 5.93018 17.8485 6.02987C18.1581 6.25488 18.5927 6.21786 18.8682 5.94157L20.2713 4.53451H20.2827C20.331 4.48608 20.3934 4.44621 20.4446 4.42342C20.4928 4.39779 20.5553 4.38639 20.632 4.38639C20.7059 4.38639 20.7684 4.39779 20.8195 4.42342C20.882 4.44906 20.9303 4.48608 20.9927 4.54875L22.8929 6.44287C22.9554 6.50553 22.9923 6.55396 23.0179 6.61662C23.0434 6.66504 23.0548 6.7277 23.0548 6.80461C23.0548 6.87866 23.0548 6.92993 23.0292 6.97835C23.0037 7.02962 22.9668 7.07804 22.9185 7.12647C22.9071 7.12647 22.9071 7.12647 22.8929 7.13786L21.3535 8.69588C21.1064 8.94369 21.0439 9.31966 21.2171 9.64152C21.3052 9.81527 21.4046 9.98901 21.4898 10.1884C21.5892 10.3764 21.6631 10.5758 21.7369 10.7609C21.8108 10.9603 21.8732 11.1483 21.9357 11.3477C21.984 11.5214 22.0351 11.7208 22.0834 11.9344C22.1573 12.3075 22.4811 12.5952 22.8787 12.5952H24.8527C24.9266 12.5952 25.0004 12.6066 25.0515 12.6322C25.0998 12.6436 25.151 12.6807 25.1992 12.7319C25.2617 12.7946 25.2987 12.8573 25.3242 12.9057C25.3356 12.9541 25.3498 13.0168 25.3498 13.0937V15.811C25.3498 15.885 25.3384 15.9591 25.3129 16.0103C25.2873 16.0616 25.2504 16.11 25.2021 16.1584C25.1652 16.2069 25.1027 16.2467 25.0544 16.2695C25.0033 16.2952 24.9294 16.3066 24.8556 16.3066H22.7055C22.3703 16.3066 22.0607 16.5173 21.9471 16.8534C21.8732 17.0898 21.7994 17.2892 21.7369 17.463C21.6631 17.6624 21.575 17.8617 21.4898 18.0497C21.4017 18.2235 21.3023 18.4115 21.2029 18.6108C21.1035 18.7988 21.0041 18.9612 20.9047 19.1207C20.882 19.152 20.8621 19.1834 20.845 19.2175H22.7253C22.8049 19.058 22.8844 18.8871 22.9668 18.7105C23.0662 18.4855 23.1656 18.2633 23.2536 18.0383C23.265 18.0013 23.2906 17.95 23.3048 17.913H24.8953C25.1822 17.913 25.4549 17.8646 25.702 17.7649C25.9491 17.6652 26.1877 17.5028 26.3865 17.3035C26.5853 17.1041 26.7472 16.8791 26.8466 16.617C26.946 16.355 26.9943 16.0929 26.9943 15.8081V13.0937C26.9943 12.8202 26.9318 12.5468 26.8324 12.2961C26.733 12.0483 26.5853 11.8233 26.3865 11.6239L26.3751 11.6125C26.1763 11.4132 25.9519 11.2508 25.7048 11.1511C25.4577 11.04 25.1822 10.9888 24.8982 10.9888H23.5433C23.5433 10.9517 23.532 10.9261 23.5178 10.8891C23.4439 10.6527 23.3701 10.4163 23.282 10.1912C23.1826 9.95483 23.0946 9.72982 22.9952 9.51904C22.9838 9.49341 22.9582 9.45638 22.9469 9.41935L24.066 8.28573C24.2761 8.09774 24.4267 7.87557 24.5375 7.62492C24.6369 7.37712 24.6993 7.10083 24.6993 6.816C24.6993 6.52832 24.6511 6.26912 24.5375 6.00708C24.4267 5.75928 24.2761 5.53426 24.0773 5.33488H24.066L22.1658 3.44076C21.967 3.24137 21.7426 3.09326 21.4813 2.97933C21.22 2.86825 20.9587 2.81698 20.6746 2.81698C20.402 2.81698 20.1293 2.8654 19.868 2.97933C19.6067 3.07902 19.3823 3.24137 19.1835 3.44076L18.2149 4.40064L18.1411 4.36361C17.9422 4.25252 17.7179 4.15283 17.4821 4.0389C17.2577 3.93921 17.0362 3.83952 16.8118 3.75122C16.7749 3.73983 16.7238 3.71419 16.6868 3.69995V2.1049C16.6868 1.81722 16.6385 1.54378 16.5391 1.29598C16.4397 1.04533 16.2778 0.808919 16.079 0.609538C15.8688 0.410156 15.6444 0.247803 15.3945 0.148112C15.136 0.0484212 14.8747 0 14.5878 0H13.6079H13.3892H12.4093C12.1224 0 11.864 0.0484212 11.6027 0.148112C11.3556 0.247803 11.1312 0.410156 10.9182 0.609538C10.7193 0.808919 10.5574 1.04533 10.458 1.29598C10.3586 1.54378 10.3103 1.82007 10.3103 2.1049V3.69995C10.2734 3.71134 10.2223 3.73698 10.1854 3.75122C9.96097 3.83952 9.73943 3.93921 9.51504 4.0389C9.2793 4.14998 9.05491 4.24967 8.85609 4.36361L8.78224 4.40064L7.8137 3.44076C7.61488 3.24137 7.39049 3.07902 7.12918 2.97933C6.86787 2.86825 6.5952 2.81698 6.32253 2.81698C6.03566 2.81698 5.77719 2.8654 5.51588 2.97933C5.25458 3.09041 5.03019 3.24137 4.83137 3.44076L2.9312 5.33488H2.91984C2.72102 5.53426 2.57332 5.75928 2.45971 6.00708C2.34894 6.26628 2.29781 6.52832 2.29781 6.81315C2.29781 7.10083 2.3603 7.37427 2.45971 7.62207C2.57048 7.86987 2.72102 8.09489 2.9312 8.28288L4.05028 9.4165C4.03892 9.45353 4.01336 9.49056 4.002 9.5162C3.90259 9.72697 3.81454 9.95199 3.71513 10.1884C3.62708 10.4134 3.55323 10.6498 3.47938 10.8862C3.46802 10.9233 3.45382 10.9489 3.45382 10.9859H2.09899C1.81212 10.9859 1.53945 11.0372 1.29234 11.1483C1.04523 11.248 0.82085 11.4103 0.622028 11.6097L0.610667 11.6211C0.411845 11.8205 0.264149 12.0455 0.164738 12.2933C0.0624868 12.5439 0 12.8202 0 13.0937V15.8081C0 16.0958 0.0482853 16.355 0.147696 16.617C0.247107 16.8791 0.409005 17.1041 0.607827 17.3035C0.806648 17.5028 1.04239 17.6652 1.29234 17.7649C1.53945 17.8646 1.81496 17.913 2.09899 17.913H3.68956C3.70093 17.95 3.72649 18.0013 3.74069 18.0383C3.82874 18.2633 3.92815 18.4855 4.02756 18.7105C4.11277 18.89 4.18946 19.0609 4.26899 19.2175H6.14643V19.2204ZM9.22249 16.6996C8.98675 16.7082 8.80497 16.7566 8.68283 16.842C8.61182 16.8905 8.5607 16.9503 8.52946 17.0215C8.49253 17.1012 8.47549 17.1981 8.47833 17.3092C8.48685 17.6339 8.65727 18.0611 8.98675 18.5539L8.99243 18.5596L10.0604 20.2657C10.4893 20.9493 10.938 21.6471 11.4976 22.157C12.0344 22.6497 12.6848 22.983 13.5483 22.9858C14.4799 22.9887 15.1644 22.6412 15.7183 22.1228C16.2949 21.5816 16.7493 20.8411 17.1952 20.1005L18.3995 18.1124C18.6239 17.5997 18.7063 17.255 18.6552 17.0528C18.6239 16.9332 18.4933 16.8734 18.266 16.862C18.2178 16.8591 18.1695 16.8591 18.1183 16.8591C18.0644 16.862 18.0076 16.8648 17.9508 16.8705C17.9195 16.8734 17.8883 16.8705 17.857 16.8648C17.7491 16.8705 17.6383 16.862 17.5276 16.8477L17.9394 15.0163C14.8804 15.5005 12.5911 13.2218 9.35599 14.5605L9.58889 16.7167C9.46108 16.7196 9.3361 16.7167 9.22249 16.6996ZM18.6779 16.3151C18.9733 16.4062 19.1636 16.5942 19.2431 16.899C19.3283 17.238 19.2346 17.7136 18.9506 18.363C18.9449 18.3744 18.9392 18.3858 18.9335 18.3972L17.715 20.4081C17.2464 21.1829 16.7692 21.9604 16.133 22.5586L16.1017 22.5871C16.1614 22.6754 16.2295 22.7722 16.2977 22.8748C16.5079 23.1852 16.7493 23.5413 16.9737 23.8175C18.2973 24.6436 21.2086 24.8657 22.3476 25.5009C25.2447 27.1216 24.1881 31.0579 24.3983 33.8892C24.3358 34.5585 23.958 34.943 23.2139 35H22.4101L23.2934 28.2865C23.3616 27.7625 22.9923 27.3352 22.535 27.3352H16.3233C16.4766 26.2386 16.5874 25.1904 16.6414 24.3986C16.3517 24.0767 16.0421 23.621 15.7751 23.2279C15.7154 23.1425 15.6586 23.057 15.6047 22.9801C15.0451 23.3561 14.3805 23.5897 13.5483 23.5868C12.6195 23.584 11.8952 23.265 11.2959 22.7779C11.1283 23.2821 10.8812 23.9771 10.6426 24.3103C10.6228 24.3388 10.5972 24.3644 10.5688 24.3844C10.6711 25.2018 10.8131 26.25 10.9806 27.3381H4.61835C4.1639 27.3381 3.79182 27.7653 3.85998 28.2894L4.74332 35.0028H3.93667C3.19251 34.9459 2.81475 34.5614 2.75226 33.892C2.78919 30.8927 1.65306 27.264 4.80297 25.5037C5.95613 24.8572 8.92994 24.6379 10.228 23.7862C10.4268 23.4131 10.6455 22.7409 10.779 22.3421C10.7932 22.2966 10.7705 22.3706 10.7932 22.3051C10.316 21.7924 9.92689 21.1857 9.55197 20.5876L8.48401 18.8843C8.09205 18.3004 7.89039 17.7649 7.87618 17.3263C7.8705 17.1212 7.90459 16.9332 7.98128 16.768C8.0608 16.5971 8.18294 16.4518 8.34768 16.3407C8.42436 16.2895 8.51241 16.2439 8.60614 16.2069C8.53798 15.2812 8.50957 14.1162 8.55502 13.1421C8.57774 12.9114 8.62319 12.6778 8.68567 12.4471C9.07764 11.0457 10.2791 10.0346 11.651 9.55892C12.3156 9.32821 12.06 8.77848 12.7331 8.81551C14.3294 8.90381 16.7891 9.9349 17.7349 11.0286C19.0642 12.5582 18.7205 14.4438 18.6779 16.3151ZM11.3726 25.6889C10.8329 25.0737 10.7875 24.4299 11.3726 23.7492C12.0486 23.9201 12.6678 24.2135 13.2387 24.6094C13.3608 24.5553 13.5057 24.5325 13.6449 24.5439C14.2385 24.1223 14.994 23.9514 15.6558 23.6353C16.4454 24.4071 16.3602 25.1164 15.5848 25.7743C15.1502 25.6746 14.7384 25.5208 14.3436 25.3186C14.3322 25.4211 14.3066 25.5322 14.2584 25.6519L14.46 27.3352H12.8496L13.0512 25.6519C12.9263 25.4382 12.878 25.2559 12.8808 25.105C12.4122 25.387 11.9037 25.5693 11.3726 25.6889Z" fill="#03C587"/>
</svg>
