<svg width="30" height="30" viewBox="0 0 30 30" fill="none" xmlns="http://www.w3.org/2000/svg">
<path d="M16.7639 5.20886C10.8919 5.20933 6.13328 9.96796 6.13281 15.84C6.13328 21.7126 10.8919 26.4711 16.7639 26.4716C22.6365 26.4711 27.3951 21.7125 27.3955 15.84C27.3951 9.9679 22.6365 5.20933 16.7639 5.20886ZM10.5135 9.58951C11.1105 8.99296 11.7927 8.4815 12.5386 8.07486C12.1439 8.67931 11.7996 9.35994 11.5121 10.1049H10.0449C10.1959 9.92835 10.3492 9.75369 10.5135 9.58951ZM9.00824 11.5983H11.0423C10.7613 12.6811 10.5956 13.8594 10.5442 15.093H7.96252C8.06834 13.8342 8.43145 12.6504 9.00824 11.5983ZM9.00918 20.0822C8.43145 19.0295 8.06834 17.8458 7.96246 16.5864H10.5337C10.5851 17.8231 10.7593 18.9984 11.0412 20.0822H9.00918ZM10.5135 22.0904C10.3493 21.9262 10.1959 21.7521 10.0455 21.5755H11.5127C11.721 22.1157 11.9569 22.6236 12.2211 23.0916C12.3235 23.2716 12.4328 23.4403 12.5431 23.6081C11.7946 23.201 11.112 22.689 10.5135 22.0904ZM16.0175 24.6419C15.9433 24.636 15.8686 24.6325 15.7944 24.6241C15.5511 24.5241 15.3091 24.392 15.0682 24.2125C14.3456 23.6758 13.6595 22.7622 13.1283 21.5755H16.0175V24.6419ZM16.0175 20.0822H12.593C12.2848 19.0275 12.0939 17.8448 12.0375 16.5864H16.0175V20.0822ZM16.0175 15.093H12.0266C12.083 13.8352 12.2809 12.653 12.588 11.5983H16.0175V15.093ZM16.0175 10.105H13.1322C13.2549 9.83091 13.383 9.5673 13.5215 9.32337C13.9786 8.51261 14.5143 7.88097 15.0682 7.46748C15.3092 7.28835 15.5511 7.15681 15.7939 7.05685C15.8681 7.04847 15.9433 7.04501 16.0175 7.03857V10.105ZM24.5202 11.5983C25.097 12.6504 25.46 13.8342 25.5658 15.093H22.9942C22.9427 13.8569 22.7686 12.6821 22.4866 11.5983H24.5202ZM23.0149 9.58951C23.1791 9.75369 23.3325 9.92835 23.4834 10.105H22.0152C21.8075 9.56478 21.571 9.05677 21.3064 8.58832C21.2045 8.40878 21.0947 8.24009 20.9853 8.07187C21.7328 8.47945 22.4159 8.99144 23.0149 9.58951ZM17.5104 7.03857C17.5845 7.04501 17.6597 7.04847 17.734 7.05685C17.9763 7.15681 18.2188 7.28835 18.4596 7.46748C19.1828 8.00414 19.8684 8.91878 20.4002 10.105H17.5104V7.03857ZM17.5104 11.5983H20.9354C21.2431 12.6529 21.434 13.8356 21.4904 15.093H17.5104V11.5983ZM20.0069 22.3566C19.5493 23.1673 19.0136 23.7995 18.4596 24.2125C18.2188 24.392 17.9763 24.5241 17.7334 24.6241C17.6593 24.6325 17.5845 24.6359 17.5104 24.6419V21.5755H20.3962C20.273 21.849 20.1454 22.1132 20.0069 22.3566ZM17.5104 20.0822V16.5864H21.5012C21.4449 17.8448 21.247 19.0276 20.9398 20.0822H17.5104ZM23.0149 22.0904C22.4178 22.688 21.7357 23.199 20.9898 23.6051C21.384 23.0011 21.7283 22.3205 22.0157 21.5755H23.4828C23.3325 21.7521 23.1791 21.9262 23.0149 22.0904ZM24.5191 20.0822H22.4856C22.767 18.9998 22.9323 17.8216 22.9837 16.5864H25.5658C25.46 17.8458 25.097 19.0295 24.5191 20.0822Z" fill="#03C587"/>
<path d="M23.5344 26.8946C21.4197 28.1895 19.0855 28.805 16.7769 28.805C12.413 28.8045 8.15502 26.6038 5.70943 22.6104C4.41439 20.4957 3.79904 18.1614 3.79904 15.8528C3.79957 11.4884 6.00029 7.23196 9.99416 4.78538L9.37037 3.76685C5.01 6.43755 2.6035 11.0902 2.60449 15.8528C2.60397 18.3736 3.27867 20.9285 4.6909 23.2341C7.36107 27.5935 12.0143 30.0005 16.7769 30C19.2976 30 21.8525 29.3258 24.1586 27.9136L23.5344 26.8951V26.8946Z" fill="#03C587"/>
<path d="M14.3316 4.09088H19.9207C20.496 4.09088 20.9629 3.89652 20.9629 3.32025C20.9629 2.74492 19.8613 2.18746 19.2861 2.18746H18.1315L15.7819 0.0722843C15.6642 -0.0577939 15.1978 0.0272843 15.0563 0.0278116C14.8817 0.0288077 14.9198 0.307773 14.9871 0.470019L15.6737 2.18746H14.0294L13.1276 0.75496C12.9693 0.582343 12.7215 0.523983 12.5034 0.608534C12.2847 0.693144 12.1408 0.903378 12.1408 1.13734L12.126 2.18746V2.4976C12.1259 3.37756 13.1835 4.09088 14.3316 4.09088Z" fill="#03C587"/>
</svg>
