<svg width="30" height="30" viewBox="0 0 30 30" fill="none" xmlns="http://www.w3.org/2000/svg">
<g clip-path="url(#clip0_459_6)">
<path d="M1.41455 15.3579C2.08716 15.9575 2.75928 16.5244 3.43262 17.0581C4.32129 15.7085 5.28955 14.4709 6.34204 13.3525C6.14331 12.9783 6.03101 12.5508 6.03101 12.0979C6.03101 11.8743 6.05811 11.6572 6.11011 11.449C5.0105 10.7366 3.87891 9.94214 2.70068 9.05688C1.82935 10.8538 1.34155 12.8696 1.34155 14.9995H1.34448V15.0002H1.34131C1.34131 15.1448 1.34424 15.2888 1.34863 15.4321L1.41455 15.3579ZM3.35107 7.8689C4.53052 8.75854 5.65918 9.55591 6.75391 10.269C7.24219 9.74805 7.93701 9.42261 8.70679 9.42261C9.31738 9.42261 9.87988 9.62744 10.3303 9.97192C10.6526 9.7583 10.9814 9.55225 11.3159 9.35571C12.7095 8.53638 14.2048 7.86816 15.8105 7.35938C15.7988 7.25293 15.7935 7.14502 15.7935 7.03662C15.7935 6.62793 15.8752 6.23828 16.0242 5.88403C14.3931 4.50195 12.4614 3.27808 10.238 2.19678C8.38281 2.8877 6.71851 3.97021 5.34448 5.34424C4.58569 6.10229 3.91577 6.94995 3.35107 7.8689ZM12.1104 1.64868C13.8687 2.59497 15.4373 3.63843 16.8103 4.79004C17.2693 4.3877 17.8528 4.12305 18.4949 4.06201C18.6389 3.35669 18.7749 2.63965 18.9041 1.90894C17.6667 1.54004 16.3567 1.34082 15.0005 1.34082V1.34375H14.9993V1.34082C14.0081 1.34082 13.042 1.44775 12.1104 1.64868ZM20.1855 2.36304C20.072 2.99756 19.9531 3.62256 19.8286 4.23755C20.7239 4.57349 21.4153 5.32642 21.666 6.26001C22.8779 6.1709 24.1384 6.15356 25.4512 6.21118C25.1982 5.91113 24.9336 5.62109 24.6562 5.34351C23.3872 4.07519 21.8708 3.05566 20.1855 2.36304ZM26.4905 7.61816C24.813 7.49243 23.2222 7.48926 21.7146 7.60278C21.5911 8.2478 21.2595 8.81909 20.7935 9.24438C21.1899 9.85547 21.5493 10.4888 21.8704 11.145C22.3381 12.1023 22.7234 13.1077 23.0273 14.1611C23.1199 14.1516 23.2139 14.1462 23.3096 14.1462C24.5105 14.1462 25.5269 14.9373 25.8652 16.0281C26.7505 16.0591 27.6658 16.0754 28.616 16.0813C28.644 15.7241 28.6592 15.364 28.6592 15.0005H28.6562V14.9998V14.9993H28.6592C28.6584 12.2808 27.8623 9.74731 26.4905 7.61816ZM28.4443 17.4182C27.5789 17.4121 26.7417 17.397 25.929 17.3701C25.7119 18.4126 24.8875 19.2332 23.8423 19.4446C23.8882 20.6938 23.8452 22 23.71 23.3638C24.4763 23.283 25.2534 23.1716 26.0442 23.0317C27.2363 21.3965 28.0737 19.488 28.4443 17.4182ZM26.8154 24.2393L26.8184 24.2532L26.8022 24.2561C26.4309 24.73 26.0317 25.1807 25.606 25.6064C22.8938 28.3186 19.1438 29.9966 15.001 29.9971V30H15.0005H14.9998V29.9971C10.8569 29.9971 7.10718 28.3186 4.3938 25.6057C1.6814 22.8931 0.00317383 19.1431 0.00268555 15.0002H0V14.9995H0.00268555C0.00268555 10.8562 1.6814 7.10645 4.39429 4.39355C7.10718 1.68066 10.8562 0.00268555 14.9993 0.00268555V0H15.0005V0.00268555C19.1438 0.00268555 22.8936 1.68091 25.6062 4.39429C28.3191 7.10645 29.9971 10.8562 29.9971 14.9993H30V14.9998V15.0005H29.9971C29.9971 18.4866 28.8086 21.6936 26.8154 24.2393ZM24.7166 24.5935C24.324 24.6458 23.9348 24.6909 23.5483 24.7283C23.5002 25.0737 23.446 25.4226 23.3872 25.7756C23.833 25.4285 24.2571 25.0549 24.6562 24.6558L24.7166 24.5935ZM21.8311 26.8267C21.9678 26.1467 22.084 25.4812 22.1799 24.8296C19.7334 24.9568 17.3953 24.7803 15.1326 24.3025C14.6902 24.8271 14.0288 25.1619 13.2891 25.1619C13.2341 25.1619 13.1799 25.1597 13.1267 25.1565C12.6997 26.2456 12.2864 27.3052 11.9075 28.3059C12.9011 28.5361 13.9368 28.6587 14.9995 28.6587V28.6558H15.0002H15.0007V28.6587C17.4883 28.6587 19.8213 27.9915 21.8311 26.8267ZM10.616 27.9385C11.0308 26.8359 11.4448 25.7715 11.8655 24.6968C11.3357 24.3088 10.9702 23.7092 10.8933 23.0222C8.46631 22.0605 6.11328 20.7263 3.78687 19.0173C3.41382 19.6458 3.05664 20.2971 2.71436 20.9717C3.38306 22.3435 4.27612 23.5881 5.34424 24.6562C6.81128 26.1228 8.60913 27.2578 10.616 27.9385ZM2.05225 19.3574C2.26758 18.9644 2.48853 18.5791 2.71484 18.2014C2.31689 17.8882 1.91919 17.5637 1.52222 17.2288C1.64258 17.959 1.8208 18.6711 2.05225 19.3574ZM11.1597 11.0286C11.303 11.3562 11.3828 11.7178 11.3828 12.0981C11.3828 12.354 11.3464 12.6018 11.2793 12.8362C12.7493 13.5393 14.1941 14.0974 15.6584 14.5381C16.1907 12.9446 16.7021 11.2898 17.1785 9.55859C16.8042 9.32031 16.4868 9.00146 16.2505 8.62622C14.7258 9.10571 13.3096 9.73633 11.9929 10.5103C11.7112 10.6758 11.4326 10.8491 11.1597 11.0286ZM10.5933 13.9954C10.1096 14.4771 9.44287 14.7744 8.70654 14.7744C8.16895 14.7744 7.66797 14.6155 7.24805 14.343C6.25439 15.4072 5.33984 16.5869 4.49756 17.874C6.67896 19.4863 8.87622 20.7524 11.1311 21.6741C11.5271 20.884 12.3447 20.3413 13.2886 20.3413C13.3794 20.3413 13.4685 20.3464 13.5571 20.3564C14.1179 18.8911 14.6799 17.3804 15.2253 15.8083C13.6743 15.3396 12.1462 14.7451 10.5933 13.9954ZM19.6208 9.90527C19.3545 9.98267 19.0728 10.0242 18.781 10.0242C18.6682 10.0242 18.5564 10.0186 18.4468 10.0059C17.9773 11.7056 17.4756 13.3311 16.9536 14.896C18.2354 15.22 19.543 15.4624 20.9075 15.6409C21.106 15.2383 21.4023 14.8933 21.7664 14.6365C21.4795 13.6189 21.1113 12.6516 20.6628 11.7336C20.3538 11.1016 20.0061 10.4929 19.6208 9.90527ZM22.4966 19.3718C21.4573 19.041 20.6934 18.0925 20.637 16.9575C19.219 16.7688 17.8572 16.5129 16.5208 16.1707C15.957 17.7971 15.3762 19.3591 14.7966 20.8721C15.3464 21.314 15.6985 21.9922 15.6985 22.7517C15.6985 22.8518 15.6919 22.9502 15.6802 23.0474C17.8179 23.4724 20.031 23.616 22.3508 23.4763C22.5037 22.0391 22.5513 20.6716 22.4966 19.3718Z" fill="#03C587"/>
</g>
<defs>
<clipPath id="clip0_459_6">
<rect width="30" height="30" fill="white"/>
</clipPath>
</defs>
</svg>
