<svg width="35" height="35" viewBox="0 0 35 35" fill="none" xmlns="http://www.w3.org/2000/svg">
<g clip-path="url(#clip0_339_422)">
<path fill-rule="evenodd" clip-rule="evenodd" d="M1.28752 0H34.3421C34.7039 0 35.0029 0.297022 35.0029 0.662587V2.90738C35.0029 3.27009 34.7067 3.56997 34.3421 3.56997H33.8636V20.7944C33.8636 21.0571 33.7554 21.2999 33.5816 21.4741C33.4079 21.6483 33.1658 21.7568 32.9009 21.7568H26.0991V23.0392H24.6978V25.0298C24.2847 24.3386 23.7721 23.8046 23.2081 23.4333C22.5359 22.9906 21.7925 22.7707 21.0434 22.7736C20.2886 22.7764 19.548 23.0078 18.8787 23.459C18.158 23.9474 17.5286 24.7042 17.0956 25.7181H14.6347C14.5891 25.7009 14.5407 25.6838 14.4923 25.6667C14.0764 25.521 13.6435 25.4496 13.2276 25.4496C12.8118 25.4496 12.3817 25.521 11.963 25.6667C11.9146 25.6838 11.869 25.7009 11.8206 25.7181H10.9233V23.0392H9.52197V21.7568H2.72876C2.46387 21.7568 2.22176 21.6483 2.04801 21.4741C2.03092 21.457 2.01668 21.4398 2.00244 21.4227C1.85433 21.2542 1.76603 21.0314 1.76603 20.7944V3.56997H1.28752C0.925781 3.56997 0.626709 3.27295 0.626709 2.90738V0.662587C0.626709 0.297022 0.922933 0 1.28752 0ZM18.8416 30.8788C15.9762 30.8788 17.8618 31.1044 18.252 27.98C18.8359 23.3076 23.2651 23.3076 23.9202 27.98C24.3389 30.9845 26.1362 30.8788 23.3306 30.8788H22.2112C22.2055 31.6442 22.0887 32.0355 22.8805 32.4639C23.285 32.6838 24.0369 32.8466 24.6778 33.1008C25.6576 32.2611 27.398 32.8152 27.5774 31.2758C27.6059 31.0416 27.0533 30.1477 26.928 29.7193C26.6574 29.2852 26.5605 28.5998 26.8568 28.1428C26.9736 27.96 26.9251 27.2974 26.9251 27.049C26.9251 24.5614 31.2745 24.5585 31.2745 27.049C31.2745 27.3631 31.2033 27.9429 31.3713 28.1885C31.6562 28.6026 31.5081 29.3366 31.2688 29.7193C31.115 30.1705 30.5282 31.0216 30.5795 31.2758C31.0011 33.4292 33.9291 31.1244 33.9291 35C22.6213 35 11.3107 35 0.00292969 35C0.00292969 31.0616 3.71143 33.2407 3.99626 30.8274C4.02759 30.5647 3.40951 29.5622 3.26709 29.0824C2.96517 28.5969 2.85409 27.8258 3.18734 27.3146C3.31836 27.1118 3.26424 26.3692 3.26424 26.0865C3.26424 23.2962 8.1377 23.2962 8.1377 26.0865C8.1377 26.4406 8.05794 27.0889 8.24878 27.366C8.56779 27.8286 8.40259 28.6512 8.13485 29.0824C7.9611 29.5879 7.30599 30.5418 7.36011 30.8274C7.56519 31.8699 10.1571 32.5781 11.0601 32.9608C11.5699 32.6981 11.9801 32.3868 12.0228 32.0269C12.0456 31.8384 11.6041 31.1273 11.5044 30.7846C11.2879 30.439 11.211 29.8907 11.4474 29.5251C11.5414 29.3794 11.5015 28.8511 11.5015 28.6512C11.5015 26.6663 14.9736 26.6634 14.9736 28.6512C14.9736 28.9025 14.9167 29.3652 15.0505 29.5622C15.2784 29.8935 15.1616 30.479 14.9679 30.7846C14.8455 31.1444 14.3783 31.8242 14.4182 32.0269C14.6746 33.3293 16.0788 32.5896 16.7424 33.5006C17.3691 33.0065 18.6166 32.8694 19.3771 32.4125C20.0721 31.9955 19.9553 31.5757 19.9496 30.8817L18.8416 30.8788ZM8.73014 17.0845H14.6005V15.4109H14.3185C14.1704 15.4109 14.0479 15.288 14.0479 15.1395V14.4627C14.0479 13.9429 14.4723 13.5145 14.9936 13.5145H15.2556C15.774 13.5145 16.2013 13.94 16.2013 14.4627V15.1367C16.2013 15.2852 16.0788 15.408 15.9307 15.408H15.6487V17.0816H19.9211V15.408H19.6392C19.491 15.408 19.3686 15.2852 19.3686 15.1367V14.4598C19.3686 13.94 19.793 13.5116 20.3142 13.5116H20.5763C21.0946 13.5116 21.5219 13.9372 21.5219 14.4598V15.1338C21.5219 15.2823 21.3994 15.4051 21.2513 15.4051H20.9693V17.0787H26.8995C27.1445 17.0787 27.3438 17.2787 27.3438 17.5243V20.246C27.3438 20.3803 27.284 20.5031 27.1872 20.5859H32.6987V3.64423H2.93099V20.5916H8.44246C8.34562 20.5088 8.28581 20.3888 8.28581 20.2517V17.53C8.28581 17.2844 8.48519 17.0845 8.73014 17.0845Z" fill="white"/>
</g>
<defs>
<clipPath id="clip0_339_422">
<rect width="35" height="35" fill="white"/>
</clipPath>
</defs>
</svg>
