<svg width="65" height="75" viewBox="0 0 65 75" fill="none" xmlns="http://www.w3.org/2000/svg">
<g clip-path="url(#clip0_317_321)">
<path fill-rule="evenodd" clip-rule="evenodd" d="M34.5245 1.48926C38.9924 4.40885 43.8101 6.75873 48.8648 8.48389C52.6155 9.78376 56.5905 10.3172 60.5527 10.0525L64.663 9.68018L64.8652 13.7939C65.6187 28.9246 63.1684 42.0715 58.0289 52.4414C52.6811 63.2324 44.4604 71.0266 33.9058 74.9817H31.1615C20.8458 71.228 12.6863 63.6475 7.27119 52.7222C2.21747 42.4683 -0.37371 29.2236 0.0428392 13.4277L0.153102 9.3689L4.2022 9.57642C8.61004 9.86137 13.0347 9.40957 17.2929 8.23975C21.9022 6.89821 26.2064 4.67822 29.967 1.70288L32.1661 0L34.5245 1.48926ZM32.4234 11.7798C40.7115 17.0166 48.1971 19.4946 54.623 18.9209C55.744 41.5039 47.364 58.7647 32.5092 64.3372C18.1566 59.1187 9.67247 42.4561 10.3034 18.5608C17.8442 18.9575 25.2502 17.3401 32.4234 11.7798ZM27.8781 37.6038C28.4499 38.0898 28.9901 38.6117 29.4953 39.1663C31.0224 36.713 32.715 34.3659 34.5613 32.1411C39.6089 26.0681 38.1019 26.4648 45.1036 26.4648L44.1051 27.5391C41.4764 30.477 39.0608 33.5977 36.8768 36.8774C34.4488 40.3758 32.2472 44.025 30.2855 47.8027L29.6729 48.9685L29.1155 47.7844C28.1254 45.6311 26.8724 43.6078 25.3849 41.7603C24.0429 40.0708 22.4405 38.604 20.6375 37.4146C21.5502 34.4299 25.8995 35.9619 27.8475 37.6038H27.8781ZM32.3989 4.82788C43.0454 11.5417 52.6566 14.7278 60.9141 13.9832C62.3537 43.0298 51.5846 64.1357 32.5092 71.2952C14.0891 64.5874 3.19146 44.22 4.00005 13.5376C13.6848 14.0381 23.1919 11.9568 32.3989 4.82788Z" fill="#009DB8"/>
</g>
<defs>
<clipPath id="clip0_317_321">
<rect width="65" height="75" fill="white"/>
</clipPath>
</defs>
</svg>
