<svg width="47" height="47" viewBox="0 0 47 47" fill="none" xmlns="http://www.w3.org/2000/svg">
<circle cx="23.5" cy="23.5" r="23.5" fill="url(#paint0_linear_378_51)"/>
<path d="M13.2778 31.7143L19.6667 24M33.7222 31.7143L27.3333 24M12 18.8571L21.2319 25.0499C22.0516 25.5998 22.4614 25.8748 22.9044 25.9815C23.2959 26.076 23.7041 26.076 24.0956 25.9815C24.5386 25.8748 24.9484 25.5998 25.7681 25.0499L35 18.8571M16.0889 33H30.9111C32.3423 33 33.058 33 33.6047 32.7197C34.0855 32.4732 34.4765 32.0798 34.7214 31.596C35 31.046 35 30.3258 35 28.8857V19.1143C35 17.6742 35 16.9541 34.7214 16.404C34.4765 15.9202 34.0855 15.5268 33.6047 15.2803C33.058 15 32.3423 15 30.9111 15H16.0889C14.6576 15 13.942 15 13.3954 15.2803C12.9145 15.5268 12.5235 15.9202 12.2785 16.404C12 16.9541 12 17.6741 12 19.1143V28.8857C12 30.3258 12 31.046 12.2785 31.596C12.5235 32.0798 12.9145 32.4732 13.3954 32.7197C13.942 33 14.6576 33 16.0889 33Z" stroke="white" stroke-width="2" stroke-linecap="round" stroke-linejoin="round"/>
<defs>
<linearGradient id="paint0_linear_378_51" x1="23.5" y1="0" x2="23.5" y2="47" gradientUnits="userSpaceOnUse">
<stop stop-color="#009DB8"/>
<stop offset="1" stop-color="#03C587"/>
</linearGradient>
</defs>
</svg>
