<svg width="47" height="47" viewBox="0 0 47 47" fill="none" xmlns="http://www.w3.org/2000/svg">
<circle cx="23.5" cy="23.5" r="23.5" fill="url(#paint0_linear_2001_2)"/>
<g clip-path="url(#clip0_2001_2)">
<mask id="mask0_2001_2" style="mask-type:luminance" maskUnits="userSpaceOnUse" x="11" y="12" width="24" height="24">
<path d="M35 12H11V36H35V12Z" fill="white"/>
</mask>
<g mask="url(#mask0_2001_2)">
<path fill-rule="evenodd" clip-rule="evenodd" d="M21.4425 14.4443C21.0752 15.64 20.3207 18.2557 19.8991 20.8326C20.9933 21.0092 22.0621 21.1221 23 21.1221C23.9379 21.1221 25.0067 21.0092 26.1009 20.8326C25.6793 18.2557 24.9248 15.64 24.5575 14.4443C24.0509 14.3624 23.5307 14.3198 23 14.3198C22.4693 14.3198 21.9491 14.3624 21.4425 14.4443ZM26.3337 14.9089C26.737 16.305 27.2958 18.4283 27.6448 20.5474C29.1513 20.237 30.5727 19.8582 31.605 19.5611C30.4986 17.421 28.6172 15.7466 26.3337 14.9089ZM32.2129 21.0193C31.1222 21.3368 29.5423 21.7633 27.8594 22.1057C27.9295 22.7564 27.9709 23.3958 27.9709 24C27.9709 24.8816 27.8827 25.8411 27.7445 26.8058C29.759 26.3858 31.6068 25.849 32.5557 25.5575C32.6376 25.0509 32.6802 24.5307 32.6802 24C32.6802 22.959 32.5162 21.9575 32.2129 21.0193ZM32.0911 27.3337C30.9166 27.6729 29.229 28.1219 27.4634 28.4634C27.1219 30.229 26.6729 31.9166 26.3337 33.0911C28.9978 32.1138 31.1138 29.9978 32.0911 27.3337ZM24.5576 33.5557C24.849 32.6068 25.3858 30.759 25.8058 28.7445C24.8411 28.8827 23.8816 28.9709 23 28.9709C22.1184 28.9709 21.1589 28.8827 20.1942 28.7445C20.6142 30.759 21.151 32.6068 21.4425 33.5557C21.9491 33.6376 22.4693 33.6802 23 33.6802C23.5307 33.6802 24.0509 33.6376 24.5576 33.5557ZM19.6663 33.0911C19.3271 31.9166 18.8781 30.229 18.5366 28.4634C16.771 28.1219 15.0834 27.6729 13.9089 27.3337C14.8862 29.9978 17.0022 32.1138 19.6663 33.0911ZM13.4443 25.5575C14.3932 25.849 16.241 26.3858 18.2555 26.8058C18.1173 25.8411 18.0291 24.8816 18.0291 24C18.0291 23.3958 18.0705 22.7564 18.1406 22.1057C16.4577 21.7633 14.8778 21.3368 13.7871 21.0193C13.4838 21.9575 13.3198 22.959 13.3198 24C13.3198 24.5307 13.3624 25.0509 13.4443 25.5575ZM14.395 19.5611C15.4273 19.8582 16.8486 20.237 18.3552 20.5474C18.7042 18.4283 19.263 16.305 19.6663 14.9089C17.3828 15.7466 15.5014 17.421 14.395 19.5611ZM19.6892 22.3888C19.6314 22.9544 19.5988 23.4968 19.5988 24C19.5988 24.9399 19.7122 26.012 19.8898 27.1102C20.988 27.2878 22.0601 27.4012 23 27.4012C23.9399 27.4012 25.012 27.2878 26.1102 27.1102C26.2878 26.012 26.4012 24.9399 26.4012 24C26.4012 23.4968 26.3686 22.9544 26.3108 22.3888C25.1776 22.5703 24.0348 22.6919 23 22.6919C21.9652 22.6919 20.8224 22.5703 19.6892 22.3888ZM20.6727 12.9912C21.4243 12.833 22.2029 12.75 23 12.75C23.7971 12.75 24.5757 12.833 25.3273 12.9912C29.0108 13.7663 32.0281 16.341 33.42 19.7517C33.9554 21.0636 34.25 22.4983 34.25 24C34.25 24.7971 34.167 25.5757 34.0088 26.3273C33.0943 30.6736 29.6736 34.0943 25.3273 35.0088C24.5757 35.167 23.7971 35.25 23 35.25C22.2029 35.25 21.4243 35.167 20.6727 35.0088C16.3264 34.0943 12.9057 30.6736 11.9912 26.3273C11.833 25.5757 11.75 24.7971 11.75 24C11.75 22.4972 12.0451 21.0613 12.5812 19.7487C13.9737 16.3394 16.9903 13.766 20.6727 12.9912Z" fill="white"/>
</g>
</g>
<defs>
<linearGradient id="paint0_linear_2001_2" x1="23.5" y1="0" x2="23.5" y2="47" gradientUnits="userSpaceOnUse">
<stop stop-color="#009DB8"/>
<stop offset="1" stop-color="#03C587"/>
</linearGradient>
<clipPath id="clip0_2001_2">
<rect width="24" height="24" fill="white" transform="translate(11 12)"/>
</clipPath>
</defs>
</svg>
