<svg width="36" height="36" viewBox="0 0 36 36" fill="none" xmlns="http://www.w3.org/2000/svg">
<circle cx="18" cy="18" r="18" fill="url(#paint0_linear_118_1534)"/>
<g clip-path="url(#clip0_118_1534)">
<path fill-rule="evenodd" clip-rule="evenodd" d="M26.093 22.7719L25.9869 18.8432L19.5307 20.7083C18.949 20.836 18.3751 20.897 17.813 20.8989C17.2097 20.9009 16.6161 20.836 16.0324 20.7083L9.86522 18.8235V22.8073C10.0421 24.8768 15.9794 25.5096 17.8012 25.5961C19.2615 25.6668 25.0297 24.9043 25.7884 23.7153C25.9515 23.4558 26.0537 23.1414 26.093 22.7719ZM28.7088 16.0151V20.8164H28.8602C28.9643 20.8164 29.0488 20.9009 29.0488 21.0051V22.2963C29.0488 22.3985 28.9643 22.485 28.8602 22.485H28.7088V22.937C28.9014 22.9724 29.0488 23.1433 29.0488 23.3458C29.0488 23.5738 28.8602 23.7624 28.6322 23.7624H27.8873C27.6594 23.7624 27.4707 23.5757 27.4707 23.3458C27.4707 23.1433 27.6181 22.9724 27.8107 22.937V22.485H27.6594C27.5572 22.485 27.4707 22.4004 27.4707 22.2963V21.0051C27.4707 20.9009 27.5552 20.8164 27.6594 20.8164H27.8107V16.2961L19.9533 18.7371C18.5304 19.0751 17.1075 19.0987 15.6846 18.7371L7.01155 16.1487L6.22739 15.9148C5.25061 15.5159 5.49432 14.5784 6.40427 14.3622L16.2132 11.4339C17.2254 11.145 18.2356 11.0998 19.2477 11.4339L28.8798 14.3269C29.9273 14.5824 30.1337 15.5513 28.9152 15.9502L28.7088 16.0151Z" fill="white"/>
</g>
<defs>
<linearGradient id="paint0_linear_118_1534" x1="18" y1="0" x2="18" y2="36" gradientUnits="userSpaceOnUse">
<stop stop-color="#009DB8"/>
<stop offset="1" stop-color="#03C587"/>
</linearGradient>
<clipPath id="clip0_118_1534">
<rect width="24.15" height="14.4" fill="white" transform="translate(5.60059 11.2)"/>
</clipPath>
</defs>
</svg>
