<svg width="37" height="30" viewBox="0 0 37 30" fill="none" xmlns="http://www.w3.org/2000/svg">
<g clip-path="url(#clip0_535_60)">
<path fill-rule="evenodd" clip-rule="evenodd" d="M9.09964 16.8069L9.06652 18.9362H12.8424C13.2237 18.937 13.5896 19.0887 13.8615 19.3588C14.1334 19.6289 14.2897 19.996 14.2967 20.3812V21.8505V27.5998C14.2952 27.989 14.1414 28.3618 13.869 28.637C13.5966 28.9122 13.2276 29.0675 12.8424 29.0691H11.373V22.3767C11.373 21.7683 11.4874 21.8444 10.9093 21.8444H7.16955H5.3057C4.72666 21.842 4.17201 21.6085 3.76256 21.1949C3.35312 20.7812 3.12204 20.2209 3.11966 19.6359V12.4081C3.12046 11.8127 3.35474 11.2418 3.77121 10.8205C4.18769 10.3992 4.75244 10.1617 5.34183 10.1601H6.44087C8.18428 10.1601 8.35892 11.0028 8.80456 11.8849L10.6624 12.6241C12.0053 13.2325 11.6621 13.3572 12.5744 12.2165L13.7608 10.729C14.3419 9.79205 16.6394 10.7716 15.6547 12.3443L13.9324 14.7201C13.2128 15.7117 12.2613 15.8517 11.108 15.365L9.09964 14.6501V16.8069ZM17.3349 9.54565C17.982 10.1835 18.8057 10.6074 19.6969 10.7612C20.588 10.9149 21.5043 10.7912 22.3243 10.4065L23.8689 11.0149L23.357 9.79813C25.0734 8.40795 24.7662 6.49758 23.5016 5.19562C23.4174 5.69152 23.2515 6.16965 23.0108 6.61014C22.6555 7.24921 22.1713 7.80574 21.5895 8.24368C20.9927 8.69816 20.3209 9.04216 19.6053 9.2597C18.8696 9.48382 18.103 9.58654 17.3349 9.5639V9.54565ZM19.7076 3.69288C19.8404 3.69288 19.9703 3.73266 20.0807 3.8072C20.1911 3.88174 20.2772 3.98769 20.328 4.11164C20.3788 4.2356 20.3921 4.37199 20.3662 4.50358C20.3403 4.63517 20.2763 4.75604 20.1824 4.85091C20.0885 4.94578 19.9689 5.01039 19.8386 5.03657C19.7084 5.06274 19.5734 5.04931 19.4507 4.99796C19.328 4.94662 19.2231 4.85967 19.1493 4.74812C19.0755 4.63656 19.0362 4.50541 19.0362 4.37124C19.0362 4.19133 19.1069 4.01878 19.2328 3.89157C19.3588 3.76435 19.5295 3.69288 19.7076 3.69288ZM15.2663 3.69288C15.3991 3.69288 15.5289 3.73266 15.6394 3.8072C15.7498 3.88174 15.8358 3.98769 15.8867 4.11164C15.9375 4.2356 15.9508 4.37199 15.9249 4.50358C15.899 4.63517 15.835 4.75604 15.7411 4.85091C15.6472 4.94578 15.5276 5.01039 15.3973 5.03657C15.2671 5.06274 15.132 5.04931 15.0093 4.99796C14.8867 4.94662 14.7818 4.85967 14.708 4.74812C14.6342 4.63656 14.5948 4.50541 14.5948 4.37124C14.5948 4.19133 14.6656 4.01878 14.7915 3.89157C14.9174 3.76435 15.0882 3.69288 15.2663 3.69288ZM17.4885 3.69288C17.6213 3.69288 17.7511 3.73266 17.8615 3.8072C17.9719 3.88174 18.058 3.98769 18.1088 4.11164C18.1597 4.2356 18.173 4.37199 18.147 4.50358C18.1211 4.63517 18.0572 4.75604 17.9633 4.85091C17.8694 4.94578 17.7497 5.01039 17.6195 5.03657C17.4892 5.06274 17.3542 5.04931 17.2315 4.99796C17.1088 4.94662 17.004 4.85967 16.9302 4.74812C16.8564 4.63656 16.817 4.50541 16.817 4.37124C16.817 4.19133 16.8878 4.01878 17.0137 3.89157C17.1396 3.76435 17.3104 3.69288 17.4885 3.69288ZM17.621 -8.41147e-05C18.9723 0.023706 20.2757 0.509466 21.3186 1.37793C21.7857 1.75793 22.162 2.23943 22.4195 2.78664C22.6771 3.33384 22.8092 3.93265 22.806 4.53855C22.7746 5.14595 22.6077 5.73832 22.3178 6.2714C22.0279 6.80447 21.6225 7.26447 21.1319 7.61703C20.0383 8.42128 18.7074 8.82766 17.356 8.76994C16.961 8.75886 16.5679 8.711 16.1817 8.62697C15.8393 8.55544 15.5037 8.45365 15.179 8.32277L12.8695 9.23537L13.6403 7.37976C13.1986 7.00108 12.8354 6.53794 12.5714 6.01695C12.2923 5.46274 12.1546 4.84684 12.1709 4.22523C12.2038 3.61873 12.372 3.0276 12.6629 2.49607C12.9539 1.96453 13.3601 1.50637 13.8511 1.15587C14.9417 0.352297 16.2692 -0.0550847 17.618 -8.41147e-05H17.621ZM17.6059 0.568766C16.3818 0.515957 15.176 0.883754 14.1853 1.61216C13.7614 1.91401 13.4106 2.30891 13.1592 2.76726C12.9079 3.2256 12.7625 3.73549 12.734 4.25869C12.721 4.78668 12.839 5.30958 13.0773 5.77968C13.3391 6.28649 13.7057 6.73051 14.1522 7.08164L14.3208 7.21549L13.9083 8.21326L15.185 7.70829L15.2904 7.75392C15.616 7.89211 15.9537 7.99905 16.2991 8.07333C16.6517 8.15062 17.0105 8.19542 17.371 8.20718C18.5945 8.26174 19.8002 7.89611 20.7916 7.16986C21.2131 6.86927 21.5622 6.47664 21.8129 6.02112C22.0636 5.56559 22.2096 5.05886 22.2399 4.53855C22.2414 4.0174 22.1262 3.50266 21.903 3.03279C21.6799 2.56292 21.3545 2.15008 20.9512 1.8251C20.0073 1.04291 18.8296 0.605585 17.6089 0.583976L17.6059 0.568766ZM35.8048 27.6819C35.7929 27.5885 35.7505 27.5018 35.6844 27.4355C35.154 26.9029 34.5191 26.4884 33.8205 26.2187C33.2945 26.0141 32.7435 25.8821 32.1825 25.8263L32.2939 24.0772H36.2384C36.4367 24.0764 36.6267 23.9962 36.7666 23.8543C36.9066 23.7123 36.9851 23.5201 36.9851 23.3197C36.9851 20.1956 36.2565 17.8442 36.9851 14.2851C37.2019 13.2295 35.046 13.0683 35.046 14.3398V22.3645H27.5876C27.1781 22.3645 26.8409 22.9182 26.8409 23.3319V23.922C26.8409 23.9664 26.8583 24.009 26.8894 24.0403C26.9204 24.0717 26.9625 24.0894 27.0065 24.0894H30.963L31.1166 25.8202C30.5233 25.8582 29.9383 25.9811 29.3792 26.1853C28.7127 26.4292 28.0992 26.801 27.5725 27.2804C27.516 27.333 27.4747 27.4001 27.4529 27.4746C27.4312 27.549 27.4299 27.6281 27.4491 27.7032C27.3425 27.7701 27.2563 27.8654 27.1999 27.9787C27.1436 28.092 27.1194 28.2188 27.1299 28.3451C27.1299 28.5581 27.2137 28.7623 27.3627 28.9129C27.5118 29.0636 27.714 29.1482 27.9248 29.1482C28.1357 29.1482 28.3379 29.0636 28.4869 28.9129C28.636 28.7623 28.7198 28.5581 28.7198 28.3451C28.7299 28.2177 28.7049 28.09 28.6475 27.9761C28.5901 27.8623 28.5025 27.7668 28.3946 27.7002C28.7822 27.3984 29.214 27.1593 29.6743 26.9914C30.2101 26.796 30.773 26.6872 31.3424 26.6689L31.4297 27.5359V27.5724C31.2598 27.6142 31.1092 27.7139 31.0034 27.8546C30.8976 27.9953 30.8429 28.1685 30.8486 28.3451C30.8419 28.4545 30.8575 28.5641 30.8943 28.6672C30.9312 28.7703 30.9885 28.8647 31.0629 28.9446C31.1372 29.0245 31.2269 29.0881 31.3265 29.1316C31.4261 29.1751 31.5335 29.1976 31.642 29.1976C31.7505 29.1976 31.8579 29.1751 31.9575 29.1316C32.0571 29.0881 32.1468 29.0245 32.2211 28.9446C32.2955 28.8647 32.3528 28.7703 32.3897 28.6672C32.4265 28.5641 32.4421 28.4545 32.4354 28.3451C32.4418 28.1695 32.3881 27.9971 32.2833 27.8569C32.1786 27.7167 32.0292 27.6173 31.8603 27.5755V27.5329L31.9175 26.6781C32.4624 26.7112 32.9989 26.8303 33.5074 27.0309C33.9676 27.2079 34.3966 27.4585 34.778 27.7732C34.6938 27.8404 34.6278 27.9282 34.5862 28.0282C34.5446 28.1282 34.5287 28.2372 34.5402 28.3451C34.5578 28.5521 34.6473 28.7461 34.7927 28.893C34.9381 29.04 35.1302 29.1303 35.3351 29.1482C35.5418 29.1346 35.7366 29.0458 35.8834 28.8981C36.0302 28.7504 36.1189 28.5539 36.133 28.3451C36.1437 28.2161 36.1184 28.0867 36.0598 27.9716C36.0012 27.8565 35.9118 27.7603 35.8018 27.6941L35.8048 27.6819ZM29.4424 3.22441C28.8409 3.22441 28.2529 3.40461 27.7528 3.74221C27.2527 4.07981 26.8629 4.55965 26.6327 5.12106C26.4026 5.68246 26.3423 6.30022 26.4597 6.89621C26.577 7.4922 26.8667 8.03964 27.292 8.46933C27.7173 8.89901 28.2592 9.19163 28.8491 9.31018C29.439 9.42873 30.0505 9.36788 30.6062 9.13534C31.1619 8.9028 31.6369 8.509 31.9711 8.00375C32.3052 7.49849 32.4836 6.90448 32.4836 6.29681C32.4836 5.48196 32.1632 4.70049 31.5929 4.1243C31.0225 3.54811 30.249 3.22441 29.4424 3.22441ZM28.1778 15.2767L28.235 18.9271H24.4591C24.0762 18.9279 23.709 19.0808 23.4369 19.3529C23.1647 19.625 23.0095 19.9944 23.0048 20.3812V21.8505H23.0228V27.5998C23.0236 27.9887 23.1767 28.3615 23.4486 28.6368C23.7205 28.9121 24.0892 29.0675 24.4742 29.0691H25.9285V22.2794C25.9285 21.6345 26.1694 21.8565 26.889 21.8565H30.135H31.9988C32.5779 21.8541 33.1325 21.6207 33.5419 21.207C33.9514 20.7934 34.1825 20.233 34.1848 19.6481V11.9762C34.1825 11.3818 33.9475 10.8125 33.5312 10.3925C33.1149 9.97247 32.551 9.73585 31.9627 9.73425H30.8606C28.5722 9.73425 28.9366 11.3282 27.9218 12.3291C26.9071 13.3299 27.1751 13.4303 25.8141 13.4303H22.8602C21.5384 13.4029 21.2854 15.8638 23.1613 15.7513H25.8713C27.0757 15.7513 27.1781 15.946 28.1717 15.2798L28.1778 15.2767ZM24.2242 16.2228H13.55C13.5157 16.2228 13.4827 16.2366 13.4584 16.2611C13.4342 16.2856 13.4205 16.3189 13.4205 16.3536V18.2244C13.4213 18.2589 13.4352 18.2917 13.4593 18.316C13.4834 18.3404 13.5159 18.3544 13.55 18.3552H17.6571V29.8113C17.6579 29.8571 17.6762 29.9007 17.7082 29.9331C17.7402 29.9654 17.7834 29.9839 17.8287 29.9847H19.7889C19.8339 29.9839 19.8768 29.9653 19.9083 29.9329C19.9399 29.9004 19.9576 29.8568 19.9576 29.8113V18.3552H24.2242C24.2412 18.3552 24.2581 18.3518 24.2738 18.3453C24.2895 18.3387 24.3038 18.3291 24.3158 18.3169C24.3278 18.3048 24.3373 18.2903 24.3439 18.2745C24.3504 18.2586 24.3537 18.2416 24.3537 18.2244V16.3536C24.3537 16.3364 24.3504 16.3194 24.3439 16.3035C24.3373 16.2877 24.3278 16.2732 24.3158 16.2611C24.3038 16.249 24.2895 16.2393 24.2738 16.2327C24.2581 16.2262 24.2412 16.2228 24.2242 16.2228ZM0.403678 14.7353H1.46357C1.56561 14.7417 1.66187 14.7853 1.73443 14.858C1.80699 14.9308 1.85092 15.0277 1.85802 15.1307C2.26326 17.6613 2.46466 20.2209 2.46024 22.7843H9.7139C9.85233 22.7843 9.98514 22.8397 10.0833 22.9383C10.1815 23.0369 10.237 23.1707 10.2378 23.3106V24.3723H9.81929V29.8113C9.8185 29.8535 9.80134 29.8938 9.77149 29.9234C9.74165 29.9529 9.70151 29.9695 9.6597 29.9695H8.2716C8.22979 29.9695 8.18965 29.9529 8.1598 29.9234C8.12996 29.8938 8.1128 29.8535 8.11201 29.8113V27.4416H2.1772C2.08988 28.1626 1.98449 28.8805 1.85802 29.6014C1.85038 29.7045 1.80637 29.8015 1.73398 29.8746C1.6616 29.9477 1.56565 29.9922 1.46357 29.9999H0.403678C0.186881 29.9999 -0.0509934 29.8113 0.000194747 29.6014C1.40636 24.6886 1.11429 19.8823 0.000194747 15.1307C-0.0479823 14.9208 0.177848 14.7353 0.394645 14.7353H0.403678ZM8.11201 26.7085V24.3723H2.44217C2.40905 25.367 2.34281 25.7168 2.23742 26.7085H8.11201ZM6.37463 3.1149C6.97684 3.1143 7.5657 3.29416 8.06671 3.63173C8.56772 3.9693 8.95837 4.4494 9.18924 5.01131C9.4201 5.57322 9.48082 6.19169 9.3637 6.78847C9.24658 7.38524 8.95689 7.93352 8.53127 8.36393C8.10565 8.79434 7.56323 9.08755 6.97264 9.20647C6.38204 9.32538 5.7698 9.26465 5.21337 9.03197C4.65694 8.79929 4.18133 8.4051 3.8467 7.89928C3.51206 7.39346 3.33345 6.79874 3.33345 6.19034C3.33345 5.37521 3.65376 4.59342 4.224 4.01675C4.79425 3.44008 5.56778 3.11571 6.37463 3.1149Z" fill="#03C587"/>
</g>
<defs>
<clipPath id="clip0_535_60">
<rect width="37" height="30" fill="white"/>
</clipPath>
</defs>
</svg>
