<svg width="110" height="100" viewBox="0 0 110 100" fill="none" xmlns="http://www.w3.org/2000/svg">
<g clip-path="url(#clip0_471_1098)">
<path d="M110 50C110.011 56.9653 108.562 63.8554 105.745 70.2244C105.654 70.4302 105.562 70.6347 105.468 70.8379C105.422 70.9402 105.375 71.0412 105.327 71.1434C105.28 71.2444 105.233 71.3466 105.184 71.4476C105.122 71.5786 105.06 71.7082 104.996 71.8379C104.918 72.0013 104.838 72.1633 104.756 72.3254C104.746 72.3479 104.734 72.3703 104.722 72.3928C104.654 72.5299 104.585 72.6671 104.514 72.8042C104.499 72.8342 104.484 72.8641 104.468 72.8928C104.387 73.0524 104.303 73.212 104.219 73.3703V73.3716C104.129 73.5399 104.039 73.7078 103.948 73.8753C103.724 74.2893 103.494 74.6995 103.257 75.106C103.186 75.2269 103.116 75.3479 103.044 75.4676C102.978 75.5798 102.912 75.6908 102.845 75.8018C102.799 75.8791 102.753 75.9551 102.705 76.0312C102.63 76.1546 102.554 76.2781 102.477 76.4015C102.476 76.4027 102.476 76.4027 102.476 76.404C102.305 76.6783 102.131 76.9514 101.955 77.222H101.954C101.873 77.3479 101.791 77.4726 101.709 77.5973V77.5985C101.461 77.9726 101.208 78.3429 100.95 78.7095V78.7107C100.949 78.7108 100.948 78.7113 100.948 78.712V78.7132L100.945 78.7157C100.741 79.0087 100.532 79.2993 100.32 79.5873V79.5885C100.184 79.7731 100.047 79.9576 99.9086 80.1397C99.7952 80.2893 99.6806 80.4385 99.5648 80.5873C99.5411 80.6197 99.5162 80.6509 99.49 80.6833V80.6845C99.4589 80.7257 99.4277 80.7656 99.3941 80.8067V80.808C98.9021 81.4377 98.395 82.0549 97.8731 82.6596H97.8718C97.8444 82.6933 97.8158 82.7257 97.7871 82.7581C97.7597 82.7905 97.7298 82.823 97.7012 82.8566H97.6999C97.6563 82.9077 97.6115 82.9589 97.5667 83.01C97.523 83.0611 97.477 83.1122 97.4309 83.1633V83.1646C94.7102 86.2371 91.6226 88.9633 88.2375 91.2818C87.7865 91.5923 87.3298 91.8944 86.8672 92.1883C86.7526 92.2618 86.638 92.3342 86.5221 92.4065C86.4873 92.4302 86.4524 92.4514 86.4175 92.4726C86.3565 92.5112 86.2942 92.5499 86.2319 92.5885C86.1708 92.6259 86.1086 92.6646 86.0463 92.702C85.7984 92.8541 85.548 93.0037 85.2976 93.1509C85.2353 93.1883 85.1718 93.2244 85.1083 93.2619C85.046 93.298 84.9824 93.3342 84.9189 93.3703C84.9181 93.3716 84.917 93.3727 84.9157 93.3736C84.9144 93.3745 84.9129 93.375 84.9114 93.3753L84.9089 93.3766L84.9065 93.3791H84.9052C84.5913 93.5599 84.2761 93.7382 83.9572 93.9102C83.3867 94.2219 82.8103 94.5225 82.2282 94.8117C82.0837 94.884 81.9379 94.9551 81.7922 95.0262C81.6713 95.0848 81.5492 95.1434 81.4284 95.2008C81.3948 95.217 81.3624 95.2332 81.3288 95.2481C81.2279 95.2955 81.127 95.3429 81.026 95.389C80.9164 95.4414 80.8055 95.4913 80.6959 95.5412C80.5726 95.5973 80.4505 95.6521 80.3272 95.707C79.8638 95.914 79.3954 96.1135 78.9258 96.3055C77.248 96.9931 75.5334 97.5867 73.7897 98.0835C73.7087 98.1072 73.6265 98.1309 73.5443 98.1534C72.7981 98.3629 72.0465 98.5545 71.2895 98.7282C69.9678 99.0324 68.6341 99.2822 67.2883 99.4776C67.2858 99.4776 67.2821 99.4788 67.2796 99.4788C67.1189 99.5025 66.9569 99.5249 66.7962 99.5474C66.7825 99.5499 66.7676 99.5524 66.7526 99.5536C66.7514 99.5549 66.7502 99.5549 66.7477 99.5536C66.7477 99.5536 66.7477 99.5549 66.7464 99.5536C66.5683 99.5773 66.3901 99.601 66.2108 99.6235C66.1983 99.6259 66.1859 99.6272 66.1734 99.6284C66.0065 99.6484 65.8383 99.6683 65.6701 99.687C65.4895 99.707 65.3089 99.7257 65.127 99.7444C64.9887 99.7581 64.8504 99.7718 64.7122 99.7843C64.6999 99.7868 64.6873 99.788 64.6748 99.788C64.549 99.7993 64.4232 99.8105 64.2973 99.8205C64.2924 99.8205 64.2861 99.8217 64.2812 99.8217C64.1715 99.8317 64.0619 99.8392 63.9523 99.8479C62.663 99.9501 61.3612 100.001 60.047 100C58.6206 100 57.2088 99.9406 55.8115 99.8217C55.8066 99.8217 55.8016 99.8205 55.7966 99.8205C55.4989 99.7955 55.2015 99.7681 54.9047 99.7382C54.8262 99.7307 54.7489 99.722 54.6705 99.7145C54.6555 99.7132 54.6406 99.712 54.6256 99.7095C54.6019 99.707 54.5783 99.7045 54.5534 99.702C54.5409 99.7008 54.5272 99.6995 54.5147 99.697C54.4113 99.6858 54.308 99.6746 54.2033 99.6621C54.0875 99.6484 53.9704 99.6347 53.8545 99.6197C53.7387 99.606 53.6216 99.591 53.5057 99.5748C53.4808 99.5723 53.4546 99.5698 53.4297 99.5648C53.345 99.5549 53.2603 99.5436 53.1768 99.5312C53.1357 99.5262 53.0959 99.52 53.056 99.5137C52.975 99.5025 52.8953 99.4913 52.8143 99.4788C52.8118 99.4788 52.8081 99.4776 52.8056 99.4776C50.2618 99.1098 47.7506 98.5433 45.2952 97.7831H45.294C45.1607 97.7419 45.0274 97.6995 44.8941 97.6571C44.8542 97.6459 44.8144 97.6334 44.7745 97.6197C44.4282 97.5087 44.084 97.394 43.7418 97.2756C43.2697 97.1135 42.8009 96.9439 42.3354 96.7668C42.2083 96.7182 42.0825 96.6696 41.9554 96.621C41.7026 96.5212 41.4509 96.4215 41.2005 96.3192C40.7733 96.1446 40.3489 95.9647 39.9274 95.7793H39.9262V95.7781C39.5325 95.6048 39.1418 95.426 38.754 95.2419C38.7425 95.2385 38.7316 95.2334 38.7216 95.2269C38.7203 95.2269 38.7203 95.2257 38.7191 95.2257C38.6331 95.1858 38.5472 95.1446 38.4612 95.1035L38.4587 95.1022C36.322 94.0771 34.2617 92.8995 32.2937 91.5786C31.6621 91.1559 31.0413 90.719 30.4313 90.2681C29.9393 89.9052 29.4543 89.5333 28.9763 89.1521C26.5956 87.2582 24.3924 85.151 22.394 82.8566H22.3927V82.8554C22.252 82.6945 22.1149 82.5349 21.9754 82.3728V82.3716C21.9555 82.3491 21.9368 82.3267 21.9181 82.3042C21.8297 82.2008 21.7437 82.0985 21.6578 81.9938V81.9925C21.5407 81.8541 21.4261 81.7153 21.3139 81.5761C21.289 81.5461 21.2654 81.5175 21.2417 81.4875H21.2404V81.4863C21.1483 81.3741 21.0573 81.2606 20.9676 81.1471C20.9215 81.091 20.8767 81.0337 20.8319 80.9763H20.8306V80.9751C20.559 80.6322 20.2929 80.286 20.0321 79.9364V79.9352C19.9599 79.8392 19.8889 79.7431 19.8191 79.6459H19.8178C19.484 79.1945 19.1589 78.7377 18.8425 78.2756V78.2743C18.7229 78.101 18.6045 77.9264 18.4874 77.7506C18.3703 77.5748 18.2545 77.3986 18.1399 77.222H18.1386C18.0203 77.0399 17.9032 76.857 17.7873 76.6733C17.7811 76.6633 17.7749 76.6546 17.7699 76.6459C17.6553 76.4651 17.5423 76.2831 17.4311 76.0998C17.3414 75.9539 17.2529 75.8092 17.167 75.6633C17.1072 75.5648 17.0486 75.4676 16.9913 75.3678C16.9701 75.3342 16.9515 75.3005 16.9328 75.2681C16.8007 75.0424 16.6712 74.8167 16.5416 74.5898C16.3909 74.323 16.2414 74.0536 16.0957 73.7843C16.0359 73.6733 15.9761 73.5611 15.9175 73.4489C15.8963 73.4127 15.8777 73.3766 15.859 73.3392C15.7892 73.207 15.7194 73.0748 15.6509 72.9414C15.5824 72.8092 15.5139 72.6758 15.4466 72.5424C15.3794 72.409 15.3121 72.2756 15.2461 72.1409C15.1962 72.0399 15.1464 71.9377 15.0978 71.8367C15.0928 71.8282 15.0882 71.8195 15.0841 71.8105C15.0617 71.7631 15.038 71.717 15.0169 71.6696C15.0119 71.6623 15.0081 71.6543 15.0057 71.6459C14.9546 71.5412 14.9047 71.4377 14.8562 71.3329C14.7914 71.1983 14.7291 71.0624 14.6668 70.9264C14.622 70.8317 14.5796 70.7357 14.536 70.6397C14.4737 70.505 14.4127 70.3691 14.3529 70.2319C14.2894 70.091 14.2283 69.9489 14.1673 69.8067C14.1511 69.7706 14.1361 69.7357 14.1212 69.6995C14.0925 69.6347 14.0651 69.5698 14.0377 69.505C13.9642 69.3329 13.892 69.1584 13.821 68.985C13.74 68.7893 13.6611 68.5931 13.5843 68.3965C13.5108 68.2132 13.4394 68.0295 13.37 67.8454L13.3439 67.7781V67.7768C12.2615 64.9294 11.4425 61.9886 10.8973 58.9913V58.99C10.5864 57.2788 10.3652 55.5524 10.2346 53.818C10.2271 53.7232 10.2209 53.6284 10.2146 53.5337C10.1324 52.3604 10.0921 51.1825 10.0938 50C10.0938 49.4751 10.1021 48.9526 10.1187 48.4327C10.4417 37.5622 14.3131 27.0969 21.1408 18.6372C21.441 18.2643 21.7466 17.8961 22.0576 17.5324C31.2186 6.80175 44.8393 0 60.047 0C77.8271 0 93.4384 9.29801 102.289 23.3017C102.75 24.0274 103.191 24.7664 103.612 25.5187C107.813 32.9919 110.014 41.4249 110 50Z" fill="#F2F2F2"/>
<path d="M84.2362 89.2456C84.0569 89.7419 83.8779 90.2382 83.6993 90.7344C83.6657 90.8292 83.6308 90.9227 83.5972 91.0175C83.1413 92.2818 82.6849 93.5466 82.2281 94.8117C82.0836 94.8841 81.9379 94.9551 81.7921 95.0262C81.6713 95.0848 81.5492 95.1434 81.4284 95.2008C81.3948 95.217 81.3624 95.2332 81.3287 95.2481C81.2278 95.2955 81.1269 95.3429 81.026 95.389C80.9164 95.4414 80.8055 95.4913 80.6959 95.5412C80.5726 95.5973 80.4505 95.6521 80.3272 95.707C80.2631 95.5399 80.2265 95.3634 80.2188 95.1845C80.2135 94.9037 80.2466 94.6235 80.3172 94.3516C80.4256 93.9028 80.5975 93.4626 80.7109 93.0125C80.7171 92.9913 80.7221 92.9688 80.7271 92.9476C80.9798 91.873 80.863 90.7444 80.3957 89.7444C80.1142 89.1484 79.7105 88.606 79.5349 87.9701C79.3823 87.373 79.45 86.7408 79.7255 86.1895C79.8278 85.9757 79.9562 85.7755 80.1079 85.5935C80.1441 85.5474 80.1827 85.5038 80.2225 85.4601C80.589 85.0572 81.0758 84.7838 81.6103 84.6808C82.633 84.4988 83.7018 85.0436 84.2736 85.899C84.5079 86.2427 84.6507 86.6405 84.6884 87.0549C84.7507 87.8042 84.4916 88.5387 84.2362 89.2456Z" fill="#E4E4E4"/>
<path d="M81.4122 94.3105C81.178 93.8778 80.7856 93.4987 80.7108 93.0124C80.4679 91.4514 79.8824 90.3316 78.912 89.697C78.6305 89.5137 78.5856 89.1085 78.4125 88.8167C78.3352 88.6858 78.2568 88.5548 78.1758 88.4264C78.045 88.2132 77.9088 88.0041 77.7672 87.7992C77.4988 87.4031 77.2028 87.0265 76.8815 86.672C76.7482 86.5237 76.6074 86.3803 76.4617 86.2444L76.4604 86.2431C76.3695 86.1558 76.2773 86.0723 76.1814 85.9913C76.144 85.9588 76.1054 85.9264 76.0655 85.894L76.0631 85.8915C75.8947 85.7454 75.7184 85.6089 75.5349 85.4825C75.1126 85.197 74.6355 84.9987 74.1459 85.1571C73.9535 85.2231 73.7682 85.3083 73.5928 85.4114C73.5031 85.4626 73.4147 85.5162 73.3262 85.5698C73.2664 85.606 73.2066 85.6421 73.1468 85.6795C73.0982 85.7082 73.0497 85.7369 73.0011 85.7643C72.6249 85.9813 72.247 86.1941 71.8675 86.4027C71.8127 86.4339 71.7579 86.4638 71.7018 86.4937H71.7006C71.6619 86.5162 71.6221 86.5374 71.5822 86.5586C71.5062 86.601 71.429 86.6434 71.353 86.6845C71.125 86.808 70.8967 86.9302 70.6679 87.0511C70.5508 87.1134 70.4324 87.1733 70.3141 87.2331C70.2593 87.2606 70.2045 87.288 70.1509 87.3167H70.1496C70.1297 87.3267 70.111 87.3366 70.0911 87.3466C69.9291 87.4302 69.7697 87.5162 69.6152 87.6097C69.1672 87.8798 68.7779 88.2373 68.4704 88.6608C68.4106 88.7431 68.3533 88.8279 68.301 88.9152C68.2324 89.0281 68.17 89.1446 68.1141 89.2643C68.0755 89.3454 68.0394 89.4264 68.007 89.5087V89.51C67.7007 90.298 67.6579 91.1643 67.8849 91.9788V91.98C67.8999 92.0361 67.9161 92.091 67.9348 92.1459C67.9647 92.2381 67.9983 92.3304 68.0357 92.4202C68.0769 92.5203 68.1235 92.6181 68.1752 92.7132V92.7144C68.4524 93.1878 68.7983 93.6172 69.2016 93.9888L69.2141 94.0012C69.2639 94.0499 69.315 94.0997 69.3648 94.1484C69.3922 94.1745 69.4209 94.2007 69.4508 94.2257C69.8818 94.596 70.5782 94.8765 70.9718 95.2568C71.1823 95.4601 71.3057 95.6908 71.2571 95.9788C71.1275 96.7431 71.1562 97.2381 71.2882 97.5561C71.647 98.4239 72.7731 97.9825 73.5442 98.1533C73.6264 98.1309 73.7086 98.1072 73.7896 98.0835C75.5333 97.5867 77.248 96.9931 78.9257 96.3055C79.3953 96.1134 79.8637 95.9139 80.3271 95.707C80.4505 95.6521 80.5725 95.5972 80.6959 95.5411C80.8055 95.4912 80.9164 95.4414 81.026 95.389C81.1269 95.3429 81.2278 95.2955 81.3287 95.2481C81.3623 95.2331 81.3947 95.2169 81.4283 95.2007C81.5492 95.1434 81.6713 95.0848 81.7921 95.0262C81.6688 94.7855 81.5405 94.5474 81.4122 94.3105Z" fill="#E4E4E4"/>
<path d="M72.2979 82.205C72.5596 81.4135 72.1996 80.8912 71.2731 80.6142C71.2415 80.5855 71.2031 80.5652 71.1616 80.5551C71.1201 80.5451 71.0767 80.5456 71.0354 80.5567C70.9942 80.5678 70.9564 80.5891 70.9254 80.6185C70.8945 80.648 70.8715 80.6848 70.8584 80.7255L70.0495 83.1246C69.2034 82.908 68.5828 83.0564 68.448 83.8941C68.7819 83.0409 68.4678 82.5056 67.5283 82.2773C67.4978 82.2469 67.4601 82.2246 67.4187 82.2127C67.3773 82.2007 67.3335 82.1995 67.2915 82.209C67.2495 82.2185 67.2105 82.2386 67.1783 82.2672C67.1461 82.2959 67.1216 82.3322 67.1072 82.3729L66.5752 84.5336C65.9274 85.5105 65.6092 86.6694 65.6674 87.8405C65.7256 89.0116 66.1571 90.1332 66.8986 91.0408C67.6402 91.9485 68.6527 92.5946 69.7878 92.8842C70.9229 93.1738 72.1209 93.0919 73.2061 92.6503C74.2912 92.2087 75.2065 91.4308 75.8177 90.4305C76.4289 89.4303 76.7039 88.2603 76.6024 87.0922C76.5008 85.9241 76.028 84.8193 75.2534 83.9398C74.4787 83.0603 73.4429 82.4523 72.2979 82.205Z" fill="#E4E4E4"/>
<path d="M71.7828 89.0424C71.6734 89.1009 71.5453 89.1137 71.4266 89.0779C71.3079 89.042 71.2082 88.9605 71.1494 88.8512C71.1411 88.8356 71.1393 88.8173 71.1445 88.8004C71.1496 88.7834 71.1613 88.7692 71.1768 88.7609C71.1924 88.7525 71.2107 88.7506 71.2276 88.7557C71.2445 88.7608 71.2588 88.7724 71.2672 88.788C71.3092 88.866 71.3804 88.9241 71.4651 88.9496C71.5499 88.9752 71.6413 88.966 71.7193 88.9241C71.7973 88.8822 71.8555 88.811 71.8812 88.7262C71.9068 88.6414 71.8977 88.5499 71.856 88.4717C71.8477 88.4561 71.8459 88.4378 71.851 88.4209C71.8562 88.4039 71.8678 88.3897 71.8834 88.3814C71.899 88.373 71.9172 88.3711 71.9341 88.3762C71.9511 88.3813 71.9653 88.3929 71.9737 88.4085C72.0322 88.5179 72.045 88.6461 72.0092 88.7649C71.9734 88.8838 71.892 88.9836 71.7828 89.0424Z" fill="white"/>
<path d="M71.2934 88.0586C71.5535 87.9189 71.7209 87.7245 71.6672 87.6243C71.6135 87.5242 71.3591 87.5562 71.099 87.696C70.8388 87.8357 70.6715 88.0302 70.7251 88.1303C70.7788 88.2305 71.0332 88.1984 71.2934 88.0586Z" fill="white"/>
<path d="M68.5282 88.2284C68.5633 88.0576 68.6356 87.8967 68.7397 87.757C68.8438 87.6172 68.9773 87.502 69.1308 87.4196C69.2843 87.3372 69.454 87.2895 69.6279 87.2799C69.8018 87.2703 69.9757 87.299 70.1373 87.3641C70.2186 87.1153 70.2244 86.8479 70.1539 86.5958C70.0834 86.3437 69.9398 86.1182 69.7412 85.9478C69.5427 85.7774 69.2981 85.6698 69.0384 85.6385C68.7788 85.6072 68.5157 85.6537 68.2824 85.7721C68.0492 85.8905 67.8562 86.0755 67.728 86.3037C67.5997 86.5318 67.542 86.7929 67.562 87.0539C67.582 87.3149 67.6789 87.5642 67.8404 87.7701C68.0019 87.976 68.2208 88.1293 68.4694 88.2107C68.4888 88.217 68.5084 88.2229 68.5282 88.2284Z" fill="white"/>
<path d="M68.9236 87.7479C69.1749 87.7479 69.3785 87.544 69.3785 87.2926C69.3785 87.0411 69.1749 86.8373 68.9236 86.8373C68.6724 86.8373 68.4688 87.0411 68.4688 87.2926C68.4688 87.544 68.6724 87.7479 68.9236 87.7479Z" fill="#3F3D56"/>
<path d="M71.6771 86.5898C71.7123 86.4191 71.7845 86.2582 71.8886 86.1184C71.9928 85.9787 72.1263 85.8635 72.2797 85.7811C72.4332 85.6986 72.6029 85.6509 72.7768 85.6413C72.9507 85.6317 73.1247 85.6605 73.2863 85.7255C73.3676 85.4767 73.3733 85.2094 73.3028 84.9573C73.2323 84.7052 73.0887 84.4797 72.8902 84.3093C72.6916 84.1389 72.447 84.0312 72.1874 84C71.9277 83.9687 71.6646 84.0152 71.4313 84.1336C71.1981 84.252 71.0051 84.437 70.8769 84.6651C70.7487 84.8933 70.6909 85.1544 70.7109 85.4154C70.7309 85.6764 70.8278 85.9256 70.9893 86.1315C71.1509 86.3374 71.3698 86.4907 71.6183 86.5721C71.6378 86.5785 71.6574 86.5844 71.6771 86.5898Z" fill="white"/>
<path d="M72.2391 86.084C72.4903 86.084 72.6939 85.8801 72.6939 85.6286C72.6939 85.3772 72.4903 85.1733 72.2391 85.1733C71.9878 85.1733 71.7842 85.3772 71.7842 85.6286C71.7842 85.8801 71.9878 86.084 72.2391 86.084Z" fill="#3F3D56"/>
<path d="M74.5219 85.5971L72.9688 87.1813L73.1255 87.3353L74.6786 85.7511L74.5219 85.5971Z" fill="white"/>
<path d="M75.0152 86.3637L73.1387 87.5461L73.2557 87.7322L75.1322 86.5497L75.0152 86.3637Z" fill="white"/>
<path d="M69.6369 88.9709L67.4595 89.3905L67.501 89.6064L69.6784 89.1868L69.6369 88.9709Z" fill="white"/>
<path d="M69.8466 89.3145L67.8247 90.226L67.9149 90.4264L69.9368 89.515L69.8466 89.3145Z" fill="white"/>
<path d="M5.72442 55.4973C1.46527 51.6605 -1.11368 45.5591 0.471217 40.0475C4.04792 45.1548 9.31419 48.8313 15.3383 50.4263C17.6637 51.033 20.3133 51.4654 21.7281 53.4098C22.6085 54.6197 22.8129 56.2185 22.6045 57.7005C22.3961 59.1826 21.8136 60.5823 21.2365 61.9631L21.267 62.3355C15.6424 61.2399 9.98358 59.3342 5.72442 55.4973Z" fill="#E6E6E6"/>
<path d="M0.590187 40.0649C1.67269 44.6356 4.22104 48.8898 7.7968 51.9428C8.56987 52.6029 9.41148 53.2051 10.3555 53.5945C11.2787 53.9669 12.2846 54.0852 13.2688 53.9369C14.1893 53.8171 15.1169 53.5878 16.0504 53.6941C17.0344 53.806 17.8565 54.3579 18.4307 55.1526C19.1334 56.1248 19.4451 57.2918 19.7103 58.4437C20.0048 59.7226 20.2904 61.0556 21.134 62.1008C21.2362 62.2275 21.0339 62.3788 20.9318 62.2523C19.4642 60.4339 19.6649 57.9166 18.602 55.9072C18.106 54.9695 17.3247 54.1758 16.2486 53.9788C15.3077 53.8066 14.3508 54.0422 13.4199 54.1715C12.4424 54.3074 11.4967 54.2745 10.5589 53.943C9.59962 53.6039 8.73271 53.0333 7.94617 52.3959C6.17336 50.9372 4.64071 49.2086 3.40436 47.2734C1.98109 45.0726 0.944429 42.6444 0.339233 40.0937C0.301839 39.9358 0.55304 39.9081 0.590187 40.0649Z" fill="white"/>
<path d="M6.58198 51.0118C5.98012 51.5439 5.20888 51.8446 4.40598 51.8601C3.60307 51.8756 2.82081 51.605 2.19887 51.0965C2.07338 50.9931 2.2279 50.7931 2.35355 50.8966C2.93182 51.3711 3.66053 51.6232 4.40816 51.6072C5.15579 51.5912 5.87309 51.3083 6.4306 50.8094C6.55188 50.7012 6.70257 50.9041 6.58198 51.0118Z" fill="white"/>
<path d="M12.8102 54.0591C12.9264 52.4201 12.421 50.7975 11.395 49.5148C11.2933 49.3878 11.4956 49.2364 11.5972 49.3633C12.6624 50.7001 13.1848 52.3897 13.0602 54.095C13.0482 54.2576 12.7983 54.2208 12.8102 54.0591Z" fill="white"/>
<path d="M2.31156 45.0172C2.5873 44.8599 2.81968 44.6365 2.98783 44.367C3.15599 44.0976 3.25465 43.7906 3.27496 43.4735C3.28489 43.3109 3.53481 43.3479 3.52495 43.5095C3.50088 43.8596 3.3915 44.1986 3.20637 44.4967C3.02125 44.7948 2.76601 45.043 2.46295 45.2196C2.43577 45.2386 2.40238 45.2466 2.36954 45.2418C2.33671 45.2371 2.3069 45.2201 2.28618 45.1941C2.26627 45.1673 2.25777 45.1336 2.26252 45.1005C2.26727 45.0673 2.2849 45.0374 2.31156 45.0172Z" fill="white"/>
<path d="M18.2583 32.2935C18.255 32.3952 18.2517 32.4969 18.25 32.5999C18.2126 33.9676 18.2862 35.336 18.4702 36.6917C18.4827 36.7968 18.497 36.903 18.5126 37.0075C18.9905 40.269 20.0693 43.4134 21.6941 46.2807C22.3416 47.4211 23.075 48.5105 23.8877 49.5396C25.0101 50.9606 26.3401 52.412 26.9112 54.0724C26.9727 54.2449 27.0235 54.4211 27.0633 54.6L21.7185 62.2693C21.6976 62.2806 21.6784 62.2932 21.6574 62.3047L21.458 62.6206C21.4124 62.5705 21.3661 62.5175 21.3205 62.4674C21.294 62.4384 21.2686 62.4077 21.242 62.3787C21.2246 62.3589 21.2073 62.3389 21.1905 62.322C21.1847 62.3154 21.179 62.3087 21.175 62.3034C21.1582 62.2864 21.1444 62.2689 21.1293 62.2532C20.8701 61.9578 20.6124 61.66 20.3564 61.3598C20.3547 61.3586 20.3547 61.3586 20.3541 61.3557C18.4092 59.0638 16.6384 56.5893 15.2991 53.9244C15.2588 53.8442 15.2167 53.7628 15.1789 53.6791C14.5819 52.4746 14.0842 51.2232 13.6908 49.9375C13.4777 49.2327 13.3003 48.5177 13.1595 47.795C12.799 45.9271 12.7344 44.014 12.9679 42.1259C13.4339 38.3621 15.0973 34.7894 18.0323 32.4686C18.1074 32.4093 18.1814 32.3516 18.2583 32.2935Z" fill="#E6E6E6"/>
<path d="M18.3436 32.3786C16.4586 36.6804 15.9344 41.6128 16.953 46.2054C17.1733 47.1983 17.483 48.1863 18.0026 49.0661C18.5156 49.9198 19.2477 50.6204 20.1227 51.0951C20.9297 51.5541 21.8083 51.9301 22.4897 52.5775C23.208 53.2599 23.5324 54.196 23.513 55.1765C23.4892 56.3763 23.0361 57.4959 22.555 58.5754C22.0209 59.774 21.4471 61.0105 21.4919 62.3533C21.4974 62.5161 21.2448 62.515 21.2394 62.3525C21.1614 60.0161 22.8358 58.1272 23.1958 55.8822C23.3638 54.8347 23.2174 53.7301 22.4767 52.9243C21.829 52.2197 20.9233 51.8312 20.1022 51.3735C19.24 50.8929 18.5047 50.2968 17.9553 49.4669C17.3934 48.618 17.0444 47.64 16.7998 46.6571C16.2617 44.4241 16.0777 42.1203 16.2546 39.8301C16.442 37.2151 17.0749 34.6516 18.1259 32.2503C18.191 32.1017 18.4083 32.2309 18.3436 32.3786Z" fill="white"/>
<path d="M16.5434 44.73C15.7428 44.7922 14.9461 44.5675 14.2957 44.096C13.6453 43.6246 13.1835 42.937 12.9928 42.1562C12.9547 41.9981 13.1984 41.9315 13.2365 42.0898C13.4128 42.8172 13.843 43.4576 14.4496 43.8954C15.0561 44.3332 15.799 44.5396 16.5442 44.4772C16.7062 44.4639 16.7044 44.7167 16.5434 44.73Z" fill="white"/>
<path d="M19.6829 50.9162C20.7615 49.6776 21.334 48.0775 21.2864 46.435C21.2815 46.2723 21.5341 46.2733 21.5389 46.4359C21.5853 48.1451 20.9861 49.809 19.8609 51.0956C19.7535 51.2181 19.5761 51.0381 19.6829 50.9162Z" fill="white"/>
<path d="M16.739 37.37C17.0538 37.4106 17.3737 37.3722 17.67 37.2584C17.9664 37.1446 18.2298 36.9589 18.4368 36.718C18.5425 36.5942 18.7198 36.7743 18.6147 36.8974C18.3849 37.1625 18.0937 37.3672 17.7666 37.4936C17.4394 37.6201 17.0864 37.6644 16.7382 37.6228C16.705 37.6216 16.6736 37.6079 16.6502 37.5843C16.6268 37.5607 16.6133 37.5292 16.6123 37.496C16.6126 37.4625 16.626 37.4305 16.6498 37.4069C16.6735 37.3833 16.7056 37.3701 16.739 37.37Z" fill="white"/>
<path d="M67.0844 32.8049C67.8269 28.6946 66.593 24.0305 63.2246 21.5648C63.4411 26.102 62.0473 30.5696 59.2898 34.1772C58.2213 35.5646 56.8886 36.9965 56.9404 38.7475C56.9727 39.837 57.5674 40.8488 58.3477 41.609C59.1281 42.3693 60.0872 42.9151 61.0347 43.4524L61.183 43.6804C63.9331 40.5387 66.3419 36.9153 67.0844 32.8049Z" fill="#E6E6E6"/>
<path d="M63.1636 21.6279C64.5911 24.7762 64.9913 28.2947 64.3072 31.6836C64.1729 32.4157 63.9241 33.1221 63.57 33.7768C63.2045 34.4033 62.6781 34.9204 62.0453 35.2744C61.462 35.6164 60.8258 35.8985 60.3357 36.3764C60.0884 36.6248 59.8964 36.9226 59.7722 37.2505C59.6481 37.5783 59.5945 37.9287 59.6151 38.2787C59.6438 39.1522 59.9844 39.9632 60.3449 40.7448C60.7453 41.6125 61.1748 42.5075 61.1549 43.4858C61.1525 43.6044 61.3364 43.6012 61.3388 43.4828C61.3734 41.7807 60.1362 40.4211 59.8528 38.7896C59.7205 38.0284 59.8167 37.2226 60.3484 36.6288C60.8135 36.1096 61.4693 35.8181 62.0629 35.477C62.6852 35.1407 63.2157 34.657 63.6082 34.0682C63.9945 33.4337 64.27 32.7381 64.4231 32.0111C64.7938 30.3799 64.9059 28.7005 64.7554 27.0344C64.5942 25.1319 64.109 23.2711 63.3209 21.5324C63.2721 21.4248 63.1151 21.521 63.1636 21.6279Z" fill="white"/>
<path d="M64.5918 30.6054C65.1754 30.6431 65.7534 30.4719 66.2226 30.1224C66.6917 29.7729 67.0215 29.2678 67.153 28.6974C67.1792 28.5819 67.0011 28.5357 66.9749 28.6514C66.8534 29.1828 66.5462 29.6532 66.1086 29.9778C65.6711 30.3023 65.132 30.4596 64.5888 30.4213C64.4707 30.4131 64.4744 30.5972 64.5918 30.6054Z" fill="white"/>
<path d="M62.3642 35.1401C61.5671 34.2483 61.135 33.0886 61.1541 31.8921C61.1561 31.7735 60.9722 31.7767 60.9702 31.8951C60.9526 33.1402 61.4047 34.3462 62.2363 35.2724C62.3157 35.3606 62.4431 35.2279 62.3642 35.1401Z" fill="white"/>
<path d="M64.3795 25.2475C64.1506 25.28 63.9173 25.2551 63.7004 25.1751C63.4835 25.095 63.2899 24.9623 63.137 24.7888C63.0588 24.6996 62.9314 24.8325 63.0091 24.9211C63.1789 25.112 63.3929 25.2583 63.6324 25.3473C63.8718 25.4362 64.1293 25.4652 64.3825 25.4316C64.4066 25.4304 64.4294 25.4201 64.4462 25.4027C64.463 25.3853 64.4726 25.3622 64.4729 25.338C64.4724 25.3136 64.4623 25.2905 64.4448 25.2735C64.4273 25.2566 64.4038 25.2472 64.3795 25.2475Z" fill="white"/>
<path d="M49.5288 25.0411C49.576 25.0982 49.6233 25.1553 49.6701 25.2139C50.3011 25.9845 50.8685 26.8053 51.3666 27.6679C51.4062 27.734 51.4453 27.8016 51.4829 27.8686C52.661 29.9598 53.441 32.2517 53.7833 34.6278C53.9186 35.5735 53.9818 36.528 53.9725 37.4833C53.9594 38.8025 53.8404 40.2319 54.2515 41.4427C54.293 41.5696 54.3422 41.6937 54.399 41.8144L60.8935 43.8438C60.9106 43.841 60.9273 43.8397 60.9444 43.8369L61.2 43.9298C61.204 43.8806 61.207 43.8294 61.2109 43.7802C61.2133 43.7516 61.2142 43.7226 61.2166 43.6941C61.2178 43.6749 61.2188 43.6557 61.221 43.6385C61.2214 43.6321 61.2217 43.6257 61.2216 43.6208C61.2237 43.6035 61.2239 43.5873 61.2256 43.5715C61.2432 43.2857 61.2588 42.9992 61.2725 42.7121C61.2729 42.7106 61.2729 42.7106 61.2719 42.7087C61.3704 40.521 61.2873 38.3057 60.871 36.1736C60.8584 36.1094 60.8464 36.0438 60.8309 35.9788C60.6379 35.0187 60.3668 34.0761 60.0204 33.1603C59.8291 32.6594 59.6125 32.1685 59.3716 31.6896C58.7468 30.4532 57.9316 29.3229 56.9559 28.3402C55.0105 26.3813 52.4608 25.067 49.7369 25.041C49.6673 25.0404 49.599 25.0403 49.5288 25.0411Z" fill="#E6E6E6"/>
<path d="M49.5176 25.1282C52.5511 26.7817 54.987 29.3499 56.4792 32.4679C56.8124 33.1335 57.0386 33.8474 57.1497 34.5835C57.2347 35.304 57.1254 36.0342 56.8332 36.6981C56.5731 37.3227 56.2348 37.9313 56.1309 38.6083C56.0829 38.9556 56.1088 39.3091 56.2068 39.6457C56.3049 39.9823 56.4729 40.2944 56.6999 40.5614C57.2482 41.2415 58.0079 41.6839 58.7659 42.0906C59.6075 42.5422 60.4888 42.9979 61.0614 43.7911C61.1308 43.8872 61.2757 43.7738 61.2064 43.6779C60.2102 42.2979 58.4045 41.9579 57.1969 40.8261C56.6334 40.298 56.2255 39.5967 56.293 38.8021C56.3519 38.1073 56.7002 37.4793 56.969 36.8493C57.2636 36.2058 57.3963 35.4998 57.3555 34.7932C57.2822 34.0538 57.0838 33.3323 56.7687 32.6596C56.0835 31.1338 55.1629 29.7253 54.0406 28.4857C52.7675 27.0639 51.2608 25.8705 49.5857 24.9572C49.482 24.9007 49.4146 25.0721 49.5176 25.1282Z" fill="white"/>
<path d="M56.0576 31.4357C56.5463 31.1141 56.9048 30.6291 57.0692 30.0673C57.2336 29.5055 57.1931 28.9035 56.955 28.3688C56.9064 28.2608 56.7365 28.3312 56.7851 28.4394C57.0077 28.9369 57.0454 29.4976 56.8913 30.0205C56.7371 30.5433 56.4013 30.9937 55.9445 31.2905C55.8453 31.3551 55.959 31.4999 56.0576 31.4357Z" fill="white"/>
<path d="M57.0068 36.3989C55.8338 36.1673 54.7912 35.5017 54.0868 34.5348C54.0171 34.4389 53.8722 34.5523 53.9418 34.648C54.6767 35.6528 55.7631 36.3433 56.9842 36.5816C57.1006 36.6042 57.1225 36.4214 57.0068 36.3989Z" fill="white"/>
<path d="M52.6656 27.2856C52.5025 27.4495 52.3012 27.5703 52.0799 27.637C51.8586 27.7038 51.6241 27.7145 51.3977 27.6682C51.2816 27.6441 51.2598 27.827 51.3751 27.8509C51.6255 27.9009 51.8844 27.8888 52.1291 27.8155C52.3738 27.7423 52.5968 27.6102 52.7787 27.4308C52.7973 27.4153 52.8093 27.3934 52.8122 27.3694C52.8152 27.3454 52.8089 27.3211 52.7947 27.3016C52.7796 27.2825 52.7576 27.27 52.7334 27.2671C52.7093 27.2641 52.6849 27.2707 52.6656 27.2856Z" fill="white"/>
<path d="M16.3531 47.1344C17.2523 47.1344 18.1146 47.4919 18.7504 48.1283C19.3861 48.7647 19.7433 49.6278 19.7433 50.5277C19.7432 51.3149 19.4697 52.0776 18.9697 52.6851C18.4697 53.2927 17.7742 53.7074 17.0023 53.8583V59.4082H14.8384V47.1344H16.3531Z" fill="#3F3D56"/>
<path d="M99.3944 79.6454V80.8075C98.9023 81.4372 98.3953 82.0544 97.8734 82.6591C97.8173 82.7252 97.76 82.79 97.7015 82.8561C97.613 82.9596 97.5221 83.0618 97.4312 83.1641V79.6454H99.3944Z" fill="#CACACA"/>
<path d="M93.6339 77.2214C93.2 77.2219 92.7839 77.3947 92.4771 77.7019C92.1702 78.009 91.9976 78.4255 91.9971 78.8598V81.2177C91.9976 81.6521 92.1702 82.0685 92.4771 82.3757C92.7839 82.6828 93.2 82.8556 93.6339 82.8561H97.7012C97.7598 82.79 97.8171 82.7252 97.8731 82.6591C98.3951 82.0544 98.9021 81.4371 99.3941 80.8075C99.4265 80.7663 99.4589 80.7252 99.4901 80.684C99.7716 80.3237 100.048 79.9571 100.32 79.588C100.531 79.2987 100.742 79.007 100.948 78.7127C100.949 78.7115 100.95 78.7115 100.95 78.7102C101.294 78.2214 101.629 77.7252 101.955 77.2214H93.6339Z" fill="#3F3D56"/>
<path d="M104.107 57.0395C103.857 56.9531 103.594 56.9092 103.329 56.9098H102.66C102.417 56.91 102.174 56.9465 101.942 57.0183C101.45 57.1728 101.021 57.48 100.716 57.8952C100.411 58.3105 100.247 58.8122 100.246 59.3275V78.9971C100.246 79.0706 100.25 79.143 100.256 79.214C100.267 79.3403 100.288 79.4654 100.32 79.5881C100.531 79.2988 100.742 79.007 100.947 78.7128C100.949 78.7115 100.95 78.7115 100.95 78.7103C101.294 78.2215 101.629 77.7253 101.955 77.2215C102.131 76.9509 102.305 76.6779 102.476 76.4036C103.709 74.4231 104.801 72.3582 105.745 70.224V59.3275C105.744 58.8228 105.586 58.3308 105.292 57.9206C104.998 57.5103 104.584 57.2022 104.107 57.0395Z" fill="#3F3D56"/>
<path d="M21.6578 79.6454V81.9933C21.0972 81.3224 20.5553 80.6367 20.0321 79.9359C19.9599 79.8399 19.8889 79.7426 19.8179 79.6454H21.6578Z" fill="#CACACA"/>
<path d="M25.4548 77.2214H18.1387C18.3691 77.5768 18.6037 77.928 18.8425 78.2751C19.1589 78.7376 19.484 79.1944 19.8179 79.6454C19.8889 79.7426 19.9599 79.8399 20.0322 79.9359C20.5566 80.6366 21.0985 81.3224 21.6578 81.9933C21.7625 82.1204 21.8683 82.2464 21.9755 82.3723C22.1125 82.5344 22.2516 82.6957 22.3928 82.8561H25.4548C25.8886 82.8555 26.3045 82.6827 26.6111 82.3755C26.9178 82.0684 27.0902 81.6519 27.0904 81.2177V78.8598C27.0902 78.4256 26.9178 78.0092 26.6111 77.702C26.3045 77.3948 25.8886 77.222 25.4548 77.2214Z" fill="#3F3D56"/>
<path d="M17.5431 57.1829C17.1982 57.0038 16.8154 56.9102 16.4269 56.9098H15.7592C15.4432 56.9094 15.1303 56.9717 14.8386 57.0931C14.3966 57.2758 14.0187 57.5857 13.7526 57.9834C13.4866 58.3811 13.3443 58.8488 13.3438 59.3275V67.7776C14.6016 71.0875 16.2089 74.2534 18.1385 77.2215C18.369 77.5769 18.6036 77.9281 18.8423 78.2751V59.3275C18.842 58.8854 18.7208 58.4518 18.4917 58.0737C18.2627 57.6956 17.9346 57.3875 17.5431 57.1829Z" fill="#3F3D56"/>
<path d="M44.7575 93.7019L46.952 93.1979L46.0543 84.4857L42.8154 85.2296L44.7575 93.7019Z" fill="#9E616A"/>
<path d="M46.7541 86.1429C46.7091 85.9894 46.6787 85.832 46.6632 85.6729C46.6449 85.4847 46.6082 85.2989 46.5535 85.118C46.4912 84.9534 46.414 84.7948 46.3231 84.6442C46.2795 84.5644 46.2334 84.4846 46.1923 84.4035C46.1509 84.3225 46.1151 84.2388 46.0851 84.1529C44.8008 80.3561 43.0082 75.1965 41.765 72.1766C41.0338 70.3998 36.5367 69.8088 32.2938 69.6579C31.7769 69.6392 31.2636 69.6267 30.7616 69.6205C30.5884 69.618 30.4165 69.6155 30.2459 69.6142C29.8099 69.6117 29.3851 69.6118 28.9765 69.6167C28.9229 69.6167 28.8694 69.6167 28.8158 69.618C28.5181 69.6205 28.2295 69.6246 27.95 69.6305C26.0291 69.6679 24.6177 69.7551 24.3661 69.7714L22.1251 68.3611L21.6878 68.0856L21.6417 68.3611L21.2892 70.4634L20.6875 74.0507L22.1961 74.4746L23.1752 74.7489L28.9765 76.3773L30.2097 76.724L30.2172 76.7265L32.2938 76.7227L37.9718 76.7128L38.2459 77.4397C38.1474 77.5927 38.0827 77.7649 38.0559 77.9448C38.0292 78.1248 38.041 78.3084 38.0906 78.4834C38.1402 78.6585 38.2265 78.8209 38.3437 78.96C38.4609 79.0991 38.6063 79.2116 38.7703 79.2901L38.9833 79.3911L41.5781 86.2639C41.5861 86.8855 41.7801 87.4906 42.135 88.0008C42.1786 88.0644 42.2259 88.1267 42.2757 88.1878L42.333 88.2564L43.3309 90.2103L43.9251 90.0731L46.4539 89.4933L46.4663 89.4684C46.4676 89.4646 46.5 89.396 46.5473 89.2763V89.2726C46.7454 88.7776 47.1839 87.4247 46.7541 86.1429Z" fill="#2F2E41"/>
<path d="M52.9192 94.2813C52.8248 93.8624 52.6484 93.4665 52.4004 93.1161C52.1524 92.7658 51.8377 92.468 51.4742 92.2399C51.1108 92.0118 50.7058 91.858 50.2827 91.7872C49.8596 91.7164 49.4267 91.7301 49.0089 91.8274L47.2562 91.0356L46.7654 91.381L44.7299 92.81L44.5617 92.8486L44.0161 92.9733L44.7698 96.2613L52.9442 94.3848L52.9192 94.2813Z" fill="#2F2E41"/>
<path d="M42.0762 89.2115L41.335 95.2265L41.3101 95.4235L41.2005 96.32C40.7732 96.1455 40.3472 95.9647 39.9261 95.7789C39.5325 95.6056 39.1417 95.4268 38.7539 95.2427V89.2128L42.0762 89.2115Z" fill="#9E616A"/>
<path d="M25.9922 47.8608C28.474 47.8608 30.4859 45.847 30.4859 43.3629C30.4859 40.8788 28.474 38.865 25.9922 38.865C23.5104 38.865 21.4985 40.8788 21.4985 43.3629C21.4985 45.847 23.5104 47.8608 25.9922 47.8608Z" fill="#9E616A"/>
<path d="M42.5536 91.507C42.429 91.3362 42.2995 91.1579 42.292 90.9871C42.2633 90.3848 42.2334 89.7888 42.2023 89.2053C42.1799 88.7975 42.1575 88.3948 42.135 88.0008C42.1325 87.9509 42.1288 87.901 42.1263 87.8524C42.0877 87.2003 42.2808 86.512 42.4664 85.8449C42.5274 85.6267 42.5885 85.406 42.6433 85.1853C42.7803 84.6935 42.8379 84.1829 42.8139 83.6728C42.495 79.6342 41.07 75.8362 40.4309 75.1965C39.4592 74.224 35.0656 71.9771 32.2939 70.6105C31.8018 70.3674 31.3608 70.1529 30.9996 69.9783C30.6794 69.8225 30.4216 69.699 30.2459 69.6142C30.1114 69.5507 30.0242 69.5095 29.9943 69.4945L29.9793 69.4871L28.9765 69.5993L28.8158 69.618L27.9314 69.7177L22.1774 70.3636L21.2892 70.4634L20.0323 70.6055L18.8975 70.7327L18.8551 70.7364L18.8476 70.7788C18.8476 70.7801 18.8451 70.7888 18.8427 70.805C18.6475 72.0376 18.6475 73.2932 18.8427 74.5257C18.9896 75.3624 19.2674 76.2127 19.7607 76.9285C19.828 77.0257 19.8978 77.1192 19.9725 77.209C19.975 77.2137 19.9784 77.218 19.9825 77.2215C19.9987 77.2414 20.0149 77.2614 20.0323 77.2813V77.2826C20.5966 77.9394 21.354 78.4008 22.1961 78.6005C22.3207 78.6342 22.4478 78.6616 22.5786 78.6841C23.9725 78.931 25.5471 79.1579 27.0905 79.3574C27.7296 79.4397 28.3637 79.517 28.9765 79.5893C30.2036 79.7339 31.3496 79.8561 32.2939 79.9534C33.6168 80.0881 34.5461 80.1716 34.7529 80.1891L37.0637 90.9796C36.8824 91.2866 36.81 91.6459 36.8584 91.9992C36.9068 92.3526 37.0731 92.6792 37.3303 92.926L37.5197 93.1093L37.7389 94.1367L38.4614 95.1043L38.5524 95.2265H41.7401L41.7576 95.2053C41.7688 95.1903 42.8899 93.7489 42.8139 92.032C42.8065 91.8549 42.6831 91.6866 42.5536 91.507Z" fill="#2F2E41"/>
<path d="M42.4667 55.343C42.2253 55.2769 41.9723 55.2647 41.7257 55.307C41.479 55.3494 41.2447 55.4454 41.0391 55.5882C40.8335 55.7311 40.6617 55.9173 40.5358 56.1338C40.4099 56.3503 40.333 56.5918 40.3104 56.8412L36.5767 58.0093L36.7324 60.4535L41.982 58.7299C42.4032 58.74 42.8136 58.5952 43.1352 58.3228C43.4569 58.0504 43.6675 57.6694 43.7273 57.2519C43.787 56.8344 43.6917 56.4095 43.4593 56.0577C43.227 55.7059 42.8738 55.4516 42.4667 55.343Z" fill="#9E616A"/>
<path d="M40.0304 59.3878L37.2399 60.4449L37.1685 60.5835C37.0838 60.748 36.9676 60.8942 36.8264 61.0137C36.6853 61.1332 36.522 61.2237 36.3459 61.2801C36.1698 61.3365 35.9843 61.3575 35.8001 61.3422C35.6158 61.3268 35.4364 61.2752 35.2721 61.1904L28.9999 63.5666C28.9999 63.5666 26.1988 60.7609 24.2046 58.257L24.8843 54.0726C25.0417 53.1017 25.3763 52.1681 25.8713 51.3185C29.9611 52.2161 32.3088 57.9388 32.3088 57.9388L39.6797 56.531L40.0304 59.3878Z" fill="#03C587"/>
<path d="M25.3537 47.6204C24.2287 47.9246 22.9885 47.5202 22.1105 46.7533C21.2326 45.9863 20.6834 44.8995 20.367 43.777C20.1352 42.9548 20.0253 42.0422 20.391 41.2704C20.7568 40.4985 21.741 39.9778 22.5004 40.3677C22.032 39.8214 22.266 38.9178 22.8131 38.4505C23.3602 37.9832 24.1115 37.8492 24.827 37.7759C25.8654 37.6697 26.9381 37.6578 27.9262 37.9945C28.9143 38.3312 29.8122 39.0674 30.1214 40.0653C30.4373 40.2125 30.793 40.2507 31.1328 40.1739C31.4727 40.0971 31.7775 39.9096 31.9995 39.6409C32.0568 39.9495 32.0108 40.2685 31.8687 40.5484C31.7266 40.8283 31.4964 41.0535 31.2135 41.1892L32.7275 40.6978C32.9879 41.2495 32.5317 41.9323 31.9482 42.1089C31.3648 42.2856 30.735 42.0925 30.1813 41.8373C29.6277 41.582 29.0911 41.2594 28.4897 41.1598C27.8883 41.0603 27.1819 41.2537 26.9038 41.7966C26.7581 42.0809 26.7505 42.4139 26.6659 42.7221C26.5813 43.0302 26.367 43.3497 26.0487 43.3749C25.8477 43.3908 25.6508 43.2836 25.4503 43.3056C25.3272 43.3298 25.2139 43.3895 25.1242 43.4772C25.0345 43.5649 24.9723 43.6769 24.9452 43.7995C24.8953 44.0455 24.8947 44.2989 24.9434 44.5451L25.328 47.4875L25.3537 47.6204Z" fill="#2F2E41"/>
<path d="M30.9997 69.9783L30.7617 69.6204L29.0252 67.0132L28.9903 66.9621L29.5272 64.1741L29.6942 63.3037L30.0592 61.4097L29.9533 57.0743L29.8773 54.007L29.8661 53.5257L29.4812 52.3511C29.2987 51.8019 29.0055 51.2959 28.6198 50.8646C28.2341 50.4333 27.7641 50.0858 27.2389 49.8436L24.6478 48.6566C24.3428 48.5177 23.9953 48.5057 23.6815 48.6232C23.3677 48.7408 23.1134 48.9783 22.9746 49.2835C22.963 49.309 22.9523 49.3349 22.9424 49.3611C22.5874 49.4097 21.0464 49.6691 19.7397 50.684C18.8242 51.3812 18.1851 52.3805 17.9359 53.5045C17.9334 53.5132 17.9321 53.5219 17.9296 53.5307C17.7565 54.305 17.6269 55.5269 17.5435 57.1828C17.4874 58.2776 17.4521 59.5602 17.4376 61.0307C17.4143 63.4818 17.5521 65.9318 17.8499 68.3648C17.8786 68.5968 17.9085 68.8274 17.9396 69.0594C17.9658 69.2539 18.1526 69.4396 18.3332 69.618C18.4989 69.7813 18.6696 69.9509 18.6933 70.1042C18.7144 70.2389 18.6285 70.3798 18.5263 70.5269C18.5139 70.5456 18.5002 70.5643 18.4877 70.583C18.3607 70.7638 18.2299 70.9521 18.2635 71.1504C18.342 71.5968 18.3881 72.0506 18.4317 72.4895C18.4803 73.0938 18.5677 73.6944 18.6933 74.2875C18.7369 74.4696 18.7867 74.6529 18.8427 74.8362C18.9735 75.2663 19.1317 75.6953 19.2862 76.1142C19.4195 76.4783 19.5578 76.8524 19.6749 77.2214C19.6973 77.29 19.7185 77.3574 19.7384 77.4247L19.7484 77.4596L19.7845 77.4658H19.787C19.8361 77.3783 19.8945 77.2963 19.9614 77.2214C19.9644 77.2167 19.9682 77.2125 19.9726 77.209C19.99 77.1878 20.01 77.1653 20.0324 77.1416C20.3052 76.8436 20.8982 76.3087 22.1962 75.4072C22.4865 75.2065 22.8116 74.9883 23.1753 74.7489C24.5095 73.8748 26.3731 72.7364 28.9766 71.2663C29.6294 70.8973 30.3299 70.507 31.0782 70.0955L30.9997 69.9783Z" fill="#03C587"/>
<path d="M44.9727 97.4073C44.6701 97.1032 44.3103 96.8621 43.9141 96.6979C43.5179 96.5338 43.0931 96.4498 42.6644 96.4509L41.3103 95.4235L41.1321 95.2876L39.9263 95.7789C40.3473 95.9646 40.7734 96.1454 41.2006 96.32C42.5373 96.8661 43.9022 97.3541 45.2953 97.7839C45.1974 97.6504 45.0895 97.5245 44.9727 97.4073Z" fill="#2F2E41"/>
<path d="M75.048 93.6169L73.3521 92.8051L75.6817 85.7097L78.1847 86.908L75.048 93.6169Z" fill="#FFB6B6"/>
<path d="M86.4178 92.4734C85.9245 92.7814 85.4249 93.0806 84.9192 93.3711V93.3749L84.9117 93.3761L84.9092 93.3774L84.7174 93.4247L84.4421 92.6966L83.8067 91.017L82.0752 86.441L84.7672 85.7764L84.9192 86.3936L86.0577 91.0158L86.3841 92.3375L86.4178 92.4734Z" fill="#FFB6B6"/>
<path d="M79.5519 62.7774C79.7938 63.1707 80.1797 63.4537 80.6271 63.566C81.0746 63.6784 81.5483 63.6112 81.9469 63.3789C82.0271 63.3303 82.1031 63.2752 82.1742 63.214L87.5359 66.2938L87.303 63.1323L82.2472 60.6924C81.9721 60.4158 81.6131 60.2384 81.2264 60.188C80.8397 60.1376 80.4473 60.217 80.1106 60.4138C79.7252 60.6455 79.4475 61.0209 79.3386 61.4575C79.2297 61.894 79.2985 62.356 79.5299 62.7418C79.5371 62.7538 79.5444 62.7657 79.5519 62.7774Z" fill="#FFB6B6"/>
<path d="M85.231 65.134L86.1787 65.7122L90.4352 68.3102C90.7146 68.4852 91.0257 68.6034 91.3508 68.658C91.6758 68.7126 92.0084 68.7027 92.3296 68.6286C92.6508 68.5546 92.9542 68.418 93.2227 68.2266C93.4911 68.0352 93.7192 67.7927 93.894 67.5131L93.8954 67.5108C94.2106 66.9911 94.3221 66.3729 94.2084 65.7756L92.3166 56.3152C92.2467 55.9438 92.0975 55.5919 91.8793 55.2835C91.661 54.9751 91.3788 54.7176 91.0519 54.5284C90.725 54.3393 90.3612 54.223 89.9853 54.1876C89.6094 54.1522 89.2303 54.1984 88.8739 54.3231C88.2748 54.5338 87.7784 54.9651 87.4857 55.5291C87.1931 56.0931 87.1261 56.7476 87.2984 57.3593L89.2766 64.0733L86.2443 62.6582L85.231 65.134Z" fill="#6C63FF"/>
<path d="M102.684 74.4621C102.683 74.4584 102.68 74.4447 102.677 74.4235L102.673 74.4098C102.664 74.3649 102.654 74.315 102.643 74.2601C102.389 72.9968 102.062 71.7491 101.665 70.5232C101.43 69.7725 101.118 69.048 100.734 68.3611C100.722 68.3387 100.708 68.3162 100.695 68.2938L100.649 68.219L100.261 68.3611L100.246 68.3661L94.3564 70.527L92.6535 71.1517L92.5999 71.1716L92.3097 72.3562L88.2374 71.8287L84.9189 71.3985L83.9659 71.2751C83.5528 71.2212 83.1331 71.2501 82.7312 71.3602C82.3293 71.4702 81.9534 71.6591 81.6252 71.916C81.2827 72.1818 80.9965 72.5131 80.7833 72.8908C80.57 73.2684 80.434 73.6847 80.3832 74.1155C80.3707 74.2103 80.3633 74.3063 80.3595 74.401L80.0718 85.1454V85.1591L80.2051 85.426L82.9892 91.017H84.9189L86.0574 91.0157H86.983L85.0584 86.1417L85.102 86.0756C85.2831 85.7977 85.3972 85.4816 85.4355 85.1521C85.4737 84.8225 85.4351 84.4886 85.3225 84.1766L85.5392 83.5482C85.9889 82.2502 85.7759 81.6267 85.5068 80.8387C85.2652 80.1979 85.1232 79.5238 85.0858 78.8399L85.0409 77.9509C86.1708 78.1492 87.2234 78.3699 88.2374 78.5918C88.5763 78.6654 88.9118 78.7398 89.244 78.815C90.1895 79.0257 91.1026 79.229 91.997 79.3985C93.8083 79.7439 95.5436 79.9547 97.3262 79.8237C97.3611 79.8212 97.3959 79.8187 97.4308 79.815C97.8643 79.7801 98.3003 79.724 98.7413 79.6454C98.9892 79.6005 99.2384 79.5494 99.49 79.4896C99.5597 79.4721 99.6308 79.4547 99.7005 79.4372C99.8942 79.3861 100.081 79.3111 100.256 79.214C100.505 79.0747 100.737 78.9064 100.947 78.7128C100.949 78.7115 100.95 78.7115 100.95 78.7103C101.294 78.2215 101.629 77.7252 101.955 77.2215C102.131 76.9509 102.305 76.6778 102.476 76.4035C102.725 75.719 102.82 75.0282 102.684 74.4621Z" fill="#2F2E41"/>
<path d="M102.725 72.4434C102.707 72.3636 102.683 72.2825 102.658 72.204C102.46 71.609 102.23 71.0254 101.968 70.4558C101.674 69.8075 101.321 69.113 100.902 68.3611C100.698 67.997 100.48 67.6184 100.246 67.2252C100.129 67.0282 100.007 66.8274 99.8813 66.6229C99.8763 66.6135 99.8709 66.6044 99.8651 66.5955L99.8289 66.5356L94.0015 67.3162L91.8315 67.6067L91.7019 68.689L91.6708 68.9571C91.6695 68.9571 91.6695 68.9571 91.6708 68.9583L91.5836 69.689V69.6903L91.4677 70.6554L91.4577 70.6541L88.2376 70.2364L84.919 69.8062L83.1364 69.5755C82.7232 69.5217 82.3035 69.5506 81.9017 69.6606C81.4998 69.7706 81.1239 69.9596 80.7957 70.2164C80.4532 70.4822 80.167 70.8136 79.9538 71.1912C79.7405 71.5688 79.6045 71.9852 79.5537 72.4159C79.5425 72.5032 79.535 72.593 79.5313 72.6815L77.8495 76.6703C76.8432 79.0558 76.2024 81.5796 75.9486 84.1566L74.7153 88.103L74.891 88.1192L77.5045 88.3623L78.1946 88.4272L79.7144 86.2065C79.8875 85.9534 80.052 85.6928 80.2052 85.4259C80.4575 84.9901 80.6817 84.5387 80.8766 84.0743L84.1641 76.2439C84.4182 76.2875 84.6698 76.3291 84.919 76.3686C86.0713 76.5556 87.1775 76.7081 88.2376 76.8262C91.6845 77.2115 94.6692 77.2414 97.3263 76.9147C98.0725 76.8237 98.7938 76.704 99.4901 76.5556C99.7455 76.502 99.9975 76.4442 100.246 76.3823C100.305 76.3686 100.362 76.3548 100.419 76.3399C100.934 76.207 101.408 75.947 101.796 75.5836C102.184 75.2203 102.476 74.7652 102.643 74.2601C102.843 73.6747 102.871 73.0444 102.725 72.4434Z" fill="#2F2E41"/>
<path d="M90.3337 48.8937C92.5599 48.8937 94.3646 47.047 94.3646 44.7691C94.3646 42.4911 92.5599 40.6444 90.3337 40.6444C88.1074 40.6444 86.3027 42.4911 86.3027 44.7691C86.3027 47.047 88.1074 48.8937 90.3337 48.8937Z" fill="#FFB6B6"/>
<path d="M99.9051 66.7614C99.8989 66.7153 99.8914 66.6692 99.8814 66.623C99.7855 66.1168 99.5364 65.6205 99.2959 65.1392C99.0667 64.6804 98.8487 64.2465 98.759 63.815C98.6706 63.3899 98.7229 62.9634 98.774 62.552C98.8288 62.1056 98.8861 61.6442 98.7578 61.1966C98.107 58.9105 97.2133 56.7009 96.092 54.6056C95.809 53.6842 95.2666 52.8641 94.5297 52.2435C93.7929 51.6229 92.8928 51.2283 91.9375 51.1068C92.049 50.8984 92.0954 50.6612 92.0708 50.426C92.0552 50.2741 92.0096 50.1267 91.9367 49.9925C91.8638 49.8583 91.765 49.7399 91.646 49.6442C91.5317 49.5521 91.4003 49.4835 91.2594 49.4424C91.1185 49.4013 90.9709 49.3885 90.8251 49.4048L88.9515 49.6155C88.6511 49.6533 88.3778 49.8082 88.1909 50.0466C88.0041 50.285 87.9188 50.5876 87.9537 50.8886C87.9642 50.9813 87.9851 51.0724 88.016 51.1604C86.277 53.3774 85.3838 55.3973 85.3016 57.3076V57.3088C85.2916 57.5294 85.2928 57.7504 85.3053 57.9709C85.3447 58.684 85.4995 59.386 85.7637 60.0495C86.0757 60.8159 86.4933 61.5349 87.0045 62.1854C87.1091 62.3175 87.2175 62.4472 87.3296 62.5744C87.4342 62.6991 87.5513 62.83 87.6809 62.9672L88.0085 63.4809L88.3137 63.9609L89.9456 67.7303L90.7765 67.7028L90.8923 68.532L90.9197 68.7253L91.4579 70.6542L91.4978 70.7988L92.234 70.4485L96.6264 68.3612L99.9101 66.8001L99.9051 66.7614Z" fill="#03C587"/>
<path opacity="0.2" d="M85.813 60.0294C86.1875 60.9476 86.714 61.7961 87.3704 62.5391C87.4828 62.6735 87.6015 62.8054 87.7257 62.9377L88.3634 63.9391C90.7139 62.1756 92.6184 55.2318 92.6184 55.2318L89.9663 54.7155L85.813 60.0294Z" fill="black"/>
<path d="M84.2075 49.2789C84.4397 49.6782 84.5072 50.1525 84.3954 50.6007C84.2836 51.049 84.0015 51.436 83.6091 51.6792C83.5286 51.7274 83.4442 51.7688 83.3568 51.8031L83.5445 57.988L80.8687 56.302L81.1006 50.6872C80.9868 50.3135 80.9997 49.9127 81.1374 49.5471C81.2751 49.1816 81.5298 48.872 81.8617 48.6666C82.2455 48.4343 82.7058 48.364 83.1413 48.4713C83.5768 48.5786 83.9519 48.8547 84.184 49.2388C84.192 49.2521 84.1998 49.2654 84.2075 49.2789Z" fill="#FFB6B6"/>
<path d="M83.7796 55.6534L80.8369 56.0722L80.9634 62.1717C80.9708 62.6069 81.0891 63.0329 81.3073 63.4093C81.5255 63.7858 81.8362 64.1001 82.2099 64.3225C82.6665 64.5914 83.198 64.7044 83.7244 64.6446C84.2507 64.5848 84.7434 64.3553 85.1282 63.9908L92.0755 57.3022C92.5643 56.8381 92.8568 56.2041 92.893 55.5307C92.9291 54.8573 92.706 54.1956 92.2696 53.6818C91.842 53.1752 91.2309 52.8593 90.5707 52.8037C89.9105 52.7481 89.2552 52.9573 88.7491 53.3853C88.7293 53.4021 88.7098 53.4191 88.6905 53.4365C88.6218 53.4979 88.5565 53.563 88.4949 53.6315L83.9075 58.9137L83.7796 55.6534Z" fill="#03C587"/>
<path d="M86.4925 92.3175L86.3842 92.3375L84.9192 92.608L84.4421 92.6966L83.6909 92.835L83.9575 93.911C84.2777 93.7377 84.5941 93.5594 84.9092 93.3774L84.9117 93.3761L84.9192 93.3749V93.3711C85.425 93.0819 85.9245 92.7826 86.4178 92.4734C86.4527 92.4522 86.4875 92.431 86.5224 92.4073L86.4925 92.3175Z" fill="#2F2E41"/>
<path d="M75.5899 92.4584L73.755 91.5781L73.4672 91.4397L73.0076 92.5694L69.7986 93.2764C69.6399 93.3112 69.4965 93.3959 69.3894 93.5181C69.2822 93.6402 69.2169 93.7935 69.203 93.9555C69.1891 94.1175 69.2273 94.2797 69.312 94.4184C69.3968 94.5571 69.5236 94.6651 69.674 94.7265L72.8095 96.007L73.8048 95.1105L73.5606 96.3138L74.7416 96.7963L76.0359 92.6729L75.5899 92.4584Z" fill="#2F2E41"/>
<path d="M101.12 42.9801C100.435 42.1804 100.109 41.1193 99.5612 40.2111C99.0134 39.3029 98.0602 38.4901 97.0532 38.7014C96.3591 38.8471 95.8226 39.4602 95.551 40.1438C95.2795 40.8273 95.2286 41.5811 95.181 42.3196C95.1978 40.802 94.1989 39.3308 92.8229 38.8465C91.447 38.3623 89.8003 38.9024 88.9356 40.1216C88.5583 39.7716 88.0658 39.5723 87.5515 39.5615C87.0371 39.5507 86.5367 39.7291 86.145 40.063C85.3717 40.7549 85.2005 42.0717 85.7693 42.9542C86.338 43.8367 87.5698 44.1654 88.4737 43.676L88.7932 43.9702C88.6134 44.5999 88.9622 45.3437 89.5485 45.5808C90.024 45.773 90.6952 45.741 90.8732 46.2405C90.9975 46.5894 90.7651 46.9619 90.5179 47.2301C90.2707 47.4982 89.9772 47.7752 89.9476 48.1462C89.9027 48.7062 90.4808 49.0984 91.0062 49.2165C92.2733 49.5013 93.6792 48.914 94.4095 47.7948C94.4236 47.7732 94.4389 47.7516 94.4554 47.73C94.8651 47.2055 95.1637 46.6029 95.333 45.959C95.5022 45.3152 95.5385 44.6435 95.4396 43.9851C95.3985 43.7264 95.4399 43.534 95.6181 43.4728C96.3883 43.208 98.5461 43.7637 99.1991 44.266C99.8522 44.7683 100.375 45.433 101.004 45.9677C101.633 46.5025 102.435 46.9149 103.234 46.7693C103.873 46.6527 104.417 46.1878 104.783 45.6272C105.149 45.0665 105.36 44.4129 105.549 43.7634C104.134 44.5813 102.198 44.2389 101.12 42.9801Z" fill="#2F2E41"/>
<path d="M88.2371 67.5664V91.2821C87.7862 91.5926 87.3294 91.8947 86.8668 92.1886V69.1387C86.8668 68.4704 86.6426 67.928 86.3673 67.9267H65.6274C65.3509 67.928 65.1279 68.4704 65.1266 69.1387V99.7447C64.8501 99.7721 64.5735 99.7983 64.297 99.8208C64.1824 99.8307 64.0665 99.8395 63.9519 99.8482C63.8859 99.726 63.8211 99.6026 63.7563 99.4779V67.5664C63.7563 67.3819 63.7638 67.1961 63.7763 67.0128C63.8884 65.4567 64.4452 64.3195 65.0967 64.317H86.8967C86.9757 64.3175 87.0536 64.3341 87.126 64.3656C87.6716 64.5976 88.1026 65.615 88.211 66.9305C88.2284 67.14 88.2384 67.3532 88.2371 67.5664Z" fill="#E4E4E4"/>
<path d="M54.9604 67.5664V99.6499C54.9418 99.6799 54.9231 99.7085 54.9044 99.7385C54.436 99.6911 53.9697 99.6366 53.5054 99.5751V69.1387C53.5054 68.4704 53.2675 67.928 52.9748 67.9267H30.9617C30.669 67.928 30.4311 68.4704 30.4311 69.1387V90.2684C29.939 89.9055 29.454 89.5336 28.9761 89.1524V67.5664C28.9761 67.3819 28.9835 67.1961 28.9972 67.0128C29.1156 65.4567 29.7073 64.3195 30.3999 64.317H53.5366C53.62 64.3172 53.7025 64.3338 53.7795 64.3656C54.3588 64.5976 54.8172 65.615 54.933 66.9305C54.9517 67.14 54.9604 67.3532 54.9604 67.5664Z" fill="#E4E4E4"/>
<path d="M47.583 56.9042L49.0257 63.2577L49.9475 64.2684H50.6126L47.8716 52.7166L47.736 54.679V54.6804L47.583 56.9042Z" fill="#3F3D56"/>
<path d="M52.387 64.593C52.3828 64.5832 52.3774 64.574 52.3708 64.5656C52.3575 64.5356 52.3385 64.5085 52.3148 64.4858L52.1466 64.3175L51.2621 63.4309C51.1972 63.3674 51.1101 63.3316 51.0192 63.3312H51.0155L50.3914 63.3349L49.8545 63.3387L49.1046 63.3437L43.9971 63.3761L40.6399 63.3973C40.549 63.3984 40.4622 63.4352 40.3981 63.4998C40.334 63.5644 40.2978 63.6516 40.2974 63.7427C40.2979 63.793 40.3089 63.8427 40.3297 63.8885L40.3945 64.0269L40.5303 64.3175L40.7072 64.6978L40.7944 64.8848C40.8222 64.9443 40.8664 64.9947 40.9218 65.0301C40.9771 65.0654 41.0414 65.0842 41.1071 65.0843H52.0706C52.1283 65.0832 52.1848 65.0679 52.2352 65.0398C52.2856 65.0116 52.3283 64.9716 52.3596 64.923C52.3908 64.8745 52.4097 64.819 52.4145 64.7615C52.4193 64.7039 52.4098 64.6461 52.387 64.593Z" fill="#3F3D56"/>
<path opacity="0.17" d="M40.7075 64.6974L40.7941 64.8852C40.8222 64.9445 40.8665 64.9947 40.9219 65.0299C40.9773 65.0652 41.0415 65.0841 41.1071 65.0844H52.0711C52.1288 65.0834 52.1853 65.0681 52.2357 65.04C52.286 65.0119 52.3287 64.9719 52.36 64.9233C52.3912 64.8748 52.41 64.8193 52.4147 64.7618C52.4194 64.7043 52.4099 64.6465 52.387 64.5935C52.3832 64.5836 52.3778 64.5743 52.3712 64.566L40.7075 64.6974Z" fill="black"/>
<path opacity="0.17" d="M47.7358 54.679V54.6804L50.083 64.2684H50.6124L47.8715 52.7166L47.7358 54.679Z" fill="black"/>
<path d="M51.4178 27.8474L51.074 27.8012C50.9797 27.7889 50.8843 27.8145 50.8087 27.8723L50.6031 28.0307L48.3148 30.896C48.2392 30.9545 48.1899 31.0406 48.1777 31.1354L48.0494 32.1105L44.8554 56.4359C44.844 56.5261 44.8667 56.6172 44.9189 56.6915L46.4238 60.8436L46.4686 60.9085L46.5658 61.0469C46.6158 61.1172 46.6891 61.1675 46.7726 61.189L46.9906 61.2439C47.0401 61.2563 47.0917 61.2581 47.1419 61.249C47.1922 61.24 47.2399 61.2204 47.2821 61.1915C47.3243 61.1631 47.36 61.1259 47.3867 61.0824C47.4133 61.0389 47.4303 60.9903 47.4365 60.9397L47.8264 57.9746V57.9733L48.0756 56.0706L48.2861 54.4658V54.4646L51.7293 28.2514C51.7417 28.1567 51.7161 28.061 51.658 27.9853C51.5999 27.9096 51.5142 27.86 51.4196 27.8476L51.4178 27.8474Z" fill="#3F3D56"/>
<path opacity="0.17" d="M50.6029 28.0309L46.4238 60.8443L46.4692 60.9085L46.5661 61.0465C46.616 61.1169 46.6893 61.1673 46.7729 61.1888L46.9912 61.2437C47.0406 61.256 47.0921 61.2576 47.1422 61.2486C47.1923 61.2396 47.24 61.2202 47.2821 61.1915C47.3241 61.1628 47.3597 61.1255 47.3864 61.0821C47.4131 61.0388 47.4304 60.9902 47.4371 60.9397L51.7292 28.2518C51.7416 28.1569 51.7159 28.061 51.6577 27.985C51.5994 27.9091 51.5134 27.8594 51.4186 27.8469L51.0739 27.8015C51.0271 27.7952 50.9796 27.7983 50.934 27.8105C50.8884 27.8228 50.8458 27.844 50.8085 27.8729L50.6029 28.0309Z" fill="black"/>
<path d="M50.4797 28.9692L48.2619 32.1377L45.626 52.2126L47.0551 55.0504L50.4797 28.9692Z" fill="#009DB8"/>
<path d="M72.0828 56.9042L70.6401 63.2577L69.7183 64.2684H69.0532L71.7943 52.7166L71.9298 54.679V54.6804L72.0828 56.9042Z" fill="#3F3D56"/>
<path d="M79.0258 63.3973L70.5624 63.3436L69.8112 63.3387L69.2755 63.3349L68.6514 63.3312H68.6465C68.5559 63.3313 68.4691 63.3672 68.4048 63.4309L67.3509 64.4858C67.3276 64.5088 67.3086 64.5358 67.2949 64.5656C67.2883 64.574 67.2828 64.5832 67.2787 64.593C67.2559 64.6461 67.2464 64.7039 67.2512 64.7615C67.256 64.819 67.2749 64.8745 67.3061 64.923C67.3374 64.9716 67.3801 65.0117 67.4305 65.0398C67.4809 65.0679 67.5374 65.0832 67.5951 65.0843H78.5586C78.6244 65.0841 78.6888 65.0652 78.7443 65.0299C78.7999 64.9946 78.8443 64.9443 78.8725 64.8848L78.9585 64.6978L79.1354 64.3175L79.3359 63.8885C79.3573 63.8429 79.3684 63.7931 79.3683 63.7426C79.3678 63.6516 79.3317 63.5644 79.2676 63.4998C79.2035 63.4352 79.1167 63.3984 79.0258 63.3973Z" fill="#3F3D56"/>
<path opacity="0.17" d="M78.9584 64.6974L78.8718 64.8852C78.8437 64.9445 78.7993 64.9947 78.744 65.0299C78.6886 65.0652 78.6244 65.0841 78.5588 65.0844H67.5948C67.5371 65.0834 67.4806 65.0681 67.4302 65.04C67.3799 65.0119 67.3372 64.9719 67.3059 64.9233C67.2747 64.8748 67.2559 64.8193 67.2512 64.7618C67.2465 64.7043 67.256 64.6465 67.2788 64.5935C67.2827 64.5836 67.2881 64.5743 67.2947 64.566L78.9584 64.6974Z" fill="black"/>
<path opacity="0.17" d="M71.9298 54.679V54.6804L69.5827 64.2684H69.0532L71.7943 52.7166L71.9298 54.679Z" fill="black"/>
<path d="M74.8099 56.436L71.4876 31.1355C71.4754 31.0406 71.4262 30.9545 71.3506 30.8961L69.0634 28.0307L68.8579 27.8724C68.7818 27.8147 68.686 27.7892 68.5913 27.8013L68.2475 27.8474C68.1527 27.8597 68.0666 27.9091 68.0082 27.9849C67.9498 28.0606 67.9238 28.1565 67.9361 28.2514L71.3792 54.4659V54.4671L71.5898 56.0706L71.8401 57.9746V57.9771L72.2288 60.9397C72.235 60.9905 72.2521 61.0393 72.279 61.0828C72.3059 61.1263 72.3419 61.1634 72.3845 61.1916C72.4264 61.2204 72.474 61.24 72.524 61.2491C72.574 61.2581 72.6255 61.2564 72.6748 61.2439L72.8928 61.1891C72.9763 61.1676 73.0495 61.1172 73.0996 61.0469L73.1967 60.9085L73.2416 60.8437L74.7464 56.6916C74.7992 56.6175 74.8219 56.5261 74.8099 56.436Z" fill="#3F3D56"/>
<path opacity="0.17" d="M69.0629 28.0309L73.242 60.8443L73.1966 60.9085L73.0998 61.0465C73.0498 61.1169 72.9765 61.1673 72.8929 61.1888L72.6746 61.2437C72.6252 61.2559 72.5738 61.2576 72.5237 61.2486C72.4735 61.2396 72.4259 61.2202 72.3838 61.1915C72.3417 61.1628 72.3062 61.1255 72.2795 61.0821C72.2527 61.0387 72.2355 60.9902 72.2288 60.9397L67.9367 28.2518C67.9242 28.1569 67.95 28.061 68.0082 27.985C68.0664 27.9091 68.1524 27.8594 68.2472 27.8469L68.5919 27.8015C68.6387 27.7952 68.6863 27.7983 68.7318 27.8105C68.7774 27.8228 68.8201 27.844 68.8574 27.8729L69.0629 28.0309Z" fill="black"/>
<path d="M69.186 28.9692L71.4038 32.1377L74.0397 52.2126L72.6106 55.0504L69.186 28.9692Z" fill="#009DB8"/>
<path d="M27.9664 69.4434C27.9667 69.5061 27.9613 69.5687 27.9502 69.6304C27.9452 69.6603 27.939 69.689 27.9315 69.7177C27.8708 69.9495 27.7351 70.1547 27.5456 70.3011C27.356 70.4476 27.1233 70.527 26.8839 70.5269H22.1962V81.7177C22.1965 81.9542 22.119 82.1842 21.9758 82.3723C21.8686 82.2464 21.7627 82.1204 21.6581 81.9933C21.0975 81.3224 20.5556 80.6366 20.0324 79.9359V70.5269H17.9396C17.6606 70.5267 17.3924 70.4187 17.1911 70.2252C16.9898 70.0318 16.8709 69.768 16.8593 69.4889C16.8478 69.2098 16.9444 68.9371 17.1289 68.7276C17.3135 68.5181 17.5719 68.3882 17.8499 68.3648C17.8798 68.3623 17.9097 68.3611 17.9396 68.3611H26.8839C27.1708 68.361 27.446 68.4749 27.649 68.6779C27.852 68.8809 27.9662 69.1562 27.9664 69.4434Z" fill="#3F3D56"/>
<path d="M102.663 69.4434C102.663 69.6627 102.597 69.8769 102.473 70.0577C102.349 70.2384 102.173 70.3773 101.968 70.4559C101.871 70.493 101.769 70.5157 101.665 70.5232C101.638 70.5257 101.609 70.5269 101.582 70.5269H99.4904V80.684C99.4592 80.7252 99.4269 80.7663 99.3945 80.8075C98.9024 81.4372 98.3954 82.0544 97.8734 82.6591C97.7068 82.5651 97.5683 82.4283 97.4721 82.2628C97.376 82.0973 97.3257 81.9091 97.3266 81.7177V70.5269H92.6377C92.4993 70.5274 92.3622 70.5007 92.2341 70.4484C92.0727 70.3838 91.9293 70.2811 91.8161 70.1491C91.7029 70.0171 91.6232 69.8597 91.5838 69.6903V69.689C91.5257 69.4428 91.5566 69.1839 91.671 68.9583C91.6698 68.9571 91.6698 68.9571 91.671 68.9571C91.7205 68.8578 91.7852 68.7669 91.8629 68.6878C91.9637 68.5844 92.0842 68.5022 92.2173 68.4461C92.3504 68.39 92.4933 68.3611 92.6377 68.3611H101.582C101.869 68.361 102.144 68.475 102.346 68.6779C102.549 68.8808 102.663 69.156 102.663 69.443L102.663 69.4434Z" fill="#3F3D56"/>
<path d="M102.591 48.5784C102.146 48.5784 101.705 48.6661 101.294 48.8367C100.883 49.0072 100.509 49.2572 100.194 49.5723C99.8793 49.8874 99.6296 50.2614 99.4592 50.6731C99.2889 51.0848 99.2012 51.5261 99.2012 51.9717C99.2013 52.7589 99.4748 53.5215 99.9748 54.1291C100.475 54.7367 101.17 55.1514 101.942 55.3022V60.8522H104.106V48.5784H102.591Z" fill="#3F3D56"/>
<path d="M43.4013 60.9692C43.1855 60.8424 42.9445 60.7645 42.6954 60.741C42.4462 60.7175 42.1949 60.7489 41.9592 60.8331C41.7236 60.9173 41.5092 61.0522 41.3312 61.2284C41.1532 61.4045 41.016 61.6175 40.9292 61.8524L37.0203 62.005L36.4937 63.8275L42.0507 64.1122C42.4546 64.232 42.8885 64.1993 43.27 64.0204C43.6516 63.8414 43.9542 63.5286 44.1207 63.1412C44.2872 62.7538 44.3059 62.3187 44.1733 61.9183C44.0408 61.518 43.7661 61.1803 43.4013 60.9692Z" fill="#9E616A"/>
<path d="M40.1903 64.3087L36.1751 64.2586L35.6668 64.2517L27.4977 64.1487C27.4977 64.1487 25.2793 62.0304 23.3477 59.8494L23.6184 57.8892C23.8825 55.9655 24.8359 54.2034 26.3011 52.9308C29.0677 54.7811 30.6721 58.4437 30.6721 58.4437L33.3622 59.6486C35.2554 59.7334 37.1002 60.2741 38.74 61.225L39.6246 61.738L40.1903 64.3087Z" fill="#03C587"/>
<path d="M52.8057 99.4784H67.2884C66.3005 99.623 65.3035 99.7373 64.2974 99.8213H55.7966C54.7901 99.7377 53.7931 99.6234 52.8057 99.4784Z" fill="#CCCCCC"/>
<path d="M55.7173 92.1804C55.9976 89.6483 57.5295 87.1367 59.927 86.2819C59.0119 88.8964 59.0502 91.7507 60.0352 94.3397C60.4187 95.3368 60.949 96.4058 60.6143 97.4204C60.4061 98.0517 59.8827 98.5396 59.2944 98.8481C58.706 99.1567 58.0506 99.3087 57.4033 99.4578L57.277 99.5653C56.2153 97.25 55.437 94.7124 55.7173 92.1804Z" fill="#CCCCCC"/>
<path d="M59.9519 86.3294C58.5703 87.9212 57.725 89.9083 57.5359 92.0085C57.4872 92.4599 57.5098 92.9161 57.603 93.3604C57.7078 93.7903 57.9257 94.1843 58.234 94.5014C58.5156 94.8028 58.8385 95.0785 59.0419 95.4433C59.1433 95.6315 59.2038 95.839 59.2194 96.0523C59.235 96.2656 59.2054 96.4797 59.1325 96.6807C58.964 97.1863 58.6239 97.6011 58.2774 97.9952C57.8925 98.4328 57.4859 98.8812 57.3275 99.4565C57.3083 99.5262 57.2014 99.4924 57.2205 99.4228C57.4961 98.4217 58.4556 97.8424 58.9048 96.938C59.1144 96.5161 59.1983 96.0283 58.9906 95.5886C58.809 95.2041 58.4763 94.9195 58.1886 94.6167C57.8833 94.3118 57.6572 93.9367 57.5301 93.5241C57.4146 93.086 57.3744 92.6314 57.4112 92.1798C57.478 91.1617 57.7043 90.1604 58.0819 89.2127C58.5067 88.1286 59.1137 87.1253 59.8766 86.2462C59.9239 86.1918 59.9989 86.2754 59.9519 86.3294Z" fill="white"/>
<path d="M57.5567 91.3286C57.209 91.249 56.9009 91.0483 56.6874 90.7623C56.4738 90.4763 56.3688 90.1237 56.3911 89.7673C56.3922 89.7528 56.3988 89.7393 56.4096 89.7296C56.4205 89.7199 56.4346 89.7147 56.4492 89.7152C56.4637 89.7158 56.4774 89.7219 56.4875 89.7324C56.4976 89.7429 56.5033 89.7569 56.5032 89.7715C56.4819 90.1032 56.5797 90.4317 56.7791 90.6976C56.9785 90.9635 57.2663 91.1494 57.5905 91.2215C57.6609 91.2373 57.6268 91.3443 57.5567 91.3286Z" fill="white"/>
<path d="M58.0711 94.3674C58.6921 93.9849 59.1462 93.3822 59.3429 92.6794C59.3624 92.6098 59.4693 92.6436 59.4499 92.7132C59.2438 93.4441 58.77 94.0704 58.1229 94.467C58.0612 94.5048 58.0097 94.405 58.0711 94.3674Z" fill="white"/>
<path d="M58.6121 88.2336C58.7402 88.2924 58.8809 88.3185 59.0216 88.3095C59.1623 88.3004 59.2985 88.2566 59.4181 88.1818C59.4793 88.1433 59.5307 88.2431 59.4699 88.2814C59.3374 88.3634 59.1869 88.4116 59.0315 88.422C58.876 88.4323 58.7205 88.4044 58.5783 88.3406C58.5644 88.3358 58.5529 88.3258 58.5461 88.3127C58.5393 88.2996 58.5377 88.2844 58.5417 88.2702C58.5462 88.2561 58.5562 88.2443 58.5694 88.2374C58.5825 88.2305 58.5979 88.2292 58.6121 88.2336Z" fill="white"/>
<path d="M67.3294 90.6986C67.2918 90.7238 67.2543 90.7489 67.2168 90.775C66.714 91.1157 66.2397 91.4966 65.7985 91.9142C65.7639 91.9459 65.7293 91.9786 65.6957 92.0113C64.6436 93.0285 63.7893 94.2325 63.1763 95.5619C62.9328 96.0911 62.73 96.6381 62.5694 97.1982C62.3478 97.9716 62.1689 98.8279 61.7182 99.4642C61.6719 99.5311 61.6216 99.595 61.5674 99.6557L57.4182 99.7112C57.4087 99.7066 57.3992 99.703 57.3897 99.6984L57.2241 99.7082C57.2304 99.6787 57.2375 99.6483 57.2438 99.6188C57.2473 99.6017 57.2518 99.5846 57.2554 99.5675C57.2581 99.5561 57.2608 99.5447 57.2625 99.5342C57.2634 99.5304 57.2643 99.5266 57.2652 99.5238C57.267 99.5133 57.2697 99.5038 57.2715 99.4943C57.3109 99.3241 57.3515 99.154 57.3934 98.9838C57.3934 98.9828 57.3934 98.9828 57.3943 98.9818C57.7012 97.6819 58.1612 96.423 58.7644 95.2315C58.7829 95.1961 58.8013 95.1599 58.8217 95.1245C59.1014 94.5969 59.4237 94.0931 59.7853 93.6181C59.9842 93.3586 60.1961 93.1093 60.4202 92.8713C61.0003 92.2574 61.6732 91.7386 62.4144 91.334C63.8921 90.5276 65.6109 90.2032 67.2077 90.6624C67.2485 90.6741 67.2885 90.6859 67.3294 90.6986Z" fill="#CCCCCC"/>
<path d="M67.3204 90.7515C65.2598 91.1899 63.3896 92.2671 61.9754 93.8299C61.6649 94.161 61.4086 94.5389 61.2158 94.9499C61.0408 95.3563 60.9778 95.8021 61.0333 96.2411C61.0768 96.6515 61.1688 97.0662 61.1118 97.48C61.0795 97.6914 61.003 97.8936 60.8872 98.0733C60.7713 98.2529 60.6189 98.4061 60.4398 98.5227C60.0011 98.8248 59.4801 98.9511 58.9663 99.0569C58.3959 99.1743 57.8015 99.2873 57.3289 99.6512C57.2717 99.6953 57.2067 99.6038 57.2638 99.5598C58.086 98.9266 59.2006 99.0422 60.1032 98.5909C60.5244 98.3803 60.8847 98.0413 60.9834 97.5651C61.0697 97.1487 60.9752 96.721 60.9276 96.3058C60.8672 95.8784 60.9124 95.4426 61.059 95.0366C61.2303 94.6172 61.4717 94.23 61.7728 93.8916C62.4385 93.1189 63.2215 92.4559 64.093 91.9267C65.0843 91.3172 66.1724 90.8819 67.3104 90.6397C67.3808 90.6247 67.3904 90.7367 67.3204 90.7515Z" fill="white"/>
<path d="M62.4014 93.2998C62.1716 93.0267 62.0463 92.6808 62.0479 92.3237C62.0494 91.9667 62.1777 91.6219 62.4098 91.3508C62.457 91.2961 62.5441 91.3668 62.4969 91.4216C62.2803 91.6736 62.1608 91.9949 62.16 92.3274C62.1593 92.6598 62.2773 92.9816 62.4927 93.2346C62.5395 93.2897 62.4479 93.3545 62.4014 93.2998Z" fill="white"/>
<path d="M60.9839 96.0359C61.7099 96.1047 62.435 95.8972 63.0148 95.4546C63.0722 95.4107 63.1373 95.5022 63.0799 95.546C62.4757 96.0055 61.7206 96.2199 60.9654 96.1466C60.8934 96.1396 60.9124 96.0289 60.9839 96.0359Z" fill="white"/>
<path d="M65.1055 91.4646C65.1724 91.5888 65.269 91.6944 65.3868 91.772C65.5046 91.8496 65.6397 91.8967 65.7802 91.909C65.8522 91.9151 65.8332 92.0258 65.7616 92.0197C65.6065 92.0054 65.4573 91.9532 65.327 91.8678C65.1967 91.7824 65.0893 91.6663 65.0141 91.5298C65.0059 91.5175 65.0028 91.5026 65.0052 91.488C65.0076 91.4735 65.0155 91.4604 65.0272 91.4515C65.0394 91.4429 65.0544 91.4395 65.069 91.4419C65.0837 91.4444 65.0968 91.4525 65.1055 91.4646Z" fill="white"/>
<path d="M69.4812 94.2262C70.21 94.2262 70.8008 93.6349 70.8008 92.9054C70.8008 92.1759 70.21 91.5846 69.4812 91.5846C68.7524 91.5846 68.1616 92.1759 68.1616 92.9054C68.1616 93.6349 68.7524 94.2262 69.4812 94.2262Z" fill="#CCCCCC"/>
<path d="M73.7895 98.0835C73.7085 98.1072 73.6263 98.1309 73.5441 98.1534C72.7979 98.3628 72.0463 98.5544 71.2893 98.7282C71.2022 98.5521 71.1555 98.3587 71.1525 98.1622C71.1495 97.9658 71.1904 97.7711 71.2721 97.5924C71.3539 97.4138 71.4744 97.2556 71.625 97.1295C71.7756 97.0034 71.9524 96.9125 72.1425 96.8635C72.3326 96.8145 72.5313 96.8086 72.7239 96.8462C72.9166 96.8838 73.0985 96.9639 73.2563 97.0808C73.4141 97.1977 73.5439 97.3484 73.6361 97.5219C73.7284 97.6953 73.7808 97.8872 73.7895 98.0835Z" fill="#CCCCCC"/>
<path d="M81.3285 95.2481C81.2276 95.2955 81.1267 95.3429 81.0258 95.389C80.9162 95.4414 80.8053 95.4912 80.6957 95.5411C80.5723 95.5972 80.4503 95.6521 80.3269 95.7069C79.8635 95.9139 79.3951 96.1134 78.9255 96.3054C78.9193 96.2955 78.9131 96.2843 78.9068 96.273C78.7423 95.9644 78.7068 95.6031 78.8081 95.2683C78.9094 94.9335 79.1392 94.6527 79.4471 94.4872C79.755 94.3218 80.1159 94.2854 80.4506 94.386C80.7854 94.4865 81.0666 94.7159 81.2326 95.0237C81.2707 95.0957 81.3028 95.1707 81.3285 95.2481Z" fill="#CCCCCC"/>
<path d="M74.1355 90.9841C74.8643 90.9841 75.4551 90.3928 75.4551 89.6633C75.4551 88.9339 74.8643 88.3425 74.1355 88.3425C73.4067 88.3425 72.8159 88.9339 72.8159 89.6633C72.8159 90.3928 73.4067 90.9841 74.1355 90.9841Z" fill="#CCCCCC"/>
<path d="M62.0312 17.2945C54.2692 19.3381 45.6688 20.5813 36.9238 20.9217C35.6422 20.9916 34.3576 20.9828 33.0771 20.8955C30.263 20.6586 27.8525 19.7733 25.168 19.2895C23.8775 19.0576 22.4399 18.888 21.1406 18.6374C21.4408 18.2646 21.7465 17.8963 22.0575 17.5326C24.8591 17.7696 27.7043 18.5451 30.5395 18.9055C35.3592 19.5189 40.7594 18.8344 44.4131 17.1461C46.1857 16.3269 47.5436 15.3045 49.31 14.4815C49.5502 14.3581 49.8105 14.2783 50.0786 14.2459C50.6379 14.1947 51.1287 14.4204 51.5286 14.6224C54.4922 16.1199 58.7949 17.3369 62.7886 16.6673C63.0863 16.9005 62.5208 17.1661 62.0312 17.2945Z" fill="white"/>
<path d="M79.7039 22.5645C79.7404 22.5578 79.7769 22.5526 79.8134 22.5463C79.66 22.4511 79.5156 22.3422 79.3818 22.2208L79.7039 22.5645Z" fill="white"/>
<path d="M103.612 25.5189C101.944 25.6524 100.267 25.7517 98.5814 25.817C97.2998 25.8862 96.0152 25.8775 94.7346 25.7908C91.9206 25.5526 89.5101 24.6686 86.8256 24.1848C84.3653 23.7421 81.3756 23.5289 79.8135 22.5464C83.8508 21.8469 88.0339 23.2708 92.1971 23.8007C95.5647 24.2152 98.9783 24.0465 102.289 23.302C102.75 24.0277 103.191 24.7667 103.612 25.5189Z" fill="white"/>
<path d="M66.0632 44.2228C62.1556 30.7978 59.8556 16.9557 59.8556 2.97253V1.95911H58.5573V2.9725C58.5573 16.9557 56.2572 30.7978 52.3496 44.2228C52.1607 44.8728 52.065 45.5462 52.0654 46.2231C52.0654 46.4791 52.1158 46.7326 52.2137 46.9691C52.3116 47.2056 52.455 47.4205 52.6358 47.6015C52.8167 47.7825 53.0314 47.9261 53.2677 48.0241C53.504 48.1221 53.7572 48.1725 54.013 48.1725H56.6097C56.6097 48.5138 56.6769 48.8518 56.8074 49.1671C56.9379 49.4825 57.1291 49.769 57.3703 50.0104C57.6114 50.2517 57.8977 50.4432 58.2127 50.5738C58.5278 50.7044 58.8654 50.7716 59.2064 50.7716C59.5474 50.7716 59.8851 50.7044 60.2002 50.5738C60.5152 50.4432 60.8015 50.2517 61.0426 50.0104C61.2837 49.769 61.475 49.4825 61.6055 49.1671C61.736 48.8518 61.8032 48.5138 61.8032 48.1725H63.8238V53.7745C63.5388 53.7828 63.2678 53.9 63.0663 54.1021C62.8649 54.3041 62.7484 54.5756 62.7407 54.8609C62.733 55.1463 62.8347 55.4237 63.025 55.6363C63.2152 55.8489 63.4795 55.9806 63.7637 56.0043C64.0478 56.028 64.3303 55.9419 64.5531 55.7637C64.7758 55.5856 64.922 55.3288 64.9616 55.0461C65.0011 54.7635 64.9311 54.4764 64.7659 54.2438C64.6006 54.0112 64.3527 53.8507 64.073 53.7953V48.1725H64.3999C64.9164 48.1725 65.4118 47.9671 65.777 47.6015C66.1423 47.2359 66.3475 46.7401 66.3475 46.2231C66.3478 45.5462 66.2522 44.8727 66.0632 44.2228Z" fill="white"/>
</g>
<defs>
<clipPath id="clip0_471_1098">
<rect width="110" height="100" fill="white"/>
</clipPath>
</defs>
</svg>
