<svg width="78" height="60" viewBox="0 0 78 60" fill="none" xmlns="http://www.w3.org/2000/svg">
<g clip-path="url(#clip0_345_756)">
<path fill-rule="evenodd" clip-rule="evenodd" d="M13.9141 3.05789e-06C15.2153 -0.00125062 16.4876 0.383012 17.57 1.10416C18.6525 1.82531 19.4963 2.85092 19.9949 4.05121C20.4934 5.25149 20.6241 6.57249 20.3706 7.84703C20.1171 9.12156 19.4906 10.2923 18.5705 11.2112C17.6505 12.13 16.4781 12.7556 15.2019 13.0088C13.9256 13.262 12.6028 13.1314 11.401 12.6336C10.1991 12.1357 9.17206 11.293 8.44995 10.212C7.72783 9.13106 7.34305 7.86046 7.34431 6.56102C7.34431 4.82093 8.03648 3.15211 9.26856 1.92168C10.5006 0.691251 12.1717 3.05789e-06 13.9141 3.05789e-06ZM9.27399 14.3899L11.6099 20.5071H11.8575L12.9937 16.5895L12.359 15.9239C11.9019 15.2583 12.0606 14.4976 12.9112 14.3582C13.2176 14.3357 13.5252 14.3357 13.8316 14.3582C14.1685 14.3388 14.5064 14.3515 14.8409 14.3962C15.628 14.5737 15.7105 15.3344 15.317 15.943L14.6822 16.6086L15.8692 20.5071H16.1104L18.2178 14.3899C18.312 14.4745 18.4117 14.5529 18.5162 14.6244C19.1216 14.6792 19.7081 14.8629 20.2364 15.1632C21.0139 15.3182 21.6984 15.7739 22.1407 16.4311L27.1553 23.3471L30.7291 24.0317V10.5674H25.6509C25.3378 10.5674 25.0375 10.4431 24.8161 10.222C24.5947 10.0009 24.4703 9.70099 24.4703 9.38828C24.4703 9.07556 24.5947 8.77566 24.8161 8.55454C25.0375 8.33342 25.3378 8.20919 25.6509 8.20919H49.2325V4.76704C49.2544 4.46844 49.3886 4.18919 49.6082 3.98536C49.8278 3.78154 50.1165 3.66825 50.4163 3.66825C50.7161 3.66825 51.0048 3.78154 51.2244 3.98536C51.444 4.18919 51.5783 4.46844 51.6002 4.76704V8.24089H76.6925C77.0056 8.24089 77.3059 8.36512 77.5273 8.58624C77.7487 8.80736 77.8731 9.10726 77.8731 9.41997C77.8731 9.73268 77.7487 10.0326 77.5273 10.2537C77.3059 10.4748 77.0056 10.5991 76.6925 10.5991H71.6588V39.7655H76.8067C77.1198 39.7655 77.4201 39.8897 77.6416 40.1108C77.863 40.3319 77.9874 40.6318 77.9874 40.9445C77.9874 41.2572 77.863 41.5572 77.6416 41.7783C77.4201 41.9994 77.1198 42.1236 76.8067 42.1236H51.7652V47.5436C51.8175 47.5893 51.8726 47.6317 51.9302 47.6704L59.3062 54.6434C59.4296 54.746 59.5305 54.8728 59.6029 55.016C59.6752 55.1591 59.7174 55.3155 59.7269 55.4755C59.7363 55.6356 59.7128 55.7959 59.6577 55.9465C59.6027 56.0971 59.5173 56.2348 59.4069 56.3512C59.2965 56.4676 59.1633 56.5601 59.0157 56.623C58.868 56.686 58.709 56.718 58.5485 56.7172C58.388 56.7164 58.2293 56.6827 58.0823 56.6182C57.9353 56.5537 57.8031 56.4598 57.6939 56.3423L51.7652 50.7132V55.7845C51.7433 56.0831 51.6091 56.3623 51.3895 56.5661C51.1699 56.77 50.8812 56.8833 50.5814 56.8833C50.2816 56.8833 49.9929 56.77 49.7733 56.5661C49.5537 56.3623 49.4194 56.0831 49.3975 55.7845V50.5103L43.2467 56.3487C43.1351 56.4558 43.0033 56.5398 42.8589 56.5956C42.7146 56.6515 42.5606 56.6781 42.4058 56.674C42.2511 56.6698 42.0987 56.635 41.9575 56.5716C41.8164 56.5081 41.6893 56.4172 41.5836 56.3043C41.4756 56.1938 41.391 56.0629 41.3347 55.9192C41.2783 55.7754 41.2515 55.6219 41.2556 55.4676C41.2597 55.3134 41.2948 55.1615 41.3588 55.021C41.4228 54.8805 41.5143 54.7543 41.628 54.6498L49.004 47.6767C49.1157 47.5669 49.25 47.4825 49.3975 47.4295V42.1236H25.6256C25.3124 42.1236 25.0121 41.9994 24.7907 41.7783C24.5693 41.5572 24.4449 41.2572 24.4449 40.9445C24.4449 40.6318 24.5693 40.3319 24.7907 40.1108C25.0121 39.8897 25.3124 39.7655 25.6256 39.7655H30.7037V30.3201L24.8194 29.1601C24.0326 29.0267 23.3277 28.5953 22.8516 27.9556L20.357 24.5008V24.5895L20.1539 34.5927L22.6929 50.5927L23.6514 56.0761C24.191 59.7401 18.5733 61.9144 17.1832 57.103L13.9078 37.8193L10.5753 57.4136C9.9405 60.9572 4.14509 60.9889 4.107 56.6846L7.78229 34.7195L7.503 22.859C7.18991 23.242 6.93536 23.6693 6.74763 24.1268C6.35618 25.0464 6.14087 26.0312 6.11286 27.0301L5.60505 33.9461C5.32575 37.5594 -0.0634085 37.7813 6.80388e-05 33.8827C0.0318063 32.1331 0.190498 30.3708 0.380927 28.5769C0.749092 25.141 0.825263 23.0111 2.78669 19.588C3.52104 18.3165 4.49034 17.1958 5.64313 16.2853C6.55194 15.5689 7.61072 15.0662 8.74079 14.8146C8.92879 14.6864 9.10701 14.5444 9.27399 14.3899ZM33.0904 24.2536L39.73 17.2805C39.8697 17.1235 40.0396 16.9961 40.2295 16.906C40.4195 16.8159 40.6256 16.7648 40.8357 16.7559C41.0459 16.747 41.2556 16.7804 41.4525 16.8541C41.6495 16.9278 41.8295 17.0403 41.982 17.1849C42.1345 17.3295 42.2563 17.5033 42.3402 17.6959C42.424 17.8885 42.4682 18.096 42.4701 18.306C42.472 18.516 42.4316 18.7243 42.3513 18.9184C42.271 19.1125 42.1523 19.2884 42.0025 19.4358L35.7564 25.9905C36.048 26.4619 36.2078 27.0028 36.2191 27.5568C36.2304 28.1108 36.0927 28.6577 35.8205 29.1405C35.5483 29.6234 35.1515 30.0245 34.6713 30.3022C34.1912 30.5799 33.6452 30.724 33.0904 30.7195V39.7655H69.3165V10.5674H33.0904V24.2536Z" fill="white"/>
</g>
<defs>
<clipPath id="clip0_345_756">
<rect width="78" height="60" fill="white"/>
</clipPath>
</defs>
</svg>
