<svg width="25" height="25" viewBox="0 0 25 25" fill="none" xmlns="http://www.w3.org/2000/svg">
<path d="M19.6429 0H5.35714C2.39847 0 0 2.39847 0 5.35714V19.6429C0 22.6015 2.39847 25 5.35714 25H19.6429C22.6015 25 25 22.6015 25 19.6429V5.35714C25 2.39847 22.6015 0 19.6429 0Z" fill="url(#paint0_radial_595_230)"/>
<path d="M19.6429 0H5.35714C2.39847 0 0 2.39847 0 5.35714V19.6429C0 22.6015 2.39847 25 5.35714 25H19.6429C22.6015 25 25 22.6015 25 19.6429V5.35714C25 2.39847 22.6015 0 19.6429 0Z" fill="url(#paint1_radial_595_230)"/>
<path d="M19.6429 0H5.35714C2.39847 0 0 2.39847 0 5.35714V19.6429C0 22.6015 2.39847 25 5.35714 25H19.6429C22.6015 25 25 22.6015 25 19.6429V5.35714C25 2.39847 22.6015 0 19.6429 0Z" fill="url(#paint2_radial_595_230)"/>
<path d="M18.7499 7.58929C18.7499 8.32893 18.1502 8.92857 17.4106 8.92857C16.6709 8.92857 16.0713 8.32893 16.0713 7.58929C16.0713 6.84962 16.6709 6.25 17.4106 6.25C18.1502 6.25 18.7499 6.84962 18.7499 7.58929Z" fill="white"/>
<path fill-rule="evenodd" clip-rule="evenodd" d="M12.5004 16.9637C14.966 16.9637 16.9647 14.965 16.9647 12.4994C16.9647 10.0339 14.966 8.03516 12.5004 8.03516C10.0349 8.03516 8.03613 10.0339 8.03613 12.4994C8.03613 14.965 10.0349 16.9637 12.5004 16.9637ZM12.5004 15.178C13.9798 15.178 15.179 13.9788 15.179 12.4994C15.179 11.0201 13.9798 9.82087 12.5004 9.82087C11.021 9.82087 9.82185 11.0201 9.82185 12.4994C9.82185 13.9788 11.021 15.178 12.5004 15.178Z" fill="white"/>
<path fill-rule="evenodd" clip-rule="evenodd" d="M3.57129 12.1427C3.57129 9.14245 3.57129 7.64227 4.15518 6.49634C4.66879 5.48832 5.48832 4.66879 6.49634 4.15518C7.64227 3.57129 9.14245 3.57129 12.1427 3.57129H12.857C15.8573 3.57129 17.3575 3.57129 18.5033 4.15518C19.5114 4.66879 20.3309 5.48832 20.8445 6.49634C21.4284 7.64227 21.4284 9.14245 21.4284 12.1427V12.857C21.4284 15.8573 21.4284 17.3575 20.8445 18.5033C20.3309 19.5114 19.5114 20.3309 18.5033 20.8445C17.3575 21.4284 15.8573 21.4284 12.857 21.4284H12.1427C9.14245 21.4284 7.64227 21.4284 6.49634 20.8445C5.48832 20.3309 4.66879 19.5114 4.15518 18.5033C3.57129 17.3575 3.57129 15.8573 3.57129 12.857V12.1427ZM12.1427 5.357H12.857C14.3866 5.357 15.4264 5.3584 16.2301 5.42406C17.0131 5.48802 17.4134 5.60396 17.6927 5.74626C18.3647 6.08867 18.911 6.63503 19.2534 7.307C19.3958 7.58629 19.5117 7.98665 19.5757 8.76959C19.6413 9.57334 19.6427 10.6131 19.6427 12.1427V12.857C19.6427 14.3866 19.6413 15.4264 19.5757 16.2301C19.5117 17.0131 19.3958 17.4134 19.2534 17.6927C18.911 18.3647 18.3647 18.911 17.6927 19.2534C17.4134 19.3958 17.0131 19.5117 16.2301 19.5757C15.4264 19.6413 14.3866 19.6427 12.857 19.6427H12.1427C10.6131 19.6427 9.57334 19.6413 8.76959 19.5757C7.98665 19.5117 7.58629 19.3958 7.307 19.2534C6.63503 18.911 6.08867 18.3647 5.74626 17.6927C5.60396 17.4134 5.48802 17.0131 5.42406 16.2301C5.3584 15.4264 5.357 14.3866 5.357 12.857V12.1427C5.357 10.6131 5.3584 9.57334 5.42406 8.76959C5.48802 7.98665 5.60396 7.58629 5.74626 7.307C6.08867 6.63503 6.63503 6.08867 7.307 5.74626C7.58629 5.60396 7.98665 5.48802 8.76959 5.42406C9.57334 5.3584 10.6131 5.357 12.1427 5.357Z" fill="white"/>
<defs>
<radialGradient id="paint0_radial_595_230" cx="0" cy="0" r="1" gradientUnits="userSpaceOnUse" gradientTransform="translate(8.92857 18.75) rotate(-55.3758) scale(22.7854)">
<stop stop-color="#B13589"/>
<stop offset="0.79309" stop-color="#C62F94"/>
<stop offset="1" stop-color="#8A3AC8"/>
</radialGradient>
<radialGradient id="paint1_radial_595_230" cx="0" cy="0" r="1" gradientUnits="userSpaceOnUse" gradientTransform="translate(8.03571 25.8929) rotate(-65.1363) scale(20.1734)">
<stop stop-color="#E0E8B7"/>
<stop offset="0.444662" stop-color="#FB8A2E"/>
<stop offset="0.71474" stop-color="#E2425C"/>
<stop offset="1" stop-color="#E2425C" stop-opacity="0"/>
</radialGradient>
<radialGradient id="paint2_radial_595_230" cx="0" cy="0" r="1" gradientUnits="userSpaceOnUse" gradientTransform="translate(-1.33929 0.892857) rotate(-8.1301) scale(34.724 7.42711)">
<stop offset="0.156701" stop-color="#406ADC"/>
<stop offset="0.467799" stop-color="#6A45BE"/>
<stop offset="1" stop-color="#6A45BE" stop-opacity="0"/>
</radialGradient>
</defs>
</svg>
