<svg width="26" height="26" viewBox="0 0 26 26" fill="none" xmlns="http://www.w3.org/2000/svg">
<circle cx="13" cy="13" r="12.5" fill="white" stroke="url(#paint0_linear_106_174)"/>
<g clip-path="url(#clip0_106_174)">
<path d="M6 9.08284C6.0401 8.96044 6.07656 8.84174 6.11302 8.73047C7.5276 10.1548 8.9349 11.568 10.3422 12.9886C8.9276 14.4093 7.52031 15.8262 6.10937 17.2468C6.08021 17.1615 6.0401 17.0391 6 16.9167C6 14.3054 6 11.6941 6 9.08284Z" fill="#012E4B"/>
<path d="M20.0004 16.913C19.9603 17.0317 19.9238 17.1541 19.8874 17.2653C18.4728 15.841 17.0655 14.4278 15.6582 13.0072C17.0764 11.5829 18.4837 10.1659 19.8947 8.74902C19.9238 8.83804 19.9639 8.96045 20.0004 9.07914C20.0004 11.6941 20.0004 14.3054 20.0004 16.913Z" fill="#012E4B"/>
<path d="M6.7041 8.09964C6.8791 8.06255 7.01764 8.02917 7.15983 8.0032C7.21452 7.99207 7.26921 7.99949 7.32389 7.99949C11.1119 7.99949 14.8963 7.99949 18.6843 7.99949C18.8848 7.99949 19.0817 8.02175 19.2749 8.11819C19.2348 8.15899 19.2057 8.19237 19.1765 8.22575C17.2479 10.1916 15.3156 12.1575 13.3869 14.1234C13.139 14.3756 12.8692 14.3793 12.6249 14.1308C10.689 12.1649 8.75671 10.1953 6.82077 8.22575C6.7916 8.19608 6.76608 8.16641 6.7041 8.09964Z" fill="#012E4B"/>
<path d="M15.049 13.6266C16.46 15.0435 17.8636 16.4567 19.2964 17.8958C19.1287 17.9329 18.9902 17.9663 18.8516 17.9923C18.7969 18.0034 18.7423 17.996 18.6876 17.996C14.8959 17.996 11.1079 17.996 7.31621 17.996C7.11569 17.996 6.91882 17.9737 6.72559 17.8736C8.14017 16.453 9.54381 15.0398 10.9548 13.6191C10.9657 13.6303 11.0021 13.6637 11.0386 13.697C11.374 14.0383 11.7058 14.3795 12.0412 14.7208C12.6063 15.2957 13.3938 15.2957 13.9589 14.7208C14.3271 14.3536 14.6954 13.9826 15.049 13.6266Z" fill="#012E4B"/>
</g>
<defs>
<linearGradient id="paint0_linear_106_174" x1="1.77273" y1="1.77273" x2="20.6818" y2="26" gradientUnits="userSpaceOnUse">
<stop stop-color="#009DB8"/>
<stop offset="1" stop-color="#03C587"/>
</linearGradient>
<clipPath id="clip0_106_174">
<rect width="14" height="10" fill="white" transform="translate(6 8)"/>
</clipPath>
</defs>
</svg>
