<svg width="26" height="26" viewBox="0 0 26 26" fill="none" xmlns="http://www.w3.org/2000/svg">
<circle cx="13" cy="13" r="12.5" fill="white" stroke="url(#paint0_linear_106_176)"/>
<g clip-path="url(#clip0_106_176)">
<path fill-rule="evenodd" clip-rule="evenodd" d="M16.2837 16.1787C16.127 16.6221 15.5043 16.989 15.0077 17.0963C14.6678 17.1684 14.2244 17.2255 12.7307 16.6065C11.0531 15.9115 8.7235 13.4356 8.7235 11.788C8.7235 10.9493 9.2071 9.97261 10.0528 9.97261C10.4597 9.97261 10.5494 9.98054 10.6833 10.3017C10.8399 10.6802 11.2221 11.6125 11.2676 11.7081C11.4555 12.1001 11.0765 12.3296 10.8015 12.671C10.7138 12.7737 10.6144 12.8848 10.7255 13.076C10.836 13.2632 11.2182 13.8861 11.7798 14.3861C12.5052 15.0324 13.0934 15.2388 13.304 15.3265C13.4607 15.3916 13.6479 15.3764 13.7623 15.2542C13.9073 15.0975 14.0873 14.8375 14.2706 14.5813C14.3999 14.398 14.5644 14.3751 14.7367 14.4401C14.853 14.4804 16.3317 15.1671 16.3941 15.277C16.4403 15.357 16.4403 15.7353 16.2837 16.1787ZM12.5013 7H12.498C8.9146 7 6 9.91548 6 13.5C6 14.9213 6.45825 16.24 7.2376 17.3095L6.4277 19.7248L8.92565 18.9266C9.9533 19.6067 11.1798 20 12.5013 20C16.0847 20 19 17.0845 19 13.5C19 9.91548 16.0847 7 12.5013 7Z" fill="#012E4B"/>
</g>
<defs>
<linearGradient id="paint0_linear_106_176" x1="1.77273" y1="1.77273" x2="20.6818" y2="26" gradientUnits="userSpaceOnUse">
<stop stop-color="#009DB8"/>
<stop offset="1" stop-color="#03C587"/>
</linearGradient>
<clipPath id="clip0_106_176">
<rect width="13" height="13" fill="white" transform="translate(6 7)"/>
</clipPath>
</defs>
</svg>
