<svg width="103" height="100" viewBox="0 0 103 100" fill="none" xmlns="http://www.w3.org/2000/svg">
<path d="M84.6272 4.01005L20.7974 0.117372C19.3272 0.0418339 18.0039 1.73297 18.0039 3.15301V89.8C18.0039 91.7693 19.9125 92.165 21.3823 92.0076L84.6282 85.1982C85.7835 85.0739 86.7164 83.9596 86.7164 82.7086V6.38244C86.7154 5.13147 85.7811 4.0697 84.6272 4.01005Z" fill="#97A6B7"/>
<path d="M85.6767 3.32176L21.7199 0.00374181C20.2497 -0.0725021 19.0527 1.02562 19.0527 2.45661V89.7806C19.0527 91.2116 20.2497 92.242 21.7199 92.0824L85.6767 85.1432C86.832 85.0178 87.7649 83.8947 87.7649 82.6338V5.71286C87.7649 4.45236 86.832 3.38177 85.6767 3.32176Z" fill="#D8DEE8"/>
<path opacity="0.74" d="M21.7202 90.8996C20.9274 90.984 20.2808 90.4255 20.2808 89.6543V2.51628C20.2808 1.74501 20.9274 1.14989 21.7202 1.18942L85.6771 4.37437C86.3018 4.40543 86.8087 4.98538 86.8087 5.6677V82.7348C86.8087 83.4167 86.3018 84.0256 85.6771 84.0924L21.7202 90.8996Z" fill="white"/>
<path d="M81.5545 82.0256L26.8521 87.5816V7.18939L81.5545 9.36093V82.0256Z" fill="white"/>
<path d="M38.9406 45.7769V50.4091L34.3635 50.5721V45.8959L38.9406 45.7769ZM39.4521 45.252L33.8521 45.3971V51.102L39.4521 50.9029V45.252Z" fill="#D8DEE8"/>
<path d="M76.6317 49.5796L41.5137 50.8295V45.1987L76.6317 44.288V49.5796Z" fill="#D8DEE8"/>
<path d="M38.9406 54.018V58.6494L34.3635 58.8767V54.1997L38.9406 54.018ZM39.4521 53.4857L33.8521 53.7094V59.4143L39.4521 59.1362V53.4857Z" fill="#D8DEE8"/>
<path d="M76.6317 57.2898L41.5137 59.0338V53.4031L76.6317 51.9982V57.2898Z" fill="#D8DEE8"/>
<path d="M38.9406 62.2586V66.8898L34.3635 67.1813V62.5064L38.9406 62.2586ZM39.4521 61.7189L33.8521 62.0218V67.7267L39.4521 67.3695V61.7189Z" fill="#D8DEE8"/>
<path d="M76.6317 64.9999L41.5137 67.2381V61.6074L76.6317 59.7083V64.9999Z" fill="#D8DEE8"/>
<path d="M38.9406 70.5V75.1315L34.3628 75.4845V70.8117L38.9406 70.5ZM39.4521 69.9522L33.8521 70.3338V76.0387L39.4521 75.6031V69.9522Z" fill="#D8DEE8"/>
<path d="M76.6317 72.7101L41.5137 75.4425V69.8118L76.6317 67.4186V72.7101Z" fill="#D8DEE8"/>
<path d="M56.1202 39.7304L33.8511 40.108V13.483L56.1202 14.1092V39.7304Z" fill="#D8DEE8"/>
<path d="M76.6313 17.9384L59.6177 17.5611V14.2074L76.6313 14.6857V17.9384Z" fill="#D8DEE8"/>
<path d="M76.6313 25.1667L59.6177 25.0139V23.3369L76.6313 23.5402V25.1667Z" fill="#D8DEE8"/>
<path d="M76.6313 27.8473L59.6177 27.7777V26.1007L76.6313 26.2207V27.8473Z" fill="#D8DEE8"/>
<path d="M76.6313 30.5275L59.6177 30.5412V28.8646L76.6313 28.9013V30.5275Z" fill="#D8DEE8"/>
<path d="M45.3525 41.6392C46.4224 42.0078 47.6116 41.3675 48.0125 40.209C48.4135 39.0505 47.8678 37.8129 46.7979 37.4441C46.7425 37.425 46.6867 37.4088 46.6306 37.3964C46.7324 36.78 46.7889 36.157 46.7997 35.5323C46.8569 35.5242 46.9141 35.5154 46.972 35.502C48.098 35.2422 48.8572 34.0689 48.6663 32.8811C48.4753 31.6933 47.4111 30.9397 46.2847 31.2016C46.2261 31.2154 46.1686 31.2327 46.1121 31.251C45.9125 30.6809 45.6692 30.1271 45.3842 29.5945C45.4326 29.5564 45.4803 29.5175 45.5254 29.4748C46.4079 28.6559 46.5307 27.2637 45.8039 26.365C45.0772 25.4664 43.7739 25.4021 42.8933 26.221C42.8481 26.263 42.8064 26.3075 42.7651 26.3523C42.3179 25.9778 41.8399 25.6415 41.3363 25.347C41.361 25.2899 41.385 25.232 41.4069 25.1706C41.8061 24.0124 42.3599 22.7304 41.2844 22.3788C38.7966 21.5649 37.9311 22.6775 37.5326 23.8356C37.5121 23.8959 37.4955 23.956 37.4796 24.0163C36.9015 23.9379 36.3179 23.9084 35.7348 23.9281C35.7299 23.8674 35.7242 23.8066 35.7147 23.7459C35.5255 22.5581 35.7892 21.8649 34.6416 22.0015C32.1394 22.2994 31.4475 23.4995 31.6367 24.687C31.6466 24.7491 31.6604 24.8095 31.6748 24.8688C31.1224 25.1131 30.5896 25.3996 30.0811 25.7258C30.048 25.6764 30.0134 25.6273 29.9752 25.5804C29.2481 24.6817 27.9453 24.6174 27.0646 25.4364C26.1839 26.2553 26.0593 27.6474 26.7864 28.5458C26.8217 28.5917 26.863 28.634 26.9033 28.676C26.5269 29.1746 26.1875 29.7001 25.8877 30.2482C25.8355 30.2245 25.7818 30.202 25.7268 30.1829C24.6569 29.814 23.4677 30.4543 23.0671 31.6128C22.6664 32.7713 23.2114 34.0092 24.2813 34.3777C24.3367 34.3968 24.3929 34.413 24.4486 34.4254C24.3468 35.0418 24.2904 35.6648 24.2799 36.2895C24.2227 36.2976 24.1652 36.3064 24.1077 36.3198C22.9813 36.58 22.222 37.7533 22.4112 38.9407C22.6004 40.1281 23.6668 40.88 24.7928 40.6202C24.8517 40.6068 24.9089 40.5891 24.9658 40.5708C25.1651 41.1409 25.4083 41.6948 25.6932 42.2273C25.6452 42.2654 25.5972 42.3043 25.5521 42.3473C24.6696 43.1659 24.5468 44.5584 25.2736 45.4567C26.0003 46.3551 28.0197 46.539 28.9004 45.7201C28.9453 45.6784 28.2714 45.5143 28.3124 45.4694C28.7596 45.8442 29.2377 46.1805 29.7416 46.4747C29.7165 46.5319 29.6925 46.5898 29.671 46.6512C29.2718 47.8097 29.8153 49.0476 30.8852 49.4161C31.9551 49.7846 33.1443 49.1443 33.5449 47.9862C33.5658 47.9262 33.5824 47.8658 33.5979 47.8055C34.1761 47.8838 34.7598 47.9135 35.343 47.8941C35.3476 47.9544 35.3533 48.0151 35.3631 48.0762C35.5523 49.2636 36.6183 50.0155 37.7447 49.7557C38.8711 49.4959 39.63 48.3222 39.439 47.1348C39.4291 47.0727 39.4154 47.0127 39.4009 46.953C39.9534 46.7088 40.4862 46.4223 40.9946 46.096C41.0299 46.1454 41.0624 46.1945 41.1005 46.2414C41.8273 47.1401 43.1305 47.2043 44.0108 46.3854C44.8911 45.5665 45.0161 44.1744 44.2893 43.276C44.2519 43.2301 44.2124 43.1878 44.1721 43.1461C44.5486 42.6475 44.888 42.1219 45.1876 41.5736C45.2441 41.5983 45.2971 41.6198 45.3525 41.6392ZM32.9166 43.527C29.0338 42.1885 27.0572 37.694 28.5076 33.4882C29.958 29.2824 34.2805 26.9581 38.1647 28.2962C42.0489 29.6344 44.0242 34.1292 42.5738 38.335C41.1234 42.5408 36.8008 44.8655 32.9166 43.527Z" fill="url(#paint0_linear_221_942)"/>
<path d="M46.9717 35.502C48.0977 35.2423 48.857 34.0686 48.666 32.8812C48.475 31.6937 47.4108 30.9398 46.2844 31.2017C46.2255 31.2151 46.1683 31.2327 46.1118 31.2511C45.9122 30.681 45.6689 30.1272 45.384 29.5946C45.4323 29.5564 45.48 29.5176 45.5252 29.4745C46.4076 28.656 47.3836 26.8371 46.5682 26.0178C45.0211 24.4647 43.7737 25.4022 42.893 26.2211C42.8478 26.2631 42.8062 26.3076 42.7649 26.3524C42.3176 25.9779 41.8396 25.6416 41.336 25.3471C41.3607 25.2899 41.3847 25.2321 41.4066 25.1706C41.5103 24.8769 41.553 24.5651 41.5323 24.2542C41.5115 23.9434 41.4277 23.64 41.2859 23.3627C40.5738 25.1511 39.8769 26.946 39.1952 28.7474C42.3844 30.4664 43.8866 34.5186 42.5721 38.3337C41.4581 41.5666 38.6456 43.6856 35.6403 43.8864C35.5553 44.2489 35.473 44.6132 35.3781 44.9739C35.1207 45.9528 34.8083 46.9199 34.4956 47.8857C34.778 47.8993 35.0604 47.9016 35.3428 47.8924C35.3473 47.9531 35.353 48.0138 35.3625 48.0749C35.5521 49.2623 36.4155 50.1737 38.4666 49.777C39.6015 49.5578 39.6297 48.3209 39.4405 47.1335C39.4306 47.0714 39.4169 47.0113 39.4024 46.9517C39.9549 46.7074 40.4877 46.4209 40.9961 46.0947C41.0314 46.1441 41.0639 46.1931 41.102 46.2401C41.8288 47.1388 43.9361 47.2708 44.8167 46.4519C45.6974 45.633 45.0176 44.173 44.2908 43.275C44.2534 43.2292 44.2139 43.1868 44.1736 43.1451C44.5501 42.6465 44.8895 42.1209 45.1891 41.5726C45.2417 41.5963 45.295 41.6192 45.3501 41.6379C46.42 42.0068 47.6092 41.3665 48.0102 40.208C48.4111 39.0495 47.8654 37.812 46.7956 37.4431C46.7401 37.424 46.6844 37.4078 46.6282 37.3954C46.73 36.779 46.7866 36.156 46.7973 35.5313C46.8566 35.5243 46.9138 35.5155 46.9717 35.502Z" fill="url(#paint1_linear_221_942)"/>
<path d="M48.0635 35.4744C49.1895 35.2146 49.9484 34.0417 49.7578 32.8546C49.5672 31.6675 48.5033 30.9132 47.3762 31.1751C47.3179 31.1883 47.2604 31.2049 47.204 31.2249C47.0044 30.654 46.7612 30.0994 46.4765 29.5659C46.5245 29.5285 46.5718 29.4893 46.6177 29.4466C47.498 28.6273 47.6222 27.2351 46.8962 26.3368C46.1701 25.4385 44.8658 25.3742 43.9851 26.1921C43.9396 26.2348 43.898 26.2793 43.8563 26.3237C43.4095 25.9491 42.9319 25.6129 42.4285 25.3188C42.4525 25.2613 42.4769 25.2034 42.497 25.1441C42.8965 23.9845 42.3526 22.747 41.2831 22.3792C40.2135 22.0114 39.024 22.6506 38.623 23.8084C38.6029 23.8681 38.5856 23.9288 38.5708 23.9888C37.9926 23.9111 37.409 23.8816 36.826 23.9005C36.82 23.8409 36.8143 23.7795 36.8059 23.7187C36.6163 22.5313 35.5503 21.7798 34.4243 22.0393C33.2983 22.2987 32.5383 23.472 32.7275 24.6594C32.7378 24.7226 32.7512 24.7826 32.7657 24.8412C32.2131 25.0859 31.6801 25.3728 31.1716 25.6993C31.1388 25.6491 31.1035 25.6005 31.0657 25.5539C30.8545 25.2886 30.5763 25.0844 30.2598 24.9625C29.9434 24.8406 29.6001 24.8053 29.2655 24.8603C28.849 24.9273 28.4624 25.1186 28.1564 25.4092C27.2765 26.2284 27.1519 27.6195 27.8783 28.5193C27.9157 28.5645 27.9552 28.6068 27.9958 28.6488C27.619 29.1474 27.2794 29.6731 26.98 30.2217C26.9274 30.197 26.8736 30.1752 26.8187 30.1564C25.7488 29.7872 24.5596 30.4275 24.1586 31.5856C23.7576 32.7438 24.303 33.9824 25.3728 34.3502C25.4279 34.3693 25.484 34.3852 25.5409 34.3978C25.4388 35.0143 25.3825 35.6375 25.3721 36.2623C25.3139 36.2704 25.2571 36.2796 25.1995 36.2926C24.0735 36.5524 23.3136 37.7257 23.5031 38.9142C23.6927 40.1027 24.7587 40.8532 25.8847 40.5937C25.9433 40.5792 26.0001 40.5623 26.0569 40.5439C26.2565 41.1139 26.5001 41.6676 26.7855 42.1998C26.7364 42.239 26.6891 42.2778 26.6443 42.3201C25.7639 43.1384 25.6397 44.5305 26.3661 45.4292C27.0926 46.3279 28.3965 46.3928 29.2768 45.5736C29.3213 45.5312 29.364 45.4878 29.4042 45.4423C29.8516 45.8172 30.3299 46.1537 30.8338 46.4483C30.8094 46.5047 30.7851 46.5623 30.7632 46.6248C30.3647 47.7825 30.9086 49.0201 31.9785 49.3893C33.0484 49.7585 34.2376 49.1179 34.6382 47.9587C34.6583 47.899 34.6735 47.8387 34.6905 47.7783C35.2685 47.8568 35.8522 47.8864 36.4352 47.8665C36.4402 47.928 36.4458 47.9876 36.4554 48.0483C36.6449 49.2368 37.7113 49.9897 38.8373 49.7292C39.9633 49.4687 40.7229 48.2951 40.5337 47.1076C40.5238 47.0459 40.5104 46.9859 40.4956 46.9258C41.048 46.6814 41.5809 46.395 42.0896 46.0692C42.1224 46.1195 42.1577 46.168 42.1955 46.2146C42.922 47.1133 44.2259 47.1775 45.1062 46.3579C45.7956 45.7176 46.0218 44.7243 45.7387 43.8934C45.6601 43.6595 45.5406 43.4414 45.3858 43.2492C45.3489 43.2041 45.3098 43.1608 45.2686 43.1196C45.6443 42.6202 45.9838 42.0946 46.2845 41.5468C46.3367 41.5704 46.3903 41.593 46.4444 41.6124C47.5142 41.9802 48.7062 41.341 49.1041 40.1818C49.5019 39.0226 48.96 37.7865 47.8902 37.4172C47.8344 37.3978 47.7797 37.3819 47.7236 37.3692C47.8248 36.7526 47.8811 36.1295 47.8919 35.5048C47.9496 35.4978 48.0069 35.4877 48.0635 35.4744ZM43.6646 38.3085C42.6819 41.1613 40.3759 43.1482 37.7829 43.7134C36.5292 43.9923 35.2228 43.919 34.0082 43.5016C30.1233 42.1624 28.1487 37.6689 29.5984 33.4628C30.2461 31.5821 31.4692 30.0788 32.969 29.1098C34.8242 27.9097 37.1084 27.5295 39.2563 28.2704C43.1408 29.6072 45.114 34.1024 43.6646 38.3085Z" fill="url(#paint2_linear_221_942)"/>
<g opacity="0.3" style="mix-blend-mode:soft-light">
<path d="M45.1066 46.358C44.2263 47.1776 42.9224 47.1133 42.1959 46.2147C42.1581 46.1681 42.1228 46.1195 42.09 46.0692C41.5813 46.3951 41.0484 46.6815 40.496 46.9259C40.5108 46.9859 40.5242 47.0459 40.5341 47.1077C40.7233 48.2951 39.9633 49.4684 38.8377 49.7293C37.712 49.9901 36.6453 49.2369 36.4558 48.0484C36.4462 47.9877 36.4406 47.928 36.4356 47.8666C35.8526 47.8864 35.2689 47.8569 34.6909 47.7784C34.6746 47.8387 34.6587 47.8991 34.6386 47.9587C34.2391 49.1179 33.0484 49.7589 31.9789 49.3894C30.9094 49.0198 30.3651 47.7826 30.7636 46.6248C30.7848 46.5638 30.8091 46.5062 30.8342 46.4483C30.3303 46.1538 29.852 45.8172 29.4046 45.4423C29.3644 45.4879 29.3217 45.5313 29.2772 45.5736C28.3969 46.3929 27.093 46.3287 26.3665 45.4293C25.6401 44.5299 25.7644 43.1384 26.6447 42.3202C26.6906 42.2779 26.7379 42.239 26.7859 42.1998C26.5005 41.6676 26.2569 41.114 26.0573 40.544C26.0005 40.5624 25.9437 40.5793 25.8851 40.5938C24.7591 40.8532 23.6927 40.1017 23.5035 38.9143C23.3143 37.7269 24.0739 36.5525 25.1999 36.2927C25.2575 36.2796 25.3143 36.2705 25.3725 36.2623C25.3829 35.6376 25.4392 35.0144 25.5413 34.3979C25.4844 34.3852 25.4283 34.3693 25.3732 34.3502C24.3034 33.9824 23.7594 32.7435 24.159 31.5857C24.5586 30.4279 25.7474 29.7855 26.8191 30.1565C26.874 30.1752 26.9278 30.197 26.9804 30.2218C27.2798 29.6732 27.6194 29.1475 27.9962 28.6489C27.9556 28.6069 27.9161 28.5645 27.8787 28.5194C27.1523 27.6196 27.2769 26.2285 28.1568 25.4092C28.4628 25.1187 28.8494 24.9274 29.2659 24.8604C30.7954 25.9168 32.2779 27.3312 32.9683 29.1074C31.4671 30.0764 30.2454 31.5783 29.5977 33.4604C28.1484 37.6665 30.1226 42.16 34.0075 43.4992C35.2221 43.9166 36.5286 43.9899 37.7823 43.711C39.6912 44.8031 42.2884 45.0618 45.7384 43.891C46.0222 44.7244 45.796 45.7177 45.1066 46.358Z" fill="white"/>
</g>
<path d="M95.684 42.1505C97.5985 42.7173 99.6483 41.4964 100.262 39.4233C100.876 37.3503 99.8212 35.2094 97.9067 34.6447C97.8075 34.615 97.708 34.5935 97.6081 34.5741C97.7396 33.4795 97.7907 32.3768 97.7609 31.2748C97.8615 31.256 97.9617 31.2359 98.0623 31.208C100.027 30.6623 101.274 28.5346 100.851 26.4559C100.427 24.3771 98.4859 23.1343 96.5219 23.6797C96.4192 23.7082 96.3197 23.7435 96.2212 23.7806C95.825 22.791 95.353 21.8334 94.8093 20.9165C94.8912 20.8459 94.9724 20.7732 95.05 20.6941C96.5389 19.1823 96.6504 16.7185 95.2996 15.1908C93.9487 13.6631 91.6452 13.649 90.1581 15.1601C90.0818 15.2374 90.0116 15.3189 89.9427 15.4012C89.1251 14.7756 88.2563 14.22 87.3455 13.7401C87.3847 13.6373 87.4225 13.5336 87.4542 13.4263C88.0681 11.3532 88.9449 9.0493 87.0218 8.51382C82.5743 7.27204 81.1348 9.30027 80.521 11.373C80.4892 11.4789 80.4645 11.5883 80.4416 11.6956C79.4163 11.6023 78.385 11.5955 77.3586 11.6751C77.3456 11.5692 77.3311 11.4633 77.3092 11.3574C76.8835 9.27873 77.2947 8.03553 75.2824 8.36557C70.8938 9.0853 69.7674 11.2547 70.1935 13.3334C70.2157 13.4421 70.2443 13.5452 70.2747 13.6511C69.3196 14.1246 68.4024 14.671 67.5313 15.2854C67.4688 15.2007 67.4046 15.117 67.334 15.0383C65.9828 13.5106 63.6803 13.4983 62.1918 15.0101C60.7033 16.5219 60.5914 18.9861 61.9426 20.5134C62.0132 20.5918 62.0838 20.6634 62.1586 20.7337C61.5338 21.642 60.9764 22.5949 60.4908 23.5847C60.3962 23.5469 60.3009 23.5109 60.2017 23.4816C58.2871 22.9147 56.2374 24.1357 55.6235 26.2088C55.0097 28.2818 56.0644 30.4223 57.979 30.9888C58.0781 31.0185 58.178 31.04 58.2776 31.0594C58.146 32.154 58.0949 33.2567 58.1247 34.3587C58.0245 34.3775 57.9239 34.3976 57.8233 34.4255C55.8583 34.9712 54.6112 37.0989 55.0347 39.1776C55.4583 41.2564 57.3997 42.4992 59.3637 41.9535C59.4664 41.9249 59.566 41.89 59.6644 41.8529C60.0606 42.8425 60.5327 43.8001 61.0764 44.717C60.9941 44.7876 60.9129 44.8603 60.8353 44.9394C59.3464 46.4512 59.2349 48.915 60.5861 50.4427C61.9373 51.9704 65.5108 52.137 66.9997 50.6255C67.076 50.5482 65.8748 50.3117 65.944 50.2295C66.7615 50.8552 67.6303 51.4109 68.5412 51.8906C68.5017 51.9933 68.4639 52.0971 68.4321 52.2044C67.8183 54.2775 68.8726 56.4176 70.7876 56.9845C72.7025 57.5514 74.7515 56.3304 75.3654 54.2574C75.3971 54.1515 75.4218 54.042 75.4448 53.9347C76.47 54.028 77.5013 54.0348 78.5277 53.9552C78.5408 54.0611 78.5556 54.167 78.5771 54.2729C79.0032 56.3516 80.9421 57.5944 82.9061 57.0491C84.8701 56.5037 86.1182 54.3756 85.6946 52.2969C85.6724 52.1882 85.6434 52.0851 85.6131 51.9792C86.5681 51.5057 87.4853 50.9593 88.3564 50.3449C88.4189 50.4296 88.4832 50.5133 88.5538 50.592C89.905 52.1193 92.2075 52.1321 93.6963 50.6202C95.1852 49.1084 95.2967 46.6443 93.9455 45.1166C93.8749 45.0385 93.8043 44.9669 93.7292 44.8966C94.3539 43.9883 94.9114 43.0354 95.397 42.0456C95.4881 42.0852 95.5848 42.1212 95.684 42.1505ZM73.9051 46.4438C66.9538 44.3859 63.1251 36.6157 65.3534 29.0884C67.5818 21.5611 75.0251 17.128 81.9753 19.1862C88.9254 21.2444 92.7553 29.0143 90.5269 36.5416C88.2985 44.0689 80.8584 48.502 73.9068 46.4438H73.9051Z" fill="url(#paint3_linear_221_942)"/>
<path d="M98.0622 31.2059C100.027 30.6598 101.274 28.5324 100.851 26.4537C100.427 24.375 98.4858 23.1321 96.5218 23.6779C96.4191 23.7061 96.3196 23.7417 96.2211 23.7785C95.8249 22.7888 95.3528 21.8313 94.8092 20.9144C94.891 20.8438 94.9722 20.7711 95.0499 20.692C96.5388 19.1802 98.1208 15.8978 96.6203 14.5169C93.7714 11.8964 91.645 13.649 90.1579 15.1601C90.0817 15.2374 90.0114 15.3189 89.9426 15.4012C89.1249 14.7755 88.256 14.2199 87.345 13.74C87.3846 13.6373 87.4223 13.5335 87.4541 13.4262C87.7884 12.2967 87.6253 11.1516 87.1011 10.2494C85.985 13.4587 84.8958 16.6769 83.8336 19.9041C89.5893 22.6874 92.5522 29.7142 90.5303 36.5419C88.8173 42.3273 84.0238 46.281 78.7408 46.8684C78.619 47.5143 78.5022 48.1627 78.3631 48.8062C77.9854 50.5517 77.5099 52.2806 77.0327 54.0081C77.5332 54.0102 78.0318 53.9922 78.5283 53.9541C78.5414 54.06 78.5562 54.1659 78.5781 54.2718C79.0038 56.3505 80.5968 57.8902 84.182 57.0321C86.165 56.5573 86.1195 54.3745 85.6938 52.2958C85.6716 52.1871 85.6426 52.084 85.6123 51.9781C86.5673 51.5046 87.4845 50.9582 88.3556 50.3438C88.4181 50.4285 88.4823 50.5122 88.5529 50.5909C89.9041 52.1183 93.6295 52.1874 95.1184 50.6756C96.6072 49.1638 95.2949 46.6432 93.9447 45.1158C93.8741 45.0374 93.8035 44.9658 93.7283 44.8955C94.3532 43.9873 94.9107 43.0344 95.3962 42.0445C95.4908 42.0823 95.5861 42.1183 95.6853 42.1476C97.5998 42.7145 99.6496 41.4932 100.263 39.4201C100.877 37.347 99.8211 35.2094 97.9066 34.6446C97.8074 34.6153 97.7078 34.5938 97.6079 34.574C97.7395 33.4795 97.7906 32.3767 97.7608 31.2747C97.8614 31.2539 97.9616 31.2338 98.0622 31.2059Z" fill="url(#paint4_linear_221_942)"/>
<path d="M99.83 34.5108C99.7305 34.4812 99.6317 34.4596 99.5318 34.4402C99.6632 33.346 99.7142 32.2436 99.6846 31.142C99.7852 31.1229 99.8854 31.1024 99.9853 31.0738C101.951 30.5292 103.197 28.4011 102.774 26.3227C102.35 24.2444 100.409 23.0001 98.4456 23.5458C98.3429 23.5755 98.243 23.6104 98.1438 23.6468C97.7482 22.6571 97.2769 21.6995 96.734 20.7823C96.8156 20.7117 96.8961 20.6411 96.9741 20.5606C98.4633 19.0492 98.5748 16.5843 97.2229 15.058C95.871 13.5317 93.5706 13.5176 92.0814 15.0294C92.0045 15.1067 91.9342 15.189 91.8661 15.2712C91.0484 14.6448 90.1792 14.0887 89.2678 13.6087C89.308 13.506 89.3458 13.4032 89.3772 13.2959C89.9911 11.2225 88.9367 9.08276 87.0221 8.51587C85.1076 7.94899 83.0557 9.16889 82.4419 11.2419C82.4101 11.3503 82.3854 11.458 82.3632 11.5646C81.3376 11.4718 80.3062 11.4651 79.2795 11.5445C79.2661 11.4386 79.2527 11.3327 79.2301 11.2268C78.8044 9.147 76.8651 7.90416 74.9015 8.45022C72.9379 8.99628 71.6894 11.123 72.113 13.2028C72.1352 13.3115 72.1649 13.4145 72.1942 13.5204C72.1476 13.5434 72.101 13.5667 72.053 13.591C71.148 14.0467 70.2781 14.5689 69.4504 15.1533C69.3869 15.0683 69.323 14.9846 69.2521 14.9062C67.9016 13.3785 65.5984 13.3658 64.1106 14.8777C62.6227 16.3895 62.5101 18.854 63.8606 20.3817C63.9312 20.4593 64.0018 20.5303 64.077 20.6016C63.4523 21.5096 62.8951 22.4623 62.4099 23.4519C62.3146 23.4145 62.2196 23.3788 62.1201 23.3492C60.2055 22.7823 58.1554 24.0029 57.5416 26.0767C56.9278 28.1504 57.9825 30.2899 59.897 30.8568C59.9966 30.8861 60.0965 30.9079 60.1956 30.9274C60.0643 32.022 60.0135 33.1249 60.0435 34.227C59.9433 34.2461 59.8427 34.2666 59.7417 34.2937C57.7774 34.8394 56.5296 36.9676 56.9532 39.0463C57.3767 41.125 59.3181 42.3675 61.2818 41.8214C61.3852 41.7935 61.484 41.7582 61.5832 41.7219C61.9795 42.7112 62.4515 43.6685 62.9951 44.5853C62.9136 44.6558 62.8317 44.7293 62.7537 44.808C61.2659 46.3198 61.1529 48.7833 62.5066 50.311C63.8603 51.8387 66.1603 51.8514 67.6492 50.3396C67.7247 50.2619 67.7953 50.18 67.8645 50.0978C68.6818 50.7237 69.5507 51.2794 70.4617 51.7589C70.4229 51.8616 70.3848 51.9657 70.3523 52.0727C69.7385 54.1465 70.7928 56.2859 72.7074 56.8528C74.622 57.4196 76.6721 56.199 77.2859 54.1253C77.3173 54.0194 77.3424 53.9103 77.366 53.8037C78.3911 53.8967 79.4221 53.9034 80.4482 53.8238C80.4617 53.9297 80.4761 54.0356 80.4977 54.1415C80.9234 56.2199 82.8626 57.4641 84.8263 56.9181C86.6561 56.4101 87.8619 54.5308 87.6776 52.5965C87.664 52.4518 87.6426 52.308 87.6137 52.1655C87.5911 52.0572 87.5629 51.9537 87.5322 51.8478C88.4873 51.3746 89.4044 50.8285 90.2756 50.2142C90.3384 50.2979 90.4023 50.3816 90.4729 50.4613C91.8248 51.989 94.1262 52.0017 95.6154 50.4899C97.1047 48.9781 97.2162 46.5136 95.8625 44.9859C95.7941 44.9082 95.7213 44.8369 95.6462 44.7656C96.2709 43.8575 96.8285 42.9049 97.3147 41.9157C97.4082 41.951 97.5046 41.9887 97.6041 42.0184C99.5176 42.5831 101.568 41.3643 102.181 39.2909C102.795 37.2175 101.744 35.0774 99.83 34.5108ZM92.4527 36.4095C90.4824 43.0628 84.4401 47.299 78.2629 46.772C77.4384 46.7019 76.6232 46.5482 75.8298 46.3131C68.8779 44.2538 65.0491 36.4847 67.2778 28.9567C68.563 24.615 71.5817 21.3047 75.2407 19.6733C77.9262 18.4731 80.959 18.1823 83.9 19.0541C90.8509 21.1124 94.68 28.8815 92.4527 36.4095Z" fill="url(#paint5_linear_221_942)"/>
<g opacity="0.3" style="mix-blend-mode:soft-light">
<path d="M84.8283 56.9178C82.8636 57.4638 80.9254 56.2196 80.4997 54.1412C80.4782 54.0353 80.4644 53.9294 80.4503 53.8236C79.4241 53.9031 78.3931 53.8964 77.3681 53.8034C77.3444 53.9093 77.3194 54.0177 77.2879 54.125C76.6741 56.1988 74.6244 57.4194 72.7094 56.8525C70.7945 56.2856 69.7405 54.1462 70.3544 52.0724C70.3868 51.9665 70.425 51.8606 70.4638 51.7586C69.5527 51.2792 68.6839 50.7235 67.8666 50.0975C67.796 50.1797 67.7254 50.2616 67.6512 50.3393C66.1624 51.8511 63.8595 51.838 62.5087 50.3107C61.1578 48.7833 61.2697 46.3195 62.7558 44.8077C62.8338 44.729 62.9157 44.6556 62.9972 44.585C62.4536 43.6683 61.9815 42.711 61.5853 41.7216C61.4861 41.7569 61.3872 41.7922 61.2838 41.8211C59.3191 42.3672 57.3806 41.1243 56.9552 39.046C56.5299 36.9676 57.778 34.8392 59.7438 34.2935C59.8447 34.2663 59.9453 34.2458 60.0456 34.2267C60.0155 33.1246 60.0664 32.0218 60.1977 30.9271C60.0985 30.908 59.9986 30.8861 59.8991 30.8565C57.9845 30.2896 56.9298 28.1498 57.5436 26.0764C58.1575 24.003 60.2076 22.782 62.1222 23.3489C62.2217 23.3786 62.3166 23.4142 62.4119 23.4516C62.8972 22.462 63.4544 21.5094 64.0791 20.6013C64.0049 20.5307 63.9322 20.4601 63.8627 20.3814C62.5122 18.8537 62.6237 16.3892 64.1126 14.8774C65.6015 13.3656 67.9036 13.3783 69.2541 14.906C69.3247 14.985 69.389 15.0687 69.4525 15.1531C70.2801 14.5686 71.15 14.0464 72.055 13.5908C73.4835 15.3945 74.6621 17.4383 75.2403 19.6737C71.5813 21.3048 68.5626 24.6154 67.2774 28.9571C65.0487 36.4851 68.8775 44.2542 75.8294 46.3135C76.6228 46.5486 77.438 46.7024 78.2625 46.7724C80.4863 49.747 83.6183 51.9033 87.6786 52.5966C87.8639 54.5299 86.6578 56.4091 84.8283 56.9178Z" fill="white"/>
</g>
<path d="M95.57 47.2774L95.696 45.4225C95.696 45.4225 95.4564 45.0085 95.3826 44.0184C95.3088 43.0282 95.5372 43.4345 95.6346 43.851C95.6645 43.9656 95.7242 44.0702 95.8076 44.1543C96.0102 44.3699 96.2866 44.1271 96.348 43.8366L96.8305 42.8391C96.8305 42.8391 97.3572 43.5323 96.7183 45.3191C96.5181 45.8786 96.5863 47.2654 96.5863 47.2654L95.57 47.2774Z" fill="url(#paint6_linear_221_942)"/>
<path d="M62.9852 46.5489L62.6403 44.711C62.6403 44.711 63.1366 44.0484 62.9689 43.3266C62.8013 42.6047 62.9139 42.8652 62.7091 43.3089C62.5044 43.7526 62.215 42.9559 61.9926 42.2369C61.7702 41.5179 61.5612 42.5871 61.5831 43.2323C61.605 43.8776 61.6032 44.2609 61.9545 44.7544C62.3057 45.2478 62.1158 46.9076 62.1158 46.9076L62.9852 46.5489Z" fill="url(#paint7_linear_221_942)"/>
<path d="M86.13 98.0701C86.172 97.673 87.1255 97.8181 87.7499 97.9211C88.3743 98.0242 88.6323 98.2949 88.716 98.5371C88.7996 98.7792 88.6849 99.356 88.1209 99.0729C87.6581 98.8403 86.093 98.421 86.13 98.0701Z" fill="#26264F"/>
<path d="M87.3901 96.6066L87.7325 98.1788C87.7325 98.1788 88.1589 98.5163 88.3164 98.3736L88.2705 96.5854L87.3901 96.6066Z" fill="url(#paint8_linear_221_942)"/>
<path d="M84.2937 95.4802L85.7303 96.2264L85.431 96.9585L83.9746 96.4725L84.2937 95.4802Z" fill="url(#paint9_linear_221_942)"/>
<path d="M84.0124 98.3813C84.0124 98.3813 84.9817 98.7036 85.4575 98.1501C85.7636 97.7943 86.0403 97.1738 86.1988 96.776C86.2404 96.6721 86.2408 96.5563 86.2001 96.452C86.1594 96.3478 86.0806 96.2629 85.9796 96.2147C85.675 96.0686 85.2584 95.9052 85.0703 95.9948C84.7551 96.1448 84.9626 97.3009 84.8098 97.5857C84.657 97.8706 83.999 98.0185 84.0124 98.3813Z" fill="#26264F"/>
<path d="M83.4759 72.2431C83.4291 80.6954 84.6808 89.1047 87.1871 97.177C87.3993 97.2971 87.6356 97.368 87.8788 97.3845C88.122 97.4011 88.3659 97.3629 88.5923 97.2726C88.9598 95.4456 89.1899 93.8978 89.3378 92.7471C89.7261 89.7076 89.9171 88.1498 89.6248 86.3059C89.3505 84.5763 89.0279 84.6868 88.7487 82.7761C88.5016 81.0765 88.58 79.7877 88.7074 77.901C88.8237 76.1897 89.0431 74.4869 89.3643 72.8019L83.4759 72.2431Z" fill="url(#paint10_linear_221_942)"/>
<path opacity="0.3" d="M87.4659 95.9303C87.1598 94.6415 87.9717 94.1174 87.9904 92.5095C88.0134 90.5452 86.8118 90.4047 86.5802 88.1784C86.3942 86.3892 87.15 86.2872 87.0991 84.1245C87.0448 81.8255 86.1764 81.3006 86.4578 79.9427C86.6145 79.1873 87.1284 78.1778 88.7652 77.151C88.8908 75.6917 89.091 74.2399 89.3653 72.8012L83.4768 72.2431C83.4301 80.6954 84.6818 89.1047 87.1881 97.177C87.3864 97.2892 87.6061 97.3586 87.833 97.3807C87.9728 97.3939 88.1139 97.3886 88.2523 97.3648C87.9036 96.979 87.6028 96.5056 87.4659 95.9303Z" fill="url(#paint11_linear_221_942)" style="mix-blend-mode:multiply"/>
<path d="M78.7212 71.2875C78.5316 72.5333 78.2754 73.768 77.9538 74.9864C77.034 78.4739 76.1762 79.5526 75.8134 81.8491C75.3898 84.5268 75.9821 86.6973 76.2073 87.5229C77.7438 93.1586 82.8147 96.0778 84.1603 96.7996C84.3511 96.3019 84.5423 95.8043 84.7339 95.3068C84.262 94.577 83.8591 93.8049 83.5302 93.0005C82.813 91.2437 82.8243 90.2384 82.3707 88.5254C81.5511 85.4354 80.7434 85.8102 80.6605 84.2596C80.5295 81.8025 82.5631 80.9518 84.6531 76.4125C85.1142 75.4113 85.5094 74.3811 85.8362 73.3285L78.7212 71.2875Z" fill="url(#paint12_linear_221_942)"/>
<path d="M95.2988 46.5139L96.8166 46.3727C97.3853 47.2996 99.0069 50.2181 98.3969 53.9286C98.2526 54.8079 97.6878 57.72 95.0464 59.888C93.1555 61.4411 91.1435 61.8319 90.2254 61.9515C89.9286 66.301 89.8248 69.0496 89.8629 70.7012C89.8675 70.9003 89.9088 72.572 89.5389 74.6987C89.4259 75.3468 89.3677 75.6744 89.266 75.8488C87.8573 78.2653 80.8877 75.8014 79.025 74.8417C78.5407 74.5921 78.0543 74.2579 77.8732 73.7122C77.641 73.0111 77.9502 72.4107 78.0953 71.8767C78.4518 70.5667 77.7303 69.5117 76.3223 66.829C75.7268 65.6942 74.8655 63.9925 73.8743 61.7923C72.533 62.0867 69.3915 62.5632 66.4572 60.9099C62.1466 58.4824 60.004 52.4239 61.7329 46.133L63.1158 45.8376C63.3315 47.0956 63.7953 48.8026 64.8635 50.5629C65.5115 51.6314 66.0512 52.5213 67.0555 53.0666C68.6322 53.9226 70.1289 53.2636 72.2767 52.8856C75.6615 52.2897 78.4239 52.7853 81.78 53.3871C85.4464 54.0451 86.4073 54.8725 89.1428 54.5456C90.3596 54.4006 91.8841 54.199 93.1965 53.0882C95.7789 50.905 95.3638 47.0444 95.2988 46.5139Z" fill="url(#paint13_linear_221_942)"/>
<path d="M81.1678 50.4377C81.1678 50.4377 80.8854 51.3092 81.1709 51.7278C81.4565 52.1465 82.3947 53.7398 82.7286 53.8376C82.9192 53.893 83.3993 53.9993 83.7756 54.0804C83.9739 54.1232 83.9976 54.402 83.8063 54.4687C83.418 54.6074 82.7371 54.7275 81.5906 54.6375C79.9337 54.5068 78.6429 53.7854 78.0834 53.419C78.0665 53.4079 78.0539 53.3913 78.0477 53.3721C78.0415 53.3528 78.0421 53.332 78.0494 53.3132C78.0568 53.2943 78.0703 53.2785 78.0879 53.2685C78.1055 53.2585 78.1259 53.2547 78.1459 53.258L78.8872 53.3639C79.0364 53.3856 79.1885 53.3741 79.3327 53.3302C79.477 53.2863 79.6097 53.2111 79.7215 53.1099C79.8333 53.0088 79.9214 52.8841 79.9794 52.745C80.0375 52.6058 80.0641 52.4556 80.0573 52.3049L80.0393 51.887L81.1678 50.4377Z" fill="url(#paint14_linear_221_942)"/>
<path d="M80.3624 52.1761C80.2636 52.1129 79.4369 51.9551 79.3526 51.499C79.2375 50.8799 79.8347 50.1764 79.911 50.0617C80.2287 49.582 80.3063 49.5195 80.445 49.444L80.6364 49.3487L80.6586 49.3423C80.7786 49.3116 81.1764 49.3353 81.2551 49.36C81.5068 49.438 81.6854 50.5082 81.4736 51.9798C81.4789 52.037 81.4842 52.0945 81.4888 52.1528C81.5012 52.3042 80.3511 52.2283 80.3624 52.1761Z" fill="url(#paint15_linear_221_942)"/>
<path d="M79.7765 49.1959C79.7282 49.3724 80.1825 49.7667 80.3766 49.9371C80.4368 49.994 80.4873 50.0603 80.5263 50.1334C80.5357 50.1513 80.5428 50.1702 80.5474 50.1899C80.6216 50.4878 80.132 50.7857 80.2086 50.923C80.2643 51.0226 80.5877 50.9255 80.6173 51.0099C80.647 51.0942 80.372 51.2234 80.4034 51.3184C80.4271 51.389 80.5923 51.3413 80.6833 51.456C80.7289 51.5129 80.7102 51.5534 80.749 51.719C80.7684 51.8063 80.7959 51.8916 80.8312 51.9738C80.965 52.2562 81.4045 52.3974 81.5019 52.2965C81.5287 52.2686 81.5104 52.2414 81.5439 52.1429C81.5703 52.0741 81.606 52.0091 81.6498 51.9498C81.7557 51.8041 81.9904 51.7141 82.2308 51.5722C82.6766 51.3088 82.8136 51.0625 82.8556 50.9788C82.8602 50.9693 82.8644 50.9608 82.8679 50.9527C82.875 50.9388 82.8814 50.9245 82.887 50.91C82.9968 50.6226 82.6586 50.0872 82.6586 50.0872C82.3868 49.6636 82.0275 49.3688 81.7373 49.1768C81.3112 49.0602 80.8696 49.0097 80.4281 49.0272C80.1708 49.0367 79.8154 49.0547 79.7765 49.1959Z" fill="#26264F"/>
<path d="M79.5018 50.7052C79.5018 50.7052 79.8262 51.1528 80.3271 50.6756L80.5527 50.7593C80.5527 50.7593 79.9056 51.9594 79.7853 51.9513C79.6649 51.9432 79.3186 51.8394 79.3186 51.8394C79.2566 51.8083 79.2073 51.7565 79.1794 51.6929C79.1515 51.6294 79.1467 51.5581 79.1658 51.4913C79.2385 51.2418 79.4083 50.8817 79.5018 50.7052Z" fill="#26264F"/>
<path d="M80.4289 50.8319C80.5549 50.6879 80.7392 50.8506 80.7222 51.0504C80.7053 51.2502 80.4932 51.4387 80.3093 51.3836C80.1254 51.3286 80.2588 51.0261 80.4289 50.8319Z" fill="url(#paint16_linear_221_942)"/>
<path opacity="0.3" d="M87.427 74.9943C84.9628 75.6791 82.2421 74.2488 81.6565 72.5093C81.2234 71.2234 82.4108 70.1055 81.7158 68.7649C81.0451 67.4737 79.648 67.9368 78.7945 66.6191C77.8641 65.1832 79.1503 64.0544 78.3667 62.1603C77.7776 60.7349 76.2262 59.3834 74.6191 59.2768C72.7091 59.1504 71.8764 60.8602 70.2594 60.3929C69.4148 60.1486 69.4698 59.6322 68.3294 58.7039C66.3502 57.0929 64.9146 57.6139 63.2726 56.4621C62.7904 56.1236 62.2606 55.6188 61.79 54.8331C62.6372 57.5002 64.2665 59.676 66.4596 60.911C69.3932 62.563 72.5369 62.0865 73.8768 61.7935C74.868 63.9936 75.7292 65.6954 76.3247 66.8302C77.7327 69.5129 78.4542 70.5697 78.0977 71.8778C77.9527 72.4112 77.6434 73.0116 77.8757 73.7133C78.0568 74.259 78.5432 74.5933 79.0275 74.8429C80.8901 75.8026 87.8597 78.2668 89.2685 75.8499C89.3701 75.6756 89.4284 75.348 89.5413 74.6999C89.6119 74.2965 89.667 73.9092 89.7104 73.5453C89.1697 74.1461 88.4284 74.7158 87.427 74.9943Z" fill="url(#paint17_linear_221_942)" style="mix-blend-mode:multiply"/>
<path d="M39.0953 62.0945C39.0953 62.0945 31.3576 67.8008 25.8585 64.3455L25.1035 71.4736C25.1035 71.4736 35.9961 74.523 39.1602 63.3928L39.0953 62.0945Z" fill="url(#paint18_linear_221_942)"/>
<path d="M57.8874 75.3744C59.293 75.2487 60.408 73.9579 60.3787 72.4909C60.3579 71.4482 59.7645 70.5968 58.9202 70.2368C58.9087 70.2314 58.8969 70.2267 58.8849 70.2226C58.5355 70.0815 58.1574 70.0261 57.7822 70.061C57.7084 70.0677 57.6371 70.079 57.5648 70.0917C57.42 69.369 57.2194 68.6587 56.9647 67.9671C57.0304 67.9297 57.0946 67.8892 57.1574 67.8457C58.3576 67.0042 58.743 65.342 58.0159 64.133C57.7615 63.705 57.3765 63.3699 56.9174 63.1771C56.3344 62.9348 55.6796 62.9302 55.0932 63.1644C54.891 63.2437 54.6989 63.3468 54.521 63.4715C54.4596 63.5149 54.4021 63.5608 54.3445 63.6081C53.8664 63.0802 53.3448 62.5933 52.7854 62.1524C52.8246 62.0882 52.8638 62.0229 52.8987 61.953C53.5447 60.6823 54.3812 59.2968 53.376 58.6463C53.3658 58.639 53.355 58.6325 53.3438 58.6269C53.3036 58.6032 53.2616 58.5792 53.2196 58.5584C50.3484 57.1556 49.1162 58.3561 48.4392 59.6879C48.4265 59.713 48.4155 59.7381 48.4039 59.7635C48.3831 59.8079 48.3636 59.8528 48.3453 59.8972C47.6593 59.706 46.9586 59.5725 46.2503 59.498C46.2546 59.4243 46.2588 59.3501 46.2574 59.2749C46.2334 58.0748 46.5211 57.3011 45.8511 57.0543C45.7073 56.9957 45.5552 56.96 45.4004 56.9484C45.3781 56.9484 45.3555 56.9456 45.3333 56.9456H45.2048C42.1664 56.9456 41.1406 58.2464 41.1699 59.7077C41.1699 59.7846 41.178 59.8697 41.1851 59.9453C40.8099 60.0511 40.4385 60.1782 40.0728 60.3162C40.0728 60.3162 40.07 60.3162 40.0686 60.3162C39.746 60.4377 39.4294 60.5732 39.1156 60.7183C39.0834 60.6526 39.0499 60.5898 39.0125 60.5259C38.7581 60.0981 38.373 59.7634 37.914 59.5711C37.4397 59.3725 36.9139 59.3324 36.4149 59.4567C36.0925 59.535 35.7879 59.6737 35.5173 59.8655C34.3171 60.7073 33.9317 62.3695 34.6588 63.5767C34.6966 63.6381 34.7372 63.6967 34.7788 63.7532C34.3011 64.2314 33.8554 64.7406 33.4446 65.2774C33.3916 65.3455 33.3387 65.414 33.2882 65.4839C33.2282 65.4461 33.1682 65.4097 33.104 65.3762C33.0564 65.3513 33.0075 65.3291 32.9575 65.3095C31.7531 64.797 30.2985 65.3776 29.6483 66.659C28.9713 67.9918 29.4206 69.5802 30.6532 70.2057C30.716 70.2378 30.7817 70.2643 30.8474 70.2908C30.6207 71.0184 30.4476 71.7616 30.3295 72.5146C30.2589 72.5146 30.1883 72.5146 30.1177 72.523C28.7122 72.6487 27.5968 73.9381 27.6261 75.4065C27.6402 76.1016 27.9084 76.7126 28.3366 77.1471C28.8124 77.6314 29.4838 77.9363 30.2236 77.8707C30.2851 77.8654 30.3479 77.8785 30.4093 77.8785H30.4121C30.4217 77.8785 30.4315 77.84 30.4414 77.8386C30.4414 77.8442 30.4442 77.8315 30.4442 77.8386C30.4442 77.8456 30.4442 77.8329 30.4442 77.8343C30.5888 78.5475 30.787 79.2488 31.0373 79.9321C31.0373 79.9321 31.0373 79.9342 31.0373 79.9356C30.973 79.9731 30.9088 80.0112 30.8459 80.0546C30.5158 80.286 30.2379 80.5842 30.0302 80.9298C29.8225 81.2754 29.6896 81.6608 29.6402 82.0609C29.5654 82.6428 29.6877 83.233 29.9875 83.7372C30.5523 84.6723 32.1205 85.2791 33.3585 84.9999H33.3613C33.6472 84.9999 33.9155 84.901 34.1484 84.7739C34.1735 84.799 34.1971 84.834 34.2225 84.8604C34.2254 84.8645 34.2286 84.8683 34.2321 84.8717C34.4177 85.0517 34.6091 85.2289 34.8071 85.3991C34.817 85.409 34.8268 85.4174 34.8364 85.4255C34.9606 85.5333 35.0877 85.638 35.2176 85.7397C35.2176 85.7397 35.2176 85.7425 35.2148 85.7439C35.177 85.8082 35.1382 85.8752 35.1046 85.942C34.9746 86.1978 34.8828 86.4713 34.8321 86.7538C34.7622 87.146 34.7774 87.5487 34.877 87.9345C34.9485 88.2083 35.0651 88.4682 35.2218 88.7037C35.3154 88.8448 35.4244 88.975 35.5469 89.092C35.7126 89.2578 35.9017 89.3983 36.1082 89.5092C36.5727 89.7464 37.0838 89.7453 37.5752 89.7453H37.578C38.386 89.6041 39.1424 89.0556 39.5624 88.2275C39.5977 88.1594 39.6281 88.0588 39.6574 87.9889C40.0121 88.0881 40.3679 88.2095 40.7266 88.2095C40.7908 88.2095 40.855 88.2095 40.9193 88.3489H40.9221C40.9274 88.3489 40.9345 88.3196 40.9415 88.3196C40.9486 88.3196 40.9556 88.3066 40.9609 88.308C41.01 88.3161 41.0601 88.3165 41.1102 88.3235C41.1523 88.3306 41.1957 88.3334 41.2373 88.3391C41.4078 88.3655 41.5621 88.3846 41.7336 88.4026C41.728 88.4753 41.7093 88.536 41.7093 88.6087V88.6239C41.7093 88.6416 41.728 88.6571 41.729 88.673C41.7301 88.6889 41.7382 88.7002 41.7396 88.7132C41.7408 88.7268 41.7427 88.7404 41.7453 88.7538C41.7495 88.818 41.7587 88.8809 41.7671 88.9423C41.7671 88.9617 41.7724 88.9801 41.7753 88.9995C41.9133 89.8703 42.4639 90.5642 43.2091 90.8795C43.237 90.8922 43.2666 90.9035 43.2973 90.9148C43.3393 90.9303 43.3827 90.9455 43.4272 90.9596C43.4402 90.9652 43.4539 90.9693 43.4678 90.9719C43.7515 91.0527 44.0476 91.0807 44.3414 91.0545C44.4057 91.0489 44.4685 91.0405 44.5299 91.0295C44.5469 91.0266 44.5652 91.0238 44.5818 91.0196C45.8712 90.7782 46.8596 89.5526 46.8317 88.1707C46.8317 88.1191 46.8275 88.069 46.8232 88.0186C46.8232 88.0034 46.8204 87.9864 46.819 87.9712C46.819 87.9628 46.819 87.9543 46.8162 87.9448C47.525 87.7424 48.2171 87.4853 48.8861 87.1756C48.9182 87.2413 48.9517 87.3069 48.9895 87.3698C49.0061 87.3977 49.0248 87.4255 49.0438 87.4534C49.1056 87.5489 49.1746 87.6394 49.2503 87.7242L49.2532 87.727C49.6176 88.1411 50.1186 88.4106 50.6651 88.4863C50.9124 88.5228 51.164 88.5195 51.4102 88.4764C51.797 88.4115 52.164 88.2598 52.4836 88.0327C53.6298 87.23 54.0314 85.6807 53.4367 84.4901C53.4215 84.4594 53.406 84.4287 53.388 84.398C53.37 84.3673 53.3587 84.3451 53.3431 84.32C53.3054 84.2586 53.2651 84.2 53.2231 84.1435C53.7611 83.6038 54.2593 83.0257 54.7138 82.4139C54.7738 82.4517 54.8338 82.488 54.898 82.5198C55.3531 82.7461 55.8681 82.8223 56.3692 82.7376C57.1772 82.6006 57.9322 82.0669 58.354 81.2371C59.0293 79.9042 58.5814 78.3172 57.3488 77.6917C57.2863 77.6596 57.2206 77.6317 57.155 77.6053C57.3816 76.8776 57.5547 76.1344 57.6728 75.3815C57.7451 75.3815 57.8161 75.3786 57.8874 75.3744ZM33.6599 84.2935L33.7061 84.3437C33.6684 84.32 33.6486 84.3017 33.6599 84.2935ZM39.5515 82.7161C35.0796 80.4453 33.4478 74.6808 35.9056 69.8404C37.1618 67.367 39.2416 65.6141 41.5723 64.7927C43.07 64.2664 44.6711 64.1242 46.2232 64.4242C47.4868 64.6664 48.6781 65.1949 49.7057 65.9692C49.7431 65.9957 49.7809 66.025 49.8186 66.0543C49.9831 66.1814 50.1409 66.3155 50.2944 66.4535C50.3573 66.5107 50.4187 66.5679 50.4801 66.6279C50.49 66.6364 50.4995 66.6462 50.5094 66.6558C50.5737 66.7172 50.6365 66.78 50.6979 66.8443C50.7069 66.8525 50.7153 66.8613 50.723 66.8707C50.7816 66.9307 50.8387 66.9908 50.8945 67.0536C50.9086 67.0691 50.9227 67.0843 50.9365 67.1012C50.9923 67.1627 51.0456 67.2241 51.0971 67.2869C51.108 67.2977 51.1179 67.3095 51.1264 67.3222C51.1794 67.3836 51.2295 67.4465 51.2786 67.5103C51.4891 67.7767 51.6835 68.0555 51.8606 68.3451C51.9023 68.4108 51.9415 68.4793 51.9806 68.546C51.9916 68.5643 52.0015 68.5813 52.0113 68.6007C52.0466 68.6593 52.0784 68.7179 52.1091 68.7772C52.1271 68.8079 52.1444 68.84 52.1607 68.8721C52.1899 68.9279 52.2192 68.9837 52.2457 69.0395C52.3518 69.2512 52.4495 69.4676 52.5387 69.6886C52.574 69.7722 52.6058 69.8573 52.6379 69.9427C52.6658 70.0193 52.694 70.0973 52.7205 70.1757C52.7413 70.2329 52.7593 70.2901 52.7777 70.3473C52.79 70.3864 52.8027 70.4256 52.813 70.4644C52.8285 70.5107 52.8412 70.5552 52.8535 70.6C52.8659 70.6448 52.88 70.6907 52.8913 70.7355C52.9079 70.7885 52.922 70.8414 52.9347 70.8958C52.9818 71.08 53.0236 71.2657 53.06 71.4528C53.0798 71.5562 53.0978 71.6579 53.1148 71.7613C53.1317 71.8647 53.1455 71.9593 53.1578 72.0599C53.1578 72.0726 53.1606 72.085 53.1621 72.0991C53.1719 72.1697 53.1801 72.2403 53.1871 72.3126C53.1928 72.3628 53.197 72.4118 53.2012 72.462C53.2055 72.5026 53.2083 72.5428 53.2108 72.5848C53.2164 72.6462 53.2206 72.709 53.2235 72.7719C53.3227 74.5191 52.9651 76.3476 52.0939 78.0602C51.5828 79.0703 50.9126 79.9917 50.1091 80.7891C50.0269 80.87 49.9446 80.9494 49.862 81.0278C49.7794 81.1061 49.6919 81.1813 49.6054 81.2565C49.5578 81.2971 49.5105 81.3387 49.4618 81.3779C49.4226 81.4132 49.382 81.4436 49.3414 81.4757C49.2534 81.5463 49.1641 81.6161 49.0735 81.685C48.3072 82.264 47.4604 82.7278 46.5599 83.0616C46.4148 83.1146 46.2694 83.1651 46.1229 83.2109C45.9764 83.2568 45.8229 83.3017 45.6708 83.3408C45.6679 83.3408 45.6651 83.3408 45.6623 83.3437C45.573 83.3659 45.4823 83.3881 45.3915 83.4079C45.3008 83.4277 45.2059 83.4496 45.1123 83.4665C44.4499 83.5962 43.775 83.6504 43.1004 83.6282C43.0082 83.6253 42.9175 83.6215 42.8268 83.613C42.813 83.613 42.7975 83.613 42.7837 83.6102C41.6572 83.5323 40.5579 83.2282 39.5515 82.7161Z" fill="url(#paint19_linear_221_942)"/>
<path d="M57.6752 75.3814C57.5571 76.1343 57.384 76.8776 57.1574 77.6052C57.223 77.6317 57.2887 77.6596 57.3511 77.6917C58.5837 78.3172 59.0317 79.9042 58.3564 81.237C57.9329 82.0662 57.1796 82.6006 56.3716 82.7375C55.8705 82.8223 55.3555 82.746 54.9004 82.5198C54.8362 82.4876 54.7762 82.4513 54.7161 82.4139C54.2617 83.0257 53.7635 83.6037 53.2255 84.1435C53.2675 84.1996 53.3078 84.2582 53.3455 84.32C53.3611 84.345 53.3762 84.3715 53.3904 84.398C53.4045 84.4244 53.4256 84.458 53.4433 84.4887C54.1217 85.6973 54.5947 87.4449 53.4475 88.249C53.0998 88.4918 52.6434 88.6217 52.1507 88.6549C51.6469 88.6847 51.1417 88.6276 50.6572 88.4862C50.1073 88.327 49.6689 88.0647 49.2488 87.7213V87.6507H49.27C49.1849 87.6507 49.1108 87.512 49.0466 87.4184C49.0272 87.3905 49.0088 87.3796 48.9922 87.3517C48.9544 87.2889 48.9216 87.232 48.8888 87.1664C48.2198 87.4772 47.5278 87.7358 46.8189 87.9398C46.8189 87.9493 46.8189 87.9599 46.8217 87.9684C46.8217 87.9835 46.8454 88.0015 46.8468 88.0167C46.851 88.0545 46.8761 88.0919 46.8761 88.1392V88.1699C46.8761 89.6274 46.6124 91.1403 45.2139 91.1403H45.2097C44.5104 91.1791 43.9354 91.1166 43.4705 90.9712C43.4566 90.9685 43.443 90.9644 43.43 90.9588C43.3855 90.9447 43.3421 90.9295 43.3004 90.914C43.2697 90.9031 43.2404 90.8918 43.2125 90.8787C42.3205 90.513 41.8934 89.8152 41.7791 88.9987C41.7762 88.9793 41.7734 88.961 41.772 88.9415C41.7635 88.8688 41.7565 88.7965 41.7526 88.7223C41.7533 88.7191 41.7533 88.7157 41.7526 88.7125C41.7484 88.675 41.7286 88.6486 41.7272 88.6066C41.7272 88.531 41.7134 88.4738 41.7134 88.3987C41.5722 88.3817 41.3908 88.3595 41.2192 88.3344C41.1772 88.3288 41.1441 88.3217 41.1035 88.3146C41.0533 88.3079 41.0071 88.3316 40.9584 88.3231C40.9471 88.3203 40.9358 88.3482 40.9231 88.3482H40.9203C40.856 88.2087 40.7918 88.2087 40.7275 88.2087C41.2676 87.0923 41.8317 85.9973 42.3075 84.8554C42.4822 84.4368 42.6873 84.021 42.8267 83.5995C42.8267 83.5995 42.8267 83.6034 42.8267 83.602C42.9097 83.6117 42.9931 83.6172 43.0766 83.6182C43.0854 83.6198 43.0942 83.6207 43.1031 83.6211C43.7764 83.6445 44.4502 83.5913 45.1116 83.4626C45.2051 83.4442 45.2972 83.4252 45.3908 83.4043C45.4843 83.3835 45.5722 83.3627 45.6615 83.3401C45.6643 83.3401 45.6671 83.3401 45.67 83.3376C45.822 83.2985 45.9727 83.2552 46.1221 83.2077C46.2686 83.1618 46.414 83.1128 46.5591 83.0584C47.4621 82.7262 48.3111 82.2623 49.0783 81.6818C49.1691 81.6133 49.2548 81.5438 49.3434 81.4725C49.384 81.4403 49.4232 81.4082 49.461 81.3747C49.5097 81.3355 49.557 81.2938 49.6046 81.2533C49.6911 81.1781 49.7762 81.1025 49.8613 81.0245C49.9463 80.9465 50.0275 80.8667 50.1083 80.7859C50.9118 79.9884 51.582 79.0671 52.0931 78.057C52.9625 76.3443 53.3201 74.5159 53.2227 72.7686C53.2199 72.7058 53.2156 72.643 53.21 72.5816C53.2075 72.5396 53.2047 72.4993 53.2004 72.4587C53.1962 72.4086 53.192 72.3595 53.1863 72.3094C53.1793 72.2388 53.1712 72.1682 53.1613 72.0959C53.1613 72.0817 53.1584 72.0694 53.157 72.0567C53.1447 71.9561 53.1306 71.8572 53.114 71.7581C53.0974 71.6589 53.0787 71.553 53.0593 71.4496C53.023 71.2613 52.9812 71.0756 52.9339 70.8925C52.9212 70.8396 52.9071 70.7867 52.8905 70.7323C52.8792 70.6875 52.8669 70.6426 52.8528 70.5968C52.8386 70.5509 52.8277 70.5074 52.8122 70.4612C52.8012 70.4224 52.7885 70.3832 52.7769 70.344C52.7585 70.2868 52.7416 70.2297 52.7197 70.1725C52.6932 70.0941 52.665 70.0161 52.6371 69.9395C52.605 69.8541 52.5728 69.769 52.5379 69.6854C52.449 69.4649 52.3513 69.2485 52.2449 69.0362C52.2185 68.9805 52.1892 68.9247 52.1599 68.8689C52.1433 68.8368 52.1246 68.8047 52.1083 68.774C52.0776 68.7139 52.0455 68.6554 52.0106 68.5975C52.0007 68.5791 51.9908 68.5622 51.9798 68.5428C51.9407 68.476 51.9015 68.4076 51.8598 68.3419C51.6827 68.0522 51.4884 67.7734 51.2778 67.5071C51.2287 67.4432 51.1786 67.3804 51.1256 67.319C51.1171 67.3063 51.1073 67.2944 51.0963 67.2837C51.0448 67.2208 50.9904 67.1594 50.9357 67.098C50.922 67.0811 50.9078 67.0659 50.8937 67.0504C50.838 66.9875 50.7808 66.9275 50.7222 66.8675C50.7145 66.8581 50.7061 66.8492 50.6971 66.841C50.6357 66.7768 50.5729 66.714 50.5086 66.6525C50.4987 66.643 50.4892 66.6331 50.4793 66.6247C50.4179 66.5646 50.3565 66.5075 50.2937 66.4503C50.1401 66.3123 49.9823 66.1781 49.8178 66.0511C49.7801 66.0218 49.7423 65.9925 49.7049 65.966C49.6766 65.9438 49.6502 65.9226 49.6223 65.9032C49.7144 65.7359 49.8065 65.5668 49.8987 65.3995C50.9341 63.5054 51.9856 61.6206 53.0533 59.7451C53.1781 60.1041 53.2286 60.4848 53.2014 60.864C53.1743 61.2432 53.0702 61.6129 52.8955 61.9505C52.8602 62.0211 52.8213 62.0857 52.7822 62.1499C53.3416 62.5908 53.8631 63.0777 54.3413 63.6056C54.3985 63.5583 54.456 63.5124 54.5178 63.469C54.6851 63.3518 54.8623 63.2318 55.0472 63.1199C56.1835 62.4277 57.6113 61.9992 58.996 63.8403C59.8432 64.9667 58.3568 67.0016 57.1549 67.8431C57.0921 67.8867 57.0278 67.9272 56.9622 67.9646C57.2168 68.6562 57.4174 69.3665 57.5622 70.0892C57.6346 70.0765 57.7059 70.0641 57.7797 70.0585C58.1549 70.0235 58.533 70.079 58.8824 70.2201C58.8944 70.2242 58.9062 70.2289 58.9177 70.2342C59.762 70.5943 60.3554 71.4457 60.3762 72.4884C60.4055 73.9554 59.2904 75.2462 57.8848 75.3719C57.816 75.3786 57.7451 75.3814 57.6752 75.3814Z" fill="url(#paint20_linear_221_942)"/>
<path d="M59.212 75.5237C60.6175 75.3995 61.733 74.1086 61.7023 72.6416C61.6715 71.1746 60.5102 70.086 59.1061 70.2117C59.0438 70.2165 58.9818 70.2248 58.9204 70.2367C58.9091 70.2367 58.8996 70.241 58.8883 70.2424C58.8883 70.2353 58.8855 70.2297 58.8841 70.2226C58.7387 69.5065 58.5391 68.8025 58.2868 68.1167C58.3525 68.079 58.4167 68.0398 58.4795 67.9964C59.6797 67.1549 60.0651 65.4927 59.3376 64.2837C59.2414 64.1239 59.1267 63.9759 58.996 63.8428C58.4527 63.2858 57.6797 63.0486 56.9134 63.1771C56.5273 63.2438 56.1611 63.3959 55.8414 63.6222C55.7799 63.6642 55.7228 63.7115 55.6649 63.7592C55.4806 63.5552 55.2879 63.3557 55.0899 63.1644C55.0758 63.1492 55.0606 63.1351 55.0465 63.1224C54.7478 62.8351 54.4347 62.562 54.1072 62.3031C54.1464 62.2389 54.1855 62.1736 54.2201 62.1037C54.8678 60.8294 54.4856 59.3204 53.373 58.6445C53.3628 58.6372 53.352 58.6307 53.3409 58.6251C53.3006 58.6014 53.2586 58.5774 53.2166 58.5566C51.9858 57.9315 50.4376 58.5051 49.7609 59.8379C49.7256 59.9085 49.6967 59.9791 49.6674 60.0472C49.2505 59.9306 48.8279 59.8356 48.4012 59.7627C48.1249 59.7151 47.8485 59.6759 47.5725 59.648C47.5763 59.5742 47.5806 59.4987 47.5792 59.4249C47.5555 58.2721 46.8379 57.3325 45.8496 57.0536C45.7045 57.0102 45.5538 56.9601 45.3988 56.9477C45.3766 56.9477 45.354 56.9449 45.3317 56.9449H45.3247C45.2844 56.9449 45.2438 56.9647 45.2032 56.9647C45.1309 56.9647 45.0568 56.977 44.983 56.9841C43.5788 57.1083 42.4634 58.4048 42.4927 59.8718C42.4927 59.9488 42.4998 60.0268 42.5082 60.1005C41.7994 60.3034 41.1073 60.561 40.4384 60.8711C40.4062 60.8054 40.3727 60.7412 40.3349 60.6787C40.2585 60.5515 40.1702 60.4318 40.0713 60.3211L40.067 60.3169C39.5213 59.7031 38.713 59.4345 37.9121 59.5718C37.6026 59.6233 37.3054 59.7316 37.0353 59.8912C36.97 59.929 36.9043 59.971 36.8401 60.0155C35.64 60.8587 35.2545 62.5195 35.9816 63.7285C36.0194 63.7895 36.0596 63.8485 36.1017 63.905C35.5628 64.4443 35.0641 65.0224 34.6096 65.6346C34.551 65.5993 34.4896 65.5619 34.4268 65.5287C34.1212 65.3737 33.7851 65.2885 33.4427 65.2791C33.2796 65.2722 33.1163 65.283 32.9555 65.3112C32.1476 65.4478 31.3911 65.9837 30.9707 66.8114C30.2941 68.1446 30.7434 69.7327 31.9743 70.3582C32.0385 70.3903 32.1042 70.4168 32.1698 70.4432C31.9432 71.1709 31.7701 71.9141 31.652 72.667C31.5814 72.667 31.5108 72.667 31.4402 72.6755C30.036 72.7997 28.921 74.0906 28.9503 75.559C28.9711 76.6003 29.5616 77.4503 30.406 77.8103C30.406 77.8103 30.406 77.8389 30.4088 77.8389C30.4211 77.8445 30.4324 77.8802 30.4441 77.8802C30.7805 78.0196 31.15 78.0496 31.5454 78.015C31.6182 78.0044 31.6903 77.9896 31.7614 77.9706C31.9075 78.6909 32.1087 79.3989 32.3632 80.0884C32.299 80.1262 32.2348 80.1619 32.1719 80.2049C30.9718 81.0482 30.5835 82.6779 31.3135 83.8869C31.7671 84.6391 32.5461 84.9974 33.3608 84.9974H33.3636C33.6513 84.9974 33.9414 84.9666 34.2249 84.8579C34.2282 84.8576 34.2314 84.8567 34.2344 84.8551C34.4369 84.7817 34.6296 84.6838 34.8083 84.5635C34.8708 84.5201 34.9283 84.4795 34.9848 84.4322C35.4624 84.9615 35.9838 85.4494 36.5436 85.8908C36.5033 85.955 36.4656 86.0249 36.4306 86.093C35.7536 87.4262 36.2033 89.0143 37.4342 89.6398C37.4804 89.6634 37.5291 89.6856 37.5753 89.7068C37.5753 89.7068 37.5753 89.7068 37.5782 89.7068C38.7825 90.219 40.2368 89.6384 40.8874 88.357C40.8997 88.332 40.9124 88.3069 40.9227 88.2818C40.9435 88.237 40.9629 88.1922 40.9813 88.1477C41.6666 88.3396 42.3669 88.4732 43.0748 88.5469C43.0705 88.6221 43.0677 88.6962 43.0691 88.7714C43.0903 89.8141 43.6833 90.6348 44.5305 90.9952L44.5824 91.0164C44.7813 91.0955 44.9934 91.1367 45.2075 91.1378H45.2117C45.3596 91.2772 45.5118 91.1851 45.6667 91.1713C45.7532 91.1629 45.8383 91.1516 45.9237 91.136C47.1446 90.9003 48.0769 89.7905 48.1407 88.4954C48.1436 88.4379 48.1302 88.3793 48.1302 88.3189V88.0859C48.5087 87.9862 48.8811 87.8645 49.2456 87.7217C49.2456 87.7217 49.2495 87.6864 49.2509 87.6864C49.2523 87.6864 49.2622 87.7891 49.2678 87.6493C49.5855 87.6493 49.8986 87.4322 50.2099 87.2886C50.242 87.3542 50.2756 87.4382 50.313 87.5003C50.5664 87.9307 50.9508 88.2687 51.4101 88.465C51.6439 88.5664 51.893 88.6282 52.1471 88.6479C52.7378 88.6887 53.3244 88.5228 53.8061 88.1784C54.1175 87.9603 54.3817 87.6815 54.5826 87.3588C55.0768 86.5784 55.1802 85.5921 54.8145 84.7577C54.7706 84.6578 54.7203 84.5609 54.6638 84.4675C54.6285 84.4061 54.5855 84.3475 54.5452 84.291C54.5562 84.2797 54.5689 84.2674 54.5784 84.2557C55.0438 83.7879 55.4784 83.2905 55.8795 82.7665C55.9324 82.6998 55.9854 82.6299 56.0359 82.5614C56.0959 82.5992 56.1559 82.6356 56.2201 82.6673C56.2678 82.6922 56.3167 82.7146 56.3666 82.7344C57.571 83.2466 59.0238 82.6673 59.6744 81.3846C60.3514 80.0517 59.902 78.4647 58.6709 77.8393C58.6066 77.8057 58.5424 77.7792 58.4767 77.7528C58.7031 77.0251 58.8758 76.2819 58.9935 75.529C59.0697 75.5322 59.141 75.5308 59.212 75.5237ZM43.1009 83.6288C43.0948 83.6287 43.0887 83.6278 43.0829 83.626C43.0815 83.6265 43.08 83.6265 43.0787 83.626C42.3122 83.4768 41.5704 83.2212 40.8747 82.8668C36.4042 80.5971 34.7727 74.8326 37.2305 69.9921C38.294 67.8972 39.9484 66.3186 41.8475 65.3861C43.2241 64.7091 44.7257 64.3727 46.2244 64.4246C47.4613 64.4638 48.6743 64.7751 49.7772 65.3363C49.8192 65.3571 49.8612 65.3794 49.9014 65.402C54.2784 67.7133 55.8573 73.4146 53.4217 78.2106C51.8905 81.2254 49.1337 83.1724 46.1916 83.6624C45.1676 83.8359 44.1209 83.8245 43.1009 83.6288Z" fill="url(#paint21_linear_221_942)"/>
<g opacity="0.3" style="mix-blend-mode:soft-light">
<path d="M54.5877 87.3641C54.3867 87.6872 54.1226 87.9664 53.8111 88.1848C53.3296 88.5297 52.7431 88.6965 52.1521 88.6564C51.6519 88.6861 51.1503 88.629 50.6696 88.4877C50.1232 88.412 49.6221 88.1425 49.2577 87.7284C48.8906 87.8696 48.5206 87.9893 48.1454 88.0969C48.1521 88.1707 48.1592 88.2462 48.1606 88.3228C48.1606 88.3828 48.1606 88.4414 48.1578 88.4993C48.102 89.8015 47.1528 90.9042 45.9276 91.14C45.8422 91.1566 45.7572 91.1678 45.6707 91.1753C45.5157 91.189 45.3636 91.2812 45.2157 91.1417H45.2114C44.5122 91.1806 43.9372 91.1181 43.4723 90.9727C43.4584 90.97 43.4448 90.9658 43.4317 90.9603C43.3872 90.9462 43.3438 90.931 43.3022 90.9155C43.2715 90.9045 43.2422 90.8932 43.2143 90.8802C42.3223 90.5145 41.8952 89.8166 41.7808 89.0002C41.778 88.9808 41.7752 88.9624 41.7738 88.943C41.7653 88.8703 41.7409 88.7979 41.7385 88.7238C41.7356 88.686 41.7155 88.6596 41.7155 88.6246V88.3945C41.5743 88.3765 41.3929 88.3592 41.2214 88.3316C41.1794 88.326 41.1465 88.3218 41.1049 88.3151C41.0547 88.308 41.0096 88.2995 40.9609 88.2911C40.9554 88.2893 40.9497 88.2884 40.9439 88.2882C40.9377 88.288 40.9316 88.2872 40.9256 88.2858C40.9143 88.3108 40.9026 88.3359 40.8903 88.3609C40.2397 89.6423 38.7858 90.2229 37.5814 89.7107C37.0808 89.799 36.5651 89.7226 36.1116 89.493C35.9056 89.3883 35.7165 89.2532 35.5507 89.0923C35.4282 88.9754 35.3192 88.8452 35.2256 88.704C35.0675 88.4693 34.9508 88.2091 34.8808 87.9349C34.7812 87.5491 34.766 87.1464 34.8359 86.7542C34.8873 86.4734 34.9791 86.2016 35.1084 85.9473C35.1437 85.8791 35.1822 85.8135 35.2214 85.7478L35.2186 85.745C35.0901 85.6444 34.9644 85.5371 34.8402 85.4273C34.8306 85.4192 34.8208 85.4107 34.8109 85.4008C34.6129 85.2243 34.4226 85.0394 34.2359 84.8594C34.2329 84.8609 34.2297 84.8619 34.2263 84.8622C33.944 84.9709 33.6528 85.0016 33.3651 85.0016H33.3623C32.1243 85.2808 30.5554 84.6737 29.9913 83.7387C29.6914 83.2344 29.5691 82.6442 29.644 82.0623C29.6919 81.6597 29.8241 81.2717 30.0318 80.9235C30.2395 80.5753 30.5182 80.2746 30.8497 80.0412C30.9126 79.9981 30.9754 79.966 31.0396 79.9296C30.7891 79.2558 30.5903 78.5639 30.4452 77.8598C30.4445 77.8681 30.4445 77.8765 30.4452 77.8848C30.4343 77.8855 30.4234 77.8841 30.4131 77.8806C30.4131 77.8806 30.4131 77.8848 30.4103 77.8848H30.4075C30.3474 77.8848 30.2846 77.8707 30.2246 77.8763C29.8773 77.9067 29.5277 77.8591 29.2012 77.737C28.8747 77.6148 28.5796 77.4212 28.3376 77.1704C27.9091 76.7352 27.6411 76.1164 27.627 75.4214C27.5977 73.953 28.7131 72.6589 30.1187 72.5333C30.1893 72.5262 30.2599 72.5227 30.3305 72.5227C30.4485 71.7691 30.6216 71.0251 30.8483 70.2968C30.7827 70.2703 30.717 70.2431 30.6542 70.211C29.4216 69.5859 28.9722 67.9971 29.6493 66.6643C30.2994 65.3829 31.7541 64.8023 32.9584 65.3144C33.1192 65.2864 33.2825 65.2756 33.4456 65.2823C33.8565 64.7456 34.3022 64.2365 34.7798 63.7582C34.7382 63.701 34.6976 63.642 34.6598 63.5817C33.9327 62.3745 34.3167 60.7123 35.5183 59.8704C35.7889 59.6786 36.0935 59.5399 36.4159 59.4617C36.6166 59.597 36.824 59.7416 37.0382 59.8955C38.6421 61.0582 40.5207 62.7402 41.5757 64.7949C41.6735 64.9886 41.7671 65.187 41.8507 65.3879C39.9527 66.3204 38.2973 67.899 37.2337 69.9939C34.7759 74.8343 36.4074 80.5989 40.8779 82.8686C41.5736 83.223 42.3155 83.4786 43.0819 83.6278C43.0907 83.6283 43.0996 83.6283 43.1084 83.6278C43.7817 83.6513 44.4556 83.598 45.1168 83.469C45.2104 83.4506 45.3025 83.4312 45.3961 83.4104C45.4896 83.3896 45.5775 83.3684 45.6668 83.3461C45.8359 83.4577 46.0117 83.5653 46.1931 83.6638C47.9615 84.6409 50.33 85.0277 53.4426 84.493C53.4433 84.4933 53.444 84.4934 53.4447 84.4934C53.4454 84.4934 53.4462 84.4933 53.4468 84.493C53.8167 84.4301 54.1968 84.3534 54.587 84.2628C54.5922 84.2626 54.5975 84.2616 54.6025 84.26C54.6891 84.4223 54.7629 84.5912 54.8231 84.7651C55.1238 85.6543 54.9855 86.535 54.5877 87.3641Z" fill="white"/>
</g>
<path d="M9.96594 96.6609C9.90553 96.6402 9.84126 96.6332 9.7778 96.6404C9.69409 96.653 9.61551 96.6885 9.55084 96.7431C9.51025 96.7742 9.17633 97.0379 9.18021 97.399C9.18339 97.6884 9.39906 97.7064 9.61367 98.1882C9.78804 98.5804 9.68815 98.6651 9.84699 98.8674C10.1121 99.2052 10.6941 99.3541 10.9441 99.1321C11.0612 99.0283 11.0768 98.8695 11.0807 98.8275C11.1191 98.4336 10.7093 98.3213 10.6193 97.8787C10.5293 97.436 10.877 97.2285 10.71 96.9764C10.6423 96.8751 10.4167 96.8045 9.96594 96.6609Z" fill="url(#paint22_linear_221_942)"/>
<path d="M10.2908 95.9818C9.91916 96.3238 9.7575 96.7039 9.87433 96.8995C9.91506 96.9577 9.96998 97.0046 10.0339 97.0358C10.2831 97.1724 10.5485 97.0711 10.5986 97.052L11.0776 96.3792L10.2908 95.9818Z" fill="url(#paint23_linear_221_942)"/>
<path d="M0.847981 98.5889C0.789479 98.5682 0.7265 98.5637 0.66564 98.5757C0.604781 98.5878 0.548281 98.616 0.502061 98.6574C0.355574 98.7876 0.142727 98.9913 0.0297728 99.1678C-0.15413 99.4544 0.545124 99.5914 1.26838 99.7421C1.99164 99.8928 2.88679 100.13 2.85997 99.9115C2.83314 99.6927 2.62594 99.3619 1.92669 99.0068C1.74137 98.9126 1.15437 98.6965 0.847981 98.5889Z" fill="url(#paint24_linear_221_942)"/>
<path d="M0.92018 97.7886L0.617676 98.7459C0.617676 98.7459 0.782165 99.0573 1.21774 98.8734L1.72215 98.04L0.92018 97.7886Z" fill="url(#paint25_linear_221_942)"/>
<path d="M27.9015 56.5884C27.9015 56.5908 26.472 58.6484 25.1021 59.0515L28.7141 59.6385C28.7141 59.6385 28.2425 59.4797 28.2425 58.8178C28.2425 58.4052 28.5641 57.4137 28.5641 57.4137L27.9015 56.5884Z" fill="url(#paint26_linear_221_942)"/>
<path d="M20.1512 77.6609C20.6674 79.6651 21.0741 81.6959 21.3697 83.7442C22.0146 88.2052 21.6196 89.1639 21.4114 89.5822C20.6377 91.1353 19.3567 91.4378 16.1287 93.3651C14.3416 94.4306 12.6195 95.6017 10.9716 96.8719C10.5077 96.7983 10.0843 96.5641 9.77539 96.2101C10.0712 94.7759 10.6225 93.8243 11.0489 93.2359C11.5562 92.5387 12.0062 92.1949 14.1947 90.4512C15.7478 89.213 16.5265 88.5924 16.5671 88.5172C17.8971 86.0464 13.6066 82.7686 14.5816 80.1999C14.9466 79.2377 16.1552 78.0965 20.1512 77.6609Z" fill="url(#paint27_linear_221_942)"/>
<path opacity="0.3" d="M11.0487 93.2355C11.5559 92.5384 12.006 92.1946 14.1944 90.4509C15.7475 89.2126 16.5262 88.5921 16.5668 88.5169C17.8968 86.046 13.6064 82.7682 14.5813 80.1996C14.9463 79.2377 16.1549 78.0965 20.151 77.6609C20.337 78.3817 20.552 79.2755 20.7673 80.315C19.2996 81.0697 18.8457 81.8208 18.7585 82.4329C18.5509 83.8865 20.3575 84.8999 19.9191 86.1459C19.5629 87.1572 18.1813 87.0354 17.9071 88.0799C17.6416 89.0926 18.8195 89.6701 18.6032 90.4781C18.2502 91.7978 14.8895 91.0633 13.1108 92.7989C12.5386 93.357 11.9735 94.328 11.9322 96.149C11.5704 96.4145 11.2488 96.658 10.9707 96.873C10.5067 96.7994 10.0833 96.5651 9.77441 96.2112C10.0709 94.7756 10.6205 93.824 11.0487 93.2355Z" fill="url(#paint28_linear_221_942)" style="mix-blend-mode:multiply"/>
<path d="M20.8862 78.1768C19.6946 78.9932 18.0359 80.176 16.1288 81.6967C13.3833 83.8852 10.4306 86.2399 7.48075 89.7679C5.87963 91.6825 3.79105 94.5265 1.88495 98.3902C1.63843 98.4425 1.38275 98.4324 1.14111 98.3609C0.899477 98.2893 0.679541 98.1585 0.501269 97.9804C0.155702 95.1336 0.663287 93.135 1.15887 91.8692C2.26229 89.0521 3.53408 89.2837 5.72326 85.1778C6.31627 84.0652 6.98763 82.6137 8.41544 80.104C8.96115 79.1443 9.37696 78.4528 10.055 77.6738C10.9284 76.6752 11.964 75.8312 13.1182 75.1771L20.8862 78.1768Z" fill="url(#paint29_linear_221_942)"/>
<path d="M29.1432 55.8608C29.2572 55.4863 28.9893 54.923 28.5481 54.7599C28.2205 54.6392 27.9127 54.7814 27.69 54.8852C27.5866 54.9332 26.8619 55.2802 26.8248 55.8891C26.8132 56.0829 26.8954 56.3155 27.0204 56.4796C27.0853 56.5643 27.1919 56.6621 27.4175 56.8418C27.618 57.0013 27.6063 56.9974 27.667 57.043C27.8121 57.1528 28.0818 57.33 28.5283 57.4951C28.5151 57.362 28.5136 57.2279 28.5237 57.0945C28.537 56.9209 28.5726 56.7497 28.6296 56.5852C28.7888 56.1475 29.0543 56.1535 29.1432 55.8608Z" fill="url(#paint30_linear_221_942)"/>
<path d="M27.9813 57.3649C27.9813 57.3649 28.5274 57.8146 29.204 57.5287C29.8101 57.2724 29.4158 55.8506 28.9185 55.6932C28.7522 55.6406 28.4733 55.6932 28.2792 55.827C28.1645 55.9068 28.1401 55.9745 27.9502 56.1013C27.7737 56.2184 27.713 56.216 27.6721 56.2852C27.6205 56.3716 27.6195 56.54 27.8839 56.9043C27.724 56.8256 27.5662 56.8291 27.4818 56.9117C27.4539 56.9423 27.4349 56.9801 27.4271 57.0208C27.3943 57.21 27.6096 57.3625 27.9813 57.3649Z" fill="url(#paint31_linear_221_942)"/>
<path d="M42.9185 58.1132L43.7681 57.2399C43.7681 57.2399 44.827 56.7225 45.6036 57.1093C46.3801 57.4962 45.7017 57.4426 45.3046 57.4952C44.9075 57.5477 44.3103 57.9053 43.9255 58.1132C43.5408 58.3211 43.1281 58.5989 43.1281 58.5989L42.9185 58.1132Z" fill="url(#paint32_linear_221_942)"/>
<path d="M42.8425 57.6237L43.6678 58.6551C42.9145 61.2227 41.7063 62.6343 40.7281 63.4514C37.6014 66.0635 34.3558 64.6713 30.2051 67.822C28.9241 68.7942 28.1169 69.7744 27.4448 70.5901C24.4148 74.2682 24.6047 76.6487 21.9944 78.1439C20.5571 78.9681 19.1741 79.0063 18.2691 79.0313C15.687 79.1019 12.172 78.1019 11.62 76.0391C11.5448 75.7513 11.5259 75.4516 11.5642 75.1566C12.0697 70.6964 17.3499 64.5796 19.4805 62.1864C20.9665 60.5168 22.2475 59.168 24.2249 58.833C25.0534 58.6918 25.7226 58.7826 27.0615 58.9619C29.497 59.2877 30.2552 59.833 32.3915 60.2827C33.8334 60.5859 35.444 60.9248 37.2273 60.6544C38.2823 60.4995 40.5051 59.9601 42.8425 57.6237Z" fill="url(#paint33_linear_221_942)"/>
<path opacity="0.3" d="M17.1344 76.5523C17.9431 74.8463 17.0285 73.5668 18.0627 72.2975C19.3105 70.7631 21.169 71.989 23.0136 70.5181C25.1573 68.8107 24.2766 65.8647 26.1078 65.1807C27.2586 64.7507 27.7789 65.8492 29.5116 65.5672C31.3863 65.2626 31.4234 63.8729 33.3023 63.2467C35.3443 62.5672 36.3026 63.8764 39.0266 63.7108C39.6204 63.6722 40.2085 63.5706 40.7809 63.4076C40.7636 63.4225 40.7456 63.4383 40.7286 63.4528C37.6019 66.0649 34.3563 64.6727 30.2056 67.8234C28.9246 68.7955 28.1174 69.7758 27.4453 70.5915C24.4153 74.2696 24.6052 76.6501 21.9949 78.1453C20.5576 78.9695 19.1746 79.0076 18.2696 79.0327C17.1855 79.0548 16.104 78.9179 15.0596 78.6264C16.2057 77.9833 16.8089 77.2388 17.1344 76.5523Z" fill="url(#paint34_linear_221_942)" style="mix-blend-mode:multiply"/>
<defs>
<linearGradient id="paint0_linear_221_942" x1="157.359" y1="67.6018" x2="32.4386" y2="34.944" gradientUnits="userSpaceOnUse">
<stop offset="0.1" stop-color="#311944"/>
<stop offset="0.27" stop-color="#371B47"/>
<stop offset="0.48" stop-color="#462150"/>
<stop offset="0.51" stop-color="#4A2252"/>
<stop offset="0.68" stop-color="#5C295C"/>
<stop offset="1" stop-color="#893976"/>
</linearGradient>
<linearGradient id="paint1_linear_221_942" x1="151.317" y1="65.9267" x2="26.3943" y2="33.2683" gradientUnits="userSpaceOnUse">
<stop offset="0.1" stop-color="#311944"/>
<stop offset="0.27" stop-color="#371B47"/>
<stop offset="0.48" stop-color="#462150"/>
<stop offset="0.72" stop-color="#612A5F"/>
<stop offset="0.97" stop-color="#853774"/>
<stop offset="1" stop-color="#893976"/>
</linearGradient>
<linearGradient id="paint2_linear_221_942" x1="-13.1529" y1="13.5629" x2="79.974" y2="55.3245" gradientUnits="userSpaceOnUse">
<stop stop-color="#AA80F9"/>
<stop offset="1" stop-color="#6165D7"/>
</linearGradient>
<linearGradient id="paint3_linear_221_942" x1="194.965" y1="57.6495" x2="63.3844" y2="29.3377" gradientUnits="userSpaceOnUse">
<stop offset="0.1" stop-color="#311944"/>
<stop offset="0.27" stop-color="#371B47"/>
<stop offset="0.48" stop-color="#462150"/>
<stop offset="0.72" stop-color="#612A5F"/>
<stop offset="0.97" stop-color="#853774"/>
<stop offset="1" stop-color="#893976"/>
</linearGradient>
<linearGradient id="paint4_linear_221_942" x1="194.996" y1="57.4903" x2="63.4195" y2="29.1789" gradientUnits="userSpaceOnUse">
<stop offset="0.1" stop-color="#311944"/>
<stop offset="0.27" stop-color="#371B47"/>
<stop offset="0.48" stop-color="#462150"/>
<stop offset="0.72" stop-color="#612A5F"/>
<stop offset="0.97" stop-color="#853774"/>
<stop offset="1" stop-color="#893976"/>
</linearGradient>
<linearGradient id="paint5_linear_221_942" x1="62.3224" y1="25.6932" x2="161.21" y2="64.937" gradientUnits="userSpaceOnUse">
<stop stop-color="#AA80F9"/>
<stop offset="1" stop-color="#6165D7"/>
</linearGradient>
<linearGradient id="paint6_linear_221_942" x1="96.4768" y1="46.8488" x2="97.1463" y2="56.4083" gradientUnits="userSpaceOnUse">
<stop stop-color="#FFC444"/>
<stop offset="1" stop-color="#F36F56"/>
</linearGradient>
<linearGradient id="paint7_linear_221_942" x1="62.6954" y1="49.1962" x2="63.3789" y2="58.9567" gradientUnits="userSpaceOnUse">
<stop stop-color="#FFC444"/>
<stop offset="1" stop-color="#F36F56"/>
</linearGradient>
<linearGradient id="paint8_linear_221_942" x1="87.0268" y1="94.2365" x2="88.6537" y2="100.497" gradientUnits="userSpaceOnUse">
<stop stop-color="#FFC444"/>
<stop offset="1" stop-color="#F36F56"/>
</linearGradient>
<linearGradient id="paint9_linear_221_942" x1="84.3308" y1="94.9587" x2="85.9457" y2="101.173" gradientUnits="userSpaceOnUse">
<stop stop-color="#FFC444"/>
<stop offset="1" stop-color="#F36F56"/>
</linearGradient>
<linearGradient id="paint10_linear_221_942" x1="92.9176" y1="91.4972" x2="84.0298" y2="79.9418" gradientUnits="userSpaceOnUse">
<stop stop-color="#444B8C"/>
<stop offset="1" stop-color="#3E4177"/>
</linearGradient>
<linearGradient id="paint11_linear_221_942" x1="92.9172" y1="91.4972" x2="84.0294" y2="79.9418" gradientUnits="userSpaceOnUse">
<stop stop-color="#444B8C"/>
<stop offset="1" stop-color="#3E4177"/>
</linearGradient>
<linearGradient id="paint12_linear_221_942" x1="81.217" y1="84.4459" x2="67.1559" y2="80.7935" gradientUnits="userSpaceOnUse">
<stop stop-color="#444B8C"/>
<stop offset="1" stop-color="#3E4177"/>
</linearGradient>
<linearGradient id="paint13_linear_221_942" x1="77.4821" y1="39.8843" x2="84.0744" y2="73.0805" gradientUnits="userSpaceOnUse">
<stop stop-color="#FF9085"/>
<stop offset="1" stop-color="#FB6FBB"/>
</linearGradient>
<linearGradient id="paint14_linear_221_942" x1="80.658" y1="52.7354" x2="81.93" y2="57.575" gradientUnits="userSpaceOnUse">
<stop stop-color="#FFC444"/>
<stop offset="1" stop-color="#F36F56"/>
</linearGradient>
<linearGradient id="paint15_linear_221_942" x1="96.6977" y1="112.877" x2="97.9697" y2="117.717" gradientUnits="userSpaceOnUse">
<stop stop-color="#FFC444"/>
<stop offset="1" stop-color="#F36F56"/>
</linearGradient>
<linearGradient id="paint16_linear_221_942" x1="129.259" y1="143.916" x2="132.921" y2="150.86" gradientUnits="userSpaceOnUse">
<stop stop-color="#FFC444"/>
<stop offset="1" stop-color="#F36F56"/>
</linearGradient>
<linearGradient id="paint17_linear_221_942" x1="71.1099" y1="41.1498" x2="77.7022" y2="74.3461" gradientUnits="userSpaceOnUse">
<stop stop-color="#FF9085"/>
<stop offset="1" stop-color="#FB6FBB"/>
</linearGradient>
<linearGradient id="paint18_linear_221_942" x1="42.4552" y1="70.4589" x2="30.3997" y2="66.7559" gradientUnits="userSpaceOnUse">
<stop stop-color="#FFC444"/>
<stop offset="1" stop-color="#F36F56"/>
</linearGradient>
<linearGradient id="paint19_linear_221_942" x1="107.867" y1="125.659" x2="46.1733" y2="75.2711" gradientUnits="userSpaceOnUse">
<stop offset="0.1" stop-color="#311944"/>
<stop offset="0.27" stop-color="#371B47"/>
<stop offset="0.48" stop-color="#462150"/>
<stop offset="0.72" stop-color="#612A5F"/>
<stop offset="0.97" stop-color="#853774"/>
<stop offset="1" stop-color="#893976"/>
</linearGradient>
<linearGradient id="paint20_linear_221_942" x1="108.822" y1="124.488" x2="47.1291" y2="74.1013" gradientUnits="userSpaceOnUse">
<stop offset="0.1" stop-color="#311944"/>
<stop offset="0.27" stop-color="#371B47"/>
<stop offset="0.48" stop-color="#462150"/>
<stop offset="0.72" stop-color="#612A5F"/>
<stop offset="0.97" stop-color="#853774"/>
<stop offset="1" stop-color="#893976"/>
</linearGradient>
<linearGradient id="paint21_linear_221_942" x1="-11.108" y1="38.7639" x2="94.4607" y2="104.867" gradientUnits="userSpaceOnUse">
<stop stop-color="#AA80F9"/>
<stop offset="1" stop-color="#6165D7"/>
</linearGradient>
<linearGradient id="paint22_linear_221_942" x1="12.1862" y1="109.348" x2="10.051" y2="97.6446" gradientUnits="userSpaceOnUse">
<stop stop-color="#311944"/>
<stop offset="1" stop-color="#893976"/>
</linearGradient>
<linearGradient id="paint23_linear_221_942" x1="10.0745" y1="100.265" x2="9.557" y2="105.284" gradientUnits="userSpaceOnUse">
<stop stop-color="#FFC444"/>
<stop offset="1" stop-color="#F36F56"/>
</linearGradient>
<linearGradient id="paint24_linear_221_942" x1="2.73431" y1="106.737" x2="1.34179" y2="99.1049" gradientUnits="userSpaceOnUse">
<stop stop-color="#311944"/>
<stop offset="1" stop-color="#893976"/>
</linearGradient>
<linearGradient id="paint25_linear_221_942" x1="1.05643" y1="99.4925" x2="0.540717" y2="104.495" gradientUnits="userSpaceOnUse">
<stop stop-color="#FFC444"/>
<stop offset="1" stop-color="#F36F56"/>
</linearGradient>
<linearGradient id="paint26_linear_221_942" x1="25.8426" y1="62.0508" x2="27.8539" y2="56.9424" gradientUnits="userSpaceOnUse">
<stop stop-color="#FFC444"/>
<stop offset="1" stop-color="#F36F56"/>
</linearGradient>
<linearGradient id="paint27_linear_221_942" x1="21.5374" y1="94.891" x2="0.18662" y2="69.0536" gradientUnits="userSpaceOnUse">
<stop stop-color="#444B8C"/>
<stop offset="1" stop-color="#26264F"/>
</linearGradient>
<linearGradient id="paint28_linear_221_942" x1="21.5371" y1="94.891" x2="0.186346" y2="69.0536" gradientUnits="userSpaceOnUse">
<stop stop-color="#444B8C"/>
<stop offset="1" stop-color="#26264F"/>
</linearGradient>
<linearGradient id="paint29_linear_221_942" x1="10.7497" y1="88.1531" x2="0.383693" y2="74.1514" gradientUnits="userSpaceOnUse">
<stop stop-color="#444B8C"/>
<stop offset="1" stop-color="#26264F"/>
</linearGradient>
<linearGradient id="paint30_linear_221_942" x1="27.8651" y1="59.4456" x2="28.0363" y2="54.88" gradientUnits="userSpaceOnUse">
<stop stop-color="#311944"/>
<stop offset="1" stop-color="#893976"/>
</linearGradient>
<linearGradient id="paint31_linear_221_942" x1="31.3845" y1="57.2105" x2="26.3702" y2="55.8723" gradientUnits="userSpaceOnUse">
<stop stop-color="#FFC444"/>
<stop offset="1" stop-color="#F36F56"/>
</linearGradient>
<linearGradient id="paint32_linear_221_942" x1="49.5495" y1="53.7701" x2="40.3438" y2="60.7323" gradientUnits="userSpaceOnUse">
<stop stop-color="#FFC444"/>
<stop offset="0.81" stop-color="#F57F53"/>
<stop offset="1" stop-color="#F36F56"/>
</linearGradient>
<linearGradient id="paint33_linear_221_942" x1="28.4741" y1="63.1581" x2="23.3167" y2="85.0246" gradientUnits="userSpaceOnUse">
<stop stop-color="#FFC444"/>
<stop offset="1" stop-color="#F36F56"/>
</linearGradient>
<linearGradient id="paint34_linear_221_942" x1="29.7054" y1="63.4482" x2="24.5484" y2="85.3147" gradientUnits="userSpaceOnUse">
<stop stop-color="#FFC444"/>
<stop offset="1" stop-color="#F36F56"/>
</linearGradient>
</defs>
</svg>
