<svg width="68" height="60" viewBox="0 0 68 60" fill="none" xmlns="http://www.w3.org/2000/svg">
<g clip-path="url(#clip0_435_1311)">
<path d="M32.4007 49.8873L32.5114 49.8041V45.4962H1.67122C1.21191 45.4962 0.796875 45.3077 0.492513 45.0028C0.188151 44.7034 0 44.282 0 43.8274C0 43.3672 0.188151 42.9514 0.492513 42.6465C0.796875 42.3415 1.21191 42.153 1.67122 42.153H6.09831V7.84513H1.67122C1.21191 7.84513 0.796875 7.65663 0.492513 7.35169L0.45931 7.31842C0.177083 7.01903 0 6.6143 0 6.17076C0 5.71613 0.188151 5.29477 0.492513 4.98984C0.796875 4.6849 1.21191 4.4964 1.67122 4.4964H32.3288V1.67437C32.3288 1.21419 32.5169 0.798374 32.8213 0.493439C33.1257 0.188505 33.5407 0 34 0C34.4538 0 34.8744 0.188505 35.1787 0.493439C35.4831 0.798374 35.6712 1.21419 35.6712 1.67437V4.4964H66.3288C66.7826 4.4964 67.2031 4.6849 67.5075 4.98984C67.8119 5.29477 68 5.71613 68 6.17076C68 6.62539 67.8119 7.04676 67.5075 7.35169C67.2031 7.65663 66.7881 7.85067 66.3288 7.85067H61.9626V29.4289L58.6423 27.871V7.84513H9.44629V42.1475H50.9447L52.8483 45.4962H35.8317V49.976C38.084 52.3157 40.7126 54.5056 43.0257 56.8176C43.3411 57.1336 43.5072 57.5494 43.5182 57.9653C43.5293 58.3811 43.3799 58.8024 43.07 59.124L43.0257 59.1684C42.7103 59.4844 42.2952 59.6507 41.8802 59.6618C41.4596 59.6729 41.0446 59.5232 40.7236 59.2183C39.1354 57.6492 37.4531 56.1135 35.8317 54.5777V58.3201C35.8317 58.7803 35.6436 59.1961 35.3392 59.501L35.306 59.5343C35.0072 59.817 34.6032 59.9944 34.1605 59.9944C33.7067 59.9944 33.2861 59.8059 32.9818 59.501C32.6774 59.1961 32.4893 58.7747 32.4893 58.3201V54.3559C30.8014 55.9582 29.0915 57.6825 27.3649 59.2293C27.0329 59.5343 26.6123 59.6784 26.2028 59.6673C25.7878 59.6563 25.3783 59.4899 25.0684 59.1628L25.0241 59.1129C24.7197 58.7803 24.5758 58.3589 24.5869 57.9486C24.598 57.5328 24.764 57.117 25.0905 56.812C27.5033 54.5666 29.8828 52.2491 32.2734 49.976C32.3122 49.9427 32.3509 49.915 32.4007 49.8873ZM52.9701 30.4823L52.0348 29.5454C51.9352 29.4456 51.7969 29.4068 51.6696 29.4289L48.5264 29.7782C48.2995 29.8059 48.1335 30.0111 48.1611 30.2384C48.1722 30.3382 48.2165 30.4214 48.2829 30.4879L50.6237 32.8331L50.4577 32.9994C50.2972 33.1602 50.2972 33.4264 50.4577 33.5871L51.1937 34.3245L51.2048 34.3356C51.2324 34.3633 51.2656 34.3966 51.2878 34.4354C51.3154 34.4687 51.3376 34.513 51.3542 34.5518C51.4981 34.8623 51.4372 35.5387 51.3929 36.0654C51.3818 36.2151 51.3652 36.3593 51.3597 36.4535C51.2712 37.1465 51.7139 37.5513 52.1566 37.9505C52.0348 38.1445 51.974 38.3718 51.9684 38.5936C51.9684 38.8819 52.068 39.1702 52.2783 39.3864C52.3005 39.4086 52.3281 39.4308 52.3613 39.4585L61.4036 46.8047C61.6527 47.0042 61.957 47.1151 62.2503 47.1151C62.5492 47.1151 62.8425 47.0098 63.0749 46.7769L67.098 42.7463C67.3304 42.5134 67.4411 42.214 67.4411 41.9146C67.4411 41.6152 67.3304 41.3103 67.1201 41.0663L59.5719 32.2177C59.5498 32.19 59.5277 32.1678 59.5166 32.1567C59.2952 31.9349 59.0075 31.8351 58.7087 31.8351C58.4873 31.8351 58.266 31.9017 58.0667 32.0181C57.6683 31.5746 57.2699 31.131 56.5726 31.2197C56.4287 31.2308 56.3125 31.2364 56.1852 31.2475C55.6595 31.2918 54.9844 31.3528 54.6745 31.2086C54.6302 31.1865 54.5915 31.1643 54.5583 31.1421C54.5693 31.1421 54.5804 31.1421 54.5915 31.1421C54.6025 31.1421 54.6136 31.1421 54.6247 31.1421C54.6191 31.131 54.6081 31.1255 54.597 31.1144L53.861 30.377C53.7005 30.2162 53.4349 30.2162 53.2744 30.377L53.1029 30.5489L52.9701 30.4823ZM51.3376 33.2933L51.5091 33.127L53.2689 31.3639L53.4349 31.1976L53.8887 31.6522C53.9495 31.7187 54.0215 31.7742 54.0934 31.8241C54.1764 31.8795 54.2594 31.9294 54.3424 31.9682C54.8516 32.2066 55.6484 32.1345 56.2738 32.0791C56.4287 32.068 56.5726 32.0514 56.6501 32.0458L56.6833 32.0403C56.9544 32.0015 57.2145 32.2898 57.4691 32.5781L52.7266 37.3295C52.4388 37.0745 52.151 36.8139 52.1898 36.5422L52.1953 36.509C52.2008 36.3759 52.2119 36.2539 52.223 36.132C52.2783 35.511 52.3503 34.7126 52.1123 34.197C52.0736 34.1083 52.0238 34.0251 51.9684 33.9475C51.9131 33.8754 51.8522 33.8034 51.7803 33.7313L51.3376 33.2933ZM48.5374 25.0102L51.8577 25.3816C51.6751 26.0747 51.3763 26.679 50.9557 27.1891C50.5407 27.6991 50.0039 28.0928 49.3509 28.3755C48.7035 28.6583 47.8789 28.7969 46.8773 28.7969C45.9089 28.7969 45.1009 28.7082 44.459 28.5252C43.8171 28.3423 43.2637 28.0484 42.7988 27.6437C42.334 27.239 41.9743 26.7677 41.7087 26.2188C41.443 25.6755 41.3158 24.9492 41.3158 24.051C41.3158 23.114 41.4762 22.3267 41.7972 21.7058C42.0296 21.2456 42.3561 20.8353 42.7601 20.4694C43.1696 20.1035 43.5846 19.8318 44.0163 19.6544C44.6969 19.3716 45.5713 19.233 46.6338 19.233C48.1224 19.233 49.2568 19.4992 50.0426 20.0314C50.8229 20.5637 51.3708 21.3454 51.6917 22.3656L48.4046 22.8035C48.2995 22.4154 48.1169 22.1216 47.8402 21.922C47.569 21.728 47.2038 21.6282 46.7445 21.6282C46.1689 21.6282 45.6986 21.8388 45.3389 22.2491C44.9792 22.6649 44.8021 23.297 44.8021 24.1397C44.8021 24.8937 44.9792 25.4592 45.3333 25.8529C45.6875 26.241 46.1413 26.435 46.6891 26.435C47.1484 26.435 47.5303 26.3186 47.8457 26.0857C48.1501 25.8473 48.3825 25.4925 48.5374 25.0102ZM28.5658 15.973H32.0964V20.3308C32.445 19.9649 32.8379 19.6932 33.2861 19.5047C33.7288 19.3218 34.2158 19.233 34.7581 19.233C35.8704 19.233 36.7835 19.6322 37.514 20.4361C38.2389 21.2401 38.6042 22.3877 38.6042 23.8902C38.6042 24.8882 38.4382 25.7697 38.1061 26.5293C37.7741 27.2889 37.3148 27.8599 36.7282 28.2369C36.1416 28.6139 35.4941 28.8024 34.7747 28.8024C34.1605 28.8024 33.6016 28.6694 33.0924 28.4088C32.7106 28.1981 32.29 27.8156 31.8363 27.239V28.5918H28.5602V15.973H28.5658ZM32.0687 23.9789C32.0687 24.7662 32.2126 25.3428 32.5114 25.6921C32.8047 26.0469 33.1755 26.2244 33.6292 26.2244C34.0443 26.2244 34.3984 26.0525 34.6751 25.7032C34.9574 25.3539 35.1012 24.7718 35.1012 23.9457C35.1012 23.2194 34.9629 22.6871 34.6862 22.3489C34.4095 22.0107 34.0719 21.8388 33.679 21.8388C33.2031 21.8388 32.8158 22.0163 32.5169 22.3711C32.2181 22.7204 32.0687 23.2582 32.0687 23.9789ZM18.3835 22.4044L15.0466 22.0495C15.1738 21.4618 15.3564 21.0017 15.5889 20.669C15.8268 20.3308 16.1644 20.0425 16.6126 19.793C16.9336 19.6156 17.3708 19.477 17.9297 19.3772C18.4886 19.2829 19.0973 19.233 19.7503 19.233C20.7962 19.233 21.6318 19.294 22.2682 19.4105C22.8991 19.5269 23.4303 19.7764 23.8509 20.1478C24.1497 20.4084 24.3822 20.7743 24.5537 21.2456C24.7253 21.7169 24.8138 22.1715 24.8138 22.604V26.6402C24.8138 27.0726 24.8415 27.4108 24.8968 27.6548C24.9466 27.8987 25.0684 28.2092 25.251 28.5862H21.9805C21.8477 28.3534 21.7646 28.1759 21.7204 28.054C21.6816 27.932 21.6429 27.7379 21.5986 27.4774C21.1393 27.9154 20.6855 28.2314 20.2318 28.4199C19.612 28.6749 18.8981 28.7969 18.0791 28.7969C16.9945 28.7969 16.1644 28.5474 15.6055 28.0373C15.041 27.5328 14.7588 26.9063 14.7588 26.1689C14.7588 25.4759 14.9635 24.8993 15.3675 24.4502C15.777 24.0011 16.5241 23.6685 17.6198 23.4467C18.9313 23.1806 19.778 22.9976 20.1709 22.8867C20.5583 22.7814 20.9733 22.6428 21.4049 22.4709C21.4049 22.0384 21.3164 21.739 21.1393 21.5672C20.9622 21.3953 20.6523 21.3066 20.2096 21.3066C19.6397 21.3066 19.208 21.3953 18.9258 21.5838C18.6989 21.7335 18.5218 22.0052 18.3835 22.4044ZM21.4049 24.234C20.9235 24.4058 20.4255 24.5611 19.8997 24.6941C19.1914 24.8826 18.7376 25.0711 18.5495 25.2597C18.3558 25.4482 18.2617 25.6644 18.2617 25.9083C18.2617 26.1855 18.3558 26.4184 18.5495 26.5903C18.7432 26.7677 19.0254 26.8564 19.3962 26.8564C19.7835 26.8564 20.1488 26.7621 20.4863 26.5681C20.8184 26.3796 21.0563 26.1467 21.2002 25.8695C21.3385 25.5923 21.4105 25.2375 21.4105 24.7939V24.234H21.4049Z" fill="white"/>
</g>
<defs>
<clipPath id="clip0_435_1311">
<rect width="68" height="60" fill="white"/>
</clipPath>
</defs>
</svg>
