<svg width="78" height="60" viewBox="0 0 78 60" fill="none" xmlns="http://www.w3.org/2000/svg">
<g clip-path="url(#clip0_435_1309)">
<path fill-rule="evenodd" clip-rule="evenodd" d="M13.9146 3.05789e-06C15.2158 -0.00125062 16.4881 0.383012 17.5705 1.10416C18.6529 1.82531 19.4968 2.85092 19.9953 4.05121C20.4939 5.25149 20.6246 6.57249 20.3711 7.84703C20.1175 9.12156 19.4911 10.2923 18.571 11.2112C17.6509 12.13 16.4786 12.7556 15.2024 13.0088C13.9261 13.262 12.6033 13.1314 11.4014 12.6336C10.1995 12.1357 9.17255 11.293 8.45043 10.212C7.72832 9.13106 7.34354 7.86046 7.34479 6.56102C7.34479 4.82093 8.03697 3.15211 9.26905 1.92168C10.5011 0.691251 12.1722 3.05789e-06 13.9146 3.05789e-06ZM9.27448 14.3899L11.6104 20.5071H11.858L12.9942 16.5895L12.3594 15.9239C11.9024 15.2583 12.0611 14.4976 12.9117 14.3582C13.2181 14.3357 13.5257 14.3357 13.8321 14.3582C14.169 14.3388 14.5069 14.3515 14.8414 14.3962C15.6285 14.5737 15.711 15.3344 15.3174 15.943L14.6827 16.6086L15.8697 20.5071H16.1109L18.2183 14.3899C18.3125 14.4745 18.4121 14.5529 18.5167 14.6244C19.122 14.6792 19.7086 14.8629 20.2369 15.1632C21.0144 15.3182 21.6989 15.7739 22.1412 16.4311L27.1558 23.3471L30.7296 24.0317V10.5674H25.6514C25.3383 10.5674 25.038 10.4431 24.8166 10.222C24.5952 10.0009 24.4708 9.70099 24.4708 9.38828C24.4708 9.07556 24.5952 8.77566 24.8166 8.55454C25.038 8.33342 25.3383 8.20919 25.6514 8.20919H49.233V4.76704C49.2549 4.46844 49.3891 4.18919 49.6087 3.98536C49.8283 3.78154 50.117 3.66825 50.4168 3.66825C50.7166 3.66825 51.0053 3.78154 51.2249 3.98536C51.4445 4.18919 51.5787 4.46844 51.6007 4.76704V8.24089H76.6929C77.0061 8.24089 77.3064 8.36512 77.5278 8.58624C77.7492 8.80736 77.8736 9.10726 77.8736 9.41997C77.8736 9.73268 77.7492 10.0326 77.5278 10.2537C77.3064 10.4748 77.0061 10.5991 76.6929 10.5991H71.6592V39.7655H76.8072C77.1203 39.7655 77.4206 39.8897 77.6421 40.1108C77.8635 40.3319 77.9879 40.6318 77.9879 40.9445C77.9879 41.2572 77.8635 41.5572 77.6421 41.7783C77.4206 41.9994 77.1203 42.1236 76.8072 42.1236H51.7657V47.5436C51.8179 47.5893 51.8731 47.6317 51.9307 47.6704L59.3067 54.6434C59.4301 54.746 59.531 54.8728 59.6034 55.016C59.6757 55.1591 59.7179 55.3155 59.7274 55.4755C59.7368 55.6356 59.7133 55.7959 59.6582 55.9465C59.6032 56.0971 59.5178 56.2348 59.4074 56.3512C59.297 56.4676 59.1638 56.5601 59.0162 56.623C58.8685 56.686 58.7095 56.718 58.549 56.7172C58.3884 56.7164 58.2298 56.6827 58.0828 56.6182C57.9358 56.5537 57.8036 56.4598 57.6944 56.3423L51.7657 50.7132V55.7845C51.7438 56.0831 51.6096 56.3623 51.3899 56.5661C51.1704 56.77 50.8817 56.8833 50.5819 56.8833C50.2821 56.8833 49.9934 56.77 49.7738 56.5661C49.5542 56.3623 49.4199 56.0831 49.398 55.7845V50.5103L43.2471 56.3487C43.1356 56.4558 43.0038 56.5398 42.8594 56.5956C42.7151 56.6515 42.561 56.6781 42.4063 56.674C42.2515 56.6698 42.0992 56.635 41.958 56.5716C41.8169 56.5081 41.6897 56.4172 41.5841 56.3043C41.4761 56.1938 41.3915 56.0629 41.3352 55.9192C41.2788 55.7754 41.2519 55.6219 41.2561 55.4676C41.2602 55.3134 41.2953 55.1615 41.3593 55.021C41.4233 54.8805 41.5148 54.7543 41.6285 54.6498L49.0045 47.6767C49.1162 47.5669 49.2505 47.4825 49.398 47.4295V42.1236H25.626C25.3129 42.1236 25.0126 41.9994 24.7912 41.7783C24.5698 41.5572 24.4454 41.2572 24.4454 40.9445C24.4454 40.6318 24.5698 40.3319 24.7912 40.1108C25.0126 39.8897 25.3129 39.7655 25.626 39.7655H30.7042V30.3201L24.8199 29.1601C24.0331 29.0267 23.3282 28.5953 22.8521 27.9556L20.3575 24.5008V24.5895L20.1544 34.5927L22.6934 50.5927L23.6519 56.0761C24.1915 59.7401 18.5738 61.9144 17.1837 57.103L13.9083 37.8193L10.5758 57.4136C9.94099 60.9572 4.14558 60.9889 4.10749 56.6846L7.78278 34.7195L7.50349 22.859C7.1904 23.242 6.93585 23.6693 6.74812 24.1268C6.35667 25.0464 6.14136 26.0312 6.11335 27.0301L5.60554 33.9461C5.32624 37.5594 -0.0629202 37.7813 0.00055632 33.8827C0.0322946 32.1331 0.190986 30.3708 0.381416 28.5769C0.74958 25.141 0.825752 23.0111 2.78718 19.588C3.52153 18.3165 4.49083 17.1958 5.64362 16.2853C6.55243 15.5689 7.61121 15.0662 8.74128 14.8146C8.92927 14.6864 9.1075 14.5444 9.27448 14.3899ZM33.0909 24.2536L39.7305 17.2805C39.8702 17.1235 40.04 16.9961 40.23 16.906C40.42 16.8159 40.6261 16.7648 40.8362 16.7559C41.0463 16.747 41.2561 16.7804 41.453 16.8541C41.65 16.9278 41.83 17.0403 41.9825 17.1849C42.135 17.3295 42.2568 17.5033 42.3407 17.6959C42.4245 17.8885 42.4687 18.096 42.4706 18.306C42.4725 18.516 42.4321 18.7243 42.3518 18.9184C42.2714 19.1125 42.1528 19.2884 42.003 19.4358L35.7569 25.9905C36.0485 26.4619 36.2083 27.0028 36.2196 27.5568C36.2309 28.1108 36.0932 28.6577 35.821 29.1405C35.5488 29.6234 35.152 30.0245 34.6718 30.3022C34.1917 30.5799 33.6457 30.724 33.0909 30.7195V39.7655H69.317V10.5674H33.0909V24.2536Z" fill="white"/>
</g>
<defs>
<clipPath id="clip0_435_1309">
<rect width="78" height="60" fill="white"/>
</clipPath>
</defs>
</svg>
