<svg width="16" height="14" viewBox="0 0 16 14" fill="none" xmlns="http://www.w3.org/2000/svg">
<g clip-path="url(#clip0_615_276)">
<path d="M4.63153 13.5933H3.39324V11.6529C3.39324 11.618 3.37953 11.5845 3.35511 11.5598C3.33069 11.5351 3.29757 11.5213 3.26304 11.5213H1.70444C1.66915 11.5212 1.63518 11.5348 1.60951 11.5593C1.58384 11.5838 1.56842 11.6173 1.56642 11.6529V13.5933H1.34637V14.0001H14.6537V13.5933H14.4336V11.6529C14.4316 11.6173 14.4162 11.5838 14.3905 11.5593C14.3649 11.5348 14.3309 11.5212 14.2956 11.5213H12.7435C12.7259 11.5204 12.7082 11.5231 12.6917 11.5293C12.6751 11.5355 12.66 11.5451 12.6472 11.5574C12.6344 11.5697 12.6242 11.5845 12.6173 11.601C12.6103 11.6174 12.6068 11.635 12.6068 11.6529V13.5933H9.69273V10.8499C9.69291 10.8251 9.68816 10.8005 9.67877 10.7775C9.66937 10.7546 9.65553 10.7338 9.63805 10.7164C9.62056 10.6989 9.5998 10.6852 9.57699 10.6761C9.55417 10.6669 9.52977 10.6624 9.50523 10.663H6.47788C6.42919 10.663 6.38249 10.6825 6.34806 10.7173C6.31363 10.7521 6.29429 10.7993 6.29429 10.8486V13.592H4.23048V4.32709H0.390641V13.5933H1.35288V14.0001H0.183609C0.134917 14.0001 0.0882194 13.9805 0.0537889 13.9457C0.0193584 13.9109 1.55643e-05 13.8637 1.55643e-05 13.8144V4.21256C-0.000371727 4.17675 0.00647252 4.14123 0.0201296 4.10818C0.0337866 4.07514 0.0539692 4.04525 0.0794427 4.02036C0.10402 3.99501 0.133416 3.97494 0.165861 3.96137C0.198307 3.9478 0.233133 3.941 0.268245 3.94138H4.23048V0.296246C4.23762 0.220514 4.27079 0.149708 4.32423 0.0961519C4.35461 0.0649898 4.39093 0.0404004 4.431 0.0238799C4.47107 0.00735936 4.51404 -0.000746973 4.55731 5.4074e-05H11.4362C11.4783 -0.000255803 11.5201 0.00797214 11.559 0.0242517C11.5979 0.0405312 11.6332 0.0645319 11.6628 0.0948355L11.6771 0.110632C11.7296 0.169531 11.7588 0.245919 11.7591 0.325207V3.93875H15.7305C15.7656 3.93836 15.8004 3.94516 15.8329 3.95874C15.8653 3.97231 15.8947 3.99238 15.9193 4.01773C15.9448 4.04262 15.9649 4.0725 15.9786 4.10555C15.9923 4.1386 15.9991 4.17411 15.9987 4.20993V13.8197C15.9987 13.8689 15.9794 13.9161 15.9449 13.951C15.9105 13.9858 15.8638 14.0053 15.8151 14.0053H14.6524V13.5985H15.6146V4.32709H11.7578V13.5933H11.3555V0.405508H4.63153V13.5933ZM2.13934 5.13405H1.14715C1.13934 5.13405 1.13153 5.14458 1.13153 5.15774V5.80805C1.13153 5.82121 1.13934 5.83306 1.14715 5.83306H2.13934C2.14715 5.83306 2.15496 5.82253 2.15496 5.80805V5.15116C2.15496 5.138 2.14715 5.12746 2.13934 5.12746V5.13405ZM2.13934 9.64538H1.14715C1.13934 9.64538 1.13153 9.65722 1.13153 9.66907V10.3194C1.13153 10.3312 1.13934 10.3444 1.14715 10.3444H2.13934C2.14715 10.3444 2.15496 10.3325 2.15496 10.3194V9.66249C2.15496 9.65064 2.14715 9.63879 2.13934 9.63879V9.64538ZM3.81382 9.64538H2.82163C2.81252 9.64538 2.80601 9.65722 2.80601 9.66907V10.3194C2.80601 10.3312 2.81252 10.3444 2.82163 10.3444H3.81382C3.82163 10.3444 3.82814 10.3325 3.82814 10.3194V9.66249C3.82814 9.65064 3.82814 9.63879 3.81382 9.63879V9.64538ZM2.13934 8.13414H1.14715C1.13934 8.13414 1.13153 8.14599 1.13153 8.15915V8.80946C1.13153 8.82262 1.13934 8.83447 1.14715 8.83447H2.13934C2.14715 8.83447 2.15496 8.82394 2.15496 8.80946V8.16178C2.15496 8.1473 2.14715 8.13677 2.13934 8.13677V8.13414ZM2.13934 6.6308H1.14715C1.13934 6.6308 1.13153 6.64133 1.13153 6.65581V7.30612C1.13153 7.31797 1.13934 7.33113 1.14715 7.33113H2.13934C2.14715 7.33113 2.15496 7.31928 2.15496 7.30612V6.65581C2.15496 6.64133 2.14715 6.6308 2.13934 6.6308ZM3.81382 5.13405H2.82163C2.81252 5.13405 2.80601 5.14458 2.80601 5.15774V5.80805C2.80601 5.82121 2.81252 5.83306 2.82163 5.83306H3.81382C3.82163 5.83306 3.82814 5.82253 3.82814 5.80805V5.15116C3.82814 5.138 3.82814 5.12746 3.81382 5.12746V5.13405ZM3.81382 8.14072H2.82163C2.81252 8.14072 2.80601 8.15257 2.80601 8.16573V8.81604C2.80601 8.8292 2.81252 8.84105 2.82163 8.84105H3.81382C3.82163 8.84105 3.82814 8.83052 3.82814 8.81604V8.16178C3.82814 8.1473 3.82814 8.13677 3.81382 8.13677V8.14072ZM3.81382 6.63738H2.82163C2.81252 6.63738 2.80601 6.64791 2.80601 6.6624V7.30612C2.80601 7.31797 2.81252 7.33113 2.82163 7.33113H3.81382C3.82163 7.33113 3.82814 7.31928 3.82814 7.30612V6.65581C3.82814 6.64133 3.82814 6.6308 3.81382 6.6308V6.63738ZM13.8607 5.13405H14.8529C14.8607 5.13405 14.8685 5.14458 14.8685 5.15774V5.80805C14.8685 5.82121 14.8607 5.83306 14.8529 5.83306H13.8607C13.8529 5.83306 13.8451 5.82253 13.8451 5.80805V5.15116C13.8451 5.138 13.8529 5.12746 13.8607 5.12746V5.13405ZM13.8607 9.64538H14.8529C14.8607 9.64538 14.8685 9.65722 14.8685 9.66907V10.3194C14.8685 10.3312 14.8607 10.3444 14.8529 10.3444H13.8607C13.8529 10.3444 13.8451 10.3325 13.8451 10.3194V9.66249C13.8451 9.65064 13.8529 9.63879 13.8607 9.63879V9.64538ZM12.1862 9.64538H13.1784C13.1875 9.64538 13.194 9.65722 13.194 9.66907V10.3194C13.194 10.3312 13.194 10.3444 13.1784 10.3444H12.1862C12.1784 10.3444 12.1719 10.3325 12.1719 10.3194V9.66249C12.1719 9.65064 12.1719 9.63879 12.1862 9.63879V9.64538ZM13.8607 8.14072H14.8529C14.8607 8.14072 14.8685 8.15257 14.8685 8.16573V8.81604C14.8685 8.8292 14.8607 8.84105 14.8529 8.84105H13.8607C13.8529 8.84105 13.8451 8.83052 13.8451 8.81604V8.16178C13.8451 8.1473 13.8529 8.13677 13.8607 8.13677V8.14072ZM13.8607 6.63738H14.8529C14.8607 6.63738 14.8685 6.64791 14.8685 6.6624V7.30612C14.8685 7.31797 14.8607 7.33113 14.8529 7.33113H13.8607C13.8529 7.33113 13.8451 7.31928 13.8451 7.30612V6.65581C13.8451 6.64133 13.8529 6.6308 13.8607 6.6308V6.63738ZM12.1862 5.13405H13.1784C13.1875 5.13405 13.194 5.14458 13.194 5.15774V5.80805C13.194 5.82121 13.194 5.83306 13.1784 5.83306H12.1862C12.1784 5.83306 12.1719 5.82253 12.1719 5.80805V5.15116C12.1719 5.138 12.1719 5.12746 12.1862 5.12746V5.13405ZM12.1862 8.14072H13.1784C13.1875 8.14072 13.194 8.15257 13.194 8.16573V8.81604C13.194 8.8292 13.194 8.84105 13.1784 8.84105H12.1862C12.1784 8.84105 12.1719 8.83052 12.1719 8.81604V8.16178C12.1719 8.1473 12.1719 8.13677 12.1862 8.13677V8.14072ZM12.1862 6.63738H13.1784C13.1875 6.63738 13.194 6.64791 13.194 6.6624V7.30612C13.194 7.31797 13.194 7.33113 13.1784 7.33113H12.1862C12.1784 7.33113 12.1719 7.31928 12.1719 7.30612V6.65581C12.1719 6.64133 12.1719 6.6308 12.1862 6.6308V6.63738ZM5.59897 1.42704H6.6784C6.68647 1.42703 6.69423 1.43018 6.70005 1.43582C6.70587 1.44147 6.70931 1.44917 6.70965 1.45732V2.54994C6.70931 2.55809 6.70587 2.56579 6.70005 2.57143C6.69423 2.57707 6.68647 2.58022 6.6784 2.58021H5.59897C5.59103 2.58021 5.58341 2.57702 5.5778 2.57135C5.57218 2.56567 5.56903 2.55797 5.56903 2.54994V1.45732C5.56903 1.44929 5.57218 1.44159 5.5778 1.43591C5.58341 1.43023 5.59103 1.42704 5.59897 1.42704ZM9.31121 1.42704H10.3906C10.3987 1.42703 10.4065 1.43018 10.4123 1.43582C10.4181 1.44147 10.4216 1.44917 10.4219 1.45732V2.54994C10.4216 2.55809 10.4181 2.56579 10.4123 2.57143C10.4065 2.57707 10.3987 2.58022 10.3906 2.58021H9.30991C9.30185 2.58022 9.29409 2.57707 9.28826 2.57143C9.28244 2.56579 9.279 2.55809 9.27866 2.54994V1.45732C9.279 1.44917 9.28244 1.44147 9.28826 1.43582C9.29409 1.43018 9.30185 1.42703 9.30991 1.42704H9.31121ZM7.45444 1.42704H8.53517C8.54312 1.42704 8.55073 1.43023 8.55635 1.43591C8.56196 1.44159 8.56512 1.44929 8.56512 1.45732V2.54994C8.56512 2.55797 8.56196 2.56567 8.55635 2.57135C8.55073 2.57702 8.54312 2.58021 8.53517 2.58021H7.45444C7.4466 2.57989 7.43917 2.5766 7.43362 2.57099C7.42807 2.56538 7.42482 2.55786 7.4245 2.54994V1.45732C7.42482 1.44939 7.42807 1.44188 7.43362 1.43627C7.43917 1.43066 7.4466 1.42736 7.45444 1.42704ZM5.59897 3.79131H6.6784C6.68669 3.79131 6.69464 3.79464 6.7005 3.80056C6.70636 3.80649 6.70965 3.81452 6.70965 3.8229V4.91421C6.70965 4.91835 6.70884 4.92246 6.70727 4.9263C6.7057 4.93013 6.7034 4.93361 6.7005 4.93655C6.6976 4.93948 6.69415 4.94181 6.69036 4.94339C6.68657 4.94498 6.68251 4.9458 6.6784 4.9458H5.59897C5.59493 4.9458 5.59093 4.94498 5.5872 4.94338C5.58348 4.94177 5.58012 4.93942 5.57732 4.93647C5.57453 4.93352 5.57235 4.93002 5.57092 4.9262C5.5695 4.92237 5.56885 4.91829 5.56903 4.91421V3.81764C5.56998 3.81031 5.57355 3.80359 5.57907 3.79874C5.58458 3.79389 5.59166 3.79125 5.59897 3.79131ZM9.31121 3.79131H10.3906C10.3972 3.79234 10.4032 3.79545 10.4079 3.80018C10.4126 3.80491 10.4157 3.81103 10.4167 3.81764V4.90894C10.4167 4.91732 10.4134 4.92535 10.4075 4.93128C10.4017 4.9372 10.3937 4.94053 10.3854 4.94053H9.30991C9.30162 4.94053 9.29368 4.9372 9.28782 4.93128C9.28195 4.92535 9.27866 4.91732 9.27866 4.90894V3.81764C9.27866 3.80926 9.28195 3.80122 9.28782 3.7953C9.29368 3.78937 9.30162 3.78604 9.30991 3.78604L9.31121 3.79131ZM7.45444 3.79131H8.53517C8.53922 3.79131 8.54322 3.79213 8.54694 3.79373C8.55066 3.79534 8.55402 3.79768 8.55682 3.80064C8.55962 3.80359 8.5618 3.80708 8.56323 3.81091C8.56465 3.81474 8.5653 3.81882 8.56512 3.8229V4.91421C8.5653 4.91829 8.56465 4.92237 8.56323 4.9262C8.5618 4.93002 8.55962 4.93352 8.55682 4.93647C8.55402 4.93942 8.55066 4.94177 8.54694 4.94338C8.54322 4.94498 8.53922 4.9458 8.53517 4.9458H7.45444C7.44638 4.94546 7.43877 4.94198 7.43318 4.93609C7.4276 4.9302 7.42449 4.92236 7.4245 4.91421V3.81764C7.42449 3.80948 7.4276 3.80164 7.43318 3.79575C7.43877 3.78986 7.44638 3.78638 7.45444 3.78604V3.79131ZM5.59897 8.52116H6.6784C6.68669 8.52116 6.69464 8.52449 6.7005 8.53042C6.70636 8.53634 6.70965 8.54438 6.70965 8.55276V9.64406C6.70965 9.65244 6.70636 9.66047 6.7005 9.6664C6.69464 9.67232 6.68669 9.67565 6.6784 9.67565H5.59897C5.59493 9.67566 5.59093 9.67483 5.5872 9.67323C5.58348 9.67163 5.58012 9.66928 5.57732 9.66633C5.57453 9.66337 5.57235 9.65988 5.57092 9.65605C5.5695 9.65222 5.56885 9.64815 5.56903 9.64406V8.55671C5.56885 8.55262 5.5695 8.54854 5.57092 8.54471C5.57235 8.54089 5.57453 8.53739 5.57732 8.53444C5.58012 8.53149 5.58348 8.52914 5.5872 8.52754C5.59093 8.52593 5.59493 8.52511 5.59897 8.52511V8.52116ZM9.31121 8.52116H10.3906C10.3987 8.52246 10.406 8.52691 10.4108 8.53356C10.4157 8.54021 10.4178 8.54852 10.4167 8.55671V9.64801C10.4167 9.65639 10.4134 9.66442 10.4075 9.67035C10.4017 9.67627 10.3937 9.6796 10.3854 9.6796H9.30991C9.30162 9.6796 9.29368 9.67627 9.28782 9.67035C9.28195 9.66442 9.27866 9.65639 9.27866 9.64801V8.55671C9.27866 8.54833 9.28195 8.54029 9.28782 8.53437C9.29368 8.52844 9.30162 8.52511 9.30991 8.52511L9.31121 8.52116ZM7.45444 8.52116H8.53517C8.53922 8.52116 8.54322 8.52198 8.54694 8.52359C8.55066 8.52519 8.55402 8.52754 8.55682 8.53049C8.55962 8.53344 8.5618 8.53694 8.56323 8.54077C8.56465 8.54459 8.5653 8.54867 8.56512 8.55276V9.64406C8.5653 9.64815 8.56465 9.65222 8.56323 9.65605C8.5618 9.65988 8.55962 9.66337 8.55682 9.66633C8.55402 9.66928 8.55066 9.67163 8.54694 9.67323C8.54322 9.67483 8.53922 9.67566 8.53517 9.67565H7.45444C7.44638 9.67531 7.43877 9.67183 7.43318 9.66595C7.4276 9.66006 7.42449 9.65222 7.4245 9.64406V8.55671C7.42449 8.54855 7.4276 8.54071 7.43318 8.53482C7.43877 8.52893 7.44638 8.52545 7.45444 8.52511V8.52116ZM5.59897 6.15689H6.6784C6.68647 6.15689 6.69423 6.16004 6.70005 6.16568C6.70587 6.17132 6.70931 6.17902 6.70965 6.18717V7.27979C6.70965 7.28388 6.70884 7.28793 6.70725 7.29169C6.70567 7.29545 6.70334 7.29885 6.70042 7.30168C6.6975 7.30451 6.69405 7.30671 6.69026 7.30815C6.68648 7.30959 6.68244 7.31025 6.6784 7.31007H5.59897C5.59103 7.31007 5.58341 7.30688 5.5778 7.3012C5.57218 7.29552 5.56903 7.28782 5.56903 7.27979V6.18717C5.56903 6.17914 5.57218 6.17144 5.5778 6.16576C5.58341 6.16008 5.59103 6.15689 5.59897 6.15689ZM9.31121 6.15689H10.3906C10.3978 6.15811 10.4043 6.1618 10.409 6.16732C10.4138 6.17284 10.4165 6.17986 10.4167 6.18717V7.27979C10.4167 7.28388 10.4159 7.28793 10.4143 7.29169C10.4127 7.29545 10.4104 7.29885 10.4075 7.30168C10.4045 7.30451 10.4011 7.30671 10.3973 7.30815C10.3935 7.30959 10.3895 7.31025 10.3854 7.31007H9.30991C9.30587 7.31025 9.30184 7.30959 9.29805 7.30815C9.29427 7.30671 9.29081 7.30451 9.28789 7.30168C9.28497 7.29885 9.28265 7.29545 9.28106 7.29169C9.27947 7.28793 9.27866 7.28388 9.27866 7.27979V6.18717C9.279 6.17902 9.28244 6.17132 9.28826 6.16568C9.29409 6.16004 9.30185 6.15689 9.30991 6.15689H9.31121ZM7.45444 6.15689H8.53517C8.54312 6.15689 8.55073 6.16008 8.55635 6.16576C8.56196 6.17144 8.56512 6.17914 8.56512 6.18717V7.27979C8.56512 7.28782 8.56196 7.29552 8.55635 7.3012C8.55073 7.30688 8.54312 7.31007 8.53517 7.31007H7.45444C7.4503 7.31043 7.44612 7.30992 7.44218 7.30857C7.43824 7.30721 7.43463 7.30504 7.43156 7.30219C7.4285 7.29934 7.42606 7.29588 7.42439 7.29202C7.42273 7.28816 7.42188 7.284 7.42189 7.27979V6.18717C7.42221 6.17925 7.42547 6.17173 7.43102 6.16612C7.43657 6.16051 7.444 6.15722 7.45184 6.15689H7.45444Z" fill="#535353"/>
</g>
<defs>
<clipPath id="clip0_615_276">
<rect width="16" height="14" fill="white"/>
</clipPath>
</defs>
</svg>
