<svg width="25" height="30" viewBox="0 0 25 30" fill="none" xmlns="http://www.w3.org/2000/svg">
<path d="M24.1639 29.5832L12.4481 25.3094L0.290039 29.5832V0.290039H24.1639V29.5832Z" fill="white"/>
<path d="M24.4538 30L12.4444 25.6174L0 29.9928V0H24.4502V30H24.4538ZM0.57999 0.57999V29.1735L12.448 25.0012L23.8702 29.1699V0.57999H0.57999Z" fill="#0A0408"/>
<path d="M22.7108 27.883L22.0511 27.6438L22.1308 27.419V27.1798H22.2214L22.2504 27.0964L22.4752 27.1798H22.7108V27.883ZM2.94037 27.4589L2.74825 26.9115L3.28474 26.723L3.47686 27.2704L2.94037 27.4589ZM21.5146 27.448L20.9781 27.2523L21.1774 26.7085L21.7139 26.9043L21.5146 27.448ZM4.01335 27.0783L3.82123 26.5309L4.35772 26.3424L4.54984 26.8898L4.01335 27.0783ZM20.4452 27.0565L19.9087 26.8608L20.1081 26.317L20.6446 26.5128L20.4452 27.0565ZM5.08996 26.7013L4.89784 26.1539L5.43433 25.9654L5.62645 26.5128L5.08996 26.7013ZM19.3758 26.665L18.8394 26.4693L19.0387 25.9255L19.5752 26.1213L19.3758 26.665ZM6.16294 26.3243L5.97082 25.7769L6.50731 25.5884L6.69943 26.1358L6.16294 26.3243ZM18.3029 26.2735L17.7664 26.0778L17.9657 25.5341L18.5022 25.7298L18.3029 26.2735ZM7.23955 25.9437L7.04743 25.3963L7.58392 25.2078L7.77604 25.7552L7.23955 25.9437ZM17.2335 25.8857L16.697 25.6899L16.8964 25.1462L17.4329 25.3419L17.2335 25.8857ZM8.31253 25.5667L8.12041 25.0193L8.6569 24.8308L8.84902 25.3782L8.31253 25.5667ZM16.1641 25.4942L15.6277 25.2984L15.827 24.7547L16.3635 24.9504L16.1641 25.4942ZM9.38914 25.1897L9.19702 24.6423L9.73351 24.4538L9.92563 25.0012L9.38914 25.1897ZM15.0948 25.1027L14.5583 24.9069L14.7577 24.3632L15.2942 24.5589L15.0948 25.1027ZM10.4621 24.8127L10.27 24.2653L10.8065 24.0768L10.9986 24.6242L10.4621 24.8127ZM14.0218 24.7112L13.4853 24.5154L13.6847 23.9717L14.2212 24.1675L14.0218 24.7112ZM11.5387 24.4321L11.3466 23.8847L11.8831 23.6962L12.0752 24.2436L11.5387 24.4321ZM12.9525 24.3233L12.416 24.1276L12.6153 23.5838L13.1518 23.7796L12.9525 24.3233ZM1.74414 27.8794V27.1798H1.98339L2.20813 27.1L2.23713 27.1798H2.32413V27.419L2.40388 27.6474L1.74414 27.8794ZM2.32413 26.6107H1.74414V26.0415H2.32413V26.6107ZM2.32413 25.4724H1.74414V24.8997H2.32413V25.4724ZM2.32413 24.3306H1.74414V23.7615H2.32413V24.3306ZM2.32413 23.1923H1.74414V22.6232H2.32413V23.1923ZM2.32413 22.0541H1.74414V21.485H2.32413V22.0541ZM2.32413 20.9159H1.74414V20.3468H2.32413V20.9159ZM2.32413 19.7777H1.74414V19.2085H2.32413V19.7777ZM2.32413 18.6394H1.74414V18.0703H2.32413V18.6394ZM2.32413 17.5012H1.74414V16.9321H2.32413V17.5012ZM2.32413 16.3593H1.74414V15.7902H2.32413V16.3593ZM2.32413 15.2211H1.74414V14.652H2.32413V15.2211ZM2.32413 14.0829H1.74414V13.5138H2.32413V14.0829ZM2.32413 12.9446H1.74414V12.3755H2.32413V12.9446ZM2.32413 11.8064H1.74414V11.2373H2.32413V11.8064ZM2.32413 10.6682H1.74414V10.0991H2.32413V10.6682ZM2.32413 9.52995H1.74414V8.96083H2.32413V9.52995ZM2.32413 8.38809H1.74414V7.81897H2.32413V8.38809ZM2.32413 7.24986H1.74414V6.68074H2.32413V7.24986ZM2.32413 6.11163H1.74414V5.54251H2.32413V6.11163ZM2.32413 4.9734H1.74414V4.40428H2.32413V4.9734ZM2.32413 3.83516H1.74414V3.26605H2.32413V3.83516ZM1.74414 2.11694H2.32413V2.69693H1.74414V2.11694ZM21.5653 2.69693H20.9998V2.11694H21.5653V2.69693ZM20.4343 2.69693H19.8688V2.11694H20.4343V2.69693ZM19.3033 2.69693H18.7379V2.11694H19.3033V2.69693ZM18.1687 2.69693H17.6033V2.11694H18.1687V2.69693ZM17.0378 2.69693H16.4723V2.11694H17.0378V2.69693ZM15.9068 2.69693H15.3413V2.11694H15.9068V2.69693ZM14.7758 2.69693H14.2067V2.11694H14.7722V2.69693H14.7758ZM13.6412 2.69693H13.0757V2.11694H13.6412V2.69693ZM12.5102 2.69693H11.9447V2.11694H12.5102V2.69693ZM11.3792 2.69693H10.8137V2.11694H11.3792V2.69693ZM10.2446 2.69693H9.67913V2.11694H10.2446V2.69693ZM9.11364 2.69693H8.54815V2.11694H9.11364V2.69693ZM7.98266 2.69693H7.41717V2.11694H7.98266V2.69693ZM6.85168 2.69693H6.28619V2.11694H6.85168V2.69693ZM5.71707 2.69693H5.15158V2.11694H5.71707V2.69693ZM4.58609 2.69693H4.0206V2.11694H4.58609V2.69693ZM3.45511 2.69693H2.88962V2.11694H3.45511V2.69693ZM22.1308 2.11694H22.7108V2.69693H22.1308V2.11694ZM22.7108 26.6107H22.1308V26.0415H22.7108V26.6107ZM22.7108 25.4724H22.1308V24.8997H22.7108V25.4724ZM22.7108 24.3306H22.1308V23.7615H22.7108V24.3306ZM22.7108 23.1923H22.1308V22.6232H22.7108V23.1923ZM22.7108 22.0541H22.1308V21.485H22.7108V22.0541ZM22.7108 20.9159H22.1308V20.3468H22.7108V20.9159ZM22.7108 19.7777H22.1308V19.2085H22.7108V19.7777ZM22.7108 18.6394H22.1308V18.0703H22.7108V18.6394ZM22.7108 17.5012H22.1308V16.9321H22.7108V17.5012ZM22.7108 16.3593H22.1308V15.7902H22.7108V16.3593ZM22.7108 15.2211H22.1308V14.652H22.7108V15.2211ZM22.7108 14.0829H22.1308V13.5138H22.7108V14.0829ZM22.7108 12.9446H22.1308V12.3755H22.7108V12.9446ZM22.7108 11.8064H22.1308V11.2373H22.7108V11.8064ZM22.7108 10.6682H22.1308V10.0991H22.7108V10.6682ZM22.7108 9.52995H22.1308V8.96083H22.7108V9.52995ZM22.7108 8.38809H22.1308V7.81897H22.7108V8.38809ZM22.7108 7.24986H22.1308V6.68074H22.7108V7.24986ZM22.7108 6.11163H22.1308V5.54251H22.7108V6.11163ZM22.7108 4.9734H22.1308V4.40428H22.7108V4.9734ZM22.7108 3.83516H22.1308V3.26605H22.7108V3.83516Z" fill="#0A0408"/>
<path d="M20.9194 25.0882L12.3863 21.9744L3.53418 25.0882V3.5343H20.9194V25.0882Z" fill="#55B7A8"/>
<path d="M12.227 7.48914L13.7821 10.6356L17.2548 11.1394L14.7391 13.5899L15.3336 17.0517L12.227 15.4169L9.12044 17.0517L9.71493 13.5899L7.19922 11.1394L10.6719 10.6356L12.227 7.48914Z" fill="#EBB866"/>
<path d="M15.7176 17.5809L12.2268 15.7467L8.73594 17.5809L9.40293 13.6914L6.5791 10.9364L10.4832 10.3673L12.2304 6.82935L13.9776 10.3673L17.8817 10.9364L15.0578 13.6914L15.7176 17.5809ZM12.2268 15.0906L14.9491 16.5224L14.4307 13.492L16.6311 11.346L13.5897 10.9038L12.2304 8.1452L10.871 10.9038L7.82246 11.3424L10.0228 13.4884L9.50443 16.5188L12.2268 15.0906Z" fill="#0A0408"/>
<path d="M1.10938 1.48267H2.95447V3.32776H1.10938V1.48267Z" fill="#DC444A"/>
<path d="M3.24442 3.61771H0.819336V1.19263H3.24442V3.61771ZM1.39933 3.03772H2.66443V1.77262H1.39933V3.03772Z" fill="#0A0408"/>
<path d="M21.5 1.48267H23.3451V3.32776H21.5V1.48267Z" fill="#DC444A"/>
<path d="M23.635 3.61771H21.21V1.19263H23.635V3.61771ZM21.79 3.03772H23.0551V1.77262H21.79V3.03772Z" fill="#0A0408"/>
</svg>
