<svg width="31" height="32" viewBox="0 0 31 32" fill="none" xmlns="http://www.w3.org/2000/svg">
<ellipse cx="15.5" cy="16" rx="15.5" ry="16" fill="white"/>
<g clip-path="url(#clip0_3002_5)">
<path d="M11.3105 13.49H8.38672V23H11.3105V13.49Z" fill="#0077B4"/>
<path d="M9.78711 9C8.70898 9 8 9.70864 8 10.6495C8 11.5725 8.68555 12.299 9.74609 12.299H9.76953C10.8711 12.299 11.5566 11.5666 11.5508 10.6495C11.5273 9.70864 10.8652 9 9.78711 9Z" fill="#0077B4"/>
<path d="M19.2969 13.4006C17.6211 13.4006 16.5723 14.3296 16.3789 14.9846V13.49H13.0918C13.1328 14.282 13.0918 23 13.0918 23H16.3789V17.8609C16.3789 17.5691 16.3672 17.2832 16.4492 17.0808C16.6719 16.5091 17.1582 15.9136 18.0312 15.9136C19.1738 15.9136 19.6895 16.7949 19.6895 18.0812V23H23.0059V17.712C23.0059 14.7703 21.377 13.4006 19.2969 13.4006Z" fill="#0077B4"/>
</g>
<defs>
<clipPath id="clip0_3002_5">
<rect width="15" height="14" fill="white" transform="translate(8 9)"/>
</clipPath>
</defs>
</svg>
