<svg width="37" height="35" viewBox="0 0 37 35" fill="none" xmlns="http://www.w3.org/2000/svg">
<path d="M34.1886 1.94945C33.0692 0.840042 31.5974 0.158947 30.0292 0.0245369C28.4609 -0.109873 26.8952 0.310899 25.6042 1.21373C29.7541 2.94603 33.1441 6.11695 35.1554 10.1476C35.9317 8.86947 36.2584 7.36734 36.0831 5.88123C35.9079 4.39511 35.2408 3.01078 34.1886 1.94945Z" fill="white"/>
<path d="M10.8347 1.471C9.5491 0.447262 7.93418 -0.0692436 6.29477 0.0189658C4.65536 0.107175 3.10485 0.793998 1.93589 1.94981C0.776565 3.11986 0.0899483 4.67856 0.00823179 6.32579C-0.0734847 7.97303 0.455477 9.59235 1.49327 10.872C3.36218 6.70288 6.68354 3.36036 10.8347 1.471Z" fill="white"/>
<path d="M18.4987 2.13452C15.2791 2.14119 12.1336 3.10327 9.45846 4.8995C6.78338 6.69572 4.69848 9.24571 3.46656 12.2281C2.23463 15.2104 1.9108 18.4917 2.53589 21.6583C3.16097 24.8249 4.707 27.7351 6.97911 30.0221L4.00895 33.0001C3.90111 33.1105 3.81602 33.2411 3.75854 33.3845C3.70106 33.5279 3.6723 33.6812 3.67393 33.8358C3.67555 33.9903 3.70751 34.143 3.76799 34.2851C3.82847 34.4273 3.91629 34.5561 4.02642 34.6642C4.13655 34.7723 4.26684 34.8576 4.40986 34.9153C4.55287 34.9729 4.70581 35.0017 4.85993 35.0001C5.01406 34.9985 5.16636 34.9664 5.30813 34.9058C5.4499 34.8451 5.57838 34.7571 5.68621 34.6467L8.7845 31.5403C11.6178 33.69 15.0778 34.8455 18.6309 34.8286C22.184 34.8117 25.6329 33.6234 28.4458 31.4469L31.6373 34.6467C31.8601 34.838 32.1467 34.938 32.4399 34.9266C32.733 34.9153 33.0111 34.7934 33.2185 34.5854C33.426 34.3775 33.5475 34.0987 33.5588 33.8047C33.5701 33.5108 33.4704 33.2235 33.2796 33.0001L30.1464 29.9053C32.3865 27.6047 33.9004 24.693 34.4987 21.5343C35.097 18.3755 34.7531 15.1101 33.51 12.1463C32.2669 9.18249 30.1798 6.65197 27.5099 4.87122C24.8399 3.09047 21.7054 2.13855 18.4987 2.13452ZM27.1995 22.4897C27.0661 22.7679 26.8282 22.9818 26.5379 23.0846C26.2476 23.1875 25.9285 23.1709 25.6504 23.0385L17.3339 18.9979V8.77943C17.3339 8.4697 17.4566 8.17266 17.6751 7.95365C17.8935 7.73464 18.1898 7.61161 18.4987 7.61161C18.8076 7.61161 19.1039 7.73464 19.3223 7.95365C19.5407 8.17266 19.6634 8.4697 19.6634 8.77943V17.5381L26.6521 20.9365C26.7915 21.0006 26.9169 21.0917 27.0211 21.2046C27.1253 21.3174 27.2063 21.4498 27.2593 21.5942C27.3123 21.7385 27.3364 21.8919 27.3301 22.0456C27.3239 22.1992 27.2874 22.3502 27.2228 22.4897H27.1995Z" fill="white"/>
</svg>
