<svg width="81" height="80" viewBox="0 0 81 80" fill="none" xmlns="http://www.w3.org/2000/svg">
<g clip-path="url(#clip0_329_220)">
<path fill-rule="evenodd" clip-rule="evenodd" d="M43.7761 69.3395H58.2187C59.3789 68.1893 60.6511 66.9931 61.9431 65.7772C64.6523 63.2205 67.4802 60.5521 70.3872 57.2133C73.7094 53.3947 74.0654 52.0736 75.0739 48.3339C75.2651 47.6306 75.476 46.8419 75.7529 45.8626L77.4799 39.8094L77.4997 39.7437C78.4226 37.049 78.4951 35.2678 78.1127 34.2425C77.9941 33.927 77.8425 33.7167 77.6645 33.605C77.5261 33.513 77.3415 33.4801 77.1503 33.4998C76.7021 33.5458 76.1945 33.8285 75.7331 34.3345L70.6047 46.5133C70.5585 46.625 70.4926 46.7302 70.4201 46.8222C70.1169 47.3677 69.7082 47.9001 69.1809 48.4062L60.0842 58.5212C59.5898 59.0733 58.7394 59.1193 58.1923 58.6264C57.6386 58.1334 57.5925 57.2856 58.0869 56.7401L67.1901 46.625C67.2297 46.579 67.2692 46.533 67.3154 46.4936C68.258 45.5997 68.5546 44.6336 68.3898 43.9303C68.3371 43.7134 68.2448 43.5294 68.113 43.4045C67.9877 43.2862 67.8229 43.2139 67.6186 43.1942C66.8078 43.1088 65.6147 43.7069 64.1579 45.4223C64.1184 45.4683 64.0722 45.5143 64.0261 45.5603L60.4995 48.6625L60.4797 48.6822C56.663 52.2839 55.0217 53.1383 52.029 54.696C51.4028 55.0246 50.7172 55.3796 49.8669 55.8396C49.5307 56.0237 49.2011 56.2471 48.8781 56.4903C48.5353 56.7532 48.2058 57.0227 47.8959 57.2856C46.3139 58.6132 45.4833 59.6911 45.0087 60.8807C44.5143 62.1163 44.3364 63.6214 44.0925 65.6852C43.9936 66.5199 43.9211 67.3414 43.8618 68.163C43.8156 68.5573 43.7958 68.9517 43.7761 69.3395ZM40.4999 0L18.4306 21.5511L23.8161 24.3707L40.3549 7.05225L57.1838 24.3707L62.5693 21.5511L40.4999 0ZM25.9189 24.9359L40.5263 10.3648L55.0876 24.9359V40.1314H44.6989V29.3986H36.2087V40.1314H25.9189V24.9359ZM37.2238 69.3329H22.7746C21.6144 68.1827 20.3422 66.9865 19.0502 65.7706C16.341 63.2139 13.5131 60.5455 10.6061 57.2067C7.28388 53.3881 6.92792 52.067 5.91937 48.3273C5.72821 47.6241 5.51727 46.8354 5.24042 45.8561L3.51337 39.8028L3.49359 39.7371C2.57074 37.0424 2.49823 35.2613 2.88056 34.236C2.99921 33.9205 3.15082 33.7102 3.3288 33.5984C3.46723 33.5064 3.6518 33.4735 3.84296 33.4933C4.2912 33.5393 4.79877 33.8219 5.26019 34.328L10.3886 46.5067C10.4348 46.6185 10.5007 46.7236 10.5732 46.8156C10.8764 47.3612 11.2851 47.8935 11.8124 48.3996L20.9091 58.5146C21.4035 59.0667 22.2538 59.1127 22.801 58.6198C23.3547 58.1268 23.4008 57.279 22.9064 56.7335L13.8163 46.6119C13.7768 46.5659 13.7372 46.5199 13.6911 46.4804C12.7485 45.5866 12.4518 44.6204 12.6166 43.9172C12.6694 43.7003 12.7617 43.5163 12.8935 43.3914C13.0187 43.2731 13.1835 43.2008 13.3879 43.1811C14.1987 43.0956 15.3984 43.6937 16.8486 45.4091C16.8486 45.4091 16.9738 45.534 16.987 45.5472L20.5136 48.6494L20.5334 48.6691C24.35 52.2708 25.9914 53.1252 28.9841 54.6829C29.6103 55.0115 30.2958 55.3664 31.1462 55.8265C31.4824 56.0105 31.812 56.234 32.135 56.4772C32.4777 56.7401 32.8073 57.0095 33.1171 57.2724C34.6992 58.6001 35.5297 59.6779 36.0043 60.8676C36.4987 62.1032 36.6767 63.6083 36.9206 65.672C37.0195 66.5067 37.092 67.3283 37.1513 68.1498C37.1843 68.5573 37.204 68.9517 37.2238 69.3329ZM19.4128 69.7995C19.2084 70.0361 19.0832 70.3451 19.0832 70.6802V78.6592C19.0832 79.4019 19.6896 80 20.4279 80H38.6081C39.353 80 39.9528 79.3953 39.9528 78.6592V70.6014C39.9528 69.747 39.9001 68.8268 39.8408 67.9724C39.7814 67.0983 39.7023 66.2307 39.6035 65.3697C39.3398 63.1153 39.142 61.4657 38.5092 59.8817C37.8566 58.2583 36.8085 56.8584 34.864 55.2218C34.508 54.9195 34.1455 54.6171 33.7631 54.3345C33.361 54.0322 32.926 53.743 32.4382 53.4735C31.6472 53.0463 30.9089 52.6586 30.2365 52.3036C27.468 50.8577 25.9518 50.069 22.3857 46.7039C22.3593 46.6776 22.3264 46.6513 22.3 46.6316L18.8591 43.6017C16.7563 41.1502 14.6996 40.3352 13.1242 40.5061H13.1176C12.3464 40.5849 11.6872 40.8873 11.1599 41.3474L7.68598 33.0923H7.67938C7.62665 32.974 7.56073 32.8623 7.47504 32.7571C6.51264 31.607 5.29315 30.9366 4.12641 30.8183C3.3288 30.7394 2.55756 30.9103 1.88519 31.3441C1.24579 31.7581 0.718446 32.4022 0.388856 33.2895C-0.191222 34.834 -0.178038 37.233 0.955751 40.5521L2.66962 46.5659C2.92011 47.4335 3.13764 48.2682 3.34198 49.0043C4.46259 53.1778 4.8581 54.6566 8.59564 58.9418C11.5554 62.3398 14.4492 65.0739 17.2309 67.6898C17.9494 68.4062 18.6745 69.0897 19.4128 69.7995ZM21.9836 72.021C22.1616 72.0605 22.3461 72.0605 22.5307 72.021H37.2568V77.3184H21.7726V72.021H21.9836ZM61.5871 69.7995C61.7915 70.0361 61.9167 70.3451 61.9167 70.6802V78.6592C61.9167 79.4019 61.3168 80 60.572 80H42.3984C41.6535 80 41.0537 79.3953 41.0537 78.6592V70.6014C41.0537 70.5554 41.0537 70.5028 41.0602 70.4568C41.08 69.5958 41.113 68.7611 41.1657 67.9724C41.225 67.0983 41.3041 66.2307 41.403 65.3697C41.6667 63.1153 41.8644 61.4657 42.4973 59.8817C43.1498 58.2583 44.1979 56.8584 46.1425 55.2218C46.4985 54.9195 46.861 54.6171 47.2434 54.3345C47.6455 54.0322 48.0805 53.743 48.5683 53.4735C49.3593 53.0463 50.0976 52.6586 50.77 52.3036C53.5385 50.8577 55.0546 50.069 58.6208 46.7039C58.6472 46.6776 58.6801 46.6513 58.7065 46.6316L62.1474 43.6017C64.2502 41.1502 66.3068 40.3352 67.8823 40.5061H67.8889C68.6601 40.5849 69.3193 40.8873 69.8466 41.3474L73.3205 33.0923H73.3271C73.3798 32.974 73.4457 32.8623 73.5314 32.7571C74.4938 31.607 75.7133 30.9366 76.8801 30.8183C77.6777 30.7394 78.4489 30.9103 79.1213 31.3441C79.7607 31.7581 80.288 32.4022 80.6176 33.2895C81.1977 34.834 81.1845 37.233 80.0507 40.5521L78.3369 46.5659C78.0864 47.4335 77.8688 48.2682 77.6645 49.0043C76.5439 53.1778 76.1484 54.6566 72.4108 58.9418C69.4511 62.3398 66.5573 65.0739 63.7756 67.6898C63.0505 68.4062 62.3254 69.0897 61.5871 69.7995ZM59.0163 72.021C58.8383 72.0605 58.6538 72.0605 58.4692 72.021H43.7431V77.3184H59.2272V72.021H59.0163Z" fill="white"/>
</g>
<defs>
<clipPath id="clip0_329_220">
<rect width="81" height="80" fill="white"/>
</clipPath>
</defs>
</svg>
