<svg width="25" height="25" viewBox="0 0 25 25" fill="none" xmlns="http://www.w3.org/2000/svg">
<path d="M21.5312 24.9081H6.73032C6.4317 24.9081 6.19434 24.6708 6.19434 24.3721V3.2772C6.19434 2.97858 6.4317 2.74121 6.73032 2.74121H21.5312C21.8299 2.74121 22.0672 2.97858 22.0672 3.2772V24.3721C22.0749 24.6708 21.8299 24.9081 21.5312 24.9081Z" fill="#FCFCFD"/>
<path d="M0 22.098C0 15.6968 0 9.2879 0 2.87902C0.0842267 2.83308 0.0535988 2.74885 0.0689127 2.67994C0.413476 1.28637 1.28637 0.413476 2.6876 0.0689127C2.75651 0.0535988 2.84074 0.0842266 2.87902 0C9.27259 0 15.6662 0 22.0521 0C22.0674 0.0382848 22.098 0.0382848 22.1286 0.0459418C23.8132 0.336907 24.977 1.68453 24.977 3.39969C24.9847 9.45636 24.9847 15.513 24.977 21.5697C24.977 23.5069 23.4992 24.977 21.562 24.977C19.8698 24.9847 18.1776 24.977 16.4855 24.9847C16.3093 24.9847 16.2481 24.9541 16.2481 24.7626C16.2634 21.9372 16.2711 19.1041 16.2711 16.2787C16.2711 16.0873 16.3323 16.049 16.5084 16.0567C17.4273 16.0643 18.3461 16.0643 19.2649 16.0567C19.6708 16.0567 19.8622 15.8806 19.9081 15.4824C20.0077 14.6248 20.1072 13.7749 20.2144 12.9173C20.291 12.3124 20.0995 12.0904 19.4946 12.0904C18.4839 12.0904 17.4809 12.0904 16.4701 12.0904C16.3706 12.0904 16.2481 12.121 16.2557 11.9449C16.2787 11.0107 16.2021 10.0766 16.3017 9.14242C16.3553 8.61409 16.608 8.20061 17.1286 8.00919C17.3507 7.92496 17.5804 7.87136 17.8178 7.87136C18.3614 7.86371 18.9051 7.86371 19.4487 7.85605C19.9158 7.84839 20.1225 7.64931 20.1225 7.18989C20.1302 6.45482 20.1302 5.72741 20.1225 4.99234C20.1225 4.54058 19.9234 4.33384 19.464 4.33384C18.5452 4.33384 17.6263 4.29556 16.7075 4.35681C15.6891 4.42573 14.7473 4.72435 13.951 5.39816C12.902 6.27871 12.4732 7.46554 12.389 8.80551C12.3277 9.82389 12.366 10.8346 12.366 11.853C12.366 12.0368 12.3124 12.0904 12.1286 12.0904C11.4778 12.0827 10.827 12.0827 10.1761 12.0904C9.68606 12.0904 9.5023 12.2894 9.5023 12.7718C9.5023 13.6371 9.5023 14.4946 9.50995 15.3599C9.50995 15.8576 9.70904 16.0567 10.2067 16.0567C10.8652 16.0567 11.5237 16.0643 12.1822 16.0567C12.343 16.0567 12.389 16.1026 12.389 16.2634C12.3813 19.1041 12.3737 21.9372 12.366 24.7779C12.366 24.9158 12.3583 25 12.1746 25C9.19602 24.9923 6.22512 25.0077 3.24655 24.9847C1.7611 24.9617 0.467075 23.8821 0.0995406 22.4426C0.0765697 22.3277 0.0842267 22.1975 0 22.098Z" fill="#0075FE"/>
</svg>
