<svg width="87" height="60" viewBox="0 0 87 60" fill="none" xmlns="http://www.w3.org/2000/svg">
<path fill-rule="evenodd" clip-rule="evenodd" d="M20.6098 30.5569L20.532 35.2726H29.0847C30.8972 35.2726 32.3769 36.7458 32.3769 38.5503V41.828H32.3415V54.6429C32.3415 56.4474 30.8618 57.9206 29.0493 57.9206H25.757V43.0122C25.757 41.6588 26.0119 41.828 24.7021 41.828H16.2343V41.8069H12.0146C9.29587 41.8069 7.06564 39.5865 7.06564 36.8797V20.7378C7.06564 17.9817 9.33127 15.726 12.0996 15.726H14.5918C18.5424 15.726 18.9319 17.6081 19.9372 19.5747L24.1428 21.2242C27.1872 22.5916 26.4084 22.8595 28.4758 20.3078L31.1662 16.9948C32.4831 14.9013 37.687 17.0865 35.4568 20.6039L31.5556 25.9046C29.9343 28.1109 27.7749 28.4211 25.1623 27.3426L20.6169 25.7495V30.5569H20.6098ZM84.2951 54.8543C84.2668 54.6499 84.1819 54.4596 84.0261 54.3045C82.8862 53.1626 81.4489 52.2321 79.8064 51.5907C78.6594 51.1466 77.4062 50.8435 76.0964 50.7096L76.3442 46.8045H85.2722C86.1997 46.8045 86.9643 46.0432 86.9643 45.1198C86.9643 38.1414 85.3147 32.8971 86.9643 24.953C87.4529 22.5987 82.5747 22.2603 82.5747 25.0799V42.9629H65.6887C64.7612 42.9629 63.9966 44.2035 63.9966 45.1269V46.438C63.9966 46.6424 64.1665 46.8116 64.3718 46.8116H73.3281L73.675 50.6743C72.2873 50.766 70.9633 51.0479 69.7385 51.492C68.1667 52.063 66.7719 52.9018 65.6391 53.9309C65.3701 54.1776 65.271 54.5442 65.3559 54.8755C64.917 55.1997 64.6338 55.524 64.6338 56.3134C64.6338 57.1029 65.4409 58.1039 66.4321 58.1039C67.4233 58.1039 68.2304 57.1029 68.2304 56.3134C68.2304 55.524 67.9402 55.1927 67.4941 54.8684C68.3366 54.2199 69.3137 53.6772 70.3899 53.2895C71.5439 52.8665 72.8183 52.6128 74.1635 52.5705L74.3618 54.5089L74.3689 54.5935C73.6113 54.805 73.052 55.4112 73.052 56.3205C73.052 57.2298 73.8591 58.1109 74.8503 58.1109C75.8415 58.1109 76.6487 57.2227 76.6487 56.3205C76.6487 55.4182 76.0964 54.812 75.3459 54.6006L75.353 54.5089L75.4946 52.5916C76.7761 52.6762 77.9939 52.9511 79.0984 53.3811H79.1054C80.1816 53.797 81.1516 54.3609 81.9799 55.0446C81.6472 55.3689 81.4419 55.5804 81.4419 56.3205C81.4419 57.0606 82.249 58.1109 83.2402 58.1109C84.2314 58.1109 85.0385 57.11 85.0385 56.3205C85.0456 55.5099 84.7483 55.1786 84.2951 54.8543ZM69.8872 0.239662C66.0852 0.239662 62.9983 3.31297 62.9983 7.09821C62.9983 10.8835 66.0852 13.9568 69.8872 13.9568C73.6892 13.9568 76.7761 10.8835 76.7761 7.09821C76.769 3.31297 73.6892 0.239662 69.8872 0.239662ZM67.0197 27.1382L67.1543 35.2726H58.6015C56.789 35.2726 55.3093 36.7458 55.3093 38.5503V41.828H55.3447V54.6429C55.3447 56.4474 56.8244 57.9206 58.6369 57.9206H61.9292V42.7655C61.9292 41.3275 62.4743 41.828 64.1028 41.828H71.4519V41.8069H75.6716C78.3974 41.8069 80.6206 39.5865 80.6206 36.8797V19.7791C80.6206 17.023 78.3549 14.7674 75.5866 14.7674H73.0945C67.9118 14.7674 68.7331 18.32 66.4392 20.5545C64.1736 22.7608 64.74 23.0146 61.646 23.0146H54.9765C50.9975 23.0146 50.0205 28.1955 55.6916 28.1955H61.8088C64.5346 28.1955 64.7683 28.6255 67.0197 27.1382ZM60.4777 29.2528C49.7444 29.2528 41.4253 29.2528 30.6919 29.2528C30.529 29.2528 30.4016 29.3867 30.4016 29.5418V33.7148C30.4016 33.8769 30.5361 34.0038 30.6919 34.0038C36.2993 34.0038 37.5808 34.0038 43.1953 34.0038V59.5982C43.1953 59.8097 43.3723 59.9859 43.5847 59.9859H43.7334H43.7404H47.8611H47.8681H48.0168C48.2292 59.9859 48.4062 59.8097 48.4062 59.5982V34.0108C52.1091 34.0108 56.7749 34.0108 60.4777 34.0108C60.6335 34.0108 60.768 33.8769 60.768 33.7218V29.5489C60.768 29.3797 60.6335 29.2528 60.4777 29.2528ZM0.913055 25.9258H3.3132C3.80173 25.9258 4.12741 26.3346 4.20529 26.8139C5.11154 32.5094 5.60715 38.2049 5.57883 43.8933H22.0046C22.656 43.8933 23.1799 44.422 23.1799 45.0634V47.4319H22.2383V59.563C22.2383 59.7603 22.0754 59.9225 21.8772 59.9225H18.7265C18.5283 59.9225 18.3654 59.7603 18.3654 59.563V54.2904H4.93454C4.7363 55.8976 4.49557 57.5047 4.20529 59.1118C4.12033 59.5912 3.80173 60 3.3132 60H0.913055C0.42453 60 -0.113556 59.5841 0.0209657 59.1118C3.18576 48.1438 2.52731 37.4225 0.0209657 26.821C-0.0923155 26.3416 0.42453 25.9258 0.913055 25.9258ZM18.3725 52.6551V47.4389H5.52927C5.45847 49.6593 5.3027 50.4347 5.06198 52.6551H18.3725ZM14.436 0C18.238 0 21.3249 3.07331 21.3249 6.85855C21.3249 10.6438 18.238 13.7171 14.436 13.7171C10.634 13.7171 7.54709 10.6438 7.54709 6.85855C7.54709 3.07331 10.6269 0 14.436 0Z" fill="white"/>
</svg>
