<svg width="36" height="36" viewBox="0 0 36 36" fill="none" xmlns="http://www.w3.org/2000/svg">
<circle cx="18" cy="18" r="18" fill="url(#paint0_linear_124_1566)"/>
<g clip-path="url(#clip0_124_1566)">
<path d="M22.4551 27C22.4603 26.9166 22.4707 26.8331 22.4707 26.7496C22.4707 23.7493 22.4707 20.7491 22.4707 17.7488C22.4707 17.6653 22.4707 17.5818 22.4707 17.467C24.3278 17.467 26.164 17.467 28.0002 17.467C28.0002 20.4986 28.0002 23.5354 28.0002 26.567C27.9063 26.76 27.7655 26.9009 27.5725 26.9948C25.8614 27 24.1609 27 22.4551 27ZM24.4791 23.5563C24.4791 23.6867 24.4791 23.8172 24.4791 23.9476C24.4843 24.2868 24.7242 24.5372 25.0477 24.5477C25.3554 24.5581 25.6267 24.3233 25.6476 23.9998C25.6632 23.7128 25.6632 23.4258 25.6476 23.1441C25.6319 22.8258 25.3607 22.5857 25.0529 22.5962C24.7347 22.6014 24.4947 22.8519 24.4843 23.191C24.4791 23.3058 24.4791 23.431 24.4791 23.5563ZM24.4791 20.4412C24.4791 20.5717 24.4739 20.7021 24.4791 20.8326C24.4895 21.1613 24.7242 21.4065 25.0372 21.4169C25.345 21.4326 25.6215 21.1978 25.6424 20.8795C25.6632 20.5873 25.6632 20.2951 25.6424 20.0029C25.6215 19.6846 25.345 19.4498 25.0372 19.4655C24.7242 19.4759 24.4895 19.7264 24.4791 20.0499C24.4791 20.1803 24.4791 20.3108 24.4791 20.4412Z" fill="white"/>
<path d="M8.43315 27C8.0993 26.8435 7.99497 26.5774 8.00018 26.2121C8.01062 23.3841 8.0054 20.556 8.0054 17.7227C8.0054 17.6444 8.0054 17.5714 8.0054 17.4827C9.83639 17.4827 11.6465 17.4827 13.4723 17.4827C13.4775 17.5453 13.4827 17.6079 13.4827 17.6705C13.4827 20.7229 13.4827 23.7754 13.4827 26.8278C13.4827 26.8852 13.4723 26.9426 13.4671 27C11.7926 27 10.1129 27 8.43315 27ZM11.3752 20.4464C11.3752 20.3055 11.3857 20.1594 11.3752 20.0185C11.3544 19.7107 11.1196 19.4811 10.8223 19.4654C10.525 19.4498 10.2485 19.6637 10.2224 19.9664C10.1963 20.2847 10.1963 20.6029 10.2224 20.9212C10.2485 21.2239 10.525 21.4326 10.8223 21.4169C11.1144 21.4013 11.3492 21.1769 11.37 20.8795C11.3805 20.7334 11.3752 20.5925 11.3752 20.4464ZM11.3752 23.5719C11.3752 23.4206 11.3857 23.2693 11.37 23.1232C11.3492 22.8257 11.1092 22.6014 10.8171 22.5909C10.5302 22.5753 10.2537 22.7788 10.2276 23.0762C10.2015 23.3997 10.2015 23.7284 10.2224 24.0519C10.2485 24.3494 10.5145 24.5528 10.8067 24.5476C11.104 24.5424 11.3492 24.3128 11.37 24.005C11.3857 23.8589 11.3752 23.7128 11.3752 23.5719Z" fill="white"/>
<path d="M14.6455 27C14.6507 26.9166 14.6612 26.8331 14.6612 26.7496C14.6612 23.7493 14.6612 20.7491 14.6612 17.7488C14.6612 17.6653 14.6612 17.5818 14.6612 17.4879C16.8729 17.4879 19.0691 17.4879 21.2861 17.4879C21.2913 17.5505 21.2965 17.6131 21.2965 17.6705C21.2965 20.723 21.2965 23.7754 21.2965 26.8279C21.2965 26.8853 21.2861 26.9426 21.2809 27C20.7592 27 20.2376 27 19.7211 27C19.7211 26.0713 19.7472 25.1373 19.7211 24.2085C19.6951 23.3371 18.9387 22.6223 18.0675 22.5857C17.0347 22.544 16.2313 23.3267 16.2209 24.4016C16.2105 25.1895 16.2209 25.9773 16.2209 26.7652C16.2209 26.8435 16.2105 26.9218 16.2052 27C15.6836 27 15.1619 27 14.6455 27ZM17.3842 20.436C17.3842 20.3056 17.3894 20.1751 17.3842 20.0447C17.3737 19.7264 17.1442 19.4863 16.8416 19.4655C16.5339 19.4446 16.2522 19.669 16.2261 19.9873C16.2052 20.2847 16.2052 20.5821 16.2261 20.8795C16.247 21.203 16.5287 21.4274 16.8364 21.4117C17.1494 21.3961 17.3789 21.1508 17.3894 20.8221C17.3842 20.6917 17.3842 20.5664 17.3842 20.436ZM19.789 20.4516C19.789 20.316 19.7994 20.1803 19.789 20.0447C19.7681 19.7055 19.5021 19.4498 19.1838 19.4655C18.8656 19.4759 18.6257 19.7264 18.6205 20.0655C18.6153 20.316 18.6153 20.5717 18.6205 20.8221C18.6257 21.1508 18.8604 21.3961 19.1734 21.4117C19.4864 21.4274 19.7577 21.1874 19.7837 20.8586C19.7994 20.7282 19.789 20.5873 19.789 20.4516Z" fill="white"/>
<path d="M28.0004 14.6963C27.87 14.9677 27.6718 15.1294 27.3535 15.1399C27.1866 15.1451 27.0875 15.2703 27.0406 15.4216C26.9414 15.7451 26.9623 16.0478 27.2596 16.293C21.099 16.293 14.9592 16.293 8.7933 16.293C9.09064 16.0843 9.15845 15.813 9.06977 15.4947C9.00196 15.2599 8.86633 15.1503 8.62116 15.1294C8.24035 15.0929 8.00561 14.8633 8.01083 14.5294C8.02126 14.1902 8.2873 13.9554 8.6681 13.9554C14.8966 13.9554 21.1251 13.9554 27.3483 13.9502C27.6718 13.9502 27.8648 14.1172 28.0004 14.3833C28.0004 14.4876 28.0004 14.592 28.0004 14.6963Z" fill="white"/>
<path d="M17.3799 27C17.3851 26.5721 17.3903 26.1443 17.3955 25.7164C17.4007 25.2625 17.3903 24.8085 17.4007 24.3546C17.406 24.0415 17.6146 23.8119 17.8963 23.7649C18.1519 23.7232 18.4232 23.8745 18.5223 24.125C18.5484 24.198 18.564 24.2763 18.564 24.3546C18.5692 25.2207 18.564 26.0817 18.564 26.9478C18.564 26.9687 18.5536 26.9844 18.5536 27.0052C18.1571 27 17.7659 27 17.3799 27Z" fill="white"/>
<path d="M13.5918 12.7449C14.6403 12.3431 15.6888 11.9361 16.7373 11.5343C16.9147 11.4665 17.0868 11.3934 17.2642 11.336C17.3842 11.2995 17.4155 11.2317 17.4155 11.1117C17.4103 9.95332 17.4103 8.79496 17.4155 7.63659C17.4155 7.29743 17.6294 7.04698 17.9371 7.01045C18.2345 6.97393 18.4901 7.16699 18.5788 7.49049C18.5892 7.5218 18.5892 7.55311 18.5996 7.59485C19.3195 7.59485 20.0342 7.59485 20.7488 7.59485C21.0566 7.59485 21.2496 7.85052 21.1505 8.11664C21.1088 8.23143 21.0253 8.33057 20.9575 8.43492C20.7592 8.73756 20.7592 8.80539 20.9575 9.10281C21.0044 9.17064 21.0514 9.24369 21.0983 9.31674C21.2809 9.61937 21.1088 9.93766 20.754 9.94288C20.1124 9.9481 19.4656 9.94288 18.8239 9.94288C18.7561 9.94288 18.6831 9.94288 18.5944 9.94288C18.5944 10.376 18.5892 10.7882 18.5996 11.2004C18.5996 11.2473 18.6883 11.3152 18.7509 11.3413C19.909 11.79 21.067 12.2335 22.2251 12.677C22.2929 12.7031 22.3555 12.7292 22.4755 12.7814C19.4812 12.7814 16.5391 12.7814 13.6022 12.7814C13.597 12.7605 13.5918 12.7501 13.5918 12.7449Z" fill="white"/>
</g>
<defs>
<linearGradient id="paint0_linear_124_1566" x1="18" y1="0" x2="18" y2="36" gradientUnits="userSpaceOnUse">
<stop stop-color="#009DB8"/>
<stop offset="1" stop-color="#03C587"/>
</linearGradient>
<clipPath id="clip0_124_1566">
<rect width="20" height="20" fill="white" transform="translate(8 7)"/>
</clipPath>
</defs>
</svg>
