<svg width="62" height="100" viewBox="0 0 62 100" fill="none" xmlns="http://www.w3.org/2000/svg">
<path d="M59.2666 67.4941L58.5281 96.6784L58.2936 100H48.3948L48.0384 93.5986L45.1445 69.2028L59.2666 67.4941Z" fill="#ED9DA0"/>
<path d="M38.1581 21.7472C38.3988 21.0102 39.4672 20.794 40.107 21.2379C40.7468 21.6819 40.965 22.5531 40.8409 23.318C40.7167 24.0829 40.3122 24.7704 39.9154 25.4376C36.9505 30.4223 33.0549 44.5195 30.0892 49.5051C30.9753 50.077 31.9927 50.4174 33.0468 50.4945C34.1009 50.5716 35.1576 50.3829 36.1186 49.946C36.6273 50.8179 37.3739 51.5293 38.2724 51.9982C39.1709 52.4671 40.1846 52.6743 41.1966 52.5959C42.2086 52.5176 43.1776 52.1569 43.992 51.5555C44.8064 50.954 45.433 50.1363 45.7994 49.1966L44.341 52.5342C45.5649 52.1262 46.6768 51.4422 47.5896 50.5359C48.5023 49.6295 49.191 48.5254 49.6016 47.3104L48.0044 52.187C51.3493 50.1257 53.8723 36.9536 52.7283 32.8726C52.7078 32.8006 52.7111 32.724 52.738 32.654C52.7648 32.5841 52.8136 32.5246 52.8772 32.4844L52.8817 32.4815C52.9209 32.4569 52.955 32.425 52.982 32.3876C54.796 29.8618 54.0948 26.2757 52.5639 23.5612C51.0209 20.8264 48.7515 18.5257 47.394 15.6959C45.5915 11.9392 45.4207 7.32316 42.5697 4.27275C40.7606 2.33715 38.1033 1.35464 35.4597 1.06309C32.8161 0.771541 30.1477 1.106 27.5093 1.43993L27.692 1.01872C25.4213 -0.625455 22.1185 -0.130036 19.7952 1.4398C17.4719 3.00964 15.9049 5.43484 14.4026 7.7927L10.2741 14.2725C8.92621 16.3881 3.69472 25.697 3.2092 28.1533C2.72369 30.6097 3.31934 33.442 5.32048 34.9645L6.08081 31.042L5.84138 31.2475C7.54082 37.3834 7.53151 46.4616 1.97852 49.6416C3.20312 49.9827 4.49461 50.0117 5.7335 49.7259C6.97239 49.4401 8.11867 48.8488 9.06628 48.0067L5.51162 51.9531C7.44561 51.9152 9.32172 51.2914 10.8886 50.1655L8.16827 53.3677L15.434 49.6656L13.9227 53.4684L23.0078 51.7754" fill="#090814"/>
<path d="M15.979 92.2786L14.3042 99.978H48.3326L47.1077 95.8938L15.979 92.2786Z" fill="#090814"/>
<path d="M4.67677 86.4859L0.00528517 92.1984C0.00528517 92.1984 -0.345884 99.9781 4.67677 99.9781C9.69942 99.9781 17.1273 85.3995 17.1273 85.3995L11.9031 72.2823L3.48186 70.2291L4.67677 86.4859Z" fill="#ED9DA0"/>
<path d="M45.0892 25.3689C45.2288 22.3804 44.5313 19.4121 43.0741 16.7933C41.6169 14.1746 39.4571 12.0081 36.8345 10.5342C34.2118 9.06029 31.229 8.33679 28.2171 8.44399C25.2053 8.5512 22.2823 9.48491 19.7727 11.1415C17.2631 12.798 15.2652 15.1126 14.0007 17.8282C12.7362 20.5438 12.2547 23.5541 12.6095 26.5249C12.9644 29.4958 14.1418 32.3108 16.011 34.6576C17.8802 37.0043 20.3681 38.7909 23.1983 39.8189L25.377 60.6202L42.0517 48.0844C42.0517 48.0844 38.7898 43.5397 37.1622 38.51C39.4749 37.1407 41.4096 35.2236 42.7929 32.9302C44.1763 30.6368 44.9653 28.0387 45.0892 25.3685V25.3689Z" fill="#ED9DA0"/>
<path d="M39.2348 42.9514C39.2348 42.9514 33.3252 64.9494 23.7221 45.5911L11.0293 51.4354C11.0293 51.4354 11.9157 84.5793 14.575 89.2724C14.575 89.2724 11.7683 93.672 15.166 94.5519C18.5637 95.4318 16.7911 93.9652 18.564 95.4318C20.3369 96.8984 23.8826 94.4052 23.8826 94.4052C23.8826 94.4052 41.8175 101.196 47.1077 95.8938V73.9307C47.1077 73.9307 56.0907 65.8076 62.0002 71.6738C62.0002 71.6738 60.8183 53.0487 54.1699 48.9423C47.5215 44.836 39.2352 42.9514 39.2352 42.9514H39.2348Z" fill="#03C587"/>
<path d="M13.7627 52.975L11.0294 51.4354C11.0294 51.4354 0.465485 69.9872 1.64802 72.6269C2.83056 75.2667 16.7176 75.12 16.7176 75.12L13.7627 52.975Z" fill="#009DB8"/>
<path d="M27.3618 1.43991C30.0002 1.10597 32.6693 0.771645 35.3122 1.06306C37.9552 1.35447 40.6131 2.33713 42.4222 4.27272C45.2733 7.32287 45.444 11.9392 47.2464 15.696C48.604 18.5258 50.8739 20.8265 52.4163 23.5613C53.9472 26.2758 54.6483 29.8619 52.8344 32.3877C52.8073 32.4251 52.7733 32.457 52.7341 32.4816C52.6693 32.522 52.6198 32.5824 52.5931 32.6534C52.5663 32.7245 52.5639 32.8024 52.5861 32.875C53.759 36.5926 52.1287 41.0174 48.7879 43.0765L50.3851 38.1995C49.587 40.6291 47.0393 51.2126 44.5924 52.0056L46.0509 48.6683C45.6845 49.608 45.058 50.4257 44.2436 51.0271C43.4292 51.6286 42.4601 51.9893 41.4481 52.0676C40.4361 52.146 39.4224 51.9387 38.524 51.4699C37.6255 51.001 36.8788 50.2896 36.3701 49.4176C35.4091 49.8545 34.3525 50.0432 33.2984 49.9661C32.2443 49.8891 31.2269 49.5487 30.3408 48.9767C33.3058 43.9911 36.8029 30.4228 39.7679 25.4372C40.1647 24.77 40.5691 24.0826 40.6933 23.3176C40.8176 22.5525 40.5993 21.6814 39.9595 21.2375C39.3197 20.7936 38.2513 21.0097 38.0106 21.7468" fill="#090814"/>
<path d="M11.4643 46.1352L8.45931 69.3184C8.14594 69.1196 7.84499 68.9022 7.55811 68.6673L9.47863 45.9357L11.4643 46.1351V46.1352Z" fill="#090814"/>
<path d="M38.2007 21.6863L22.6879 9.36687L11.5459 28.1144V16.2857L24.4603 3.94116L34.8021 4.96778L38.2007 21.6863Z" fill="#090814"/>
<path d="M58.7492 80.1163L23.8129 95.6004C23.2432 95.8523 22.596 95.8695 22.0135 95.6482C21.431 95.427 20.9608 94.9853 20.706 94.4202L2.80247 54.6167C2.54863 54.0512 2.53119 53.4088 2.75397 52.8306C2.97674 52.2524 3.42154 51.7855 3.99072 51.5324L38.9277 36.0484C39.4974 35.7966 40.1444 35.7795 40.7267 36.0008C41.3091 36.222 41.7793 36.6636 42.0341 37.2285L59.9384 77.0329C60.1921 77.5985 60.2094 78.2409 59.9865 78.8191C59.7636 79.3973 59.3187 79.8641 58.7495 80.117L58.7492 80.1163Z" fill="#D6D6E3"/>
<path d="M57.1398 79.2761L24.7055 92.3054C24.1693 92.5424 23.5603 92.5585 23.012 92.3503C22.4638 92.1421 22.0212 91.7265 21.7813 91.1947L4.48166 55.2754C4.2429 54.7431 4.22663 54.1385 4.4364 53.5942C4.64617 53.05 5.06487 52.6106 5.60061 52.3725L38.4828 37.7985C39.0191 37.5616 39.6281 37.5455 40.1764 37.7537C40.7246 37.962 41.1672 38.3776 41.4071 38.9094L58.2587 76.3735C58.4974 76.9058 58.5137 77.5103 58.3039 78.0545C58.0941 78.5987 57.6755 79.038 57.1398 79.2761Z" fill="white"/>
<path d="M11.1022 63.7628L9.70257 91.5332L0.00537109 92.1984L3.40413 63.397C2.06277 61.9762 1.26027 59.8574 1.3728 57.5258C1.56967 53.4457 4.4865 50.2701 7.88779 50.4319C11.2891 50.5936 13.8872 54.0313 13.6897 58.1114C13.5771 60.443 12.5742 62.476 11.1022 63.7628Z" fill="#ED9DA0"/>
<path d="M44.4375 79.3251L46.7189 79.0471L47.189 82.8477C47.189 82.8477 46.5185 81.8025 45.9481 81.872C45.3778 81.9416 44.9076 83.1258 44.9076 83.1258L44.4375 79.3251Z" fill="#090814"/>
<path d="M47.0786 78.9832L48.8135 77.4862L51.3442 80.3761C51.3442 80.3761 50.4415 80.1928 50.0078 80.567C49.5741 80.9412 49.6094 81.8731 49.6094 81.8731L47.0786 78.9832Z" fill="#090814"/>
<path d="M37.9301 55.8513L19.6932 63.9124C19.403 64.0407 19.0734 64.0493 18.7768 63.9363C18.4802 63.8233 18.241 63.598 18.1118 63.3099C17.9825 63.0219 17.9739 62.6946 18.0877 62.4002C18.2015 62.1058 18.4285 61.8684 18.7187 61.7401L36.9556 53.679C37.2458 53.5507 37.5754 53.5421 37.872 53.6551C38.1686 53.7681 38.4078 53.9934 38.537 54.2815C38.6663 54.5695 38.6749 54.8968 38.5611 55.1912C38.4473 55.4856 38.2203 55.723 37.9301 55.8513Z" fill="#090814"/>
<path d="M21.4587 57.1305L17.4466 58.9039C17.1564 59.0322 16.8268 59.0408 16.5302 58.9278C16.2336 58.8148 15.9944 58.5895 15.8652 58.3014C15.736 58.0134 15.7273 57.6861 15.8411 57.3917C15.955 57.0973 16.1819 56.8599 16.4721 56.7316L20.4842 54.9582C20.7745 54.8299 21.1041 54.8213 21.4007 54.9343C21.6973 55.0473 21.9365 55.2726 22.0657 55.5607C22.1949 55.8487 22.2036 56.176 22.0898 56.4704C21.9759 56.7648 21.7489 57.0022 21.4587 57.1305Z" fill="#03C38A"/>
<path d="M40.1771 60.8597L21.9403 68.9209C21.6501 69.0491 21.3204 69.0577 21.0239 68.9447C20.7273 68.8317 20.4881 68.6064 20.3588 68.3183C20.2296 68.0303 20.221 67.703 20.3348 67.4086C20.4486 67.1142 20.6756 66.8768 20.9658 66.7485L39.2027 58.6874C39.4929 58.5591 39.8225 58.5505 40.1191 58.6635C40.4157 58.7765 40.6549 59.0018 40.7841 59.2899C40.9133 59.578 40.922 59.9052 40.8082 60.1996C40.6943 60.494 40.4673 60.7315 40.1771 60.8597Z" fill="#090814"/>
<path d="M42.4237 65.8682L24.1869 73.9293C23.8967 74.0576 23.567 74.0662 23.2704 73.9532C22.9739 73.8402 22.7346 73.6149 22.6054 73.3268C22.4762 73.0388 22.4675 72.7115 22.5814 72.4171C22.6952 72.1227 22.9222 71.8853 23.2124 71.757L41.4492 63.6959C41.7394 63.5676 42.0691 63.559 42.3657 63.672C42.6622 63.785 42.9015 64.0103 43.0307 64.2984C43.1599 64.5864 43.1686 64.9137 43.0547 65.2081C42.9409 65.5025 42.7139 65.7399 42.4237 65.8682Z" fill="#090814"/>
<path d="M42.9422 71.0613C43.8034 70.6807 44.7588 70.5621 45.6879 70.7205C46.6169 70.8789 47.4777 71.3072 48.1615 71.9513C48.8453 72.5953 49.3214 73.4262 49.5294 74.3388C49.7375 75.2514 49.6683 76.2048 49.3306 77.0784C48.9928 77.952 48.4017 78.7065 47.6319 79.2466C46.8621 79.7867 45.9483 80.088 45.006 80.1126C44.0637 80.1371 43.1352 79.8837 42.338 79.3845C41.5408 78.8852 40.9106 78.1625 40.5271 77.3077C40.0129 76.1615 39.9785 74.8594 40.4314 73.688C40.8844 72.5166 41.7875 71.5717 42.9422 71.0613Z" fill="#03C587"/>
<path d="M45.3446 77.9075C45.2694 77.9407 45.1874 77.9561 45.1052 77.9524C45.023 77.9487 44.9428 77.9261 44.8709 77.8863L42.9778 76.8392C42.855 76.7713 42.7644 76.6577 42.7259 76.5234C42.6875 76.3891 42.7043 76.2452 42.7728 76.1233C42.8412 76.0014 42.9557 75.9114 43.0909 75.8733C43.2262 75.8351 43.3712 75.8518 43.494 75.9198L44.7325 76.6047L45.3952 72.7508C45.4059 72.6817 45.4303 72.6155 45.467 72.5559C45.5038 72.4963 45.5521 72.4446 45.6092 72.4037C45.6663 72.3628 45.731 72.3337 45.7995 72.3179C45.8681 72.3021 45.9391 72.3 46.0085 72.3118C46.0779 72.3235 46.1442 72.3489 46.2036 72.3863C46.263 72.4238 46.3143 72.4726 46.3545 72.53C46.3947 72.5873 46.423 72.652 46.4378 72.7203C46.4525 72.7886 46.4534 72.8592 46.4404 72.9278L45.6515 77.5151C45.6372 77.598 45.6032 77.6763 45.5522 77.7434C45.5012 77.8106 45.4348 77.8646 45.3584 77.9011L45.3446 77.9075Z" fill="white"/>
</svg>
