<svg width="36" height="40" viewBox="0 0 36 40" fill="none" xmlns="http://www.w3.org/2000/svg">
<g clip-path="url(#clip0_339_416)">
<path d="M0.0162543 21.1816C0.00650172 21.4453 0 21.7122 0 21.9792C0 23.2227 0.120282 24.4238 0.357594 25.6022C0.581904 26.7578 0.929745 27.8711 1.39462 28.9648C1.39462 28.9779 1.40762 28.9974 1.41412 29.0104C1.87574 30.1009 2.43814 31.1198 3.07856 32.0801C3.71573 33.0436 4.45042 33.929 5.25989 34.7396C6.06935 35.5599 6.95684 36.2858 7.91584 36.9206C8.87809 37.5684 9.90211 38.1217 10.9814 38.5872C12.0834 39.0625 13.218 39.4076 14.3818 39.6452C15.5424 39.8796 16.7517 40 17.9935 40C19.2353 40 20.4349 39.8796 21.6117 39.6419C22.7658 39.4173 23.8775 39.069 24.9698 38.6035C24.9828 38.6035 25.0023 38.5905 25.0153 38.584C26.0946 38.1217 27.1219 37.5586 28.0809 36.9173C29.0432 36.2793 29.9274 35.5436 30.7369 34.7363C31.5561 33.9258 32.281 33.0371 32.9182 32.0768C33.5651 31.1133 34.1145 30.0879 34.5826 29.0072C35.0572 27.9036 35.4018 26.7676 35.6392 25.6022C35.8765 24.4336 35.9967 23.2227 35.9967 21.9792C35.9967 21.7122 35.9902 21.4486 35.9805 21.1849C24.0271 21.1816 11.9989 21.1816 0.0162543 21.1816ZM1.59617 22.7669H6.57323C6.75853 25.2311 7.57775 27.7051 9.03413 30.2051H3.76774C3.43291 29.6224 3.13058 29.0169 2.86075 28.3789C2.84775 28.3659 2.84775 28.3594 2.84125 28.3464C2.43164 27.3633 2.10656 26.3444 1.90175 25.2865C1.73596 24.4661 1.63193 23.6328 1.59617 22.7669ZM4.79176 31.7839H10.0484C11.547 33.9453 13.5268 36.1198 15.9877 38.3008C15.5456 38.2487 15.1132 38.1803 14.6939 38.0957C13.6243 37.8776 12.6003 37.5651 11.6056 37.1322C10.601 36.7025 9.6648 36.1914 8.78707 35.6055C7.91259 35.0228 7.11288 34.362 6.36843 33.6165C5.79628 33.0436 5.26639 32.4382 4.79176 31.7904V31.7839ZM20.0058 38.3008C22.4797 36.1165 24.4529 33.9453 25.9451 31.7839H31.2017C30.7271 32.4316 30.1972 33.0404 29.6251 33.61C28.8806 34.3555 28.0809 35.0163 27.2064 35.599C26.3417 36.1816 25.4022 36.6895 24.3879 37.1257C24.3749 37.1387 24.3684 37.1387 24.3554 37.1452C23.3737 37.5553 22.3561 37.8809 21.2996 38.0859C20.8673 38.1738 20.4349 38.2389 20.0058 38.291V38.3008ZM32.229 30.2051H26.9594C28.419 27.7083 29.2382 25.2344 29.4203 22.7669H34.3973C34.3551 23.6328 34.2575 24.4661 34.095 25.2865C33.8772 26.3574 33.5651 27.3828 33.1327 28.3789C32.8629 29.0137 32.5606 29.6224 32.229 30.2051ZM18.7867 37.2754V31.7839H24.0108C22.639 33.6003 20.8998 35.4264 18.7867 37.2754ZM18.7867 30.2051V22.7669H27.8436C27.6388 25.2116 26.7318 27.6855 25.1129 30.2051H18.7867ZM17.21 22.7669V30.2051H10.8839C9.26494 27.6855 8.35795 25.2083 8.15315 22.7669H17.21ZM17.21 31.7839V37.2754C15.0937 35.4264 13.3545 33.6003 11.9827 31.7839H17.21Z" fill="white"/>
<path fill-rule="evenodd" clip-rule="evenodd" d="M27.1186 12.4154L27.681 12.4024L28.1491 12.3894C27.5997 10.7064 27.785 9.16021 29.0984 7.84511C29.3194 8.56776 29.82 9.16347 30.6718 9.60292C31.0781 9.90565 31.4715 10.2702 31.8518 10.6902C31.9201 10.4102 31.6633 10.0749 31.3512 9.72662C31.6405 9.86985 31.9038 10.0684 32.0956 10.4525C32.3167 10.8985 32.3135 11.2761 32.2387 11.7579C32.2029 11.9825 32.1509 12.1908 32.0729 12.3861H32.8498C33.6691 10.6251 33.1489 8.01438 31.4715 6.91086C30.9546 6.57232 30.5872 6.58534 29.9826 6.58534C29.2902 6.58534 28.9358 6.60487 28.3442 6.99875C27.4729 7.57818 26.9365 8.57753 26.709 9.9675C26.6667 10.6609 26.6342 11.8588 27.1186 12.4154ZM0.312012 18.6557C0.38028 16.7546 2.65588 16.6797 4.4341 15.5697L5.62391 18.6557H0.312012ZM8.0263 17.6107H8.26036C8.47166 17.6107 8.64396 17.4382 8.64396 17.2266V16.6049C8.64396 16.3933 8.47166 16.2208 8.26036 16.2208H6.87224C6.66094 16.2208 6.48864 16.3933 6.48864 16.6049V17.2266C6.48864 17.4382 6.66094 17.6107 6.87224 17.6107H7.10956L6.90475 18.6557H8.2246L8.0263 17.6107ZM5.59791 14.2286C5.64342 13.8672 4.57714 12.6791 4.38209 12.0215C3.96598 11.3575 3.81644 10.6706 4.27156 9.9675C4.4536 9.68756 4.37558 8.9356 4.37558 8.55149C4.37558 4.73964 11.0496 4.73638 11.0496 8.55149C11.0496 9.03326 10.9391 9.66151 11.1991 10.0424C11.6347 10.6771 11.4104 11.4356 11.0398 12.0248C10.8058 12.7182 9.69074 13.8379 9.76551 14.2318C9.83377 16.185 5.5849 16.1198 5.59791 14.2286ZM16.5761 13.4799L18.247 18.392L19.089 15.4753L18.6761 15.0261C18.4876 14.7527 18.4485 14.5183 18.5526 14.3132C18.7769 13.8738 19.2353 13.9519 19.6644 13.9519C20.1162 13.9519 20.6754 13.8672 20.8152 14.4337C20.8607 14.6257 20.8022 14.821 20.6721 15.0261L20.2593 15.4753L21.1012 18.392L22.6129 13.4799C24.5797 15.254 28.5425 14.2156 29.0203 18.6524H9.63872C10.1426 13.9812 14.593 15.2702 16.5761 13.4799ZM15.2139 6.97597C15.2237 7.25266 15.3667 7.61399 15.6496 8.03391L15.6561 8.04042L16.5891 9.5248C16.9629 10.1205 17.3498 10.7227 17.8374 11.1654C18.2958 11.5886 18.8614 11.8751 19.5993 11.8751C20.4023 11.8783 20.9842 11.5788 21.4621 11.1329C21.9595 10.6674 22.3561 10.0228 22.7462 9.38157L23.7962 7.65305C24.0108 7.16477 24.0758 6.86855 24.0043 6.72532C23.9653 6.64394 23.819 6.61464 23.5849 6.6244C23.4224 6.66998 23.2338 6.66998 23.0095 6.60813L23.4354 4.97727C20.1455 5.31581 18.2958 2.23313 15.9519 4.57688L16.2575 6.51047C15.8771 6.5886 15.1879 6.3412 15.2139 6.97597ZM24.0693 6.06776C24.2903 6.13612 24.4496 6.25982 24.5472 6.45839C24.7064 6.77414 24.6414 7.24615 24.3456 7.91998C24.3391 7.933 24.3326 7.94276 24.3293 7.95579L23.2663 9.70709C22.8535 10.3842 22.4373 11.0645 21.8782 11.5886C21.2995 12.1355 20.5779 12.5001 19.5961 12.4935C18.6794 12.4903 17.9869 12.142 17.4213 11.6212C16.8751 11.1231 16.4623 10.4818 16.0689 9.85683L15.1359 8.37245C14.7913 7.85487 14.6125 7.38287 14.5995 6.99224C14.593 6.80344 14.6255 6.63743 14.6971 6.48443C14.7718 6.32818 14.8824 6.19472 15.0351 6.09055C15.1099 6.04498 15.1944 5.9994 15.2822 5.96685C15.2237 5.16607 15.2042 4.17323 15.2432 3.34315C15.2627 3.14133 15.3017 2.93951 15.357 2.73443C15.5943 1.88157 16.1957 1.19797 16.9336 0.722711C17.1937 0.559951 17.4798 0.416721 17.7821 0.309299C19.5701 -0.335232 21.9432 0.0195859 23.2143 1.39654C23.7344 1.95644 24.0595 2.70188 24.1278 3.68821L24.0693 6.06776ZM29.2576 15.6153L29.677 14.1537L29.4722 13.9291C29.3779 13.7956 29.3617 13.6752 29.4104 13.5743C29.521 13.3529 29.7518 13.3952 29.9663 13.3952C30.1906 13.3952 30.4702 13.3497 30.5417 13.6361C30.5645 13.7305 30.5352 13.8282 30.4735 13.9323L30.2654 14.1602L30.6848 15.6218L29.9696 16.1882L29.2576 15.6153ZM33.0156 15.1075C32.6971 14.4695 32.2939 13.9258 31.8226 13.418C32.7068 13.7598 33.6138 14.0984 34.2802 14.5215C34.7061 14.7885 34.9271 14.9903 35.0962 15.3126C35.4635 16.0027 35.5025 16.6179 35.5546 17.3666L35.6846 18.6557H30.5157C30.3759 18.06 30.2979 17.5619 30.0053 16.9011C30.8993 16.0189 31.8518 15.3028 33.0156 15.1075ZM26.6732 13.9942C27.1673 13.7761 27.6777 13.5906 28.1231 13.418C27.8695 13.6947 27.6355 13.9779 27.4242 14.2807C27.1869 14.183 26.9365 14.0853 26.6732 13.9942Z" fill="white"/>
</g>
<defs>
<clipPath id="clip0_339_416">
<rect width="36" height="40" fill="white"/>
</clipPath>
</defs>
</svg>
