<svg width="30" height="30" viewBox="0 0 30 30" fill="none" xmlns="http://www.w3.org/2000/svg">
<g clip-path="url(#clip0_1167_20)">
<path d="M29.7461 27.4576H20.5936V21.356H29.7461V27.4576Z" fill="#BDC3C7"/>
<path d="M15.0005 1.01695C18.365 1.01695 21.1022 3.75404 21.1022 7.11867C21.1022 10.4833 18.365 13.2203 15.0005 13.2203C11.6359 13.2203 8.89875 10.4832 8.89875 7.11861C8.89875 3.75398 11.6359 1.01695 15.0005 1.01695ZM15.0005 14.2373C18.9259 14.2373 22.1191 11.044 22.1191 7.11861C22.1191 3.19318 18.9259 0 15.0005 0C11.075 0 7.8818 3.19324 7.8818 7.11867C7.8818 11.0441 11.075 14.2373 15.0005 14.2373Z" fill="#8697CB"/>
<path d="M15.0008 1.01695C16.6111 1.01695 17.9713 3.811 17.9713 7.11867C17.9713 10.4263 16.6111 13.2203 15.0008 13.2203C13.3905 13.2203 12.0303 10.4263 12.0303 7.11861C12.0303 3.81094 13.3905 1.01695 15.0008 1.01695ZM15.0008 14.2373C17.2366 14.2373 18.9883 11.1107 18.9883 7.11861C18.9883 3.12656 17.2366 0 15.0008 0C12.765 0 11.0133 3.12662 11.0133 7.11867C11.0133 11.1107 12.765 14.2373 15.0008 14.2373Z" fill="#8697CB"/>
<path d="M15.5088 13.7288H14.4918V0.508423H15.5088V13.7288Z" fill="#8697CB"/>
<path d="M21.6104 7.62712H8.38996V6.61023H21.6104V7.62712Z" fill="#8697CB"/>
<path d="M24.1532 27.4576H26.1871C26.1871 28.8631 27.3241 30 28.7295 30H21.6108C23.0163 30 24.1532 28.8631 24.1532 27.4576Z" fill="#95A5A5"/>
<path d="M9.40723 27.4576H0.254706V21.356H9.40723V27.4576Z" fill="#BDC3C7"/>
<path d="M3.81433 27.4576H5.84824C5.84824 28.8631 6.9852 30 8.39062 30H1.27195C2.67738 30 3.81433 28.8631 3.81433 27.4576Z" fill="#95A5A5"/>
<path d="M4.83129 19.8305C5.11195 19.8305 5.33977 19.6032 5.33977 19.322V17.7966H24.6618V19.322C24.6618 19.6032 24.8896 19.8305 25.1702 19.8305C25.4509 19.8305 25.6787 19.6032 25.6787 19.322V17.2881C25.6787 17.0069 25.4509 16.7797 25.1702 16.7797H4.83123C4.55057 16.7797 4.32275 17.0069 4.32275 17.2881V19.322C4.32281 19.6032 4.55057 19.8305 4.83129 19.8305Z" fill="#C03A2B"/>
<path d="M15.0003 17.7967C15.281 17.7967 15.5088 17.5694 15.5088 17.2882V15.7627C15.5088 15.4816 15.281 15.2543 15.0003 15.2543C14.7196 15.2543 14.4918 15.4816 14.4918 15.7627V17.2882C14.4918 17.5694 14.7196 17.7967 15.0003 17.7967Z" fill="#C03A2B"/>
</g>
<defs>
<clipPath id="clip0_1167_20">
<rect width="30" height="30" fill="white" transform="matrix(-1 0 0 1 30 0)"/>
</clipPath>
</defs>
</svg>
