<svg width="32" height="30" viewBox="0 0 32 30" fill="none" xmlns="http://www.w3.org/2000/svg">
<path d="M23.7701 15.0006C23.7701 14.4813 23.9432 14.0082 24.2316 13.6159C24.0239 12.3813 23.5393 11.2447 22.847 10.2639C22.3681 10.1889 21.9066 9.98116 21.5431 9.61191C21.1796 9.24266 20.9604 8.78111 20.8911 8.30801C19.9103 7.61568 18.7737 7.13104 17.5391 6.92334C17.1525 7.21181 16.6736 7.3849 16.1544 7.3849C15.6351 7.3849 15.1621 7.21181 14.7697 6.92334C13.5351 7.13104 12.3985 7.61568 11.4177 8.30801C11.3427 8.78688 11.135 9.24843 10.7657 9.61191C10.3965 9.97539 9.93492 10.1946 9.46182 10.2639C8.76948 11.2447 8.28485 12.3813 8.07715 13.6159C8.36562 14.0025 8.53871 14.4813 8.53871 15.0006C8.53871 15.5198 8.36562 15.9929 8.07715 16.3853C8.28485 17.6199 8.76948 18.7565 9.46182 19.7373C9.94069 19.8123 10.4022 20.02 10.7657 20.3893C11.135 20.7585 11.3484 21.2201 11.4177 21.6932C12.3985 22.3855 13.5351 22.8701 14.7697 23.0778C15.1563 22.7894 15.6351 22.6163 16.1544 22.6163C16.6736 22.6163 17.1467 22.7894 17.5391 23.0778C18.7737 22.8701 19.9103 22.3855 20.8911 21.6932C20.9661 21.2143 21.1738 20.7527 21.5431 20.3893C21.9123 20.02 22.3739 19.8066 22.847 19.7373C23.5393 18.7565 24.0239 17.6199 24.2316 16.3853C23.9432 15.9987 23.7701 15.5198 23.7701 15.0006Z" fill="#274C77"/>
<path d="M16.1544 20.1931C19.0222 20.1931 21.3469 17.8684 21.3469 15.0006C21.3469 12.1329 19.0222 9.80811 16.1544 9.80811C13.2867 9.80811 10.9619 12.1329 10.9619 15.0006C10.9619 17.8684 13.2867 20.1931 16.1544 20.1931Z" fill="#F5DD90"/>
<path d="M1.1543 15.0006C1.1543 6.71566 7.86995 0 16.1549 0V2.30779C9.145 2.30779 3.46208 7.99071 3.46208 15.0006" fill="#6096BA"/>
<path d="M2.30779 18.4623L0 15.0006H4.61557L2.30779 18.4623Z" fill="#F76C5E"/>
<path d="M23.6552 27.9876C16.478 32.1301 7.30458 29.6723 3.16211 22.4951L5.15834 21.3412C8.66618 27.4107 16.4261 29.4934 22.4956 25.9856" fill="#6096BA"/>
<path d="M26.0721 25.2587L24.2316 28.9915L21.9238 24.9933L26.0721 25.2587Z" fill="#F76C5E"/>
<path d="M23.655 2.00781C30.8322 6.15029 33.29 15.3237 29.1475 22.5009L27.1513 21.3471C30.6591 15.2776 28.5763 7.51188 22.5068 4.00982" fill="#6096BA"/>
<path d="M20.0781 1.27504L24.2321 1.00964L21.9244 5.00788L20.0781 1.27504Z" fill="#F76C5E"/>
</svg>
