<svg width="44" height="30" viewBox="0 0 44 30" fill="none" xmlns="http://www.w3.org/2000/svg">
<path d="M36.5625 0H6.5625C5.01188 0 3.75 1.26188 3.75 2.8125V25.3125C3.75 25.5612 3.84877 25.7996 4.02459 25.9754C4.2004 26.1512 4.43886 26.25 4.6875 26.25H38.4375C38.6862 26.25 38.9246 26.1512 39.1004 25.9754C39.2762 25.7996 39.375 25.5612 39.375 25.3125V2.8125C39.375 1.26188 38.1131 0 36.5625 0Z" fill="#444444"/>
<path d="M0 23.4375V25.3125C0 27.8972 2.10281 30 4.6875 30H38.4375C41.0222 30 43.125 27.8972 43.125 25.3125V23.4375H0Z" fill="#E6E6E6"/>
<path d="M6.5625 2.8125H36.5625V20.625H6.5625V2.8125Z" fill="#43A6DD"/>
<path d="M24.375 26.25H18.75C18.5038 26.25 18.26 26.2015 18.0325 26.1073C17.805 26.013 17.5983 25.8749 17.4242 25.7008C17.2501 25.5267 17.112 25.32 17.0177 25.0925C16.9235 24.865 16.875 24.6212 16.875 24.375V23.4375H26.25V24.375C26.25 24.8723 26.0525 25.3492 25.7008 25.7008C25.3492 26.0525 24.8723 26.25 24.375 26.25Z" fill="#B3B3B3"/>
</svg>
