<svg width="12" height="12" viewBox="0 0 12 12" fill="none" xmlns="http://www.w3.org/2000/svg">
<path d="M10.69 8.7406C10.7078 8.7406 10.7251 8.74245 10.7421 8.74577C10.854 8.55066 10.956 8.34587 11.0482 8.1319C11.05 8.1276 11.0518 8.1235 11.054 8.1194C11.1925 7.79274 11.297 7.45348 11.3674 7.10191C11.422 6.82916 11.4557 6.54947 11.4685 6.26294H9.81873C9.78875 7.10025 9.53875 7.92604 9.07273 8.7406H10.69ZM10.4024 9.26658H8.74089C8.23659 9.99715 7.55719 10.7187 6.70591 11.4313C6.83941 11.4147 6.97144 11.3935 7.10191 11.3674C7.45797 11.2962 7.80153 11.1899 8.1321 11.0486L8.1319 11.0482C8.46794 10.9037 8.78093 10.7346 9.07029 10.5405C9.36023 10.346 9.62898 10.125 9.87596 9.87694L9.87694 9.87596C10.068 9.68563 10.2431 9.4824 10.4024 9.26658ZM5.29399 11.4312C4.44281 10.7187 3.76341 9.99715 3.25901 9.26658H1.59777C1.75705 9.4824 1.93205 9.68563 2.12306 9.87596L2.12404 9.87703C2.37111 10.1251 2.63987 10.346 2.92971 10.5405C3.21897 10.7346 3.53196 10.9037 3.8681 11.0482C3.8723 11.0501 3.8765 11.0519 3.8806 11.054C4.20726 11.1926 4.54652 11.297 4.89818 11.3674C5.02865 11.3935 5.16049 11.4147 5.29399 11.4312ZM1.25509 8.7406H2.92717C2.46125 7.92604 2.21115 7.10025 2.18137 6.26294H0.531743C0.544438 6.54947 0.57813 6.82906 0.63272 7.10182C0.703912 7.45787 0.81026 7.80143 0.951473 8.132L0.951863 8.1319C1.04317 8.34401 1.14415 8.54704 1.25509 8.7406ZM0.531743 5.73706H2.19162C2.25265 4.91674 2.52483 4.09085 3.01262 3.2594H1.25509C1.14415 3.45296 1.04317 3.65599 0.951863 3.8682C0.950008 3.8724 0.948055 3.87659 0.946101 3.8806C0.807526 4.20736 0.703131 4.54662 0.63272 4.89818C0.57813 5.17094 0.544438 5.45063 0.531743 5.73706ZM1.59777 2.73352H3.34954C3.84837 2.01466 4.50795 1.29161 5.331 0.56436C5.18491 0.58145 5.04067 0.604204 4.89828 0.63272C4.54213 0.703912 4.19867 0.810261 3.8681 0.951473L3.8682 0.951766C3.53206 1.0964 3.21907 1.26544 2.92981 1.45958C2.63996 1.65412 2.37121 1.87511 2.12414 2.12306L2.12306 2.12404C1.93205 2.31447 1.75705 2.5176 1.59777 2.73352ZM6.6689 0.564262C7.49196 1.29151 8.15153 2.01457 8.65046 2.73342H10.4023C10.2431 2.5176 10.068 2.31437 9.87684 2.12404L9.87586 2.12306C9.62889 1.87502 9.36013 1.65412 9.07019 1.45958C8.78083 1.26544 8.46784 1.0964 8.1318 0.951766C8.1276 0.950008 8.1234 0.948055 8.1194 0.946004C7.79264 0.807526 7.45338 0.703033 7.10182 0.63272C6.95943 0.604204 6.815 0.58145 6.6689 0.564262ZM10.7449 3.2594H8.98728C9.47517 4.09085 9.74734 4.91674 9.80838 5.73706H11.4684C11.4556 5.45053 11.4218 5.17094 11.3673 4.89818C11.296 4.54213 11.1897 4.19857 11.0485 3.868L11.0481 3.8682C10.9568 3.65599 10.8559 3.45296 10.7449 3.2594ZM4.79555 0.116993C5.18539 0.0389652 5.58696 0 6.00005 0C6.41314 0 6.81461 0.0389652 7.20445 0.116993C7.58864 0.193947 7.96208 0.309378 8.32487 0.463383C8.32985 0.465141 8.33464 0.466996 8.33932 0.469047C8.70095 0.624712 9.04216 0.809382 9.36189 1.02413C9.68103 1.23819 9.97625 1.48087 10.2473 1.75285C10.5192 2.02384 10.7619 2.31916 10.9759 2.63811C11.1904 2.95793 11.3753 3.29905 11.531 3.66087L11.5306 3.66097L11.531 3.66185C11.6879 4.02884 11.8053 4.40677 11.883 4.79555C11.961 5.18539 11.9999 5.58696 11.9999 6.00005C11.9999 6.41314 11.961 6.8148 11.883 7.20465C11.8062 7.58864 11.6905 7.96227 11.5366 8.32497C11.5349 8.32985 11.533 8.33464 11.5309 8.33933C11.3752 8.70115 11.1904 9.04216 10.9758 9.36199C10.7618 9.68104 10.5191 9.97625 10.2472 10.2473C9.97615 10.5192 9.68084 10.762 9.36179 10.976C9.04216 11.1906 8.70085 11.3755 8.33923 11.5311L8.33903 11.5307L8.33806 11.5311C7.97106 11.6879 7.59303 11.8053 7.20436 11.883C6.81451 11.961 6.41294 12 5.99995 12C5.58696 12 5.1853 11.961 4.79545 11.883C4.41136 11.8062 4.03783 11.6906 3.67493 11.5367C3.67015 11.5349 3.66536 11.5331 3.66058 11.531C3.29876 11.3754 2.95774 11.1906 2.63791 10.9759C2.31896 10.7619 2.02365 10.5191 1.75265 10.2472C1.48068 9.97616 1.238 9.68084 1.02403 9.36189C0.809382 9.04216 0.624614 8.70105 0.468949 8.33923L0.46934 8.33903L0.468949 8.33815C0.312112 7.97116 0.194728 7.59323 0.116993 7.20445C0.0390628 6.8147 0 6.41314 0 5.99995C0 5.58696 0.0390628 5.1853 0.117091 4.79545C0.193947 4.41136 0.309475 4.03783 0.463383 3.67503C0.46514 3.67024 0.466996 3.66536 0.469047 3.66067C0.624712 3.29886 0.809382 2.95774 1.02413 2.63791C1.23819 2.31896 1.48087 2.02365 1.75275 1.75265C2.02375 1.48068 2.31906 1.238 2.63801 1.02393C2.95784 0.809284 3.29895 0.624517 3.66067 0.468852L3.66077 0.469242L3.66165 0.468852C4.02874 0.31221 4.40677 0.194826 4.79555 0.116993ZM6.26304 0.905086V2.73352H8.00387C7.54645 2.13039 6.96685 1.52101 6.26304 0.905086ZM6.26304 3.2594V5.73706H9.28279C9.21453 4.92338 8.91277 4.09759 8.37282 3.2594H6.26304ZM6.26304 6.26294V8.7406H8.4613C8.98162 7.92067 9.26101 7.09469 9.29441 6.26294H6.26304ZM6.26304 9.26658V11.1174C7.00963 10.5038 7.62067 9.8868 8.09372 9.26658H6.26304ZM5.73706 11.1176V9.26658H3.90628C4.37923 9.8868 4.99027 10.5039 5.73706 11.1176ZM5.73706 8.7406V6.26294H2.70569C2.73899 7.09479 3.01829 7.92067 3.5388 8.7406H5.73706ZM5.73706 5.73706V3.2594H3.62728C3.08733 4.09759 2.78557 4.92348 2.71721 5.73706H5.73706ZM5.73706 2.73352V0.90489C5.03324 1.52081 4.45355 2.13039 3.99613 2.73352H5.73706Z" fill="#535353"/>
</svg>
