<svg width="20" height="20" viewBox="0 0 20 20" fill="none" xmlns="http://www.w3.org/2000/svg">
<path d="M18.3337 10.8333V7.49996C18.3337 3.33329 16.667 1.66663 12.5003 1.66663H7.50032C3.33366 1.66663 1.66699 3.33329 1.66699 7.49996V12.5C1.66699 16.6666 3.33366 18.3333 7.50032 18.3333H10.8337" stroke="#FF9D00" stroke-linecap="round" stroke-linejoin="round"/>
<path d="M18.3337 10.8333V7.49996C18.3337 3.33329 16.667 1.66663 12.5003 1.66663H7.50032C3.33366 1.66663 1.66699 3.33329 1.66699 7.49996V12.5C1.66699 16.6666 3.33366 18.3333 7.50032 18.3333H10.8337" stroke="#FF9D00" stroke-linecap="round" stroke-linejoin="round"/>
<path d="M18.3337 10.8333V7.49996C18.3337 3.33329 16.667 1.66663 12.5003 1.66663H7.50032C3.33366 1.66663 1.66699 3.33329 1.66699 7.49996V12.5C1.66699 16.6666 3.33366 18.3333 7.50032 18.3333H10.8337" stroke="#FF9D00" stroke-linecap="round" stroke-linejoin="round"/>
<path d="M13.333 16.1916L14.6497 17.5L17.4997 14.1666" stroke="#FF9D00" stroke-linecap="round" stroke-linejoin="round"/>
<path d="M5.83301 8.75V11.25" stroke="#FF9D00" stroke-linecap="round" stroke-linejoin="round"/>
<path d="M10 8.75V11.25" stroke="#FF9D00" stroke-linecap="round" stroke-linejoin="round"/>
<path d="M14.167 8.75V11.25" stroke="#FF9D00" stroke-linecap="round" stroke-linejoin="round"/>
</svg>
