<svg width="35" height="30" viewBox="0 0 35 30" fill="none" xmlns="http://www.w3.org/2000/svg">
<path d="M34.375 0.922485V29.0762L10.625 19.5762V10.4225L34.375 0.922485ZM0.625 10.625V19.375H3.125V10.625H0.625Z" fill="#FFFAEE"/>
<path d="M13.125 20.5775V24.375H6.875V20.625H10.625V9.375H3.125V20.625H4.375V26.875H15.625V21.5775L13.125 20.5775Z" fill="#D1712A"/>
<path d="M35 0L11.25 9.5V8.75H2.5V10H0V20H2.5V21.25H3.75V27.5H16.25V22.5L35 30V0ZM1.25 18.75V11.25H2.5V18.75H1.25ZM3.75 10H10V20H3.75V10ZM7.5 21.25H11.25V20.5L12.5 21V23.75H7.5V21.25ZM15 26.25H5V21.25H6.25V25H13.75V21.5L15 22V26.25ZM33.75 28.1538L11.25 19.1537V10.8463L33.75 1.84625V28.1538Z" fill="#231F20"/>
</svg>
