<svg width="26" height="30" viewBox="0 0 26 30" fill="none" xmlns="http://www.w3.org/2000/svg">
<path d="M24.2304 4.0384H21.9232V1.73123C21.9232 0.5589 21.3132 0 20.192 0H1.73123C0.613427 0 0 0.5589 0 1.73123V24.2304C0 25.3482 0.5589 25.9616 1.73123 25.9616H4.61434V28.2688C4.61434 29.3866 5.17324 30 6.34556 30H24.2304C25.3482 30 25.9616 29.4411 25.9616 28.2688V5.76622C25.9616 4.59389 25.3516 4.0384 24.2304 4.0384ZM11.5392 1.72782H15.5845V10.3056L14.1872 8.90151C14.0168 8.73111 13.7919 8.64592 13.567 8.64592C13.342 8.64251 13.1171 8.72771 12.9433 8.90151L11.5392 10.3056V1.72782ZM5.48336 24.2304H1.73123H2.88652C1.95274 24.2304 1.73123 23.6681 1.73123 23.0751V2.88311C1.73123 1.94934 2.29354 1.72782 2.88652 1.72782H9.80802V12.4015C9.80802 12.8786 10.1965 13.2671 10.6736 13.2671C10.8645 13.2671 11.0417 13.2057 11.1848 13.1001C11.2291 13.0694 11.27 13.0353 11.3075 12.9978L13.5636 10.7418L15.8128 12.9978C15.8503 13.0353 15.8912 13.0694 15.9355 13.1001C16.0786 13.2057 16.2524 13.2671 16.4433 13.2671C16.9204 13.2671 17.3055 12.8786 17.3055 12.4015V1.72782H19.0367C19.9705 1.72782 20.192 2.29013 20.192 2.88311V23.0751C20.192 24.0089 19.6297 24.2304 19.0367 24.2304H20.192H5.48336ZM24.2304 27.1135C24.2304 28.0473 23.6681 28.2688 23.0751 28.2688H24.2304H6.34897H7.50426C6.57049 28.2688 6.34897 27.7065 6.34897 27.1135V25.9582H20.1954C21.3132 25.9582 21.9266 25.3993 21.9266 24.227V5.76622H23.0819C24.0157 5.76622 24.2372 6.32852 24.2372 6.9215V27.1135H24.2304Z" fill="#FCA128"/>
</svg>
