<svg width="118" height="100" viewBox="0 0 118 100" fill="none" xmlns="http://www.w3.org/2000/svg">
<g clip-path="url(#clip0_752_885)">
<path d="M116.411 34.2156C116.55 34.7585 116.68 35.3041 116.801 35.8525H75.6035V34.2156H116.411Z" fill="#E6E6E6"/>
<path d="M115.098 29.9006C114.435 28.0214 113.662 26.1831 112.782 24.3955C112.512 23.8443 112.231 23.2987 111.939 22.7585C111.891 22.6659 111.84 22.5732 111.789 22.4805V34.6625H115.349V30.6255L115.098 29.9006Z" fill="#E6E6E6"/>
<path d="M112.782 24.3955H111.789V22.7585H111.939C112.231 23.2981 112.512 23.8438 112.782 24.3955Z" fill="#CCCCCC"/>
<path d="M115.098 29.9005H111.789V31.5375H115.349V30.6255L115.098 29.9005Z" fill="#CCCCCC"/>
<path d="M109.862 20.5269H106.302V34.6626H109.862V20.5269Z" fill="#E6E6E6"/>
<path d="M109.862 22.7588H106.302V24.3956H109.862V22.7588Z" fill="#CCCCCC"/>
<path d="M109.862 29.9011H106.302V31.5379H109.862V29.9011Z" fill="#CCCCCC"/>
<path d="M93.6294 20.4446H80.861C80.6642 20.4449 80.4756 20.5234 80.3364 20.6631C80.1973 20.8027 80.1189 20.992 80.1187 21.1894V34.0004C80.1189 34.0732 80.1295 34.1457 80.15 34.2155C80.1963 34.3686 80.2904 34.5027 80.4184 34.5981C80.5464 34.6934 80.7016 34.745 80.861 34.7452H93.6294C93.7888 34.745 93.944 34.6934 94.072 34.5981C94.2 34.5027 94.2941 34.3686 94.3404 34.2155C94.361 34.1457 94.3715 34.0732 94.3718 34.0004V21.1894C94.3715 20.992 94.2931 20.8027 94.154 20.6631C94.0148 20.5234 93.8262 20.4449 93.6294 20.4446Z" fill="#E6E6E6"/>
<path d="M92.722 21.3549H81.7682C81.5714 21.3552 81.3828 21.4337 81.2436 21.5733C81.1045 21.713 81.0262 21.9022 81.0259 22.0997V33.09C81.0262 33.2874 81.1045 33.4767 81.2436 33.6163C81.3828 33.7559 81.5714 33.8345 81.7682 33.8348H92.722C92.9188 33.8345 93.1074 33.7559 93.2466 33.6163C93.3857 33.4767 93.4641 33.2874 93.4644 33.09V22.0997C93.4641 21.9022 93.3857 21.713 93.2466 21.5733C93.1074 21.4337 92.9188 21.3552 92.722 21.3549Z" fill="white"/>
<path d="M90.8121 23.2716H83.6789C83.4821 23.2719 83.2934 23.3505 83.1543 23.4901C83.0151 23.6297 82.9368 23.819 82.9365 24.0164V31.1734C82.9368 31.3708 83.0151 31.5601 83.1543 31.6997C83.2934 31.8393 83.4821 31.9179 83.6789 31.9182H90.8121C91.0086 31.9172 91.1969 31.8384 91.3359 31.6989C91.4749 31.5594 91.5534 31.3706 91.5544 31.1734V24.0164C91.5541 23.819 91.4758 23.6297 91.3367 23.4901C91.1975 23.3505 91.0089 23.2719 90.8121 23.2716Z" fill="#CCCCCC"/>
<path d="M90.3719 29.911L88.8653 27.2927C88.8363 27.2424 88.7947 27.2006 88.7445 27.1715C88.6943 27.1425 88.6374 27.1272 88.5795 27.1272C88.5216 27.1272 88.4647 27.1425 88.4145 27.1715C88.3644 27.2006 88.3227 27.2424 88.2938 27.2927L87.1936 29.2046L85.7508 26.6975C85.7218 26.6472 85.6802 26.6054 85.63 26.5763C85.5799 26.5473 85.523 26.532 85.4651 26.532C85.4072 26.532 85.3503 26.5473 85.3001 26.5763C85.25 26.6054 85.2083 26.6472 85.1794 26.6975L83.6727 29.3158L81.8804 32.4307H85.3373L84.9948 33.0259H92.1644L90.3719 29.911Z" fill="white"/>
<path d="M89.8404 25.8836C90.4137 25.8836 90.8785 25.4172 90.8785 24.842C90.8785 24.2667 90.4137 23.8004 89.8404 23.8004C89.267 23.8004 88.8022 24.2667 88.8022 24.842C88.8022 25.4172 89.267 25.8836 89.8404 25.8836Z" fill="white"/>
<path d="M117.987 45.7819C117.975 45.1397 117.95 44.5008 117.911 43.8652C117.894 43.5606 117.875 43.2577 117.85 42.9548H110.885C110.688 42.9551 110.5 43.0337 110.36 43.1733C110.221 43.3129 110.143 43.5022 110.143 43.6997V56.5106C110.142 56.5692 110.149 56.6277 110.164 56.6844C110.203 56.8469 110.295 56.9915 110.426 57.0951C110.557 57.1986 110.718 57.2551 110.885 57.2554H117.305C117.338 57.0668 117.37 56.8748 117.398 56.6844C117.416 56.5719 117.434 56.4577 117.451 56.3451C117.49 56.0753 117.528 55.8055 117.563 55.5357C117.612 55.1683 117.657 54.7992 117.696 54.4284C117.842 53.0993 117.935 51.7559 117.977 50.3981V50.3964C117.992 49.885 117.999 49.3713 118 48.8555V46.8693C118 46.5052 117.997 46.1427 117.987 45.7819Z" fill="#E6E6E6"/>
<path d="M117.987 45.7818C117.975 45.1396 117.95 44.5007 117.911 43.8651H111.792C111.595 43.8654 111.407 43.944 111.268 44.0836C111.128 44.2232 111.05 44.4125 111.05 44.6099V55.6002C111.05 55.7977 111.128 55.9869 111.268 56.1266C111.407 56.2662 111.595 56.3447 111.792 56.345H117.451C117.49 56.0753 117.528 55.8055 117.563 55.5357C117.612 55.1682 117.657 54.7991 117.696 54.4284C117.841 53.0993 117.935 51.7558 117.977 50.398V50.3964C117.992 49.8849 117.999 49.3713 118 48.8554V46.8692C118 46.5051 117.997 46.1426 117.987 45.7818Z" fill="white"/>
<path d="M117.987 45.7819H113.703C113.506 45.7822 113.317 45.8607 113.178 46.0003C113.039 46.14 112.961 46.3292 112.96 46.5267V53.6836C112.961 53.8811 113.039 54.0703 113.178 54.2099C113.317 54.3496 113.506 54.4281 113.703 54.4284H117.697C117.842 53.0993 117.935 51.7559 117.977 50.3981V50.3965C117.992 49.885 118 49.3714 118 48.8555V46.8693C118 46.5052 117.997 46.1427 117.987 45.7819Z" fill="#CCCCCC"/>
<path d="M117.977 50.398C117.935 51.7553 117.842 53.0987 117.696 54.4284C117.657 54.7991 117.612 55.1682 117.563 55.5357H115.019L115.362 54.9415H111.904L112.96 53.1059L113.696 51.8265L115.204 49.208C115.232 49.1575 115.274 49.1154 115.324 49.0862C115.374 49.057 115.431 49.0416 115.489 49.0416C115.547 49.0416 115.604 49.057 115.654 49.0862C115.704 49.1154 115.746 49.1575 115.774 49.208L117.218 51.7156L117.977 50.398Z" fill="white"/>
<path d="M105.477 13.3852H75.6035V11.7483H103.996C104.501 12.2829 104.995 12.8286 105.477 13.3852Z" fill="#E6E6E6"/>
<path d="M91.4717 2.03259C92.6891 2.70459 93.8758 3.42458 95.0316 4.19258V12.1936H91.4717V2.03259Z" fill="#E6E6E6"/>
<path d="M95.031 7.43262H91.4717V9.06939H95.031V7.43262Z" fill="#CCCCCC"/>
<path d="M100.518 8.39668V12.1936H96.9585V5.53821C97.7883 6.14566 98.5994 6.77738 99.3918 7.43337C99.7711 7.74785 100.147 8.06895 100.518 8.39668Z" fill="#E6E6E6"/>
<path d="M100.518 8.39666V9.06865H96.9585V7.43335H99.3918C99.7711 7.74783 100.147 8.06893 100.518 8.39666Z" fill="#CCCCCC"/>
<path d="M87.8374 0.208552C88.7794 0.633919 89.7054 1.08743 90.6154 1.5691L89.883 3.05212L87.4497 7.98616L86.7256 9.45264L85.5923 11.7484L85.3431 12.2532L84.3286 11.7484L82.1543 10.6675L83.5351 7.86699H83.5368L84.2593 6.40052L86.6943 1.46647L87.4102 0.0165526L87.4184 0L87.8374 0.208552Z" fill="#E6E6E6"/>
<path d="M90.6073 1.58399L89.8831 3.05212L86.6943 1.46647L87.4103 0.0165516L87.4185 0L87.8376 0.208551L90.6073 1.58399Z" fill="#CCCCCC"/>
<path d="M84.2595 6.40095L83.5356 7.8678L86.7254 9.45228L87.4492 7.98543L84.2595 6.40095Z" fill="#CCCCCC"/>
<path d="M117.398 56.6843C117.37 56.8747 117.338 57.0667 117.305 57.2554C117.248 57.6129 117.185 57.9671 117.117 58.3213H75.6035V56.6843H117.398Z" fill="#E6E6E6"/>
<path d="M95.031 42.9952H91.4717V57.131H95.031V42.9952Z" fill="#E6E6E6"/>
<path d="M95.031 45.2273H91.4717V46.8641H95.031V45.2273Z" fill="#CCCCCC"/>
<path d="M95.031 52.3695H91.4717V54.0063H95.031V52.3695Z" fill="#CCCCCC"/>
<path d="M100.518 42.9952H96.959V57.131H100.518V42.9952Z" fill="#E6E6E6"/>
<path d="M100.518 45.2273H96.959V46.8641H100.518V45.2273Z" fill="#CCCCCC"/>
<path d="M100.518 52.3695H96.959V54.0063H100.518V52.3695Z" fill="#CCCCCC"/>
<path d="M88.4049 42.9368L82.1538 55.605L85.3436 57.1895L91.5946 44.5213L88.4049 42.9368Z" fill="#E6E6E6"/>
<path d="M87.4181 44.9371L86.6943 46.4039L89.8841 47.9884L90.6079 46.5216L87.4181 44.9371Z" fill="#CCCCCC"/>
<path d="M84.2595 51.3378L83.5356 52.8047L86.7254 54.3892L87.4492 52.9223L84.2595 51.3378Z" fill="#CCCCCC"/>
<path d="M48.302 62.9926C48.4507 63.0784 48.5925 63.1759 48.726 63.2842L63.4127 58.6984L64.2409 55.0425L69.9034 55.5754L69.0642 62.1905C68.9964 62.7249 68.7576 63.2228 68.3838 63.6095C68.0099 63.9962 67.5211 64.2507 66.9908 64.335L49.7067 67.0806C49.4546 67.6938 49.0223 68.2154 48.4675 68.5761C47.9126 68.9368 47.2615 69.1195 46.6006 69.0998C45.9398 69.0801 45.3005 68.8591 44.768 68.466C44.2354 68.073 43.8347 67.5265 43.6192 66.8994C43.4037 66.2723 43.3836 65.5942 43.5616 64.9554C43.7396 64.3165 44.1072 63.7472 44.6155 63.323C45.1239 62.8989 45.7489 62.6401 46.4074 62.5811C47.0659 62.5221 47.7267 62.6656 48.302 62.9926Z" fill="#FFB8B8"/>
<path d="M72.5203 57.7685L72.4229 56.1001V56.0984L72.3965 55.6416L72.1095 50.7291C72.1954 49.705 71.8733 48.6884 71.2138 47.902C70.5543 47.1156 69.6112 46.6234 68.5908 46.5333C68.2972 46.5068 68.0016 46.5146 67.7099 46.5564C66.8431 46.6794 66.0432 47.0925 65.4398 47.7289C64.8364 48.3652 64.465 49.1874 64.3857 50.0621L63.7902 52.5481L62.7493 56.8962C62.6756 57.2005 62.7061 57.5207 62.836 57.8054C62.9659 58.0901 63.1876 58.3225 63.4653 58.4653C63.6256 58.55 63.8011 58.6017 63.9816 58.6176L65.7171 58.7732L67.3882 58.9222L69.3166 59.0943L69.4552 59.1059L69.8115 59.139L71.0042 59.2449H71.0075C71.2067 59.261 71.4071 59.2345 71.5954 59.1672C71.7836 59.0999 71.9555 58.9932 72.0996 58.8543C72.2046 58.7516 72.2931 58.6333 72.3619 58.5034C72.4822 58.2781 72.5371 58.0235 72.5203 57.7685Z" fill="#03C587"/>
<path d="M88.6368 37.5379C88.6368 43.2027 83.4161 42.3459 76.9761 42.3459C70.5361 42.3459 65.3154 43.2027 65.3154 37.5379C65.3154 31.873 67.8656 21.8317 76.9761 21.8317C86.4005 21.8317 88.6368 31.873 88.6368 37.5379Z" fill="#2F2E41"/>
<path d="M82.4853 40.0306C85.5496 36.9561 85.5496 31.9714 82.4853 28.8969C79.4211 25.8225 74.4529 25.8225 71.3887 28.8969C68.3244 31.9714 68.3244 36.9561 71.3887 40.0306C74.4529 43.105 79.4211 43.105 82.4853 40.0306Z" fill="#FFB8B8"/>
<path d="M87.9828 45.6461C87.8318 45.5001 87.6714 45.3641 87.5028 45.2389C86.436 44.4303 85.0954 44.0742 83.7695 44.2474L69.3102 46.083C67.9858 46.248 66.7774 46.924 65.9413 47.9678C65.1052 49.0115 64.7071 50.3409 64.8314 51.6742C64.8726 52.1376 64.9189 52.6259 64.9699 53.134C65.036 53.7713 65.1102 54.4399 65.196 55.1318C65.3378 56.2954 65.5111 57.5235 65.7173 58.7732C65.8971 59.849 66.1017 60.9398 66.3359 62.0173C66.4036 62.3284 66.474 62.6385 66.547 62.9475C66.5469 62.9484 66.547 62.9493 66.5473 62.9502C66.5476 62.951 66.5481 62.9518 66.5487 62.9524C66.5569 62.9905 66.5652 63.0286 66.5751 63.065C66.5746 63.0679 66.5752 63.0708 66.5768 63.0733C66.6791 63.5036 66.7863 63.929 66.8985 64.3494C66.9413 64.505 66.9826 64.6589 67.0254 64.8112C67.1409 65.225 67.263 65.6305 67.3884 66.0294C68.3303 68.9971 69.5758 71.5245 71.2206 72.8685C71.242 72.8884 71.2635 72.9049 71.2865 72.9231L71.3526 72.9745L71.4482 72.9447L71.854 72.8238L72.2005 72.7179L76.714 71.3557L77.8374 71.0164L81.4469 69.9256H81.4485L84.7495 68.9292L85.152 68.8068L87.9878 67.951L88.0785 66.8884L88.2006 65.4782L88.2732 64.6308L88.8473 57.9472L89.1821 54.0477L89.5451 49.8138C89.6125 49.046 89.5071 48.2729 89.2367 47.5515C88.9663 46.8301 88.5378 46.1789 87.9828 45.6461Z" fill="#2F2E41"/>
<path d="M96.0675 77.9863C96.0296 77.8754 95.9933 77.7645 95.9553 77.6553C94.2595 72.6898 91.7586 68.9342 88.0782 66.8885C88.0766 66.8885 88.0766 66.8868 88.0749 66.8868L88.0122 66.8521L84.8053 67.966L84.4094 68.1034L83.9969 68.2474L83.9919 68.249L80.9896 69.2918L80.9846 69.2934L78.6289 70.1111H78.6272L76.448 70.8675H76.4464L75.9399 71.0446L72.1308 72.3671L71.6887 72.521L71.2928 72.6584L71.2317 72.6799L71.2202 72.8686L70.9481 77.6553L70.9299 77.9863L70.5901 83.9598L59.3047 100H67.0251C69.612 100.001 72.1952 99.8031 74.7522 99.4091L81.9958 91.5769C82.0565 91.5138 82.1333 91.4686 82.2177 91.4461C82.3022 91.4236 82.3911 91.4247 82.475 91.4492C82.5589 91.4737 82.6346 91.5208 82.6937 91.5853C82.7529 91.6498 82.7934 91.7293 82.8108 91.8152L83.8748 97.1117C89.1168 95.2519 94.0205 92.5448 98.3919 89.0975C97.8838 84.9844 97.1414 81.2354 96.0675 77.9863Z" fill="#2F2E41"/>
<path d="M67.8711 33.6914H70.9745L72.3437 29.845L72.6175 33.6914H74.1008L74.8994 31.4477L75.0592 33.6914H86.0809C86.0809 32.597 85.8661 31.5133 85.4486 30.5022C85.0312 29.4911 84.4194 28.5724 83.6481 27.7985C82.8768 27.0246 81.9611 26.4107 80.9533 25.9919C79.9456 25.5731 78.8655 25.3575 77.7747 25.3575H76.1773C73.9744 25.3575 71.8616 26.2356 70.3039 27.7985C68.7462 29.3614 67.8711 31.4812 67.8711 33.6914Z" fill="#2F2E41"/>
<path d="M48.7822 75.4022C48.2755 75.6158 47.7283 75.7153 47.1792 75.6938C46.63 75.6723 46.0923 75.5302 45.6038 75.2776C45.1153 75.0249 44.6879 74.6679 44.3518 74.2317C44.0157 73.7954 43.779 73.2905 43.6584 72.7525L30.3843 71.2442L34.8339 65.8979L46.7571 68.15C47.6713 68.0066 48.6061 68.2047 49.3844 68.7067C50.1628 69.2087 50.7306 69.9797 50.9802 70.8736C51.2298 71.7676 51.1439 72.7223 50.7388 73.557C50.3337 74.3916 49.6375 75.0482 48.7822 75.4022Z" fill="#A0616A"/>
<path d="M41.6256 65.5064L36.015 64.5L35.6076 64.4272C35.282 64.3688 34.9724 64.242 34.6991 64.0551C34.4258 63.8681 34.195 63.6253 34.0219 63.3425C33.8488 63.0597 33.7373 62.7434 33.6947 62.4143C33.6522 62.0852 33.6794 61.7508 33.7748 61.433L36.5297 52.2485L36.6122 51.9754C36.9562 50.808 36.8949 49.5581 36.4385 48.4302C35.9821 47.3023 35.1575 46.3633 34.0998 45.7669C33.3838 45.368 32.5858 45.1402 31.7678 45.1011C30.9497 45.0621 30.1338 45.2129 29.3833 45.5418C28.6329 45.8707 27.9681 46.3689 27.4408 46.9976C26.9135 47.6263 26.5378 48.3685 26.343 49.1666L22.8293 63.5549L22.699 64.0879C22.4535 65.0919 22.4268 66.1371 22.6205 67.1524C22.8142 68.1677 23.2239 69.1292 23.8215 69.9712C24.4191 70.8132 25.1907 71.5161 26.0837 72.0318C26.9766 72.5475 27.9698 72.8639 28.9957 72.9596C29.0072 72.9612 29.0171 72.9612 29.0287 72.9629L31.1321 73.1499L33.8605 73.3932L37.2919 73.6994L40.4939 73.9858C40.9133 74.0239 41.3317 73.9025 41.666 73.6455C42.0003 73.3886 42.2261 73.0149 42.2987 72.5987C42.3036 72.5756 42.3069 72.5524 42.3102 72.5292L42.9899 67.4379L42.9965 67.3916C43.0551 66.9605 42.945 66.5234 42.6895 66.1719C42.4339 65.8205 42.0526 65.5819 41.6256 65.5064Z" fill="#CCCCCC"/>
<path d="M32.9817 26.9298C30.7419 31.3479 28.9768 35.9048 24.0365 35.9048C21.6641 35.9048 19.3888 34.9592 17.7113 33.2761C16.0337 31.5929 15.0913 29.3101 15.0913 26.9298C15.0913 21.973 19.0965 18.0169 24.0365 17.9548C29.0572 17.8917 37.1504 18.7063 32.9817 26.9298Z" fill="#2F2E41"/>
<path d="M38.6 84.7279L38.397 82.6953L38.2452 82.7036L11.5718 83.993L11.6411 86.0503L11.7583 89.5742C15.8856 92.7286 20.4689 95.232 25.3498 96.9976L25.5231 95.6503C25.5382 95.5405 25.5907 95.4393 25.6716 95.3639C25.7526 95.2885 25.857 95.2435 25.9673 95.2365C26.0775 95.2294 26.1868 95.2609 26.2766 95.3254C26.3664 95.39 26.4312 95.4837 26.46 95.5907L26.9863 97.5587C31.238 98.9344 35.6534 99.7365 40.116 99.9438L38.6 84.7279Z" fill="#2F2E41"/>
<path d="M30.0249 33.7737C33.0891 30.6993 33.0891 25.7146 30.0249 22.6401C26.9606 19.5656 21.9925 19.5656 18.9282 22.6401C15.864 25.7146 15.864 30.6993 18.9282 33.7737C21.9925 36.8482 26.9606 36.8482 30.0249 33.7737Z" fill="#A0616A"/>
<path d="M40.1323 82.8327L38.5766 77.9863L38.5502 77.9036L38.471 77.6553L38.0273 76.2749C37.8837 75.8264 37.7468 75.3762 37.6198 74.9243C37.5026 74.5171 37.3932 74.1088 37.2915 73.6995C37.1464 73.1301 37.0144 72.5585 36.8956 71.9847C36.493 70.0565 36.2246 68.1026 36.0922 66.137C36.0559 65.5925 36.03 65.0468 36.0146 64.5001C35.918 61.1488 36.2187 57.7979 36.9104 54.5178C37.5126 51.6814 37.191 48.7259 35.9929 46.0867C34.7949 43.4474 32.7837 41.264 30.2557 39.858C28.5968 38.9381 26.7608 38.3856 24.8712 38.2376C24.7408 38.2277 24.6105 38.2194 24.4786 38.2111C22.4825 38.0846 20.4836 38.4094 18.6293 39.1617C16.7751 39.914 15.113 41.0745 13.7656 42.5576C13.044 43.3463 12.4172 44.2174 11.8982 45.1529C10.4581 47.7561 9.91747 50.7645 10.3607 53.7084L12.2149 66.1999L11.7926 71.4584L11.2944 77.6553L11.268 77.9863L10.7368 84.5938C10.7116 84.9018 10.786 85.2097 10.9488 85.472C11.1116 85.7343 11.3542 85.9371 11.6408 86.0503C11.8087 86.1178 11.9879 86.1521 12.1687 86.1513C12.1952 86.1513 12.2199 86.1513 12.2463 86.1496L38.5997 84.7278L38.8406 84.7146C39.0604 84.7031 39.2747 84.6411 39.4668 84.5333C39.6589 84.4255 39.8238 84.2749 39.9486 84.093C40.0735 83.9111 40.155 83.7028 40.1868 83.4843C40.2187 83.2658 40.2 83.0428 40.1323 82.8327Z" fill="#CCCCCC"/>
<path d="M32.8029 23.7576C31.0099 24.9976 28.8817 25.6575 26.704 25.6488C27.4808 26.1892 28.3651 26.5542 29.2961 26.7187C26.4007 27.3418 23.4083 27.3587 20.5062 26.7683C19.8611 26.6645 19.2386 26.45 18.6661 26.1342C18.1088 25.7948 17.6427 25.2544 17.5303 24.6101C17.3375 23.5047 18.1959 22.5005 19.088 21.8237C20.454 20.8032 22.0289 20.1002 23.6988 19.7654C25.3688 19.4306 27.092 19.4724 28.7439 19.8878C29.8225 20.1675 30.903 20.6401 31.6036 21.5092C32.3042 22.3783 32.5117 23.7182 31.8442 24.6131L32.8029 23.7576Z" fill="#2F2E41"/>
<path d="M33.204 73.7645C32.7021 73.989 32.1572 74.1004 31.6077 74.0908C31.0582 74.0812 30.5175 73.9508 30.0237 73.7089C29.5298 73.4669 29.0949 73.1193 28.7494 72.6904C28.404 72.2616 28.1564 71.7619 28.0243 71.2267L14.7207 70.007L19.0539 64.5654L31.0229 66.5579C31.9338 66.3947 32.8727 66.5724 33.6617 67.0574C34.4507 67.5424 35.035 68.3009 35.3038 69.1892C35.5727 70.0775 35.5074 71.0339 35.1204 71.8771C34.7334 72.7204 34.0515 73.3919 33.204 73.7645Z" fill="#A0616A"/>
<path d="M25.8366 64.0267L22.8293 63.5549L19.7955 63.0783C19.4688 63.027 19.1566 62.907 18.8793 62.7261C18.6021 62.5453 18.3662 62.3076 18.187 62.0287C18.0078 61.7498 17.8895 61.4361 17.8397 61.108C17.79 60.78 17.81 60.4452 17.8984 60.1254L20.5313 50.6082C20.8499 49.4337 20.7616 48.1854 20.2809 47.0677C19.8002 45.95 18.9555 45.0292 17.8852 44.456C17.1622 44.069 16.3592 43.8563 15.54 43.8347C14.7208 43.8132 13.9078 43.9834 13.1655 44.3319C12.421 44.6749 11.766 45.1866 11.2521 45.8268C10.7383 46.4671 10.3796 47.2182 10.2043 48.0212L6.88359 63.0187C6.65988 64.0303 6.65665 65.0785 6.87411 66.0915C7.09156 67.1046 7.52457 68.0585 8.14351 68.8881C8.76244 69.7176 9.5527 70.4032 10.4602 70.898C11.3677 71.3927 12.371 71.6849 13.4015 71.7546L24.8881 72.5276C25.3081 72.5563 25.7236 72.4258 26.0523 72.1619C26.381 71.898 26.5989 71.5199 26.6631 71.1025C26.6681 71.0793 26.6697 71.0561 26.673 71.033L27.2421 65.9284L27.2471 65.8821C27.2961 65.45 27.1767 65.0155 26.9138 64.6697C26.6509 64.3239 26.265 64.0935 25.8366 64.0267Z" fill="#CCCCCC"/>
<path d="M76.7249 56.1149L76.0364 56.4918L67.5552 61.1347L66.8668 61.5116C66.5328 61.6949 66.2849 62.0037 66.1775 62.3702C66.0701 62.7368 66.112 63.131 66.294 63.4666L72.6098 75.0805C72.7925 75.4157 73.1003 75.6644 73.4656 75.7721C73.8309 75.8799 74.2239 75.8379 74.5583 75.6553L74.5601 75.6543L84.4145 70.2596L84.4163 70.2586C84.7504 70.0752 84.9982 69.7664 85.1056 69.3999C85.213 69.0334 85.1711 68.6391 84.9891 68.3036L78.6734 56.6897C78.4906 56.3545 78.1829 56.1058 77.8176 55.998C77.4523 55.8903 77.0593 55.9323 76.7249 56.1149Z" fill="#E6E6E6"/>
<path d="M76.9227 56.4791L76.1073 56.9254L67.88 61.4294L67.0647 61.8757C66.8268 62.0063 66.6503 62.2262 66.5738 62.4872C66.4973 62.7482 66.5272 63.029 66.6568 63.268L72.9725 74.8819C73.1027 75.1205 73.3218 75.2977 73.582 75.3744C73.8421 75.4511 74.1219 75.4212 74.3601 75.2911L74.3619 75.2902L84.2163 69.8955L84.2181 69.8945C84.456 69.7639 84.6325 69.544 84.709 69.283C84.7855 69.022 84.7556 68.7412 84.626 68.5023L78.3103 56.8884C78.1801 56.6497 77.961 56.4726 77.7008 56.3958C77.4407 56.3191 77.1609 56.349 76.9227 56.4791Z" fill="white"/>
<path d="M77.1544 59.758C77.1238 59.7022 77.0724 59.6609 77.0116 59.6429C76.9507 59.6249 76.8852 59.6318 76.8294 59.662L76.5011 59.8424L73.154 61.6746C73.0986 61.7053 73.0575 61.7568 73.0398 61.8178C73.0221 61.8787 73.0292 61.9442 73.0595 62C73.0898 62.0558 73.1408 62.0972 73.2015 62.1153C73.2621 62.1335 73.3275 62.1268 73.3832 62.0967L77.0587 60.084C77.1143 60.0533 77.1555 60.0018 77.1734 59.9407C77.1913 59.8797 77.1845 59.814 77.1544 59.758Z" fill="#E6E6E6"/>
<path d="M78.4066 59.9947C78.3916 59.9671 78.3714 59.9427 78.347 59.923C78.3226 59.9033 78.2946 59.8886 78.2645 59.8798C78.2345 59.871 78.2029 59.8683 78.1718 59.8719C78.1407 59.8754 78.1106 59.8851 78.0832 59.9004L73.5417 62.3864C73.5141 62.4015 73.4899 62.4219 73.4702 62.4464C73.4505 62.471 73.4359 62.4991 73.4271 62.5293C73.4183 62.5595 73.4155 62.5912 73.4189 62.6225C73.4223 62.6537 73.4317 62.684 73.4468 62.7117C73.4619 62.7393 73.4822 62.7636 73.5066 62.7833C73.5311 62.8031 73.5591 62.8178 73.5892 62.8266C73.6193 62.8354 73.6509 62.8382 73.6821 62.8348C73.7133 62.8314 73.7435 62.8219 73.771 62.8068L73.9822 62.691L75.3035 61.9676H75.3052L78.3109 60.3208C78.3387 60.3059 78.3633 60.2856 78.3832 60.261C78.4031 60.2365 78.418 60.2082 78.4269 60.1779C78.4358 60.1475 78.4386 60.1157 78.4351 60.0842C78.4316 60.0528 78.4219 60.0223 78.4066 59.9947Z" fill="#E6E6E6"/>
<path d="M73.4706 63.9572L72.0288 61.304C72.0138 61.2773 71.9889 61.2577 71.9596 61.2493C71.9303 61.2409 71.8988 61.2445 71.8721 61.2593L71.1726 61.6416L70.8097 61.8402L68.8615 62.9062L68.4837 63.113C68.4571 63.1281 68.4376 63.1531 68.4292 63.1825C68.4209 63.2119 68.4245 63.2435 68.4392 63.2703L68.5315 63.4408L69.8809 65.9235C69.8956 65.95 69.9202 65.9696 69.9492 65.978C69.9783 65.9864 70.0095 65.9828 70.036 65.9682L72.362 64.6954L72.725 64.4968L73.4244 64.1144C73.4378 64.1072 73.4496 64.0974 73.4592 64.0856C73.4688 64.0737 73.4759 64.0601 73.4802 64.0455C73.4845 64.0309 73.4859 64.0155 73.4842 64.0004C73.4826 63.9852 73.478 63.9705 73.4706 63.9572Z" fill="#E6E6E6"/>
<path d="M78.9773 63.1246C78.9471 63.069 78.8961 63.0276 78.8354 63.0096C78.7748 62.9916 78.7096 62.9985 78.654 63.0287L73.6687 65.758C73.6247 65.7822 73.5894 65.8197 73.5677 65.8651C73.5461 65.9106 73.5393 65.9617 73.5483 66.0113C73.5518 66.0369 73.5602 66.0616 73.5731 66.0841C73.5857 66.1069 73.6018 66.1276 73.6209 66.1453L73.6225 66.147C73.6595 66.1803 73.7057 66.2013 73.755 66.2073C73.8044 66.2132 73.8543 66.2037 73.898 66.1801L78.8833 63.4507C78.9109 63.4356 78.9352 63.4151 78.9549 63.3905C78.9745 63.3658 78.9891 63.3376 78.9978 63.3073C79.0066 63.277 79.0093 63.2453 79.0057 63.2139C79.0022 63.1826 78.9926 63.1522 78.9773 63.1246Z" fill="#E6E6E6"/>
<path d="M80.2309 63.3612C80.2157 63.3336 80.1953 63.3093 80.1707 63.2896C80.1462 63.2699 80.118 63.2553 80.0879 63.2465C80.0577 63.2377 80.0261 63.235 79.9948 63.2385C79.9636 63.242 79.9334 63.2517 79.9059 63.2669L74.0545 66.4696C74.0105 66.493 73.9751 66.5298 73.9534 66.5748C73.9318 66.6197 73.925 66.6705 73.9341 66.7196V66.7212C73.9376 66.7469 73.946 66.7716 73.9589 66.7941C73.9716 66.8178 73.9883 66.839 74.0083 66.857C74.0449 66.891 74.0912 66.9125 74.1407 66.9184C74.1902 66.9244 74.2403 66.9145 74.2838 66.8901L80.1352 63.6873C80.1908 63.6567 80.2321 63.6052 80.2501 63.5441C80.268 63.483 80.2611 63.4173 80.2309 63.3612Z" fill="#E6E6E6"/>
<path d="M71.999 68.4146C72.5593 68.4146 73.0136 67.9589 73.0136 67.3967C73.0136 66.8344 72.5593 66.3787 71.999 66.3787C71.4386 66.3787 70.9844 66.8344 70.9844 67.3967C70.9844 67.9589 71.4386 68.4146 71.999 68.4146Z" fill="#E6E6E6"/>
<path d="M79.6941 51.646L79.0057 52.0229L70.5245 56.6658L69.8361 57.0427C69.502 57.2261 69.2541 57.5349 69.1467 57.9014C69.0394 58.2679 69.0813 58.6622 69.2633 58.9977L75.579 70.6116C75.7618 70.9468 76.0695 71.1955 76.4348 71.3033C76.8001 71.411 77.1931 71.369 77.5275 71.1864L77.5293 71.1854L87.3838 65.7907L87.3856 65.7897C87.7196 65.6064 87.9675 65.2976 88.0749 64.931C88.1823 64.5645 88.1404 64.1702 87.9584 63.8347L81.6426 52.2208C81.4599 51.8856 81.1521 51.6369 80.7868 51.5292C80.4215 51.4214 80.0285 51.4634 79.6941 51.646Z" fill="#CCCCCC"/>
<path d="M79.8924 52.0101L79.0771 52.4564L70.8498 56.9604L70.0344 57.4067C69.7965 57.5373 69.62 57.7572 69.5435 58.0182C69.467 58.2792 69.4969 58.56 69.6265 58.799L75.9422 70.4129C76.0724 70.6515 76.2916 70.8287 76.5517 70.9054C76.8118 70.9821 77.0917 70.9522 77.3298 70.8222L77.3316 70.8212L87.1861 65.4265L87.1879 65.4255C87.4257 65.2949 87.6023 65.075 87.6787 64.814C87.7552 64.553 87.7254 64.2722 87.5958 64.0333L81.28 52.4194C81.1499 52.1807 80.9307 52.0036 80.6706 51.9268C80.4104 51.8501 80.1306 51.88 79.8924 52.0101Z" fill="white"/>
<path d="M80.1237 55.2891C80.093 55.2333 80.0417 55.192 79.9808 55.174C79.92 55.156 79.8545 55.1629 79.7986 55.1931L78.1061 56.12L77.6342 56.3782L76.1232 57.2058C76.0678 57.2365 76.0268 57.2879 76.0091 57.3489C75.9914 57.4099 75.9984 57.4754 76.0287 57.5311C76.059 57.5869 76.11 57.6284 76.1707 57.6465C76.2314 57.6646 76.2967 57.6579 76.3525 57.6278L78.1341 56.6529L78.5069 56.4477L80.028 55.6152C80.0835 55.5844 80.1247 55.5329 80.1426 55.4719C80.1605 55.4108 80.1537 55.3451 80.1237 55.2891Z" fill="#CCCCCC"/>
<path d="M81.3758 55.5258C81.3609 55.4982 81.3406 55.4738 81.3162 55.4541C81.2919 55.4344 81.2638 55.4197 81.2338 55.4109C81.2037 55.4022 81.1722 55.3995 81.1411 55.403C81.1099 55.4065 81.0798 55.4162 81.0525 55.4315L78.6918 56.7242L78.3288 56.9228L76.5109 57.9175C76.4834 57.9326 76.4591 57.953 76.4394 57.9776C76.4198 58.0021 76.4051 58.0302 76.3963 58.0604C76.3875 58.0907 76.3847 58.1223 76.3881 58.1536C76.3915 58.1849 76.401 58.2152 76.416 58.2428C76.4311 58.2704 76.4514 58.2947 76.4759 58.3145C76.5003 58.3342 76.5284 58.3489 76.5585 58.3577C76.5886 58.3666 76.6201 58.3694 76.6513 58.366C76.6825 58.3626 76.7127 58.3531 76.7402 58.3379L78.5581 57.3432L78.9211 57.1446L81.2801 55.8519C81.3079 55.837 81.3325 55.8167 81.3524 55.7922C81.3723 55.7676 81.3872 55.7393 81.3961 55.709C81.405 55.6786 81.4078 55.6468 81.4043 55.6154C81.4008 55.5839 81.3911 55.5535 81.3758 55.5258Z" fill="#CCCCCC"/>
<path d="M76.4399 59.4882L75.29 57.3729L75.0921 57.0088L74.998 56.835C74.983 56.8083 74.9582 56.7887 74.9288 56.7803C74.8995 56.7719 74.8681 56.7755 74.8414 56.7903L72.5071 58.0681L71.4529 58.6441C71.4264 58.6591 71.4068 58.6841 71.3985 58.7135C71.3901 58.7429 71.3937 58.7745 71.4084 58.8013L71.5024 58.9734L71.6047 59.1638L71.7004 59.3376V59.3392L72.8502 61.4545C72.8649 61.481 72.8894 61.5006 72.9185 61.509C72.9476 61.5174 72.9787 61.5139 73.0052 61.4992L76.3936 59.6454C76.407 59.6382 76.4188 59.6284 76.4284 59.6166C76.438 59.6047 76.4452 59.5911 76.4495 59.5765C76.4538 59.5619 76.4551 59.5465 76.4535 59.5314C76.4518 59.5162 76.4472 59.5015 76.4399 59.4882Z" fill="#03C587"/>
<path d="M81.9467 58.6557C81.9165 58.6 81.8655 58.5586 81.8048 58.5406C81.7442 58.5226 81.679 58.5295 81.6234 58.5597L80.1337 59.3757L79.7708 59.5743L78.3323 60.3605L76.6381 61.289C76.6105 61.3041 76.5861 61.3246 76.5663 61.3491C76.5466 61.3737 76.5318 61.4019 76.5229 61.4322C76.5141 61.4625 76.5112 61.4942 76.5145 61.5256C76.5179 61.557 76.5274 61.5874 76.5424 61.6151C76.5575 61.6428 76.5778 61.6673 76.6023 61.6871C76.6268 61.7069 76.6549 61.7217 76.6851 61.7306C76.7153 61.7395 76.7469 61.7424 76.7782 61.7391C76.8095 61.7357 76.8398 61.7262 76.8674 61.7111L80.0002 59.9963L80.363 59.7977L81.8527 58.9817C81.8803 58.9666 81.9046 58.9461 81.9242 58.9215C81.9439 58.8968 81.9585 58.8686 81.9672 58.8383C81.976 58.808 81.9787 58.7763 81.9751 58.7449C81.9716 58.7136 81.962 58.6832 81.9467 58.6557Z" fill="#CCCCCC"/>
<path d="M83.2004 58.8924C83.1853 58.8648 83.1648 58.8404 83.1403 58.8207C83.1157 58.801 83.0876 58.7864 83.0574 58.7776C83.0272 58.7689 82.9956 58.7662 82.9644 58.7697C82.9331 58.7732 82.9029 58.7828 82.8754 58.798L80.5213 60.0874L80.1584 60.286L77.0241 62.0008C76.9964 62.0158 76.972 62.0362 76.9522 62.0607C76.9324 62.0852 76.9176 62.1134 76.9087 62.1437C76.8998 62.1739 76.8969 62.2057 76.9003 62.2371C76.9036 62.2684 76.9131 62.2988 76.9282 62.3265C76.9433 62.3542 76.9637 62.3786 76.9883 62.3984C77.0128 62.4181 77.041 62.4328 77.0712 62.4416C77.1014 62.4504 77.133 62.4532 77.1643 62.4496C77.1955 62.4461 77.2258 62.4365 77.2533 62.4212L80.3861 60.7064L80.749 60.5078L83.1047 59.2185C83.1604 59.1878 83.2017 59.1363 83.2196 59.0752C83.2375 59.0141 83.2306 58.9484 83.2004 58.8924Z" fill="#CCCCCC"/>
<path d="M74.9682 63.9458C75.5286 63.9458 75.9828 63.49 75.9828 62.9278C75.9828 62.3656 75.5286 61.9098 74.9682 61.9098C74.4079 61.9098 73.9536 62.3656 73.9536 62.9278C73.9536 63.49 74.4079 63.9458 74.9682 63.9458Z" fill="#CCCCCC"/>
<path d="M75.6499 68.6509C75.8207 68.6678 75.9899 68.6981 76.1559 68.7417L87.6624 58.5002L86.9183 54.8261L92.298 52.9747L94.2452 59.3506C94.4025 59.8657 94.3891 60.4181 94.2068 60.9248C94.0246 61.4316 93.6835 61.8653 93.2347 62.161L78.6064 71.7972C78.628 72.4602 78.4478 73.1141 78.09 73.6718C77.7321 74.2296 77.2135 74.6649 76.6031 74.9197C75.9927 75.1745 75.3194 75.2369 74.6729 75.0984C74.0263 74.96 73.437 74.6273 72.9835 74.1446C72.53 73.662 72.2336 73.0522 72.1339 72.3965C72.0342 71.7407 72.1358 71.07 72.4253 70.4736C72.7148 69.8773 73.1783 69.3834 73.7543 69.0578C74.3304 68.7322 74.9915 68.5903 75.6499 68.6509Z" fill="#FFB8B8"/>
<path d="M95.5827 53.8921L92.3229 47.6455C91.9874 46.6954 91.2971 45.9133 90.3977 45.4643C89.4983 45.0153 88.4602 44.9344 87.5026 45.2389C87.4663 45.2488 87.4316 45.2604 87.3954 45.2736C86.4249 45.614 85.6287 46.3268 85.1814 47.2555C84.7342 48.1843 84.6725 49.2532 85.0099 50.2275L86.3181 57.1312C86.3555 57.3288 86.4351 57.516 86.5512 57.68C86.6674 57.844 86.8175 57.9808 86.9912 58.0813C87.181 58.1927 87.395 58.2563 87.6147 58.2667C87.7955 58.2782 87.9768 58.2528 88.1476 58.1922L88.8471 57.9472L93.3374 56.3781L94.8057 55.865C94.995 55.7986 95.1679 55.692 95.3125 55.5525C95.4572 55.4131 95.5702 55.244 95.6439 55.0568C95.7176 54.8697 95.7503 54.6687 95.7397 54.4678C95.7292 54.2668 95.6756 54.0704 95.5827 53.8921Z" fill="#03C587"/>
<path d="M107.888 77.9863H0.164967C0.121215 77.9863 0.0792548 77.9689 0.0483175 77.9378C0.0173802 77.9068 0 77.8647 0 77.8208C0 77.7769 0.0173802 77.7348 0.0483175 77.7037C0.0792548 77.6727 0.121215 77.6553 0.164967 77.6553H107.888C107.932 77.6553 107.974 77.6727 108.005 77.7037C108.036 77.7348 108.053 77.7769 108.053 77.8208C108.053 77.8647 108.036 77.9068 108.005 77.9378C107.974 77.9689 107.932 77.9863 107.888 77.9863Z" fill="#3F3D56"/>
<path d="M18.7231 74.9243V75.0071C18.7237 75.5682 18.8866 76.1171 19.192 76.5872C19.4974 77.0573 19.9323 77.4284 20.4438 77.6553C20.8107 77.8199 21.2082 77.9045 21.6101 77.9036H48.2522V74.9243H18.7231Z" fill="#3F3D56"/>
<path d="M66.8539 55.2891C66.4311 54.4134 65.7801 53.6688 64.9699 53.134C64.6027 52.8901 64.2065 52.6933 63.7905 52.5481C63.2236 52.3495 62.6274 52.2482 62.027 52.2485H36.4571C35.0357 52.2502 33.673 52.8175 32.6678 53.8259C31.6627 54.8344 31.0974 56.2016 31.0957 57.6278V72.5243C31.0953 72.7334 31.1074 72.9423 31.132 73.1499C31.1683 73.4605 31.2312 73.7673 31.32 74.0669C31.4082 74.3621 31.5219 74.649 31.6599 74.9243C32.104 75.8196 32.7883 76.5728 33.6358 77.0991C34.4833 77.6255 35.4604 77.9041 36.4571 77.9036H62.027C62.7311 77.9038 63.4284 77.7649 64.079 77.4946C64.7296 77.2244 65.3208 76.8282 65.8187 76.3286C66.3166 75.829 66.7115 75.2359 66.9808 74.5832C67.2502 73.9304 67.3887 73.2308 67.3884 72.5243V57.6278C67.3896 56.8176 67.2068 56.0178 66.8539 55.2891Z" fill="#3F3D56"/>
<path d="M50.644 66.4002C51.3728 66.4002 51.9637 65.8074 51.9637 65.0761C51.9637 64.3448 51.3728 63.752 50.644 63.752C49.9151 63.752 49.3242 64.3448 49.3242 65.0761C49.3242 65.8074 49.9151 66.4002 50.644 66.4002Z" fill="white"/>
</g>
<defs>
<clipPath id="clip0_752_885">
<rect width="118" height="100" fill="white"/>
</clipPath>
</defs>
</svg>
