<svg width="20" height="20" viewBox="0 0 20 20" fill="none" xmlns="http://www.w3.org/2000/svg">
<path fill-rule="evenodd" clip-rule="evenodd" d="M10 1.39535C5.24779 1.39535 1.39535 5.24779 1.39535 10C1.39535 14.7522 5.24779 18.6047 10 18.6047C14.7522 18.6047 18.6047 14.7522 18.6047 10C18.6047 5.24779 14.7522 1.39535 10 1.39535ZM0 10C0 4.47715 4.47715 0 10 0C15.5229 0 20 4.47715 20 10C20 15.5229 15.5229 20 10 20C4.47715 20 0 15.5229 0 10ZM10 3.72093C10.3853 3.72093 10.6977 4.03329 10.6977 4.4186V4.71324C12.2143 4.98481 13.4884 6.12429 13.4884 7.67442C13.4884 8.05973 13.176 8.37209 12.7907 8.37209C12.4054 8.37209 12.093 8.05973 12.093 7.67442C12.093 7.04329 11.5683 6.37525 10.6977 6.13719V9.36437C12.2143 9.636 13.4884 10.7754 13.4884 12.3256C13.4884 13.8757 12.2143 15.0152 10.6977 15.2868V15.5814C10.6977 15.9667 10.3853 16.2791 10 16.2791C9.6147 16.2791 9.30233 15.9667 9.30233 15.5814V15.2868C7.78565 15.0152 6.51163 13.8757 6.51163 12.3256C6.51163 11.9403 6.82399 11.6279 7.2093 11.6279C7.59461 11.6279 7.90698 11.9403 7.90698 12.3256C7.90698 12.9567 8.43172 13.6247 9.30233 13.8628V10.6356C7.78565 10.364 6.51163 9.22456 6.51163 7.67442C6.51163 6.12429 7.78565 4.98481 9.30233 4.71324V4.4186C9.30233 4.03329 9.6147 3.72093 10 3.72093ZM9.30233 6.13719C8.43172 6.37525 7.90698 7.04329 7.90698 7.67442C7.90698 8.30558 8.43172 8.97358 9.30233 9.21163V6.13719ZM10.6977 10.7884V13.8628C11.5683 13.6247 12.093 12.9567 12.093 12.3256C12.093 11.6944 11.5683 11.0264 10.6977 10.7884Z" fill="#EE163A"/>
</svg>
