<svg width="10" height="12" viewBox="0 0 10 12" fill="none" xmlns="http://www.w3.org/2000/svg">
<g clip-path="url(#clip0_1182_1784)">
<path d="M6.61664 1.26855C6.58703 1.26855 6.5584 1.26367 6.53174 1.25391C6.39155 1.25391 6.27703 1.14062 6.27703 1.00195V0.503906H3.79899V1.00195C3.79899 1.13281 3.69829 1.24023 3.56896 1.25293C3.54132 1.2627 3.5117 1.26855 3.48109 1.26855H2.54912V2.29688H7.442V1.26855H6.61664ZM6.96712 11.9336C6.92171 11.9746 6.86149 12 6.79534 12C6.78152 12 6.76868 11.999 6.75585 11.9971H0.56669V11.998C0.412676 11.998 0.27051 11.9346 0.166848 11.833V11.832H0.16586L0.164873 11.8311C0.0631849 11.7295 0 11.5898 0 11.4375V1.97656C0 1.82227 0.0641722 1.68164 0.166848 1.58008C0.269523 1.47852 0.411689 1.41504 0.567677 1.41504H2.04068V1.13965C2.04068 1.03711 2.08313 0.943359 2.15224 0.875L2.15322 0.874023L2.15421 0.873047C2.22332 0.805664 2.3181 0.763672 2.42176 0.763672H3.29154V0.416992C3.29154 0.302734 3.33893 0.199219 3.41495 0.123047L3.41593 0.12207C3.49097 0.046875 3.59562 0 3.71113 0H6.36588C6.48139 0 6.58604 0.046875 6.66305 0.123047L6.66403 0.12207C6.74005 0.197266 6.78744 0.301758 6.78744 0.416992V0.764648H7.57133C7.67499 0.764648 7.76977 0.806641 7.83888 0.875L7.83987 0.875977L7.84085 0.876953L7.84184 0.87793C7.90996 0.946289 7.95241 1.04004 7.95241 1.14258V1.41797H9.42541C9.58041 1.41797 9.72258 1.48145 9.82525 1.58301L9.82624 1.58203C9.92892 1.68359 9.99309 1.82422 9.99309 1.97852V8.73438C9.99802 8.75488 10.001 8.77539 10.001 8.79688C10.001 8.87305 9.96742 8.94043 9.91312 8.9873L6.98884 11.917C6.98193 11.9219 6.97403 11.9277 6.96712 11.9336ZM6.54063 11.4951V9.30371C6.54063 9.09473 6.6275 8.9043 6.76671 8.7666C6.90591 8.62891 7.09843 8.54297 7.3097 8.54297H9.48267V1.97656C9.48267 1.96094 9.47576 1.94727 9.46589 1.93652L9.46688 1.93555H9.46589C9.45602 1.92578 9.44121 1.91992 9.42541 1.91992H7.95241V2.4248C7.95241 2.52734 7.90996 2.62109 7.84085 2.68945H7.83987L7.83888 2.69043L7.83789 2.69141C7.76878 2.75879 7.674 2.80078 7.57034 2.80078H2.42077C2.31612 2.80078 2.22036 2.75879 2.15224 2.69043C2.14434 2.68262 2.13644 2.67383 2.13052 2.66504C2.07523 2.59961 2.04068 2.51465 2.04068 2.42383V1.91895H0.56669C0.550893 1.91895 0.537072 1.92578 0.526212 1.93555C0.515352 1.94629 0.509428 1.95996 0.509428 1.97559V11.4355C0.509428 11.4512 0.515352 11.4658 0.526212 11.4756L0.527199 11.4766C0.537072 11.4863 0.551881 11.4932 0.567677 11.4932V11.4941L6.54063 11.4951ZM7.05005 9.30371V11.1377L9.13713 9.04688H7.30872C7.23763 9.04688 7.17247 9.07617 7.12607 9.12207C7.07868 9.16895 7.05005 9.2334 7.05005 9.30371ZM2.09991 8.2666C1.95873 8.2666 1.8452 8.15332 1.8452 8.01465C1.8452 7.875 1.95972 7.7627 2.09991 7.7627H6.58209C6.72228 7.7627 6.8368 7.87598 6.8368 8.01465C6.8368 8.15332 6.72228 8.2666 6.58209 8.2666H2.09991ZM2.09991 4.89062C1.95873 4.89062 1.8452 4.77734 1.8452 4.63867C1.8452 4.5 1.95972 4.38672 2.09991 4.38672H7.89219C8.03337 4.38672 8.1469 4.5 8.1469 4.63867C8.1469 4.77734 8.03238 4.89062 7.89219 4.89062H2.09991ZM2.09991 6.57812C1.95873 6.57812 1.8452 6.46484 1.8452 6.32617C1.8452 6.1875 1.95972 6.07422 2.09991 6.07422H7.89219C8.03337 6.07422 8.1469 6.1875 8.1469 6.32617C8.1469 6.46582 8.03238 6.57812 7.89219 6.57812H2.09991Z" fill="#535353"/>
</g>
<defs>
<clipPath id="clip0_1182_1784">
<rect width="10" height="12" fill="white"/>
</clipPath>
</defs>
</svg>
