<svg width="25" height="25" viewBox="0 0 25 25" fill="none" xmlns="http://www.w3.org/2000/svg">
<g clip-path="url(#clip0_1358_12)">
<path d="M12.7505 0L24.1621 4.22363C24.5942 4.38798 24.8542 4.74343 24.9918 5.17453V5.66302C24.6913 6.74893 23.451 6.77437 22.5868 7.18525L22.504 7.29808L22.5014 10.4665C23.0821 10.6497 23.6426 11.1617 23.7182 11.7956C23.7717 12.2424 23.7788 13.4489 23.7247 13.8905C23.6778 14.2733 23.3265 14.5453 22.9635 14.5929C22.6005 14.6405 21.6509 14.6353 21.2611 14.5962C20.758 14.5453 20.4503 14.2531 20.4054 13.7444C20.3623 13.2598 20.3578 12.0174 20.4901 11.5798C20.6739 10.9719 21.1242 10.6673 21.675 10.4228V7.56678L19.5848 8.32986L19.5783 12.5222C19.4812 13.1209 19.1892 13.3759 18.6645 13.6087C16.7764 14.4462 14.6432 15.0273 12.7218 15.8125L12.2115 15.7949C10.3253 14.9953 8.20516 14.4422 6.34831 13.6087C5.83212 13.3772 5.52449 13.1124 5.43455 12.5222L5.41239 8.29725L0.658492 6.51414C-0.272865 5.94934 -0.155549 4.62212 0.851411 4.22363L12.263 0H12.7505ZM14.9984 5.07279L22.038 6.48936C22.1481 6.48414 23.8434 5.85868 23.9633 5.78042C24.2846 5.57172 24.2057 5.14453 23.8701 5.003L12.4833 0.826333L1.14275 5.00365C0.830555 5.14192 0.73931 5.49867 0.993494 5.73933L12.5269 10.0053L20.5044 7.07829L14.7227 5.8652C14.3812 6.04195 14.1257 6.30283 13.7588 6.45349C12.7329 6.8748 10.8089 6.69284 10.2047 5.64867C9.49042 4.41341 10.8265 3.55121 11.9026 3.37512C13.0822 3.18207 14.9782 3.59752 14.9984 5.07344V5.07279ZM14.0012 5.35323C14.3851 4.93974 14.0084 4.56407 13.6128 4.38472C13.0203 4.11471 12.2695 4.10362 11.6516 4.29602C11.1863 4.44081 10.5085 4.85626 11.0318 5.37084C11.636 5.96499 13.4205 5.97869 14.0006 5.35388L14.0012 5.35323ZM18.7492 8.59204L13.1168 10.6921C12.7538 10.8362 12.4142 10.8982 12.0414 10.7417L6.26358 8.59204V12.5222C6.26358 12.5424 6.35613 12.6676 6.38481 12.6937L12.5289 14.9901L18.6274 12.6937C18.656 12.6676 18.7486 12.5424 18.7486 12.5222V8.59204H18.7492ZM22.8944 13.7672V11.8387C22.8944 11.8243 22.7751 11.6306 22.7478 11.5948C22.4069 11.1421 21.7089 11.116 21.3902 11.6026C21.3621 11.645 21.2357 11.915 21.2357 11.9365V13.6942L21.3087 13.7672H22.8938H22.8944Z" fill="black"/>
<path d="M24.9917 20.2109C24.9728 20.5976 25.0171 20.9974 24.9917 21.3822C24.9356 22.2372 24.6762 23.4673 24.3451 24.2747C24.1483 24.7541 23.9443 25.0339 23.3642 24.9895C22.7842 24.9452 22.0568 24.7404 21.4487 24.6601C19.0353 24.3419 16.5938 24.2395 14.1641 24.1645C14.2462 24.7645 13.6498 25.1884 13.1063 24.9067C12.9655 24.8336 12.577 24.3477 12.4884 24.3634C12.1717 24.623 11.982 25.0215 11.5082 24.9967C11.0878 24.9745 10.7808 24.5767 10.8486 24.1645C8.41885 24.2395 5.97738 24.3419 3.56393 24.6601C3.00733 24.7338 1.9906 25.0104 1.50895 24.9993C1.21436 24.9921 0.94779 24.8317 0.800494 24.5812C0.310374 23.749 -0.124346 21.1852 0.0333786 20.2467C0.0920365 19.8985 0.385326 19.8235 0.449198 19.6376C0.546309 19.3552 0.561952 18.806 0.640162 18.4623C0.778334 17.8571 1.03187 16.659 1.80094 16.6466C4.66084 17.2029 7.59503 17.4273 10.5051 17.4501C11.6555 16.4046 13.3578 16.4046 14.5088 17.4501C17.4346 17.4332 20.3785 17.1886 23.2554 16.6486C24.0121 16.7007 24.2376 17.906 24.3738 18.5112C24.4416 18.8132 24.4761 19.4145 24.5661 19.6369C24.6352 19.8085 24.948 19.9676 24.9923 20.2109H24.9917ZM12.4493 17.4886C9.72432 17.5551 9.83707 21.7083 12.5308 21.6796C15.2245 21.6509 15.2382 17.4201 12.4493 17.4886ZM1.28931 19.5763H9.58028C9.59657 19.1341 9.71063 18.7147 9.87292 18.3071C8.64827 18.236 7.41645 18.2217 6.19116 18.1114C4.71363 17.9784 3.24848 17.7077 1.78204 17.531C1.57282 18.2008 1.36165 18.8726 1.28931 19.5763ZM15.433 19.5763H23.724C23.6321 18.8752 23.4418 18.2021 23.2313 17.531C21.7648 17.709 20.3003 17.9784 18.8222 18.1114C17.5962 18.2217 16.365 18.238 15.1404 18.3071C15.302 18.7141 15.4167 19.1341 15.433 19.5763ZM9.72692 20.4065H0.850679C0.83634 21.2426 0.915854 22.0931 1.10877 22.9064C1.15179 23.0884 1.44443 24.1306 1.56174 24.1573C2.32039 24.0112 3.0888 23.8775 3.85592 23.7816C5.50421 23.5749 7.16553 23.4992 8.82229 23.3831L10.8486 23.3362V21.994C10.32 21.5909 9.90485 21.0561 9.72692 20.4072V20.4065ZM24.1626 20.4065H15.2864C15.1085 21.0555 14.6933 21.5903 14.1647 21.9933V23.3355C16.745 23.4066 19.3318 23.5214 21.888 23.8795C22.4361 23.9564 22.9836 24.0706 23.5285 24.1658C23.9319 22.9533 24.2128 21.6966 24.1626 20.4065ZM13.3357 22.3592C12.8026 22.5522 12.2114 22.5522 11.6776 22.3592V23.9701C12.242 23.3134 12.7713 23.3127 13.3357 23.9701V22.3592Z" fill="black"/>
<path d="M12.5392 18.3261C14.1438 18.3411 14.138 20.8553 12.4819 20.8456C10.8258 20.8358 10.8368 18.3105 12.5392 18.3261ZM12.3456 19.1962C12.0041 19.2979 12.0048 19.9775 12.4897 20.0016C13.1023 20.0316 13.0235 18.994 12.3456 19.1962Z" fill="black"/>
</g>
<defs>
<clipPath id="clip0_1358_12">
<rect width="25" height="25" fill="white"/>
</clipPath>
</defs>
</svg>
