<svg width="20" height="20" viewBox="0 0 20 20" fill="none" xmlns="http://www.w3.org/2000/svg">
<path d="M14.4561 19.9948C14.4613 19.9113 14.4717 19.8278 14.4717 19.7443C14.4717 16.744 14.4717 13.7436 14.4717 10.7432C14.4717 10.6597 14.4717 10.5762 14.4717 10.4614C16.3288 10.4614 18.1651 10.4614 20.0013 10.4614C20.0013 13.4931 20.0013 16.53 20.0013 19.5617C19.9074 19.7548 19.7666 19.8957 19.5736 19.9896C17.8625 19.9948 16.1619 19.9948 14.4561 19.9948ZM16.4801 16.5509C16.4801 16.6813 16.4801 16.8118 16.4801 16.9423C16.4853 17.2814 16.7253 17.5319 17.0487 17.5423C17.3565 17.5528 17.6278 17.318 17.6486 16.9944C17.6643 16.7074 17.6643 16.4204 17.6486 16.1387C17.633 15.8204 17.3617 15.5803 17.0539 15.5908C16.7357 15.596 16.4958 15.8465 16.4853 16.1856C16.4801 16.3004 16.4801 16.4257 16.4801 16.5509ZM16.4801 13.4357C16.4801 13.5662 16.4749 13.6966 16.4801 13.8271C16.4905 14.1558 16.7253 14.4011 17.0383 14.4115C17.3461 14.4271 17.6225 14.1923 17.6434 13.874C17.6643 13.5818 17.6643 13.2896 17.6434 12.9974C17.6225 12.6791 17.3461 12.4443 17.0383 12.4599C16.7253 12.4704 16.4905 12.7208 16.4801 13.0444C16.4801 13.1748 16.4801 13.3053 16.4801 13.4357Z" fill="#356EB5"/>
<path d="M0.433165 19.9948C0.0993006 19.8382 -0.00503191 19.5721 0.000184719 19.2069C0.010618 16.3787 0.00540134 13.5505 0.00540134 10.7171C0.00540134 10.6388 0.00540134 10.5658 0.00540134 10.4771C1.83644 10.4771 3.64661 10.4771 5.47242 10.4771C5.47764 10.5397 5.48286 10.6023 5.48286 10.6649C5.48286 13.7175 5.48286 16.77 5.48286 19.8226C5.48286 19.88 5.47242 19.9374 5.46721 19.9948C3.79267 19.9948 2.11292 19.9948 0.433165 19.9948ZM3.37534 13.4409C3.37534 13.3 3.38577 13.1539 3.37534 13.013C3.35447 12.7052 3.11973 12.4756 2.82238 12.4599C2.52503 12.4443 2.24855 12.6582 2.22247 12.9608C2.19638 13.2791 2.19638 13.5974 2.22247 13.9158C2.24855 14.2184 2.52503 14.4271 2.82238 14.4115C3.11451 14.3958 3.34926 14.1714 3.37012 13.874C3.38056 13.7279 3.37534 13.587 3.37534 13.4409ZM3.37534 16.5665C3.37534 16.4152 3.38577 16.2639 3.37012 16.1178C3.34926 15.8203 3.10929 15.596 2.81716 15.5855C2.53025 15.5699 2.25377 15.7734 2.22768 16.0708C2.2016 16.3943 2.2016 16.7231 2.22247 17.0466C2.24855 17.344 2.5146 17.5475 2.80673 17.5423C3.10408 17.5371 3.34926 17.3075 3.37012 16.9996C3.38577 16.8535 3.37534 16.7074 3.37534 16.5665Z" fill="#356EB5"/>
<path d="M6.64648 19.9947C6.6517 19.9112 6.66213 19.8277 6.66213 19.7442C6.66213 16.7438 6.66213 13.7435 6.66213 10.7431C6.66213 10.6596 6.66213 10.5761 6.66213 10.4822C8.87398 10.4822 11.0702 10.4822 13.2872 10.4822C13.2925 10.5448 13.2977 10.6074 13.2977 10.6648C13.2977 13.7174 13.2977 16.7699 13.2977 19.8225C13.2977 19.8799 13.2873 19.9373 13.282 19.9947C12.7604 19.9947 12.2387 19.9947 11.7223 19.9947C11.7223 19.0659 11.7483 18.1318 11.7223 17.203C11.6962 16.3316 10.9398 15.6167 10.0686 15.5802C9.0357 15.5385 8.23234 16.3212 8.22191 17.3961C8.21147 18.184 8.22191 18.972 8.22191 19.7599C8.22191 19.8381 8.21147 19.9164 8.20626 19.9947C7.68459 19.9947 7.16293 19.9947 6.64648 19.9947ZM9.38521 13.4304C9.38521 13.2999 9.39043 13.1695 9.38521 13.039C9.37478 12.7207 9.14525 12.4807 8.84268 12.4598C8.5349 12.4389 8.25321 12.6633 8.22712 12.9816C8.20626 13.2791 8.20626 13.5765 8.22712 13.8739C8.24799 14.1974 8.52969 14.4218 8.83747 14.4062C9.15046 14.3905 9.38 14.1453 9.39043 13.8165C9.38521 13.6861 9.38521 13.5608 9.38521 13.4304ZM11.7901 13.446C11.7901 13.3104 11.8005 13.1747 11.7901 13.039C11.7692 12.6999 11.5032 12.4442 11.1849 12.4598C10.8667 12.4703 10.6268 12.7207 10.6216 13.0599C10.6163 13.3104 10.6163 13.566 10.6216 13.8165C10.6268 14.1453 10.8615 14.3905 11.1745 14.4062C11.4875 14.4218 11.7588 14.1818 11.7849 13.853C11.8005 13.7226 11.7901 13.5817 11.7901 13.446Z" fill="#356EB5"/>
<path d="M20 7.69064C19.8695 7.96198 19.6713 8.12374 19.3531 8.13418C19.1862 8.13939 19.0871 8.26463 19.0401 8.41595C18.941 8.73947 18.9619 9.04212 19.2592 9.28737C13.0984 9.28737 6.9584 9.28737 0.792345 9.28737C1.08969 9.07864 1.15751 8.8073 1.06883 8.489C1.00101 8.25419 0.865377 8.14461 0.620196 8.12374C0.239382 8.08721 0.00463417 7.85762 0.0098508 7.52366C0.0202841 7.18449 0.286332 6.94968 0.667146 6.94968C6.8958 6.94968 13.1244 6.94968 19.3479 6.94446C19.6713 6.94446 19.8643 7.11144 20 7.37756C20 7.48192 20 7.58628 20 7.69064Z" fill="#356EB5"/>
<path d="M9.37988 19.9948C9.3851 19.5669 9.39032 19.139 9.39553 18.7111C9.40075 18.2572 9.39032 17.8032 9.40075 17.3492C9.40597 17.0361 9.61463 16.8065 9.89633 16.7596C10.1519 16.7178 10.4232 16.8692 10.5223 17.1196C10.5484 17.1927 10.5641 17.2709 10.5641 17.3492C10.5693 18.2154 10.5641 19.0764 10.5641 19.9426C10.5641 19.9635 10.5536 19.9791 10.5536 20C10.1572 19.9948 9.76591 19.9948 9.37988 19.9948Z" fill="#356EB5"/>
<path d="M5.59277 5.73905C6.64132 5.33726 7.68986 4.93025 8.7384 4.52846C8.91577 4.46063 9.08791 4.38758 9.26528 4.33018C9.38526 4.29365 9.41656 4.22582 9.41656 4.1058C9.41135 2.94739 9.41135 1.78898 9.41656 0.630576C9.41656 0.291403 9.63044 0.0409359 9.93822 0.0044095C10.2356 -0.0321169 10.4912 0.160951 10.5799 0.484471C10.5903 0.515779 10.5903 0.547087 10.6007 0.588832C11.3206 0.588832 12.0353 0.588832 12.75 0.588832C13.0578 0.588832 13.2508 0.844517 13.1517 1.11064C13.1099 1.22543 13.0265 1.32458 12.9587 1.42894C12.7604 1.73159 12.7604 1.79942 12.9587 2.09685C13.0056 2.16469 13.0526 2.23774 13.0995 2.31079C13.2821 2.61344 13.1099 2.93174 12.7552 2.93696C12.1136 2.94218 11.4667 2.93696 10.8251 2.93696C10.7572 2.93696 10.6842 2.93696 10.5955 2.93696C10.5955 3.37006 10.5903 3.78228 10.6007 4.19451C10.6007 4.24147 10.6894 4.30931 10.752 4.3354C11.9101 4.78415 13.0682 5.22768 14.2263 5.67122C14.2941 5.69731 14.3567 5.7234 14.4767 5.77558C11.4823 5.77558 8.54017 5.77558 5.60321 5.77558C5.59799 5.75471 5.59277 5.74427 5.59277 5.73905Z" fill="#356EB5"/>
</svg>
