<svg width="37" height="26" viewBox="0 0 37 26" fill="none" xmlns="http://www.w3.org/2000/svg">
<path fill-rule="evenodd" clip-rule="evenodd" d="M35.1008 9.0998C32.948 9.0998 31.2008 10.847 31.2008 12.9998C31.2008 15.1526 32.948 16.8998 35.1008 16.8998V22.0998C35.1008 23.5363 33.9373 24.6998 32.5008 24.6998C26.2049 24.6998 10.1967 24.6998 3.90078 24.6998C2.46428 24.6998 1.30078 23.5363 1.30078 22.0998C1.30078 19.8313 1.30078 16.8998 1.30078 16.8998C3.45358 16.8998 5.20078 15.1526 5.20078 12.9998C5.20078 10.847 3.45358 9.0998 1.30078 9.0998V3.8998C1.30078 2.4633 2.46428 1.2998 3.90078 1.2998C10.1967 1.2998 26.2049 1.2998 32.5008 1.2998C33.9373 1.2998 35.1008 2.4633 35.1008 3.8998C35.1008 6.1683 35.1008 9.0998 35.1008 9.0998Z" fill="#90E0EF"/>
<path fill-rule="evenodd" clip-rule="evenodd" d="M35.1 10.4C35.8176 10.4 36.4 9.8176 36.4 9.1V3.9C36.4 1.7459 34.6541 0 32.5 0H3.9C1.7459 0 0 1.7459 0 3.9V9.1C0 9.8176 0.5824 10.4 1.3 10.4C2.7352 10.4 3.9 11.5648 3.9 13C3.9 14.4352 2.7352 15.6 1.3 15.6C0.5824 15.6 0 16.1824 0 16.9V22.1C0 24.2541 1.7459 26 3.9 26H32.5C34.6541 26 36.4 24.2541 36.4 22.1V16.9C36.387 16.1356 35.9164 15.7339 35.1 15.6C33.6648 15.6 32.5 14.4352 32.5 13C32.5 11.5648 33.6648 10.4 35.1 10.4ZM26 2.6V5.2C26 5.9176 25.4176 6.5 24.7 6.5C23.9824 6.5 23.4 5.9176 23.4 5.2V2.6H3.9C3.1824 2.6 2.6 3.1824 2.6 3.9V7.96381C4.8412 8.54231 6.5 10.5781 6.5 13C6.5 15.4219 4.8412 17.4577 2.6 18.0362V22.1C2.6 22.8176 3.1824 23.4 3.9 23.4H23.4V20.8C23.4 20.0824 23.9824 19.5 24.7 19.5C25.4176 19.5 26 20.0824 26 20.8V23.4H32.5C33.2176 23.4 33.8 22.8176 33.8 22.1V18.0362C31.5588 17.4577 29.9 15.4206 29.9 13C29.9 10.5781 31.5588 8.54231 33.8 7.96381V3.9C33.8 3.1824 33.2176 2.6 32.5 2.6H26ZM23.4 10.4V15.6C23.4 16.3176 23.9824 16.9 24.7 16.9C25.4176 16.9 26 16.3176 26 15.6V10.4C26 9.6824 25.4176 9.1 24.7 9.1C23.9824 9.1 23.4 9.6824 23.4 10.4Z" fill="#1990A7"/>
</svg>
