<svg width="31" height="25" viewBox="0 0 31 25" fill="none" xmlns="http://www.w3.org/2000/svg">
<g clip-path="url(#clip0_1358_17)">
<path d="M25.8685 14.1879C26.8722 13.9208 27.6693 13.1128 28.7421 13.5907C30.7894 14.5037 32.0238 19.2336 29.8466 20.612L25.9943 21.2932C27.0787 22.2869 26.3732 22.5607 25.2405 22.6405C25.0455 23.0412 25.2146 24.1172 24.5291 23.9971C24.2643 23.9509 23.1923 22.6187 22.8699 22.3944C22.6317 22.2852 22.1678 22.3785 21.9945 22.58C21.698 22.9244 21.633 24.3347 21.3298 24.7976C20.8992 25.4536 20.3087 24.3289 20.0171 24.0668C19.6007 24.1012 19.0768 24.6245 18.6878 24.3406C18.253 24.0231 18.8236 23.2529 18.6545 23.2411C18.0664 23.4116 17.4817 23.6015 16.9053 23.8064C16.2381 24.0441 14.5356 24.8698 13.9701 24.8816C12.9231 24.9034 11.9744 23.6871 11.5746 22.8245C10.924 21.4217 10.7508 19.6939 11.4405 18.276L10.3785 18.0241C10.3577 18.3558 10.5584 18.7557 10.3193 19.0488C10.1011 19.3168 8.4744 19.3663 8.09875 19.3445C7.81055 19.3277 6.84602 19.2387 6.72525 18.9665L6.74524 16.4626C6.35792 16.1988 5.20931 15.825 5.13435 15.3488L5.10187 7.77307L0.237553 6.06374C-0.164753 5.79495 -0.0256534 5.317 0.426628 5.21201L15.5202 0C20.2704 1.69926 25.1047 3.19524 29.8366 4.94406C30.3555 5.13557 31.4991 5.36992 30.7578 6.06206L25.8685 7.80583V14.1879ZM29.1785 5.63787L15.4727 0.924806L1.81679 5.66895L8.52188 8.01079L15.247 5.29097C15.8408 5.09189 16.2023 5.67735 15.7084 6.06878L9.87622 8.40389C9.96118 8.54669 10.1944 8.59792 10.3435 8.65588C12.0418 9.31022 13.8093 9.81924 15.5293 10.4165L29.1785 5.63703V5.63787ZM6.0031 8.08974V15.0371L6.93931 15.5713C6.88267 15.19 7.34911 14.4743 7.36494 14.2089C7.3691 14.1392 7.13505 13.6974 7.12505 13.4622C7.11173 13.1396 7.28581 12.6945 7.50237 12.4593C7.69561 12.2501 8.09875 12.1611 8.1304 11.8965L8.09708 8.84235L6.0031 8.0889V8.08974ZM24.9939 8.08974L15.5243 11.3564L9.00165 9.09603V12.114C9.62468 12.2854 9.99783 12.9498 9.9312 13.5848C9.90704 13.8192 9.73129 14.0754 9.75128 14.277C9.7771 14.5424 10.0828 15.1967 10.1594 15.5697C10.2577 16.0468 10.296 16.5365 10.3418 17.0203C10.4043 17.1144 12.0818 17.5688 12.2909 17.5789C13.008 17.6142 14.4307 17.3143 15.1978 17.1866C16.0724 17.0413 17.4742 16.8548 18.2755 16.5743C19.0526 16.3021 18.956 15.7301 19.4766 15.4571C19.8706 15.2505 20.0871 15.379 20.4503 15.3051C20.8809 15.2177 20.9434 14.8397 21.6372 14.9573C21.9262 15.006 22.1095 15.2312 22.3044 15.2908C22.9549 15.489 24.3034 14.6818 24.9939 14.5651V8.0889V8.08974ZM8.14706 13.7915C8.50105 14.1812 9.26985 13.8309 9.01664 13.1984C8.73511 12.4962 7.579 13.1657 8.14706 13.7915ZM23.807 15.8863C23.8445 16.3055 24.3192 16.3836 24.5599 16.6053C25.0139 17.0245 24.849 17.4294 24.9456 17.9149C24.9997 18.1853 25.2913 18.4642 25.3004 18.8153C25.3138 19.3361 24.7732 19.6536 24.9448 20.2424C24.9764 20.3508 25.2013 20.5624 25.3287 20.5356C26.5573 20.1895 27.9008 20.1441 29.1327 19.893C30.3505 19.6444 30.1847 17.7595 29.9615 16.8279C29.7633 16.0014 28.9112 14.1039 27.8517 14.3265C27.3936 14.4231 26.3466 14.9733 25.8227 15.1774C25.1605 15.4361 24.4883 15.678 23.8078 15.8855L23.807 15.8863ZM9.5014 18.4012C9.60135 17.9401 9.29567 14.8448 8.96583 14.7625C8.67014 14.8481 8.35862 14.8431 8.06626 14.7541C7.65313 15.9199 7.57567 17.1681 7.56484 18.4012C8.21203 18.4684 8.85672 18.4944 9.50224 18.4012H9.5014ZM23.9761 20.3953C24.1168 20.2231 24.031 19.7855 24.0843 19.5293C24.1327 19.2958 24.4308 18.9825 24.4167 18.8203C24.4025 18.6582 24.1335 18.3928 24.0843 18.1534C24.0285 17.8871 24.1168 17.5083 23.9877 17.3067C23.9094 17.1841 23.4838 17.0018 23.3047 16.7994C23.1923 16.6717 23.0049 16.2727 22.9316 16.2324C22.7883 16.1526 22.4335 16.2198 22.2286 16.1854C21.9329 16.1358 21.5756 15.7973 21.3548 15.8326C21.1649 15.8637 20.8701 16.1215 20.6235 16.1728C20.4111 16.2164 19.988 16.1576 19.8697 16.2307C19.7998 16.2744 19.5899 16.749 19.4741 16.8699C19.3108 17.0413 19.0301 17.1328 18.8386 17.2681C18.7877 17.5688 18.8161 17.8628 18.7278 18.1627C18.647 18.4365 18.3904 18.6381 18.4446 18.9195C18.4779 19.0917 18.6686 19.3176 18.7278 19.5184C18.7986 19.7611 18.7703 20.2063 18.8386 20.3499C18.9002 20.4793 19.3033 20.6322 19.4358 20.7548C19.6107 20.9169 19.7673 21.373 19.9339 21.4486C20.1138 21.5301 20.4461 21.4595 20.686 21.5091C20.9442 21.562 21.2657 21.8745 21.4481 21.8476C21.6305 21.8207 21.8654 21.562 22.1153 21.5091C22.3652 21.4562 22.7825 21.5326 22.9516 21.4234C23.0165 21.3814 23.2223 20.9186 23.3422 20.7951C23.5013 20.6313 23.8778 20.512 23.9736 20.3944L23.9761 20.3953ZM17.934 17.5839L14.2483 18.213C15.5027 19.5587 16.0124 21.5654 15.6234 23.3679C16.0208 23.0723 18.8644 22.3323 18.9851 22.1315C19.3933 21.4537 18.1672 21.2151 17.9823 20.6473C17.8873 20.3566 17.9756 20.103 17.9198 19.83C17.8724 19.5982 17.6241 19.3999 17.5742 19.1093C17.4484 18.3768 17.8565 18.2231 17.934 17.5839ZM13.6644 18.8632C13.4853 18.6918 13.0855 18.4163 12.8381 18.4046C12.7257 18.3995 12.1909 18.5877 12.3125 18.7145C13.3579 18.9665 13.7752 20.1139 13.9384 21.0723C13.9517 21.1504 13.8951 21.1907 14.0234 21.1613C14.225 21.0194 14.7006 21.0656 14.6856 20.7657C14.6631 20.3222 13.9967 19.1815 13.6644 18.8632ZM14.8738 22.7077C14.9071 22.423 14.8496 22.0878 14.8738 21.7964C14.4232 21.8451 13.1122 22.7674 13.0647 21.8241C13.038 21.2949 13.1263 21.053 12.9056 20.4768C12.7207 19.9938 11.9702 19.0001 11.8728 20.0643C11.7695 21.1891 12.41 23.0689 13.3437 23.7451C14.2774 24.4213 14.773 23.562 14.8738 22.7077ZM25.118 21.7955C25.1896 21.7342 24.5649 21.0975 24.4742 21.1126C24.0793 21.3151 23.8245 21.5099 23.6829 21.9551L24.3059 22.6136C24.3659 22.0433 24.4742 21.7392 25.1188 21.7964L25.118 21.7955ZM20.9883 22.6212C20.5835 22.4011 20.2887 22.297 19.8114 22.365L19.6215 23.2419C20.2495 22.9286 20.3836 23.0798 20.8076 23.5569L20.9883 22.6212Z" fill="black"/>
<path d="M20.9792 16.8439C24.2351 16.334 24.1235 21.3276 21.0416 20.8379C18.8743 20.4935 18.9027 17.1689 20.9792 16.8439ZM20.5802 19.6368C21.5347 20.664 23.2614 19.2495 22.2785 18.0845C21.2973 16.9211 19.5082 18.4826 20.5802 19.6368Z" fill="black"/>
</g>
<defs>
<clipPath id="clip0_1358_17">
<rect width="31" height="25" fill="white"/>
</clipPath>
</defs>
</svg>
