<svg width="96" height="80" viewBox="0 0 96 80" fill="none" xmlns="http://www.w3.org/2000/svg">
<g clip-path="url(#clip0_319_337)">
<path fill-rule="evenodd" clip-rule="evenodd" d="M2.60938 0H93.3906C94.8281 0 96 1.17751 96 2.62192V63.0517C96 64.4961 94.8281 65.6736 93.3906 65.6736H2.60938C1.17187 65.6736 0 64.4961 0 63.0517V2.62192C0 1.17751 1.17187 0 2.60938 0ZM36.1641 69.2925H59.8359C59.8984 73.4059 61.5859 77.0955 66.1562 79.9921H29.8438C33.5 77.331 36.1797 74.0967 36.1641 69.2925ZM48 56.8423C49.8516 56.8423 51.3516 58.3495 51.3516 60.21C51.3516 62.0704 49.8516 63.5777 48 63.5777C46.1484 63.5777 44.6484 62.0704 44.6484 60.21C44.6484 58.3495 46.1484 56.8423 48 56.8423ZM7.85156 4.93769H88.1562C89.4297 4.93769 90.4609 5.98175 90.4609 7.25346V52.407C90.4609 53.6787 89.4219 54.7228 88.1562 54.7228H7.85156C6.58594 54.7228 5.54688 53.6787 5.54688 52.407V7.25346C5.53906 5.98175 6.57812 4.93769 7.85156 4.93769Z" fill="#009DB8"/>
</g>
<defs>
<clipPath id="clip0_319_337">
<rect width="96" height="80" fill="white"/>
</clipPath>
</defs>
</svg>
