<svg width="36" height="36" viewBox="0 0 36 36" fill="none" xmlns="http://www.w3.org/2000/svg">
<circle cx="18" cy="18" r="18" fill="url(#paint0_linear_118_1557)"/>
<g clip-path="url(#clip0_118_1557)">
<path d="M23.7447 12.5836C23.7447 14.924 22.3738 17.0638 20.3501 17.8328C18.0979 18.7021 15.6498 17.8997 14.2789 15.8267C12.6142 13.3526 13.1364 9.84192 15.4213 8.06988C18.0979 5.9635 21.8842 6.99997 23.2551 10.2097C23.5815 10.9787 23.7447 11.7811 23.7447 12.5836Z" fill="white"/>
<path d="M18.5875 20.541C19.3383 19.9392 20.089 19.3708 20.8071 18.7355C21.1335 18.4346 21.4273 18.4012 21.8516 18.5349C23.5163 19.0699 25.0831 19.7386 26.4214 20.8753C27.6617 21.8784 28.543 23.1155 28.9021 24.7203C28.9674 25.0881 29.0653 25.4224 28.9021 25.8237C28.5104 24.9544 27.8576 24.386 26.911 24.1854C26.911 23.5501 26.911 22.9148 26.911 22.2127C26.3887 22.2462 25.9318 22.2796 25.4421 22.3465C24.1039 22.5136 22.8309 22.8814 21.6558 23.5501C21.4273 23.6838 21.3294 23.8176 21.3294 24.0851C21.362 25.6565 21.362 27.1611 21.362 28.699C21.362 28.7993 21.362 28.8997 21.362 29C21.1335 29 20.9377 29 20.7092 29C20.7092 28.8997 20.7092 28.8328 20.7092 28.7325C20.7092 27.161 20.6766 25.5896 20.6766 24.0182C20.6766 23.8176 20.6113 23.7173 20.4481 23.6504C19.3383 22.9817 18.1632 22.6474 16.8902 22.4468C16.3027 22.3465 15.7151 22.313 15.095 22.2462C15.095 24.4528 15.095 26.5927 15.095 28.7659C13.4955 28.5653 11.9941 28.1975 10.4926 27.5623C11.3412 27.3617 11.9941 26.927 12.3858 26.1914C12.8101 25.4559 12.8427 24.6535 12.549 23.851C12.0593 22.5471 10.5252 21.6109 8.79525 22.4133C8.20772 20.1732 7.62018 17.9665 7 15.693C7.32641 15.5927 7.58754 15.5258 7.91395 15.4589C8.50148 17.5987 9.08902 19.7386 9.67656 21.8115C10.2641 21.3434 10.7864 20.8419 11.3739 20.4073C12.6795 19.4711 14.181 18.8693 15.7151 18.468C15.8457 18.4346 15.9763 18.468 16.0742 18.5683C16.8576 19.2036 17.6083 19.8389 18.3917 20.4407C18.457 20.4741 18.5223 20.5076 18.5875 20.541Z" fill="white"/>
<path d="M26.4218 24.7872C27.4989 24.7872 28.4455 25.7234 28.4455 26.8602C28.4455 27.9635 27.5642 28.8663 26.4544 28.8997C25.3773 28.9331 24.4307 27.997 24.4307 26.8602C24.4307 25.7568 25.312 24.8207 26.4218 24.7872Z" fill="white"/>
<path d="M10.036 22.7477C11.2111 22.7811 12.1251 23.6839 12.0924 24.8206C12.0924 25.9574 11.1785 26.8601 10.1013 26.8267C8.99153 26.7933 8.07758 25.8571 8.11022 24.7203C8.1755 23.5835 9.02417 22.8145 10.036 22.7477Z" fill="white"/>
</g>
<defs>
<linearGradient id="paint0_linear_118_1557" x1="18" y1="0" x2="18" y2="36" gradientUnits="userSpaceOnUse">
<stop stop-color="#009DB8"/>
<stop offset="1" stop-color="#03C587"/>
</linearGradient>
<clipPath id="clip0_118_1557">
<rect width="22" height="22" fill="white" transform="translate(7 7)"/>
</clipPath>
</defs>
</svg>
