<svg width="20" height="20" viewBox="0 0 20 20" fill="none" xmlns="http://www.w3.org/2000/svg">
<path d="M1.91116 16.9108L15.4887 3.33329H12.5003C12.2793 3.33329 12.0674 3.2455 11.9111 3.08922C11.7548 2.93294 11.667 2.72097 11.667 2.49996C11.667 2.27895 11.7548 2.06699 11.9111 1.91071C12.0674 1.75442 12.2793 1.66663 12.5003 1.66663H17.5003C17.6096 1.66715 17.7177 1.68894 17.8187 1.73079C17.9709 1.79373 18.1011 1.90039 18.1928 2.0373C18.2844 2.1742 18.3335 2.3352 18.3337 2.49996V7.49996C18.3337 7.72097 18.2459 7.93294 18.0896 8.08922C17.9333 8.2455 17.7213 8.33329 17.5003 8.33329C17.2793 8.33329 17.0673 8.2455 16.9111 8.08922C16.7548 7.93294 16.667 7.72097 16.667 7.49996V4.51163L3.08949 18.0891C2.93232 18.2409 2.72182 18.3249 2.50332 18.323C2.28483 18.3211 2.07582 18.2335 1.92131 18.079C1.7668 17.9245 1.67916 17.7155 1.67726 17.497C1.67537 17.2785 1.75936 17.068 1.91116 16.9108ZM1.66699 4.99996C1.66699 4.34069 1.86249 3.69622 2.22876 3.14806C2.59503 2.5999 3.11563 2.17265 3.72471 1.92036C4.3338 1.66807 5.00402 1.60206 5.65063 1.73068C6.29723 1.85929 6.89117 2.17676 7.35735 2.64294C7.82352 3.10911 8.14099 3.70306 8.26961 4.34966C8.39823 4.99626 8.33222 5.66649 8.07992 6.27557C7.82763 6.88466 7.40039 7.40525 6.85223 7.77153C6.30406 8.1378 5.6596 8.33329 5.00033 8.33329C4.11627 8.33329 3.26842 7.9821 2.6433 7.35698C2.01818 6.73186 1.66699 5.88402 1.66699 4.99996ZM3.33366 4.99996C3.33366 5.3296 3.43141 5.65183 3.61454 5.92591C3.79768 6.19999 4.05798 6.41361 4.36252 6.53976C4.66706 6.66591 5.00217 6.69891 5.32548 6.6346C5.64878 6.57029 5.94575 6.41156 6.17884 6.17847C6.41192 5.94538 6.57066 5.64841 6.63497 5.32511C6.69928 5.00181 6.66627 4.6667 6.54012 4.36215C6.41398 4.05761 6.20036 3.79731 5.92628 3.61418C5.65219 3.43104 5.32996 3.33329 5.00033 3.33329C4.5583 3.33329 4.13437 3.50889 3.82181 3.82145C3.50925 4.13401 3.33366 4.55793 3.33366 4.99996ZM18.0345 11.86C17.9504 11.7897 17.8533 11.7367 17.7486 11.704C17.644 11.6714 17.534 11.6596 17.4249 11.6696C17.3157 11.6795 17.2096 11.7108 17.1126 11.7618C17.0156 11.8128 16.9296 11.8824 16.8595 11.9666L13.2762 16.2658L11.4212 14.4108C11.264 14.259 11.0535 14.175 10.835 14.1769C10.6165 14.1788 10.4075 14.2664 10.253 14.4209C10.0985 14.5755 10.0108 14.7845 10.0089 15.003C10.007 15.2215 10.091 15.432 10.2428 15.5891L12.7428 18.0891C12.8204 18.1667 12.9125 18.2282 13.0139 18.2701C13.1153 18.312 13.224 18.3335 13.3337 18.3333H13.3712C13.487 18.3281 13.6005 18.2989 13.7044 18.2474C13.8083 18.1959 13.9003 18.1232 13.9745 18.0341L18.1412 13.0341C18.2113 12.95 18.2642 12.853 18.2968 12.7484C18.3294 12.6439 18.3411 12.534 18.3311 12.4249C18.3212 12.3159 18.2899 12.2099 18.239 12.1129C18.1881 12.016 18.1186 11.93 18.0345 11.86Z" fill="#FF56FC"/>
</svg>
