<svg width="28" height="25" viewBox="0 0 28 25" fill="none" xmlns="http://www.w3.org/2000/svg">
<g clip-path="url(#clip0_1362_58)">
<path fill-rule="evenodd" clip-rule="evenodd" d="M11.6576 21.6499C14.6086 24.5356 18.7829 25.4069 22.9566 23.6043L26.4594 25L25.2989 22.2026C29.191 19.0431 28.4943 14.7008 25.6292 11.7404C25.4372 12.8783 25.0572 13.957 24.5158 14.9541C23.7463 16.372 22.6449 17.633 21.2952 18.6706C19.9876 19.6767 18.4613 20.4654 16.7977 20.9754C15.2123 21.4615 13.476 21.7043 11.6582 21.6499H11.6576ZM10.3944 10.6917H8.4092V11.6961H10.8406V13.1854H6.42459V6.8987H10.7914L10.5431 8.38807H8.4092V9.47336H10.3944V10.6917ZM15.7122 13.1854L13.9572 10.9528C13.9009 10.8812 13.8708 10.7177 13.8577 10.47H13.8178V13.1854H11.8332V6.8987H13.6991L15.454 9.13192C15.5104 9.20287 15.5399 9.36694 15.5536 9.6147H15.5929V6.8987H17.5781V13.1854H15.7122ZM12.298 0.00669612L12.3101 0.0072504C15.5957 0.108131 18.5417 1.29153 20.6499 3.12345C22.7936 4.98641 24.0794 7.5195 23.999 10.2821V10.2882C23.9164 13.0552 22.4808 15.5107 20.2272 17.2439C18.0096 18.9494 14.9941 19.9555 11.7069 19.8574C10.7865 19.8302 9.8967 19.7188 9.04959 19.5342C8.25388 19.3602 7.4899 19.1207 6.76748 18.8242L1.62959 20.8717L3.34623 16.7334C2.31591 15.836 1.48357 14.784 0.907712 13.6272C0.285915 12.3784 -0.038929 11.0071 0.00372728 9.5759C0.0857585 6.80946 1.52131 4.35341 3.77498 2.62016C5.99256 0.914618 9.00857 -0.0914127 12.2958 0.00669612H12.298ZM12.2729 1.20229L12.2608 1.20174C9.2492 1.1125 6.49896 2.0243 4.48701 3.57131C2.5117 5.09117 1.25388 7.22406 1.18279 9.60861C1.14615 10.8347 1.42615 12.0125 1.96154 13.0884C2.52427 14.2192 3.3692 15.2391 4.42521 16.0871L4.77685 16.3692L3.80177 18.7194L6.7817 17.5316L7.00427 17.628C7.72287 17.939 8.49013 18.1868 9.29459 18.3625C10.0821 18.5343 10.9008 18.6374 11.7391 18.6623C14.7519 18.7521 17.5032 17.8398 19.5151 16.2928C21.491 14.7729 22.7488 12.6406 22.8199 10.2555V10.2494C22.8888 7.86648 21.7617 5.66541 19.8821 4.03248C17.9675 2.36907 15.2812 1.2943 12.2751 1.20229H12.2729Z" fill="black"/>
</g>
<defs>
<clipPath id="clip0_1362_58">
<rect width="28" height="25" fill="white"/>
</clipPath>
</defs>
</svg>
