<svg width="20" height="20" viewBox="0 0 20 20" fill="none" xmlns="http://www.w3.org/2000/svg">
<path d="M8.72029 13.6751C8.6239 13.6775 8.528 13.6604 8.43839 13.6248C8.34877 13.5892 8.2673 13.5359 8.19886 13.4679L4.80601 10.0751C4.67198 9.94103 4.59668 9.75925 4.59668 9.5697C4.59668 9.38016 4.67198 9.19837 4.80601 9.06435C4.94003 8.93032 5.12182 8.85502 5.31136 8.85502C5.50091 8.85502 5.68269 8.93032 5.81672 9.06435L8.70601 11.9536L14.1382 6.5322C14.2045 6.46584 14.2833 6.41319 14.37 6.37728C14.4567 6.34136 14.5497 6.32288 14.6435 6.32288C14.7374 6.32288 14.8303 6.34136 14.917 6.37728C15.0037 6.41319 15.0825 6.46584 15.1489 6.5322C15.2152 6.59857 15.2679 6.67735 15.3038 6.76406C15.3397 6.85077 15.3582 6.94371 15.3582 7.03756C15.3582 7.13141 15.3397 7.22435 15.3038 7.31106C15.2679 7.39777 15.2152 7.47655 15.1489 7.54292L9.22387 13.4679C9.08994 13.6007 8.90892 13.6752 8.72029 13.6751Z" fill="#03C587"/>
<path d="M9.98507 20C8.03117 19.9971 6.12093 19.4218 4.49034 18.3453C2.85976 17.2687 1.58027 15.7381 0.809952 13.9425C0.0396356 12.1468 -0.18776 10.1648 0.155858 8.24138C0.499475 6.31793 1.39905 4.53728 2.74345 3.11942C4.08785 1.70156 5.81817 0.708612 7.72063 0.263244C9.6231 -0.182123 11.6144 -0.0603951 13.4484 0.613391C15.2825 1.28718 16.879 2.4835 18.0406 4.05456C19.2023 5.62562 19.8783 7.50258 19.9851 9.45357C19.9958 9.64249 19.9311 9.82796 19.8052 9.96924C19.6794 10.1105 19.5026 10.1961 19.3136 10.2071C19.2195 10.2129 19.1252 10.2 19.0361 10.1692C18.947 10.1383 18.8648 10.0901 18.7945 10.0274C18.7241 9.96462 18.6668 9.88855 18.626 9.80355C18.5851 9.71855 18.5615 9.62631 18.5565 9.53214C18.4596 7.74141 17.8035 6.02617 16.6805 4.62795C15.5575 3.22972 14.0243 2.21894 12.2966 1.73792C10.569 1.2569 8.73401 1.32988 7.05003 1.94658C5.36605 2.56328 3.91792 3.69264 2.90954 5.17563C1.90115 6.65862 1.38331 8.42054 1.42893 10.2133C1.47455 12.0061 2.08133 13.7394 3.16384 15.1692C4.24634 16.599 5.75004 17.6532 7.46321 18.1835C9.17637 18.7137 11.0127 18.6933 12.7136 18.125C13.7933 17.7657 14.7901 17.1937 15.6452 16.4429C16.5002 15.6922 17.1963 14.7777 17.6922 13.7536C17.7299 13.664 17.7854 13.5831 17.8554 13.5157C17.9254 13.4484 18.0084 13.396 18.0993 13.3618C18.1902 13.3276 18.2872 13.3123 18.3842 13.3169C18.4813 13.3215 18.5763 13.3458 18.6637 13.3883C18.751 13.4309 18.8287 13.4908 18.8921 13.5645C18.9554 13.6381 19.0031 13.7239 19.0322 13.8166C19.0613 13.9092 19.0712 14.0069 19.0612 14.1035C19.0513 14.2002 19.0217 14.2937 18.9744 14.3786C18.3972 15.5746 17.5859 16.6426 16.5883 17.5193C15.5908 18.3959 14.4275 19.0634 13.1672 19.4821C12.1413 19.8249 11.0667 19.9998 9.98507 20Z" fill="#0074FF"/>
</svg>
