<svg width="32" height="32" viewBox="0 0 32 32" fill="none" xmlns="http://www.w3.org/2000/svg">
<circle cx="16" cy="16" r="16" fill="white"/>
<g clip-path="url(#clip0_3002_4)">
<path fill-rule="evenodd" clip-rule="evenodd" d="M21.8125 11.1875C20.4062 9.78125 18.5 9 16.5 9C12.3812 9 9 12.3812 9 16.5C9 17.8188 9.40625 19.0688 10.0625 20.2L9 24L12.9562 23.0312C14.05 23.6313 15.25 24 16.5 24C20.6187 24 24 20.6187 24 16.5C24 14.5062 23.225 12.6 21.8125 11.1875ZM16.5 22.75C15.3875 22.75 14.325 22.3813 13.3687 21.8188L13.1438 21.6813L10.7937 22.3L11.4187 20.0063L11.2688 19.7687C10.65 18.7812 10.25 17.675 10.25 16.5C10.25 13.075 13.075 10.25 16.5 10.25C18.1562 10.25 19.75 10.9062 20.925 12.0812C22.1 13.2562 22.75 14.8438 22.75 16.5C22.75 19.925 19.9187 22.75 16.5 22.75ZM19.9375 18.0312C19.75 17.9375 18.8313 17.4875 18.6625 17.425C18.4937 17.3625 18.3687 17.3313 18.2437 17.5188C18.1187 17.7063 17.7625 18.125 17.65 18.25C17.5437 18.375 17.4312 18.3875 17.2437 18.2937C17.0562 18.2 16.4563 18.0063 15.7438 17.3688C15.1875 16.875 14.8125 16.2625 14.7063 16.075C14.6 15.8875 14.6937 15.7875 14.7875 15.6937C14.8688 15.6125 14.975 15.475 15.0687 15.3687C15.1625 15.2625 15.1937 15.1812 15.2563 15.0562C15.3188 14.9312 15.2875 14.825 15.2437 14.7312C15.1937 14.6375 14.8188 13.7188 14.6625 13.3438C14.5125 12.9812 14.3563 13.0312 14.2438 13.025C14.1375 13.0188 14.0125 13.0187 13.8875 13.0187C13.7625 13.0187 13.5625 13.0687 13.3875 13.25C13.2188 13.4375 12.7375 13.8938 12.7375 14.8125C12.7375 15.7313 13.4062 16.6188 13.5 16.7438C13.5938 16.8688 14.8187 18.7562 16.6875 19.5625C17.1313 19.7562 17.4812 19.8688 17.75 19.9563C18.2 20.1 18.6062 20.0813 18.925 20.0312C19.2812 19.975 20.0312 19.5812 20.1875 19.1437C20.3438 18.7063 20.3438 18.3313 20.2937 18.2563C20.25 18.175 20.125 18.125 19.9375 18.0312Z" fill="#03C587"/>
</g>
<defs>
<clipPath id="clip0_3002_4">
<rect width="15" height="15" fill="white" transform="translate(9 9)"/>
</clipPath>
</defs>
</svg>
