<svg width="33" height="30" viewBox="0 0 33 30" fill="none" xmlns="http://www.w3.org/2000/svg">
<path d="M11.1992 15.7888H12.9474V18.2658H11.1992V15.7888Z" fill="#D5D9CF"/>
<path d="M13.2009 18.5194H10.9453V15.535H13.2009V18.5194ZM11.4527 18.012H12.6935V16.0424H11.4527V18.012Z" fill="#333336"/>
<path d="M19.5391 15.7888H21.2872V18.2658H19.5391V15.7888Z" fill="#D5D9CF"/>
<path d="M21.5407 18.5194H19.2852V15.535H21.5407V18.5194ZM19.7925 18.012H21.0333V16.0424H19.7925V18.012Z" fill="#333336"/>
<path d="M22.5558 26.0471H17.0115V20.3552H15.3603V26.0471H10.0189C9.91283 26.0471 9.8252 26.1348 9.8252 26.2408V27.1587C9.8252 27.2648 9.91283 27.3525 10.0189 27.3525H22.5558C22.6619 27.3525 22.7496 27.2648 22.7496 27.1587V26.2408C22.7496 26.1348 22.6619 26.0471 22.5558 26.0471Z" fill="#D5D9CF"/>
<path d="M22.5556 27.6062H10.0187C9.76963 27.6062 9.57129 27.4032 9.57129 27.1588V26.2409C9.57129 25.9918 9.77424 25.7934 10.0187 25.7934H15.111V20.1016H17.2696V25.7934H22.5556C22.8047 25.7934 23.003 25.9964 23.003 26.2409V27.1588C23.003 27.4032 22.8001 27.6062 22.5556 27.6062ZM10.0741 27.0988H22.491V26.3008H16.7576V20.6089H15.6137V26.3008H10.0741V27.0988Z" fill="#333336"/>
<path d="M2.42578 10.6365H29.9027V15.9732H2.42578V10.6365Z" fill="#D8A128"/>
<path d="M30.1618 16.2269H2.17285V10.3828H30.1572V16.2269H30.1618ZM2.68023 15.7195H29.6498V10.8902H2.68023V15.7195Z" fill="#333336"/>
<path d="M1.22656 11.2039H3.79114V29.7463H1.22656V11.2039Z" fill="#FFD632"/>
<path d="M4.0495 30H0.977539V10.9502H4.0495V30ZM1.48031 29.4926H3.5375V11.4576H1.48031V29.4926Z" fill="#333336"/>
<path d="M28.7275 11.2039H31.2368V29.7463H28.7275V11.2039Z" fill="#FFD632"/>
<path d="M31.4902 30H28.4736V10.9502H31.4902V30ZM28.981 29.4926H30.9829V11.4576H28.981V29.4926Z" fill="#333336"/>
<path d="M0.253906 8.83765H32.0759V11.6651H0.253906V8.83765Z" fill="#FFD632"/>
<path d="M32.334 11.9187H0V8.58386H32.3294V11.9187H32.334ZM0.50738 11.4114H31.822V9.09124H0.50738V11.4114Z" fill="#333336"/>
<path d="M23.0863 15.987H9.39161L8.51522 1.92338C8.46448 1.01471 9.18404 0.249023 10.0973 0.249023H22.3852C23.2938 0.249023 24.018 1.01471 23.9673 1.92338L23.0863 15.987Z" fill="#68A240"/>
<path d="M23.3206 16.2408H9.15087L8.26065 1.94188C8.23298 1.42989 8.40825 0.945573 8.75881 0.576569C9.10936 0.207565 9.58445 0 10.0918 0H22.3797C22.8917 0 23.3621 0.202952 23.7127 0.576569C24.0632 0.945573 24.2385 1.4345 24.2108 1.94188L23.3206 16.2408ZM9.62597 15.7334H22.8455L23.7081 1.9096C23.7311 1.54059 23.602 1.19004 23.3483 0.92251C23.0946 0.654982 22.7533 0.50738 22.3843 0.50738H10.0918C9.72283 0.50738 9.3815 0.654982 9.12781 0.92251C8.87412 1.19004 8.74497 1.54059 8.76803 1.9096L9.62597 15.7334Z" fill="#333336"/>
<path d="M23.086 20.3551H9.38672V18.5424C9.38672 17.9889 9.83875 17.5369 10.3923 17.5369H22.0805C22.634 17.5369 23.086 17.9889 23.086 18.5424V20.3551Z" fill="#68A240"/>
<path d="M23.3395 20.6089H9.13281V18.5424C9.13281 17.8459 9.70016 17.2832 10.392 17.2832H22.0802C22.7767 17.2832 23.3395 17.8505 23.3395 18.5424V20.6089ZM9.64019 20.1015H22.8321V18.5424C22.8321 18.1273 22.4954 17.7906 22.0802 17.7906H10.392C9.97691 17.7906 9.64019 18.1273 9.64019 18.5424V20.1015Z" fill="#333336"/>
<path d="M4.78809 9.86621H7.89695V11.702H4.78809V9.86621Z" fill="#68A240"/>
<path d="M8.15042 11.9604H4.53418V9.61719H8.15042V11.9604ZM5.04156 11.453H7.64304V10.1246H5.04156V11.453Z" fill="#333336"/>
<path d="M9.54828 19.0775H6.08887V11.4622H6.59625V18.5701H9.54828V19.0775Z" fill="#333336"/>
<path d="M27.8003 11.7071H24.6914V9.87134H27.8003V11.7071Z" fill="#68A240"/>
<path d="M28.0537 11.9604H24.4375V9.61719H28.0537V11.9604ZM24.9403 11.453H27.5417V10.1246H24.9403V11.453Z" fill="#333336"/>
<path d="M26.4992 19.0775H23.0352V18.5701H25.9918V11.4622H26.4992V19.0775Z" fill="#333336"/>
<path d="M9.94043 28.4087C9.94043 28.7623 10.0809 29.1013 10.3309 29.3513C10.5809 29.6013 10.9199 29.7417 11.2735 29.7417C11.627 29.7417 11.9661 29.6013 12.216 29.3513C12.466 29.1013 12.6065 28.7623 12.6065 28.4087C12.6065 28.0552 12.466 27.7161 12.216 27.4661C11.9661 27.2161 11.627 27.0757 11.2735 27.0757C10.9199 27.0757 10.5809 27.2161 10.3309 27.4661C10.0809 27.7161 9.94043 28.0552 9.94043 28.4087Z" fill="#D5D9CF"/>
<path d="M11.2732 30C10.3969 30 9.68652 29.2896 9.68652 28.4133C9.68652 27.5369 10.3969 26.8265 11.2732 26.8265C12.1496 26.8265 12.86 27.5369 12.86 28.4133C12.86 29.2896 12.1496 30 11.2732 30ZM11.2732 27.3293C10.6782 27.3293 10.1939 27.8136 10.1939 28.4086C10.1939 29.0037 10.6782 29.488 11.2732 29.488C11.8683 29.488 12.3526 29.0037 12.3526 28.4086C12.3526 27.8136 11.8683 27.3293 11.2732 27.3293Z" fill="#333336"/>
<path d="M20.1523 28.4087C20.1523 28.7623 20.2928 29.1013 20.5428 29.3513C20.7928 29.6013 21.1318 29.7417 21.4854 29.7417C21.8389 29.7417 22.178 29.6013 22.428 29.3513C22.678 29.1013 22.8184 28.7623 22.8184 28.4087C22.8184 28.0552 22.678 27.7161 22.428 27.4661C22.178 27.2161 21.8389 27.0757 21.4854 27.0757C21.1318 27.0757 20.7928 27.2161 20.5428 27.4661C20.2928 27.7161 20.1523 28.0552 20.1523 28.4087Z" fill="#D5D9CF"/>
<path d="M21.4852 30C20.6088 30 19.8984 29.2896 19.8984 28.4133C19.8984 27.5369 20.6088 26.8265 21.4852 26.8265C22.3615 26.8265 23.0719 27.5369 23.0719 28.4133C23.0719 29.2896 22.3615 30 21.4852 30ZM21.4852 27.3293C20.8901 27.3293 20.4058 27.8136 20.4058 28.4086C20.4058 29.0037 20.8901 29.488 21.4852 29.488C22.0802 29.488 22.5645 29.0037 22.5645 28.4086C22.5645 27.8136 22.0802 27.3293 21.4852 27.3293Z" fill="#333336"/>
<path d="M14.5342 20.4014H17.8368V22.3571H14.5342V20.4014Z" fill="#D5D9CF"/>
<path d="M18.0951 22.6107H14.2852V20.1476H18.0951V22.6107ZM14.7879 22.1033H17.5831V20.655H14.7879V22.1033Z" fill="#333336"/>
</svg>
