<svg width="32" height="25" viewBox="0 0 32 25" fill="none" xmlns="http://www.w3.org/2000/svg">
<g clip-path="url(#clip0_1358_6)">
<path d="M0 5.44051L0.190542 5.1618L15.9713 0C20.5604 1.45999 25.1687 2.89282 29.7367 4.42425C30.1137 4.55103 31.6078 4.97867 31.8105 5.1628C32.0756 5.40429 32.0595 5.89934 31.7742 6.1197L27.9795 7.38851L27.8746 7.53341L27.8726 13.8362C29.4635 14.4601 29.5582 16.6335 27.9976 17.3509L29.7347 24.2393C29.8093 24.6106 29.5865 24.9336 29.2145 25L25.2322 24.9899C24.9046 24.9074 24.7181 24.6247 24.7533 24.2947L26.5015 17.3519C24.963 16.6878 25.0155 14.4047 26.6245 13.8785V7.81615L24.1323 8.6372L24.1253 13.1621C24.1101 13.3422 24.0285 13.4992 23.8964 13.6209C23.6061 13.8875 22.5475 14.4228 22.1462 14.6211C20.6784 15.3455 18.8405 15.9955 17.2093 16.1847C13.9721 16.56 10.7117 15.2741 8.03403 13.5625L7.87171 13.1621L7.86465 8.63821L0.190542 6.09454L0 5.81583V5.44051ZM29.2518 5.56629L15.9713 1.31208C12.0505 2.58794 8.1177 3.82557 4.201 5.10947C3.76648 5.25135 3.31281 5.38517 2.88737 5.54918C2.80873 5.57937 2.72203 5.52101 2.74925 5.65785L16.0297 9.94325L29.163 5.69609L29.2507 5.56528L29.2518 5.56629ZM22.8762 9.06585L15.9713 11.2563L9.12485 9.06585V12.8159C10.8962 13.7598 12.8308 14.6845 14.8522 14.933C17.7204 15.2862 20.4223 14.1582 22.8762 12.8159V9.06585ZM26.189 23.7543H28.3142L27.2213 19.5665L26.189 23.7543Z" fill="black"/>
</g>
<defs>
<clipPath id="clip0_1358_6">
<rect width="32" height="25" fill="white"/>
</clipPath>
</defs>
</svg>
