<svg width="33" height="33" viewBox="0 0 33 33" fill="none" xmlns="http://www.w3.org/2000/svg">
<path d="M10.376 29.25C14.38 29.25 17.626 26.0041 17.626 22C17.626 17.9959 14.38 14.75 10.376 14.75C6.37191 14.75 3.12598 17.9959 3.12598 22C3.12598 26.0041 6.37191 29.25 10.376 29.25Z" stroke="#03C587" stroke-width="2" stroke-miterlimit="10"/>
<path d="M0.376953 26.125L3.75195 24.75" stroke="#03C587" stroke-width="2" stroke-miterlimit="10"/>
<path d="M17.002 19.25L20.3769 17.875" stroke="#03C587" stroke-width="2" stroke-miterlimit="10"/>
<path d="M6.25098 12L7.62597 15.375" stroke="#03C587" stroke-width="2" stroke-miterlimit="10"/>
<path d="M13.126 28.625L14.501 32" stroke="#03C587" stroke-width="2" stroke-miterlimit="10"/>
<path d="M0.376953 17.875L3.75195 19.25" stroke="#03C587" stroke-width="2" stroke-miterlimit="10"/>
<path d="M17.002 24.75L20.3769 26.125" stroke="#03C587" stroke-width="2" stroke-miterlimit="10"/>
<path d="M14.501 12L13.126 15.375" stroke="#03C587" stroke-width="2" stroke-miterlimit="10"/>
<path d="M7.62597 28.625L6.25098 32" stroke="#03C587" stroke-width="2" stroke-miterlimit="10"/>
<path d="M23.626 14.625C26.8706 14.625 29.501 11.9947 29.501 8.74999C29.501 5.50532 26.8706 2.875 23.626 2.875C20.3813 2.875 17.751 5.50532 17.751 8.74999C17.751 11.9947 20.3813 14.625 23.626 14.625Z" stroke="#03C587" stroke-width="2" stroke-miterlimit="10"/>
<path d="M17.376 15L19.501 12.875" stroke="#03C587" stroke-width="2" stroke-miterlimit="10"/>
<path d="M27.751 4.625L29.751 2.625" stroke="#03C587" stroke-width="2" stroke-miterlimit="10"/>
<path d="M17.376 2.625L19.501 4.625" stroke="#03C587" stroke-width="2" stroke-miterlimit="10"/>
<path d="M27.751 12.875L29.751 15" stroke="#03C587" stroke-width="2" stroke-miterlimit="10"/>
<path d="M14.876 8.75H17.751" stroke="#03C587" stroke-width="2" stroke-miterlimit="10"/>
<path d="M29.502 8.75H32.3769" stroke="#03C587" stroke-width="2" stroke-miterlimit="10"/>
<path d="M23.626 0V2.875" stroke="#03C587" stroke-width="2" stroke-miterlimit="10"/>
<path d="M23.626 14.6249V17.4999" stroke="#03C587" stroke-width="2" stroke-miterlimit="10"/>
</svg>
