<svg width="45" height="35" viewBox="0 0 45 35" fill="none" xmlns="http://www.w3.org/2000/svg">
<g clip-path="url(#clip0_338_374)">
<path d="M3.09837 11.5401C2.70286 11.8801 2.21214 12.0279 1.73606 11.9909C1.25633 11.954 0.791238 11.7323 0.454324 11.3332L0.447 11.3221C0.113748 10.9267 -0.0290743 10.4316 0.00754678 9.95493C0.0441679 9.47087 0.263894 9.00159 0.659402 8.66164L0.663064 8.65795C3.98094 5.78685 7.5222 3.61413 11.1843 2.16196C14.8757 0.698699 18.6916 -0.0292363 22.5368 0.00401965C26.3271 0.0372756 30.1321 0.813247 33.8528 2.3541C37.4453 3.84323 40.9573 6.04921 44.3081 8.9942C44.3484 9.02376 44.385 9.05702 44.4143 9.09027C44.7659 9.43022 44.9636 9.87733 44.9929 10.3355C45.0222 10.7937 44.8867 11.263 44.5827 11.6473C44.5534 11.6916 44.5168 11.7323 44.4765 11.7692C44.1396 12.124 43.6965 12.3235 43.2424 12.353C42.7663 12.3863 42.272 12.2311 41.8838 11.8875C38.8552 9.21591 35.6948 7.22425 32.4795 5.88293C29.1872 4.50835 25.8364 3.82106 22.5075 3.7915C19.1384 3.76194 15.7766 4.41228 12.5063 5.71295C9.24705 7.00993 6.07932 8.96095 3.09837 11.5401ZM22.5002 26.7048C23.6355 26.7048 24.6609 27.1704 25.4043 27.9205C26.1477 28.6706 26.6091 29.7089 26.6091 30.8507C26.6091 31.9962 26.1477 33.0308 25.4043 33.7809C24.6609 34.531 23.6318 34.9966 22.5002 34.9966C21.365 34.9966 20.3396 34.531 19.5925 33.7809C18.8491 33.0308 18.3877 31.9925 18.3877 30.8507C18.3877 29.7089 18.8491 28.6706 19.5925 27.9205C20.3396 27.1704 21.365 26.7048 22.5002 26.7048ZM15.4067 24.4508C15.0039 24.7797 14.5058 24.9164 14.0298 24.8647C13.5757 24.8166 13.1362 24.6023 12.8139 24.2328C12.7773 24.1958 12.7444 24.1552 12.7187 24.1146C12.4258 23.7192 12.3086 23.2462 12.3562 22.788C12.4038 22.3298 12.6162 21.8864 12.9824 21.5612C13.0154 21.528 13.052 21.4984 13.0886 21.4726C14.5534 20.279 16.0842 19.3664 17.6553 18.7493C19.2483 18.1211 20.8852 17.7996 22.5368 17.7959C24.1665 17.7922 25.7925 18.0952 27.3965 18.7197C28.9529 19.3257 30.4873 20.2384 31.9668 21.4578C32.3696 21.7866 32.6003 22.2522 32.6516 22.7326C32.6992 23.2129 32.5674 23.7155 32.2414 24.1219L32.2378 24.1256C31.9118 24.5284 31.4541 24.7612 30.9743 24.8129C30.4983 24.861 30.0002 24.7279 29.5974 24.3991C28.4475 23.4494 27.272 22.7474 26.0964 22.2818C24.9062 21.8088 23.716 21.5797 22.5368 21.5834C21.3467 21.5871 20.1491 21.831 18.959 22.3076C17.7468 22.788 16.5566 23.5086 15.4067 24.4508ZM9.45213 18.3465C9.42283 18.3761 9.38987 18.4056 9.35691 18.4278C8.97971 18.7382 8.51463 18.8749 8.06419 18.849C7.5991 18.8195 7.145 18.6162 6.80442 18.2467C6.77146 18.2172 6.74583 18.1839 6.72019 18.1507C6.41258 17.7701 6.27708 17.3008 6.30271 16.8463C6.33201 16.3622 6.54441 15.8893 6.9326 15.5419C9.42649 13.3138 12.0046 11.6288 14.6267 10.5129C17.2561 9.39697 19.9331 8.8464 22.6284 8.89443C25.2908 8.93877 27.9494 9.55955 30.5715 10.7789C33.124 11.9651 35.6472 13.7202 38.1118 16.0629L38.1594 16.1073C38.5073 16.4583 38.6867 16.9202 38.7014 17.3858C38.716 17.8698 38.5476 18.3576 38.1924 18.7382L38.1484 18.7862C37.7969 19.1373 37.3428 19.322 36.8813 19.3368C36.4016 19.3516 35.9182 19.1816 35.541 18.8232C33.406 16.7909 31.2453 15.2796 29.0884 14.2597C26.9094 13.2325 24.7304 12.7115 22.5698 12.6745C20.3762 12.6376 18.1753 13.0995 15.9927 14.038C13.7844 14.995 11.5945 16.4361 9.45213 18.3465Z" fill="white"/>
</g>
<defs>
<clipPath id="clip0_338_374">
<rect width="45" height="35" fill="white"/>
</clipPath>
</defs>
</svg>
