<svg width="50" height="60" viewBox="0 0 50 60" fill="none" xmlns="http://www.w3.org/2000/svg">
<g clip-path="url(#clip0_345_753)">
<path d="M0.572149 59.5752C0.237587 59.4189 0 59.082 0 58.6816V0.976562C0 0.439453 0.431536 0 0.969744 0H10.3763H49.0303C49.5636 0 50 0.43457 50 0.976562V53.5791C50 53.6328 49.9951 53.6816 49.9903 53.7305C49.8545 55.6494 49.2339 57.1436 48.1187 58.2178C47.0035 59.2822 45.4374 59.8779 43.4057 59.9951C43.3621 60 43.3233 60.0049 43.2797 60.0049H1.37219C1.04247 60 0.746703 59.8291 0.572149 59.5752ZM22.0229 19.082C23.2205 21.5918 26.8425 21.6797 27.9868 19.0967C27.6765 18.7793 27.4438 18.4375 27.211 18.1006C27.1722 18.0469 27.1334 17.9883 27.0995 17.9346C26.5467 18.374 25.8776 18.6572 25.0048 18.6572C24.0642 18.6572 23.3514 18.291 22.7696 17.7539C22.7356 17.7197 22.7017 17.6904 22.6678 17.6562C22.5853 17.8906 22.4787 18.1689 22.3671 18.4277C22.2508 18.6768 22.1344 18.9111 22.0229 19.082ZM28.3214 18.8184C29.5966 19.7266 32.6998 19.9463 33.8926 20.6152C34.2901 20.835 34.6441 21.1182 34.935 21.5039C35.5363 22.2998 36.7581 25.1953 34.7702 25.3467H31.0318L31.4924 20.1611C30.4887 19.9658 29.4269 19.8096 28.3165 19.165C27.6329 22.1973 22.9829 22.6318 21.6447 19.248C20.6507 19.751 19.681 20.0439 18.5221 20.2197L19.2446 25.3418H15.2298C13.2419 25.1904 14.4686 22.2949 15.065 21.499C15.351 21.1182 15.7099 20.835 16.1074 20.6104C17.2954 19.9414 20.384 19.7217 21.6689 18.8232C21.7611 18.6816 21.8629 18.4717 21.9599 18.2471C22.1053 17.9102 22.2411 17.5391 22.3284 17.2852C21.9695 16.8604 21.6641 16.3818 21.3683 15.9082L20.3986 14.3506C20.0446 13.8184 19.8604 13.3301 19.8458 12.9297C19.841 12.7393 19.8701 12.5684 19.9428 12.4219C20.0155 12.2656 20.127 12.1338 20.2773 12.0312C20.3452 11.9824 20.4277 11.9434 20.5149 11.9092C20.4519 11.0645 20.4277 10 20.4713 9.11133C20.4907 8.90137 20.5343 8.68652 20.5925 8.47656C20.8398 7.58301 21.4653 6.86523 22.2362 6.36719C22.6629 6.09375 23.1284 5.88867 23.6133 5.75195C23.9187 5.66406 23.5696 4.96582 23.8896 4.93164C25.4315 4.77051 27.7104 5.89844 28.7868 7.07031C29.3251 7.65625 29.6645 8.4375 29.7372 9.46777L29.6742 12.0068C29.9457 12.0898 30.1154 12.2607 30.1881 12.5391C30.2657 12.8467 30.1833 13.2812 29.9214 13.877C29.9166 13.8867 29.9118 13.8965 29.9069 13.9111L28.8014 15.7471C28.3941 16.4209 27.982 17.0996 27.4438 17.6318C27.4922 17.7002 27.5407 17.7734 27.5892 17.8467C27.8074 18.1689 28.0304 18.4961 28.3117 18.7842C28.3068 18.7988 28.3165 18.8086 28.3214 18.8184ZM21.0677 12.3633C20.8543 12.373 20.6895 12.417 20.578 12.4902C20.5149 12.5342 20.4664 12.5879 20.4374 12.6514C20.4034 12.7246 20.3889 12.8125 20.3937 12.915C20.4034 13.2129 20.5586 13.6035 20.8543 14.0527L20.8592 14.0576L21.8289 15.6152C22.2168 16.2402 22.629 16.875 23.1332 17.3438C23.623 17.793 24.2145 18.0957 24.9951 18.1006C25.8437 18.1006 26.4643 17.7881 26.9686 17.3096C27.4922 16.8164 27.9044 16.1377 28.3117 15.4639L29.4075 13.6475C29.6111 13.1787 29.6839 12.8662 29.6402 12.6807C29.6111 12.5732 29.4948 12.5195 29.2863 12.5049C29.2426 12.5049 29.199 12.5 29.1554 12.5049C29.1069 12.5049 29.0535 12.5098 29.0002 12.5146C28.9711 12.5195 28.942 12.5146 28.9178 12.5098C28.8208 12.5146 28.719 12.5098 28.6171 12.4951L28.9905 10.8252C26.2073 11.2646 24.1272 9.18457 21.1841 10.4102L21.3974 12.3779C21.2859 12.3828 21.1744 12.3779 21.0677 12.3633ZM34.1689 52.8223C33.6404 52.8223 33.2089 52.3877 33.2089 51.8457C33.2089 51.3086 33.6356 50.8691 34.1689 50.8691H42.2566C42.7851 50.8691 43.2166 51.3037 43.2166 51.8457C43.2166 52.3828 42.79 52.8223 42.2566 52.8223H34.1689ZM8.15555 45.7129C7.62704 45.7129 7.1955 45.2783 7.1955 44.7363C7.1955 44.1992 7.62219 43.7598 8.15555 43.7598H42.339C42.8675 43.7598 43.2991 44.1943 43.2991 44.7363C43.2991 45.2734 42.8724 45.7129 42.339 45.7129H8.15555ZM8.31071 38.6035C7.7822 38.6035 7.35066 38.1689 7.35066 37.627C7.35066 37.0898 7.77735 36.6504 8.31071 36.6504H42.2517C42.7803 36.6504 43.2118 37.085 43.2118 37.627C43.2118 38.1641 42.7851 38.6035 42.2517 38.6035H8.31071ZM8.15555 31.4941C7.62704 31.4941 7.1955 31.0596 7.1955 30.5176C7.1955 29.9805 7.62219 29.541 8.15555 29.541H22.7647C23.2933 29.541 23.7248 29.9756 23.7248 30.5176C23.7248 31.0547 23.2981 31.4941 22.7647 31.4941H8.15555ZM26.4934 31.4941C25.9649 31.4941 25.5334 31.0596 25.5334 30.5176C25.5334 29.9805 25.96 29.541 26.4934 29.541H42.2517C42.7803 29.541 43.2118 29.9756 43.2118 30.5176C43.2118 31.0547 42.7851 31.4941 42.2517 31.4941H26.4934ZM48.0654 53.5547V1.94824H10.3763H1.93464V58.0518H43.2748H43.2942C44.8507 57.9639 46.0144 57.5439 46.7853 56.8066C47.5465 56.0791 47.9684 54.9902 48.0654 53.5547Z" fill="white"/>
</g>
<defs>
<clipPath id="clip0_345_753">
<rect width="50" height="60" fill="white"/>
</clipPath>
</defs>
</svg>
