<svg width="38" height="38" viewBox="0 0 38 38" fill="none" xmlns="http://www.w3.org/2000/svg">
<path d="M30.3414 11.3406C29.2133 10.925 28.5602 9.91563 28.5602 8.7875C28.5602 8.37188 28.6789 8.01562 28.857 7.6C29.807 5.7 28.3227 3.74063 26.482 3.74063C26.1258 3.74063 25.7102 3.8 25.3539 3.97812C24.9977 4.15625 24.582 4.21563 24.2258 4.21563C23.0977 4.21563 22.0883 3.5625 21.6727 2.43437C21.257 1.24687 20.1883 0.59375 19.1195 0.59375C18.0508 0.59375 17.0414 1.1875 16.6258 2.375C16.2102 3.50312 15.2008 4.15625 14.0727 4.15625C13.657 4.15625 13.3008 4.0375 12.8852 3.85938C10.9852 2.90937 9.02578 4.39375 9.02578 6.23438C9.02578 6.59062 9.08516 7.00625 9.26328 7.3625C9.44141 7.71875 9.50078 8.13438 9.50078 8.49062C9.50078 9.61875 8.84766 10.6281 7.71953 11.0437C6.53203 11.4594 5.87891 12.5281 5.87891 13.5969C5.87891 14.6656 6.47266 15.675 7.66016 16.0906C8.78828 16.5063 9.44141 17.5156 9.44141 18.6437C9.44141 19.0594 9.32266 19.4156 9.14453 19.8313C8.19453 21.7313 9.67891 23.6906 11.5195 23.6906C11.5789 23.6906 11.6383 23.6906 11.757 23.6906C12.0539 23.6906 12.3508 23.5719 12.707 23.4531C13.0633 23.275 13.4789 23.2156 13.8352 23.2156C14.9633 23.2156 15.9727 23.8687 16.3883 24.9969C16.6258 25.7687 17.1602 26.2437 17.7539 26.5406C18.1102 26.7188 18.5258 26.8375 18.9414 26.8375C19.4164 26.8375 19.832 26.7188 20.2477 26.4812C20.782 26.1844 21.1977 25.7094 21.4352 25.0562C21.8508 23.9281 22.8602 23.275 23.9883 23.275C24.4039 23.275 24.7602 23.3938 25.1758 23.5719C25.5914 23.75 25.9477 23.8687 26.3633 23.8687C27.7883 23.8687 29.0352 22.6219 29.0352 21.1969C29.0352 20.8406 28.9758 20.425 28.7977 20.0688C28.6195 19.7125 28.5602 19.2969 28.5602 18.9406C28.5602 17.8125 29.2133 16.8031 30.3414 16.3875C32.7164 15.5563 32.7164 12.2312 30.3414 11.3406ZM19.0008 20.3062C15.3789 20.3062 12.4695 17.3969 12.4695 13.775C12.4695 10.1531 15.3789 7.24375 19.0008 7.24375C22.6227 7.24375 25.532 10.1531 25.532 13.775C25.532 17.3969 22.6227 20.3062 19.0008 20.3062Z" fill="#FFEEA9"/>
<path d="M32.0627 34.0812L28.5596 34.5562L26.3033 37.2875L20.2471 26.5406C20.7814 26.2437 21.1971 25.7687 21.4346 25.1156C21.8502 23.9875 22.8596 23.3344 23.9877 23.3344C24.4033 23.3344 24.7596 23.4531 25.1752 23.6312C25.5908 23.8094 25.9471 23.9281 26.3627 23.9281L32.0627 34.0812Z" fill="#D32436"/>
<path d="M17.7531 26.6L11.6969 37.3469L9.44062 34.6156L5.9375 34.0813L11.7562 23.75C12.0531 23.75 12.35 23.6313 12.7062 23.5125C13.0625 23.3344 13.4781 23.275 13.8344 23.275C14.9625 23.275 15.9719 23.9281 16.3875 25.0563C16.625 25.8281 17.1594 26.3031 17.7531 26.6Z" fill="#D32436"/>
<path d="M26.1852 13.775C26.1852 9.79683 22.9789 6.59058 19.0008 6.59058C15.0227 6.59058 11.8164 9.79683 11.8164 13.775C11.8164 17.7531 15.0227 20.9593 19.0008 20.9593C22.9789 20.9593 26.1852 17.7531 26.1852 13.775ZM19.0008 19.6531C15.7352 19.6531 13.1227 17.0406 13.1227 13.775C13.1227 10.5093 15.7352 7.89683 19.0008 7.89683C22.2664 7.89683 24.8789 10.5093 24.8789 13.775C24.8789 17.0406 22.2664 19.6531 19.0008 19.6531Z" fill="#330D00"/>
<path d="M27.3129 24.4031C28.6191 23.9875 29.6285 22.7406 29.6285 21.2563C29.6285 20.7812 29.5098 20.3063 29.3316 19.8313C29.2129 19.5938 29.1535 19.2969 29.1535 18.9406C29.1535 18.05 29.6879 17.2781 30.5191 16.9813C31.8848 16.5063 32.7754 15.2594 32.7754 13.8344C32.7754 12.4094 31.9441 11.1625 30.5785 10.6875C29.7473 10.3906 29.2129 9.61875 29.2129 8.7875C29.2129 8.49063 29.2723 8.19375 29.4504 7.89687C29.9848 6.82812 29.9254 5.64062 29.2723 4.69063C28.3816 3.26562 26.541 2.73125 24.9973 3.44375C24.7598 3.5625 24.4629 3.62188 24.1066 3.62188C23.216 3.62188 22.4441 3.0875 22.1473 2.25625C21.791 0.890625 20.5441 0 19.0598 0C17.6348 0 16.4473 0.83125 15.9129 2.19688C15.4973 3.325 14.191 3.85938 13.1223 3.325C12.0535 2.79062 10.866 2.85 9.91602 3.50312C8.90664 4.09688 8.31289 5.225 8.31289 6.35313C8.31289 6.82812 8.43164 7.30313 8.60977 7.77813C8.72852 8.01562 8.78789 8.3125 8.78789 8.66875C8.78789 9.55937 8.25352 10.3313 7.42227 10.6281C6.05664 11.1031 5.16602 12.35 5.16602 13.775C5.16602 15.2 5.99727 16.3875 7.36289 16.9219C8.19414 17.2188 8.72852 17.9906 8.72852 18.8219C8.72852 19.1187 8.66914 19.4156 8.49102 19.7125C7.95664 20.7812 8.01602 21.9688 8.66914 22.9187C9.14414 23.6312 9.85664 24.1656 10.6879 24.4031L5.34414 33.7844C5.22539 33.9625 5.22539 34.2 5.34414 34.3781C5.46289 34.5563 5.64102 34.7344 5.81914 34.7344L9.08477 35.2094L11.1629 37.7625C11.2816 37.9406 11.4598 38 11.6973 38H11.7566C11.9941 38 12.1723 37.8813 12.291 37.6437L18.0504 27.3719C18.3473 27.4312 18.6441 27.4906 18.941 27.4906C19.2973 27.4906 19.6535 27.4312 19.9504 27.3125L25.7691 37.5844C25.8879 37.7625 26.066 37.8813 26.3035 37.9406H26.3629C26.541 37.9406 26.7191 37.8812 26.8973 37.7031L28.9754 35.15L32.241 34.675C32.4785 34.675 32.6566 34.4969 32.716 34.3187C32.8348 34.1406 32.8348 33.9031 32.716 33.725L27.3129 24.4031ZM11.5785 36.2188L9.97539 34.2C9.85664 34.0812 9.73789 33.9625 9.55977 33.9625L7.00664 33.6063L12.1723 24.3438C12.2316 24.3438 12.2316 24.3438 12.291 24.3438C12.5285 24.2844 12.766 24.225 13.0035 24.1062C13.241 23.9875 13.5379 23.9281 13.8348 23.9281C14.666 23.9281 15.4973 24.4625 15.7941 25.2937C15.9129 25.5906 16.0316 25.8281 16.2098 26.0656C16.2691 26.125 16.2691 26.1844 16.3285 26.2437C16.5066 26.4813 16.6848 26.6594 16.8629 26.8375L11.5785 36.2188ZM17.991 26.0063C17.516 25.7687 17.1598 25.3531 16.9816 24.8188C16.5066 23.4531 15.2598 22.5625 13.8348 22.5625C13.3598 22.5625 12.8848 22.6812 12.4098 22.8594C12.1723 22.9781 11.9348 23.0375 11.6973 23.0375H11.5191C10.8066 23.0375 10.1535 22.6812 9.79727 22.0875C9.44102 21.4937 9.38164 20.7812 9.73789 20.1281C9.97539 19.6531 10.0941 19.1781 10.0941 18.6437C10.0941 17.2188 9.20352 15.9719 7.89727 15.4969C6.88789 15.1406 6.53164 14.3094 6.53164 13.5969C6.53164 12.8844 6.88789 11.9938 7.89727 11.6375C9.26289 11.1625 10.1535 9.91563 10.1535 8.49063C10.1535 8.01562 10.0348 7.54062 9.85664 7.06562C9.73789 6.76875 9.67852 6.47187 9.67852 6.175C9.67852 5.4625 10.0348 4.80937 10.6285 4.45312C11.2223 4.09688 11.9348 4.0375 12.5879 4.39375C13.0629 4.75 13.5379 4.86875 14.0129 4.86875C15.4379 4.86875 16.6848 3.97813 17.1598 2.67188C17.516 1.6625 18.3473 1.36563 19.0598 1.36563C19.7723 1.36563 20.6629 1.72187 21.0191 2.73125C21.4941 4.09687 22.741 4.9875 24.166 4.9875C24.641 4.9875 25.116 4.86875 25.591 4.69063C26.541 4.275 27.6691 4.63125 28.2035 5.4625C28.5598 6.05625 28.6191 6.76875 28.2629 7.42188C28.0254 7.77812 27.9066 8.3125 27.9066 8.7875C27.9066 10.2125 28.7973 11.4594 30.1035 11.9344C31.1129 12.2906 31.4691 13.1812 31.4098 13.8344C31.4098 14.5469 31.0535 15.3781 30.0441 15.7344C28.6785 16.2094 27.7879 17.4562 27.7879 18.8813C27.7879 19.3562 27.9066 19.8313 28.0848 20.3062C28.2035 20.6031 28.2629 20.9 28.2629 21.1969C28.2629 22.3844 27.1348 23.3937 25.8879 23.1562H25.8285C25.6504 23.0969 25.4723 23.0375 25.2941 22.9781C24.8191 22.7406 24.3441 22.6219 23.8098 22.6219C22.3848 22.6219 21.1379 23.5125 20.6629 24.8188C20.4848 25.2937 20.1879 25.65 19.7723 25.8875C19.2973 26.3031 18.5848 26.3031 17.991 26.0063ZM28.441 33.9625C28.2629 33.9625 28.1441 34.0812 28.0254 34.2L26.4223 36.2188L21.0785 26.7781L21.1379 26.7188C21.316 26.6 21.4348 26.4219 21.5535 26.2437C21.6129 26.1844 21.6129 26.125 21.6723 26.0656C21.791 25.8875 21.9098 25.65 22.0285 25.4125C22.0879 25.2937 22.0879 25.2344 22.1473 25.1156C22.6223 24.225 23.8098 23.75 24.8191 24.225C25.116 24.3438 25.3535 24.4625 25.6504 24.5219C25.7098 24.5219 25.7691 24.5813 25.8285 24.5813L30.9348 33.6063L28.441 33.9625Z" fill="#330D00"/>
</svg>
