<svg width="98" height="100" viewBox="0 0 98 100" fill="none" xmlns="http://www.w3.org/2000/svg">
<path d="M85.8014 35.1574C85.7911 40.4254 83.8152 45.4991 80.2623 49.3809C76.7093 53.2627 71.8363 55.6718 66.6012 56.1346C61.3661 56.5975 56.1476 55.0805 51.9717 51.8821C47.7957 48.6836 44.9645 44.0349 44.0344 38.85C43.1044 33.6651 44.1429 28.319 46.9458 23.8627C49.7487 19.4064 54.1132 16.1623 59.1812 14.7682C64.2493 13.374 69.6543 13.9307 74.3337 16.3287C79.0131 18.7268 82.6283 22.7927 84.4686 27.7272C84.5145 27.8511 84.5593 27.975 84.6029 28.1001V28.1013C84.7971 28.6512 84.9682 29.2114 85.1162 29.7818C85.5726 31.5369 85.8029 33.3435 85.8014 35.1573V35.1574Z" fill="#03C587"/>
<path d="M62.2917 20.8254C61.3394 20.3092 60.282 20.0179 59.2002 19.9736C58.1185 19.9293 57.0409 20.1332 56.0497 20.5698C55.1769 20.9506 54.2579 21.6336 53.9668 22.8669C55.1444 22.1703 56.6686 23.271 56.9716 25.0366L56.9009 25.0562C56.7408 26.2791 57.098 27.6106 57.7898 28.369C57.8412 28.0268 57.968 27.7004 58.161 27.4135C58.354 27.1266 58.6083 26.8864 58.9054 26.7104C59.4136 26.3755 59.9759 26.1322 60.3637 25.5566C60.8236 24.8743 60.9404 23.8772 61.123 22.9671C61.3056 22.0569 61.6523 21.0789 62.2917 20.8254Z" fill="#090814"/>
<path d="M55.943 31.4018C55.6169 31.8927 55.1813 32.2008 54.7904 32.5843C54.3394 32.9958 54.0436 33.5505 53.9528 34.155C53.9033 34.5822 53.9798 35.0165 53.9693 35.4485C53.9587 35.8805 53.8151 36.3667 53.5219 36.474C53.0592 36.6416 52.7061 35.7804 52.2304 35.7195C51.8525 35.6723 51.5122 36.2683 51.6217 36.7852C51.7312 37.3022 52.2457 37.5311 52.5412 37.1935C52.8083 37.6432 52.6201 38.4591 52.2186 38.5966C52.1763 38.8798 52.1337 39.1619 52.0926 39.4451C51.0778 38.7334 50.0523 38.0101 49.1894 36.968C48.2296 35.8189 47.6343 34.4085 47.4799 32.9178C47.3681 31.7199 47.5341 30.35 46.9855 29.4282C46.5464 28.6906 45.7928 28.5277 45.1146 28.5738C44.9911 28.5821 44.8663 28.5962 44.7427 28.6115C45.1426 27.4075 45.6505 26.2422 46.2602 25.1301C46.3982 25.0707 46.5264 24.9908 46.6404 24.8929C47.2717 24.356 47.5517 23.269 48.0638 22.5173C48.0967 22.4686 48.1309 22.4214 48.1662 22.3757C48.6902 21.69 49.3924 21.3371 50.0699 21.009C51.571 20.2789 53.1156 19.5386 54.7002 19.6401L54.2493 19.6838C53.7233 21.1613 53.1966 22.6389 52.6694 24.1164C52.5894 24.343 52.5084 24.5701 52.4266 24.7979C52.1276 25.6376 51.8196 26.5326 51.865 27.4732C51.8921 28.0302 52.0851 28.625 52.4525 28.8162C52.7951 28.9933 53.1695 28.776 53.5003 28.5613C53.6404 28.4716 53.7795 28.3819 53.9194 28.291C54.4221 27.9664 54.979 27.6338 55.5097 27.8508C55.9959 28.049 56.3551 28.7112 56.4233 29.4252C56.486 30.1192 56.317 30.8145 55.943 31.402V31.4018Z" fill="#090814"/>
<path d="M58.6902 41.3196L54.2856 38.6011L54.3105 38.5367C53.3977 38.8853 53.0187 40.5118 53.1693 41.8421C53.32 43.1723 53.8317 44.3611 54.0902 45.6574C54.4386 47.4311 54.3071 49.2659 53.7092 50.9714C55.6398 48.8 57.3484 46.44 58.8093 43.9268C59.0134 43.6101 59.1689 43.2644 59.2707 42.9014C59.3785 42.5146 59.3401 42.1014 59.1628 41.7412C59.0427 41.5634 58.8802 41.4185 58.6901 41.3195L58.6902 41.3196Z" fill="#090814"/>
<path d="M52.8954 24.8337C52.723 25.2048 52.6965 25.6274 52.821 26.0172C52.9659 26.3313 53.2287 26.5753 53.5522 26.696L54.3634 27.099C54.6333 27.2329 54.9242 27.3686 55.1993 27.2582C55.5311 27.1252 55.7613 26.6036 55.7017 26.1195C55.6383 25.6044 55.3144 25.25 55.0148 24.9482L53.757 23.6813L53.5208 23.9714C53.2652 24.2213 53.0538 24.5128 52.8956 24.8336L52.8954 24.8337Z" fill="#090814"/>
<path d="M81.4525 30.3411L82.5475 30.5996C82.4838 31.8352 81.8728 32.9787 81.0535 33.393C80.7121 33.5653 80.3317 33.6289 80.0492 33.9512C79.7943 34.2439 79.6643 34.6994 79.5453 35.1349L78.9201 37.415C78.6964 38.234 78.4091 39.1439 77.8274 39.4389C77.3282 39.6926 76.7573 39.3822 76.3735 38.8618C75.9898 38.3414 75.7555 37.6416 75.5282 36.9595C75.5423 37.7029 75.1974 38.432 74.7087 38.6907C74.2201 38.9494 73.6233 38.715 73.296 38.1384C73.0606 37.7247 72.9629 37.1778 72.7321 36.7577C72.5013 36.3376 72.0175 36.0968 71.7655 36.491C71.5995 36.753 71.6206 37.1542 71.5382 37.487C71.4967 37.708 71.3876 37.9104 71.2259 38.0663C71.0643 38.2222 70.8583 38.3237 70.6364 38.3568C70.4324 38.3521 70.2315 38.3058 70.0459 38.2208C69.8603 38.1358 69.6939 38.0138 69.5568 37.8623C68.8359 37.1231 68.3665 36.1743 68.2159 35.1516C68.1138 34.6613 68.1266 34.1538 68.2535 33.6694C68.3984 33.2103 68.748 32.8563 69.0953 32.9436C69.3237 32.4597 68.8728 31.8178 68.4667 31.8744C68.0606 31.931 67.7404 32.3688 67.406 32.7052C67.0717 33.0415 66.6067 33.2858 66.2711 32.9518C66.2749 33.0123 66.2667 33.073 66.247 33.1303C66.2273 33.1876 66.1966 33.2405 66.1566 33.2859C66.1165 33.3313 66.068 33.3683 66.0136 33.3949C65.9593 33.4215 65.9003 33.4371 65.8399 33.4408C65.8279 33.4415 65.8157 33.4418 65.8035 33.4417C65.5804 33.3775 65.3731 33.2674 65.1948 33.1183C64.4261 32.638 63.45 32.9567 62.9038 33.8654C63.2452 32.4091 63.7456 30.7379 64.7945 30.3958C65.2231 30.2554 65.6905 30.3714 66.0955 30.1281C66.8125 29.6974 66.9574 28.07 66.3383 27.3985C66.4172 28.0333 66.4019 28.7745 66.0676 29.2088C65.7332 29.6431 65.0315 29.3598 65.0739 28.7179C65.0645 28.8082 65.0267 28.8932 64.9661 28.9608C64.9055 29.0283 64.8252 29.0748 64.7365 29.0938C64.6479 29.1127 64.5556 29.103 64.4728 29.0661C64.39 29.0291 64.321 28.9669 64.2757 28.8882C64.0531 28.5483 64.0721 27.9926 64.2298 27.5861C64.3924 27.2184 64.6257 26.8864 64.9162 26.6089C65.4754 26.0082 66.0429 25.4005 66.6904 25.0228C67.3378 24.645 68.0878 24.5177 68.7377 24.8929C69.0803 25.0911 69.3811 25.4215 69.7314 25.5963C69.8135 25.6474 69.9049 25.6818 70.0004 25.6975C70.0958 25.7132 70.1934 25.7099 70.2875 25.6878C70.3817 25.6657 70.4706 25.6252 70.5491 25.5687C70.6277 25.5121 70.6943 25.4406 70.7453 25.3583C70.7493 25.3519 70.7531 25.3455 70.7569 25.339C71.017 24.8811 70.8946 24.2014 70.9912 23.629C71.1642 22.6176 72.1731 22.1443 72.7324 22.8123C72.3144 22.705 71.8826 23.2006 71.8307 23.8013C71.7787 24.402 72.0803 25.0086 72.4853 25.1903C73.1657 25.4924 73.8321 24.7324 74.3466 24.0291C74.8834 23.2927 75.4211 22.5567 75.9596 21.8211C76.0455 21.6959 76.142 21.5782 76.248 21.4694C76.4166 21.3047 76.6414 21.2103 76.8769 21.2055C77.1123 21.2007 77.3407 21.2858 77.5159 21.4435C78.0598 21.8884 78.3154 22.8006 78.7615 23.4284C79.409 24.3411 80.378 24.5625 81.2798 24.7396C81.952 24.8706 82.6247 25.0024 83.2977 25.135C83.7464 25.9716 84.1377 26.8379 84.4691 27.7278C83.2349 28.2917 82.188 29.1987 81.4525 30.3411Z" fill="#090814"/>
<path d="M83.626 44.5407C83.1216 45.5673 82.535 46.5511 81.8719 47.4825C81.4481 47.3009 80.9925 47.6253 80.5957 47.9298C80.1812 48.2484 79.6833 48.5588 79.2583 48.2684C78.824 47.971 78.6839 47.1391 78.8213 46.4795C78.9796 45.871 79.2565 45.2999 79.636 44.7991C79.9892 44.2703 80.3671 43.7216 80.8581 43.5163C81.349 43.311 81.9824 43.6015 82.126 44.3023L82.4744 44.2901C82.279 44.0211 82.3814 43.4641 82.6444 43.3661C82.9469 43.2516 83.2095 43.6682 83.3885 44.0364C83.4683 44.2029 83.5496 44.3703 83.626 44.5407Z" fill="#090814"/>
<path d="M70.279 39.5558C69.53 39.603 68.9367 38.6788 68.543 37.7694C68.1493 36.8599 67.7889 35.8202 67.1131 35.3573C66.7269 35.0928 66.2866 35.0565 65.8677 34.9283C65.6301 34.8681 65.4103 34.7521 65.2264 34.5898C65.0425 34.4274 64.8998 34.2235 64.8102 33.9949L64.335 33.8025C63.6703 34.1357 63.0617 34.5709 62.531 35.0924C61.9245 35.7382 61.5468 36.566 61.4561 37.4482C61.3653 38.4016 61.7005 39.4645 62.3268 39.8227C62.8216 40.1056 63.3978 39.9273 63.899 40.1863C64.5253 40.51 64.897 41.4502 65.0378 42.3785C65.1787 43.3068 65.1428 44.2716 65.2436 45.2105C65.3444 46.1493 65.6218 47.1263 66.1961 47.6078C66.9148 48.21 67.9695 47.7096 68.2919 46.6136C68.4497 46.0759 68.4446 45.4697 68.563 44.9113C68.7713 43.9285 69.3334 43.1995 69.7793 42.3932C70.2252 41.587 70.5755 40.4914 70.279 39.5558Z" fill="#090814"/>
<path d="M62.8773 29.8985C62.9471 29.963 63.0123 30.0324 63.0724 30.1061C63.1345 30.2135 63.1662 30.3358 63.1641 30.4599C63.162 30.5841 63.126 30.7052 63.0602 30.8104C63.1504 30.8052 63.2386 30.7813 63.3192 30.7403C63.3997 30.6992 63.4709 30.6419 63.5282 30.5719C63.6649 30.4158 63.7852 30.246 63.8871 30.0651C63.935 30.0032 63.9692 29.9317 63.9874 29.8555C64.0057 29.7793 64.0075 29.7001 63.9928 29.6231C63.9574 29.5219 63.8737 29.4787 63.8151 29.4026C63.7338 29.2538 63.6783 29.0922 63.651 28.9247C63.6185 28.7677 63.5429 28.623 63.4328 28.5067C63.3227 28.3904 63.1825 28.3071 63.0278 28.2664L63.0653 28.2735C63.0014 28.3115 62.951 28.3686 62.9211 28.4368C62.8912 28.505 62.8833 28.5808 62.8985 28.6537C62.9212 28.801 63.0157 28.9233 63.0063 29.0734C62.9928 29.2894 62.7775 29.3908 62.7642 29.6068C62.7621 29.7153 62.8027 29.8202 62.8772 29.8989L62.8773 29.8985Z" fill="#090814"/>
<path d="M61.5947 26.2284L61.598 26.2278C61.6211 26.2068 61.6425 26.1839 61.662 26.1595L61.5947 26.2284Z" fill="#6C63FF"/>
<path d="M61.8191 27.2425C61.9091 27.1634 61.9756 27.061 62.0115 26.9465C62.0474 26.832 62.0511 26.7099 62.0224 26.5934C61.9681 26.3478 61.7754 26.1827 61.5975 26.2283C61.546 26.2807 61.482 26.319 61.4116 26.3398C61.3412 26.3606 61.2667 26.3631 61.1951 26.3471C61.0858 26.3187 60.9644 26.2457 60.8695 26.3287C60.815 26.3906 60.7768 26.4653 60.7585 26.5458L60.6528 26.8712C60.6362 26.9101 60.6319 26.9531 60.6406 26.9945C60.6474 27.0111 60.6583 27.0256 60.6723 27.0368C60.6863 27.0479 60.7029 27.0553 60.7205 27.0581L61.3551 27.2457C61.4279 27.2793 61.5072 27.2965 61.5874 27.296C61.6676 27.2954 61.7467 27.2772 61.8191 27.2426V27.2425Z" fill="#090814"/>
<path d="M77.788 41.2383L77.4947 40.7568C77.3987 40.5709 77.2674 40.4056 77.1082 40.2701C77.0385 40.2116 76.9486 40.1833 76.8581 40.1913C76.7676 40.1993 76.684 40.243 76.6257 40.3128L76.6206 40.319L76.6328 40.4106C76.8946 40.692 77.073 41.041 77.148 41.4184C77.1703 41.5824 77.1625 41.7521 77.1821 41.9173C77.1841 41.9937 77.2012 42.0689 77.2323 42.1387C77.2634 42.2085 77.3079 42.2714 77.3632 42.3239C77.5172 42.427 77.698 42.2752 77.8076 42.0895C77.9055 41.9372 77.9495 41.7562 77.9324 41.5757C77.9078 41.4545 77.8587 41.3396 77.788 41.2383Z" fill="#090814"/>
<path d="M79.3227 41.4472C79.3414 41.2969 79.3292 41.1445 79.2869 40.9991C79.2799 40.8024 79.3319 40.6082 79.4362 40.4415C79.5398 40.2843 79.6183 40.1118 79.6689 39.9304C79.6903 39.8477 79.6864 39.7605 79.6578 39.6801C79.6254 39.607 79.5471 39.5739 79.502 39.6314L79.5983 39.6934C79.4683 39.6702 79.3348 39.6767 79.2077 39.7124C79.1352 39.7402 79.0705 39.7852 79.019 39.8434C78.9674 39.9016 78.9307 39.9714 78.9118 40.0468C78.8959 40.1645 78.8699 40.2806 78.8342 40.3938C78.7768 40.5121 78.6657 40.552 78.5959 40.6552C78.5483 40.7472 78.5242 40.8497 78.526 40.9533C78.5277 41.057 78.5551 41.1585 78.6057 41.2489C78.6934 41.3967 78.8328 41.5066 78.9967 41.5572C79.1138 41.5999 79.2684 41.6021 79.3227 41.4472Z" fill="#090814"/>
<path d="M82.0535 42.2733C82.096 42.3842 82.1529 42.4889 82.2228 42.5847C82.3535 42.7168 82.5312 42.6356 82.6899 42.6036C82.8339 42.5808 82.9813 42.5975 83.1166 42.6519C83.2519 42.7063 83.3699 42.7964 83.4583 42.9126C83.3967 42.605 83.2625 42.3167 83.0668 42.0719C82.871 41.8271 82.6196 41.633 82.3335 41.5058C81.9617 41.3768 81.5699 41.3154 81.1766 41.3245L81.1094 41.3418C81.2807 41.8412 81.8182 41.83 82.0535 42.2733Z" fill="#090814"/>
<path d="M70.4844 43.2952L70.4853 43.2974L70.5049 43.2596L70.4844 43.2952Z" fill="#6C63FF"/>
<path d="M70.0698 44.0991C69.9794 44.2636 69.9017 44.4347 69.8373 44.6111C69.7521 44.8967 69.6956 45.1903 69.6688 45.4873C69.6478 45.656 69.6413 45.8717 69.7468 45.9539C69.7771 45.9741 69.8137 45.9825 69.8497 45.9776C69.8857 45.9727 69.9187 45.9548 69.9426 45.9273C70.0012 45.8651 70.0492 45.7937 70.0845 45.7158C70.2919 45.3578 70.4529 44.9747 70.5637 44.5759C70.6791 44.153 70.6516 43.7036 70.4853 43.2981L70.0698 44.0991Z" fill="#090814"/>
<path d="M66.0723 22.6779C66.1382 22.7423 66.2214 22.7861 66.3117 22.8038C66.4021 22.8214 66.4956 22.8122 66.5808 22.7773C66.7571 22.7001 66.9189 22.593 67.0591 22.4609C67.1752 22.3748 67.2736 22.2671 67.3491 22.1437C67.3907 22.07 67.4174 21.9888 67.4275 21.9047C67.4377 21.8206 67.4313 21.7354 67.4085 21.6538C67.3761 21.5756 67.3243 21.5071 67.2581 21.4546C67.1919 21.4021 67.1134 21.3673 67.0301 21.3537L66.3259 21.1444L66.4959 20.9909C66.3212 20.8969 66.1278 21.0714 66.0186 21.2874C65.9485 21.4284 65.8997 21.5791 65.8737 21.7345C65.8366 21.8968 65.8351 22.0652 65.8694 22.2281C65.9037 22.391 65.9729 22.5445 66.0723 22.6779Z" fill="#090814"/>
<path d="M70.2176 21.2829C70.2839 21.3558 70.3753 21.4009 70.4734 21.4089C70.5716 21.4169 70.669 21.3872 70.7462 21.3259C70.8126 21.276 70.8677 21.2126 70.908 21.1398C70.9483 21.0671 70.9728 20.9867 70.98 20.9038C70.9967 20.7187 70.9054 20.5129 70.7749 20.4968L70.8047 20.3236C70.5534 20.278 70.2443 20.2689 70.1097 20.5749C70.0643 20.692 70.0503 20.8191 70.0692 20.9433C70.0882 21.0675 70.1394 21.1846 70.2176 21.2829Z" fill="#090814"/>
<path d="M53.1376 33.7516C54.0032 33.7516 54.7049 32.8084 54.7049 31.645C54.7049 30.4815 54.0032 29.5383 53.1376 29.5383C52.272 29.5383 51.5703 30.4815 51.5703 31.645C51.5703 32.8084 52.272 33.7516 53.1376 33.7516Z" fill="#E6E6E6"/>
<path d="M81.7781 59.8375C82.5263 59.6378 83.0205 59.0529 82.8819 58.5311C82.7432 58.0094 82.0243 57.7483 81.2761 57.948C80.5279 58.1478 80.0338 58.7327 80.1724 59.2545C80.311 59.7762 81.0299 60.0373 81.7781 59.8375Z" fill="#E6E6E6"/>
<path d="M72.6136 60.0076C73.3618 59.8079 73.8559 59.2229 73.7173 58.7012C73.5787 58.1794 72.8598 57.9183 72.1116 58.1181C71.3634 58.3178 70.8692 58.9027 71.0078 59.4245C71.1465 59.9463 71.8654 60.2073 72.6136 60.0076Z" fill="#E6E6E6"/>
<path d="M83.4061 52.1942C84.1543 51.9945 84.6484 51.4096 84.5098 50.8878C84.3712 50.366 83.6522 50.105 82.9041 50.3047C82.1559 50.5045 81.6617 51.0894 81.8003 51.6111C81.939 52.1329 82.6579 52.394 83.4061 52.1942Z" fill="#E6E6E6"/>
<path d="M86.1081 48.9459C86.4459 48.9039 86.6709 48.4752 86.6107 47.9884C86.5505 47.5015 86.2278 47.1409 85.89 47.1829C85.5522 47.2249 85.3271 47.6536 85.3874 48.1404C85.4476 48.6272 85.7702 48.9879 86.1081 48.9459Z" fill="#E6E6E6"/>
<path d="M86.7926 43.1796C87.1305 43.1377 87.3555 42.709 87.2953 42.2221C87.2351 41.7353 86.9124 41.3747 86.5746 41.4167C86.2367 41.4586 86.0117 41.8873 86.0719 42.3742C86.1321 42.861 86.4548 43.2216 86.7926 43.1796Z" fill="#E6E6E6"/>
<path d="M77.5544 54.2646C77.8922 54.2226 78.1172 53.7939 78.057 53.3071C77.9968 52.8202 77.6741 52.4596 77.3363 52.5016C76.9985 52.5436 76.7734 52.9723 76.8336 53.4591C76.8939 53.946 77.2165 54.3066 77.5544 54.2646Z" fill="#E6E6E6"/>
<path d="M82.1877 55.9458C82.5255 55.9038 82.7505 55.4751 82.6903 54.9882C82.6301 54.5014 82.3074 54.1408 81.9696 54.1828C81.6318 54.2248 81.4067 54.6534 81.4669 55.1403C81.5272 55.6271 81.8498 55.9877 82.1877 55.9458Z" fill="#E6E6E6"/>
<path d="M76.5622 60.7071C76.9 60.6651 77.125 60.2364 77.0648 59.7496C77.0046 59.2628 76.6819 58.9021 76.3441 58.9441C76.0063 58.9861 75.7812 59.4148 75.8415 59.9016C75.9017 60.3885 76.2243 60.7491 76.5622 60.7071Z" fill="#E6E6E6"/>
<path d="M36.2244 52.1231C36.9726 51.9233 37.4668 51.3384 37.3282 50.8166C37.1895 50.2949 36.4706 50.0338 35.7224 50.2336C34.9742 50.4333 34.4801 51.0182 34.6187 51.54C34.7573 52.0617 35.4762 52.3228 36.2244 52.1231Z" fill="#E6E6E6"/>
<path d="M37.8524 44.4798C38.6006 44.28 39.0947 43.6951 38.9561 43.1733C38.8175 42.6516 38.0985 42.3905 37.3503 42.5902C36.6021 42.79 36.108 43.3749 36.2466 43.8967C36.3852 44.4184 37.1042 44.6795 37.8524 44.4798Z" fill="#E6E6E6"/>
<path d="M40.5544 41.2312C40.8922 41.1892 41.1172 40.7605 41.057 40.2736C40.9968 39.7868 40.6741 39.4262 40.3363 39.4682C39.9985 39.5102 39.7734 39.9388 39.8336 40.4257C39.8939 40.9125 40.2165 41.2731 40.5544 41.2312Z" fill="#E6E6E6"/>
<path d="M41.2394 35.4649C41.5772 35.4229 41.8023 34.9942 41.7421 34.5074C41.6818 34.0206 41.3592 33.6599 41.0213 33.7019C40.6835 33.7439 40.4585 34.1726 40.5187 34.6594C40.5789 35.1463 40.9016 35.5069 41.2394 35.4649Z" fill="#E6E6E6"/>
<path d="M36.6344 48.2309C36.9723 48.1889 37.1973 47.7602 37.1371 47.2734C37.0769 46.7866 36.7542 46.4259 36.4164 46.4679C36.0785 46.5099 35.8535 46.9386 35.9137 47.4254C35.9739 47.9123 36.2966 48.2729 36.6344 48.2309Z" fill="#E6E6E6"/>
<path d="M91.9036 16.799C92.6518 16.5992 93.146 16.0143 93.0074 15.4926C92.8687 14.9708 92.1498 14.7097 91.4016 14.9095C90.6534 15.1092 90.1593 15.6941 90.2979 16.2159C90.4365 16.7377 91.1554 16.9987 91.9036 16.799Z" fill="#E6E6E6"/>
<path d="M82.7391 16.9691C83.4873 16.7694 83.9814 16.1845 83.8428 15.6627C83.7042 15.1409 82.9853 14.8799 82.2371 15.0796C81.4889 15.2794 80.9947 15.8643 81.1333 16.386C81.272 16.9078 81.9909 17.1689 82.7391 16.9691Z" fill="#E6E6E6"/>
<path d="M93.532 9.15578C94.2802 8.95604 94.7744 8.37114 94.6358 7.84936C94.4971 7.32759 93.7782 7.06653 93.03 7.26627C92.2818 7.46601 91.7877 8.05091 91.9263 8.57269C92.0649 9.09446 92.7838 9.35553 93.532 9.15578Z" fill="#E6E6E6"/>
<path d="M96.234 5.90755C96.5719 5.86556 96.7969 5.43686 96.7367 4.95003C96.6765 4.46319 96.3538 4.10257 96.016 4.14456C95.6782 4.18654 95.4531 4.61524 95.5133 5.10208C95.5735 5.58891 95.8962 5.94953 96.234 5.90755Z" fill="#E6E6E6"/>
<path d="M93.7555 1.83906C94.0933 1.79708 94.3184 1.36838 94.2582 0.881547C94.198 0.394711 93.8753 0.0340894 93.5375 0.0760761C93.1996 0.118063 92.9746 0.546758 93.0348 1.03359C93.095 1.52043 93.4177 1.88105 93.7555 1.83906Z" fill="#E6E6E6"/>
<path d="M87.6803 11.2261C88.0182 11.1842 88.2432 10.7555 88.183 10.2686C88.1228 9.7818 87.8001 9.42117 87.4623 9.46316C87.1244 9.50515 86.8994 9.93384 86.9596 10.4207C87.0198 10.9075 87.3425 11.2681 87.6803 11.2261Z" fill="#E6E6E6"/>
<path d="M92.3136 12.9073C92.6515 12.8653 92.8765 12.4366 92.8163 11.9498C92.7561 11.4629 92.4334 11.1023 92.0956 11.1443C91.7577 11.1863 91.5327 11.615 91.5929 12.1018C91.6531 12.5887 91.9758 12.9493 92.3136 12.9073Z" fill="#E6E6E6"/>
<path d="M86.6877 17.6688C87.0255 17.6268 87.2505 17.1981 87.1903 16.7113C87.1301 16.2244 86.8074 15.8638 86.4696 15.9058C86.1318 15.9478 85.9067 16.3765 85.9669 16.8633C86.0272 17.3501 86.3498 17.7108 86.6877 17.6688Z" fill="#E6E6E6"/>
<path d="M33.4701 53.43C31.9707 53.43 30.996 53.0565 30.5645 52.3141C29.7137 50.8501 31.1386 48.2811 34.7997 44.6788L35.1073 44.9927C31.7065 48.3393 30.2278 50.8604 30.9438 52.0926C31.3968 52.8714 32.745 53.1513 34.8434 52.8999C36.9266 52.6507 39.6874 51.9076 43.0489 50.6915C49.9695 48.1879 58.652 43.9648 67.4971 38.8001C76.3421 33.6354 84.2896 28.148 89.8763 23.3485C90.9493 22.4264 91.9231 21.5394 92.7707 20.7122C93.8834 19.6529 94.9098 18.5062 95.8403 17.283C97.0934 15.5775 97.5164 14.2639 97.0634 13.4846C96.3068 12.1825 93.1288 12.3051 88.1139 13.8297L87.9866 13.4083C93.3669 11.7728 96.5485 11.7238 97.4429 13.2622C97.9986 14.2185 97.5784 15.6588 96.194 17.5432C95.2493 18.7857 94.207 19.9506 93.0772 21.0267C92.223 21.8604 91.2422 22.7536 90.162 23.6817C84.5559 28.4981 76.5851 34.0019 67.7181 39.1794C58.8511 44.3569 50.1428 48.5922 43.1981 51.1046C39.8052 52.332 37.0118 53.0827 34.8955 53.3358C34.4227 53.3953 33.9467 53.4268 33.4701 53.43Z" fill="#6C63FF"/>
<path d="M24.3934 62.8874L22.5628 59.2712L20.4565 60.3421L22.2872 63.9583C22.188 64.2729 22.1522 64.6041 22.1821 64.9327C22.212 65.2613 22.3068 65.5806 22.4611 65.872C23.0317 66.9987 24.2488 67.5293 25.1793 67.0559C26.1099 66.5825 26.4019 65.2851 25.8313 64.1579C25.6878 63.8609 25.4867 63.5956 25.2399 63.3774C24.993 63.1592 24.7052 62.9924 24.3934 62.8869V62.8874Z" fill="#ED9DA0"/>
<path d="M11.9692 46.5377L21.2173 63.8643L24.8333 61.925L16.732 44.1715" fill="#D6D6E3"/>
<path d="M17.0209 50.5983L19.5415 62.3333L8.55615 62.7175C8.55615 62.7175 9.99538 54.5678 9.4844 53.1592L17.0209 50.5983Z" fill="#ED9DA0"/>
<path d="M19.1195 97.6588H21.6865V94.2672H19.1195V97.6588Z" fill="#ED9DA0"/>
<path d="M18.6001 99.6671C18.5031 99.599 18.4216 99.5111 18.3609 99.4091C18.3002 99.3072 18.2618 99.1935 18.248 99.0757C18.2318 98.8306 18.3541 98.5677 18.6115 98.2943C18.6177 98.2155 18.6975 97.2406 18.8755 97.0659C18.8601 97.0137 18.7699 96.6677 18.9186 96.4429C18.9568 96.3886 19.0069 96.3439 19.065 96.3121C19.1232 96.2803 19.1879 96.2623 19.2541 96.2595H19.2607L19.264 96.2654C19.2684 96.2729 19.7011 97.0272 20.3531 97.0935C20.7267 97.1315 21.1007 96.9392 21.4649 96.5206C21.478 96.4897 21.5809 95.9804 21.647 95.6434L21.6497 95.63L25.2001 97.5007L27.2754 98.0763C27.3939 98.1091 27.4996 98.1775 27.5783 98.2721C27.6571 98.3668 27.7051 98.4833 27.716 98.6061C27.727 98.7288 27.7003 98.852 27.6395 98.9592C27.5788 99.0663 27.4868 99.1524 27.376 99.2057L26.3701 99.6904C25.9471 99.8935 25.4842 99.9993 25.0152 100H19.5582C19.2103 100.002 18.8722 99.8844 18.6001 99.6671Z" fill="#090814"/>
<path d="M1.24411 95.9765L3.70898 96.6953L4.65408 93.4387L2.1892 92.7199L1.24411 95.9765Z" fill="#ED9DA0"/>
<path d="M0.185062 97.76C0.110902 97.6675 0.0571056 97.5603 0.0272065 97.4454C-0.0026926 97.3306 -0.00801873 97.2107 0.0115778 97.0936C0.0642665 96.8537 0.25499 96.6355 0.578284 96.4455C0.606207 96.3717 0.954632 95.4577 1.17413 95.34C1.17413 95.2857 1.18372 94.9281 1.38962 94.7536C1.44138 94.7121 1.50196 94.6831 1.56667 94.6689C1.63137 94.6547 1.69848 94.6555 1.76281 94.6714L1.76948 94.6726L1.77106 94.6791C1.77301 94.6876 1.97878 95.5331 2.58604 95.7792C2.9341 95.9202 3.34687 95.84 3.81317 95.5404C3.83442 95.5145 4.07492 95.0543 4.23274 94.7494L4.23905 94.7372L7.12673 97.5276L8.95894 98.6615C9.06358 98.7263 9.14601 98.8215 9.19522 98.9345C9.24442 99.0474 9.25806 99.1728 9.2343 99.2937C9.21055 99.4147 9.15053 99.5255 9.06228 99.6113C8.97402 99.6972 8.86173 99.754 8.74041 99.7742L7.63941 99.9579C7.17654 100.035 6.70243 100.006 6.25178 99.8757L1.01254 98.3473C0.678054 98.2518 0.386201 98.0445 0.185426 97.7599L0.185062 97.76Z" fill="#090814"/>
<path d="M7.36938 56.7505L18.3547 57.006C18.3547 57.006 25.0302 76.2945 24.775 94.6049H15.6105L15.0664 73.3497L13.4749 95.4304L1.39893 94.7336L7.36938 56.7506V56.7505Z" fill="#090814"/>
<path d="M17.876 35.2077C17.8759 34.4843 17.6887 33.7733 17.3326 33.144C16.9766 32.5148 16.4638 31.9888 15.8444 31.6176C15.225 31.2463 14.5201 31.0424 13.7986 31.0258C13.0771 31.0091 12.3636 31.1803 11.7279 31.5226C11.0921 31.865 10.5557 32.3667 10.1712 32.9788C9.78659 33.591 9.56697 34.2927 9.53373 35.0153C9.50049 35.738 9.65477 36.4569 9.9815 37.102C10.3082 37.747 10.7963 38.2961 11.3979 38.6956C11.0526 39.5579 10.5935 40.3698 10.0328 41.1096L14.1456 44.5453L14.9523 39.2007C15.8002 38.9337 16.5409 38.4025 17.0667 37.6843C17.5925 36.9662 17.876 36.0986 17.876 35.2077Z" fill="#ED9DA0"/>
<path d="M14.9433 41.2062L10.2166 40.0537L7.18734 43.942C6.46574 45.4176 6.35189 47.1186 6.87036 48.6777L9.38242 56.2321C9.38242 56.2321 17.0466 56.1039 18.7072 51.6224L19.1832 50.6282C19.5027 49.9612 19.6358 49.2199 19.5682 48.4831C19.5005 47.7464 19.2348 47.0418 18.7992 46.4445L14.9433 41.2062Z" fill="#D6D6E3"/>
<path d="M9.91215 66.1821L9.99993 62.128L7.63865 62.0767L7.55039 66.1309C7.31495 66.3613 7.12765 66.6365 6.9994 66.9403C6.87115 67.244 6.80452 67.5703 6.8034 67.9002C6.77596 69.1639 7.59968 70.2067 8.64301 70.2294C9.68634 70.2522 10.5544 69.246 10.5817 67.9823C10.5949 67.6528 10.5425 67.3238 10.4275 67.0147C10.3126 66.7057 10.1374 66.4226 9.91215 66.1821Z" fill="#ED9DA0"/>
<path d="M6.65234 45.8909V65.541H10.7534L11.9654 46.0564" fill="#D6D6E3"/>
<path d="M11.5018 35.8263C11.5018 35.8263 14.7889 34.7331 13.9784 33.4922C13.9784 33.4922 17.4673 34.1014 17.5571 33.4922C17.647 32.883 17.5571 28.9798 12.8305 29.6115C8.10378 30.2432 8.73398 34.2142 8.73398 34.2142C8.73398 34.2142 9.07901 38.0528 11.6225 38.8424C11.6225 38.8424 9.65579 35.0365 11.5011 35.8262L11.5018 35.8263Z" fill="#090814"/>
<path d="M10.4657 31.8542C10.4657 31.8542 9.4957 31.1515 8.36277 31.3674C7.96651 31.443 7.5467 31.7339 7.16914 32.0801C6.41483 32.7847 5.83533 33.6563 5.47691 34.6254C4.48712 37.2262 2.4098 43.7319 6.04411 44.5294C10.6007 45.5294 10.8837 35.8675 10.8837 35.8675L10.4658 31.8549L10.4657 31.8542Z" fill="#090814"/>
</svg>
