<svg width="30" height="30" viewBox="0 0 30 30" fill="none" xmlns="http://www.w3.org/2000/svg">
<g clip-path="url(#clip0_1167_66)">
<path d="M15 30C23.2843 30 30 23.2843 30 15C30 6.71573 23.2843 0 15 0C6.71573 0 0 6.71573 0 15C0 23.2843 6.71573 30 15 30Z" fill="#6B7F9E"/>
<path d="M20.7097 8.98924C21.2498 2.22226 11.6279 -0.702144 8.81152 8.95068C8.81152 8.95068 10.4628 7.27628 11.952 7.53861C13.9967 7.89355 15.3856 12.338 20.7097 8.99692V8.98924Z" fill="#5FDC68"/>
<path d="M9.59858 6.89816C9.29768 7.50775 9.03529 8.18673 8.81152 8.95064C8.81152 8.95064 10.4628 7.27624 11.952 7.53858C12.5153 7.63891 13.0245 8.04009 13.5878 8.51078C13.2405 7.90898 11.3887 5.9954 9.59858 6.89816Z" fill="#56BF5D"/>
<path d="M21.5276 9.37504L21.1804 9.69141C19.0893 6.96762 14.1742 3.1482 11.2344 5.90281C14.2899 2.73923 19.4982 6.55865 21.5276 9.37504Z" fill="#FFE356"/>
<path d="M7.43854 13.3719C1.30424 16.2886 3.58823 26.0803 13.349 23.6961C13.349 23.6961 11.0728 23.102 10.5558 21.6822C9.83822 19.73 12.9941 16.3041 7.43854 13.3719Z" fill="#5FDC68"/>
<path d="M11.1887 24.0432C11.8677 23.9969 12.5853 23.8889 13.3569 23.696C13.3569 23.696 11.0806 23.1019 10.5637 21.6821C10.3708 21.1497 10.4634 20.5015 10.5868 19.7839C10.2396 20.3858 9.50659 22.9398 11.1887 24.0432Z" fill="#75BD80"/>
<path d="M7.36908 12.4769L7.81661 12.6235C6.49715 15.7948 5.64838 21.9676 9.50642 23.1328C5.23947 22.068 5.94934 15.6482 7.36908 12.4846V12.4769Z" fill="#FFE356"/>
<path d="M18.0013 22.9089C23.5954 26.7592 30.9334 19.892 23.9889 12.6234C23.9889 12.6234 24.6139 14.8919 23.6417 16.0493C22.3069 17.6389 17.7621 16.628 18.0013 22.9012V22.9089Z" fill="#5FDC68"/>
<path d="M25.3707 14.3286C24.9926 13.7653 24.5373 13.1944 23.9895 12.6234C23.9895 12.6234 24.6145 14.8919 23.6423 16.0493C23.2797 16.4891 22.6701 16.7283 21.9834 16.9752C22.6779 16.9752 25.255 16.3271 25.3708 14.3209V14.3286H25.3707Z" fill="#56BF5D"/>
<path d="M17.2604 23.4182L17.1602 22.9553C20.5707 22.5078 26.3346 20.1621 25.4163 16.2346C26.6278 20.463 20.7172 23.0556 17.2604 23.4106V23.4182Z" fill="#FFE356"/>
</g>
<defs>
<clipPath id="clip0_1167_66">
<rect width="30" height="30" fill="white"/>
</clipPath>
</defs>
</svg>
