<svg width="20" height="22" viewBox="0 0 20 22" fill="none" xmlns="http://www.w3.org/2000/svg">
<path fill-rule="evenodd" clip-rule="evenodd" d="M6.66675 9.59359V12.4067C6.66675 14.3379 8.525 15.0832 9.7175 14.4106L12.2112 13.004C13.7075 12.1602 13.7074 9.84008 12.2112 8.99621L9.7175 7.58965C8.525 6.91704 6.66675 7.66236 6.66675 9.59359ZM8.33341 12.4067C8.33341 12.7316 8.67725 12.937 8.95708 12.7792L11.4508 11.3727C11.7387 11.2103 11.7387 10.7899 11.4508 10.6276L8.95708 9.22106C8.67725 9.06322 8.33341 9.26863 8.33341 9.59359V12.4067Z" fill="black"/>
<path fill-rule="evenodd" clip-rule="evenodd" d="M5.83341 1.8335C3.53223 1.8335 1.66675 3.88553 1.66675 6.41683V15.5835C1.66675 18.1148 3.53223 20.1668 5.83341 20.1668H14.1667C16.4679 20.1668 18.3334 18.1148 18.3334 15.5835V6.41683C18.3334 3.88553 16.4679 1.8335 14.1667 1.8335H5.83341ZM3.33341 6.41683C3.33341 4.89805 4.45271 3.66683 5.83341 3.66683H14.1667C15.5475 3.66683 16.6667 4.89805 16.6667 6.41683V15.5835C16.6667 17.1023 15.5475 18.3335 14.1667 18.3335H5.83341C4.45271 18.3335 3.33341 17.1023 3.33341 15.5835V6.41683Z" fill="black"/>
</svg>
