<svg width="87" height="80" viewBox="0 0 87 80" fill="none" xmlns="http://www.w3.org/2000/svg">
<g clip-path="url(#clip0_317_325)">
<path fill-rule="evenodd" clip-rule="evenodd" d="M0 70.8147H10.4219V1.11101C10.4219 0.502433 10.9246 0 11.5334 0H46.8347C47.4436 0 47.9463 0.502433 47.9463 1.11101V27.2446H79.1836C79.7925 27.2446 80.2952 27.747 80.2952 28.3556V70.8076H87V80H0V70.8147ZM19.3428 10.4874H26.5645C26.7839 10.4874 26.968 10.6714 26.968 10.8908V19.6373C26.968 19.8567 26.7839 20.0407 26.5645 20.0407H19.3428C19.1233 20.0407 18.9392 19.8567 18.9392 19.6373V10.8908C18.9392 10.6714 19.1233 10.4874 19.3428 10.4874ZM31.5771 53.9938H38.7988C39.0183 53.9938 39.2024 54.1778 39.2024 54.3972V63.1437C39.2024 63.3631 39.0183 63.5471 38.7988 63.5471H31.5771C31.3577 63.5471 31.1736 63.3631 31.1736 63.1437V54.3972C31.1736 54.1707 31.3577 53.9938 31.5771 53.9938ZM19.3428 53.9938H26.5645C26.7839 53.9938 26.968 54.1778 26.968 54.3972V63.1437C26.968 63.3631 26.7839 63.5471 26.5645 63.5471H19.3428C19.1233 63.5471 18.9392 63.3631 18.9392 63.1437V54.3972C18.9392 54.1707 19.1233 53.9938 19.3428 53.9938ZM31.5771 39.4869H38.7988C39.0183 39.4869 39.2024 39.6709 39.2024 39.8903V48.6369C39.2024 48.8563 39.0183 49.0402 38.7988 49.0402H31.5771C31.3577 49.0402 31.1736 48.8563 31.1736 48.6369V39.8974C31.1736 39.6709 31.3577 39.4869 31.5771 39.4869ZM19.3428 39.4869H26.5645C26.7839 39.4869 26.968 39.6709 26.968 39.8903V48.6369C26.968 48.8563 26.7839 49.0402 26.5645 49.0402H19.3428C19.1233 49.0402 18.9392 48.8563 18.9392 48.6369V39.8974C18.9392 39.6709 19.1233 39.4869 19.3428 39.4869ZM31.5771 24.9872H38.7988C39.0183 24.9872 39.2024 25.1712 39.2024 25.3905V34.1371C39.2024 34.3565 39.0183 34.5405 38.7988 34.5405H31.5771C31.3577 34.5405 31.1736 34.3565 31.1736 34.1371V25.3905C31.1736 25.1712 31.3577 24.9872 31.5771 24.9872ZM19.3428 24.9872H26.5645C26.7839 24.9872 26.968 25.1712 26.968 25.3905V34.1371C26.968 34.3565 26.7839 34.5405 26.5645 34.5405H19.3428C19.1233 34.5405 18.9392 34.3565 18.9392 34.1371V25.3905C18.9392 25.1712 19.1233 24.9872 19.3428 24.9872ZM31.5771 10.4874H38.7988C39.0183 10.4874 39.2024 10.6714 39.2024 10.8908V19.6373C39.2024 19.8567 39.0183 20.0407 38.7988 20.0407H31.5771C31.3577 20.0407 31.1736 19.8567 31.1736 19.6373V10.8908C31.1736 10.6714 31.3577 10.4874 31.5771 10.4874ZM16.4045 5.18001H41.8362C42.2751 5.18001 42.6362 5.61168 42.6362 6.13534V66.9014C42.6362 67.425 42.2751 67.8567 41.8362 67.8567H16.4045C15.9656 67.8567 15.6045 67.425 15.6045 66.9014V6.13534C15.6045 5.61168 15.9656 5.18001 16.4045 5.18001ZM51.4084 37.8098H58.6301C58.8496 37.8098 59.0337 37.9938 59.0337 38.2132V46.9598C59.0337 47.1791 58.8496 47.3631 58.6301 47.3631H51.4084C51.189 47.3631 51.0049 47.1791 51.0049 46.9598V38.2132C51.0049 37.9938 51.189 37.8098 51.4084 37.8098ZM63.6428 53.9938H70.8645C71.084 53.9938 71.2681 54.1778 71.2681 54.3972V63.1437C71.2681 63.3631 71.084 63.5471 70.8645 63.5471H63.6428C63.4233 63.5471 63.2393 63.3631 63.2393 63.1437V54.3972C63.2393 54.1707 63.4233 53.9938 63.6428 53.9938ZM51.4084 53.9938H58.6301C58.8496 53.9938 59.0337 54.1778 59.0337 54.3972V63.1437C59.0337 63.3631 58.8496 63.5471 58.6301 63.5471H51.4084C51.189 63.5471 51.0049 63.3631 51.0049 63.1437V54.3972C51.0049 54.1707 51.189 53.9938 51.4084 53.9938ZM63.6428 37.8098H70.8645C71.084 37.8098 71.2681 37.9938 71.2681 38.2132V46.9598C71.2681 47.1791 71.084 47.3631 70.8645 47.3631H63.6428C63.4233 47.3631 63.2393 47.1791 63.2393 46.9598V38.2132C63.2393 37.9938 63.4233 37.8098 63.6428 37.8098ZM48.7534 32.4246H74.1851C74.624 32.4246 74.9851 32.8563 74.9851 33.3799V66.9014C74.9851 67.425 74.624 67.8567 74.1851 67.8567H48.7534C48.3145 67.8567 47.9534 67.425 47.9534 66.9014V33.3799C47.9534 32.8563 48.3145 32.4246 48.7534 32.4246Z" fill="#009DB8"/>
</g>
<defs>
<clipPath id="clip0_317_325">
<rect width="87" height="80" fill="white"/>
</clipPath>
</defs>
</svg>
