<svg width="36" height="36" viewBox="0 0 36 36" fill="none" xmlns="http://www.w3.org/2000/svg">
<circle cx="18" cy="18" r="17.5" fill="white" stroke="#03C587"/>
<path d="M18.5 8C14.3581 8 11 11.3581 11 15.5C11 17.1309 11.5347 18.6275 12.4234 19.8531C12.4394 19.8825 12.4419 19.9153 12.46 19.9434L17.46 27.4434C17.6919 27.7913 18.0825 28 18.5 28C18.9175 28 19.3081 27.7913 19.54 27.4434L24.54 19.9434C24.5584 19.9153 24.5606 19.8825 24.5766 19.8531C25.4653 18.6275 26 17.1309 26 15.5C26 11.3581 22.6419 8 18.5 8ZM18.5 18C17.1194 18 16 16.8806 16 15.5C16 14.1194 17.1194 13 18.5 13C19.8806 13 21 14.1194 21 15.5C21 16.8806 19.8806 18 18.5 18Z" fill="url(#paint0_linear_245_30)"/>
<defs>
<linearGradient id="paint0_linear_245_30" x1="18.5" y1="8" x2="18.5" y2="28" gradientUnits="userSpaceOnUse">
<stop stop-color="#009DB8"/>
<stop offset="1" stop-color="#03C587"/>
</linearGradient>
</defs>
</svg>
