<svg width="12" height="12" viewBox="0 0 12 12" fill="none" xmlns="http://www.w3.org/2000/svg">
<path d="M10.4949 1.97799C10.5159 1.6566 10.5368 1.33869 10.5543 1.01729C10.5613 0.884543 10.5928 0.765765 10.6906 0.674936C10.8199 0.556159 10.9702 0.521224 11.1379 0.5876C11.2951 0.650482 11.4 0.8007 11.393 0.978866C11.3755 1.34917 11.3511 1.71948 11.3266 2.08629C11.3021 2.46009 11.2777 2.83389 11.2567 3.20769C11.2427 3.44524 11.0645 3.6269 10.8269 3.6269C10.1525 3.6269 9.47453 3.62341 8.8001 3.61991C8.53801 3.61642 8.36329 3.43127 8.37377 3.17974C8.38425 2.94917 8.56247 2.78847 8.82456 2.78498C9.1775 2.78149 9.53044 2.78498 9.88338 2.78498C9.92531 2.78498 9.96725 2.78149 10.0371 2.77799C9.9323 2.65922 9.85193 2.55441 9.75758 2.46009C8.67779 1.34568 7.36038 0.786726 5.80534 0.842621C3.40114 0.929958 1.41629 2.63127 0.93405 4.98935C0.371441 7.73869 2.18507 10.481 4.93172 11.047C7.77622 11.6339 10.5264 9.81031 11.068 6.97013C11.1274 6.65921 11.1379 6.33782 11.1589 6.02341C11.1798 5.70201 11.4384 5.50638 11.718 5.60419C11.8892 5.66358 11.994 5.8138 11.994 6.00594C11.994 7.02952 11.7564 7.99371 11.2532 8.88105C10.3202 10.5265 8.91891 11.5466 7.05636 11.8959C4.04762 12.4688 1.07732 10.6033 0.228168 7.63039C-0.725822 4.28716 1.4093 0.765766 4.81291 0.122971C7.00045 -0.289256 8.87697 0.339565 10.425 1.93956C10.439 1.95354 10.446 1.97799 10.46 1.99546C10.4705 1.99197 10.4844 1.98498 10.4949 1.97799Z" fill="#535353"/>
<path d="M8.65017 7.67598C8.64668 7.83668 8.5733 7.95895 8.43352 8.03581C8.27627 8.12314 8.12251 8.10218 7.97924 8.00087C7.70667 7.79825 7.4341 7.59214 7.16153 7.38952C6.70026 7.04367 6.24249 6.69782 5.78122 6.35546C5.65192 6.26113 5.58203 6.13886 5.58203 5.97817C5.58203 5.05939 5.58203 4.14061 5.58203 3.22183C5.58203 2.98777 5.73579 2.82009 5.95594 2.79214C6.15512 2.76768 6.35431 2.90393 6.40323 3.11004C6.41721 3.16244 6.41721 3.22183 6.41721 3.27773C6.41721 4.06725 6.4207 4.85327 6.41721 5.64279C6.41721 5.7441 6.44167 5.80699 6.52554 5.86987C7.16153 6.34148 7.79403 6.82009 8.43002 7.2952C8.56281 7.39301 8.65716 7.5048 8.65017 7.67598Z" fill="#535353"/>
</svg>
