<svg width="25" height="25" viewBox="0 0 25 25" fill="none" xmlns="http://www.w3.org/2000/svg">
<g clip-path="url(#clip0_1360_41)">
<path d="M10.8337 21.6666H10.0003V20.4166H9.16699V22.0833C9.16699 22.3333 9.33366 22.5 9.58366 22.5H10.417V25H11.2503V22.0833C11.2503 21.8333 11.0837 21.6666 10.8337 21.6666Z" fill="black"/>
<path d="M9.16667 16.8333V17.9167H10V16.5417C10 16.375 9.875 16.2083 9.70833 16.1667C6.66667 15 4.58333 12.0417 4.58333 8.75C4.58333 4.375 8.125 0.833333 12.5 0.833333C16.875 0.833333 20.4167 4.375 20.4167 8.75C20.4167 12.0417 18.3333 15 15.2917 16.1667C15.125 16.2083 15 16.375 15 16.5417V17.9167H15.8333V16.8333C19.0833 15.5 21.25 12.2917 21.25 8.75C21.25 3.91667 17.3333 0 12.5 0C7.66667 0 3.75 3.91667 3.75 8.75C3.75 12.2917 5.91667 15.5 9.16667 16.8333Z" fill="black"/>
<path d="M15 21.6666H14.1667C13.9167 21.6666 13.75 21.8333 13.75 22.0833V25H14.5833V22.5H15.4167C15.6667 22.5 15.8333 22.3333 15.8333 22.0833V20.4166H15V21.6666Z" fill="black"/>
<path d="M12.9168 1.66663H12.0835V2.49996H12.9168V1.66663Z" fill="black"/>
<path d="M17.9168 8.75H17.0835V9.58333H17.9168V8.75Z" fill="black"/>
<path d="M18.3333 5.83337H17.5V6.66671H18.3333V5.83337Z" fill="black"/>
<path d="M16.6668 3.33337H15.8335V4.16671H16.6668V3.33337Z" fill="black"/>
<path d="M7.91683 8.75H7.0835V9.58333H7.91683V8.75Z" fill="black"/>
<path d="M7.50033 5.83337H6.66699V6.66671H7.50033V5.83337Z" fill="black"/>
<path d="M9.16683 3.33337H8.3335V4.16671H9.16683V3.33337Z" fill="black"/>
<path d="M24.1668 12.5C24.1668 11.7917 23.6252 11.25 22.9168 11.25C22.2085 11.25 21.6668 11.7917 21.6668 12.5C21.6668 13.0417 22.0002 13.5 22.5002 13.6667V18.75H12.9168V12.4584C14.5835 12.25 15.8335 10.875 15.8335 9.16671V6.66671C15.8335 4.79171 14.3752 3.33337 12.5002 3.33337C10.6252 3.33337 9.16683 4.79171 9.16683 6.66671V9.16671C9.16683 10.9167 10.4168 12.2917 12.0835 12.4584V18.75H2.50016V13.6667C3.00016 13.5 3.3335 13.0417 3.3335 12.5C3.3335 11.7917 2.79183 11.25 2.0835 11.25C1.37516 11.25 0.833496 11.7917 0.833496 12.5C0.833496 13.0417 1.16683 13.5 1.66683 13.6667V19.1667C1.66683 19.4167 1.8335 19.5834 2.0835 19.5834H5.00016V22.5834C4.50016 22.75 4.16683 23.2084 4.16683 23.75C4.16683 24.4584 4.7085 25 5.41683 25C6.12516 25 6.66683 24.4584 6.66683 23.75C6.66683 23.2084 6.3335 22.75 5.8335 22.5834V19.5834H12.0835H12.9168H19.1668V22.5834C18.6668 22.75 18.3335 23.2084 18.3335 23.75C18.3335 24.4584 18.8752 25 19.5835 25C20.2918 25 20.8335 24.4584 20.8335 23.75C20.8335 23.2084 20.5002 22.75 20.0002 22.5834V19.5834H22.9168C23.1668 19.5834 23.3335 19.4167 23.3335 19.1667V13.6667C23.8335 13.5 24.1668 13.0417 24.1668 12.5ZM10.0002 9.16671V6.66671C10.0002 5.25004 11.0835 4.16671 12.5002 4.16671C13.9168 4.16671 15.0002 5.25004 15.0002 6.66671V9.16671C15.0002 10.4584 14.1252 11.4584 12.9168 11.625V9.58337H14.1668V8.75004H12.9168V5.83337H12.0835V7.08337H10.8335V7.91671H12.0835V11.625C10.8752 11.4584 10.0002 10.4584 10.0002 9.16671ZM2.0835 12.0834C2.3335 12.0834 2.50016 12.25 2.50016 12.5C2.50016 12.75 2.3335 12.9167 2.0835 12.9167C1.8335 12.9167 1.66683 12.75 1.66683 12.5C1.66683 12.25 1.8335 12.0834 2.0835 12.0834ZM5.41683 24.1667C5.16683 24.1667 5.00016 24 5.00016 23.75C5.00016 23.5 5.16683 23.3334 5.41683 23.3334C5.66683 23.3334 5.8335 23.5 5.8335 23.75C5.8335 24 5.66683 24.1667 5.41683 24.1667ZM19.5835 24.1667C19.3335 24.1667 19.1668 24 19.1668 23.75C19.1668 23.5 19.3335 23.3334 19.5835 23.3334C19.8335 23.3334 20.0002 23.5 20.0002 23.75C20.0002 24 19.8335 24.1667 19.5835 24.1667ZM22.9168 12.9167C22.6668 12.9167 22.5002 12.75 22.5002 12.5C22.5002 12.25 22.6668 12.0834 22.9168 12.0834C23.1668 12.0834 23.3335 12.25 23.3335 12.5C23.3335 12.75 23.1668 12.9167 22.9168 12.9167Z" fill="black"/>
</g>
<defs>
<clipPath id="clip0_1360_41">
<rect width="25" height="25" fill="white"/>
</clipPath>
</defs>
</svg>
