<svg width="32" height="35" viewBox="0 0 32 35" fill="none" xmlns="http://www.w3.org/2000/svg">
<path fill-rule="evenodd" clip-rule="evenodd" d="M22.2346 24.1279C21.9988 23.9114 21.6787 23.6323 21.3418 23.3361C20.6091 22.6981 19.7949 21.9888 19.4159 21.5075L19.3794 21.5331C18.6045 22.0714 17.6471 22.4303 16.3388 22.4275C15.1176 22.4246 14.1995 22.08 13.4443 21.5701C13.259 21.4448 13.0877 21.3109 12.9221 21.1714C12.5487 21.667 11.6334 22.4559 10.8193 23.1566C10.3223 23.5839 9.86471 23.9769 9.62327 24.2162C8.78102 25.2843 8.03703 26.4236 7.41095 27.6968L10.0023 27.6313L15.9626 32.8893L21.923 27.6313L24.5143 27.6968C23.8742 26.3866 23.1077 25.2217 22.2346 24.1279ZM11.4481 18.6193C12.1669 19.0921 12.9586 19.4709 13.8233 19.7501C13.9103 19.5507 14.0311 19.3741 14.2051 19.2374C14.7273 18.8272 16.2574 18.8671 16.7291 19.263C17.1249 19.5962 17.1306 20.3596 16.8386 20.7584C16.3332 21.4476 14.4971 21.0831 13.3994 20.7811C13.565 20.9264 13.7391 21.0631 13.9216 21.1884C14.5561 21.6185 15.3253 21.9091 16.3416 21.9091C17.4422 21.9119 18.2479 21.61 18.9021 21.1571C19.0228 21.0717 19.1407 20.9834 19.2558 20.8865C19.2923 20.8239 19.3485 20.7726 19.4187 20.7441C19.8679 20.3397 20.2581 19.8668 20.6456 19.394L21.3362 18.5538C21.4204 18.4512 21.4485 18.417 21.4794 18.38C21.5636 18.2803 21.6591 18.1664 21.7517 18.0496C21.777 18.0183 21.8107 17.9898 21.85 17.9699C21.9623 17.5996 22.0465 17.2122 22.1055 16.8049C22.302 15.4747 22.3076 14.4408 21.718 13.216C21.2071 12.1593 20.4883 11.6096 19.705 11.2165C20.5501 12.1736 21.2492 13.1021 21.0667 13.8655C20.0335 12.7147 18.9695 11.7093 17.8661 10.8804C15.5612 9.67274 14.2051 8.03497 13.6015 6.05255C10.1848 9.51324 9.58958 13.5635 10.8558 17.9699C10.9007 17.9898 10.94 18.0183 10.9681 18.0525L11.4481 18.6193ZM12.0293 20.2713C11.1758 19.8384 10.3729 19.2003 9.61485 18.5652L8.22794 18.6022C8.03703 18.38 7.877 18.1237 7.74224 17.836C7.63274 17.8246 7.52325 17.8018 7.41657 17.7676C6.083 17.3432 4.97684 14.3354 5.19583 12.917C5.31936 12.1137 5.60011 11.8232 6.05492 11.6466C6.03246 11.5811 6.02123 11.5127 6.02123 11.4387V8.41094C6.02123 7.27162 6.35813 6.15224 6.9056 5.13824C7.5036 4.02455 8.35708 3.03049 9.28917 2.27854C11.1927 0.737604 13.6577 -0.0257425 16.1086 -0.000107699C18.5399 0.0255271 20.9656 0.831598 22.8214 2.4295C23.717 3.20139 24.4722 4.21254 25 5.32907C25.5138 6.41713 25.8114 7.60772 25.8114 8.77837V11.2792C25.8114 11.6352 25.5278 11.9229 25.1769 11.9229C24.9747 11.9229 24.795 11.8289 24.6799 11.678C24.9916 14.0534 24.6996 16.4973 23.7647 18.5253H22.1841C22.1476 18.568 22.1139 18.6107 22.0802 18.6506L21.9398 18.8187L21.2492 19.6589C20.8477 20.1488 20.4406 20.6416 19.9605 21.0717C20.2132 21.4078 21.0554 22.1398 21.8022 22.792C22.0437 23.0028 22.2795 23.2079 22.4845 23.3902C24.5311 24.1991 26.5301 25.028 28.0826 26.0135C29.2815 26.774 29.8991 27.3493 30.3848 28.2722C31.1513 29.7305 31.7549 31.3484 31.9345 33.2681C32.0946 34.9856 32.0805 34.9087 30.455 34.9429C21.8865 35.1167 9.95455 34.7977 1.57133 34.9429C0.046852 34.9686 -0.110369 35.0796 0.0496595 32.8779C0.569049 30.3799 0.27426 30.7103 1.55729 28.2722C2.04299 27.3493 2.66064 26.7768 3.85945 26.0135C5.42043 25.0194 7.4306 24.1877 9.49131 23.3759C9.74399 23.1481 10.05 22.8832 10.3729 22.6041C11.2713 21.8293 12.3016 20.9435 12.4167 20.6814C12.282 20.5504 12.1528 20.4137 12.0293 20.2713ZM24.5396 10.8377V8.78122C24.5396 7.80141 24.2897 6.7988 23.8573 5.88449C23.4081 4.93031 22.7624 4.07012 22.0016 3.41216C20.376 2.0108 18.2423 1.30442 16.0946 1.28163C13.9216 1.25884 11.7429 1.93104 10.0725 3.28399C9.26391 3.9391 8.52553 4.79359 8.01176 5.75347C7.56256 6.58803 7.28742 7.49664 7.28742 8.41379V11.0029C7.97526 7.64475 9.37901 5.19805 11.5604 3.73687C13.1663 2.66021 14.1237 2.6004 15.9963 2.6004C17.6331 2.6004 18.6354 2.56337 20.0307 3.49477C22.4396 5.10121 23.9668 7.86976 24.5396 10.8377ZM13.9581 29.7675L15.14 25.609L14.5617 24.9653C14.3006 24.5779 14.2444 24.2418 14.3876 23.9513C14.7021 23.3218 15.3506 23.4386 15.957 23.4386C16.5915 23.4386 17.3748 23.3161 17.5741 24.1222C17.6415 24.3928 17.5573 24.6748 17.372 24.9653L16.7936 25.609L17.9756 29.7675L15.9682 31.3768L13.9581 29.7675Z" fill="white"/>
</svg>
