<svg width="25" height="25" viewBox="0 0 25 25" fill="none" xmlns="http://www.w3.org/2000/svg">
<path d="M12.5 19.7916C14.2259 19.7916 15.625 18.3925 15.625 16.6666C15.625 14.9407 14.2259 13.5416 12.5 13.5416C10.7741 13.5416 9.375 14.9407 9.375 16.6666C9.375 18.3925 10.7741 19.7916 12.5 19.7916Z" stroke="#1C274D"/>
<path d="M12.5 20.0624L10.1428 22.3222C9.80527 22.6459 9.63648 22.8077 9.49354 22.8637C9.16782 22.9913 8.80651 22.882 8.63517 22.6042C8.55998 22.4823 8.53655 22.2624 8.48968 21.8226C8.46323 21.5743 8.45 21.4502 8.40984 21.3461C8.31994 21.1133 8.13103 20.9321 7.88818 20.846C7.77972 20.8074 7.65021 20.7948 7.39117 20.7694C6.93241 20.7245 6.70303 20.702 6.57586 20.6299C6.28607 20.4657 6.17217 20.1193 6.30527 19.807C6.36367 19.6701 6.53246 19.5082 6.87003 19.1845L8.40984 17.7083L9.49354 16.6246" stroke="#1C274D"/>
<path d="M12.5 20.0625L14.8572 22.3223C15.1947 22.646 15.3635 22.8078 15.5065 22.8638C15.8322 22.9914 16.1934 22.8821 16.3648 22.6043C16.44 22.4825 16.4634 22.2626 16.5103 21.8227C16.5368 21.5743 16.55 21.4502 16.5901 21.3462C16.6801 21.1134 16.869 20.9322 17.1118 20.8461C17.2203 20.8076 17.3498 20.795 17.6089 20.7695C18.0676 20.7246 18.297 20.7021 18.4242 20.6301C18.714 20.4658 18.8278 20.1194 18.6947 19.8071C18.6364 19.6701 18.4675 19.5083 18.13 19.1846L16.5901 17.7084L15.625 16.7433" stroke="#1C274D"/>
<path d="M18.0415 18.7456C20.0961 18.7238 21.2413 18.595 22.0015 17.8347C22.9168 16.9194 22.9168 15.4463 22.9168 12.5V8.33337C22.9168 5.38709 22.9168 3.91396 22.0015 2.99867C21.0862 2.08337 19.6131 2.08337 16.6668 2.08337H8.3335C5.38721 2.08337 3.91408 2.08337 2.99879 2.99867C2.0835 3.91396 2.0835 5.38709 2.0835 8.33337V12.5C2.0835 15.4463 2.0835 16.9194 2.99879 17.8347C3.79918 18.6351 5.02617 18.7357 7.29183 18.7483" stroke="#1C274D"/>
<path d="M9.375 6.25H15.625" stroke="#1C274D" stroke-linecap="round"/>
<path d="M7.2915 9.89587H17.7082" stroke="#1C274D" stroke-linecap="round"/>
</svg>
