<svg width="14" height="12" viewBox="0 0 14 12" fill="none" xmlns="http://www.w3.org/2000/svg">
<g clip-path="url(#clip0_615_309)">
<path d="M2.46155 10.1654C2.57139 10.2978 2.55635 10.497 2.42794 10.6103C2.29954 10.7236 2.10631 10.7081 1.99648 10.5757C0.667333 8.97632 -0.0151267 7.167 0.000254326 5.3343C0.0151796 3.54706 0.693538 1.74679 2.08273 0.107683C2.19404 -0.0233001 2.38716 -0.036692 2.5143 0.0779618C2.64134 0.192733 2.65433 0.39185 2.54302 0.52295C1.25443 2.04352 0.625178 3.70189 0.611506 5.33923C0.597492 7.01745 1.22994 8.68346 2.46155 10.1654ZM4.06494 8.62695C4.17682 8.75723 4.16508 8.95658 4.03862 9.07182C3.91227 9.18718 3.71903 9.17508 3.60715 9.04481C2.58529 7.85398 2.06302 6.59232 2.08387 5.31421C2.10426 4.06935 2.63849 2.82542 3.72712 1.63401C3.84299 1.50702 4.03668 1.50091 4.15984 1.62038C4.283 1.73985 4.28893 1.93956 4.17306 2.06655C3.19346 3.13872 2.71289 4.2391 2.69512 5.32408C2.67689 6.43949 3.14652 7.55665 4.06494 8.62695ZM5.48546 7.16242C5.59198 7.29751 5.57216 7.49627 5.44102 7.60611C5.30988 7.71595 5.11722 7.69551 5.0107 7.5603C4.46017 6.86133 4.17363 6.1041 4.17146 5.33524C4.16918 4.58411 4.43886 3.83299 4.99919 3.12545C5.10583 2.99036 5.29838 2.9698 5.4294 3.07964C5.56042 3.18947 5.58036 3.38824 5.47383 3.52321C5.00614 4.11387 4.78101 4.72943 4.78283 5.33512C4.78442 5.95526 5.02437 6.57705 5.48546 7.16242ZM12.0035 10.5757C11.8936 10.7081 11.7004 10.7236 11.572 10.6103C11.4436 10.497 11.4286 10.2978 11.5384 10.1654C12.7701 8.68346 13.4024 7.01745 13.3884 5.33923C13.3748 3.70189 12.7455 2.04341 11.4569 0.52295C11.3456 0.39185 11.3586 0.192616 11.4856 0.0779618C11.6127 -0.036692 11.806 -0.0233001 11.9172 0.107683C13.3063 1.74679 13.9848 3.54706 13.9997 5.3343C14.0152 7.167 13.3326 8.97632 12.0035 10.5757ZM10.393 9.04469C10.2811 9.17496 10.0879 9.18718 9.96155 9.07171C9.83508 8.95647 9.82323 8.75711 9.93523 8.62684C10.8536 7.55665 11.3233 6.43949 11.305 5.32396C11.2874 4.23898 10.8068 3.13849 9.82711 2.06643C9.71124 1.93944 9.71716 1.73974 9.84032 1.62027C9.96337 1.5008 10.1572 1.50691 10.273 1.63389C11.3616 2.82542 11.8959 4.06923 11.9163 5.31409C11.937 6.5922 11.4148 7.85386 10.393 9.04469ZM8.98936 7.5603C8.88272 7.69539 8.69005 7.71595 8.55903 7.60611C8.42801 7.49627 8.40818 7.29751 8.51471 7.16242C8.97569 6.57716 9.21552 5.95538 9.21734 5.33524C9.21916 4.72955 8.99403 4.11399 8.52633 3.52333C8.41969 3.38836 8.43963 3.18959 8.57077 3.07975C8.7019 2.96992 8.89445 2.99036 9.00098 3.12557C9.5613 3.83299 9.83087 4.58423 9.8287 5.33536C9.82642 6.10422 9.53988 6.86133 8.98936 7.5603ZM7.30691 6.488V11.6837C7.30691 11.8584 7.1695 12.0001 7.00008 12.0001C6.83066 12.0001 6.69338 11.8584 6.69338 11.6837V6.48777C6.49878 6.43232 6.32492 6.32565 6.18614 6.18269C5.97776 5.96771 5.84879 5.67086 5.84879 5.34299C5.84879 5.01512 5.97776 4.71827 6.18614 4.50341C6.39464 4.28855 6.68255 4.15557 7.00043 4.15557C7.31853 4.15557 7.60632 4.28855 7.81482 4.50341C8.0232 4.71827 8.15218 5.01512 8.15218 5.34299C8.15218 5.67086 8.0232 5.96771 7.81482 6.18269C7.67582 6.32589 7.50173 6.43267 7.30691 6.488Z" fill="#535353"/>
</g>
<defs>
<clipPath id="clip0_615_309">
<rect width="14" height="12" fill="white"/>
</clipPath>
</defs>
</svg>
