<svg width="32" height="32" viewBox="0 0 32 32" fill="none" xmlns="http://www.w3.org/2000/svg">
<circle cx="16" cy="16" r="16" fill="white"/>
<path d="M16.8476 11.8179C16.8476 11.9817 16.8476 12.5154 16.8476 13.2737H19.4546L19.1719 15.5976H16.8476C16.8476 19.1816 16.8476 23.9844 16.8476 23.9844H13.7624C13.7624 23.9844 13.7624 19.2452 13.7624 15.5976H12.1548V13.2737H13.7624C13.7624 12.352 13.7624 11.6967 13.7624 11.5142C13.7624 10.6448 13.6969 10.2323 14.0663 9.55866C14.4359 8.885 15.4784 7.99457 17.2815 8.016C19.085 8.03822 19.8452 8.21172 19.8452 8.21172L19.4546 10.6885C19.4546 10.6885 18.3029 10.3844 17.7376 10.4928C17.1731 10.6012 16.8476 10.9489 16.8476 11.8179Z" fill="#0075FE"/>
</svg>
