<svg width="30" height="30" viewBox="0 0 30 30" fill="none" xmlns="http://www.w3.org/2000/svg">
<g clip-path="url(#clip0_535_2)">
<path d="M16.8169 4.37859C18.026 4.37859 19.0066 3.3985 19.0066 2.1893C19.0066 0.980156 18.026 0 16.8169 0C15.6081 0 14.6279 0.980156 14.6279 2.1893C14.6279 3.3985 15.6081 4.37859 16.8169 4.37859Z" fill="#03C587"/>
<path d="M21.8081 24.6091H16.5493V20.7801H11.2926V16.9502H6.03422V13.1202H1.55566V14.6812H4.47357V18.5112H9.73201V22.3411H14.9888V26.1701H20.2475V30H26.9666V28.4395L21.8081 28.439V24.6091Z" fill="#03C587"/>
<path d="M28.0065 10.6196C27.9692 10.3711 27.7376 10.1996 27.4887 10.2369L26.438 10.3948L26.3481 9.79747C26.3108 9.55442 26.0848 9.38801 25.8421 9.42399L25.732 9.44051C25.7168 9.33891 25.6817 9.23854 25.6236 9.14626L24.1062 6.71983C23.9424 6.45821 23.693 6.26174 23.4001 6.16395L20.6527 4.8828C19.6688 4.42424 18.5189 4.49667 17.5997 5.07499L13.3766 7.73473L10.9048 6.57463C10.5209 6.3596 10.0365 6.48698 9.80831 6.86297L9.77702 6.91378C9.6644 7.10051 9.62966 7.32358 9.68216 7.53487C9.73425 7.74616 9.86931 7.9278 10.0565 8.0396L13.0023 9.79747C13.3686 10.0163 13.8152 10.0557 14.2144 9.90499L15.9592 8.96508L16.7865 12.3022L14.0367 12.2882C13.5735 12.2869 13.1336 12.4923 12.8381 12.8492C12.5426 13.2062 12.4228 13.6765 12.5108 14.1316L13.4359 18.8943C13.5383 19.4218 14.0383 19.7749 14.5697 19.6952L14.6095 19.6894C15.1357 19.6106 15.5088 19.1351 15.46 18.6055L15.1467 15.1931L19.2963 15.2896C19.8919 15.3032 20.4619 15.0461 20.8459 14.5902C21.2299 14.1346 21.3861 13.5292 21.2714 12.9441L21.1651 12.4047L20.3115 7.58831L22.511 7.91303L24.1199 9.77889C24.025 9.87545 23.9694 10.0075 23.9908 10.1515L24.0807 10.7497L23.0301 10.9076C22.7812 10.9449 22.6101 11.1769 22.6478 11.4258L23.0793 14.2964C23.1169 14.5449 23.3486 14.7164 23.5971 14.6791L28.0562 14.0085C28.3047 13.9712 28.4758 13.7392 28.4384 13.4902L28.0065 10.6196ZM24.4184 10.1158C24.672 10.3623 25.0617 10.4088 25.365 10.2166L25.3828 10.2051C25.5109 10.1242 25.6055 10.0108 25.6656 9.88378L25.9061 9.84733L25.9247 9.86087L26.0147 10.4588L24.504 10.6856L24.4184 10.1158Z" fill="#03C587"/>
<path d="M23.0662 22.5489C23.4346 22.9337 24.043 22.9571 24.4397 22.601L24.4681 22.576C24.8635 22.2212 24.9067 21.6162 24.5663 21.2076L22.2987 18.1648L21.6645 14.942C21.6154 15.0127 21.565 15.0826 21.5091 15.149C20.9697 15.7896 20.1793 16.1571 19.3414 16.1571L18.9561 16.1482L19.7127 18.5966C19.9083 19.0013 20.1627 19.3756 20.4671 19.7079L23.0662 22.5489Z" fill="#03C587"/>
</g>
<defs>
<clipPath id="clip0_535_2">
<rect width="30" height="30" fill="white"/>
</clipPath>
</defs>
</svg>
