<svg width="24" height="24" viewBox="0 0 24 24" fill="none" xmlns="http://www.w3.org/2000/svg">
<foreignObject x="-23.76" y="-23.76" width="71.52" height="71.52"><div xmlns="http://www.w3.org/1999/xhtml" style="backdrop-filter:blur(11.88px);clip-path:url(#bgblur_0_3001_2_clip_path);height:100%;width:100%"></div></foreignObject><circle data-figma-bg-blur-radius="23.76" cx="12" cy="12" r="12" transform="rotate(-180 12 12)" fill="white" fill-opacity="0.2"/>
<path fill-rule="evenodd" clip-rule="evenodd" d="M14.8005 7.16077C14.5796 6.94641 14.222 6.94641 14.0017 7.16077L9.33087 11.7055C8.88971 12.1348 8.88971 12.8312 9.33087 13.2605L14.0356 17.8391C14.2542 18.0512 14.6073 18.0541 14.8287 17.8447C15.0546 17.6309 15.0575 17.2784 14.8349 17.0613L10.5289 12.8719C10.3081 12.657 10.3081 12.309 10.5289 12.0941L14.8005 7.93797C15.0213 7.72361 15.0213 7.37513 14.8005 7.16077Z" fill="white"/>
<defs>
<clipPath id="bgblur_0_3001_2_clip_path" transform="translate(23.76 23.76)"><circle cx="12" cy="12" r="12" transform="rotate(-180 12 12)"/>
</clipPath></defs>
</svg>
