<svg width="26" height="26" viewBox="0 0 26 26" fill="none" xmlns="http://www.w3.org/2000/svg">
<circle cx="13" cy="13" r="12.5" fill="white" stroke="url(#paint0_linear_106_149)"/>
<g clip-path="url(#clip0_106_149)">
<path d="M13.0105 19.0002C11.3171 19.0002 9.60403 19.0002 7.91064 19.0002C7.24116 19.0002 6.82766 18.6163 6.84735 17.9636C6.86704 17.3492 6.84735 16.7541 6.92612 16.1398C7.02457 15.3143 7.33962 14.5464 7.77281 13.8362C7.81219 13.7786 7.89095 13.7594 7.96972 13.7594C8.52105 13.6826 9.07239 13.6442 9.62372 13.5674C10.4507 13.433 11.0218 12.7227 11.0218 11.9164C11.0218 11.7053 11.0021 11.4941 10.9824 11.2637C10.9627 11.1293 11.0218 11.0526 11.1399 11.0334C11.514 10.9566 11.8685 10.8606 12.2426 10.8222C13.0105 10.7454 13.7981 10.7646 14.5661 10.9182C14.7039 10.9566 14.8417 10.995 14.9993 11.0334C15.0977 11.0526 15.1371 11.1101 15.1174 11.2253C15.0583 11.4365 15.0583 11.6477 15.0386 11.8588C15.0189 12.7611 15.6687 13.4906 16.5745 13.5866C17.0865 13.6442 17.5984 13.7018 18.1104 13.7594C18.2088 13.7594 18.2482 13.7978 18.3073 13.8745C18.9177 14.892 19.213 15.9862 19.1933 17.1765C19.1933 17.4452 19.1933 17.7332 19.1933 18.0019C19.1933 18.5971 18.7798 19.0002 18.1694 19.0002C16.4564 19.0002 14.7236 19.0002 13.0105 19.0002ZM15.1765 15.7559C15.1765 14.604 14.2116 13.6634 13.0302 13.6442C11.8291 13.6442 10.8642 14.5848 10.8642 15.7559C10.8642 16.9077 11.8291 17.8484 13.0105 17.8676C14.2116 17.8484 15.1765 16.9077 15.1765 15.7559Z" fill="#012E4B"/>
<path d="M13.0299 8C14.5461 8.0192 16.0623 8.19197 17.4997 8.72949C18.1298 8.95986 18.7402 9.26702 19.2522 9.70855C19.8823 10.2653 20.1382 10.918 19.9216 11.7435C19.8626 11.9738 19.8035 12.2234 19.705 12.4346C19.5475 12.8377 19.1931 13.0297 18.7796 12.9721C18.0707 12.8953 17.3619 12.8185 16.6727 12.7417C16.2001 12.6841 15.8654 12.3194 15.9048 11.8586C15.9244 11.6283 15.9244 11.3787 15.9638 11.1483C16.0032 10.822 15.8654 10.5916 15.5897 10.4188C15.2747 10.2269 14.9202 10.1117 14.5658 10.0541C13.4631 9.86213 12.3408 9.86213 11.2381 10.0925C10.923 10.1501 10.6277 10.2653 10.3717 10.4572C10.1354 10.63 10.037 10.8412 10.0567 11.1291C10.0763 11.3595 10.096 11.6091 10.096 11.8394C10.1354 12.3002 9.82037 12.6841 9.34779 12.7417C8.61924 12.8185 7.89069 12.9145 7.16214 12.9913C6.80771 13.0297 6.45328 12.8377 6.31544 12.4921C6.13823 12.089 6.03977 11.6859 6.00039 11.2635C5.96101 10.63 6.27606 10.1693 6.70925 9.74695C7.2409 9.26702 7.89069 8.94066 8.57986 8.7103C10.0173 8.19197 11.4941 8.0192 13.0299 8Z" fill="#012E4B"/>
</g>
<defs>
<linearGradient id="paint0_linear_106_149" x1="1.77273" y1="1.77273" x2="20.6818" y2="26" gradientUnits="userSpaceOnUse">
<stop stop-color="#009DB8"/>
<stop offset="1" stop-color="#03C587"/>
</linearGradient>
<clipPath id="clip0_106_149">
<rect width="14" height="11" fill="white" transform="translate(6 8)"/>
</clipPath>
</defs>
</svg>
