<svg width="25" height="25" viewBox="0 0 25 25" fill="none" xmlns="http://www.w3.org/2000/svg">
<g clip-path="url(#clip0_618_482)">
<path d="M0 14.9896C0 13.3125 0 11.6353 0 9.95824C0.0717828 9.92561 0.04568 9.86035 0.04568 9.80814C0.110937 8.00052 0.247977 6.20595 0.430697 4.40485C0.63952 2.42104 2.32315 0.678674 4.31349 0.450274C6.14722 0.234926 7.98747 0.110937 9.83425 0.04568C9.90603 0.04568 9.99739 0.0848342 10.0561 0C11.6875 0 13.3125 0 14.9439 0C14.9635 0.0652571 15.0222 0.04568 15.0679 0.04568C16.9146 0.104411 18.7549 0.241451 20.5886 0.430697C22.5855 0.63952 24.3344 2.34273 24.5562 4.3396C24.752 6.06239 24.876 7.7917 24.9413 9.52101C25.0848 13.208 24.9543 16.8885 24.5628 20.5625C24.3474 22.5855 22.6899 24.3083 20.68 24.5562C18.9441 24.7651 17.1952 24.876 15.4529 24.9478C11.7659 25.0914 8.08536 24.9608 4.41791 24.5693C2.42756 24.3605 0.6852 22.6834 0.450274 20.6865C0.234926 18.8658 0.117463 17.0452 0.0522057 15.2114C0.04568 15.1396 0.0848342 15.0483 0 14.9896ZM12.1443 18.2133C14.1477 18.2133 15.8118 18.1219 17.4693 17.9588C18.0893 17.9 18.657 17.7043 19.1595 17.3258C19.5576 17.0256 19.8708 16.6536 19.9687 16.1446C20.4124 13.8019 20.4189 11.4591 20.0209 9.10989C19.9165 8.48342 19.6032 8.01357 19.1073 7.64813C18.7614 7.39363 18.3764 7.22396 17.9588 7.1326C17.3258 7.00209 16.6862 6.98251 16.0467 6.93031C13.208 6.70843 10.3759 6.76716 7.54372 7.04777C6.92378 7.1065 6.35604 7.30227 5.85356 7.68076C5.45549 7.98094 5.13573 8.35291 5.03785 8.85539C4.60063 11.1133 4.5941 13.3777 4.93344 15.6487C5.03132 16.3143 5.25972 16.882 5.80788 17.2997C6.25163 17.6325 6.74106 17.8609 7.29574 17.9261C9.01201 18.1284 10.7478 18.2002 12.1443 18.2133Z" fill="#E50000"/>
<path d="M12.1441 18.2133C10.7411 18.2003 9.0118 18.1285 7.28901 17.9262C6.74085 17.8609 6.24489 17.6325 5.80115 17.2997C5.25299 16.8821 5.02459 16.3143 4.9267 15.6487C4.58084 13.3778 4.59389 11.1134 5.03111 8.85546C5.129 8.35298 5.44876 7.98101 5.84683 7.68083C6.34931 7.30234 6.91704 7.11309 7.53698 7.04784C10.3691 6.76723 13.2013 6.7085 16.04 6.93037C16.6795 6.98258 17.3256 7.00216 17.952 7.13267C18.3697 7.22403 18.7547 7.3937 19.1005 7.6482C19.603 8.01364 19.9097 8.48349 20.0141 9.10996C20.4122 11.4592 20.4057 13.8019 19.9619 16.1447C19.8641 16.6537 19.5508 17.0191 19.1528 17.3258C18.6568 17.7043 18.0825 17.9001 17.4626 17.9588C15.8116 18.122 14.1475 18.2133 12.1441 18.2133ZM10.6432 15.4856C12.2747 14.4806 13.88 13.4952 15.5049 12.4968C13.8669 11.4918 12.2616 10.5065 10.6432 9.50803C10.6432 11.5114 10.6432 13.4822 10.6432 15.4856Z" fill="#FEFDFD"/>
<path d="M10.6436 15.4854C10.6436 13.4754 10.6436 11.5112 10.6436 9.50781C12.2685 10.5062 13.8673 11.4851 15.5052 12.4966C13.8803 13.5015 12.275 14.4869 10.6436 15.4854Z" fill="#E50000"/>
</g>
<defs>
<clipPath id="clip0_618_482">
<rect width="25" height="25" fill="white"/>
</clipPath>
</defs>
</svg>
