<svg width="25" height="25" viewBox="0 0 25 25" fill="none" xmlns="http://www.w3.org/2000/svg">
<g clip-path="url(#clip0_618_476)">
<path d="M25 2.29801C25 9.11842 25 15.9361 25 22.7565C24.9156 22.8137 24.9319 22.9117 24.9074 22.9907C24.6352 23.9327 24.0334 24.559 23.105 24.8748C22.958 24.9238 22.8055 24.9592 22.6557 25.0028C15.8517 25.0028 9.05032 25.0028 2.24624 25.0028C2.21902 24.9184 2.13733 24.9456 2.08016 24.9292C0.78142 24.5726 0 23.5597 0 22.212C0 15.7373 0 9.26272 0 2.7881C0 2.55122 0.019059 2.31707 0.0735134 2.08836C0.389349 0.816848 1.44304 0.00275466 2.78534 0.00275466C7.65901 3.19459e-05 12.53 0.00275466 17.4036 0.00275466C19.0318 0.00275466 20.6573 -0.00269077 22.2854 0.00547738C23.4971 0.0109228 24.5126 0.75967 24.8775 1.89504C24.9183 2.02846 24.9129 2.17548 25 2.29801ZM3.98878 3.78733C4.0623 3.89624 4.10858 3.97248 4.15759 4.04327C6.26498 7.10905 8.36964 10.1776 10.4852 13.2406C10.6132 13.4258 10.5941 13.5265 10.4525 13.6871C8.69636 15.7156 6.94838 17.7522 5.19767 19.7888C4.80288 20.2462 4.4108 20.7063 3.98606 21.1991C4.4462 21.1991 4.86005 21.191 5.27118 21.2018C5.43455 21.2073 5.53529 21.1474 5.63875 21.0276C7.47114 18.8903 9.30625 16.7584 11.1441 14.6265C11.1931 14.5693 11.2312 14.4931 11.3156 14.4658C11.3401 14.5012 11.3646 14.5339 11.3864 14.5693C12.8648 16.7175 14.3433 18.8657 15.8163 21.0194C15.9088 21.1556 16.0041 21.2073 16.1702 21.2046C17.7086 21.1991 19.2469 21.2018 20.7825 21.1991C20.8506 21.1991 20.9241 21.2182 20.9976 21.1719C20.9186 21.0575 20.8479 20.9514 20.7743 20.8452C18.5962 17.6759 16.4234 14.5067 14.2425 11.3429C14.1472 11.2067 14.1445 11.1305 14.2589 10.9998C16.2682 8.67461 18.2722 6.34124 20.2761 4.0106C20.3278 3.9507 20.3959 3.90169 20.4177 3.79006C19.9984 3.79006 19.5845 3.79822 19.1734 3.78733C19.0209 3.78461 18.9229 3.8309 18.8222 3.94797C17.4472 5.55438 16.0668 7.15534 14.6863 8.75902C14.2779 9.23277 13.8723 9.7038 13.4557 10.1857C13.3958 10.1013 13.3468 10.036 13.3005 9.96791C11.9282 7.97215 10.556 5.97912 9.18917 3.97792C9.08843 3.8309 8.98769 3.78189 8.81344 3.78189C7.87682 3.79006 6.94293 3.78461 6.00632 3.78461C5.35286 3.78733 4.69397 3.78733 3.98878 3.78733Z" fill="black"/>
<path d="M3.98905 3.78798C4.69424 3.78798 5.35313 3.78798 6.01203 3.78798C6.94865 3.78798 7.88254 3.79343 8.81915 3.78526C8.99341 3.78254 9.09415 3.83427 9.19489 3.98129C10.5617 5.97977 11.9339 7.97552 13.3062 9.97127C13.3525 10.0366 13.3988 10.102 13.4614 10.1891C13.878 9.70717 14.2864 9.23342 14.6921 8.76239C16.0725 7.15871 17.4529 5.55775 18.8279 3.95134C18.9286 3.83427 19.0266 3.78526 19.1791 3.7907C19.5902 3.80159 20.0041 3.79343 20.4234 3.79343C20.4016 3.90506 20.3308 3.95407 20.2818 4.01397C18.2779 6.34461 16.274 8.67798 14.2646 11.0032C14.1502 11.1339 14.1557 11.2101 14.2483 11.3462C16.4237 14.5073 18.5964 17.6766 20.7746 20.8431C20.8481 20.9493 20.9189 21.0555 20.9979 21.1698C20.9244 21.2188 20.8508 21.197 20.7828 21.197C19.2444 21.1998 17.7061 21.1943 16.1705 21.2025C16.0071 21.2025 15.9118 21.1535 15.8165 21.0173C14.3408 18.8664 12.8624 16.7182 11.3867 14.5672C11.3649 14.5345 11.3404 14.5019 11.3159 14.4638C11.2315 14.491 11.1934 14.5672 11.1444 14.6244C9.30652 16.7563 7.47141 18.8909 5.63902 21.0255C5.53556 21.148 5.43481 21.2052 5.27145 21.1998C4.86032 21.1889 4.44647 21.197 3.98633 21.197C4.40835 20.7042 4.80314 20.2441 5.19794 19.7867C6.94865 17.7528 8.69663 15.7162 10.4555 13.6851C10.5944 13.5244 10.6161 13.4237 10.4882 13.2385C8.37263 10.1755 6.26797 7.1097 4.16058 4.04119C4.10885 3.97313 4.05984 3.89961 3.98905 3.78798ZM18.9558 20.1216C18.8932 20.029 18.8605 19.9773 18.8224 19.9228C16.892 17.1593 14.9589 14.3984 13.0285 11.6349C11.5065 9.45668 9.98448 7.28123 8.45975 5.10578C8.40802 5.03226 8.3808 4.92608 8.25283 4.92608C7.52586 4.9288 6.7989 4.92608 6.03109 4.92608C6.10188 5.02682 6.14544 5.09216 6.19173 5.15479C7.76546 7.40647 9.33647 9.65544 10.9102 11.9071C12.7807 14.5836 14.6512 17.26 16.5244 19.9364C16.5816 20.0181 16.6116 20.1243 16.7532 20.1243C17.4747 20.1188 18.1962 20.1216 18.9558 20.1216Z" fill="#FCFCFC"/>
<path d="M18.956 20.1213C18.1964 20.1213 17.4748 20.1185 16.7533 20.124C16.6145 20.124 16.5818 20.0178 16.5246 19.9361C14.6514 17.2597 12.7809 14.5833 10.9104 11.9068C9.33935 9.65514 7.76562 7.40618 6.19189 5.15449C6.1456 5.08914 6.10204 5.02652 6.03125 4.92578C6.79906 4.92578 7.52602 4.92578 8.25299 4.92578C8.38096 4.92578 8.40818 5.03197 8.45991 5.10548C9.98464 7.28093 11.5066 9.45911 13.0286 11.6346C14.959 14.3981 16.8922 17.159 18.8226 19.9225C18.8607 19.9742 18.8961 20.0287 18.956 20.1213Z" fill="#020202"/>
</g>
<defs>
<clipPath id="clip0_618_476">
<rect width="25" height="25" fill="white"/>
</clipPath>
</defs>
</svg>
