<svg width="78" height="54" viewBox="0 0 78 54" fill="none" xmlns="http://www.w3.org/2000/svg">
<path fill-rule="evenodd" clip-rule="evenodd" d="M16.6965 24.146C16.6965 24.146 23.3277 18.5593 24.998 17.9369L17.8267 0C17.3242 0.252882 16.8808 0.609242 16.5257 1.04568C16.1706 1.48211 15.9119 1.98874 15.7666 2.53227L21.8255 17.9369C21.8255 17.9369 16.8933 22.0894 16.6965 24.146Z" fill="white"/>
<path fill-rule="evenodd" clip-rule="evenodd" d="M18.9424 23.5237C18.9424 23.5237 28.4384 18.2088 29.5722 17.9369L23.1342 0.622337C23.1342 0.622337 21.3459 1.80622 21.4425 2.69681C21.539 3.58739 27.1293 17.9369 27.1293 17.9369C27.1293 17.9369 19.976 21.3634 18.9316 23.5237H18.9424Z" fill="white"/>
<path fill-rule="evenodd" clip-rule="evenodd" d="M8.30957 7.74346L15.3985 25.2262C16.0288 22.4528 17.3461 19.8823 19.2291 17.7509L12.1437 0.26825C10.2604 2.39997 8.94211 4.97019 8.30957 7.74346Z" fill="white"/>
<path fill-rule="evenodd" clip-rule="evenodd" d="M11.1312 21.8212C11.4639 21.8212 11.7929 21.8391 12.1005 21.8605V25.7233C11.7792 25.6809 11.4554 25.6606 11.1312 25.6625C7.36145 25.6625 4.29267 28.6097 4.29267 32.265C4.29267 35.9204 7.36145 38.8461 11.1312 38.8461H11.6463C10.8851 37.5443 10.4874 36.0621 10.4946 34.5541C10.4946 29.7793 14.4897 25.9165 19.4362 25.9165C21.021 25.9021 22.5811 26.3091 23.9569 27.096C25.3326 27.8828 26.4745 29.0212 27.2655 30.3944C28.0601 29.0261 29.2027 27.8924 30.5771 27.1084C31.9516 26.3244 33.509 25.9181 35.0913 25.9308H35.5884V29.4824C36.4128 28.4297 37.4668 27.5792 38.6699 26.9959C39.8731 26.4126 41.1936 26.1119 42.5307 26.1167C44.2907 26.1 46.0136 26.6222 47.4682 27.6132C48.9227 28.6042 50.0392 30.0166 50.6676 31.6606C50.9118 32.1755 51.1117 32.7104 51.2649 33.2593L60.9469 33.2808V35.8131H51.7192C52.042 36.8893 52.7039 37.8324 53.6062 38.502C54.5084 39.1716 55.6029 39.5319 56.7265 39.5292C57.3989 39.5471 58.068 39.4302 58.6945 39.1853C59.3209 38.9403 59.8919 38.5724 60.3738 38.1032C60.8557 37.6339 61.2388 37.0729 61.5003 36.4532C61.7619 35.8335 61.8966 35.1677 61.8966 34.4951C61.8966 33.8224 61.7619 33.1566 61.5003 32.5369C61.2388 31.9172 60.8557 31.3562 60.3738 30.887C59.8919 30.4178 59.3209 30.0498 58.6945 29.8049C58.068 29.56 57.3989 29.443 56.7265 29.4609C55.3245 29.463 53.9791 30.0138 52.9781 30.9953L50.6104 28.5882C51.5547 27.6779 52.6901 26.9895 53.9341 26.5734C55.178 26.1573 56.4991 26.0239 57.8011 26.1829C59.1031 26.3419 60.3532 26.7893 61.4605 27.4924C62.5677 28.1956 63.5042 29.1369 64.2017 30.2478C65.0101 28.9146 66.1521 27.8153 67.515 27.0582C68.878 26.3011 70.4148 25.9125 71.9738 25.9308H72.4673V29.5432C72.3028 29.5432 72.1383 29.5217 71.9738 29.5217C68.9265 29.5217 67.8749 30.7485 67.8749 32.9696V42.7482H64.2267V38.7423C63.3662 40.1189 62.1413 41.2303 60.6878 41.9534C59.2343 42.6764 57.6089 42.9829 55.9919 42.8388C54.3749 42.6948 52.8294 42.1058 51.5266 41.1371C50.2238 40.1685 49.2147 38.8581 48.611 37.351C48.3798 36.8233 48.1804 36.2823 48.0137 35.7308L38.3532 35.7093V33.1771H47.5595C47.2 31.9922 46.432 30.9732 45.392 30.3012C44.3521 29.6292 43.1075 29.3478 41.8795 29.507C40.6516 29.6662 39.5199 30.2556 38.6857 31.1706C37.8514 32.0855 37.3686 33.2667 37.3231 34.504C37.3503 35.859 37.9146 37.1477 38.8919 38.0867C39.8691 39.0257 41.1793 39.5382 42.5343 39.5113C43.2294 39.5155 43.9185 39.3821 44.5618 39.1187C45.2051 38.8554 45.79 38.4674 46.2826 37.977L48.6718 40.384C47.0297 41.9847 44.8238 42.875 42.5307 42.8627C37.7523 42.8627 33.8788 39.1036 33.8788 34.4933C33.8748 32.7015 34.4605 30.9583 35.5455 29.5325C35.4025 29.5325 35.2379 29.511 35.0913 29.511C32.044 29.511 30.9924 30.7378 30.9924 32.9589V42.7375H24.2755V33.4882C23.7604 31.2242 22.4871 29.5217 19.4362 29.5217C18.7624 29.5038 18.0919 29.621 17.4641 29.8665C16.8363 30.1119 16.2641 30.4807 15.7812 30.9509C15.2983 31.4211 14.9144 31.9833 14.6523 32.6043C14.3903 33.2253 14.2552 33.8926 14.2552 34.5666C14.2552 35.2406 14.3903 35.9079 14.6523 36.5289C14.9144 37.1499 15.2983 37.7121 15.7812 38.1823C16.2641 38.6525 16.8363 39.0213 17.4641 39.2668C18.0919 39.5122 18.7624 39.6294 19.4362 39.6115C20.8293 39.6176 22.1685 39.0739 23.1631 38.0986V42.437C21.9887 42.9542 20.7195 43.221 19.4362 43.2203C18.0082 43.2278 16.5987 42.8965 15.3235 42.2536C14.0483 41.6107 12.9438 40.6746 12.1005 39.5221V42.6588C11.7929 42.6803 11.4639 42.6981 11.1312 42.6981C5.15823 42.6981 0.31543 38.0056 0.31543 32.2579C0.31543 26.5102 5.15823 21.814 11.1312 21.814V21.8212Z" fill="white"/>
<path fill-rule="evenodd" clip-rule="evenodd" d="M72.732 19.5142C73.1487 19.5083 73.56 19.6093 73.9266 19.8075C74.3055 20.0105 74.6201 20.3152 74.835 20.6874C75.0426 21.048 75.1558 21.4552 75.1641 21.8713C75.1538 22.2802 75.0406 22.68 74.835 23.0337C74.6263 23.4089 74.3099 23.7129 73.9266 23.9064C73.5616 24.1108 73.1503 24.218 72.732 24.2175C72.3069 24.2175 71.8887 24.1105 71.5159 23.9064C71.1447 23.7051 70.8383 23.4024 70.6325 23.0337C70.4147 22.6851 70.2994 22.2823 70.2998 21.8713C70.2973 21.4532 70.4126 21.0429 70.6325 20.6874C70.8477 20.3194 71.161 20.0185 71.5374 19.8183C71.9032 19.6181 72.315 19.517 72.732 19.525V19.5142ZM72.732 19.9721C72.396 19.9759 72.0649 20.0541 71.7627 20.201C71.4675 20.3672 71.221 20.6079 71.0478 20.8991C70.8746 21.1903 70.7807 21.5218 70.7755 21.8605C70.7817 22.1898 70.8742 22.5117 71.0438 22.794C71.21 23.0952 71.458 23.3431 71.7591 23.5094C72.0566 23.6712 72.3898 23.756 72.7284 23.756C73.067 23.756 73.4002 23.6712 73.6977 23.5094C73.9988 23.3431 74.2468 23.0952 74.413 22.794C74.5921 22.516 74.6854 22.1913 74.6813 21.8605C74.6768 21.5242 74.5843 21.195 74.413 20.9056C74.2484 20.6032 74 20.3549 73.6977 20.1902C73.3954 20.0434 73.0644 19.9652 72.7284 19.9613L72.732 19.9721ZM71.659 23.1088V20.6051H72.174C72.4484 20.5929 72.7233 20.6001 72.9966 20.6266C73.1378 20.6267 73.2776 20.6546 73.408 20.7088C73.501 20.7753 73.579 20.8606 73.6369 20.9592C73.7024 21.0672 73.7382 21.1906 73.7406 21.3169C73.7427 21.4019 73.7273 21.4864 73.6953 21.5652C73.6633 21.6439 73.6154 21.7152 73.5546 21.7747C73.413 21.9094 73.233 21.9969 73.0396 22.0251C73.1052 22.0435 73.1678 22.0712 73.2255 22.1073C73.2649 22.1502 73.3257 22.211 73.3901 22.2933C73.4545 22.3756 73.4723 22.4185 73.594 22.6045L73.8837 23.1052H73.2255L73.0217 22.7082C72.9392 22.5127 72.8174 22.3362 72.664 22.1896C72.5588 22.118 72.4335 22.0817 72.3063 22.0859H72.1633V23.1052L71.659 23.1088ZM72.174 21.696H72.3779C72.572 21.7026 72.7663 21.6883 72.9573 21.6531C73.0189 21.6306 73.075 21.5952 73.1218 21.5494C73.163 21.4881 73.1842 21.4157 73.1826 21.3419C73.1839 21.2814 73.1622 21.2226 73.1218 21.1774C73.0783 21.1132 73.0117 21.0684 72.9358 21.0522C72.7523 21.0152 72.5649 21.0008 72.3779 21.0093H72.174V21.696Z" fill="white"/>
<path d="M5.32996 52.3086C5.32996 52.398 5.32996 52.4803 5.32996 52.5483C5.32649 52.6037 5.31811 52.6588 5.30492 52.7128C5.29611 52.755 5.28168 52.796 5.262 52.8344C5.23522 52.8748 5.20533 52.9131 5.17258 52.9488C5.10043 53.0152 5.01986 53.0717 4.93294 53.1169C4.79586 53.1914 4.65362 53.2559 4.50732 53.3101C4.31833 53.3759 4.12464 53.4273 3.9279 53.4639C3.69183 53.5061 3.45238 53.5264 3.21257 53.5247C2.75649 53.5302 2.30321 53.4526 1.8749 53.2958C1.48772 53.1488 1.14085 52.9123 0.862704 52.6055C0.570583 52.275 0.352327 51.886 0.22249 51.4645C0.0665264 50.9475 -0.00828984 50.4093 0.000727928 49.8693C-0.0082632 49.3122 0.0751305 48.7575 0.247518 48.2276C0.391075 47.7826 0.623483 47.3713 0.930661 47.0187C1.22148 46.6949 1.58234 46.4417 1.98578 46.2784C2.41532 46.1055 2.87477 46.0192 3.33776 46.0244C3.53197 46.0245 3.72582 46.0412 3.91717 46.0745C4.09169 46.1067 4.26378 46.1509 4.43221 46.2068C4.57889 46.2586 4.72122 46.322 4.85783 46.3964C4.95303 46.4464 5.04189 46.5076 5.1225 46.5788C5.20145 46.6421 5.25378 46.7327 5.26915 46.8327C5.26915 46.8864 5.28703 46.9508 5.29419 47.0187C5.30134 47.0867 5.29419 47.1797 5.29419 47.2834C5.29419 47.3871 5.29419 47.4908 5.29419 47.5695C5.28972 47.6342 5.27648 47.698 5.25484 47.7591C5.24313 47.8007 5.21951 47.838 5.18688 47.8664C5.16319 47.8873 5.13264 47.8988 5.10105 47.8986C5.02193 47.8908 4.94768 47.8568 4.89002 47.802C4.78353 47.7228 4.67246 47.65 4.5574 47.5839C4.40391 47.4947 4.24222 47.4204 4.07455 47.3621C3.85719 47.2934 3.63004 47.2607 3.40213 47.2655C3.13733 47.2614 2.87561 47.3228 2.6403 47.4444C2.41229 47.5646 2.2152 47.736 2.06447 47.9451C1.89819 48.1873 1.77702 48.4575 1.7068 48.7427C1.62278 49.0868 1.58193 49.44 1.5852 49.7942C1.57803 50.167 1.62257 50.5389 1.71753 50.8994C1.78396 51.1782 1.90558 51.4409 2.0752 51.672C2.22845 51.8698 2.42891 52.026 2.65819 52.1262C2.90159 52.2279 3.16345 52.2778 3.42717 52.2728C3.65595 52.2769 3.88396 52.2455 4.10315 52.1799C4.2715 52.1278 4.43441 52.0595 4.58959 51.976C4.72192 51.9009 4.83637 51.8329 4.92221 51.7721C4.98019 51.7256 5.04917 51.6948 5.1225 51.6827C5.15487 51.6813 5.18702 51.6887 5.2155 51.7041C5.24214 51.7292 5.2608 51.7615 5.26915 51.7971C5.28672 51.859 5.29751 51.9226 5.30134 51.9867C5.32041 52.0654 5.32996 52.1727 5.32996 52.3086Z" fill="white"/>
<path d="M10.4558 53.235C10.4573 53.2589 10.4528 53.2829 10.4428 53.3047C10.4328 53.3265 10.4177 53.3456 10.3986 53.3602C10.3469 53.3967 10.2864 53.419 10.2234 53.4245C10.1049 53.4417 9.9853 53.4488 9.86569 53.446C9.74608 53.4487 9.62645 53.4415 9.50802 53.4245C9.44911 53.4198 9.393 53.3973 9.34707 53.3602C9.33081 53.3438 9.31825 53.3242 9.31023 53.3026C9.30221 53.281 9.29891 53.258 9.30057 53.235V52.838C9.09817 53.0549 8.85512 53.2299 8.58524 53.353C8.31331 53.4799 8.01615 53.5435 7.71611 53.539C7.47376 53.5413 7.23248 53.5064 7.00078 53.4353C6.79136 53.3721 6.59676 53.2675 6.42851 53.1277C6.26567 52.9898 6.13711 52.8159 6.05297 52.6198C5.9589 52.3934 5.9138 52.1496 5.92063 51.9045C5.91275 51.6405 5.97051 51.3788 6.08874 51.1426C6.20865 50.9237 6.38373 50.74 6.59662 50.6097C6.85411 50.4562 7.13792 50.3519 7.43355 50.3021C7.81659 50.2288 8.206 50.1941 8.59597 50.1984H9.07882V49.8944C9.08154 49.7558 9.0659 49.6175 9.03232 49.4831C9.00648 49.3732 8.9522 49.2721 8.87494 49.1898C8.79743 49.1045 8.69677 49.0436 8.58524 49.0145C8.44017 48.9719 8.28927 48.9526 8.13815 48.9573C7.92685 48.9538 7.71611 48.9803 7.51224 49.036C7.3463 49.0833 7.18379 49.1418 7.02582 49.2112C6.9034 49.2629 6.78399 49.3214 6.66815 49.3865C6.59726 49.4286 6.51781 49.4543 6.43567 49.4616C6.41606 49.4626 6.39646 49.4596 6.37803 49.4528C6.3596 49.4461 6.34271 49.4357 6.32837 49.4223C6.29198 49.3937 6.26465 49.3552 6.24968 49.3114C6.22646 49.2526 6.20967 49.1914 6.19961 49.129C6.19372 49.0516 6.19372 48.9739 6.19961 48.8965C6.19567 48.8038 6.2053 48.711 6.22822 48.6211C6.24703 48.5526 6.28269 48.4899 6.33195 48.4387C6.41353 48.3654 6.50504 48.304 6.60378 48.2563C6.752 48.185 6.90497 48.1241 7.06159 48.0739C7.24806 48.0165 7.43801 47.9711 7.63027 47.9379C7.84057 47.9019 8.05356 47.8839 8.26692 47.8843C8.60339 47.8777 8.93917 47.9174 9.26481 48.0023C9.5175 48.0661 9.75154 48.1887 9.94794 48.36C10.1309 48.5248 10.2657 48.7362 10.3378 48.9716C10.4246 49.2615 10.4657 49.5632 10.4594 49.8658L10.4558 53.235ZM9.0824 51.089H8.54948C8.3551 51.0847 8.16081 51.1014 7.97005 51.1391C7.83125 51.1642 7.69878 51.2165 7.5802 51.2929C7.4878 51.3523 7.41259 51.4349 7.36203 51.5325C7.31234 51.6349 7.28781 51.7477 7.29049 51.8615C7.28621 51.9536 7.30154 52.0455 7.33545 52.1312C7.36936 52.2169 7.42109 52.2945 7.48721 52.3587C7.64192 52.4852 7.83849 52.549 8.03801 52.5375C8.22913 52.5396 8.41675 52.4862 8.57809 52.3837C8.7669 52.2627 8.93683 52.1144 9.0824 51.9438V51.089Z" fill="white"/>
<path d="M15.3942 48.6747C15.3942 48.8106 15.3942 48.9179 15.3942 49.0074C15.389 49.0751 15.377 49.1422 15.3584 49.2076C15.3512 49.2465 15.331 49.2818 15.3012 49.3078C15.275 49.3288 15.2417 49.339 15.2082 49.3364C15.1752 49.3368 15.1424 49.3307 15.1117 49.3185L14.9865 49.2756L14.8327 49.2327C14.772 49.2271 14.7109 49.2271 14.6503 49.2327C14.5693 49.2325 14.4891 49.2483 14.4142 49.2792C14.3265 49.3176 14.2446 49.3682 14.171 49.4294C14.0761 49.5108 13.9887 49.6006 13.9099 49.6976C13.8205 49.8121 13.7239 49.948 13.6166 50.1126V53.2314C13.6184 53.2494 13.6164 53.2676 13.6109 53.2848C13.6054 53.302 13.5964 53.3179 13.5844 53.3315C13.5548 53.3669 13.5147 53.3919 13.47 53.4031C13.4012 53.4244 13.3306 53.4388 13.2589 53.446C13.1695 53.446 13.0551 53.446 12.9192 53.446C12.7833 53.446 12.6688 53.446 12.5794 53.446C12.5066 53.4387 12.4348 53.4243 12.3648 53.4031C12.3209 53.39 12.2813 53.3653 12.2503 53.3315C12.2276 53.3033 12.2161 53.2676 12.2181 53.2314V48.2276C12.2157 48.1931 12.2258 48.1587 12.2468 48.1311C12.2702 48.0957 12.3058 48.0702 12.3469 48.0596C12.4061 48.0349 12.4689 48.0204 12.5329 48.0166C12.6282 48.0102 12.7237 48.0102 12.819 48.0166C12.9167 48.0102 13.0146 48.0102 13.1123 48.0166C13.1752 48.0199 13.237 48.0344 13.2947 48.0596C13.3302 48.0706 13.361 48.0931 13.3824 48.1235C13.4037 48.1539 13.4144 48.1905 13.4127 48.2276V48.85C13.5226 48.688 13.642 48.5328 13.7704 48.385C13.8716 48.2792 13.9817 48.1822 14.0995 48.0953C14.1946 48.03 14.2997 47.9805 14.4106 47.9487C14.5119 47.9204 14.6166 47.9059 14.7218 47.9057H14.8756C14.9344 47.9108 14.993 47.9192 15.0509 47.9308L15.2047 47.9773C15.2392 47.9904 15.2718 48.0085 15.3012 48.0309C15.3217 48.0483 15.3377 48.0704 15.3477 48.0953C15.3477 48.1168 15.3477 48.1454 15.3728 48.1847C15.3762 48.2443 15.3762 48.304 15.3728 48.3636C15.3906 48.4315 15.3942 48.5388 15.3942 48.6747Z" fill="white"/>
<path d="M20.5873 50.5668C20.5979 50.703 20.557 50.8382 20.4729 50.9459C20.4332 50.988 20.3848 51.021 20.331 51.0426C20.2773 51.0642 20.2196 51.0739 20.1617 51.0711H17.1394C17.1372 51.268 17.1625 51.4642 17.2146 51.6541C17.2567 51.8189 17.3392 51.9707 17.4548 52.0956C17.5703 52.2205 17.7152 52.3146 17.8762 52.3694C18.0752 52.4377 18.2847 52.4704 18.495 52.466C18.712 52.4685 18.9288 52.4505 19.1424 52.4123C19.3054 52.3818 19.4665 52.3424 19.6252 52.2943C19.7576 52.2514 19.872 52.212 19.9579 52.1763C20.0267 52.1451 20.1006 52.127 20.176 52.1226C20.205 52.121 20.2338 52.1285 20.2583 52.1441C20.2853 52.1587 20.3057 52.183 20.3155 52.212C20.3324 52.2581 20.3432 52.3062 20.3477 52.3551C20.3477 52.4195 20.3477 52.4946 20.3477 52.5912C20.3477 52.6877 20.3477 52.7414 20.3477 52.7986C20.3477 52.8558 20.3477 52.9059 20.3477 52.9488C20.3407 52.9849 20.3286 53.0198 20.3119 53.0525C20.2974 53.0829 20.2781 53.1107 20.2547 53.1348C20.1948 53.1801 20.1285 53.2163 20.058 53.2421C19.9507 53.285 19.8112 53.328 19.6467 53.3745C19.4568 53.4212 19.2646 53.4582 19.0708 53.4853C18.8434 53.5178 18.6139 53.5333 18.3841 53.5318C17.9913 53.5388 17.5999 53.482 17.2253 53.3637C16.9101 53.2634 16.6241 53.0878 16.3919 52.8523C16.1593 52.6091 15.9888 52.3134 15.8948 51.9903C15.7778 51.5921 15.7223 51.1784 15.7302 50.7635C15.725 50.3564 15.7829 49.951 15.9019 49.5617C16.0036 49.2273 16.1742 48.9178 16.4027 48.6533C16.6205 48.4041 16.8936 48.2093 17.2002 48.0846C17.5406 47.9456 17.9057 47.8774 18.2732 47.8843C18.6397 47.8749 19.0043 47.9381 19.3462 48.0703C19.6218 48.1835 19.8668 48.3599 20.0616 48.5853C20.2547 48.8113 20.3974 49.0759 20.48 49.3614C20.5712 49.6788 20.6158 50.0077 20.6124 50.3379L20.5873 50.5668ZM19.2318 50.1626C19.2607 49.8337 19.1775 49.5047 18.9957 49.2291C18.9047 49.1096 18.7856 49.0144 18.6489 48.952C18.5123 48.8896 18.3624 48.8619 18.2124 48.8714C18.0514 48.8681 17.8919 48.9037 17.7475 48.9752C17.6201 49.0403 17.5088 49.1332 17.422 49.247C17.3308 49.3681 17.2628 49.5052 17.2217 49.6511C17.1735 49.8127 17.1459 49.9798 17.1394 50.1483L19.2318 50.1626Z" fill="white"/>
<path d="M26.5499 50.5668C26.5604 50.703 26.5196 50.8382 26.4354 50.9459C26.395 50.9881 26.346 51.0211 26.2917 51.0427C26.2374 51.0643 26.1791 51.074 26.1207 51.0711H23.102C23.0998 51.268 23.1251 51.4642 23.1771 51.6541C23.2206 51.8189 23.3028 51.9709 23.4167 52.0976C23.5328 52.2225 23.6777 52.317 23.8388 52.373C24.0378 52.4413 24.2472 52.474 24.4576 52.4696C24.6746 52.4721 24.8913 52.4541 25.1049 52.4159C25.2667 52.3854 25.4267 52.346 25.5842 52.2979C25.7201 52.255 25.831 52.2156 25.9204 52.1798C25.9892 52.1487 26.0632 52.1306 26.1386 52.1262C26.1675 52.1251 26.1961 52.1326 26.2208 52.1477C26.2459 52.1477 26.2602 52.1834 26.2781 52.2156C26.2952 52.2615 26.3049 52.3098 26.3067 52.3587C26.311 52.4373 26.311 52.5161 26.3067 52.5948C26.3067 52.677 26.3067 52.745 26.3067 52.8022C26.3067 52.8594 26.3067 52.9095 26.3067 52.9524C26.2981 52.988 26.2861 53.0228 26.2709 53.0561C26.2564 53.0865 26.2371 53.1142 26.2137 53.1384C26.1538 53.1837 26.0875 53.2199 26.017 53.2457C25.9097 53.2886 25.7702 53.3315 25.6057 53.378C25.4411 53.4245 25.248 53.4567 25.0298 53.4889C24.8024 53.5214 24.5728 53.5369 24.3431 53.5354C23.9491 53.5421 23.5566 53.4853 23.1807 53.3673C22.867 53.266 22.5823 53.0906 22.3509 52.8558C22.1183 52.6127 21.9477 52.317 21.8538 51.9939C21.7367 51.5957 21.6813 51.182 21.6892 50.7671C21.6839 50.36 21.7419 49.9546 21.8609 49.5653C21.9626 49.2309 22.1331 48.9214 22.3616 48.6569C22.5795 48.4076 22.8526 48.2129 23.1592 48.0882C23.4995 47.949 23.8647 47.8809 24.2322 47.8879C24.5986 47.8787 24.9633 47.9419 25.3052 48.0739C25.5808 48.1871 25.8258 48.3635 26.0206 48.5889C26.2137 48.8149 26.3564 49.0795 26.439 49.365C26.5302 49.6824 26.5748 50.0113 26.5714 50.3414L26.5499 50.5668ZM25.1943 50.1626C25.2216 49.8339 25.1385 49.5054 24.9583 49.2291C24.8671 49.1098 24.7479 49.0148 24.6113 48.9525C24.4747 48.8901 24.3249 48.8623 24.175 48.8714C24.0139 48.8681 23.8544 48.9037 23.71 48.9752C23.582 49.0394 23.4706 49.1324 23.3846 49.247C23.2921 49.3679 23.223 49.5049 23.1807 49.6512C23.1354 49.8133 23.109 49.9801 23.102 50.1483L25.1943 50.1626Z" fill="white"/>
<path d="M31.1181 48.6747C31.1246 48.7855 31.1246 48.8966 31.1181 49.0074C31.1137 49.075 31.103 49.142 31.0859 49.2076C31.0787 49.2465 31.0585 49.2818 31.0287 49.3078C31.0025 49.3288 30.9692 49.339 30.9357 49.3364C30.9015 49.3365 30.8676 49.3305 30.8356 49.3185L30.7104 49.2756L30.5602 49.2327C30.4983 49.2269 30.436 49.2269 30.3742 49.2327C30.2944 49.2326 30.2153 49.2484 30.1417 49.2792C30.054 49.3176 29.9721 49.3682 29.8985 49.4294C29.8036 49.5108 29.7162 49.6006 29.6374 49.6976C29.548 49.8121 29.4514 49.948 29.3441 50.1126V53.2314C29.3461 53.2676 29.3346 53.3033 29.3119 53.3315C29.2817 53.3662 29.2418 53.3911 29.1975 53.4031C29.1275 53.4243 29.0556 53.4387 28.9828 53.446C28.897 53.446 28.7826 53.446 28.6466 53.446C28.5107 53.446 28.3963 53.446 28.3069 53.446C28.2341 53.4387 28.1622 53.4243 28.0923 53.4031C28.0479 53.3911 28.008 53.3662 27.9778 53.3315C27.9551 53.3033 27.9436 53.2676 27.9456 53.2314V48.2276C27.9435 48.1936 27.9523 48.1598 27.9707 48.1311C27.9963 48.0963 28.0328 48.0711 28.0744 48.0596C28.1335 48.0349 28.1964 48.0204 28.2604 48.0166C28.3544 48.0102 28.4488 48.0102 28.5429 48.0166C28.6418 48.0102 28.7409 48.0102 28.8398 48.0166C28.9027 48.0199 28.9645 48.0344 29.0222 48.0596C29.0589 48.0732 29.0902 48.0982 29.1116 48.1311C29.131 48.1595 29.141 48.1933 29.1402 48.2276V48.85C29.249 48.6872 29.3685 48.5319 29.4979 48.385C29.5979 48.2793 29.7068 48.1824 29.8234 48.0953C29.9192 48.0313 30.0241 47.9818 30.1345 47.9487C30.2359 47.9206 30.3405 47.9062 30.4457 47.9057H30.6031C30.6608 47.9106 30.7181 47.919 30.7748 47.9308C30.8356 47.9308 30.8856 47.963 30.9321 47.9773C30.9667 47.9904 30.9993 48.0085 31.0287 48.0309C31.0493 48.0475 31.0643 48.07 31.0716 48.0953C31.0838 48.1239 31.0922 48.154 31.0967 48.1847C31.1005 48.2443 31.1005 48.304 31.0967 48.3636C31.1145 48.4315 31.1181 48.5388 31.1181 48.6747Z" fill="white"/>
<path d="M35.9928 53.2064C35.9935 53.243 35.9807 53.2786 35.957 53.3065C35.9247 53.3422 35.8823 53.3672 35.8354 53.378C35.7633 53.401 35.689 53.4166 35.6137 53.4245C35.4949 53.4373 35.3755 53.4432 35.256 53.4424C35.1365 53.4433 35.0171 53.4374 34.8983 53.4245C34.8207 53.4164 34.744 53.4009 34.6694 53.378C34.6238 53.3665 34.5827 53.3416 34.5514 53.3065C34.5292 53.2778 34.5166 53.2427 34.5156 53.2064V46.3463C34.5166 46.3089 34.5291 46.2727 34.5514 46.2426C34.5864 46.2086 34.6295 46.184 34.6766 46.1711C34.7505 46.1503 34.8258 46.1347 34.9019 46.1246C34.9913 46.1246 35.1093 46.1246 35.2596 46.1246C35.4098 46.1246 35.5242 46.1246 35.6172 46.1246C35.6922 46.1343 35.7664 46.1498 35.839 46.1711C35.8847 46.1847 35.9265 46.2092 35.9606 46.2426C35.9843 46.2719 35.9969 46.3086 35.9963 46.3463L35.9928 53.2064Z" fill="white"/>
<path d="M42.4308 53.2135C42.4328 53.2497 42.4213 53.2854 42.3986 53.3136C42.369 53.3474 42.3306 53.3722 42.2877 53.3852C42.2177 53.4064 42.1459 53.4208 42.0731 53.4281C41.9837 53.4281 41.8692 53.4281 41.7369 53.4281C41.6046 53.4281 41.4865 53.4281 41.3792 53.4281C41.3065 53.4208 41.2346 53.4064 41.1646 53.3852C41.1221 53.3714 41.0839 53.3467 41.0538 53.3136C41.031 53.2854 41.0196 53.2497 41.0216 53.2135V50.3522C41.0265 50.1588 41.0084 49.9655 40.9679 49.7763C40.9375 49.6492 40.8855 49.5282 40.8141 49.4187C40.749 49.3218 40.6604 49.2431 40.5566 49.1898C40.4453 49.1353 40.3229 49.1071 40.1989 49.1075C40.0023 49.1126 39.8127 49.1817 39.6589 49.3042C39.4441 49.4681 39.2527 49.6607 39.0902 49.8765V53.2028C39.0922 53.239 39.0807 53.2747 39.058 53.3029C39.0277 53.3376 38.9879 53.3625 38.9435 53.3745C38.8736 53.3957 38.8017 53.4101 38.7289 53.4174C38.6395 53.4174 38.5251 53.4174 38.3891 53.4174C38.2532 53.4174 38.1388 53.4174 38.0315 53.4174C37.9588 53.4097 37.8869 53.3953 37.8169 53.3745C37.7735 53.3624 37.7349 53.3375 37.706 53.3029C37.6934 53.2896 37.6838 53.2738 37.6776 53.2566C37.6715 53.2394 37.669 53.221 37.6703 53.2028V48.2276C37.6695 48.1932 37.6794 48.1595 37.6988 48.1311C37.7229 48.0963 37.7583 48.0711 37.799 48.0595C37.8583 48.0353 37.9211 48.0208 37.985 48.0166C38.0802 48.0102 38.1759 48.0102 38.2711 48.0166C38.37 48.0102 38.4691 48.0102 38.568 48.0166C38.6297 48.0197 38.6904 48.0343 38.7468 48.0595C38.7845 48.0732 38.817 48.0982 38.8398 48.1311C38.8592 48.1595 38.8692 48.1932 38.8684 48.2276V48.8071C39.1063 48.5352 39.3895 48.3065 39.7054 48.1311C39.9778 47.9835 40.2826 47.9061 40.5924 47.9057C40.8851 47.8972 41.1761 47.9547 41.4436 48.0738C41.6654 48.18 41.858 48.3383 42.0052 48.5352C42.1551 48.7362 42.2612 48.9666 42.3163 49.2112C42.3829 49.5166 42.4141 49.8286 42.4093 50.1411L42.4308 53.2135Z" fill="white"/>
<path d="M47.1622 51.8043C47.1673 52.0649 47.1122 52.3231 47.0012 52.559C46.8977 52.7733 46.7444 52.9597 46.5542 53.1026C46.3492 53.2544 46.1174 53.366 45.871 53.4317C45.5921 53.505 45.3046 53.541 45.0162 53.539C44.8378 53.539 44.6597 53.5259 44.4833 53.4996C44.3299 53.4726 44.1783 53.4368 44.029 53.3923C43.9153 53.3557 43.8042 53.3115 43.6964 53.26C43.6267 53.2252 43.5607 53.1833 43.4997 53.1348C43.4526 53.0809 43.4205 53.0155 43.4067 52.9453C43.3824 52.8277 43.3715 52.7077 43.3745 52.5876C43.37 52.5006 43.37 52.4135 43.3745 52.3265C43.3793 52.273 43.3901 52.2202 43.4067 52.1691C43.4106 52.1534 43.4176 52.1385 43.4275 52.1256C43.4373 52.1127 43.4497 52.1019 43.4639 52.094C43.4886 52.0789 43.5173 52.0714 43.5462 52.0726C43.611 52.0805 43.6726 52.1051 43.725 52.1441C43.8073 52.1906 43.9074 52.2407 44.0219 52.2979C44.1582 52.3584 44.2979 52.4109 44.4404 52.4553C44.6148 52.5049 44.7955 52.529 44.9769 52.5268C45.0902 52.5293 45.2034 52.5161 45.3131 52.4874C45.4031 52.4644 45.4888 52.4269 45.567 52.3766C45.6371 52.33 45.6938 52.2659 45.7315 52.1906C45.7718 52.1096 45.7914 52.0199 45.7887 51.9295C45.7899 51.8236 45.7531 51.7209 45.685 51.6398C45.6074 51.5551 45.5153 51.4849 45.4132 51.4323C45.2891 51.3687 45.1613 51.3126 45.0305 51.2642C44.8839 51.2142 44.7408 51.1534 44.5906 51.089C44.4398 51.0249 44.2929 50.9521 44.1506 50.8708C44.009 50.7901 43.88 50.6888 43.7679 50.5704C43.6491 50.4439 43.5556 50.2958 43.4925 50.134C43.3425 49.7241 43.3553 49.2722 43.5283 48.8714C43.6218 48.6721 43.7586 48.4961 43.9289 48.3564C44.1196 48.2064 44.3367 48.0935 44.5691 48.0238C44.8419 47.9433 45.1252 47.9035 45.4096 47.9057C45.5606 47.9048 45.7114 47.9168 45.8603 47.9415C45.9954 47.9606 46.1292 47.988 46.2609 48.0238C46.3636 48.0532 46.4641 48.0903 46.5613 48.1347C46.6231 48.1618 46.6818 48.1954 46.7366 48.2348C46.7675 48.2577 46.7931 48.287 46.8117 48.3206C46.8277 48.3521 46.8386 48.3859 46.8439 48.4208C46.8439 48.4601 46.8439 48.5102 46.8653 48.5674C46.8868 48.6247 46.8653 48.6962 46.8653 48.782C46.8653 48.8679 46.8653 48.9644 46.8653 49.0288C46.8614 49.081 46.8518 49.1325 46.8367 49.1826C46.8267 49.2124 46.8081 49.2386 46.7831 49.2577C46.7572 49.2638 46.7302 49.2638 46.7044 49.2577C46.6494 49.2508 46.5967 49.2312 46.5506 49.2005C46.4647 49.154 46.3763 49.1122 46.2859 49.0753C46.1696 49.0247 46.0501 48.9817 45.9282 48.9466C45.7732 48.9045 45.6131 48.8841 45.4525 48.8858C45.3426 48.8853 45.2331 48.8997 45.1271 48.9287C45.0439 48.9495 44.966 48.9872 44.8982 49.0396C44.8401 49.0854 44.7936 49.1442 44.7622 49.2112C44.7333 49.2778 44.7187 49.3497 44.7193 49.4223C44.7157 49.5292 44.7542 49.6332 44.8266 49.712C44.903 49.7996 44.9968 49.8702 45.102 49.9194C45.2284 49.987 45.36 50.0444 45.4955 50.0911C45.6421 50.1412 45.7888 50.1984 45.939 50.2628C46.093 50.3233 46.2425 50.395 46.3861 50.4774C46.5309 50.5581 46.6623 50.6606 46.7759 50.7814C46.897 50.9041 46.9919 51.0501 47.0549 51.2106C47.1308 51.3991 47.1673 51.6012 47.1622 51.8043Z" fill="white"/>
<path d="M52.8631 48.0202C52.9213 48.0134 52.9804 48.0188 53.0364 48.036C53.0924 48.0532 53.1443 48.082 53.1886 48.1203C53.2539 48.2022 53.2858 48.3057 53.278 48.4101V53.2135C53.28 53.2497 53.2686 53.2854 53.2458 53.3136C53.2163 53.3474 53.1779 53.3722 53.1349 53.3852C53.0651 53.4068 52.9931 53.4211 52.9203 53.4281C52.8309 53.4281 52.7165 53.4281 52.5841 53.4281C52.4518 53.4281 52.3338 53.4281 52.2444 53.4281C52.1715 53.4216 52.0995 53.4072 52.0297 53.3852C51.9858 53.3721 51.9463 53.3474 51.9153 53.3136C51.8925 53.2854 51.8811 53.2497 51.8831 53.2135V49.1647H49.6548V51.5146C49.6417 51.7271 49.6849 51.9393 49.78 52.1298C49.8317 52.201 49.9012 52.2573 49.9816 52.2931C50.062 52.3289 50.1503 52.3429 50.2378 52.3336C50.3051 52.3354 50.3723 52.3295 50.4381 52.3158C50.4915 52.3034 50.544 52.2879 50.5955 52.2693L50.7135 52.2263C50.7404 52.2133 50.7696 52.206 50.7994 52.2049C50.8225 52.2054 50.845 52.2128 50.8638 52.2263C50.8884 52.246 50.9049 52.274 50.9103 52.305C50.9238 52.3581 50.9345 52.4118 50.9425 52.466C50.9469 52.5506 50.9469 52.6353 50.9425 52.7199C50.9469 52.8458 50.9373 52.9717 50.9138 53.0955C50.9053 53.1629 50.8794 53.227 50.8387 53.2815C50.7974 53.3265 50.7459 53.3608 50.6885 53.3816C50.6137 53.4133 50.5358 53.4373 50.456 53.4531C50.3632 53.4765 50.2687 53.4933 50.1735 53.5032C50.071 53.5087 49.9683 53.5087 49.8659 53.5032C49.6231 53.5075 49.3814 53.4712 49.1505 53.3959C48.9562 53.3308 48.7815 53.2176 48.6427 53.0669C48.5105 52.9077 48.4163 52.7206 48.3673 52.5196C48.2984 52.2595 48.2659 51.9911 48.2707 51.722V49.1576H47.6519C47.5804 49.1576 47.5267 49.1111 47.491 49.0252C47.4442 48.8823 47.4248 48.7318 47.4338 48.5817C47.4338 48.4744 47.4338 48.385 47.4338 48.3099C47.4409 48.2488 47.4553 48.1887 47.4767 48.1311C47.4893 48.0939 47.513 48.0614 47.5446 48.0381C47.5749 48.0203 47.6097 48.0116 47.6448 48.0131H48.2313V46.8936C48.2311 46.8576 48.2424 46.8225 48.2635 46.7934C48.2901 46.7557 48.3295 46.729 48.3744 46.7183C48.4449 46.6936 48.5182 46.6779 48.5926 46.6718C48.7046 46.6654 48.8168 46.6654 48.9288 46.6718C49.0479 46.6647 49.1673 46.6647 49.2865 46.6718C49.3597 46.6779 49.4318 46.6935 49.501 46.7183C49.5454 46.7301 49.5845 46.7566 49.6119 46.7934C49.6341 46.8222 49.6467 46.8572 49.6477 46.8936V48.0131L52.8631 48.0202ZM53.3746 46.5109C53.3865 46.6162 53.3775 46.723 53.348 46.8249C53.3185 46.9268 53.2692 47.0218 53.2029 47.1046C53.0064 47.2092 52.7871 47.2639 52.5645 47.2639C52.3418 47.2639 52.1226 47.2092 51.926 47.1046C51.8007 46.9444 51.743 46.7416 51.7651 46.5395C51.7408 46.3272 51.8012 46.1138 51.9332 45.9457C52.1205 45.8141 52.3495 45.7556 52.577 45.7812C52.8001 45.7552 53.0251 45.8111 53.21 45.9386C53.2738 46.0184 53.3211 46.1101 53.3494 46.2083C53.3776 46.3065 53.3862 46.4093 53.3746 46.5109Z" fill="white"/>
<path d="M57.5456 52.7199C57.5492 52.8471 57.5384 52.9743 57.5134 53.099C57.5013 53.1672 57.4744 53.2319 57.4347 53.2886C57.3898 53.3272 57.3391 53.3586 57.2845 53.3816C57.2122 53.4134 57.1366 53.4374 57.0592 53.4531C56.9651 53.4763 56.8695 53.493 56.7731 53.5032C56.6706 53.5086 56.5679 53.5086 56.4655 53.5032C56.2227 53.5075 55.981 53.4712 55.7501 53.3959C55.5569 53.3307 55.3834 53.2175 55.2458 53.0669C55.1047 52.9066 55.0031 52.7155 54.949 52.5089C54.8801 52.2488 54.8476 51.9803 54.8524 51.7113V49.1468H54.2587C54.2215 49.1439 54.1862 49.1296 54.1574 49.1059C54.1287 49.0823 54.1078 49.0504 54.0977 49.0145C54.0528 48.8712 54.0334 48.7211 54.0405 48.571C54.0405 48.4637 54.0405 48.3743 54.0405 48.2992C54.0476 48.2381 54.062 48.178 54.0834 48.1203C54.0973 48.0838 54.1208 48.0517 54.1514 48.0273C54.1805 48.01 54.214 48.0013 54.2479 48.0023H54.8381V46.8828C54.8395 46.8471 54.8507 46.8125 54.8703 46.7827C54.8977 46.7459 54.9368 46.7194 54.9812 46.7076C55.0516 46.6828 55.1249 46.6672 55.1993 46.6611C55.3113 46.6547 55.4235 46.6547 55.5355 46.6611C55.6547 46.6542 55.7741 46.6542 55.8932 46.6611C55.9653 46.6671 56.0363 46.6827 56.1042 46.7076C56.1491 46.7203 56.1891 46.7466 56.2187 46.7827C56.2398 46.8118 56.2511 46.8468 56.2509 46.8828V48.0023H57.3239C57.3578 48.0013 57.3913 48.01 57.4204 48.0273C57.451 48.0517 57.4745 48.0838 57.4884 48.1203C57.5098 48.178 57.5242 48.2381 57.5313 48.2992C57.5313 48.3743 57.5313 48.4637 57.5313 48.571C57.5384 48.7211 57.519 48.8712 57.4741 49.0145C57.4383 49.1003 57.3847 49.1468 57.3131 49.1468H56.2401V51.4967C56.2242 51.7098 56.2689 51.9231 56.3689 52.1119C56.4197 52.1831 56.4886 52.2395 56.5684 52.2753C56.6482 52.3111 56.7361 52.3251 56.8231 52.3158C56.8904 52.3177 56.9576 52.3117 57.0234 52.2979C57.0769 52.286 57.1295 52.2705 57.1808 52.2514L57.2988 52.2085C57.3256 52.1954 57.3549 52.1881 57.3847 52.187C57.4078 52.1875 57.4303 52.195 57.4491 52.2085C57.4725 52.2291 57.4888 52.2566 57.4956 52.2871C57.5091 52.3402 57.5198 52.3939 57.5277 52.4481C57.5391 52.5383 57.5451 52.629 57.5456 52.7199Z" fill="white"/>
<path d="M63.6466 53.2135C63.649 53.2487 63.6402 53.2837 63.6216 53.3137C63.5973 53.3482 63.562 53.3734 63.5214 53.3852C63.4624 53.4061 63.4012 53.4205 63.339 53.4281C63.2639 53.4281 63.1673 53.4281 63.0529 53.4281C62.9384 53.4281 62.8311 53.4281 62.756 53.4281C62.6938 53.4205 62.6327 53.4061 62.5736 53.3852C62.5361 53.3714 62.5036 53.3464 62.4806 53.3137C62.4607 53.2841 62.4507 53.2491 62.452 53.2135V52.6377C62.2133 52.9088 61.9303 53.1373 61.6151 53.3137C61.3442 53.458 61.0422 53.5341 60.7352 53.5354C60.439 53.5442 60.1445 53.4868 59.8732 53.3673C59.6516 53.2627 59.4588 53.1055 59.3117 52.9095C59.1664 52.7066 59.0631 52.4768 59.0077 52.2335C58.9403 51.9186 58.9091 51.597 58.9147 51.275V48.2277C58.9132 48.1926 58.9247 48.1582 58.9469 48.1311C58.9741 48.0947 59.0134 48.0694 59.0578 48.0596C59.1268 48.0349 59.1991 48.0204 59.2724 48.0166C59.3843 48.0104 59.4966 48.0104 59.6086 48.0166C59.7277 48.0094 59.8471 48.0094 59.9662 48.0166C60.0395 48.0204 60.1118 48.0349 60.1808 48.0596C60.2258 48.0702 60.266 48.0954 60.2953 48.1311C60.3175 48.1582 60.3289 48.1926 60.3275 48.2277V51.0568C60.3226 51.2583 60.3394 51.4598 60.3776 51.6577C60.4073 51.7851 60.4593 51.9062 60.5313 52.0153C60.5978 52.1132 60.6875 52.1931 60.7924 52.2478C60.9039 52.3021 61.0262 52.3302 61.1501 52.3301C61.3457 52.3221 61.5337 52.252 61.6866 52.1298C61.9022 51.9658 62.0957 51.7746 62.2624 51.5611V48.2277C62.2616 48.1933 62.2717 48.1595 62.2911 48.1311C62.3196 48.0945 62.3601 48.0692 62.4055 48.0596C62.4733 48.0347 62.5444 48.0202 62.6165 48.0166C62.8427 47.9975 63.07 47.9975 63.2961 48.0166C63.3682 48.0202 63.4394 48.0347 63.5071 48.0596C63.5507 48.0712 63.5895 48.0962 63.618 48.1311C63.6402 48.1582 63.6517 48.1926 63.6502 48.2277L63.6466 53.2135Z" fill="white"/>
<path d="M67.8571 52.7199C67.8607 52.8471 67.8499 52.9743 67.825 53.0991C67.8128 53.1672 67.786 53.2319 67.7463 53.2886C67.7013 53.3272 67.6506 53.3586 67.596 53.3816C67.5237 53.4134 67.4481 53.4374 67.3707 53.4531C67.2766 53.4763 67.181 53.493 67.0846 53.5032C66.9821 53.5087 66.8794 53.5087 66.777 53.5032C66.5342 53.5075 66.2925 53.4712 66.0616 53.3959C65.8684 53.3307 65.6949 53.2175 65.5573 53.0669C65.4163 52.9066 65.3146 52.7155 65.2605 52.5089C65.193 52.2486 65.1617 51.9802 65.1675 51.7113V49.1469H64.5702C64.5331 49.1439 64.4977 49.1296 64.469 49.1059C64.4402 49.0823 64.4193 49.0504 64.4092 49.0145C64.3643 48.8712 64.3449 48.7211 64.352 48.571C64.352 48.4637 64.352 48.3743 64.352 48.2992C64.3591 48.2381 64.3735 48.178 64.3949 48.1204C64.4088 48.0838 64.4323 48.0517 64.4629 48.0274C64.4932 48.0095 64.5279 48.0008 64.563 48.0023H65.1782V46.8828C65.1718 46.8546 65.1718 46.8252 65.1782 46.797C65.2057 46.7602 65.2447 46.7337 65.2891 46.7219C65.3595 46.6971 65.4329 46.6815 65.5073 46.6754C65.6192 46.669 65.7315 46.669 65.8435 46.6754C65.9626 46.6685 66.082 46.6685 66.2011 46.6754C66.2732 46.6814 66.3442 46.697 66.4122 46.7219C66.4571 46.7346 66.497 46.7609 66.5266 46.797C66.5478 46.8261 66.5591 46.8612 66.5588 46.8971V48.0166H67.6318C67.6657 48.0156 67.6992 48.0243 67.7284 48.0417C67.76 48.065 67.7837 48.0975 67.7963 48.1347C67.8177 48.1923 67.8322 48.2524 67.8393 48.3135C67.8393 48.3886 67.8393 48.478 67.8393 48.5853C67.8482 48.7354 67.8288 48.8859 67.782 49.0288C67.7463 49.1147 67.6926 49.1611 67.6211 49.1611H66.5481V51.511C66.5341 51.724 66.5786 51.9367 66.6768 52.1262C66.7277 52.1974 66.7966 52.2538 66.8764 52.2896C66.9562 52.3254 67.0441 52.3394 67.1311 52.3301C67.1983 52.332 67.2656 52.326 67.3314 52.3122C67.3848 52.3003 67.4374 52.2848 67.4887 52.2657C67.5291 52.2543 67.5685 52.24 67.6068 52.2228C67.6336 52.2097 67.6628 52.2024 67.6926 52.2013C67.7158 52.2018 67.7382 52.2093 67.757 52.2228C67.7816 52.2424 67.7981 52.2704 67.8035 52.3015C67.817 52.3545 67.8278 52.4082 67.8357 52.4624C67.8477 52.5478 67.8549 52.6338 67.8571 52.7199Z" fill="white"/>
<path d="M73.3146 50.5668C73.3251 50.703 73.2843 50.8382 73.2001 50.9459C73.1597 50.9881 73.1107 51.0211 73.0564 51.0427C73.0021 51.0643 72.9437 51.074 72.8854 51.0711H69.8667C69.8644 51.268 69.8897 51.4642 69.9418 51.6541C69.9853 51.8189 70.0674 51.9709 70.1814 52.0976C70.2975 52.2225 70.4424 52.317 70.6034 52.373C70.8024 52.4413 71.0119 52.474 71.2222 52.4696C71.4392 52.4721 71.656 52.4541 71.8696 52.4159C72.0314 52.3854 72.1914 52.346 72.3489 52.2979C72.4848 52.255 72.5957 52.2156 72.6851 52.1799C72.7539 52.1487 72.8278 52.1306 72.9032 52.1262C72.9322 52.1251 72.9608 52.1326 72.9855 52.1477C73.0106 52.1645 73.0304 52.1881 73.0427 52.2156C73.0599 52.2615 73.0695 52.3098 73.0714 52.3587C73.0755 52.4373 73.0755 52.5161 73.0714 52.5948C73.0714 52.677 73.0714 52.745 73.0714 52.8022C73.0714 52.8594 73.0714 52.9095 73.0714 52.9524C73.0627 52.988 73.0507 53.0228 73.0356 53.0561C73.0198 53.0857 73.0006 53.1133 72.9784 53.1384C72.9185 53.1837 72.8522 53.2199 72.7816 53.2457C72.6708 53.2886 72.5348 53.3315 72.3703 53.378C72.2058 53.4245 72.0127 53.4567 71.7945 53.4889C71.5659 53.5215 71.3351 53.5371 71.1042 53.5354C70.7114 53.5419 70.3201 53.4851 69.9454 53.3673C69.6269 53.2678 69.3384 53.0899 69.1066 52.85C68.8747 52.61 68.7069 52.3156 68.6184 51.9939C68.5014 51.5957 68.4459 51.182 68.4539 50.7671C68.4486 50.36 68.5065 49.9546 68.6256 49.5653C68.7272 49.2309 68.8978 48.9214 69.1263 48.6569C69.3434 48.4069 69.6168 48.2119 69.9239 48.0882C70.2641 47.9487 70.6293 47.8805 70.9969 47.8879C71.3633 47.8791 71.7278 47.9422 72.0699 48.0739C72.3454 48.1871 72.5905 48.3635 72.7852 48.5889C72.9784 48.8149 73.121 49.0795 73.2037 49.365C73.2931 49.6827 73.3376 50.0114 73.336 50.3414L73.3146 50.5668ZM71.9554 50.1626C71.987 49.8335 71.9035 49.5037 71.7194 49.2291C71.6291 49.1096 71.5107 49.0144 71.3746 48.952C71.2385 48.8896 71.0891 48.8619 70.9397 48.8714C70.7786 48.8681 70.6191 48.9037 70.4747 48.9752C70.3456 49.0394 70.2331 49.1324 70.1456 49.247C70.0558 49.369 69.988 49.5058 69.9454 49.6512C69.8984 49.8129 69.8719 49.9799 69.8667 50.1483L71.9554 50.1626Z" fill="white"/>
<path d="M74.0946 47.3871V45.4343H73.4043V45.0373H75.2534V45.4343H74.5667V47.3871H74.0946Z" fill="white"/>
<path d="M75.7285 47.3871V45.0373H76.4438L76.8695 46.6396L77.2844 45.0373H77.9997V47.3871H77.5598V45.538L77.0984 47.3871H76.6227L76.1613 45.538V47.3871H75.7285Z" fill="white"/>
</svg>
