<svg width="16" height="14" viewBox="0 0 16 14" fill="none" xmlns="http://www.w3.org/2000/svg">
<g clip-path="url(#clip0_615_297)">
<path d="M0 13.2364C0.321285 13.1727 0.578313 13.1091 0.963856 13.0455C0.963856 12.9818 0.963856 12.9182 0.963856 12.9182C0.963856 11.5818 0.963856 10.3091 0.963856 8.97274C0.963856 8.90911 1.02811 8.78183 0.899598 8.78183C0.899598 8.78183 0.899598 8.7182 0.899598 8.65456C0.899598 8.46365 0.899598 8.27274 0.899598 8.08183C0.64257 8.08183 0.449799 8.08183 0.257028 8.08183C0.257028 8.0182 0.257028 7.95456 0.257028 7.89092C0.257028 6.8091 0.321285 5.72729 0.321285 4.64547C0.321285 4.5182 0.321285 4.5182 0.449799 4.45456C0.835341 4.39092 1.28514 4.32729 1.73494 4.26365C1.7992 4.26365 1.86345 4.26365 1.92771 4.32729C2.12048 4.58183 2.31325 4.83638 2.57028 5.09092C2.76305 4.90001 2.95582 4.7091 3.08434 4.45456C3.21285 4.26365 3.40562 4.20001 3.66265 4.20001C3.91968 4.20001 4.17671 4.20001 4.43374 4.20001C4.69076 4.32729 4.88353 4.45456 5.14056 4.58183C5.14056 4.07274 5.14056 3.62729 5.14056 3.18183C5.01205 3.18183 4.94779 3.18183 4.81928 3.18183C4.81928 2.99092 4.81928 2.80001 4.81928 2.54547C6.4257 2.54547 8.03213 2.54547 9.70281 2.54547C9.70281 2.35456 9.70281 2.16365 9.70281 2.03638C10.1526 2.03638 10.5382 2.03638 10.988 2.03638C10.988 2.22729 10.988 2.35456 10.988 2.54547C12.6586 2.54547 14.3293 2.54547 16 2.54547C16 2.80001 16 2.99092 16 3.18183C15.9357 3.18183 15.8715 3.18183 15.8072 3.18183C15.8072 5.28183 15.8072 7.44547 15.8072 9.54547C14.0723 9.54547 12.3373 9.54547 10.6024 9.54547C10.6024 9.73638 10.6024 9.86365 10.6024 10.0546C10.5382 10.5 10.7309 10.8818 11.0522 11.2C11.759 11.9 12.4016 12.6637 13.0442 13.4273C13.1084 13.4909 13.1084 13.5546 13.1727 13.6182C12.8514 13.6182 12.5944 13.6182 12.2731 13.6182C12.2088 13.6182 12.1446 13.5546 12.1446 13.4909C11.6305 12.9182 11.1165 12.3455 10.6024 11.7727C10.6024 11.7091 10.5382 11.7091 10.4739 11.6455C10.4739 12.2818 10.4739 12.9182 10.4739 13.5546C10.2811 13.5546 10.1526 13.5546 9.95984 13.5546C9.95984 12.9182 9.95984 12.2818 9.95984 11.6455C9.95984 11.6455 9.95984 11.6455 9.89558 11.6455C9.83133 11.7091 9.83133 11.7091 9.76707 11.7727C9.25301 12.3455 8.73896 12.9182 8.28916 13.4273C8.2249 13.4909 8.16064 13.4909 8.09639 13.4909C7.83936 13.4909 7.58233 13.4909 7.3253 13.4909C7.38956 13.4273 7.45382 13.3636 7.45382 13.3C8.2249 12.4091 8.99598 11.5818 9.76707 10.6909C9.83133 10.6273 9.89558 10.5 9.89558 10.3727C9.89558 10.0546 9.89558 9.67274 9.89558 9.35456C8.35341 9.35456 6.81125 9.35456 5.20482 9.35456C5.20482 9.29092 5.20482 9.22729 5.20482 9.16365C5.20482 8.08183 5.20482 7.06365 5.20482 5.98183C5.20482 5.66365 5.14056 5.53638 4.81928 5.47274C4.75502 5.47274 4.69076 5.4091 4.56225 5.34547C4.56225 5.9182 4.49799 6.23638 4.49799 6.55456C4.43374 7.25456 4.43374 7.95456 4.36948 8.65456C4.36948 8.7182 4.36948 8.78183 4.30522 8.78183C4.30522 8.78183 4.24096 8.84547 4.24096 8.9091C4.24096 10.1182 4.24096 11.3273 4.24096 12.5364C4.24096 12.6637 4.24096 12.8546 4.24096 12.9818C4.56225 13.0455 4.88353 13.1091 5.14056 13.1727C5.14056 13.4273 5.14056 13.6182 5.14056 13.9364C4.75502 13.9364 4.43374 13.8727 4.11245 13.8727C4.04819 13.8727 3.91968 13.8091 3.85542 13.8091C3.79116 13.8091 3.72691 13.7455 3.72691 13.8727L3.66265 13.9364C3.40562 13.9364 3.14859 13.9364 2.82731 13.9364C2.82731 12.4727 2.82731 11.0091 2.82731 9.54547C2.63454 9.54547 2.50602 9.54547 2.31325 9.54547C2.31325 11.0091 2.31325 12.4727 2.31325 13.9364C2.05623 13.9364 1.7992 13.9364 1.54217 13.9364C1.47791 13.9364 1.47791 13.8727 1.41365 13.8091C1.3494 13.8091 1.28514 13.8091 1.15663 13.8727C0.771084 13.9364 0.385542 13.9364 0 14C0 13.7455 0 13.4909 0 13.2364ZM5.65462 3.18183C5.65462 3.69092 5.65462 4.20001 5.65462 4.77274C5.65462 4.83638 5.71888 4.90001 5.78313 4.90001C6.23293 5.15456 6.74699 5.34547 7.26104 5.60001C7.51807 5.72729 7.64659 5.85456 7.58233 6.17274C7.58233 6.42729 7.58233 6.68183 7.58233 7.00001C6.93976 6.68183 6.29719 6.42729 5.71888 6.17274C5.71888 7.19092 5.71888 8.20911 5.71888 9.22729C8.93173 9.22729 12.2088 9.22729 15.4217 9.22729C15.4217 7.25456 15.4217 5.28183 15.4217 3.3091C12.0803 3.18183 8.86747 3.18183 5.65462 3.18183Z" fill="#535353"/>
<path d="M2.57009 3.94545C1.47772 3.94545 0.578125 3.05455 0.578125 1.97273C0.578125 0.890909 1.47772 0 2.57009 0C3.66246 0 4.56206 0.890909 4.56206 1.97273C4.56206 3.05455 3.66246 3.94545 2.57009 3.94545Z" fill="#535353"/>
</g>
<defs>
<clipPath id="clip0_615_297">
<rect width="16" height="14" fill="white"/>
</clipPath>
</defs>
</svg>
