<svg width="45" height="35" viewBox="0 0 45 35" fill="none" xmlns="http://www.w3.org/2000/svg">
<g clip-path="url(#clip0_339_432)">
<path d="M4.39455 26.6783C4.44338 18.2731 4.49099 9.87999 4.53738 1.49896C4.53936 1.22923 4.63574 0.968549 4.81005 0.761388C4.98436 0.554228 5.2258 0.41343 5.49319 0.36302C8.56936 -0.27209 13.418 -0.112406 16.7102 1.13967C19.0287 1.96933 21.061 3.43579 22.5696 5.36769C24.1265 3.52827 26.1486 2.13179 28.429 1.32113C31.5381 0.145268 36.2549 -0.13781 39.635 0.36302C39.9141 0.400504 40.1701 0.536299 40.3564 0.74556C40.5427 0.95482 40.6467 1.22355 40.6494 1.50259V26.7836C40.649 26.9369 40.618 27.0886 40.5582 27.23C40.4985 27.3714 40.4111 27.4997 40.3013 27.6076C40.1914 27.7155 40.0611 27.8008 39.9178 27.8587C39.7746 27.9166 39.6213 27.9459 39.4666 27.9449C39.3753 27.9437 39.2845 27.9327 39.1956 27.9123C36.309 27.5411 33.3752 27.8127 30.6079 28.7071C28.5636 29.4622 26.6233 30.4694 24.8328 31.7048C27.3506 30.9305 29.975 30.5509 32.6111 30.5797C35.9938 30.6331 39.3601 31.0566 42.6489 31.8427V5.38583H43.8245C44.1363 5.38583 44.4353 5.50857 44.6557 5.72704C44.8762 5.94552 45 6.24183 45 6.5508V33.367C45 33.6759 44.8762 33.9722 44.6557 34.1907C44.4353 34.4092 44.1363 34.5319 43.8245 34.5319C43.6999 34.5309 43.5762 34.5101 43.4583 34.4702C39.9156 33.5048 36.2661 32.977 32.5928 32.8988C29.3466 32.8582 26.1295 33.5092 23.1592 34.8078C22.96 34.9334 22.7288 35.0001 22.4927 35.0001C22.2566 35.0001 22.0254 34.9334 21.8262 34.8078C18.856 33.5089 15.6388 32.8579 12.3926 32.8988C8.72758 32.9815 5.08682 33.5117 1.55276 34.4775C1.4348 34.5173 1.31116 34.5382 1.18655 34.5392C1.03063 34.5406 0.875986 34.5113 0.73161 34.453C0.587235 34.3946 0.456016 34.3084 0.345593 34.1993C0.23517 34.0902 0.147749 33.9604 0.0884218 33.8175C0.0290943 33.6746 -0.000955166 33.5215 2.31415e-05 33.367V6.5508C2.31415e-05 6.24183 0.123874 5.94552 0.34433 5.72704C0.564786 5.50857 0.863788 5.38583 1.17556 5.38583H2.3511V31.8427C5.6399 31.0566 9.00627 30.6331 12.3889 30.5797C15.2148 30.5466 18.0263 30.9846 20.7056 31.8754C19.0131 30.5187 17.0844 29.4806 15.0147 28.8123C12.4512 27.9776 8.54006 27.6981 5.67996 27.9413C5.52489 27.9563 5.36837 27.9405 5.2195 27.895C5.07062 27.8495 4.93237 27.7751 4.81276 27.6761C4.69316 27.5772 4.59459 27.4557 4.5228 27.3187C4.451 27.1816 4.40741 27.0318 4.39455 26.878C4.39086 26.8115 4.39086 26.7448 4.39455 26.6783ZM26.9678 23.3721C26.8754 23.4403 26.7699 23.489 26.6578 23.5152C26.5457 23.5414 26.4294 23.5445 26.316 23.5244C26.2027 23.5043 26.0947 23.4613 25.9987 23.3982C25.9028 23.335 25.8209 23.2531 25.7582 23.1573C25.6955 23.0616 25.6532 22.9542 25.6341 22.8416C25.6149 22.7291 25.6192 22.6138 25.6468 22.503C25.6744 22.3922 25.7246 22.2881 25.7943 22.1973C25.864 22.1065 25.9518 22.0308 26.0523 21.9749C27.4035 21.1436 28.8555 20.4851 30.3736 20.0151C31.914 19.4984 33.5131 19.1729 35.1343 19.0461C35.2444 19.0402 35.3547 19.0558 35.4587 19.092C35.5628 19.1283 35.6586 19.1845 35.7407 19.2575C35.8228 19.3304 35.8896 19.4187 35.9373 19.5173C35.985 19.6158 36.0127 19.7227 36.0187 19.8319C36.0247 19.941 36.009 20.0502 35.9724 20.1534C35.9358 20.2565 35.8791 20.3514 35.8054 20.4328C35.7318 20.5142 35.6427 20.5804 35.5433 20.6277C35.4439 20.675 35.336 20.7024 35.2259 20.7083C33.7553 20.8303 32.3053 21.1302 30.9082 21.6011C29.5244 22.0239 28.2004 22.619 26.9678 23.3721ZM27.041 16.9267C26.8531 17.0451 26.6254 17.0846 26.408 17.0366C26.1907 16.9887 26.0014 16.8571 25.882 16.6708C25.7625 16.4846 25.7226 16.2589 25.771 16.0435C25.8194 15.8281 25.9522 15.6406 26.1402 15.5222C27.4885 14.7093 28.9324 14.0633 30.4395 13.5987C31.9551 13.0959 33.5266 12.7766 35.1197 12.6479C35.3376 12.6442 35.5485 12.7243 35.708 12.8715C35.8675 13.0187 35.9633 13.2214 35.9751 13.4371C35.987 13.6527 35.914 13.8646 35.7715 14.028C35.6291 14.1915 35.4282 14.2939 35.2112 14.3137C33.7613 14.4329 32.3312 14.7253 30.9522 15.1847C29.5816 15.605 28.2681 16.19 27.041 16.9267ZM27.063 10.503C26.9695 10.5616 26.8652 10.6014 26.7561 10.6201C26.6471 10.6388 26.5354 10.636 26.4274 10.6119C26.3195 10.5878 26.2173 10.5429 26.1269 10.4797C26.0364 10.4165 25.9594 10.3362 25.9003 10.2435C25.8411 10.1508 25.801 10.0475 25.7821 9.93941C25.7633 9.83133 25.7661 9.72064 25.7904 9.61364C25.8147 9.50664 25.8601 9.40544 25.9238 9.3158C25.9876 9.22617 26.0686 9.14987 26.1621 9.09124C27.5084 8.28208 28.9499 7.63975 30.4541 7.17866C31.965 6.67804 33.5317 6.36119 35.1197 6.23506C35.2298 6.22911 35.34 6.2447 35.4441 6.28097C35.5481 6.31723 35.6439 6.37345 35.7261 6.44641C35.8082 6.51937 35.875 6.60764 35.9227 6.7062C35.9704 6.80475 35.998 6.91165 36.0041 7.02079C36.0101 7.12993 35.9943 7.23917 35.9577 7.34228C35.9211 7.44539 35.8644 7.54035 35.7908 7.62174C35.7172 7.70313 35.6281 7.76934 35.5286 7.81661C35.4292 7.86388 35.3213 7.89128 35.2112 7.89724C33.7664 8.0166 32.3414 8.30782 30.9668 8.76462C29.5988 9.18403 28.2878 9.76784 27.063 10.503ZM18.9478 21.9749C19.0482 22.0308 19.136 22.1065 19.2057 22.1973C19.2755 22.2881 19.3257 22.3922 19.3533 22.503C19.3808 22.6138 19.3851 22.7291 19.366 22.8416C19.3468 22.9542 19.3046 23.0616 19.2419 23.1573C19.1791 23.2531 19.0973 23.335 19.0013 23.3982C18.9054 23.4613 18.7974 23.5043 18.684 23.5244C18.5706 23.5445 18.4543 23.5414 18.3422 23.5152C18.2301 23.489 18.1246 23.4403 18.0323 23.3721C16.8043 22.6201 15.4852 22.025 14.1065 21.6011C12.7094 21.1302 11.2594 20.8303 9.78884 20.7083C9.67871 20.7019 9.57094 20.674 9.47168 20.6263C9.37242 20.5786 9.28361 20.512 9.21033 20.4302C9.13704 20.3485 9.08072 20.2533 9.04457 20.15C9.00843 20.0467 8.99317 19.9374 8.99966 19.8282C9.00615 19.7191 9.03427 19.6123 9.08241 19.5139C9.13056 19.4155 9.19778 19.3275 9.28024 19.2549C9.36271 19.1823 9.4588 19.1265 9.56303 19.0907C9.66726 19.0548 9.77759 19.0397 9.88772 19.0461C11.5089 19.1729 13.1081 19.4984 14.6485 20.0151C16.1666 20.4851 17.6185 21.1436 18.9697 21.9749H18.9478ZM18.8599 15.5222C19.0478 15.6425 19.1798 15.8319 19.2269 16.0486C19.2739 16.2654 19.2321 16.4918 19.1107 16.6781C18.9893 16.8643 18.7982 16.9952 18.5795 17.0418C18.3608 17.0884 18.1323 17.047 17.9444 16.9267C16.7173 16.19 15.4038 15.605 14.0332 15.1847C12.6541 14.7253 11.2241 14.4329 9.77419 14.3137C9.55129 14.2987 9.3435 14.1967 9.19653 14.0299C9.04956 13.8632 8.97545 13.6454 8.9905 13.4245C9.00556 13.2036 9.10854 12.9977 9.2768 12.852C9.44506 12.7064 9.66482 12.6329 9.88772 12.6479C11.4808 12.7766 13.0522 13.0959 14.5679 13.5987C16.075 14.0633 17.5188 14.7093 18.8672 15.5222H18.8599ZM18.8379 9.09124C18.9386 9.14589 19.027 9.22036 19.0976 9.31008C19.1682 9.3998 19.2196 9.50288 19.2485 9.61299C19.2774 9.7231 19.2834 9.83791 19.2659 9.95037C19.2484 10.0628 19.208 10.1706 19.147 10.2669C19.0859 10.3633 19.0057 10.4463 18.9111 10.5109C18.8166 10.5754 18.7097 10.6201 18.5971 10.6422C18.4844 10.6643 18.3684 10.6634 18.2562 10.6394C18.144 10.6155 18.0378 10.5691 17.9444 10.503C16.7195 9.76784 15.4085 9.18403 14.0406 8.76462C12.666 8.30782 11.2409 8.0166 9.79617 7.89724C9.68604 7.89128 9.57817 7.86388 9.47872 7.81661C9.37928 7.76934 9.2902 7.70313 9.21658 7.62174C9.14295 7.54035 9.08623 7.44539 9.04964 7.34228C9.01305 7.23917 8.99731 7.12993 9.00332 7.02079C9.00933 6.91165 9.03697 6.80475 9.08467 6.7062C9.13237 6.60764 9.19919 6.51937 9.28131 6.44641C9.36344 6.37345 9.45926 6.31723 9.56331 6.28097C9.66735 6.2447 9.77759 6.22911 9.88772 6.23506C11.4757 6.36119 13.0424 6.67804 14.5532 7.17866C16.0575 7.63975 17.4989 8.28208 18.8452 9.09124H18.8379ZM38.291 2.54054C35.5738 2.2865 31.6773 2.58409 29.2346 3.50228C26.9639 4.29112 25.0173 5.79691 23.6939 7.78836V29.6579C25.597 28.3652 27.6535 27.3097 29.8169 26.515C32.5513 25.6471 35.4255 25.2938 38.291 25.4735V2.54054ZM21.3428 29.4329V7.7557C20.1123 5.60358 18.1238 4.16642 15.8753 3.31356C13.3118 2.34456 9.37502 2.12681 6.88113 2.47884L6.74929 25.546C9.47024 25.448 13.2276 25.7928 15.7288 26.6021C17.7385 27.2478 19.633 28.2031 21.3428 29.4329Z" fill="white"/>
</g>
<defs>
<clipPath id="clip0_339_432">
<rect width="45" height="35" fill="white"/>
</clipPath>
</defs>
</svg>
