<svg width="30" height="30" viewBox="0 0 30 30" fill="none" xmlns="http://www.w3.org/2000/svg">
<path d="M3.38713 17.8678C3.86486 17.8678 4.33186 17.7261 4.72908 17.4607C5.1263 17.1953 5.43589 16.818 5.61871 16.3767C5.80153 15.9353 5.84936 15.4496 5.75616 14.9811C5.66296 14.5125 5.43291 14.0821 5.09511 13.7443C4.7573 13.4065 4.32691 13.1765 3.85836 13.0833C3.38981 12.9901 2.90414 13.0379 2.46278 13.2207C2.02141 13.4036 1.64417 13.7131 1.37876 14.1104C1.11334 14.5076 0.97168 14.9746 0.97168 15.4523C0.973418 16.0924 1.22846 16.7058 1.68107 17.1584C2.13368 17.611 2.74705 17.866 3.38713 17.8678Z" fill="#231F20"/>
<path d="M3.38857 13.7638C3.72154 13.7638 4.04702 13.8625 4.32387 14.0475C4.60072 14.2325 4.8165 14.4954 4.94392 14.803C5.07134 15.1107 5.10468 15.4492 5.03972 15.7757C4.97476 16.1023 4.81442 16.4023 4.57898 16.6377C4.34354 16.8731 4.04357 17.0335 3.71701 17.0984C3.39044 17.1634 3.05194 17.1301 2.74433 17.0026C2.43671 16.8752 2.17378 16.6594 1.9888 16.3826C1.80381 16.1057 1.70508 15.7803 1.70508 15.4473C1.70624 15.0012 1.88398 14.5736 2.19944 14.2582C2.51491 13.9427 2.94244 13.765 3.38857 13.7638Z" fill="#FFBA50"/>
<path d="M3.38823 18.4797C2.48998 18.4809 1.62885 18.8382 0.993685 19.4734C0.358523 20.1086 0.00117856 20.9697 1.65258e-05 21.868V23.5361C-0.00160021 23.9403 0.115442 24.336 0.336632 24.6743C0.557822 25.0126 0.873433 25.2785 1.24434 25.4392V28.1701C1.24434 28.6554 1.43713 29.1208 1.7803 29.464C2.12347 29.8072 2.58891 30 3.07422 30H3.71249C3.95279 30 4.19074 29.9526 4.41275 29.8607C4.63476 29.7687 4.83649 29.6339 5.00641 29.464C5.17633 29.2941 5.31112 29.0924 5.40308 28.8703C5.49504 28.6483 5.54237 28.4104 5.54237 28.1701V25.4362C5.9124 25.2749 6.22704 25.0086 6.4474 24.6704C6.66776 24.3322 6.78419 23.9368 6.7823 23.5331V21.868C6.78114 20.9687 6.42299 20.1067 5.78656 19.4713C5.15013 18.836 4.2875 18.4793 3.38823 18.4797Z" fill="#231F20"/>
<path d="M6.04543 23.536C6.0457 23.8287 5.9504 24.1135 5.77403 24.3471C5.59766 24.5806 5.34985 24.7502 5.06827 24.8301C4.99239 24.8524 4.92577 24.8987 4.8784 24.962C4.83103 25.0254 4.80545 25.1024 4.8055 25.1814V28.1671C4.8055 28.4583 4.68983 28.7375 4.48392 28.9434C4.27802 29.1493 3.99876 29.265 3.70757 29.265H3.06931C2.77812 29.265 2.49885 29.1493 2.29295 28.9434C2.08705 28.7375 1.97138 28.4583 1.97138 28.1671V25.1814C1.97138 25.1023 1.94569 25.0252 1.89818 24.9619C1.85067 24.8985 1.78389 24.8523 1.70787 24.8301C1.42643 24.7501 1.17878 24.5804 1.00255 24.3469C0.826322 24.1133 0.731134 23.8286 0.731446 23.536V21.8679C0.743017 21.1708 1.02808 20.5061 1.52517 20.0172C2.02226 19.5283 2.69157 19.2543 3.3888 19.2543C4.08604 19.2543 4.75535 19.5283 5.25244 20.0172C5.74953 20.5061 6.03459 21.1708 6.04616 21.8679L6.04543 23.536Z" fill="#FFBA50"/>
<path d="M14.5134 9.41882H11.3953C10.3847 9.41882 9.56543 10.2381 9.56543 11.2487V28.1671C9.56543 29.1777 10.3847 29.997 11.3953 29.997H14.5134C15.5241 29.997 16.3433 29.1777 16.3433 28.1671V11.2487C16.3433 10.2381 15.5241 9.41882 14.5134 9.41882Z" fill="#231F20"/>
<path d="M14.5129 10.1509H11.3948C10.7884 10.1509 10.2969 10.6424 10.2969 11.2488V28.1672C10.2969 28.7736 10.7884 29.2651 11.3948 29.2651H14.5129C15.1193 29.2651 15.6109 28.7736 15.6109 28.1672V11.2488C15.6109 10.6424 15.1193 10.1509 14.5129 10.1509Z" fill="#FF8E5A"/>
<path d="M29.7906 5.34481L25.0329 0.242358C24.8775 0.0871693 24.6669 0 24.4473 0C24.2277 0 24.0171 0.0871693 23.8617 0.242358L19.104 5.34481C18.999 5.45951 18.9294 5.60219 18.9037 5.7556C18.8779 5.90902 18.8972 6.06659 18.9592 6.20929C19.0211 6.35198 19.123 6.47367 19.2527 6.55965C19.3823 6.64564 19.5341 6.69223 19.6896 6.6938H21.0576V28.1671C21.0576 28.6524 21.2504 29.1179 21.5936 29.4611C21.9368 29.8042 22.4022 29.997 22.8875 29.997H26.0049C26.4902 29.997 26.9557 29.8042 27.2988 29.4611C27.642 29.1179 27.8348 28.6524 27.8348 28.1671V6.6938H29.205C29.3606 6.69223 29.5123 6.64564 29.6419 6.55965C29.7716 6.47367 29.8735 6.35198 29.9355 6.20929C29.9974 6.06659 30.0167 5.90902 29.991 5.7556C29.9653 5.60219 29.8957 5.45951 29.7906 5.34481Z" fill="#231F20"/>
<path d="M29.2709 5.92149C29.2661 5.93451 29.2572 5.94564 29.2456 5.95328C29.234 5.96092 29.2203 5.96465 29.2065 5.96395H27.4725C27.3754 5.96395 27.2823 6.0025 27.2137 6.07114C27.145 6.13977 27.1065 6.23286 27.1065 6.32992V28.167C27.1065 28.4582 26.9908 28.7375 26.7849 28.9434C26.579 29.1493 26.2997 29.265 26.0086 29.265H22.8912C22.6 29.265 22.3207 29.1493 22.1148 28.9434C21.9089 28.7375 21.7932 28.4582 21.7932 28.167V6.32773C21.7932 6.23066 21.7547 6.13758 21.686 6.06894C21.6174 6.00031 21.5243 5.96175 21.4273 5.96175H19.6933C19.6794 5.9627 19.6655 5.95906 19.6539 5.95139C19.6423 5.94372 19.6335 5.93245 19.6288 5.9193C19.6228 5.90738 19.6207 5.89382 19.623 5.88064C19.6252 5.86746 19.6316 5.85534 19.6413 5.8461L24.399 0.74292H24.5015L29.2592 5.8461C29.2688 5.85584 29.2751 5.86837 29.2772 5.8819C29.2793 5.89544 29.2771 5.90929 29.2709 5.92149Z" fill="#D12200"/>
</svg>
