<svg width="37" height="40" viewBox="0 0 37 40" fill="none" xmlns="http://www.w3.org/2000/svg">
<g clip-path="url(#clip0_339_397)">
<path fill-rule="evenodd" clip-rule="evenodd" d="M33.1558 18.4768H31.3498V23.8512H33.1591V23.8577C33.5307 23.8577 33.873 23.6982 34.124 23.4475L34.1696 23.4052C34.3913 23.1611 34.5282 22.8421 34.5282 22.4938H34.525V22.484H34.5282V19.8473H34.525V19.8408H34.5282C34.5282 19.4664 34.3718 19.1246 34.124 18.8772C33.8762 18.6298 33.534 18.4736 33.1623 18.4703V18.4736H33.1558V18.4768ZM10.3201 0.198837C10.8906 -0.178767 11.6502 -0.00624144 12.0153 0.579696C12.3804 1.16563 12.2141 1.95014 11.6437 2.32774C10.6037 3.01459 10.5972 3.54845 10.9167 4.02696C11.1905 4.44037 11.6143 4.89285 12.0348 5.33881C12.6184 5.96055 13.2051 6.5823 13.6061 7.3017C14.5613 9.00417 14.4765 10.6969 11.4709 12.3766C10.8776 12.7086 10.1311 12.484 9.80832 11.872C9.48559 11.26 9.704 10.4918 10.2973 10.1598C11.5524 9.4599 11.7121 8.96837 11.4807 8.55821C11.2394 8.13178 10.757 7.61746 10.2745 7.10313C9.77572 6.57253 9.27369 6.03868 8.88576 5.45274C7.76761 3.75678 7.5655 2.0185 10.3201 0.198837ZM24.1454 0.198837C24.7159 -0.178767 25.4755 -0.00624144 25.8406 0.579696C26.2057 1.16563 26.0394 1.95014 25.4689 2.32774C24.429 3.01459 24.4258 3.54845 24.742 4.02696C25.0158 4.44037 25.4396 4.89285 25.8601 5.33881C26.4436 5.96055 27.0304 6.5823 27.4314 7.3017C28.3866 9.00417 28.3051 10.6969 25.2994 12.3766C24.7061 12.7086 23.9596 12.484 23.6369 11.872C23.3141 11.26 23.5325 10.4918 24.1259 10.1598C25.3809 9.4599 25.5374 8.97162 25.3059 8.55821C25.0647 8.13178 24.5822 7.61746 24.0998 7.10313C23.601 6.57253 23.099 6.03868 22.711 5.45274C21.5929 3.75352 21.3875 2.0185 24.1454 0.198837ZM17.2344 0.198837C17.8049 -0.178767 18.5644 -0.00624144 18.9296 0.579696C19.2947 1.16563 19.1284 1.95014 18.5579 2.32774C17.518 3.01459 17.5115 3.54845 17.831 4.02696C18.1048 4.44037 18.5286 4.89285 18.9491 5.33881C19.5326 5.96055 20.1194 6.5823 20.5204 7.3017C21.4755 9.00417 21.394 10.6969 18.3884 12.3766C17.7951 12.7086 17.0486 12.484 16.7259 11.872C16.4031 11.26 16.6215 10.4918 17.2148 10.1598C18.4699 9.4599 18.6264 8.96837 18.3949 8.55821C18.1537 8.13178 17.6712 7.61746 17.1888 7.10313C16.69 6.57253 16.1847 6.03868 15.8 5.45274C14.6786 3.75678 14.4798 2.0185 17.2344 0.198837ZM0.462152 36.5693H12.237C8.24356 34.5738 5.48242 30.4495 5.48242 25.7066V15.9247H29.7948V16.0517C29.8992 16.0224 30.01 16.0094 30.1241 16.0094H33.1721V16.0159H33.1786C34.2283 16.0191 35.1802 16.4456 35.8713 17.1357C36.5657 17.8258 36.9992 18.7861 37.0025 19.8408H37.0058V19.8473H37.0025V22.4384V22.484H37.0058V22.4938H37.0025V22.5003C36.9992 23.5029 36.6048 24.4208 35.9659 25.1012C35.9398 25.1337 35.9104 25.163 35.8811 25.1923C35.19 25.8824 34.2283 26.3121 33.1688 26.3154V26.3219H30.1241C30.0067 26.3219 29.8894 26.3024 29.7818 26.2731C29.5764 30.7783 26.8805 34.6617 23.0436 36.5758H35.4801C35.7344 36.5758 35.943 36.8232 35.943 37.1292V39.4566C35.943 39.7626 35.7344 40.0068 35.4801 40.0068H0.468672C0.214398 40.0068 0.00576401 39.7594 0.00576401 39.4566V37.1292C-0.000755816 36.8167 0.207879 36.5693 0.462152 36.5693Z" fill="white"/>
</g>
<defs>
<clipPath id="clip0_339_397">
<rect width="37" height="40" fill="white"/>
</clipPath>
</defs>
</svg>
