<svg width="30" height="30" viewBox="0 0 30 30" fill="none" xmlns="http://www.w3.org/2000/svg">
<g clip-path="url(#clip0_1167_2)">
<path d="M6.4827 10.9917L0.720703 16.7537V29.5303H25.7729V10.9917H6.4827Z" fill="#D9DCDF"/>
<path d="M6.4827 16.7537V10.9917L0.720703 16.7537H6.4827Z" fill="#F6F6F7"/>
<path d="M21.764 21.0126H4.72852V23.5178H21.764V21.0126Z" fill="#FF8C78"/>
<path d="M19.7596 23.5178H6.73242V26.0231H19.7596V23.5178Z" fill="#F6F6F7"/>
<path d="M14.7498 13.9979C14.7498 10.9916 17.7561 8.9875 17.7561 4.9791C17.7561 2.48857 15.7371 0.469727 13.2467 0.469727C10.7562 0.469727 8.7373 2.48863 8.7373 4.9791C8.7373 8.98744 11.7436 10.9916 11.7436 13.9979H14.7498Z" fill="#68727E"/>
<path d="M14.7493 13.9979H11.743C11.743 16.8581 7.10836 21.0125 5.73047 21.0125C7.90166 21.0125 13.2461 21.0125 13.2461 21.0125C15.4173 21.0125 18.5906 21.0125 20.7618 21.0125C19.384 21.0125 14.7493 16.8581 14.7493 13.9979Z" fill="#FF8C78"/>
<path d="M7.69934 19.9896C6.88787 20.6183 6.15475 21.0126 5.73047 21.0126C7.90166 21.0126 13.2461 21.0126 13.2461 21.0126C15.4173 21.0126 18.5906 21.0126 20.7618 21.0126C20.3375 21.0126 19.6044 20.6183 18.7929 19.9896H7.69934Z" fill="#DF7A6E"/>
<path d="M13.9983 0.533301C13.7538 0.492227 13.5029 0.469727 13.2467 0.469727C10.7562 0.469727 8.7373 2.48863 8.7373 4.9791C8.7373 8.98744 11.7436 10.9916 11.7436 13.9979H13.2467C13.2467 10.9916 10.2404 8.9875 10.2404 4.9791C10.2404 2.7448 11.8657 0.891191 13.9983 0.533301Z" fill="#55606E"/>
<path d="M13.2461 13.9979H11.743C11.743 16.8581 7.10836 21.0125 5.73047 21.0125C6.13834 21.0125 6.65824 21.0125 7.23357 21.0125C8.61146 21.0125 13.2461 16.8581 13.2461 13.9979Z" fill="#DF7A6E"/>
<path d="M22.2656 9.48848C22.2656 7.55143 25.7729 0.970703 25.7729 0.970703C25.7729 0.970703 29.2802 7.55143 29.2802 9.48848C29.2802 11.4255 27.71 12.9958 25.7729 12.9958C23.8359 12.9958 22.2656 11.4255 22.2656 9.48848Z" fill="#FF8C78"/>
<path d="M27.276 11.4927C25.339 11.4927 23.7687 9.92249 23.7687 7.98543C23.7687 6.78204 25.1223 3.78666 26.1477 1.69018C25.9174 1.24188 25.7729 0.970825 25.7729 0.970825C25.7729 0.970825 22.2656 7.55155 22.2656 9.4886C22.2656 11.4256 23.8359 12.9959 25.7729 12.9959C27.1287 12.9959 28.3039 12.2261 28.8877 11.1003C28.405 11.3505 27.8573 11.4927 27.276 11.4927Z" fill="#DF7A6E"/>
<path d="M26.7745 10.9917C27.328 10.9917 27.7766 10.543 27.7766 9.98962C27.7766 9.43619 27.328 8.98755 26.7745 8.98755C26.2211 8.98755 25.7725 9.43619 25.7725 9.98962C25.7725 10.543 26.2211 10.9917 26.7745 10.9917Z" fill="#FFD6C4"/>
<path d="M14.4987 4.97911C15.1905 4.97911 15.7513 4.4183 15.7513 3.72649C15.7513 3.03469 15.1905 2.47388 14.4987 2.47388C13.8069 2.47388 13.2461 3.03469 13.2461 3.72649C13.2461 4.4183 13.8069 4.97911 14.4987 4.97911Z" fill="#D9DCDF"/>
<path d="M6.73271 21.0126H4.72852V23.5178H6.73271V21.0126Z" fill="#DF7A6E"/>
<path d="M16.7533 21.0126H14.248V23.5178H16.7533V21.0126Z" fill="#FFC5BB"/>
<path d="M19.7596 23.5178H6.73242V24.5199H19.7596V23.5178Z" fill="#ECEDEF"/>
<path d="M29.7499 9.4885C29.7499 9.08291 29.6294 8.52147 29.3816 7.77193C29.3001 7.52561 29.0345 7.39219 28.7881 7.4734C28.5417 7.5549 28.4081 7.82057 28.4895 8.06689C28.7548 8.86881 28.8105 9.2826 28.8105 9.48855C28.8105 11.1635 27.4478 12.5261 25.7729 12.5261C24.098 12.5261 22.7353 11.1635 22.7353 9.48855C22.7353 8.17951 24.653 4.16883 25.772 1.98756C26.2294 2.8807 26.9866 4.39857 27.6295 5.87455C27.7331 6.1125 28.0101 6.22131 28.2477 6.1176C28.4856 6.014 28.5944 5.73721 28.4908 5.49938C27.4825 3.18498 26.2002 0.774023 26.1874 0.749941C26.0139 0.424512 25.5318 0.424512 25.3583 0.749941C24.9937 1.43408 21.7958 7.49186 21.7958 9.48861C21.7958 9.84604 21.8439 10.1923 21.9328 10.522H16.4282C16.4531 10.4766 16.4779 10.4313 16.5031 10.3854C17.3106 8.91475 18.2258 7.24781 18.2258 4.97924C18.2259 2.23359 15.9923 0 13.2468 0C10.5013 0 8.26766 2.23359 8.26766 4.97912C8.26766 5.50523 8.31781 6.0317 8.41684 6.54375C8.466 6.79846 8.7125 6.96539 8.96709 6.91576C9.2218 6.8666 9.38838 6.62016 9.3391 6.36551C9.25022 5.90561 9.20709 5.45215 9.20709 4.97912C9.20709 2.75168 11.0193 0.939434 13.2468 0.939434C15.4743 0.939434 17.2865 2.75162 17.2865 4.97912C17.2865 7.0067 16.4697 8.49445 15.6798 9.93328C15.0358 11.1062 14.4237 12.2208 14.3021 13.5282H12.1916C12.07 12.2208 11.458 11.1062 10.814 9.9334C10.543 9.43963 10.2626 8.9291 10.0167 8.39572C9.90799 8.16012 9.62902 8.05734 9.39342 8.16586C9.15781 8.27443 9.05498 8.55352 9.16356 8.78912C9.4233 9.35244 9.7117 9.87762 9.99055 10.3855C10.0157 10.4313 10.0405 10.4766 10.0654 10.522H6.48266C6.35961 10.522 6.2375 10.5725 6.15049 10.6595L0.388496 16.4215C0.301484 16.5086 0.250977 16.6305 0.250977 16.7537V29.5303C0.250977 29.7897 0.461211 30 0.720723 30H6.25309C6.51254 30 6.72283 29.7898 6.72283 29.5303C6.72283 29.2707 6.5126 29.0605 6.25309 29.0605H1.19041V17.2234H6.48272C6.74217 17.2234 6.95246 17.0132 6.95246 16.7537V11.4613H10.5627C10.9781 12.2964 11.2739 13.0997 11.2739 13.9979C11.2739 15.1126 10.3917 16.7035 8.91406 18.2536C7.49029 19.7472 6.15066 20.5427 5.73113 20.5427H4.729C4.46955 20.5427 4.25926 20.753 4.25926 21.0125V23.5177C4.25926 23.7772 4.46949 23.9875 4.729 23.9875H6.26346V26.0229C6.26346 26.2824 6.47369 26.4927 6.7332 26.4927H19.7604C20.0198 26.4927 20.2301 26.2825 20.2301 26.0229V23.9875H21.7646C22.024 23.9875 22.2343 23.7772 22.2343 23.5177V21.0125C22.2343 20.753 22.0241 20.5427 21.7646 20.5427H20.7625C20.3429 20.5427 19.0033 19.7472 17.5796 18.2536C16.1019 16.7035 15.2197 15.1126 15.2197 13.9979C15.2197 13.0997 15.5155 12.2963 15.931 11.4613H22.3219C22.9344 12.5286 24.0269 13.2859 25.3031 13.4368V29.0605H8.63299C8.37354 29.0605 8.16324 29.2707 8.16324 29.5303C8.16324 29.7898 8.37348 30 8.63299 30H25.7729C26.0323 30 26.2426 29.7898 26.2426 29.5303V13.4369C28.2148 13.2036 29.7499 11.5225 29.7499 9.4885ZM6.01297 16.2839H1.85469L6.01297 12.1256V16.2839ZM19.2906 25.5533H7.20295V23.9875H19.2906V25.5533ZM21.2948 23.048H5.19875V21.4822H21.2948V23.048ZM16.8995 18.9019C17.458 19.4877 18.1092 20.0762 18.7442 20.5428H7.74934C8.38438 20.0762 9.03559 19.4877 9.5941 18.9019C10.3187 18.1417 11.9271 16.2767 12.1797 14.4676H14.3139C14.5664 16.2767 16.1749 18.1417 16.8995 18.9019Z" fill="black"/>
</g>
<defs>
<clipPath id="clip0_1167_2">
<rect width="30" height="30" fill="white"/>
</clipPath>
</defs>
</svg>
