<svg width="25" height="25" viewBox="0 0 25 25" fill="none" xmlns="http://www.w3.org/2000/svg">
<path d="M25.0046 4.7923C25.0046 9.95031 25.0046 15.1083 25.0046 20.2663C24.9485 20.2969 24.9638 20.3479 24.9536 20.3937C24.6631 22.5191 23.1493 24.2469 21.08 24.8076C20.8099 24.879 20.5346 24.935 20.2645 24.9962C15.0759 24.9962 9.88223 24.9962 4.69365 24.9962C4.66307 24.9248 4.59681 24.9503 4.54584 24.9401C1.89548 24.4865 0.019844 22.3407 0.00965031 19.7159C-0.000543369 14.8993 -0.00564021 10.0828 0.00965031 5.26631C0.0249408 2.3815 2.37968 0.0216616 5.26959 0.0114679C10.0963 -0.00382263 14.9179 -0.00382263 19.7446 0.0114679C22.1248 0.0165647 24.184 1.62717 24.8109 3.92074C24.8873 4.20617 24.9383 4.50178 25.0046 4.7923ZM12.5836 19.7057C12.869 19.7006 13.2512 19.6802 13.6284 19.619C17.5683 18.9921 20.2492 15.3479 19.6885 11.3876C19.1177 7.34582 15.2135 4.54256 11.2125 5.29689C6.48773 6.18884 3.91383 11.2092 5.94747 15.5619C6.00353 15.6842 6.02392 15.8015 5.99334 15.9391C5.75379 17.0655 5.52443 18.197 5.28998 19.3285C5.20333 19.7464 5.34094 19.884 5.74869 19.7872C6.83942 19.5324 7.93014 19.2724 9.02086 19.0125C9.18396 18.9717 9.32667 18.9768 9.48468 19.0533C10.4378 19.4916 11.4419 19.7006 12.5836 19.7057Z" fill="#2CB642"/>
<path d="M12.5832 19.7057C11.4415 19.6955 10.4375 19.4917 9.48945 19.0431C9.33145 18.9667 9.18874 18.9616 9.02564 19.0024C7.93492 19.2674 6.84419 19.5222 5.75347 19.7771C5.34063 19.8739 5.20811 19.7363 5.29475 19.3184C5.52921 18.1869 5.76366 17.0605 5.99812 15.929C6.0287 15.7965 6.00831 15.6792 5.95225 15.5518C3.91861 11.194 6.49251 6.17362 11.2173 5.28677C15.2183 4.53243 19.1225 7.34079 19.6933 11.3826C20.254 15.3428 17.573 18.982 13.6332 19.614C13.2509 19.6802 12.8687 19.7006 12.5832 19.7057ZM18.1898 12.3663C18.1796 12.2287 18.1847 12.0095 18.1541 11.7903C17.731 8.41623 14.6067 6.18891 11.2835 6.89227C8.82686 7.41215 6.98181 9.56811 6.8289 12.0758C6.75755 13.2276 7.02258 14.3031 7.57814 15.3072C7.65969 15.4499 7.67498 15.5824 7.6393 15.7455C7.50169 16.3622 7.38955 16.9891 7.25194 17.6058C7.20607 17.8046 7.27742 17.8046 7.43033 17.7689C7.90434 17.6517 8.38854 17.5702 8.84725 17.4223C9.27029 17.2847 9.62197 17.3561 10.0195 17.5498C13.832 19.3744 18.1847 16.6476 18.1898 12.3663Z" fill="#FCFDFC"/>
<path d="M18.1903 12.3666C18.1852 16.653 13.8274 19.3798 10.0201 17.5501C9.62253 17.3564 9.27085 17.285 8.84781 17.4226C8.384 17.5704 7.8998 17.652 7.43089 17.7692C7.28308 17.8049 7.21173 17.7998 7.2525 17.6061C7.39011 16.9894 7.50225 16.3625 7.63986 15.7458C7.67554 15.5827 7.66025 15.4502 7.5787 15.3074C7.02314 14.3034 6.7632 13.233 6.82946 12.0761C6.97727 9.56841 8.82742 7.40735 11.2841 6.89257C14.6072 6.1892 17.7265 8.41652 18.1546 11.7906C18.1852 12.0047 18.1852 12.229 18.1903 12.3666ZM14.5104 15.9751C15.3055 16.0414 15.8662 15.5317 16.3096 14.8385C16.5287 14.492 16.3962 14.1352 15.9987 14.0129C15.6368 13.9007 15.2596 13.8192 14.9029 13.6867C14.5002 13.5388 14.1995 13.6153 13.909 13.9466C13.5675 14.339 13.384 14.3543 12.9355 14.0791C12.1964 13.6204 11.5542 13.0495 10.9987 12.387C10.6164 11.9282 10.6215 11.7855 10.9885 11.3064C11.0445 11.2351 11.1006 11.1637 11.1465 11.0924C11.2331 10.9547 11.2688 10.8069 11.2026 10.6489C10.9936 10.1749 10.7948 9.69073 10.5705 9.22692C10.4431 8.95679 10.1016 8.84466 9.86208 9.02304C9.31162 9.43589 8.858 9.93028 8.84271 10.6846C8.83252 11.3268 9.0211 11.9231 9.3524 12.4634C10.1883 13.8141 11.3249 14.8487 12.7367 15.5725C13.2617 15.8273 13.8172 15.9802 14.5104 15.9751Z" fill="#2DB742"/>
<path d="M14.5106 15.9753C13.8175 15.9804 13.2619 15.8275 12.742 15.5675C11.3302 14.8438 10.1936 13.8091 9.35773 12.4585C9.02644 11.9182 8.83786 11.3219 8.84805 10.6797C8.86334 9.93043 9.31696 9.43604 9.86742 9.0181C10.1019 8.83971 10.4434 8.95184 10.5759 9.22197C10.8001 9.69088 10.9989 10.17 11.2079 10.644C11.2741 10.7969 11.2385 10.9498 11.1518 11.0874C11.1059 11.1639 11.0499 11.2352 10.9938 11.3015C10.6268 11.7806 10.6217 11.9284 11.004 12.382C11.5596 13.0446 12.2018 13.6205 12.9408 14.0742C13.3842 14.3494 13.5677 14.3341 13.9143 13.9416C14.1997 13.6104 14.5004 13.5339 14.9082 13.6817C15.265 13.8142 15.6421 13.8958 16.004 14.0079C16.4016 14.1302 16.5392 14.487 16.3149 14.8336C15.8664 15.5319 15.3057 16.0415 14.5106 15.9753Z" fill="#FCFDFC"/>
</svg>
